<?xml version="1.0" encoding="utf-8"?>
<svg width="48px" height="48px" viewBox="0 0 48 48" version="1.1" xmlns:xlink="http://www.w3.org/1999/xlink" xmlns="http://www.w3.org/2000/svg">
  <defs>
    <linearGradient x1="0.048090935" y1="0.952" x2="0.5090909" y2="0.49090907" id="gradient_1">
      <stop offset="0" stop-color="#3079D6" />
      <stop offset="1" stop-color="#297CD2" />
    </linearGradient>
    <linearGradient x1="0.29670835" y1="0.043806434" x2="0.6285834" y2="1.0224193" id="gradient_2">
      <stop offset="0" stop-color="#2AA4F4" />
      <stop offset="1" stop-color="#007AD9" />
    </linearGradient>
    <path d="M0 0L48 0L48 48L0 48L0 0Z" id="path_1" />
    <path d="M0 0L25 0L25 25L0 25L0 0Z" id="path_2" />
    <clipPath id="mask_1">
      <use xlink:href="#path_1" />
    </clipPath>
    <clipPath id="mask_2">
      <use xlink:href="#path_2" />
    </clipPath>
  </defs>
  <g id="icons8_file_2">
    <path d="M0 0L48 0L48 48L0 48L0 0Z" id="Background" fill="none" fill-rule="evenodd" stroke="none" />
    <g clip-path="url(#mask_1)">
      <path d="M30 11L30 36C30 37.105 29.105 38 28 38L2 38C0.895001 38 0 37.105 0 36L0 2C0 0.895 0.895001 0 2 0L19 0L30 11L30 11Z" transform="translate(9 5)" id="Shape" fill="#50E6FF" fill-rule="evenodd" stroke="none" />
      <path d="M0 0L0 9C0 10.105 0.895 11 2 11L11 11L0 0L0 0Z" transform="translate(28 5)" id="Shape" fill="url(#gradient_1)" fill-rule="evenodd" stroke="none" />
    </g>
  </g>
  <g id="icons8_cloud_backup_restore" transform="translate(11.375366 16.482452)">
    <path d="M0 0L25 0L25 25L0 25L0 0Z" id="Background" fill="none" fill-rule="evenodd" stroke="none" />
    <g clip-path="url(#mask_2)">
      <path d="M25 9.89583C25 13.349 22.2031 16.1458 18.75 16.1458C17.8125 16.1458 5.90625 16.1458 4.94792 16.1458C2.21354 16.1458 0 13.9323 0 11.1979C0 8.83333 1.65625 6.85417 3.88021 6.36458C4.76563 2.71354 8.05208 0 11.9792 0C14.849 0 17.375 1.44792 18.875 3.65104C22.2708 3.71354 25 6.48437 25 9.89583L25 9.89583Z" transform="translate(0 3.6458435)" id="Shape" fill="url(#gradient_2)" fill-rule="evenodd" stroke="none" />
      <path d="M4.41294 6.73229C4.29107 6.43906 4.00774 6.25 3.69107 6.25L3.27805 6.25L3.27805 0.78125C3.27805 0.350521 2.92753 0 2.4968 0L1.97597 0C1.54524 0 1.19472 0.350521 1.19472 0.78125L1.19472 6.25L0.781695 6.25C0.465028 6.25 0.181695 6.43906 0.0598202 6.73229C-0.0615338 7.025 0.00513295 7.35885 0.229091 7.58385L1.68378 9.03854C1.83586 9.19114 2.03586 9.26667 2.23638 9.26667C2.4369 9.26667 2.63638 9.19062 2.78899 9.03854L4.24367 7.58385C4.46763 7.35885 4.5343 7.02448 4.41294 6.73229L4.41294 6.73229Z" transform="translate(8.180298 8.3333435)" id="Shape" fill="#000000" fill-opacity="0.05" fill-rule="evenodd" stroke="none" />
      <path d="M3.91167 6.57135C3.83042 6.37604 3.64188 6.25 3.43042 6.25L2.75698 6.25L2.75698 0.520833C2.75698 0.233333 2.52313 0 2.23615 0L1.71532 0C1.42834 0 1.19448 0.233333 1.19448 0.520833L1.19448 6.25L0.521047 6.25C0.309588 6.25 0.121047 6.37604 0.039797 6.57135C-0.0409325 6.76615 0.00333885 6.98958 0.152817 7.13906L1.6075 8.59375C1.70907 8.69531 1.8424 8.74583 1.97573 8.74583C2.10907 8.74583 2.2424 8.69531 2.34396 8.59375L3.79865 7.13906C3.94813 6.98958 3.9924 6.76614 3.91167 6.57135L3.91167 6.57135Z" transform="translate(8.4409485 8.59375)" id="Shape" fill="#000000" fill-opacity="0.07" fill-rule="evenodd" stroke="none" />
      <path d="M3.17044 6.25L2.23659 6.25L2.23659 0.260417C2.23659 0.116667 2.11992 0 1.97617 0L1.45534 0C1.31159 0 1.19492 0.116667 1.19492 0.260417L1.19492 6.25L0.261068 6.25C0.0292977 6.25 -0.0873695 6.53073 0.0766933 6.69479L1.53138 8.14948C1.63294 8.25104 1.79805 8.25104 1.89961 8.14948L3.3543 6.69479C3.51836 6.53073 3.40221 6.25 3.17044 6.25L3.17044 6.25Z" transform="translate(8.700897 8.8541565)" id="Shape" fill="#FFFFFF" fill-rule="evenodd" stroke="none" />
      <path d="M0.0598202 2.53438C0.181696 2.8276 0.465029 3.01667 0.781696 3.01667L1.19472 3.01667L1.19472 8.48542C1.19472 8.91615 1.54524 9.26667 1.97597 9.26667L2.4968 9.26667C2.92753 9.26667 3.27805 8.91615 3.27805 8.48542L3.27805 3.01667L3.69107 3.01667C4.00774 3.01667 4.29107 2.8276 4.41295 2.53438C4.5343 2.24167 4.46763 1.90781 4.24367 1.68281L2.78899 0.228125C2.6369 0.0755206 2.4369 0 2.23638 0C2.03586 0 1.83638 0.0760416 1.68378 0.228125L0.229091 1.68281C0.00513295 1.90781 -0.0615338 2.24219 0.0598202 2.53438L0.0598202 2.53438Z" transform="translate(12.346954 7.9208374)" id="Shape" fill="#000000" fill-opacity="0.05" fill-rule="evenodd" stroke="none" />
      <path d="M0.039797 2.17448C0.121047 2.36979 0.309589 2.49583 0.521047 2.49583L1.19448 2.49583L1.19448 8.225C1.19448 8.5125 1.42834 8.74583 1.71532 8.74583L2.23615 8.74583C2.52313 8.74583 2.75698 8.5125 2.75698 8.225L2.75698 2.49583L3.43042 2.49583C3.64188 2.49583 3.83042 2.36979 3.91167 2.17448C3.9924 1.97969 3.94813 1.75625 3.79865 1.60677L2.34396 0.152083C2.2424 0.0505209 2.10907 0 1.97573 0C1.8424 0 1.70907 0.0505209 1.6075 0.152083L0.152817 1.60677C0.00333786 1.75625 -0.0409325 1.97969 0.039797 2.17448L0.039797 2.17448Z" transform="translate(12.607605 8.181244)" id="Shape" fill="#000000" fill-opacity="0.07" fill-rule="evenodd" stroke="none" />
      <path d="M0.260676 1.97565L1.19453 1.97565L1.19453 7.96523C1.19453 8.10898 1.3112 8.22565 1.45495 8.22565L1.97578 8.22565C2.11953 8.22565 2.2362 8.10898 2.2362 7.96523L2.2362 1.97565L3.17005 1.97565C3.40182 1.97565 3.51849 1.69492 3.35443 1.53086L1.89974 0.0761717C1.79818 -0.0253906 1.63307 -0.0253906 1.53151 0.0761717L0.0768215 1.53086C-0.0872413 1.69492 0.0289043 1.97565 0.260676 1.97565L0.260676 1.97565Z" transform="translate(12.867981 8.4410095)" id="Shape" fill="#FFFFFF" fill-rule="evenodd" stroke="none" />
    </g>
  </g>
</svg>