<?xml version="1.0" encoding="utf-8"?>
<svg width="48px" height="49px" viewBox="0 0 48 49" version="1.1" xmlns:xlink="http://www.w3.org/1999/xlink" xmlns="http://www.w3.org/2000/svg">
  <defs>
    <linearGradient x1="0.048090935" y1="0.952" x2="0.5090909" y2="0.49090907" id="gradient_1">
      <stop offset="0" stop-color="#3079D6" />
      <stop offset="1" stop-color="#297CD2" />
    </linearGradient>
    <path d="M0 0L48 0L48 48L0 48L0 0Z" id="path_1" />
    <clipPath id="mask_1">
      <use xlink:href="#path_1" />
    </clipPath>
  </defs>
  <g id="icons8_file_2">
    <path d="M0 0L48 0L48 48L0 48L0 0Z" id="Background" fill="none" fill-rule="evenodd" stroke="none" />
    <g clip-path="url(#mask_1)">
      <path d="M30 11L30 36C30 37.105 29.105 38 28 38L2 38C0.895001 38 0 37.105 0 36L0 2C0 0.895 0.895001 0 2 0L19 0L30 11L30 11Z" transform="translate(9 5)" id="Shape" fill="#50E6FF" fill-rule="evenodd" stroke="none" />
      <path d="M0 0L0 9C0 10.105 0.895 11 2 11L11 11L0 0L0 0Z" transform="translate(28 5)" id="Shape" fill="url(#gradient_1)" fill-rule="evenodd" stroke="none" />
    </g>
  </g>
  <g id="svg" transform="translate(13.183899 18.645523)">
    <g id="CCreative">
      <g id="svg92">
        <path d="M0 10.5C0 4.70101 4.70101 0 10.5 0C16.299 0 21 4.70101 21 10.5C21 16.299 16.299 21 10.5 21C4.70101 21 0 16.299 0 10.5L0 10.5Z" id="ellipse82" fill="#388E3C" fill-rule="evenodd" stroke="none" />
        <path d="M0 3.87598C0 1.73533 1.73533 0 3.87598 0C6.01662 0 7.75195 1.73533 7.75195 3.87598C7.75195 6.01662 6.01662 7.75195 3.87598 7.75195C1.73533 7.75195 0 6.01662 0 3.87598L0 3.87598Z" transform="translate(6.6240234 6.6240234)" id="ellipse84" fill="#59AD43" fill-rule="evenodd" stroke="none" />
        <path d="M9.34131 0.421231L7.8549 0L4.0749 0L1.36705 1.63529L0 3.69961L0.107051 7.23844L1.23293 10.3031L7.12318 16.1934C11.7932 15.5642 15.4887 11.8654 16.1138 7.19414L9.34131 0.421231L9.34131 0.421231Z" transform="translate(4.792267 4.7114716)" id="path86" fill="#1E1E1C" fill-opacity="0.5019608" fill-rule="evenodd" stroke="none" />
        <path d="M8.36512 10.4323L8.67684 11.0779C8.24905 11.2846 7.7946 11.431 7.32661 11.5135C7.02966 11.5656 6.73352 11.591 6.44108 11.591C3.98876 11.591 1.78827 9.81626 1.34981 7.32538C0.859266 4.53714 2.74968 1.83913 5.53792 1.34858C5.78852 1.3047 6.04159 1.27886 6.29589 1.27229L6.31475 1.9913C3.91534 2.05364 1.98925 4.01665 1.98925 6.43124C1.98925 8.88479 3.9785 10.8741 6.43206 10.8741C7.12522 10.8741 7.78065 10.7153 8.36512 10.4323L8.36512 10.4323L8.36512 10.4323ZM9.07471 10.8642L9.08332 10.8819L9.27938 11.2883L8.87291 11.4844C8.40738 11.7091 7.91355 11.8687 7.40455 11.9581C7.08627 12.0139 6.76225 12.0426 6.44068 12.0426C5.14049 12.0426 3.86572 11.5799 2.85182 10.7404C1.8252 9.8901 1.13408 8.70516 0.904805 7.40414C0.646817 5.93701 0.980273 4.44979 1.84406 3.21686C2.70785 1.98393 3.99164 1.16279 5.45918 0.904395C5.7307 0.856816 6.00797 0.828516 6.28359 0.821543L6.73476 0.809648L6.74666 1.26082L6.74707 1.28133C7.67812 1.33752 8.54191 1.64022 9.27527 2.12543L9.97582 1.06436C8.92418 0.369961 7.69166 0 6.43166 0C2.90309 0 0 2.9035 0 6.43166C0 9.96023 2.9035 12.8633 6.43166 12.8633C7.91396 12.8633 9.35156 12.351 10.4996 11.4134L9.69527 10.4286C9.50045 10.5882 9.29291 10.7338 9.07471 10.8642L9.07471 10.8642L9.07471 10.8642Z" transform="translate(4.156952 4.068741)" id="path88" fill="#ECECEC" fill-rule="evenodd" stroke="none" />
        <path d="M0 3.87598C0 1.73533 1.73533 0 3.87598 0C6.01662 0 7.75195 1.73533 7.75195 3.87598C7.75195 6.01662 6.01662 7.75195 3.87598 7.75195C1.73533 7.75195 0 6.01662 0 3.87598L0 3.87598Z" transform="translate(6.6240234 6.6240234)" id="ellipse90" fill="#388E3C" fill-rule="evenodd" stroke="none" />
      </g>
    </g>
  </g>
</svg>