<?xml version="1.0" encoding="utf-8"?>
<svg width="48px" height="48px" viewBox="0 0 48 48" version="1.1" xmlns:xlink="http://www.w3.org/1999/xlink" xmlns="http://www.w3.org/2000/svg">
	<defs>
		<linearGradient x1="0.048090935" y1="0.952" x2="0.5090909" y2="0.49090907" id="gradient_1">
			<stop offset="0" stop-color="#3079D6" />
			<stop offset="1" stop-color="#297CD2" />
		</linearGradient>
		<linearGradient x1="0" y1="0.49999997" x2="1" y2="0.49999997" id="gradient_2">
			<stop offset="0" stop-color="#00B1FE" />
			<stop offset="1" stop-color="#0083FF" />
		</linearGradient>
		<linearGradient x1="-0.00014066696" y1="0.4999838" x2="1" y2="0.4999838" id="gradient_3">
			<stop offset="0" stop-color="#4B4B4B" />
			<stop offset="1" stop-color="#3B3B3B" />
		</linearGradient>
		<path d="M0 0L48 0L48 48L0 48L0 0Z" id="path_1" />
		<path d="M0 0L25 0L25 25L0 25L0 0Z" id="path_2" />
		<clipPath id="mask_1">
			<use xlink:href="#path_1" />
		</clipPath>
		<clipPath id="mask_2">
			<use xlink:href="#path_2" />
		</clipPath>
	</defs>
	<g id="icons8_file">
		<path d="M0 0L48 0L48 48L0 48L0 0Z" id="Background" fill="none" fill-rule="evenodd" stroke="none" />
		<g clip-path="url(#mask_1)">
			<path d="M30 11L30 36C30 37.105 29.105 38 28 38L2 38C0.895001 38 0 37.105 0 36L0 2C0 0.895 0.895001 0 2 0L19 0L30 11L30 11Z" transform="translate(9 5)" id="Shape" fill="#50E6FF" fill-rule="evenodd" stroke="none" />
			<path d="M0 0L0 9C0 10.105 0.895 11 2 11L11 11L0 0L0 0Z" transform="translate(28 5)" id="Shape" fill="url(#gradient_1)" fill-rule="evenodd" stroke="none" />
		</g>
	</g>
	<g id="icons8_open_archive" transform="translate(11.386414 16.71428)">
		<path d="M0 0L25 0L25 25L0 25L0 0Z" id="Background" fill="none" fill-rule="evenodd" stroke="none" />
		<g clip-path="url(#mask_2)">
			<path d="M15.625 18.75C15.625 19.3255 15.1589 19.7917 14.5833 19.7917L1.04167 19.7917C0.466146 19.7917 0 19.3255 0 18.75L0 1.04167C0 0.466146 0.466146 0 1.04167 0L14.5833 0C15.1589 0 15.625 0.466146 15.625 1.04167L15.625 18.75L15.625 18.75Z" transform="translate(4.6875 2.6041718)" id="Shape" fill="url(#gradient_2)" fill-rule="evenodd" stroke="none" />
			<path d="M2.60417 10.4167L0 0L7.29167 0L4.6875 10.4167L2.60417 10.4167Z" transform="translate(8.8541565 2.6041718)" id="Polygon" fill="#01C6E9" fill-rule="evenodd" stroke="none" />
			<path d="M0.520833 1.04109C0.453126 1.04109 0.385417 1.03067 0.322917 0.99942C0.260417 0.973378 0.203126 0.936919 0.151042 0.890045C0.057292 0.791087 0 0.65567 0 0.520253C0 0.384836 0.057292 0.24942 0.151042 0.150462C0.203126 0.103587 0.260417 0.0671287 0.322917 0.0410875C0.515626 -0.0422458 0.744792 0.00462929 0.890626 0.150462C0.984375 0.24942 1.04167 0.384836 1.04167 0.520253C1.04167 0.556711 1.03646 0.587961 1.03125 0.62442C1.02604 0.65567 1.01562 0.686921 1 0.71817C0.989583 0.74942 0.973959 0.780671 0.953125 0.81192C0.9375 0.837962 0.911459 0.864004 0.890625 0.890045C0.864583 0.910879 0.838541 0.93692 0.8125 0.952546C0.78125 0.973379 0.75 0.989004 0.71875 0.999421C0.6875 1.01505 0.656249 1.02546 0.625 1.03067C0.588541 1.03588 0.557292 1.04109 0.520833 1.04109L0.520833 1.04109Z" transform="translate(13.0208435 12.500595)" id="Shape" fill="#0169E9" fill-rule="evenodd" stroke="none" />
			<path d="M0.394966 6.96297C0.118924 6.89526 -0.0529508 6.61401 0.0147581 6.33276L0.0147581 6.33276C0.082466 6.05671 0.363716 5.88484 0.644967 5.95255L0.644967 5.95255C0.926217 6.02026 1.09288 6.30151 1.02517 6.58276L1.02517 6.58276C0.967883 6.81713 0.754341 6.97859 0.519967 6.97859L0.519967 6.97859C0.478299 6.97859 0.436633 6.97338 0.394966 6.96297L0.394966 6.96297ZM0.879331 4.98381C0.598081 4.9161 0.431414 4.63485 0.499123 4.3536L0.499123 4.3536C0.566831 4.07756 0.848081 3.90568 1.12933 3.97339L1.12933 3.97339C1.40537 4.0411 1.57725 4.32235 1.50954 4.6036L1.50954 4.6036C1.45225 4.83797 1.23871 4.99943 1.00433 4.99943L1.00433 4.99943C0.962664 4.99943 0.920998 4.99422 0.879331 4.98381L0.879331 4.98381ZM1.36372 3.00462C1.08767 2.93691 0.915799 2.65566 0.983508 2.37441L0.983508 2.37441C1.05122 2.09837 1.33247 1.9265 1.61372 1.9942L1.61372 1.9942C1.88976 2.06191 2.06163 2.34316 1.99392 2.62441L1.99392 2.62441C1.93663 2.85879 1.72309 3.02025 1.48872 3.02025L1.48872 3.02025C1.44705 3.02025 1.40538 3.01504 1.36372 3.00462L1.36372 3.00462ZM1.84809 1.02547C1.57205 0.957761 1.40017 0.676511 1.46788 0.395261L1.46788 0.395261C1.53559 0.114011 1.81684 -0.0526552 2.09809 0.0150527L2.09809 0.0150527C2.37413 0.082761 2.54601 0.364011 2.4783 0.645261L2.4783 0.645261C2.42101 0.879636 2.20747 1.04109 1.97309 1.04109L1.97309 1.04109C1.93142 1.04109 1.88976 1.03589 1.84809 1.02547L1.84809 1.02547Z" transform="translate(13.506073 4.583908)" id="Shape" fill="#0169E9" fill-rule="evenodd" stroke="none" />
			<path d="M0.520833 1.03516C0.385416 1.03516 0.25 0.977865 0.151042 0.884115C0.0572919 0.785156 0 0.64974 0 0.514323C0 0.378906 0.0572919 0.24349 0.151042 0.144531C0.343751 -0.0481769 0.692708 -0.0481769 0.890625 0.144531C0.984375 0.24349 1.04167 0.378906 1.04167 0.514323C1.04167 0.64974 0.984375 0.785156 0.890625 0.884115C0.791666 0.977865 0.65625 1.03516 0.520833 1.03516L0.520833 1.03516Z" transform="translate(15.4427185 2.610672)" id="Shape" fill="#0169E9" fill-rule="evenodd" stroke="none" />
			<path d="M0.520833 1.03516C0.385417 1.03516 0.25 0.977865 0.151042 0.884115C0.057291 0.785156 0 0.64974 0 0.514323C0 0.378906 0.057292 0.24349 0.151042 0.144531C0.348958 -0.0481769 0.692708 -0.0481769 0.890626 0.144531C0.984376 0.24349 1.04167 0.378906 1.04167 0.514323C1.04167 0.64974 0.984376 0.785156 0.890626 0.884115C0.791667 0.977865 0.65625 1.03516 0.520833 1.03516L0.520833 1.03516Z" transform="translate(8.515625 2.610672)" id="Shape" fill="#0169E9" fill-rule="evenodd" stroke="none" />
			<path d="M1.46788 6.58276C1.40018 6.30151 1.57205 6.02026 1.84809 5.95255L1.84809 5.95255C2.12934 5.88484 2.41059 6.05151 2.4783 6.33276L2.4783 6.33276C2.54601 6.61401 2.37413 6.89526 2.09809 6.96297L2.09809 6.96297C2.05643 6.97338 2.01476 6.97859 1.97309 6.97859L1.97309 6.97859C1.73872 6.97859 1.52517 6.81714 1.46788 6.58276L1.46788 6.58276ZM0.983497 4.6036C0.915789 4.32235 1.08246 4.0411 1.36371 3.97339L1.36371 3.97339C1.64496 3.90568 1.9262 4.07756 1.99391 4.3536L1.99391 4.3536C2.06162 4.63485 1.88975 4.9161 1.61371 4.98381L1.61371 4.98381C1.57204 4.99422 1.53037 4.99943 1.48871 4.99943L1.48871 4.99943C1.25433 4.99943 1.04079 4.83797 0.983497 4.6036L0.983497 4.6036ZM0.499133 2.62441C0.431425 2.34316 0.6033 2.06191 0.879341 1.9942L0.879341 1.9942C1.16059 1.9265 1.44184 2.09837 1.50955 2.37441L1.50955 2.37441C1.57726 2.65566 1.40538 2.93691 1.12934 3.00462L1.12934 3.00462C1.08768 3.01504 1.04601 3.02025 1.00434 3.02025L1.00434 3.02025C0.769967 3.02025 0.556425 2.85879 0.499133 2.62441L0.499133 2.62441ZM0.0147581 0.645261C-0.0529498 0.364011 0.118925 0.082761 0.394966 0.0150527L0.394966 0.0150527C0.676217 -0.0526557 0.957466 0.114011 1.02517 0.395261L1.02517 0.395261C1.09288 0.676511 0.921008 0.957761 0.644967 1.02547L0.644967 1.02547C0.6033 1.03589 0.561634 1.04109 0.519967 1.04109L0.519967 1.04109C0.285592 1.04109 0.0720501 0.879636 0.0147581 0.645261L0.0147581 0.645261Z" transform="translate(9.000885 4.583908)" id="Shape" fill="#0169E9" fill-rule="evenodd" stroke="none" />
			<path d="M0.520833 1.03516C0.484375 1.03516 0.453126 1.02995 0.416666 1.02474C0.385417 1.01953 0.354166 1.00911 0.322916 0.993489C0.291666 0.983072 0.260416 0.967447 0.229166 0.946614C0.203125 0.930988 0.177082 0.904947 0.151041 0.884113C0.057292 0.785156 0 0.649739 0 0.514322C0 0.378906 0.057292 0.243489 0.151042 0.144531C0.348958 -0.0481774 0.697917 -0.0481774 0.890626 0.144531C0.984375 0.243489 1.04167 0.378906 1.04167 0.514322C1.04167 0.55078 1.03646 0.58203 1.03125 0.618489C1.02604 0.649739 1.01562 0.68099 1 0.712239C0.989583 0.743489 0.973959 0.77474 0.953125 0.80599C0.9375 0.832031 0.911459 0.858073 0.890625 0.884114C0.864583 0.904948 0.838541 0.930989 0.8125 0.946615C0.78125 0.967448 0.75 0.983073 0.71875 0.99349C0.6875 1.00911 0.656249 1.01953 0.625 1.02474C0.588541 1.02995 0.552083 1.03516 0.520833 1.03516L0.520833 1.03516Z" transform="translate(10.9375 12.5065155)" id="Shape" fill="#0169E9" fill-rule="evenodd" stroke="none" />
			<path d="M0 0L2.08333 0L2.08333 1.04167L0 1.04167L0 0Z" transform="translate(11.4583435 12.499985)" id="Rectangle" fill="#0169E9" fill-rule="evenodd" stroke="none" />
			<path d="M2.68394 0.426042C2.63914 0.179167 2.42352 0 2.17196 0L0.952164 0C0.700602 0 0.484977 0.178125 0.440185 0.425521C0.296956 1.2125 0.0115395 2.92188 8.14597e-05 4.09583C-0.00773072 4.88125 0.545394 5.59583 1.32196 5.71146C2.29123 5.85573 3.12456 5.10833 3.12456 4.16667C3.12456 2.99219 2.83029 1.22969 2.68394 0.426042L2.68394 0.426042ZM1.56206 4.68751C1.27456 4.68751 1.04123 4.45418 1.04123 4.16668C1.04123 3.87918 1.27456 3.64584 1.56206 3.64584C1.84956 3.64584 2.0829 3.87918 2.0829 4.16668C2.0829 4.45418 1.84956 4.68751 1.56206 4.68751L1.56206 4.68751Z" transform="translate(10.937958 13.541672)" id="Shape" fill="url(#gradient_3)" fill-rule="evenodd" stroke="none" />
		</g>
	</g>
</svg>