<?xml version="1.0" encoding="utf-8"?>
<svg width="48px" height="48px" viewBox="0 0 48 48" version="1.1" xmlns:xlink="http://www.w3.org/1999/xlink" xmlns="http://www.w3.org/2000/svg">
  <defs>
    <linearGradient x1="0.048090935" y1="0.952" x2="0.5090909" y2="0.49090907" id="gradient_1">
      <stop offset="0" stop-color="#3079D6" />
      <stop offset="1" stop-color="#297CD2" />
    </linearGradient>
    <path d="M0 0L48 0L48 48L0 48L0 0Z" id="path_1" />
    <path d="M0 0L25 0L25 25L0 25L0 0Z" id="path_2" />
    <clipPath id="mask_1">
      <use xlink:href="#path_1" />
    </clipPath>
    <clipPath id="mask_2">
      <use xlink:href="#path_2" />
    </clipPath>
  </defs>
  <g id="icons8_file_2">
    <path d="M0 0L48 0L48 48L0 48L0 0Z" id="Background" fill="none" fill-rule="evenodd" stroke="none" />
    <g clip-path="url(#mask_1)">
      <path d="M30 11L30 36C30 37.105 29.105 38 28 38L2 38C0.895001 38 0 37.105 0 36L0 2C0 0.895 0.895001 0 2 0L19 0L30 11L30 11Z" transform="translate(9 5)" id="Shape" fill="#50E6FF" fill-rule="evenodd" stroke="none" />
      <path d="M0 0L0 9C0 10.105 0.895 11 2 11L11 11L0 0L0 0Z" transform="translate(28 5)" id="Shape" fill="url(#gradient_1)" fill-rule="evenodd" stroke="none" />
    </g>
  </g>
  <g id="icons8_literature" transform="translate(11.068298 16.645447)">
    <path d="M0 0L25 0L25 25L0 25L0 0Z" id="Background" fill="none" fill-rule="evenodd" stroke="none" />
    <g clip-path="url(#mask_2)">
      <path d="M9.89583 0L0 0L0 16.6667L9.89583 16.6667C10.4714 16.6667 10.9375 16.2005 10.9375 15.625L10.9375 1.04167C10.9375 0.466146 10.4714 0 9.89583 0L9.89583 0Z" transform="translate(12.5 4.1666565)" id="Shape" fill="#0078D4" fill-rule="evenodd" stroke="none" />
      <path d="M10.9375 0L1.04167 0C0.466146 0 0 0.466146 0 1.04167L0 15.625C0 16.2005 0.466146 16.6667 1.04167 16.6667L10.9375 16.6667L10.9375 0L10.9375 0Z" transform="translate(1.5625 4.1666565)" id="Shape" fill="#1B9DE2" fill-rule="evenodd" stroke="none" />
      <path d="M0 1.5625C0 2.42552 0.699479 3.125 1.5625 3.125L1.5625 0C0.699479 0 0 0.699478 0 1.5625L0 1.5625Z" transform="translate(10.9375 18.229156)" id="Shape" fill="#1B9DE2" fill-rule="evenodd" stroke="none" />
      <path d="M1.5625 1.5625C1.5625 0.699478 0.863021 0 0 0L0 3.125C0.863021 3.125 1.5625 2.42552 1.5625 1.5625L1.5625 1.5625Z" transform="translate(12.5 18.229156)" id="Shape" fill="#0078D4" fill-rule="evenodd" stroke="none" />
      <path d="M9.89583 0L0.520833 0C0.233333 0 0 0.233333 0 0.520833L0 15.1042C0 15.3917 0.233333 15.625 0.520833 15.625L9.89583 15.625L9.89583 0L9.89583 0Z" transform="translate(2.604187 4.1666565)" id="Shape" fill="#FFFFFF" fill-rule="evenodd" stroke="none" />
      <path d="M9.375 0L0 0L0 15.625L9.375 15.625C9.6625 15.625 9.89583 15.3917 9.89583 15.1042L9.89583 0.520833C9.89583 0.233333 9.6625 0 9.375 0L9.375 0Z" transform="translate(12.5 4.1666565)" id="Shape" fill="#F0F0F0" fill-rule="evenodd" stroke="none" />
      <path d="M6.51042 1.04167L0.260417 1.04167C0.116667 1.04167 0 0.925 0 0.78125L0 0.260417C0 0.116667 0.116667 0 0.260417 0L6.51042 0C6.65417 0 6.77083 0.116667 6.77083 0.260417L6.77083 0.78125C6.77083 0.925 6.65417 1.04167 6.51042 1.04167L6.51042 1.04167Z" transform="translate(4.166687 6.25)" id="Shape" fill="#F0F0F0" fill-rule="evenodd" stroke="none" />
      <path d="M6.51042 1.04167L0.260417 1.04167C0.116667 1.04167 0 0.925 0 0.78125L0 0.260417C0 0.116667 0.116667 0 0.260417 0L6.51042 0C6.65417 0 6.77083 0.116667 6.77083 0.260417L6.77083 0.78125C6.77083 0.925 6.65417 1.04167 6.51042 1.04167L6.51042 1.04167Z" transform="translate(4.166687 8.3333435)" id="Shape" fill="#F0F0F0" fill-rule="evenodd" stroke="none" />
      <path d="M6.51042 1.04167L0.260417 1.04167C0.116667 1.04167 0 0.925 0 0.78125L0 0.260417C0 0.116667 0.116667 0 0.260417 0L6.51042 0C6.65417 0 6.77083 0.116667 6.77083 0.260417L6.77083 0.78125C6.77083 0.925 6.65417 1.04167 6.51042 1.04167L6.51042 1.04167Z" transform="translate(4.166687 10.4166565)" id="Shape" fill="#F0F0F0" fill-rule="evenodd" stroke="none" />
      <path d="M6.51042 1.04167L0.260417 1.04167C0.116667 1.04167 0 0.925 0 0.78125L0 0.260417C0 0.116667 0.116667 0 0.260417 0L6.51042 0C6.65417 0 6.77083 0.116667 6.77083 0.260417L6.77083 0.78125C6.77083 0.925 6.65417 1.04167 6.51042 1.04167L6.51042 1.04167Z" transform="translate(4.166687 12.5)" id="Shape" fill="#F0F0F0" fill-rule="evenodd" stroke="none" />
      <path d="M6.51042 1.04167L0.260417 1.04167C0.116667 1.04167 0 0.925 0 0.78125L0 0.260417C0 0.116667 0.116667 0 0.260417 0L6.51042 0C6.65417 0 6.77083 0.116667 6.77083 0.260417L6.77083 0.78125C6.77083 0.925 6.65417 1.04167 6.51042 1.04167L6.51042 1.04167Z" transform="translate(4.166687 14.5833435)" id="Shape" fill="#F0F0F0" fill-rule="evenodd" stroke="none" />
      <path d="M5.46875 1.04167L0.260417 1.04167C0.116667 1.04167 0 0.925 0 0.78125L0 0.260417C0 0.116666 0.116667 0 0.260417 0L5.46875 0C5.6125 0 5.72917 0.116666 5.72917 0.260417L5.72917 0.78125C5.72917 0.925 5.6125 1.04167 5.46875 1.04167L5.46875 1.04167Z" transform="translate(4.166687 16.666656)" id="Shape" fill="#F0F0F0" fill-rule="evenodd" stroke="none" />
      <path d="M6.51042 1.04167L0.260417 1.04167C0.116667 1.04167 0 0.925 0 0.78125L0 0.260417C0 0.116667 0.116667 0 0.260417 0L6.51042 0C6.65417 0 6.77083 0.116667 6.77083 0.260417L6.77083 0.78125C6.77083 0.925 6.65417 1.04167 6.51042 1.04167L6.51042 1.04167Z" transform="translate(14.0625 6.25)" id="Shape" fill="#E0E0E0" fill-rule="evenodd" stroke="none" />
      <path d="M6.51042 1.04167L0.260417 1.04167C0.116667 1.04167 0 0.925 0 0.78125L0 0.260417C0 0.116667 0.116667 0 0.260417 0L6.51042 0C6.65417 0 6.77083 0.116667 6.77083 0.260417L6.77083 0.78125C6.77083 0.925 6.65417 1.04167 6.51042 1.04167L6.51042 1.04167Z" transform="translate(14.0625 8.3333435)" id="Shape" fill="#E0E0E0" fill-rule="evenodd" stroke="none" />
      <path d="M6.51042 1.04167L0.260417 1.04167C0.116667 1.04167 0 0.925 0 0.78125L0 0.260417C0 0.116667 0.116667 0 0.260417 0L6.51042 0C6.65417 0 6.77083 0.116667 6.77083 0.260417L6.77083 0.78125C6.77083 0.925 6.65417 1.04167 6.51042 1.04167L6.51042 1.04167Z" transform="translate(14.0625 10.4166565)" id="Shape" fill="#E0E0E0" fill-rule="evenodd" stroke="none" />
      <path d="M6.51042 1.04167L0.260417 1.04167C0.116667 1.04167 0 0.925 0 0.78125L0 0.260417C0 0.116667 0.116667 0 0.260417 0L6.51042 0C6.65417 0 6.77083 0.116667 6.77083 0.260417L6.77083 0.78125C6.77083 0.925 6.65417 1.04167 6.51042 1.04167L6.51042 1.04167Z" transform="translate(14.0625 12.5)" id="Shape" fill="#E0E0E0" fill-rule="evenodd" stroke="none" />
      <path d="M6.51042 1.04167L0.260417 1.04167C0.116667 1.04167 0 0.925 0 0.78125L0 0.260417C0 0.116667 0.116667 0 0.260417 0L6.51042 0C6.65417 0 6.77083 0.116667 6.77083 0.260417L6.77083 0.78125C6.77083 0.925 6.65417 1.04167 6.51042 1.04167L6.51042 1.04167Z" transform="translate(14.0625 14.5833435)" id="Shape" fill="#E0E0E0" fill-rule="evenodd" stroke="none" />
      <path d="M5.46875 1.04167L0.260417 1.04167C0.116667 1.04167 0 0.925 0 0.78125L0 0.260417C0 0.116666 0.116667 0 0.260417 0L5.46875 0C5.6125 0 5.72917 0.116666 5.72917 0.260417L5.72917 0.78125C5.72917 0.925 5.6125 1.04167 5.46875 1.04167L5.46875 1.04167Z" transform="translate(14.0625 16.666656)" id="Shape" fill="#E0E0E0" fill-rule="evenodd" stroke="none" />
    </g>
  </g>
</svg>