<?xml version="1.0" encoding="utf-8"?>
<svg width="48px" height="48px" viewBox="0 0 48 48" version="1.1" xmlns:xlink="http://www.w3.org/1999/xlink" xmlns="http://www.w3.org/2000/svg">
	<defs>
		<linearGradient x1="0.048090935" y1="0.952" x2="0.5090909" y2="0.49090907" id="gradient_1">
			<stop offset="0" stop-color="#3079D6" />
			<stop offset="1" stop-color="#297CD2" />
		</linearGradient>
		<linearGradient x1="0.017775" y1="-0.123168945" x2="0.97107494" y2="1.1689987" id="gradient_2">
			<stop offset="0" stop-color="#0077D2" />
			<stop offset="1" stop-color="#0B59A2" />
		</linearGradient>
		<path d="M0 0L48 0L48 48L0 48L0 0Z" id="path_1" />
		<path d="M0 0L25 0L25 25L0 25L0 0Z" id="path_2" />
		<clipPath id="mask_1">
			<use xlink:href="#path_1" />
		</clipPath>
		<clipPath id="mask_2">
			<use xlink:href="#path_2" />
		</clipPath>
	</defs>
	<g id="icons8_file">
		<path d="M0 0L48 0L48 48L0 48L0 0Z" id="Background" fill="none" fill-rule="evenodd" stroke="none" />
		<g clip-path="url(#mask_1)">
			<path d="M30 11L30 36C30 37.105 29.105 38 28 38L2 38C0.895001 38 0 37.105 0 36L0 2C0 0.895 0.895001 0 2 0L19 0L30 11L30 11Z" transform="translate(9 5)" id="Shape" fill="#50E6FF" fill-rule="evenodd" stroke="none" />
			<path d="M0 0L0 9C0 10.105 0.895 11 2 11L11 11L0 0L0 0Z" transform="translate(28 5)" id="Shape" fill="url(#gradient_1)" fill-rule="evenodd" stroke="none" />
		</g>
	</g>
	<g id="icons8_cursor_in_window" transform="translate(11.48645 16.714218)">
		<path d="M0 0L25 0L25 25L0 25L0 0Z" id="Background" fill="none" fill-rule="evenodd" stroke="none" />
		<g clip-path="url(#mask_2)">
			<path d="M0 13.5417L0 0L20.8333 0L20.8333 13.5417C20.8333 14.1146 20.3646 14.5833 19.7917 14.5833L1.04167 14.5833C0.46875 14.5833 0 14.1146 0 13.5417L0 13.5417Z" transform="translate(2.0833435 6.7708282)" id="Shape" fill="#1A6CA1" fill-opacity="0.69803923" fill-rule="evenodd" stroke="none" />
			<path d="M20.8333 1.04167L20.8333 3.125L0 3.125L0 1.04167C0 0.46875 0.46875 0 1.04167 0L19.7917 0C20.3646 0 20.8333 0.46875 20.8333 1.04167L20.8333 1.04167Z" transform="translate(2.0833435 3.6458282)" id="Shape" fill="url(#gradient_2)" fill-rule="evenodd" stroke="none" />
			<path d="M0 0.520833C0 0.233185 0.233185 0 0.520833 0C0.808481 0 1.04167 0.233185 1.04167 0.520833C1.04167 0.808482 0.808481 1.04167 0.520833 1.04167C0.233185 1.04167 0 0.808482 0 0.520833Z" transform="translate(18.75 4.6874847)" id="Circle" fill="#35C1F1" fill-rule="evenodd" stroke="none" />
			<path d="M0 0.520833C0 0.233185 0.233185 0 0.520833 0C0.808481 0 1.04167 0.233185 1.04167 0.520833C1.04167 0.808482 0.808481 1.04167 0.520833 1.04167C0.233185 1.04167 0 0.808482 0 0.520833Z" transform="translate(20.833344 4.6874847)" id="Circle" fill="#35C1F1" fill-rule="evenodd" stroke="none" />
			<path d="M0 0.14896L0 4.89792C0 5.03906 0.164583 5.11563 0.272917 5.02552L1.36927 4.11146L2.09167 5.77292C2.1276 5.85521 2.22344 5.89323 2.30625 5.85729L2.59531 5.73177L0.0989576 0C0.0427087 0.0239601 0 0.0776062 0 0.14896L0 0.14896Z" transform="translate(12.5 11.472397)" id="Shape" fill="#F5F6F7" fill-rule="evenodd" stroke="none" />
			<path d="M2.85833 5.41142L2.14167 3.76246L3.39635 3.64996C3.53698 3.63746 3.59896 3.46662 3.49896 3.36662L0.180209 0.0478735C0.128125 -0.00421007 0.057292 -0.0109812 0 0.014019L2.49635 5.74631L2.77396 5.62548C2.85677 5.59006 2.89427 5.49423 2.85833 5.41142L2.85833 5.41142Z" transform="translate(12.5979 11.4578705)" id="Shape" fill="#D9DCDF" fill-rule="evenodd" stroke="none" />
		</g>
	</g>
</svg>