<?xml version="1.0" encoding="utf-8"?>
<svg width="48px" height="48px" viewBox="0 0 48 48" version="1.1" xmlns:xlink="http://www.w3.org/1999/xlink" xmlns="http://www.w3.org/2000/svg">
	<defs>
		<linearGradient x1="0.048090935" y1="0.952" x2="0.5090909" y2="0.49090907" id="gradient_1">
			<stop offset="0" stop-color="#3079D6" />
			<stop offset="1" stop-color="#297CD2" />
		</linearGradient>
		<linearGradient x1="-0.0054249987" y1="-0.0054249987" x2="1.0683501" y2="1.0683501" id="gradient_2">
			<stop offset="0" stop-color="#21AD64" />
			<stop offset="1" stop-color="#088242" />
		</linearGradient>
		<linearGradient x1="0.14500046" y1="0.14500046" x2="1.123333" y2="1.123333" id="gradient_3">
			<stop offset="0" stop-color="#FFD869" />
			<stop offset="1" stop-color="#FEC52B" />
		</linearGradient>
		<linearGradient x1="-0.121799946" y1="-0.121800184" x2="1.0768001" y2="1.0768001" id="gradient_4">
			<stop offset="0" stop-color="#FFD869" />
			<stop offset="1" stop-color="#FEC52B" />
		</linearGradient>
		<linearGradient x1="0.13700008" y1="0.1369996" x2="1.1613998" y2="1.1613998" id="gradient_5">
			<stop offset="0" stop-color="#FFD869" />
			<stop offset="1" stop-color="#FEC52B" />
		</linearGradient>
		<linearGradient x1="5.062003" y1="-3.8419757" x2="-0.77049285" y2="1.7303511" id="gradient_6">
			<stop offset="0" stop-color="#FFD869" />
			<stop offset="1" stop-color="#FEC52B" />
		</linearGradient>
		<path d="M0 0L48 0L48 48L0 48L0 0Z" id="path_1" />
		<path d="M0 0L25 0L25 25L0 25L0 0Z" id="path_2" />
		<clipPath id="mask_1">
			<use xlink:href="#path_1" />
		</clipPath>
		<clipPath id="mask_2">
			<use xlink:href="#path_2" />
		</clipPath>
	</defs>
	<g id="icons8_file_2">
		<path d="M0 0L48 0L48 48L0 48L0 0Z" id="Background" fill="none" fill-rule="evenodd" stroke="none" />
		<g clip-path="url(#mask_1)">
			<path d="M30 11L30 36C30 37.105 29.105 38 28 38L2 38C0.895001 38 0 37.105 0 36L0 2C0 0.895 0.895001 0 2 0L19 0L30 11L30 11Z" transform="translate(9 5)" id="Shape" fill="#50E6FF" fill-rule="evenodd" stroke="none" />
			<path d="M0 0L0 9C0 10.105 0.895 11 2 11L11 11L0 0L0 0Z" transform="translate(28 5)" id="Shape" fill="url(#gradient_1)" fill-rule="evenodd" stroke="none" />
		</g>
	</g>
	<g id="icons8_radar" transform="translate(11.048584 16.645538)">
		<path d="M0 0L25 0L25 25L0 25L0 0Z" id="Background" fill="none" fill-rule="evenodd" stroke="none" />
		<g clip-path="url(#mask_2)">
			<path d="M20.8333 10.4167C20.8333 10.5885 20.8281 10.7656 20.8177 10.9375C20.5528 16.2806 16.2806 20.5528 10.9375 20.8177C10.7656 20.8281 10.5885 20.8333 10.4167 20.8333C10.2448 20.8333 10.0677 20.8281 9.89583 20.8177C4.55274 20.5528 0.280576 16.2806 0.0156254 10.9375C0.00520845 10.7656 0 10.5885 0 10.4167C0 10.2448 0.00520845 10.0677 0.0156251 9.89583C0.280597 4.55273 4.55275 0.280586 9.89584 0.0156254C10.0677 0.00520845 10.2448 0 10.4167 0C10.5885 0 10.7656 0.00520845 10.9375 0.0156251C16.2806 0.280591 20.5527 4.55274 20.8177 9.89583C20.8281 10.0677 20.8333 10.2448 20.8333 10.4167L20.8333 10.4167Z" transform="translate(2.0833435 2.0833435)" id="Shape" fill="url(#gradient_2)" fill-rule="evenodd" stroke="none" />
			<path d="M7.8125 15.625C3.49778 15.625 6.95388e-06 12.1272 0 7.81251C-6.45717e-06 3.49779 3.49775 1.44045e-05 7.81247 0C12.1272 -1.39078e-05 15.625 3.49774 15.625 7.81246C15.6203 12.1249 12.1255 15.62 7.81277 15.625L7.8125 15.625ZM7.81249 1.04166C4.07307 1.04166 1.04166 4.07306 1.04166 7.81248C1.04165 11.5519 4.07304 14.5833 7.81247 14.5833C11.5519 14.5833 14.5833 11.5519 14.5833 7.81252C14.5792 4.07487 11.5503 1.04583 7.81256 1.04166L7.81249 1.04166Z" transform="translate(4.6875 4.6875)" id="Shape" fill="#33C481" fill-rule="evenodd" stroke="none" />
			<path d="M4.16667 8.33333C1.86548 8.33333 3.97364e-06 6.46786 0 4.16667C-3.47694e-06 1.86549 1.86547 7.94729e-06 4.16665 0C6.46784 -7.45058e-06 8.33332 1.86546 8.33333 4.16665C8.33082 6.46655 6.46697 8.33059 4.16686 8.33333L4.16667 8.33333ZM4.16666 1.04166C2.44077 1.04166 1.04166 2.44076 1.04166 4.16665C1.04165 5.89254 2.44076 7.29165 4.16665 7.29166C5.89253 7.29166 7.29165 5.89256 7.29166 4.16667C7.28968 2.44138 5.89159 1.04344 4.16648 1.04166L4.16666 1.04166Z" transform="translate(8.3333435 8.3333435)" id="Shape" fill="#33C481" fill-rule="evenodd" stroke="none" />
			<path d="M1.30209 0.520844C1.73357 0.520844 2.08334 0.870619 2.08334 1.30209C2.08334 1.73356 1.73357 2.08334 1.3021 2.08334C0.870623 2.08334 0.520845 1.73357 0.520844 1.3021C0.520844 0.870619 0.870623 0.520842 1.3021 0.520844M1.30208 0C0.582963 0 1.98682e-06 0.582961 0 1.30208C-9.9341e-07 2.0212 0.582959 2.60416 1.30208 2.60417C2.0212 2.60417 2.60416 2.02121 2.60417 1.30209C2.60338 0.583355 2.02092 0.000844399 1.30213 1.98682e-06L1.30208 0Z" transform="translate(16.666656 16.145844)" id="Shape" fill="#000000" fill-opacity="0.05" fill-rule="evenodd" stroke="none" />
			<path d="M1.04166 0.260406C1.47313 0.260406 1.82291 0.610183 1.82291 1.04165C1.82291 1.47313 1.47313 1.82291 1.04166 1.82291C0.610187 1.82291 0.260408 1.47313 0.260406 1.04166C0.260406 0.610183 0.610187 0.260404 1.04166 0.260406M1.04167 0C0.466371 0 0 0.466369 0 1.04166C0 1.61696 0.466367 2.08333 1.04166 2.08333C1.61696 2.08334 2.08333 1.61697 2.08333 1.04167C2.08271 0.466681 1.61673 0.000672539 1.0417 9.93411e-07L1.04167 0Z" transform="translate(16.927094 16.40625)" id="Shape" fill="#000000" fill-opacity="0.07" fill-rule="evenodd" stroke="none" />
			<path d="M0 0.78125C0 0.349778 0.349778 0 0.78125 0C1.21272 0 1.5625 0.349778 1.5625 0.78125C1.5625 1.21272 1.21272 1.5625 0.78125 1.5625C0.349778 1.5625 0 1.21272 0 0.78125Z" transform="translate(17.1875 16.666656)" id="Circle" fill="url(#gradient_3)" fill-rule="evenodd" stroke="none" />
			<path d="M1.82293 0.520844C2.54205 0.520844 3.12501 1.1038 3.12501 1.82292C3.12501 2.54204 2.54205 3.12501 1.82293 3.12501C1.10381 3.12501 0.520847 2.54205 0.520844 1.82293C0.520844 1.1038 1.10381 0.52084 1.82293 0.520844M1.82292 0C0.816149 0 1.49012e-06 0.816146 0 1.82291C-1.49012e-06 2.82968 0.816143 3.64583 1.82291 3.64583C2.82968 3.64584 3.64583 2.82969 3.64583 1.82293C3.64473 0.816709 2.82929 0.00119259 1.823 0L1.82292 0Z" transform="translate(5.2083435 5.7291565)" id="Shape" fill="#000000" fill-opacity="0.05" fill-rule="evenodd" stroke="none" />
			<path d="M1.56249 0.260406C2.28161 0.260406 2.86457 0.843368 2.86457 1.56249C2.86457 2.28161 2.28161 2.86457 1.56249 2.86457C0.843375 2.86458 0.26041 2.28162 0.260406 1.5625C0.260406 0.843366 0.843373 0.260403 1.5625 0.260406M1.5625 0C0.699556 0 1.49012e-06 0.699553 0 1.5625C-9.93411e-07 2.42544 0.699551 3.125 1.5625 3.125C2.42544 3.125 3.125 2.42545 3.125 1.56251C3.12411 0.7001 2.42518 0.00104855 1.56264 0L1.5625 0Z" transform="translate(5.46875 5.9895935)" id="Shape" fill="#000000" fill-opacity="0.07" fill-rule="evenodd" stroke="none" />
			<path d="M0 1.30208C0 0.582962 0.582963 0 1.30208 0C2.0212 0 2.60417 0.582962 2.60417 1.30208C2.60417 2.0212 2.0212 2.60417 1.30208 2.60417C0.582963 2.60417 0 2.0212 0 1.30208Z" transform="translate(5.7291565 6.25)" id="Circle" fill="url(#gradient_4)" fill-rule="evenodd" stroke="none" />
			<g id="Group" transform="translate(5.2083435 15.625)">
				<path d="M1.82293 0.520844C2.54205 0.520844 3.12501 1.1038 3.12501 1.82292C3.12501 2.54204 2.54205 3.12501 1.82293 3.12501C1.10381 3.12501 0.520847 2.54205 0.520844 1.82293C0.520844 1.1038 1.10381 0.52084 1.82293 0.520844M1.82292 0C0.816149 0 1.49012e-06 0.816146 0 1.82291C-1.49012e-06 2.82968 0.816143 3.64583 1.82291 3.64583C2.82968 3.64584 3.64583 2.82969 3.64583 1.82293C3.64473 0.816709 2.82929 0.00119209 1.823 0L1.82292 0Z" id="Shape" fill="#000000" fill-opacity="0.05" fill-rule="evenodd" stroke="none" />
				<path d="M1.56249 0.260406C2.28161 0.260406 2.86457 0.843368 2.86457 1.56249C2.86457 2.28161 2.28161 2.86457 1.56249 2.86457C0.843375 2.86458 0.26041 2.28162 0.260406 1.5625C0.260406 0.843366 0.843374 0.260403 1.5625 0.260406M1.5625 0C0.699556 0 1.49012e-06 0.699554 0 1.5625C-9.93411e-07 2.42544 0.699551 3.125 1.5625 3.125C2.42544 3.125 3.125 2.42545 3.125 1.56251C3.12411 0.700099 2.42518 0.00104805 1.56264 0L1.5625 0Z" transform="translate(0.2604065 0.2604065)" id="Shape" fill="#000000" fill-opacity="0.07" fill-rule="evenodd" stroke="none" />
				<path d="M0 1.30208C0 0.582963 0.582963 0 1.30208 0C2.0212 0 2.60417 0.582963 2.60417 1.30208C2.60417 2.0212 2.0212 2.60417 1.30208 2.60417C0.582963 2.60417 0 2.0212 0 1.30208Z" transform="translate(0.5208435 0.5208435)" id="Circle" fill="url(#gradient_5)" fill-rule="evenodd" stroke="none" />
			</g>
			<path d="M1.04167 0.0156251L1.04167 20.8177C0.869792 20.8281 0.692708 20.8333 0.520833 20.8333C0.348958 20.8333 0.171875 20.8281 0 20.8177L0 0.0156251C0.171875 0.00520845 0.348958 0 0.520833 0C0.692708 0 0.869792 0.00520845 1.04167 0.0156251L1.04167 0.0156251Z" transform="translate(11.9791565 2.0833435)" id="Shape" fill="#33C481" fill-rule="evenodd" stroke="none" />
			<path d="M20.8333 0.520833C20.8333 0.692708 20.8281 0.869792 20.8177 1.04167L0.0156251 1.04167C0.00520845 0.869792 0 0.692708 0 0.520833C0 0.348958 0.00520845 0.171875 0.0156251 0L20.8177 0C20.8281 0.171875 20.8333 0.348958 20.8333 0.520833L20.8333 0.520833Z" transform="translate(2.0833435 11.9791565)" id="Shape" fill="#33C481" fill-rule="evenodd" stroke="none" />
			<g id="Group" transform="translate(10.9375 4.752594)">
				<path d="M8.26823 0.520845C8.47885 0.520889 8.66871 0.647785 8.74931 0.842378C8.82991 1.03697 8.78537 1.26095 8.63646 1.40991L2.56545 7.48095C2.69468 7.94488 2.49485 8.43761 2.07897 8.68047C1.6631 8.92332 1.13576 8.85522 0.79522 8.51469C0.454681 8.17415 0.38658 7.64681 0.629432 7.23093C0.872285 6.81506 1.36502 6.61522 1.82895 6.74446L7.9 0.673449C7.99754 0.575608 8.13007 0.520688 8.26823 0.520844M8.26823 3.47694e-06C7.99182 -0.000733137 7.7266 0.109143 7.5317 0.305139L1.64912 6.18772C1.61999 6.18584 1.59112 6.1849 1.5625 6.1849C0.699556 6.1849 9.93411e-07 6.88445 0 7.7474C-9.93411e-07 8.61034 0.699551 9.3099 1.5625 9.3099C2.42544 9.3099 3.125 8.61035 3.125 7.74741C3.125 7.71876 3.12406 7.68989 3.12218 7.66078L9.00476 1.7782C9.30264 1.48029 9.39175 1.03228 9.23053 0.643052C9.06931 0.253828 8.68952 3.47694e-05 8.26823 3.47694e-06L8.26823 3.47694e-06Z" id="Shape" fill="#000000" fill-opacity="0.05" fill-rule="evenodd" stroke="none" />
				<path d="M8.00782 0.260407C8.21844 0.260452 8.40831 0.387348 8.4889 0.581941C8.5695 0.776534 8.52496 1.00051 8.37605 1.14947L2.30504 7.22051C2.43427 7.68444 2.23444 8.17718 1.81857 8.42003C1.40269 8.66289 0.875352 8.59479 0.534814 8.25425C0.194275 7.91371 0.126173 7.38638 0.369025 6.9705C0.611879 6.55462 1.10461 6.35479 1.56854 6.48402L7.63959 0.413012C7.73714 0.315171 7.86966 0.260251 8.00782 0.260407M8.00781 2.98023e-06C7.80051 -0.000547369 7.6016 0.0818645 7.45543 0.228867L1.4845 6.19979C1.42419 6.18996 1.36319 6.18498 1.30208 6.1849C0.582964 6.1849 1.98682e-06 6.76786 0 7.48698C-1.98682e-06 8.2061 0.582957 8.78906 1.30208 8.78907C2.0212 8.78907 2.60416 8.20611 2.60417 7.48699C2.60408 7.42588 2.5991 7.36487 2.58927 7.30456L8.5602 1.33364C8.7836 1.11021 8.85043 0.774207 8.72952 0.482293C8.60861 0.19038 8.32377 3.3776e-05 8.00781 2.48353e-06L8.00781 2.98023e-06Z" transform="translate(0.2604065 0.2604065)" id="Shape" fill="#000000" fill-opacity="0.07" fill-rule="evenodd" stroke="none" />
				<path d="M8.15165 0.15259C8.05401 0.0548914 7.92154 0 7.78341 0C7.64528 0 7.51281 0.0548914 7.41517 0.15259L1.34415 6.2236C0.880226 6.09437 0.387489 6.2942 0.144634 6.71007C-0.0982215 7.12595 -0.0301222 7.65329 0.310415 7.99383C0.650952 8.33437 1.17829 8.40247 1.59417 8.15962C2.01004 7.91676 2.20988 7.42403 2.08065 6.9601L8.15165 0.889049C8.24934 0.791404 8.30423 0.658942 8.30423 0.520819C8.30423 0.382697 8.24934 0.250235 8.15165 0.15259L8.15165 0.15259Z" transform="translate(0.48480225 0.5208435)" id="Shape" fill="url(#gradient_6)" fill-rule="evenodd" stroke="none" />
			</g>
		</g>
	</g>
</svg>