<?xml version="1.0" encoding="utf-8"?>
<svg width="48px" height="48px" viewBox="0 0 48 48" version="1.1" xmlns:xlink="http://www.w3.org/1999/xlink" xmlns="http://www.w3.org/2000/svg">
	<defs>
		<path d="M0 0L48 0L48 48L0 48L0 0Z" id="path_1" />
		<clipPath id="mask_1">
			<use xlink:href="#path_1" />
		</clipPath>
	</defs>
	<g id="icons8_cd_4">
		<path d="M0 0L48 0L48 48L0 48L0 0Z" id="Background" fill="none" fill-rule="evenodd" stroke="none" />
		<g clip-path="url(#mask_1)">
			<path d="M20 0C8.954 0 0 8.955 0 20C0 31.045 8.954 40 20 40C31.046 40 40 31.045 40 20C40 8.955 31.046 0 20 0L20 0ZM20 23.684C17.965 23.684 16.316 22.035 16.316 20C16.316 17.965 17.965 16.316 20 16.316C22.035 16.316 23.684 17.965 23.684 20C23.684 22.035 22.035 23.684 20 23.684L20 23.684Z" transform="translate(4 4)" id="Shape" fill="#90CAF9" fill-rule="evenodd" stroke="none" />
			<path d="M19.023 13.654L29.925 4.955C28.599 2.992 26.892 1.31 24.917 0L16.158 10.925C17.506 11.309 18.575 12.332 19.023 13.654L19.023 13.654ZM10.935 16.223L0 24.936C1.333 26.944 3.057 28.67 5.065 30.004L13.73 19.058C12.386 18.632 11.34 17.574 10.935 16.223L10.935 16.223Z" transform="translate(8.999 8.991)" id="Shape" fill="#CFE8F9" fill-rule="evenodd" stroke="none" />
			<path d="M6 0C2.686 0 0 2.688 0 6C0 9.312 2.686 12 6 12C9.313 12 12 9.312 12 6C12 2.688 9.313 0 6 0L6 0ZM6 8C4.896 8 4 7.105 4 6C4 4.895 4.896 4 6 4C7.104 4 8 4.895 8 6C8 7.105 7.104 8 6 8L6 8Z" transform="translate(18 18)" id="Shape" fill="#1E88E5" fill-rule="evenodd" stroke="none" />
		</g>
	</g>
</svg>