<?xml version="1.0" encoding="utf-8"?>
<svg width="48px" height="48px" viewBox="0 0 48 48" version="1.1" xmlns:xlink="http://www.w3.org/1999/xlink" xmlns="http://www.w3.org/2000/svg">
  <defs>
    <linearGradient x1="0.5" y1="-0.008588791" x2="0.5" y2="0.23461723" id="gradient_1">
      <stop offset="0" stop-color="#EBA600" />
      <stop offset="1" stop-color="#C28200" />
    </linearGradient>
    <linearGradient x1="0.5" y1="-0.0048675537" x2="0.5" y2="0.9994316" id="gradient_2">
      <stop offset="0" stop-color="#FFD869" />
      <stop offset="1" stop-color="#FEC52B" />
    </linearGradient>
    <linearGradient x1="0.14645004" y1="0.14645004" x2="0.8597" y2="0.85964966" id="gradient_3">
      <stop offset="0" stop-color="#00BFFE" />
      <stop offset="1" stop-color="#1D55C4" />
    </linearGradient>
    <linearGradient x1="0.15509999" y1="0.1452713" x2="0.86560005" y2="0.8721237" id="gradient_4">
      <stop offset="0" stop-color="#84E1FE" />
      <stop offset="1" stop-color="#167CF7" />
    </linearGradient>
    <path d="M0 0L48 0L48 48L0 48L0 0Z" id="path_1" />
    <clipPath id="mask_1">
      <use xlink:href="#path_1" />
    </clipPath>
  </defs>
  <g id="icons8_internet_folder">
    <path d="M0 0L48 0L48 48L0 48L0 0Z" id="Background" fill="none" fill-rule="evenodd" stroke="none" />
    <g clip-path="url(#mask_1)">
      <path d="M21.414 3.414L18.878 0.877999C18.316 0.316 17.553 0 16.757 0L2 0C0.895 0 0 0.895 0 2L0 32C0 33.105 0.895 34 2 34L40 34C41.105 34 42 33.105 42 32L42 6C42 4.895 41.105 4 40 4L22.828 4C22.298 4 21.789 3.789 21.414 3.414L21.414 3.414Z" transform="translate(3 7)" id="Shape" fill="url(#gradient_1)" fill-rule="evenodd" stroke="none" />
      <path d="M18.586 3.414L21.854 0.146C21.947 0.0530005 22.074 0 22.207 0L40 0C41.105 0 42 0.895001 42 2L42 28C42 29.105 41.105 30 40 30L2 30C0.895 30 0 29.105 0 28L0 4.5C0 4.224 0.224 4 0.5 4L17.172 4C17.702 4 18.211 3.789 18.586 3.414L18.586 3.414Z" transform="translate(3 11)" id="Shape" fill="url(#gradient_2)" fill-rule="evenodd" stroke="none" />
      <path d="M20 10C20 15.522 15.522 20 10 20C4.478 20 0 15.522 0 10C0 4.478 4.478 0 10 0C15.522 0 20 4.477 20 10L20 10Z" transform="translate(14 18)" id="Shape" fill="url(#gradient_3)" fill-rule="evenodd" stroke="none" />
      <path d="M9.885 15.254C10 15.595 9.885 16.052 9.77 16.282C9.658 16.624 9.543 17.081 9.314 17.308C9.087 17.537 8.857 17.652 8.63 17.766C8.288 17.993 8.059 18.449 7.717 18.794C7.717 18.906 7.26 19.487 7.146 19.487C7.104 19.509 7.063 19.53 7.022 19.55C6.348 19.34 5.708 19.056 5.103 18.716C5.099 18.704 5.095 18.692 5.09 18.68C5.09 18.565 4.978 17.88 4.978 17.767C4.863 17.424 4.749 16.967 4.634 16.625C4.407 16.054 3.95 15.483 3.95 14.799C3.95 14.227 4.063 13.659 3.721 13.2C3.265 12.629 2.352 12.629 1.895 12.287C1.209 11.831 0.526001 11.147 0.184 10.461C0.102 10.326 0.0469999 10.201 0.00199986 10.077C0.00300026 10.05 0 10.026 0 10C0 7.322 1.059 4.895 2.774 3.1C3.712 2.341 5.541 1.992 6.652 2.327C6.994 2.44 8.225 3.175 8.225 3.518C8.225 3.633 8.225 3.633 8.11 3.747C7.998 3.862 7.883 3.862 7.768 3.862C7.426 3.862 6.348 3.613 6.233 3.498C5.547 3.269 4.521 4.753 4.407 5.21C4.292 5.554 4.292 6.352 4.863 6.467C5.205 6.467 6.77 5.139 7 5.024C7.913 4.912 8.618 5.694 8.848 6.495C9.19 7.408 7.261 8.29 6.574 8.52C6.347 8.635 6.233 8.405 6.003 8.52C5.434 8.747 5.097 9.257 5.029 9.94C4.972 10.517 4.914 11.08 4.802 11.652C4.687 11.652 4.453 11.65 4.453 11.536L4.453 11.309C4.453 10.965 4.338 10.508 3.997 10.394C3.882 10.282 3.721 10.462 3.606 10.462C3.264 10.462 2.922 10.118 2.581 10.347C2.352 10.574 2.124 10.918 2.124 11.26C2.124 11.375 2.124 11.489 2.237 11.602C2.466 11.717 2.693 11.49 2.923 11.602C3.15 11.602 3.15 11.831 3.15 11.946C3.379 12.288 3.606 12.745 3.95 12.859L6.232 12.859C6.574 12.974 7.145 13.086 7.374 13.316C7.486 13.543 7.486 13.772 7.601 14C8.172 14.571 8.855 14.571 9.541 14.8C9.771 14.912 9.885 15.024 9.885 15.254L9.885 15.254ZM16.262 2.21C16.211 2.225 16.161 2.239 16.112 2.26C15.77 2.375 14.877 4.022 14.649 4.364C14.534 4.479 14.422 4.706 14.534 4.82C14.534 4.935 14.649 4.935 14.763 4.935C14.99 5.05 15.021 5.097 15.25 5.209C15.365 5.209 15.477 5.324 15.365 5.438C15.365 5.438 15.365 5.553 15.25 5.553C14.679 6.124 14.108 6.581 13.538 7.15C13.423 7.266 13.347 7.495 13.347 7.607C13.347 7.722 13.423 7.722 13.423 7.836C13.423 7.95 13.308 7.951 13.194 8.063C12.967 8.178 12.737 8.292 12.623 8.407C12.511 8.634 12.623 8.978 12.511 9.206C12.396 9.777 12.053 10.234 11.825 10.805C11.596 11.147 11.391 11.489 11.162 11.833C11.162 12.289 11.047 12.632 11.277 12.973C11.848 13.773 12.991 13.008 13.79 13.349C14.017 13.464 14.213 13.484 14.361 13.691C14.645 14.084 14.679 14.914 14.794 15.257C14.906 15.714 15.021 16.17 15.25 16.626C15.364 17.192 15.587 17.758 15.703 18.209C18.298 16.402 20 13.401 20 10C20 6.849 18.539 4.043 16.262 2.21L16.262 2.21ZM12.304 2.678C12.644 2.459 12.872 2.024 12.986 1.698C13.097 1.479 13.439 1.044 13.326 0.718C13.237 0.548 12.878 0.446001 12.614 0.357C11.779 0.132 10.906 0 10 0C9.77 0 9.545 0.0189991 9.319 0.0349999C9.128 0.101 8.965 0.212999 8.902 0.392C8.788 0.936001 9.242 0.827 9.695 0.936001C9.695 0.936001 9.809 1.807 9.809 1.917C9.923 2.462 9.582 2.788 9.582 3.331C9.582 3.659 9.582 4.203 9.809 4.421L9.923 4.421C10.037 4.421 10.149 4.311 10.376 4.205C10.716 3.986 11.058 3.66 11.397 3.441C11.737 3.223 12.076 2.896 12.304 2.678L12.304 2.678Z" transform="translate(14 18)" id="Shape" fill="url(#gradient_4)" fill-rule="evenodd" stroke="none" />
    </g>
  </g>
</svg>