<?xml version="1.0" encoding="utf-8"?>
<svg width="48px" height="48px" viewBox="0 0 48 48" version="1.1" xmlns:xlink="http://www.w3.org/1999/xlink" xmlns="http://www.w3.org/2000/svg">
	<defs>
		<linearGradient x1="0.49999994" y1="1.2142859" x2="0.49999994" y2="0.2677145" id="gradient_1">
			<stop offset="0" stop-color="#737B80" />
			<stop offset="1" stop-color="#575C61" />
		</linearGradient>
		<linearGradient x1="0.5" y1="0.84900045" x2="0.5" y2="0.45816708" id="gradient_2">
			<stop offset="0" stop-color="#FFD869" />
			<stop offset="1" stop-color="#FEC52B" />
		</linearGradient>
		<linearGradient x1="0.5" y1="0.027750015" x2="0.5" y2="1.0625" id="gradient_3">
			<stop offset="0" stop-color="#C3CDD9" />
			<stop offset="1" stop-color="#9FA7B0" />
		</linearGradient>
		<linearGradient x1="0.5000113" y1="0.016038448" x2="0.5000113" y2="0.99742305" id="gradient_4">
			<stop offset="0" stop-color="#737B80" />
			<stop offset="1" stop-color="#575C61" />
		</linearGradient>
		<linearGradient x1="0.5" y1="-0.010499954" x2="0.5" y2="1.0129995" id="gradient_5">
			<stop offset="0" stop-color="#75FF8A" />
			<stop offset="1" stop-color="#1EE446" />
		</linearGradient>
		<linearGradient x1="0.5" y1="-0.0022125244" x2="0.5" y2="1.0019989" id="gradient_6">
			<stop offset="0" stop-color="#484B4F" />
			<stop offset="0.374" stop-color="#656D75" />
			<stop offset="0.597" stop-color="#727D86" />
			<stop offset="0.604" stop-color="#86949E" />
		</linearGradient>
		<radialGradient gradientUnits="objectBoundingBox" cx="102.495%" cy="129.00658%" fx="102.495%" fy="129.00658%" r="195.22668%" gradientTransform="translate(1.02495,1.2900658),scale(0.74999994,1),translate(-1.02495,-1.2900658)" id="gradient_7">
			<stop offset="32.300003%" stop-color="#23D9D6" />
			<stop offset="42.699997%" stop-color="#23D4D7" />
			<stop offset="54.2%" stop-color="#21C7DC" />
			<stop offset="66.399994%" stop-color="#1FB0E2" />
			<stop offset="78.899994%" stop-color="#1C91EC" />
			<stop offset="91.7%" stop-color="#1969F8" />
			<stop offset="94.4%" stop-color="#1860FB" />
		</radialGradient>
		<linearGradient x1="0.5" y1="-0.09000015" x2="0.5" y2="0.9414997" id="gradient_8">
			<stop offset="0" stop-color="#A1AAB3" />
			<stop offset="1" stop-color="#8F979E" />
		</linearGradient>
		<linearGradient x1="0.5" y1="-0.0022125244" x2="0.5" y2="1.0019836" id="gradient_9">
			<stop offset="0" stop-color="#484B4F" />
			<stop offset="0.374" stop-color="#656D75" />
			<stop offset="0.597" stop-color="#727D86" />
			<stop offset="0.604" stop-color="#86949E" />
		</linearGradient>
		<radialGradient gradientUnits="objectBoundingBox" cx="102.495%" cy="129.0062%" fx="102.495%" fy="129.0062%" r="195.2267%" gradientTransform="translate(1.02495,1.290062),scale(0.74999994,1),translate(-1.02495,-1.290062)" id="gradient_10">
			<stop offset="32.300003%" stop-color="#23D9D6" />
			<stop offset="42.699997%" stop-color="#23D4D7" />
			<stop offset="54.2%" stop-color="#21C7DC" />
			<stop offset="66.399994%" stop-color="#1FB0E2" />
			<stop offset="78.899994%" stop-color="#1C91EC" />
			<stop offset="91.7%" stop-color="#1969F8" />
			<stop offset="94.4%" stop-color="#1860FB" />
		</radialGradient>
		<path d="M0 0L48 0L48 48L0 48L0 0Z" id="path_1" />
		<path d="M0 0L20 0L20 20L0 20L0 0Z" id="path_2" />
		<clipPath id="mask_1">
			<use xlink:href="#path_1" />
		</clipPath>
		<clipPath id="mask_2">
			<use xlink:href="#path_2" />
		</clipPath>
	</defs>
	<g id="icons8_ssd_3">
		<path d="M0 0L48 0L48 48L0 48L0 0Z" id="Background" fill="none" fill-rule="evenodd" stroke="none" />
		<g clip-path="url(#mask_1)">
			<path d="M0 0L25 0L25 7L0 7L0 0Z" transform="translate(14 34)" id="Rectangle" fill="url(#gradient_1)" fill-rule="evenodd" stroke="none" />
			<path d="M1.5 6L0.5 6C0.224001 6 0 5.776 0 5.5L0 0.5C0 0.223999 0.224001 0 0.5 0L1.5 0C1.776 0 2 0.223999 2 0.5L2 5.5C2 5.776 1.776 6 1.5 6L1.5 6Z" transform="translate(17 33)" id="Shape" fill="url(#gradient_2)" fill-rule="evenodd" stroke="none" />
			<path d="M1.5 6L0.5 6C0.224001 6 0 5.776 0 5.5L0 0.5C0 0.223999 0.224001 0 0.5 0L1.5 0C1.776 0 2 0.223999 2 0.5L2 5.5C2 5.776 1.776 6 1.5 6L1.5 6Z" transform="translate(21 33)" id="Shape" fill="url(#gradient_2)" fill-rule="evenodd" stroke="none" />
			<path d="M1.5 6L0.5 6C0.224001 6 0 5.776 0 5.5L0 0.5C0 0.223999 0.224001 0 0.5 0L1.5 0C1.776 0 2 0.223999 2 0.5L2 5.5C2 5.776 1.776 6 1.5 6L1.5 6Z" transform="translate(26 33)" id="Shape" fill="url(#gradient_2)" fill-rule="evenodd" stroke="none" />
			<path d="M1.5 6L0.5 6C0.224001 6 0 5.776 0 5.5L0 0.5C0 0.223999 0.224001 0 0.5 0L1.5 0C1.776 0 2 0.223999 2 0.5L2 5.5C2 5.776 1.776 6 1.5 6L1.5 6Z" transform="translate(30 33)" id="Shape" fill="url(#gradient_2)" fill-rule="evenodd" stroke="none" />
			<path d="M1.5 6L0.5 6C0.223999 6 0 5.776 0 5.5L0 0.5C0 0.223999 0.223999 0 0.5 0L1.5 0C1.776 0 2 0.223999 2 0.5L2 5.5C2 5.776 1.776 6 1.5 6L1.5 6Z" transform="translate(34 33)" id="Shape" fill="url(#gradient_2)" fill-rule="evenodd" stroke="none" />
			<path d="M36 0L36 10C36 11.1 35.1 12 34 12L32.75 12C32.31 12 31.92 11.7 31.79 11.27L31.71 11L30.41 6.45C30.17 5.59 29.38 5 28.49 5L12.51 5C11.62 5 10.83 5.59 10.59 6.45L9.29 11L9.21 11.27C9.08 11.7 8.69 12 8.25 12L2 12C0.9 12 0 11.1 0 10L0 0L36 0L36 0Z" transform="translate(6 30)" id="Shape" fill="url(#gradient_3)" fill-rule="evenodd" stroke="none" />
			<g id="Group" transform="translate(6 30)">
				<path d="M36 0L36 10C36 11.1 35.1 12 34 12L32.75 12C32.31 12 31.92 11.7 31.79 11.27L31.71 11L30.67 11L29.45 6.73C29.33 6.3 28.94 6 28.49 6L12.51 6C12.06 6 11.67 6.3 11.55 6.73L10.33 11L9.29 11L9.21 11.27C9.08 11.7 8.69 12 8.25 12L2 12C0.9 12 0 11.1 0 10L0 0L36 0L36 0Z" id="Shape" fill="#000000" fill-opacity="0.05" fill-rule="evenodd" stroke="none" />
				<path d="M36 0L36 10C36 11.1 35.1 12 34 12L32.75 12C32.31 12 31.92 11.7 31.79 11.27L31.71 11L31.19 11L29.93 6.59C29.75 5.95 29.16 5.5 28.49 5.5L12.51 5.5C11.84 5.5 11.25 5.95 11.07 6.59L9.81 11L9.29 11L9.21 11.27C9.08 11.7 8.69 12 8.25 12L2 12C0.9 12 0 11.1 0 10L0 0L36 0L36 0Z" id="Shape" fill="#000000" fill-opacity="0.07" fill-rule="evenodd" stroke="none" />
			</g>
			<path d="M4.76443 0L31.2354 0C32.2434 0 33.0944 0.75 33.2194 1.751L35.9864 23.771C36.1244 24.958 35.1954 26 34.0004 26L2.00043 26C0.805426 26 -0.123574 24.958 0.0134263 23.771L2.78043 1.751C2.90643 0.75 3.75643 0 4.76443 0L4.76443 0Z" transform="translate(5.9995737 6)" id="Shape" fill="url(#gradient_4)" fill-rule="evenodd" stroke="none" />
			<g id="Group" transform="translate(8 34)">
				<path d="M3 1C4.105 1 5 1.895 5 3C5 4.105 4.105 5 3 5C1.895 5 1 4.105 1 3C1 1.895 1.895 1 3 1M3 0C1.346 0 0 1.346 0 3C0 4.654 1.346 6 3 6C4.654 6 6 4.654 6 3C6 1.346 4.654 0 3 0L3 0L3 0Z" id="Shape" fill="#000000" fill-opacity="0.05" fill-rule="evenodd" stroke="none" />
				<path d="M2.5 0.5C3.605 0.5 4.5 1.395 4.5 2.5C4.5 3.605 3.605 4.5 2.5 4.5C1.395 4.5 0.5 3.605 0.5 2.5C0.5 1.395 1.395 0.5 2.5 0.5M2.5 0C1.121 0 0 1.121 0 2.5C0 3.879 1.121 5 2.5 5C3.879 5 5 3.879 5 2.5C5 1.121 3.879 0 2.5 0L2.5 0L2.5 0Z" transform="translate(0.5 0.5)" id="Shape" fill="#000000" fill-opacity="0.07" fill-rule="evenodd" stroke="none" />
				<path d="M0 2C0 0.89543 0.89543 0 2 0C3.10457 0 4 0.89543 4 2C4 3.10457 3.10457 4 2 4C0.89543 4 0 3.10457 0 2Z" transform="translate(1 1)" id="Circle" fill="url(#gradient_5)" fill-rule="evenodd" stroke="none" />
			</g>
			<g id="Group" transform="translate(8 7)">
				<g id="Group" opacity="0.05">
					<path d="M2.5 1C3.328 1 4 1.448 4 2C4 2.552 3.328 3 2.5 3C1.672 3 1 2.552 1 2C1 1.448 1.672 1 2.5 1M2.5 0C1.098 0 0 0.878 0 2C0 3.122 1.098 4 2.5 4C3.902 4 5 3.122 5 2C5 0.878 3.902 0 2.5 0L2.5 0L2.5 0Z" transform="translate(0 20)" id="Shape" fill="#000000" fill-rule="evenodd" stroke="none" />
					<path d="M2.5 1C3.328 1 4 1.448 4 2C4 2.552 3.328 3 2.5 3C1.672 3 1 2.552 1 2C1 1.448 1.672 1 2.5 1M2.5 0C1.098 0 0 0.878 0 2C0 3.122 1.098 4 2.5 4C3.902 4 5 3.122 5 2C5 0.878 3.902 0 2.5 0L2.5 0L2.5 0Z" transform="translate(27 20)" id="Shape" fill="#000000" fill-rule="evenodd" stroke="none" />
					<path d="M2.5 1C3.328 1 4 1.448 4 2C4 2.552 3.328 3 2.5 3C1.672 3 1 2.552 1 2C1 1.448 1.672 1 2.5 1M2.5 0C1.098 0 0 0.878 0 2C0 3.122 1.098 4 2.5 4C3.902 4 5 3.122 5 2C5 0.878 3.902 0 2.5 0L2.5 0L2.5 0Z" transform="translate(2 0)" id="Shape" fill="#000000" fill-rule="evenodd" stroke="none" />
					<path d="M2.5 1C3.328 1 4 1.448 4 2C4 2.552 3.328 3 2.5 3C1.672 3 1 2.552 1 2C1 1.448 1.672 1 2.5 1M2.5 0C1.098 0 0 0.878 0 2C0 3.122 1.098 4 2.5 4C3.902 4 5 3.122 5 2C5 0.878 3.902 0 2.5 0L2.5 0L2.5 0Z" transform="translate(25 0)" id="Shape" fill="#000000" fill-rule="evenodd" stroke="none" />
				</g>
				<g id="Group" transform="translate(0.5 0.5)" opacity="0.07">
					<path d="M2 0.5C2.828 0.5 3.5 0.948 3.5 1.5C3.5 2.052 2.828 2.5 2 2.5C1.172 2.5 0.5 2.052 0.5 1.5C0.5 0.948 1.172 0.5 2 0.5M2 0C0.879 0 0 0.659 0 1.5C0 2.341 0.879 3 2 3C3.121 3 4 2.341 4 1.5C4 0.659 3.121 0 2 0L2 0L2 0Z" transform="translate(0 20)" id="Shape" fill="#000000" fill-rule="evenodd" stroke="none" />
					<path d="M2 0.5C2.828 0.5 3.5 0.948 3.5 1.5C3.5 2.052 2.828 2.5 2 2.5C1.172 2.5 0.5 2.052 0.5 1.5C0.5 0.948 1.172 0.5 2 0.5M2 0C0.879002 0 0 0.659 0 1.5C0 2.341 0.879002 3 2 3C3.121 3 4 2.341 4 1.5C4 0.659 3.121 0 2 0L2 0L2 0Z" transform="translate(27 20)" id="Shape" fill="#000000" fill-rule="evenodd" stroke="none" />
					<path d="M2 0.5C2.828 0.5 3.5 0.948 3.5 1.5C3.5 2.052 2.828 2.5 2 2.5C1.172 2.5 0.5 2.052 0.5 1.5C0.5 0.948 1.172 0.5 2 0.5M2 0C0.879 0 0 0.659 0 1.5C0 2.341 0.879 3 2 3C3.121 3 4 2.341 4 1.5C4 0.659 3.121 0 2 0L2 0L2 0Z" transform="translate(2 0)" id="Shape" fill="#000000" fill-rule="evenodd" stroke="none" />
					<path d="M2 0.5C2.828 0.5 3.5 0.948 3.5 1.5C3.5 2.052 2.828 2.5 2 2.5C1.172 2.5 0.5 2.052 0.5 1.5C0.5 0.948 1.172 0.5 2 0.5M2 0C0.879002 0 0 0.659 0 1.5C0 2.341 0.879002 3 2 3C3.121 3 4 2.341 4 1.5C4 0.659 3.121 0 2 0L2 0L2 0Z" transform="translate(25 0)" id="Shape" fill="#000000" fill-rule="evenodd" stroke="none" />
				</g>
				<path d="M0 1C0 0.447715 0.671573 0 1.5 0C2.32843 0 3 0.447715 3 1C3 1.55228 2.32843 2 1.5 2C0.671573 2 0 1.55228 0 1Z" transform="translate(1 21)" id="Ellipse" fill="#CCCCCC" fill-rule="evenodd" stroke="none" />
				<path d="M0 1C0 0.447715 0.671573 0 1.5 0C2.32843 0 3 0.447715 3 1C3 1.55228 2.32843 2 1.5 2C0.671573 2 0 1.55228 0 1Z" transform="translate(28 21)" id="Ellipse" fill="#CCCCCC" fill-rule="evenodd" stroke="none" />
				<path d="M0 1C0 0.447715 0.671573 0 1.5 0C2.32843 0 3 0.447715 3 1C3 1.55228 2.32843 2 1.5 2C0.671573 2 0 1.55228 0 1Z" transform="translate(3 1)" id="Ellipse" fill="#CCCCCC" fill-rule="evenodd" stroke="none" />
				<path d="M0 1C0 0.447715 0.671573 0 1.5 0C2.32843 0 3 0.447715 3 1C3 1.55228 2.32843 2 1.5 2C0.671573 2 0 1.55228 0 1Z" transform="translate(26 1)" id="Ellipse" fill="#CCCCCC" fill-rule="evenodd" stroke="none" />
			</g>
		</g>
	</g>
	<g id="icons8_computers_connecting" transform="translate(13.91655 9.148132)">
		<path d="M0 0L20 0L20 20L0 20L0 0Z" id="Background" fill="none" fill-rule="evenodd" stroke="none" />
		<g clip-path="url(#mask_2)">
			<path d="M0 0.416667C0 0.186548 0.186548 0 0.416666 0C0.646784 0 0.833332 0.186548 0.833332 0.416667C0.833332 0.646786 0.646784 0.833334 0.416666 0.833334C0.186548 0.833334 0 0.646786 0 0.416667Z" transform="translate(10.416687 5)" id="Circle" fill="#ABB4BE" fill-rule="evenodd" stroke="none" />
			<path d="M0 0.416667C0 0.186548 0.186548 0 0.416666 0C0.646784 0 0.833332 0.186548 0.833332 0.416667C0.833332 0.646786 0.646784 0.833334 0.416666 0.833334C0.186548 0.833334 0 0.646786 0 0.416667Z" transform="translate(12.083313 5)" id="Circle" fill="#ABB4BE" fill-rule="evenodd" stroke="none" />
			<path d="M0 0.416667C0 0.186548 0.186548 0 0.416666 0C0.646784 0 0.833332 0.186548 0.833332 0.416667C0.833332 0.646786 0.646784 0.833334 0.416666 0.833334C0.186548 0.833334 0 0.646786 0 0.416667Z" transform="translate(13.75 5)" id="Circle" fill="#ABB4BE" fill-rule="evenodd" stroke="none" />
			<path d="M0 0.416666C0 0.186548 0.186548 0 0.416666 0C0.646784 0 0.833332 0.186548 0.833332 0.416666C0.833332 0.646784 0.646784 0.833332 0.416666 0.833332C0.186548 0.833332 0 0.646784 0 0.416666Z" transform="translate(8.75 14.166626)" id="Circle" fill="#ABB4BE" fill-rule="evenodd" stroke="none" />
			<path d="M0 0.416666C0 0.186548 0.186549 0 0.416668 0C0.646787 0 0.833336 0.186548 0.833336 0.416666C0.833336 0.646784 0.646787 0.833332 0.416668 0.833332C0.186549 0.833332 0 0.646784 0 0.416666Z" transform="translate(15.416687 8.3333435)" id="Circle" fill="#ABB4BE" fill-rule="evenodd" stroke="none" />
			<path d="M0 0.416667C0 0.186548 0.186549 0 0.416668 0C0.646787 0 0.833336 0.186548 0.833336 0.416667C0.833336 0.646786 0.646787 0.833334 0.416668 0.833334C0.186549 0.833334 0 0.646786 0 0.416667Z" transform="translate(15.416687 6.6666718)" id="Circle" fill="#ABB4BE" fill-rule="evenodd" stroke="none" />
			<path d="M0 0.416667C0 0.186548 0.186549 0 0.416668 0C0.646787 0 0.833336 0.186548 0.833336 0.416667C0.833336 0.646786 0.646787 0.833334 0.416668 0.833334C0.186549 0.833334 0 0.646786 0 0.416667Z" transform="translate(15.416687 5)" id="Circle" fill="#ABB4BE" fill-rule="evenodd" stroke="none" />
			<path d="M0 0.416666C0 0.186548 0.186548 0 0.416667 0C0.646786 0 0.833334 0.186548 0.833334 0.416666C0.833334 0.646784 0.646786 0.833332 0.416667 0.833332C0.186548 0.833332 0 0.646784 0 0.416666Z" transform="translate(5.416687 12.5)" id="Circle" fill="#ABB4BE" fill-rule="evenodd" stroke="none" />
			<path d="M0 0.416666C0 0.186548 0.186548 0 0.416667 0C0.646786 0 0.833334 0.186548 0.833334 0.416666C0.833334 0.646784 0.646786 0.833332 0.416667 0.833332C0.186548 0.833332 0 0.646784 0 0.416666Z" transform="translate(5.416687 10.833374)" id="Circle" fill="#ABB4BE" fill-rule="evenodd" stroke="none" />
			<path d="M0 0.416666C0 0.186548 0.186548 0 0.416667 0C0.646786 0 0.833334 0.186548 0.833334 0.416666C0.833334 0.646784 0.646786 0.833332 0.416667 0.833332C0.186548 0.833332 0 0.646784 0 0.416666Z" transform="translate(7.083313 14.166626)" id="Circle" fill="#ABB4BE" fill-rule="evenodd" stroke="none" />
			<path d="M0 0.416666C0 0.186548 0.186548 0 0.416667 0C0.646786 0 0.833334 0.186548 0.833334 0.416666C0.833334 0.646784 0.646786 0.833332 0.416667 0.833332C0.186548 0.833332 0 0.646784 0 0.416666Z" transform="translate(5.416687 14.166626)" id="Circle" fill="#ABB4BE" fill-rule="evenodd" stroke="none" />
			<path d="M5.625 1.25L4.58333 1.25L4.58333 0L1.25 0L1.25 1.25L0.208333 1.25C0.0933333 1.25 0 1.34333 0 1.45833L0 1.875C0 1.99 0.0933333 2.08333 0.208333 2.08333L5.625 2.08333C5.74 2.08333 5.83333 1.99 5.83333 1.875L5.83333 1.45833C5.83333 1.34333 5.74 1.25 5.625 1.25L5.625 1.25Z" transform="translate(2.5 7.9166565)" id="Shape" fill="url(#gradient_6)" fill-rule="evenodd" stroke="none" />
			<path d="M7.91667 6.25L0.416667 6.25C0.186667 6.25 0 6.06333 0 5.83333L0 0.416667C0 0.186667 0.186667 0 0.416667 0L7.91667 0C8.14667 0 8.33333 0.186667 8.33333 0.416667L8.33333 5.83333C8.33333 6.06333 8.14667 6.25 7.91667 6.25L7.91667 6.25Z" transform="translate(1.25 2.0833282)" id="Shape" fill="url(#gradient_7)" fill-rule="evenodd" stroke="none" />
			<path d="M7.91667 0.833332L0.416667 0.833332C0.186667 0.833332 0 0.646666 0 0.416666L0 0L8.33333 0L8.33333 0.416666C8.33333 0.646666 8.14667 0.833332 7.91667 0.833332L7.91667 0.833332Z" transform="translate(1.25 7.5)" id="Shape" fill="url(#gradient_8)" fill-rule="evenodd" stroke="none" />
			<path d="M5.625 1.25L4.58333 1.25L4.58333 0L1.25 0L1.25 1.25L0.208333 1.25C0.0933337 1.25 0 1.34333 0 1.45833L0 1.875C0 1.99 0.0933337 2.08333 0.208333 2.08333L5.625 2.08333C5.74 2.08333 5.83333 1.99 5.83333 1.875L5.83333 1.45833C5.83333 1.34333 5.74 1.25 5.625 1.25L5.625 1.25Z" transform="translate(11.666687 15.833374)" id="Shape" fill="url(#gradient_9)" fill-rule="evenodd" stroke="none" />
			<path d="M7.91667 6.25L0.416667 6.25C0.186667 6.25 0 6.06333 0 5.83333L0 0.416667C0 0.186667 0.186667 0 0.416667 0L7.91667 0C8.14667 0 8.33333 0.186667 8.33333 0.416667L8.33333 5.83333C8.33333 6.06333 8.14667 6.25 7.91667 6.25L7.91667 6.25Z" transform="translate(10.416687 10)" id="Shape" fill="url(#gradient_10)" fill-rule="evenodd" stroke="none" />
			<path d="M7.91667 0.833336L0.416667 0.833336C0.186667 0.833336 0 0.646668 0 0.416668L0 0L8.33333 0L8.33333 0.416668C8.33333 0.646668 8.14667 0.833336 7.91667 0.833336L7.91667 0.833336Z" transform="translate(10.416687 15.416626)" id="Shape" fill="url(#gradient_8)" fill-rule="evenodd" stroke="none" />
		</g>
	</g>
</svg>