<?xml version="1.0" encoding="utf-8"?>
<svg width="48px" height="48px" viewBox="0 0 48 48" version="1.1" xmlns:xlink="http://www.w3.org/1999/xlink" xmlns="http://www.w3.org/2000/svg">
  <defs>
    <linearGradient x1="0.048090935" y1="0.952" x2="0.5090909" y2="0.49090907" id="gradient_1">
      <stop offset="0" stop-color="#3079D6" />
      <stop offset="1" stop-color="#297CD2" />
    </linearGradient>
    <linearGradient x1="-0.040944442" y1="-0.26868182" x2="0.80300003" y2="0.93054545" id="gradient_2">
      <stop offset="0" stop-color="#5059C9" />
      <stop offset="0.999" stop-color="#4750B3" />
    </linearGradient>
    <path d="M0 0L48 0L48 48L0 48L0 0Z" id="path_1" />
    <path d="M0 0L25 0L25 25L0 25L0 0Z" id="path_2" />
    <clipPath id="mask_1">
      <use xlink:href="#path_1" />
    </clipPath>
    <clipPath id="mask_2">
      <use xlink:href="#path_2" />
    </clipPath>
  </defs>
  <g id="icons8_file_2">
    <path d="M0 0L48 0L48 48L0 48L0 0Z" id="Background" fill="none" fill-rule="evenodd" stroke="none" />
    <g clip-path="url(#mask_1)">
      <path d="M30 11L30 36C30 37.105 29.105 38 28 38L2 38C0.895001 38 0 37.105 0 36L0 2C0 0.895 0.895001 0 2 0L19 0L30 11L30 11Z" transform="translate(9 5)" id="Shape" fill="#50E6FF" fill-rule="evenodd" stroke="none" />
      <path d="M0 0L0 9C0 10.105 0.895 11 2 11L11 11L0 0L0 0Z" transform="translate(28 5)" id="Shape" fill="url(#gradient_1)" fill-rule="evenodd" stroke="none" />
    </g>
  </g>
  <g id="Plugin-icon" transform="translate(11 16.645508)">
    <path d="M0 0L25 0L25 25L0 25L0 0Z" id="Background" fill="none" fill-rule="evenodd" stroke="none" />
    <g clip-path="url(#mask_2)">
      <path d="M1.04167 0L4.16667 0C4.73958 0 5.20833 0.46875 5.20833 1.04167L5.20833 3.64583L0 3.64583L0 1.04167C0 0.46875 0.46875 0 1.04167 0L1.04167 0Z" transform="translate(14.583313 5.2083435)" id="Shape" fill="#7B83EB" fill-rule="evenodd" stroke="none" />
      <path d="M1.04167 0L4.16667 0C4.73958 0 5.20833 0.46875 5.20833 1.04167L5.20833 3.64583L0 3.64583L0 1.04167C0 0.46875 0.46875 0 1.04167 0L1.04167 0Z" transform="translate(5.208313 5.2083435)" id="Shape" fill="#7B83EB" fill-rule="evenodd" stroke="none" />
      <path d="M0 0L5.20833 0L5.20833 1.04167L0 1.04167L0 0Z" transform="translate(14.583313 7.8125)" id="Rectangle" fill="#000000" fill-opacity="0.05" fill-rule="evenodd" stroke="none" />
      <path d="M0 0L5.20833 0L5.20833 0.78125L0 0.78125L0 0Z" transform="translate(14.583313 8.0729065)" id="Rectangle" fill="#000000" fill-opacity="0.07" fill-rule="evenodd" stroke="none" />
      <path d="M0 0L5.20833 0L5.20833 1.04167L0 1.04167L0 0Z" transform="translate(5.208313 7.8125)" id="Rectangle" fill="#000000" fill-opacity="0.05" fill-rule="evenodd" stroke="none" />
      <path d="M0 0L5.20833 0L5.20833 0.78125L0 0.78125L0 0Z" transform="translate(5.208313 8.0729065)" id="Rectangle" fill="#000000" fill-opacity="0.07" fill-rule="evenodd" stroke="none" />
      <path d="M1.04167 0L17.7083 0C18.2813 0 18.75 0.46875 18.75 1.04167L18.75 10.4167C18.75 10.9896 18.2813 11.4583 17.7083 11.4583L1.04167 11.4583C0.46875 11.4583 0 10.9896 0 10.4167L0 1.04167C0 0.46875 0.46875 0 1.04167 0L1.04167 0Z" transform="translate(3.125 8.3333435)" id="Shape" fill="url(#gradient_2)" fill-rule="evenodd" stroke="none" />
    </g>
  </g>
</svg>