<?xml version="1.0" encoding="utf-8"?>
<svg width="48px" height="49px" viewBox="0 0 48 49" version="1.1" xmlns:xlink="http://www.w3.org/1999/xlink" xmlns="http://www.w3.org/2000/svg">
	<defs>
		<linearGradient x1="0.048090935" y1="0.952" x2="0.5090909" y2="0.49090907" id="gradient_1">
			<stop offset="0" stop-color="#3079D6" />
			<stop offset="1" stop-color="#297CD2" />
		</linearGradient>
		<linearGradient x1="0.4999919" y1="-0.007848829" x2="0.4999919" y2="1.0121732" id="gradient_2">
			<stop offset="0" stop-color="#C391F7" />
			<stop offset="1" stop-color="#B579F4" />
		</linearGradient>
		<linearGradient x1="0.019933343" y1="1.0682704" x2="1.1306667" y2="0.017020166" id="gradient_3">
			<stop offset="0.019" stop-color="#742FB6" />
			<stop offset="0.32" stop-color="#702DB5" />
			<stop offset="0.36399996" stop-color="#5D2596" />
			<stop offset="0.38" stop-color="#5D2596" />
			<stop offset="0.48" stop-color="#5D2596" />
			<stop offset="0.48499998" stop-color="#60279A" />
			<stop offset="0.517" stop-color="#6F2DAB" />
			<stop offset="0.556" stop-color="#7932B6" />
			<stop offset="0.61" stop-color="#7E34BD" />
			<stop offset="0.762" stop-color="#8035BF" />
			<stop offset="0.806" stop-color="#7D34BB" />
			<stop offset="0.85099995" stop-color="#7530AE" />
			<stop offset="0.897" stop-color="#66299A" />
			<stop offset="0.943" stop-color="#52207D" />
			<stop offset="0.963" stop-color="#481B6E" />
		</linearGradient>
		<linearGradient x1="0.013500005" y1="0.42334202" x2="1.0628668" y2="0.5716522" id="gradient_4">
			<stop offset="0.002" stop-color="#9C55D4" />
			<stop offset="0.003" stop-color="#9C55D4" />
			<stop offset="0.337" stop-color="#9751D2" />
			<stop offset="0.7369999" stop-color="#8847CB" />
			<stop offset="0.84799993" stop-color="#8343C8" />
			<stop offset="0.89" stop-color="#8042C3" />
			<stop offset="0.938" stop-color="#773DB6" />
			<stop offset="0.9879999" stop-color="#68369F" />
			<stop offset="1" stop-color="#643499" />
		</linearGradient>
		<linearGradient x1="0.50000006" y1="1.0237606" x2="0.50000006" y2="0.021003902" id="gradient_5">
			<stop offset="0" stop-color="#5C1D9C" />
			<stop offset="1" stop-color="#561B90" />
		</linearGradient>
		<path d="M0 0L48 0L48 48L0 48L0 0Z" id="path_1" />
		<path d="M0 0L25 0L25 25L0 25L0 0Z" id="path_2" />
		<clipPath id="mask_1">
			<use xlink:href="#path_1" />
		</clipPath>
		<clipPath id="mask_2">
			<use xlink:href="#path_2" />
		</clipPath>
	</defs>
	<g id="icons8_file_2">
		<path d="M0 0L48 0L48 48L0 48L0 0Z" id="Background" fill="none" fill-rule="evenodd" stroke="none" />
		<g clip-path="url(#mask_1)">
			<path d="M30 11L30 36C30 37.105 29.105 38 28 38L2 38C0.895001 38 0 37.105 0 36L0 2C0 0.895 0.895001 0 2 0L19 0L30 11L30 11Z" transform="translate(9 5)" id="Shape" fill="#50E6FF" fill-rule="evenodd" stroke="none" />
			<path d="M0 0L0 9C0 10.105 0.895 11 2 11L11 11L0 0L0 0Z" transform="translate(28 5)" id="Shape" fill="url(#gradient_1)" fill-rule="evenodd" stroke="none" />
		</g>
	</g>
	<g id="icons8_visual_studio_2019" transform="translate(11.361206 16.645508)">
		<path d="M0 0L25 0L25 25L0 25L0 0Z" id="Background" fill="none" fill-rule="evenodd" stroke="none" />
		<g clip-path="url(#mask_2)">
			<path d="M6.59156 3.5349L6.59156 17.2865C6.59156 17.8839 6.25145 18.4286 5.71447 18.6906C4.49156 19.2865 2.38531 20.312 2.0426 20.4682C1.5551 20.6911 1.24885 20.8365 0.866037 20.8365C0.483224 20.8365 0.230099 20.587 0.0540574 20.401C-0.121984 20.2146 1.38322 15.1073 1.38322 15.1073L1.38322 1.16458C1.38322 1.16458 -0.274067 0.817708 0.0394742 0.468229C0.353536 0.11875 0.616037 0 0.94364 0C1.32124 0 1.62645 0.168229 1.9702 0.333854C2.21395 0.451042 4.43478 1.51667 5.70666 2.12708C6.24885 2.38698 6.59156 2.93385 6.59156 3.5349L6.59156 3.5349Z" transform="translate(16.325104 2.0802002)" id="Shape" fill="url(#gradient_2)" fill-rule="evenodd" stroke="none" />
			<path d="M0 14.4258C0 15.4299 0.135938 15.5789 1.11146 16.0029C1.86979 16.3325 2.17188 16.5091 2.37448 16.5091C2.61875 16.5091 2.84844 16.3409 3.06562 16.1633C3.28281 15.9857 15.625 5.84505 15.625 5.84505L15.625 0.647654C15.625 0.0236961 14.7531 -0.225262 14.3401 0.242446C14.3401 0.242446 1.42813 14.5815 1.04167 14.9529C0.655208 15.3242 0.920313 13.9669 0 14.4258L0 14.4258Z" transform="translate(2.0833435 2.2408752)" id="Shape" fill="url(#gradient_3)" fill-rule="evenodd" stroke="none" />
			<path d="M0.322917 0.875521C0.488021 0.796354 1.85104 0.186979 2.01875 0.113541C2.21562 0.0276044 2.28646 0 2.43177 0C2.59219 0 2.70156 0.0609373 2.95313 0.267708C3.30469 0.55625 15.625 10.6682 15.625 10.6682L15.625 15.751C15.625 16.6234 14.7167 16.713 14.2042 16.137C13.8406 15.7286 1.24427 1.78854 1.24427 1.78854C1.24427 1.78854 0 2.41719 0 1.86823C0 1.12813 0.14375 0.961979 0.322917 0.875521L0.322917 0.875521Z" transform="translate(2.0833435 6.25)" id="Shape" fill="url(#gradient_4)" fill-rule="evenodd" stroke="none" />
			<path d="M2.60417 2.0466L2.60417 7.99035C2.60417 7.99035 1.18229 9.55233 0.864583 9.89608C0.582292 10.2018 0 10.106 0 9.24712L0 0.53879C0 -0.112773 0.589063 -0.178919 1.09271 0.370561C1.18385 0.47004 2.60417 2.0466 2.60417 2.0466L2.60417 2.0466Z" transform="translate(2.0833435 7.4966125)" id="Shape" fill="url(#gradient_5)" fill-rule="evenodd" stroke="none" />
		</g>
	</g>
</svg>