<?xml version="1.0" encoding="utf-8"?>
<svg width="48px" height="48px" viewBox="0 0 48 48" version="1.1" xmlns:xlink="http://www.w3.org/1999/xlink" xmlns="http://www.w3.org/2000/svg">
	<defs>
		<linearGradient x1="0.048090935" y1="0.952" x2="0.5090909" y2="0.49090907" id="gradient_1">
			<stop offset="0" stop-color="#3079D6" />
			<stop offset="1" stop-color="#297CD2" />
		</linearGradient>
		<radialGradient gradientUnits="objectBoundingBox" cx="15.830001%" cy="12.9525%" fx="15.830001%" fy="12.9525%" r="100.10251%" gradientTransform="translate(0.15830001,0.129525),translate(-0.15830001,-0.129525)" id="gradient_2">
			<stop offset="0%" stop-color="#6FCEFC" />
			<stop offset="100%" stop-color="#167CF7" />
		</radialGradient>
		<radialGradient gradientUnits="objectBoundingBox" cx="14.31374%" cy="11.2%" fx="14.31374%" fy="11.2%" r="112.52312%" gradientTransform="translate(0.1431374,0.111999996),scale(1,0.89215),translate(-0.1431374,-0.111999996)" id="gradient_3">
			<stop offset="0.1%" stop-color="#54C0F5" />
			<stop offset="99.8%" stop-color="#0B69DB" />
		</radialGradient>
		<path d="M0 0L48 0L48 48L0 48L0 0Z" id="path_1" />
		<path d="M0 0L25 0L25 25L0 25L0 0Z" id="path_2" />
		<clipPath id="mask_1">
			<use xlink:href="#path_1" />
		</clipPath>
		<clipPath id="mask_2">
			<use xlink:href="#path_2" />
		</clipPath>
	</defs>
	<g id="icons8_file_4">
		<path d="M0 0L48 0L48 48L0 48L0 0Z" id="Background" fill="none" fill-rule="evenodd" stroke="none" />
		<g clip-path="url(#mask_1)">
			<path d="M30 11L30 36C30 37.105 29.105 38 28 38L2 38C0.895001 38 0 37.105 0 36L0 2C0 0.895 0.895001 0 2 0L19 0L30 11L30 11Z" transform="translate(9 5)" id="Shape" fill="#50E6FF" fill-rule="evenodd" stroke="none" />
			<path d="M0 0L0 9C0 10.105 0.895 11 2 11L11 11L0 0L0 0Z" transform="translate(28 5)" id="Shape" fill="url(#gradient_1)" fill-rule="evenodd" stroke="none" />
		</g>
	</g>
	<g id="icons8_website" transform="translate(10.953644 16.410767)">
		<path d="M0 0L25 0L25 25L0 25L0 0Z" id="Background" fill="none" fill-rule="evenodd" stroke="none" />
		<g clip-path="url(#mask_2)">
			<path d="M0 10.4167C0 4.66406 4.66406 0 10.4167 0C16.1693 0 20.8333 4.66406 20.8333 10.4167C20.8333 16.1693 16.1693 20.8333 10.4167 20.8333C4.66406 20.8333 0 16.1693 0 10.4167L0 10.4167Z" transform="translate(2.0833435 2.0833435)" id="Shape" fill="url(#gradient_2)" fill-rule="evenodd" stroke="none" />
			<path d="M18.1474 10.4167C18.1474 8.72969 17.7969 7.1401 17.1896 5.72917L18.5865 5.72917C18.4052 5.37031 18.2089 5.02083 17.9885 4.6875L16.6802 4.6875C15.0943 1.86667 12.3771 0 9.29323 0C6.20938 0 3.49219 1.86667 1.90625 4.6875L0.597917 4.6875C0.377604 5.02083 0.18125 5.37031 0 5.72917L1.39688 5.72917C0.789583 7.1401 0.439063 8.72969 0.439063 10.4167C0.439063 12.1036 0.789583 13.6932 1.39688 15.1042L2.48353e-07 15.1042C0.18125 15.463 0.377604 15.8125 0.597917 16.1458L1.90625 16.1458C3.49219 18.9667 6.20938 20.8333 9.29323 20.8333C12.3771 20.8333 15.0943 18.9667 16.6802 16.1458L17.9885 16.1458C18.2089 15.8125 18.4052 15.463 18.5865 15.1042L17.1896 15.1042C17.7969 13.6932 18.1474 12.1036 18.1474 10.4167L18.1474 10.4167ZM17.1057 10.4167C17.1057 12.125 16.7167 13.7234 16.049 15.1042L13.0318 15.1042C13.3146 13.6286 13.4599 12.0068 13.4599 10.4167C13.4599 8.82655 13.3146 7.20468 13.0318 5.72916L16.049 5.72916C16.7167 7.10989 17.1057 8.70832 17.1057 10.4167L17.1057 10.4167ZM9.29322 19.7917C8.41301 19.7917 7.47499 18.4182 6.85884 16.1458L11.7281 16.1458C11.1114 18.4182 10.1734 19.7917 9.29322 19.7917L9.29322 19.7917ZM6.60989 15.1042C6.33542 13.7568 6.16823 12.1724 6.16823 10.4167C6.16823 8.66093 6.33542 7.07655 6.60989 5.72916L11.9766 5.72916C12.251 7.07655 12.4182 8.66093 12.4182 10.4167C12.4182 12.1724 12.251 13.7568 11.9766 15.1042L6.60989 15.1042L6.60989 15.1042ZM9.29325 1.04166C10.1735 1.04166 11.1115 2.41509 11.7276 4.68749L6.85835 4.68749C7.47502 2.41509 8.41304 1.04166 9.29325 1.04166L9.29325 1.04166ZM15.4635 4.68751L12.8016 4.68751C12.4755 3.38594 12.0313 2.24792 11.4724 1.42032C13.076 1.98074 14.4646 3.14167 15.4635 4.68751L15.4635 4.68751ZM7.11406 1.42032C6.5552 2.24844 6.11093 3.38594 5.78489 4.68751L3.12291 4.68751C4.12187 3.14167 5.51041 1.98074 7.11406 1.42032L7.11406 1.42032ZM1.48073 10.4167C1.48073 8.70832 1.86979 7.10989 2.5375 5.72916L5.55469 5.72916C5.27187 7.20468 5.12656 8.82655 5.12656 10.4167C5.12656 12.0068 5.27187 13.6286 5.55469 15.1042L2.5375 15.1042C1.86979 13.7234 1.48073 12.125 1.48073 10.4167L1.48073 10.4167ZM3.12291 16.1458L5.78489 16.1458C6.11093 17.4474 6.5552 18.5854 7.11406 19.413C5.51041 18.8526 4.12187 17.6917 3.12291 16.1458L3.12291 16.1458ZM11.4724 19.413C12.0313 18.5849 12.4755 17.4474 12.8016 16.1458L15.4635 16.1458C14.4646 17.6917 13.076 18.8526 11.4724 19.413L11.4724 19.413Z" transform="translate(3.2067566 2.0833435)" id="Shape" fill="url(#gradient_3)" fill-rule="evenodd" stroke="none" />
			<path d="M19.4831 0L18.1081 0C17.9258 0 17.7685 0.127605 17.731 0.305729L17.4857 1.47344L17.1831 0.289583C17.1399 0.119271 16.9862 0 16.8102 0L15.5581 0C15.3821 0 15.2284 0.119271 15.1847 0.290104L14.8821 1.47396L14.6367 0.30625C14.5998 0.127605 14.4425 0 14.2602 0L11.8581 0C11.6758 0 11.5185 0.127605 11.481 0.305729L11.2357 1.47344L10.9331 0.289583C10.8899 0.119271 10.7362 0 10.5602 0L9.3081 0C9.13206 0 8.97841 0.119271 8.93466 0.290104L8.63206 1.47396L8.38675 0.30625C8.34977 0.127605 8.19248 0 8.01018 0L5.6081 0C5.42581 0 5.26852 0.127605 5.23102 0.305729L4.9857 1.47344L4.6831 0.289583C4.63987 0.119271 4.48623 0 4.31018 0L3.0581 0C2.88206 0 2.72841 0.119271 2.68466 0.290104L2.38258 1.47396L2.13727 0.305729C2.09977 0.127605 1.94248 0 1.76018 0L0.385184 0C0.134663 0 -0.0491912 0.235416 0.0117463 0.478646L1.12112 4.91667C1.16383 5.08802 1.318 5.20833 1.49456 5.20833L2.98102 5.20833C3.1555 5.20833 3.30758 5.09323 3.35237 4.925C3.45237 4.5526 3.62216 3.91823 3.68362 3.68542C3.74508 3.91823 3.91487 4.5526 4.01487 4.925C4.0607 5.09323 4.21279 5.20833 4.38727 5.20833L5.87373 5.20833C6.05029 5.20833 6.20446 5.08802 6.24716 4.91667L6.80914 2.66927L7.37112 4.91667C7.41383 5.08802 7.568 5.20833 7.74456 5.20833L9.23102 5.20833C9.4055 5.20833 9.55758 5.09323 9.60237 4.925C9.70237 4.5526 9.87216 3.91823 9.93362 3.68542C9.99508 3.91823 10.1649 4.5526 10.2649 4.925C10.3107 5.09323 10.4628 5.20833 10.6373 5.20833L12.1237 5.20833C12.3003 5.20833 12.4545 5.08802 12.4972 4.91667L13.0591 2.66927L13.6211 4.91667C13.6638 5.08802 13.818 5.20833 13.9946 5.20833L15.481 5.20833C15.6555 5.20833 15.8076 5.09323 15.8524 4.925C15.9524 4.5526 16.1222 3.91823 16.1836 3.68542C16.2451 3.91823 16.4149 4.5526 16.5149 4.925C16.5607 5.09323 16.7128 5.20833 16.8873 5.20833L18.3737 5.20833C18.5503 5.20833 18.7045 5.08802 18.7472 4.91667L19.8565 0.478646C19.9175 0.235416 19.7336 0 19.4831 0L19.4831 0Z" transform="translate(2.565857 9.8958435)" id="Shape" fill="#000000" fill-opacity="0.05" fill-rule="evenodd" stroke="none" />
			<path d="M18.9809 9.93411e-07L17.9304 9.93411e-07C17.7981 9.93411e-07 17.6835 0.0927091 17.6564 0.222397L17.207 2.3625L16.6575 0.210417C16.6257 0.0864585 16.5142 9.93411e-07 16.3861 9.93411e-07L15.3747 9.93411e-07C15.2471 9.93411e-07 15.1351 0.0864595 15.1033 0.210417L14.5538 2.3625L14.1038 0.222396C14.0768 0.0927081 13.9622 0 13.8299 0L11.6794 0C11.5471 0 11.4325 0.0927081 11.4054 0.222396L10.9559 2.3625L10.4064 0.210417C10.3747 0.0864585 10.2632 9.93411e-07 10.1351 9.93411e-07L9.12362 9.93411e-07C8.99602 9.93411e-07 8.88404 0.0864595 8.85227 0.210417L8.30279 2.3625L7.85279 0.222396C7.82571 0.0927081 7.71112 0 7.57883 0L5.42831 0C5.29602 0 5.18144 0.0927081 5.15435 0.222396L4.70488 2.3625L4.1554 0.210417C4.12363 0.0864585 4.01217 9.93411e-07 3.88404 9.93411e-07L2.87258 9.93411e-07C2.74498 9.93411e-07 2.633 0.0864595 2.60123 0.210417L2.05175 2.3625L1.60435 0.222397C1.57727 0.0927091 1.46321 9.93411e-07 1.33092 9.93411e-07L0.279875 9.93411e-07C0.0981043 9.93411e-07 -0.0357499 0.170834 0.00852098 0.347917L1.04029 4.47552C1.07154 4.6 1.18352 4.6875 1.31165 4.6875L2.558 4.6875C2.68456 4.6875 2.79498 4.60365 2.82779 4.48125C2.95383 4.01042 3.34081 2.56302 3.37935 2.36354C3.41842 2.56302 3.80487 4.01094 3.93092 4.48125C3.96373 4.60365 4.07414 4.6875 4.20071 4.6875L5.44706 4.6875C5.57571 4.6875 5.68717 4.6 5.71842 4.47552L6.5054 1.3349L7.29081 4.47552C7.32206 4.6 7.43404 4.6875 7.56217 4.6875L8.80852 4.6875C8.93508 4.6875 9.0455 4.60365 9.07831 4.48125C9.20435 4.01042 9.59133 2.56302 9.62987 2.36354C9.66894 2.56302 10.0554 4.01094 10.1814 4.48125C10.2142 4.60365 10.3247 4.6875 10.4512 4.6875L11.6976 4.6875C11.8262 4.6875 11.9377 4.6 11.9689 4.47552L12.7554 1.3349L13.5408 4.47552C13.5721 4.6 13.684 4.6875 13.8122 4.6875L15.0585 4.6875C15.1851 4.6875 15.2955 4.60365 15.3283 4.48125C15.4544 4.01042 15.8413 2.56302 15.8799 2.36354C15.9189 2.56302 16.3054 4.01094 16.4314 4.48125C16.4642 4.60365 16.5747 4.6875 16.7012 4.6875L17.9476 4.6875C18.0762 4.6875 18.1877 4.6 18.2189 4.47552L19.2507 0.347917C19.2965 0.170834 19.1627 9.93411e-07 18.9809 9.93411e-07L18.9809 9.93411e-07Z" transform="translate(2.8695984 10.15625)" id="Shape" fill="#000000" fill-opacity="0.07" fill-rule="evenodd" stroke="none" />
			<path d="M5.15885 0L4.47552 3.25156L3.64583 0L2.60417 0L1.77448 3.25156L1.09115 0L0 0L1.04167 4.16667L2.31823 4.16667C2.31823 4.16667 3.10625 1.23125 3.125 1.04167C3.14375 1.23125 3.93177 4.16667 3.93177 4.16667L5.20833 4.16667L6.25 0L5.15885 0L5.15885 0Z" transform="translate(9.375 10.4166565)" id="Shape" fill="#FFFFFF" fill-rule="evenodd" stroke="none" />
			<path d="M5.15885 0L4.47552 3.25156L3.64583 0L2.60417 0L1.77448 3.25156L1.09115 0L0 0L1.04167 4.16667L2.31823 4.16667C2.31823 4.16667 3.10625 1.23125 3.125 1.04167C3.14375 1.23125 3.93177 4.16667 3.93177 4.16667L5.20833 4.16667L6.25 0L5.15885 0L5.15885 0Z" transform="translate(3.125 10.4166565)" id="Shape" fill="#FFFFFF" fill-rule="evenodd" stroke="none" />
			<path d="M5.15885 0L4.47552 3.25156L3.64583 0L2.60417 0L1.77448 3.25156L1.09115 0L0 0L1.04167 4.16667L2.31823 4.16667C2.31823 4.16667 3.10625 1.23125 3.125 1.04167C3.14375 1.23125 3.93177 4.16667 3.93177 4.16667L5.20833 4.16667L6.25 0L5.15885 0L5.15885 0Z" transform="translate(15.625 10.4166565)" id="Shape" fill="#FFFFFF" fill-rule="evenodd" stroke="none" />
		</g>
	</g>
</svg>