<?xml version="1.0" encoding="utf-8"?>
<svg width="48px" height="48px" viewBox="0 0 48 48" version="1.1" xmlns:xlink="http://www.w3.org/1999/xlink" xmlns="http://www.w3.org/2000/svg">
	<defs>
		<linearGradient x1="0.97217864" y1="-0.13420835" x2="-0.35325003" y2="1.4121249" id="gradient_1">
			<stop offset="0" stop-color="#9A9A9A" />
			<stop offset="0.302" stop-color="#929292" />
			<stop offset="0.757" stop-color="#7E7E7E" />
			<stop offset="1" stop-color="#707070" />
		</linearGradient>
		<linearGradient x1="0" y1="0.5" x2="1" y2="0.5" id="gradient_2">
			<stop offset="0" stop-color="#32BDEF" />
			<stop offset="1" stop-color="#1EA2E4" />
		</linearGradient>
		<linearGradient x1="0" y1="0.5" x2="1" y2="0.5" id="gradient_3">
			<stop offset="0" stop-color="#C9C9C9" />
			<stop offset="1" stop-color="#B3B3B3" />
		</linearGradient>
		<linearGradient x1="0" y1="0.5000001" x2="1" y2="0.5000001" id="gradient_4">
			<stop offset="0" stop-color="#199AE0" />
			<stop offset="1" stop-color="#0782D8" />
		</linearGradient>
		<path d="M0 0L48 0L48 48L0 48L0 0Z" id="path_1" />
		<clipPath id="mask_1">
			<use xlink:href="#path_1" />
		</clipPath>
	</defs>
	<g id="icons8_cut">
		<path d="M0 0L48 0L48 48L0 48L0 0Z" id="Background" fill="none" fill-rule="evenodd" stroke="none" />
		<g clip-path="url(#mask_1)">
			<path d="M28 0L4 24L0 20L17.657 2.343C19.157 0.843 21.192 0 23.314 0L28 0L28 0Z" transform="translate(16 7)" id="Shape" fill="url(#gradient_1)" fill-rule="evenodd" stroke="none" />
			<path d="M15 11L11.733 7.733C11.906 7.182 12 6.6 12 6C12 2.743 9.256 0 6 0C2.744 0 0 2.743 0 6C0 9.256 2.744 12 6 12C6.6 12 7.182 11.906 7.733 11.733L11 15L15 11L15 11ZM3 6C3 4.399 4.399 3 6 3C7.601 3 9 4.399 9 6C9 7.6 7.601 9 6 9C4.399 9 3 7.6 3 6L3 6Z" transform="translate(5 6)" id="Shape" fill="url(#gradient_2)" fill-rule="evenodd" stroke="none" />
			<path d="M28 24L4 0L0 4L17.657 21.657C19.157 23.157 21.192 24 23.314 24L28 24L28 24Z" transform="translate(16 17)" id="Shape" fill="url(#gradient_3)" fill-rule="evenodd" stroke="none" />
			<path d="M0 1C0 0.447715 0.447715 0 1 0C1.55228 0 2 0.447715 2 1C2 1.55228 1.55228 2 1 2C0.447715 2 0 1.55228 0 1Z" transform="translate(22 23)" id="Circle" fill="#FFFFFF" fill-rule="evenodd" stroke="none" />
			<path d="M15 13.5L1.5 0L0 1.5L12 13.5L15 13.5Z" transform="translate(29 27.5)" id="Polygon" fill="#E6E6E6" fill-rule="evenodd" stroke="none" />
			<g id="Group" transform="translate(5 27)">
				<path d="M15 4L11 0L7.733 3.267C7.182 3.094 6.6 3 6 3C2.744 3 0 5.743 0 9C0 12.256 2.744 15 6 15C9.256 15 12 12.256 12 9C12 8.4 11.906 7.818 11.733 7.267L15 4L15 4ZM6 12C4.399 12 3 10.6 3 9C3 7.399 4.399 6 6 6C7.601 6 9 7.399 9 9C9 10.6 7.601 12 6 12L6 12Z" id="Shape" fill="url(#gradient_4)" fill-rule="evenodd" stroke="none" />
			</g>
		</g>
	</g>
</svg>