<?xml version="1.0" encoding="UTF-8"?>
<svg xmlns="http://www.w3.org/2000/svg" xmlns:xlink="http://www.w3.org/1999/xlink" width="48pt" height="48pt" viewBox="0 0 48 48" version="1.1">
<defs>
<linearGradient id="linear0" gradientUnits="userSpaceOnUse" x1="15" y1="46" x2="15" y2="27" >
<stop offset="0" style="stop-color:rgb(11.764706%,63.529412%,89.411765%);stop-opacity:1;"/>
<stop offset="1" style="stop-color:rgb(19.607843%,74.117647%,93.72549%);stop-opacity:1;"/>
</linearGradient>
<linearGradient id="linear1" gradientUnits="userSpaceOnUse" x1="15" y1="22" x2="15" y2="3" >
<stop offset="0" style="stop-color:rgb(11.764706%,63.529412%,89.411765%);stop-opacity:1;"/>
<stop offset="1" style="stop-color:rgb(19.607843%,74.117647%,93.72549%);stop-opacity:1;"/>
</linearGradient>
</defs>
<g id="surface26293">
<path style=" stroke:none;fill-rule:nonzero;fill:rgb(9.803922%,60.392157%,87.843137%);fill-opacity:1;" d="M 22.488281 3.628906 L 6.378906 19.808594 C 5.570312 20.617188 6.140625 22 7.28125 22 L 40.71875 22 C 41.859375 22 42.429688 20.617188 41.625 19.808594 L 25.511719 3.628906 C 24.679688 2.789062 23.320312 2.789062 22.488281 3.628906 Z M 22.488281 3.628906 "/>
<path style=" stroke:none;fill-rule:nonzero;fill:rgb(9.803922%,60.392157%,87.843137%);fill-opacity:1;" d="M 25.511719 45.371094 L 41.621094 29.191406 C 42.429688 28.382812 41.859375 27 40.71875 27 L 7.28125 27 C 6.140625 27 5.570312 28.382812 6.378906 29.191406 L 22.488281 45.371094 C 23.320312 46.210938 24.679688 46.210938 25.511719 45.371094 Z M 25.511719 45.371094 "/>
<path style=" stroke:none;fill-rule:nonzero;fill:url(#linear0);" d="M 24 27 L 7.28125 27 C 6.140625 27 5.570312 28.382812 6.378906 29.191406 L 22.488281 45.371094 C 22.902344 45.789062 23.453125 46 24 46 Z M 24 27 "/>
<path style=" stroke:none;fill-rule:nonzero;fill:url(#linear1);" d="M 24 3 C 23.453125 3 22.902344 3.210938 22.488281 3.628906 L 6.378906 19.808594 C 5.570312 20.617188 6.140625 22 7.28125 22 L 24 22 Z M 24 3 "/>
</g>
</svg>
