<?xml version="1.0" encoding="utf-8"?>
<svg width="48px" height="48px" viewBox="0 0 48 48" version="1.1" xmlns:xlink="http://www.w3.org/1999/xlink" xmlns="http://www.w3.org/2000/svg">
  <defs>
    <linearGradient x1="0.50000006" y1="1.7906666" x2="0.50000006" y2="0.043848038" id="gradient_1">
      <stop offset="0" stop-color="#F44F5A" />
      <stop offset="0.443" stop-color="#EE3D4A" />
      <stop offset="1" stop-color="#E52030" />
    </linearGradient>
    <linearGradient x1="0.5" y1="0.013244629" x2="0.5" y2="2.4502563" id="gradient_2">
      <stop offset="0" stop-color="#F44F5A" />
      <stop offset="0.443" stop-color="#EE3D4A" />
      <stop offset="1" stop-color="#E52030" />
    </linearGradient>
    <path d="M0 0L48 0L48 48L0 48L0 0Z" id="path_1" />
    <clipPath id="mask_1">
      <use xlink:href="#path_1" />
    </clipPath>
  </defs>
  <g id="Delete-Bin-icon">
    <path d="M0 0L48 0L48 48L0 48L0 0Z" id="Background" fill="none" fill-rule="evenodd" stroke="none" />
    <g clip-path="url(#mask_1)">
      <path d="M30 0L30 31C30 32.105 29.105 33 28 33L2 33C0.895001 33 0 32.105 0 31L0 0L30 0L30 0Z" transform="translate(9 10)" id="Shape" fill="url(#gradient_1)" fill-rule="evenodd" stroke="none" />
      <path d="M10 0L2 0C0.895 0 0 0.895 0 2L0 4L12 4L12 2C12 0.895 11.105 0 10 0L10 0Z" transform="translate(18 4)" id="Shape" fill="url(#gradient_2)" fill-rule="evenodd" stroke="none" />
      <path d="M0 4L0 3C0 1.343 1.343 0 3 0L29 0C30.657 0 32 1.343 32 3L32 4L0 4L0 4Z" transform="translate(8 7)" id="Shape" fill="#FFA8A8" fill-rule="evenodd" stroke="none" />
      <path d="M17.4148 13.1728L13.2628 9.01975L17.4537 4.82875C18.2347 4.04775 18.2347 2.78175 17.4537 2.00075L16.0397 0.58675C15.2587 -0.19425 13.9928 -0.19425 13.2117 0.58675L9.01975 4.77675L4.82875 0.585751C4.04775 -0.19525 2.78175 -0.19525 2.00075 0.585751L0.58675 1.99975C-0.19425 2.78075 -0.19425 4.04675 0.58675 4.82775L4.77775 9.01875L0.585751 13.2107C-0.19525 13.9917 -0.19525 15.2577 0.585751 16.0387L1.99975 17.4527C2.78075 18.2337 4.04675 18.2337 4.82775 17.4527L9.01975 13.2607L13.1728 17.4137C13.9538 18.1947 15.2198 18.1947 16.0007 17.4137L17.4148 15.9997C18.1957 15.2198 18.1957 13.9538 17.4148 13.1728L17.4148 13.1728Z" transform="translate(14.9802475 16.980255)" id="Shape" fill="#000000" fill-opacity="0.05" fill-rule="evenodd" stroke="none" />
      <path d="M16.5625 13.0255L12.0565 8.5195L16.6005 3.9755C17.1865 3.3895 17.1865 2.4395 16.6005 1.8545L15.1865 0.4405C14.6005 -0.1455 13.6505 -0.1455 13.0655 0.4405L8.5205 4.9835L3.9765 0.439501C3.3905 -0.1465 2.4405 -0.1465 1.8555 0.439501L0.4415 1.8535C-0.144501 2.4395 -0.144501 3.3895 0.4415 3.9745L4.9845 8.5195L0.439501 13.0645C-0.1465 13.6505 -0.1465 14.6005 0.439501 15.1855L1.8535 16.5995C2.4395 17.1855 3.3895 17.1855 3.9745 16.5995L8.5205 12.0555L13.0265 16.5615C13.6125 17.1475 14.5625 17.1475 15.1475 16.5615L16.5615 15.1475C17.1485 14.5615 17.1485 13.6115 16.5625 13.0255L16.5625 13.0255Z" transform="translate(15.4795 17.4805)" id="Shape" fill="#000000" fill-opacity="0.07" fill-rule="evenodd" stroke="none" />
      <path d="M10.8482 8.01925L15.7462 3.12125C16.1372 2.73125 16.1372 2.09825 15.7462 1.70725L14.3322 0.293251C13.9422 -0.0977497 13.3082 -0.0977497 12.9182 0.293251L8.02025 5.19125L3.12225 0.293251C2.73225 -0.0977497 2.09925 -0.0977497 1.70825 0.293251L0.294251 1.70725C-0.0967484 2.09725 -0.0967484 2.73025 0.294251 3.12125L5.19225 8.01925L0.29325 12.9182C-0.0977497 13.3082 -0.0977497 13.9412 0.29325 14.3322L1.70725 15.7463C2.09725 16.1372 2.73025 16.1372 3.12125 15.7463L8.02025 10.8472L12.8802 15.7072C13.2702 16.0982 13.9033 16.0982 14.2942 15.7072L15.7082 14.2932C16.0992 13.9032 16.0992 13.2692 15.7082 12.8792L10.8482 8.01925L10.8482 8.01925Z" transform="translate(15.979752 17.980743)" id="Shape" fill="#FFFFFF" fill-rule="evenodd" stroke="none" />
    </g>
  </g>
</svg>