<?xml version="1.0" encoding="utf-8"?>
<svg width="48px" height="48px" viewBox="0 0 48 48" version="1.1" xmlns:xlink="http://www.w3.org/1999/xlink" xmlns="http://www.w3.org/2000/svg">
	<defs>
		<radialGradient gradientUnits="objectBoundingBox" cx="-101.55341%" cy="-100.64411%" fx="-101.55341%" fy="-100.64411%" r="247.58769%" gradientTransform="translate(-1.0155342,-1.0064411),translate(1.0155342,1.0064411)" id="gradient_1">
			<stop offset="69.3%" stop-color="#006185" />
			<stop offset="92.09999%" stop-color="#35C1F1" />
		</radialGradient>
		<linearGradient x1="0.15346876" y1="0.15346861" x2="0.8543438" y2="0.8543439" id="gradient_2">
			<stop offset="0" stop-color="#A3FFFF" />
			<stop offset="0.223" stop-color="#9DFBFF" />
			<stop offset="0.53" stop-color="#8BF1FF" />
			<stop offset="0.885" stop-color="#6EE0FF" />
			<stop offset="1" stop-color="#63DAFF" />
		</linearGradient>
		<path d="M0 0L48 0L48 48L0 48L0 0Z" id="path_1" />
		<clipPath id="mask_1">
			<use xlink:href="#path_1" />
		</clipPath>
	</defs>
	<g id="icons8_clear_search">
		<path d="M0 0L48 0L48 48L0 48L0 0Z" id="Background" fill="none" fill-rule="evenodd" stroke="none" />
		<g clip-path="url(#mask_1)">
			<path d="M3.536 0L0 3.536L7.87 11.406C8.065 11.601 8.382 11.601 8.577 11.406L11.405 8.578C11.6 8.383 11.6 8.066 11.405 7.871L3.536 0L3.536 0Z" transform="translate(32.447002 32.448)" id="Shape" fill="#199BE2" fill-rule="evenodd" stroke="none" />
			<path d="M3.536 0L0 3.536L4.383 7.918L7.918 4.383L3.536 0Z" transform="translate(28.065 28.065)" id="Polygon" fill="url(#gradient_1)" fill-rule="evenodd" stroke="none" />
			<path d="M0 16C0 7.16344 7.16344 0 16 0C24.8366 0 32 7.16344 32 16C32 24.8366 24.8366 32 16 32C7.16344 32 0 24.8366 0 16Z" transform="translate(4 4)" id="Circle" fill="url(#gradient_2)" fill-rule="evenodd" stroke="none" />
			<path d="M15.8492 0.29325L17.2632 1.70725C17.6542 2.09825 17.6542 2.73125 17.2632 3.12125L3.12125 17.2633C2.73025 17.6543 2.09725 17.6543 1.70725 17.2633L0.29325 15.8492C-0.0977497 15.4583 -0.0977497 14.8253 0.29325 14.4353L14.4353 0.293251C14.8252 -0.0977507 15.4592 -0.0977507 15.8492 0.29325L15.8492 0.29325Z" transform="translate(11.221751 11.22175)" id="Shape" fill="#1B9DE2" fill-rule="evenodd" stroke="none" />
			<path d="M17.2633 15.8492L15.8493 17.2632C15.4583 17.6542 14.8252 17.6542 14.4353 17.2632L0.29325 3.12125C-0.0977497 2.73025 -0.0977497 2.09725 0.29325 1.70725L1.70725 0.29325C2.09825 -0.0977497 2.73125 -0.0977497 3.12125 0.29325L17.2633 14.4353C17.6542 14.8252 17.6542 15.4592 17.2633 15.8492L17.2633 15.8492Z" transform="translate(11.22175 11.221751)" id="Shape" fill="#1B9DE2" fill-rule="evenodd" stroke="none" />
		</g>
	</g>
</svg>