<?xml version="1.0" encoding="UTF-8"?>
<svg xmlns="http://www.w3.org/2000/svg" xmlns:xlink="http://www.w3.org/1999/xlink" width="48pt" height="48pt" viewBox="0 0 48 48" version="1.1">
<defs>
<linearGradient id="linear0" gradientUnits="userSpaceOnUse" x1="24" y1="6.708" x2="24" y2="14.977" >
<stop offset="0" style="stop-color:rgb(92.156863%,65.098039%,0%);stop-opacity:1;"/>
<stop offset="1" style="stop-color:rgb(76.078431%,50.980392%,0%);stop-opacity:1;"/>
</linearGradient>
<linearGradient id="linear1" gradientUnits="userSpaceOnUse" x1="24" y1="10.854" x2="24" y2="40.983" >
<stop offset="0" style="stop-color:rgb(100%,84.705882%,41.176471%);stop-opacity:1;"/>
<stop offset="1" style="stop-color:rgb(99.607843%,77.254902%,16.862745%);stop-opacity:1;"/>
</linearGradient>
<linearGradient id="linear2" gradientUnits="userSpaceOnUse" x1="33.5" y1="25.944" x2="33.5" y2="37.581" >
<stop offset="0" style="stop-color:rgb(29.411765%,29.411765%,29.411765%);stop-opacity:1;"/>
<stop offset="1" style="stop-color:rgb(23.137255%,23.137255%,23.137255%);stop-opacity:1;"/>
</linearGradient>
</defs>
<g id="surface26766">
<path style=" stroke:none;fill-rule:nonzero;fill:url(#linear0);" d="M 24.414062 10.414062 L 21.878906 7.878906 C 21.316406 7.316406 20.554688 7 19.757812 7 L 5 7 C 3.894531 7 3 7.894531 3 9 L 3 39 C 3 40.105469 3.894531 41 5 41 L 43 41 C 44.105469 41 45 40.105469 45 39 L 45 13 C 45 11.894531 44.105469 11 43 11 L 25.828125 11 C 25.296875 11 24.789062 10.789062 24.414062 10.414062 Z M 24.414062 10.414062 "/>
<path style=" stroke:none;fill-rule:nonzero;fill:url(#linear1);" d="M 21.585938 14.414062 L 24.855469 11.144531 C 24.945312 11.054688 25.074219 11 25.207031 11 L 43 11 C 44.105469 11 45 11.894531 45 13 L 45 39 C 45 40.105469 44.105469 41 43 41 L 5 41 C 3.894531 41 3 40.105469 3 39 L 3 15.5 C 3 15.222656 3.222656 15 3.5 15 L 20.171875 15 C 20.703125 15 21.210938 14.789062 21.585938 14.414062 Z M 21.585938 14.414062 "/>
<path style=" stroke:none;fill-rule:nonzero;fill:rgb(76.078431%,50.980392%,0%);fill-opacity:1;" d="M 36 11.5 L 36 12.5 C 36 12.777344 35.777344 13 35.5 13 L 34 13 C 33.449219 13 33 12.550781 33 12 C 33 11.449219 33.449219 11 34 11 L 35.5 11 C 35.777344 11 36 11.222656 36 11.5 Z M 34 14 C 34 13.449219 33.550781 13 33 13 L 31.5 13 C 31.222656 13 31 13.222656 31 13.5 L 31 14.5 C 31 14.777344 31.222656 15 31.5 15 L 33 15 C 33.550781 15 34 14.550781 34 14 Z M 33 16 C 33 16.550781 33.449219 17 34 17 L 35.5 17 C 35.777344 17 36 16.777344 36 16.5 L 36 15.5 C 36 15.222656 35.777344 15 35.5 15 L 34 15 C 33.449219 15 33 15.449219 33 16 Z M 34 18 C 34 17.449219 33.550781 17 33 17 L 31.5 17 C 31.222656 17 31 17.222656 31 17.5 L 31 18.5 C 31 18.777344 31.222656 19 31.5 19 L 33 19 C 33.550781 19 34 18.550781 34 18 Z M 33 20 C 33 20.550781 33.449219 21 34 21 L 35.5 21 C 35.777344 21 36 20.777344 36 20.5 L 36 19.5 C 36 19.222656 35.777344 19 35.5 19 L 34 19 C 33.449219 19 33 19.449219 33 20 Z M 33 24 C 33 24.550781 33.449219 25 34 25 L 35.5 25 C 35.777344 25 36 24.777344 36 24.5 L 36 23.5 C 36 23.222656 35.777344 23 35.5 23 L 34 23 C 33.449219 23 33 23.449219 33 24 Z M 34 22 C 34 21.449219 33.550781 21 33 21 L 31.5 21 C 31.222656 21 31 21.222656 31 21.5 L 31 22.5 C 31 22.777344 31.222656 23 31.5 23 L 33 23 C 33.550781 23 34 22.550781 34 22 Z M 34 22 "/>
<path style=" stroke:none;fill-rule:nonzero;fill:url(#linear2);" d="M 36.128906 26.847656 C 36.054688 26.359375 35.636719 26 35.140625 26 L 31.859375 26 C 31.363281 26 30.945312 26.359375 30.871094 26.847656 C 30.601562 28.648438 30 32.761719 30 33.5 C 30 35.433594 31.566406 37 33.5 37 C 35.433594 37 37 35.433594 37 33.5 C 37 32.761719 36.398438 28.648438 36.128906 26.847656 Z M 33.5 35 C 32.671875 35 32 34.328125 32 33.5 C 32 32.671875 32.671875 32 33.5 32 C 34.328125 32 35 32.671875 35 33.5 C 35 34.328125 34.328125 35 33.5 35 Z M 33.5 35 "/>
</g>
</svg>
