<?xml version="1.0" encoding="utf-8"?>
<svg width="48px" height="48px" viewBox="0 0 48 48" version="1.1" xmlns:xlink="http://www.w3.org/1999/xlink" xmlns="http://www.w3.org/2000/svg">
	<defs>
		<linearGradient x1="0.92851996" y1="0.9573999" x2="-0.11524004" y2="-0.078400016" id="gradient_1">
			<stop offset="0" stop-color="#3079D6" />
			<stop offset="1" stop-color="#297CD2" />
		</linearGradient>
		<radialGradient gradientUnits="objectBoundingBox" cx="64.89444%" cy="83.735725%" fx="64.89444%" fy="83.735725%" r="81.61428%" gradientTransform="translate(0.6489444,0.8373573),scale(0.7777778,1),translate(-0.6489444,-0.8373573)" id="gradient_2">
			<stop offset="0%" stop-color="#000000" />
			<stop offset="97.899994%" stop-color="#000000" stop-opacity="0" />
		</radialGradient>
		<linearGradient x1="0" y1="0.5" x2="1.0000001" y2="0.5" id="gradient_3">
			<stop offset="0" stop-color="#21AD64" />
			<stop offset="1" stop-color="#088242" />
		</linearGradient>
		<path d="M0 0L48 0L48 48L0 48L0 0Z" id="path_1" />
		<clipPath id="mask_1">
			<use xlink:href="#path_1" />
		</clipPath>
	</defs>
	<g id="icons8_add_tab">
		<path d="M0 0L48 0L48 48L0 48L0 0Z" id="Background" fill="none" fill-rule="evenodd" stroke="none" />
		<g clip-path="url(#mask_1)">
			<path d="M25 2L25 10L0 10L0 0L23 0C24.1 0 25 0.9 25 2L25 2Z" transform="translate(19 8)" id="Shape" fill="url(#gradient_1)" fill-rule="evenodd" stroke="none" />
			<path d="M18.161 7C17.443 7 16.781 6.615 16.425 5.992L13.577 1.007C13.22 0.385 12.557 0 11.839 0L0 0L0 7L18.161 7L18.161 7Z" transform="translate(20 8)" id="Shape" fill="#35C1F1" fill-rule="evenodd" stroke="none" />
			<path d="M20.424 5.992L17.576 1.007C17.22 0.385 16.557 0 15.839 0L2 0C0.895 0 0 0.895 0 2L0 30C0 31.1 0.9 32 2 32L38 32C39.1 32 40 31.1 40 30L40 9C40 7.895 39.105 7 38 7L22.161 7C21.443 7 20.78 6.615 20.424 5.992L20.424 5.992Z" transform="translate(4 8)" id="Shape" fill="#50E6FF" fill-rule="evenodd" stroke="none" />
			<path d="M12 0C5.383 0 0 5.383 0 12C0 12.681 0.0580006 13.349 0.167999 14L16 14C17.1 14 18 13.1 18 12L18 1.611C16.234 0.587 14.184 0 12 0L12 0Z" transform="translate(26 26)" id="Shape" fill="url(#gradient_2)" fill-rule="evenodd" stroke="none" />
			<path d="M0 10C0 4.47715 4.47715 0 10 0C15.5228 0 20 4.47715 20 10C20 15.5228 15.5228 20 10 20C4.47715 20 0 15.5228 0 10Z" transform="translate(28 28)" id="Circle" fill="url(#gradient_3)" fill-rule="evenodd" stroke="none" />
			<path d="M1.5 10L0.5 10C0.223999 10 0 9.776 0 9.5L0 0.5C0 0.223999 0.223999 0 0.5 0L1.5 0C1.776 0 2 0.223999 2 0.5L2 9.5C2 9.776 1.776 10 1.5 10L1.5 10Z" transform="translate(37 33)" id="Shape" fill="#FFFFFF" fill-rule="evenodd" stroke="none" />
			<path d="M0 1.5L0 0.5C0 0.223999 0.223999 0 0.5 0L9.5 0C9.776 0 10 0.223999 10 0.5L10 1.5C10 1.776 9.776 2 9.5 2L0.5 2C0.223999 2 0 1.776 0 1.5L0 1.5Z" transform="translate(33 37)" id="Shape" fill="#FFFFFF" fill-rule="evenodd" stroke="none" />
		</g>
	</g>
</svg>