<?xml version="1.0" encoding="utf-8"?>
<svg width="48px" height="48px" viewBox="0 0 48 48" version="1.1" xmlns:xlink="http://www.w3.org/1999/xlink" xmlns="http://www.w3.org/2000/svg">
	<defs>
		<linearGradient x1="0.048090935" y1="0.95199966" x2="0.5090909" y2="0.49090958" id="gradient_1">
			<stop offset="0" stop-color="#3079D6" />
			<stop offset="1" stop-color="#297CD2" />
		</linearGradient>
		<radialGradient gradientUnits="objectBoundingBox" cx="-112.654205%" cy="-106.81763%" fx="-112.654205%" fy="-106.81763%" r="247.5976%" gradientTransform="translate(-1.1265421,-1.0681763),translate(1.1265421,1.0681763)" id="gradient_2">
			<stop offset="69.3%" stop-color="#006185" />
			<stop offset="92.09999%" stop-color="#35C1F1" />
		</radialGradient>
		<linearGradient x1="0.11507118" y1="0.115053535" x2="1.2027185" y2="1.2025341" id="gradient_3">
			<stop offset="0" stop-color="#A3FFFF" />
			<stop offset="0.223" stop-color="#9DFBFF" />
			<stop offset="0.53" stop-color="#8BF1FF" />
			<stop offset="0.885" stop-color="#6EE0FF" />
			<stop offset="1" stop-color="#63DAFF" />
		</linearGradient>
		<linearGradient x1="-0.31725287" y1="0.50000095" x2="0.9287269" y2="0.50000095" id="gradient_4">
			<stop offset="0" stop-color="#3B8FBF" />
			<stop offset="1" stop-color="#057093" />
		</linearGradient>
		<linearGradient x1="-0.33514464" y1="0.5" x2="0.9277587" y2="0.5" id="gradient_5">
			<stop offset="0" stop-color="#3B8FBF" />
			<stop offset="1" stop-color="#057093" />
		</linearGradient>
		<path d="M0 0L48 0L48 48L0 48L0 0Z" id="path_1" />
		<clipPath id="mask_1">
			<use xlink:href="#path_1" />
		</clipPath>
	</defs>
	<g id="icons8_analyze">
		<path d="M0 0L48 0L48 48L0 48L0 0Z" id="Background" fill="none" fill-rule="evenodd" stroke="none" />
		<g clip-path="url(#mask_1)">
			<path d="M30 11L30 36C29.9968 37.1032 29.1033 37.9967 28 38L2 38C0.896778 37.9968 0.00324631 37.1032 0 36L0 2C0 1.46898 0.210805 0.960249 0.58601 0.585246C0.961216 0.210244 1.47006 -0.000286579 2.00054 0L19 0L30 11Z" transform="translate(9 5)" id="Shape" fill="#50E6FF" fill-rule="evenodd" stroke="none" />
			<path d="M0 0L0 9C0 9.53103 0.210808 10.0398 0.586016 10.4148C0.961224 10.7898 1.47007 11.0003 2.00055 11L11 11L0 0Z" transform="translate(28 5)" id="Shape" fill="url(#gradient_1)" fill-rule="evenodd" stroke="none" />
			<path d="M1.77522 0L0 1.77522L5.78861 7.56381C5.83569 7.61105 5.89964 7.63761 5.96633 7.63761C6.03302 7.63761 6.09697 7.61105 6.14405 7.56381L7.56382 6.14404C7.61106 6.09697 7.63761 6.03302 7.63761 5.96632C7.63761 5.89963 7.61106 5.83568 7.56382 5.7886L1.77522 0Z" transform="translate(39.362392 36.36239)" id="Shape" fill="#199BE2" fill-rule="evenodd" stroke="none" />
			<path d="M0.5 0L20 0L20 2L0.5 2C0.223858 2 0 1.77614 0 1.5L0 0.5C0 0.223858 0.223858 0 0.5 0L0.5 0Z" transform="translate(13 21)" id="Shape" fill="#057093" fill-rule="evenodd" stroke="none" />
			<path d="M0 1L0 0.5C0 0.361929 0.0488155 0.244078 0.146447 0.146447C0.244078 0.0488155 0.361929 0 0.5 0L21.5 0C21.6381 0 21.7559 0.0488155 21.8536 0.146447C21.9512 0.244078 22 0.361929 22 0.5L22 1.5C22 1.63807 21.9512 1.75592 21.8536 1.85355C21.7559 1.95118 21.6381 2 21.5 2L0.5 2C0.361929 2 0.244078 1.95118 0.146447 1.85355C0.0488155 1.75592 0 1.63807 0 1.5L0 1Z" transform="translate(13 26)" id="Rectangle" fill="#057093" fill-rule="evenodd" stroke="none" />
			<path d="M0 1L0 0.5C0 0.361929 0.0488155 0.244078 0.146447 0.146447C0.244078 0.0488155 0.361929 0 0.5 0L21.5 0C21.6381 0 21.7559 0.0488155 21.8536 0.146447C21.9512 0.244078 22 0.361929 22 0.5L22 1.5C22 1.63807 21.9512 1.75592 21.8536 1.85355C21.7559 1.95118 21.6381 2 21.5 2L0.5 2C0.361929 2 0.244078 1.95118 0.146447 1.85355C0.0488155 1.75592 0 1.63807 0 1.5L0 1Z" transform="translate(13 31)" id="Rectangle" fill="#057093" fill-rule="evenodd" stroke="none" />
			<path d="M1.774 0L0 1.774L2.2 3.975L3.975 2.2L1.774 0L1.774 0Z" transform="translate(38 35)" id="Polygon" fill="url(#gradient_2)" fill-rule="evenodd" stroke="none" />
			<path d="M8.9995 0C13.4382 0.00110245 17.2132 3.23829 17.8912 7.62489C18.5691 12.0115 15.9476 16.2373 11.7164 17.5784C7.48512 18.9195 2.90797 16.9753 0.935343 12.999C0.774961 12.6763 1.43111 12.1738 1.30978 11.8305C1.19478 11.5053 0.300322 11.3402 0.222921 10.999C-0.0743809 9.68224 -0.0743046 8.31575 0.223139 6.99901C0.30059 6.65783 1.21114 6.46555 1.32609 6.14031C1.44861 5.79379 0.77809 5.31548 0.94035 4.98992C2.46215 1.93203 5.58387 -0.000818253 8.99951 0L8.9995 0Z" transform="translate(23.999998 21.001)" id="Shape" fill="url(#gradient_3)" fill-rule="evenodd" stroke="none" />
			<path d="M0 1L0 0.5C0 0.361929 0.0488155 0.244078 0.146447 0.146447C0.244078 0.0488155 0.361929 0 0.5 0L10.516 0C10.6541 0 10.7719 0.0488155 10.8696 0.146447C10.9672 0.244078 11.016 0.361929 11.016 0.5L11.016 1.5C11.016 1.63807 10.9672 1.75592 10.8696 1.85355C10.7719 1.95118 10.6541 2 10.516 2L0.5 2C0.361929 2 0.244078 1.95118 0.146447 1.85355C0.0488155 1.75592 0 1.63807 0 1.5L0 1Z" transform="translate(12.984 16)" id="Rectangle" fill="#057093" fill-rule="evenodd" stroke="none" />
			<path d="M0 1L0 0.5C0 0.361929 0.0488155 0.244078 0.146447 0.146447C0.244078 0.0488155 0.361929 0 0.5 0L10.516 0C10.6541 0 10.7719 0.0488155 10.8696 0.146447C10.9672 0.244078 11.016 0.361929 11.016 0.5L11.016 1.5C11.016 1.63807 10.9672 1.75592 10.8696 1.85355C10.7719 1.95118 10.6541 2 10.516 2L0.5 2C0.361929 2 0.244078 1.95118 0.146447 1.85355C0.0488155 1.75592 0 1.63807 0 1.5L0 1Z" transform="translate(12.984 11)" id="Rectangle" fill="#057093" fill-rule="evenodd" stroke="none" />
			<path d="M10 3.8147e-06C4.47716 3.8147e-06 1.33514e-05 4.47714 0 9.99998C-1.52588e-05 15.5228 4.47711 20 9.99995 20C11.8718 20.0053 13.7065 19.4781 15.29 18.48L16 19.19L16 17.77L15.41 17.18C11.6226 20.0368 6.26777 19.4621 3.17295 15.8665C0.0781288 12.271 0.306837 6.89026 3.6956 3.57031C7.08436 0.250355 12.4687 0.132057 16 3.29997L16 2.01C14.2725 0.703926 12.1656 -0.001894 10 3.8147e-06L10 3.8147e-06Z" transform="translate(23 19.999996)" id="Shape" fill="#000000" fill-opacity="0.05" fill-rule="evenodd" stroke="none" />
			<path d="M9.51967 0.506849C11.7353 0.504858 13.8731 1.32432 15.5197 2.80685L15.5197 2.14685C11.7273 -0.954535 6.19876 -0.664833 2.7513 2.81593C-0.696154 6.29669 -0.932693 11.8278 2.205 15.5901C5.3427 19.3525 10.8263 20.1132 14.8696 17.3469L15.5197 17.9969L15.5197 17.2768L14.9297 16.6868C11.8015 19.0443 7.50734 19.1066 4.31207 16.8408C1.1168 14.5751 -0.245049 10.5022 0.944775 6.77016C2.1346 3.03817 5.60256 0.505075 9.51963 0.506849L9.51967 0.506849Z" transform="translate(23.480331 20.49315)" id="Shape" fill="#000000" fill-opacity="0.07" fill-rule="evenodd" stroke="none" />
			<path d="M11.94 0.500006L11.94 2.50001C11.94 2.77615 11.7161 3.00001 11.44 3.00001L0 3.00001C0.109484 1.95501 0.407644 0.938549 0.880003 0L11.44 5.72205e-06C11.7161 5.72205e-06 11.94 0.223864 11.94 0.500006L11.94 0.500006Z" transform="translate(24.06 25.999994)" id="Shape" fill="url(#gradient_4)" fill-rule="evenodd" stroke="none" />
			<path d="M11.78 0.5L11.78 2.5C11.78 2.77614 11.5561 3 11.28 3L1.3 3C0.688244 2.08715 0.247734 1.07059 0 3.8147e-06L11.28 0C11.5561 0 11.78 0.223858 11.78 0.5L11.78 0.5Z" transform="translate(24.220003 32)" id="Shape" fill="url(#gradient_5)" fill-rule="evenodd" stroke="none" />
		</g>
	</g>
</svg>