<?xml version="1.0" encoding="utf-8"?>
<svg width="48px" height="48px" viewBox="0 0 48 48" version="1.1" xmlns:xlink="http://www.w3.org/1999/xlink" xmlns="http://www.w3.org/2000/svg">
  <defs>
    <linearGradient gradientUnits="userSpaceOnUse" x1="0.5290003" y1="10.471996" x2="5.6" y2="5.4000053" id="gradient_1">
      <stop offset="0%" stop-color="#3079D6" />
      <stop offset="100%" stop-color="#297CD2" />
    </linearGradient>
    <radialGradient gradientUnits="objectBoundingBox" cx="-112.654205%" cy="-106.81763%" fx="-112.654205%" fy="-106.81763%" r="107961.98%" gradientTransform="translate(-1.1265421,-1.0681763),rotate(93.83326),scale(1,0.9957422),translate(1.1265421,1.0681763)" id="gradient_2">
      <stop offset="69.3%" stop-color="#006185" />
      <stop offset="92.09999%" stop-color="#35C1F1" />
    </radialGradient>
    <linearGradient gradientUnits="userSpaceOnUse" x1="2.0710006" y1="2.0710006" x2="21.645998" y2="21.645998" id="gradient_3">
      <stop offset="0%" stop-color="#A3FFFF" />
      <stop offset="22.300001%" stop-color="#9DFBFF" />
      <stop offset="52.999996%" stop-color="#8BF1FF" />
      <stop offset="88.5%" stop-color="#6EE0FF" />
      <stop offset="100%" stop-color="#63DAFF" />
    </linearGradient>
    <linearGradient gradientUnits="userSpaceOnUse" x1="-3.7879994" y1="1.5000057" x2="11.089" y2="1.5000057" id="gradient_4">
      <stop offset="0%" stop-color="#3B8FBF" />
      <stop offset="100%" stop-color="#057093" />
    </linearGradient>
    <linearGradient gradientUnits="userSpaceOnUse" x1="-3.9480028" y1="1.5" x2="10.928994" y2="1.5" id="gradient_5">
      <stop offset="0%" stop-color="#3B8FBF" />
      <stop offset="100%" stop-color="#057093" />
    </linearGradient>
    <path d="M0 0L48 0L48 48L0 48L0 0Z" id="path_1" />
    <clipPath id="mask_1">
      <use xlink:href="#path_1" />
    </clipPath>
  </defs>
  <g id="Analyze-Icon">
    <path d="M0 0L48 0L48 48L0 48L0 0Z" id="Background" fill="#FFFFFF" fill-opacity="0" fill-rule="evenodd" stroke="none" />
    <path d="M39 16L39 41C38.9968 42.1032 38.1032 42.9967 37 43L11 43C9.89678 42.9968 9.00325 42.1032 9 41L9 7C9 6.46898 9.2108 5.96025 9.58601 5.58525C9.96122 5.21024 10.4701 4.99971 11.0005 5L28 5L39 16Z" id="Shape" fill="#50E6FF" stroke="none" />
    <path d="M28 5L28 14C28 14.531 28.2108 15.0398 28.586 15.4148C28.9612 15.7898 29.4701 16.0003 30.0005 16L39 16L28 5Z" id="Shape" fill="url(#gradient_1)" stroke="none" />
    <path d="M41.1376 36.3624L39.3624 38.1376L45.151 43.9262C45.1981 43.9734 45.262 44 45.3287 44C45.3954 44 45.4594 43.9734 45.5064 43.9262L46.9262 42.5064C46.9734 42.4594 47 42.3954 47 42.3287C47 42.262 46.9734 42.1981 46.9262 42.151L41.1376 36.3624Z" id="Shape" fill="#199BE2" stroke="none" />
    <path d="M13.5 21L33 21L33 23L13.5 23C13.2239 23 13 22.7761 13 22.5L13 21.5C13 21.2239 13.2239 21 13.5 21L13.5 21Z" id="Shape" fill="#057093" stroke="none" />
    <path d="M13 27L13 26.5C13 26.3619 13.0488 26.2441 13.1464 26.1464C13.2441 26.0488 13.3619 26 13.5 26L34.5 26C34.6381 26 34.7559 26.0488 34.8536 26.1464C34.9512 26.2441 35 26.3619 35 26.5L35 27.5C35 27.6381 34.9512 27.7559 34.8536 27.8536C34.7559 27.9512 34.6381 28 34.5 28L13.5 28C13.3619 28 13.2441 27.9512 13.1464 27.8536C13.0488 27.7559 13 27.6381 13 27.5L13 27Z" id="Rectangle" fill="#057093" fill-rule="evenodd" stroke="none" />
    <path d="M13 32L13 31.5C13 31.3619 13.0488 31.2441 13.1464 31.1464C13.2441 31.0488 13.3619 31 13.5 31L34.5 31C34.6381 31 34.7559 31.0488 34.8536 31.1464C34.9512 31.2441 35 31.3619 35 31.5L35 32.5C35 32.6381 34.9512 32.7559 34.8536 32.8536C34.7559 32.9512 34.6381 33 34.5 33L13.5 33C13.3619 33 13.2441 32.9512 13.1464 32.8536C13.0488 32.7559 13 32.6381 13 32.5L13 32Z" id="Rectangle" fill="#057093" fill-rule="evenodd" stroke="none" />
    <path d="M39.774 35L38 36.774L40.2 38.975L41.975 37.2L39.774 35L39.774 35Z" id="Polygon" fill="url(#gradient_2)" fill-rule="evenodd" stroke="none" />
    <path d="M32.9995 21.001C37.4382 21.0021 41.2132 24.2393 41.8912 28.6259C42.5691 33.0125 39.9476 37.2383 35.7164 38.5794C31.4851 39.9205 26.908 37.9763 24.9353 34C24.775 33.6773 25.4311 33.1748 25.3098 32.8315C25.1948 32.5063 24.3003 32.3412 24.2229 32C23.9256 30.6832 23.9257 29.3167 24.2231 28C24.3006 27.6588 25.2111 27.4666 25.3261 27.1413C25.4486 26.7948 24.7781 26.3165 24.9403 25.9909C26.4622 22.933 29.5839 21.0002 32.9995 21.001L32.9995 21.001Z" id="Shape" fill="url(#gradient_3)" stroke="none" />
    <path d="M12.984 17L12.984 16.5C12.984 16.3619 13.0328 16.2441 13.1304 16.1464C13.2281 16.0488 13.3459 16 13.484 16L23.5 16C23.6381 16 23.7559 16.0488 23.8536 16.1464C23.9512 16.2441 24 16.3619 24 16.5L24 17.5C24 17.6381 23.9512 17.7559 23.8536 17.8536C23.7559 17.9512 23.6381 18 23.5 18L13.484 18C13.3459 18 13.2281 17.9512 13.1304 17.8536C13.0328 17.7559 12.984 17.6381 12.984 17.5L12.984 17Z" id="Rectangle" fill="#057093" fill-rule="evenodd" stroke="none" />
    <path d="M12.984 12L12.984 11.5C12.984 11.3619 13.0328 11.2441 13.1304 11.1464C13.2281 11.0488 13.3459 11 13.484 11L23.5 11C23.6381 11 23.7559 11.0488 23.8536 11.1464C23.9512 11.2441 24 11.3619 24 11.5L24 12.5C24 12.6381 23.9512 12.7559 23.8536 12.8536C23.7559 12.9512 23.6381 13 23.5 13L13.484 13C13.3459 13 13.2281 12.9512 13.1304 12.8536C13.0328 12.7559 12.984 12.6381 12.984 12.5L12.984 12Z" id="Rectangle" fill="#057093" fill-rule="evenodd" stroke="none" />
    <path d="M33 20C27.4772 20 23 24.4771 23 30C23 35.5228 27.4771 40 33 40C34.8718 40.0053 36.7065 39.4781 38.29 38.48L39 39.19L39 37.77L38.41 37.18C34.6226 40.0368 29.2678 39.4621 26.1729 35.8665C23.0781 32.271 23.3068 26.8903 26.6956 23.5703C30.0844 20.2504 35.4687 20.1321 39 23.3L39 22.01C37.2725 20.7039 35.1656 19.9981 33 20L33 20Z" id="Shape" fill="#000000" fill-opacity="0.05" stroke="none" />
    <path d="M33 21C35.2157 20.998 37.3534 21.8175 39 23.3L39 22.64C35.2076 19.5386 29.6791 19.8283 26.2316 23.3091C22.7842 26.7898 22.5476 32.3209 25.6853 36.0833C28.823 39.8457 34.3067 40.6063 38.35 37.84L39 38.49L39 37.77L38.41 37.18C35.2818 39.5375 30.9877 39.5998 27.7924 37.334C24.5971 35.0682 23.2353 30.9953 24.4251 27.2633C25.6149 23.5313 29.0829 20.9982 33 21L33 21Z" id="Shape" fill="#000000" fill-opacity="0.07" stroke="none" />
    <path d="M36 26.5L36 28.5C36 28.7761 35.7761 29 35.5 29L24.06 29C24.1695 27.955 24.4676 26.9385 24.94 26L35.5 26C35.7761 26 36 26.2239 36 26.5L36 26.5Z" id="Shape" fill="url(#gradient_4)" stroke="none" />
    <path d="M36 32.5L36 34.5C36 34.7761 35.7761 35 35.5 35L25.52 35C24.9082 34.0872 24.4677 33.0706 24.22 32L35.5 32C35.7761 32 36 32.2239 36 32.5L36 32.5Z" id="Shape" fill="url(#gradient_5)" stroke="none" />
  </g>
</svg>