<?xml version="1.0" encoding="utf-8"?>
<svg width="48px" height="48px" viewBox="0 0 48 48" version="1.1" xmlns:xlink="http://www.w3.org/1999/xlink" xmlns="http://www.w3.org/2000/svg">
	<defs>
		<linearGradient x1="0.14645001" y1="0.14644995" x2="0.85355" y2="0.85354996" id="gradient_1">
			<stop offset="0" stop-color="#33BEF0" />
			<stop offset="1" stop-color="#0A85D9" />
		</linearGradient>
		<radialGradient gradientUnits="objectBoundingBox" cx="49.989964%" cy="49.99447%" fx="49.989964%" fy="49.99447%" r="55.255295%" gradientTransform="translate(0.49989963,0.4999447),scale(0.9049649,1),scale(1,0.90496916),translate(-0.49989963,-0.4999447)" id="gradient_2">
			<stop offset="51.6%" stop-color="#000000" />
			<stop offset="100%" stop-color="#000000" stop-opacity="0" />
		</radialGradient>
		<path d="M0 0L48 0L48 48L0 48L0 0Z" id="path_1" />
		<clipPath id="mask_1">
			<use xlink:href="#path_1" />
		</clipPath>
	</defs>
	<g id="icons8_info">
		<path d="M0 0L48 0L48 48L0 48L0 0Z" id="Background" fill="none" fill-rule="evenodd" stroke="none" />
		<g clip-path="url(#mask_1)">
			<path d="M40 20C40 31.045 31.045 40 20 40C8.955 40 0 31.045 0 20C0 8.955 8.955 0 20 0C31.045 0 40 8.955 40 20L40 20Z" transform="translate(4.0410004 4.1220016)" id="Shape" fill="url(#gradient_1)" fill-rule="evenodd" stroke="none" />
			<path d="M1 17L5 17C5.552 17 6 16.552 6 16L6 1C6 0.448 5.552 0 5 0L1 0C0.448 0 0 0.448 0 1L0 16C0 16.552 0.448 17 1 17L1 17Z" transform="translate(21 19)" id="Shape" fill="#000000" fill-opacity="0.05" fill-rule="evenodd" stroke="none" />
			<path d="M0.727001 16L4.274 16C4.675 16 5.001 15.675 5.001 15.273L5.001 0.726999C5.001 0.326 4.676 0 4.274 0L0.726999 0C0.326 0 0 0.325001 0 0.726999L0 15.274C1.90735e-06 15.675 0.325003 16 0.727001 16L0.727001 16Z" transform="translate(21.499998 19.5)" id="Shape" fill="#000000" fill-opacity="0.07" fill-rule="evenodd" stroke="none" />
			<path d="M0 3.609C0 1.6158 1.78549 0 3.988 0C6.19051 0 7.976 1.6158 7.976 3.609C7.976 5.6022 6.19051 7.218 3.988 7.218C1.78549 7.218 0 5.6022 0 3.609Z" transform="translate(20.012001 11.793)" id="Ellipse" fill="url(#gradient_2)" fill-opacity="0.15" fill-rule="evenodd" stroke="none" />
			<path d="M2.65 4.732C4.35 4.732 5.3 3.664 5.3 2.344C5.3 1.024 4.297 0 2.65 0C1.003 0 0 1.024 0 2.344C0 3.664 0.949999 4.732 2.65 4.732L2.65 4.732Z" transform="translate(21.35 13)" id="Shape" fill="#FFFFFF" fill-rule="evenodd" stroke="none" />
			<path d="M0 0L4 0L4 15L0 15L0 0Z" transform="translate(22 20)" id="Rectangle" fill="#FFFFFF" fill-rule="evenodd" stroke="none" />
		</g>
	</g>
</svg>