<?xml version="1.0" encoding="utf-8"?>
<svg width="48px" height="48px" viewBox="0 0 48 48" version="1.1" xmlns:xlink="http://www.w3.org/1999/xlink" xmlns="http://www.w3.org/2000/svg">
  <defs>
    <linearGradient gradientUnits="objectBoundingBox" x1="0.49999994" y1="1.2142859" x2="0.49999994" y2="0.2677145" id="gradient_1">
      <stop offset="0%" stop-color="#737B80" />
      <stop offset="100%" stop-color="#575C61" />
    </linearGradient>
    <linearGradient gradientUnits="objectBoundingBox" x1="0.5" y1="0.84900045" x2="0.5" y2="0.45816708" id="gradient_2">
      <stop offset="0%" stop-color="#FFD869" />
      <stop offset="100%" stop-color="#FEC52B" />
    </linearGradient>
    <linearGradient gradientUnits="objectBoundingBox" x1="0.5" y1="0.027750015" x2="0.5" y2="1.0625" id="gradient_3">
      <stop offset="0%" stop-color="#C3CDD9" />
      <stop offset="100%" stop-color="#9FA7B0" />
    </linearGradient>
    <linearGradient gradientUnits="objectBoundingBox" x1="0.5000113" y1="0.016038448" x2="0.5000113" y2="0.99742305" id="gradient_4">
      <stop offset="0%" stop-color="#737B80" />
      <stop offset="100%" stop-color="#575C61" />
    </linearGradient>
    <linearGradient gradientUnits="objectBoundingBox" x1="0.5" y1="-0.010499954" x2="0.5" y2="1.0129995" id="gradient_5">
      <stop offset="0%" stop-color="#75FF8A" />
      <stop offset="100%" stop-color="#1EE446" />
    </linearGradient>
    <path d="M48 0L48 0L48 48L0 48L0 0L48 0Z" id="path_1" />
    <clipPath id="clip_1">
      <use xlink:href="#path_1" />
    </clipPath>
  </defs>
  <g id="SSD" clip-path="url(#clip_1)">
    <path d="M48 0L48 0L48 48L0 48L0 0L48 0Z" id="SSD" fill="none" stroke="none" />
    <path d="M14 34L39 34L39 41L14 41L14 34Z" id="Rectangle" fill="url(#gradient_1)" fill-rule="evenodd" stroke="none" />
    <path d="M18.5 39L17.5 39C17.224 39 17 38.776 17 38.5L17 33.5C17 33.224 17.224 33 17.5 33L18.5 33C18.776 33 19 33.224 19 33.5L19 38.5C19 38.776 18.776 39 18.5 39L18.5 39Z" id="Shape" fill="url(#gradient_2)" stroke="none" />
    <path d="M22.5 39L21.5 39C21.224 39 21 38.776 21 38.5L21 33.5C21 33.224 21.224 33 21.5 33L22.5 33C22.776 33 23 33.224 23 33.5L23 38.5C23 38.776 22.776 39 22.5 39L22.5 39Z" id="Shape" fill="url(#gradient_2)" stroke="none" />
    <path d="M27.5 39L26.5 39C26.224 39 26 38.776 26 38.5L26 33.5C26 33.224 26.224 33 26.5 33L27.5 33C27.776 33 28 33.224 28 33.5L28 38.5C28 38.776 27.776 39 27.5 39L27.5 39Z" id="Shape" fill="url(#gradient_2)" stroke="none" />
    <path d="M31.5 39L30.5 39C30.224 39 30 38.776 30 38.5L30 33.5C30 33.224 30.224 33 30.5 33L31.5 33C31.776 33 32 33.224 32 33.5L32 38.5C32 38.776 31.776 39 31.5 39L31.5 39Z" id="Shape" fill="url(#gradient_2)" stroke="none" />
    <path d="M35.5 39L34.5 39C34.224 39 34 38.776 34 38.5L34 33.5C34 33.224 34.224 33 34.5 33L35.5 33C35.776 33 36 33.224 36 33.5L36 38.5C36 38.776 35.776 39 35.5 39L35.5 39Z" id="Shape" fill="url(#gradient_2)" stroke="none" />
    <path d="M42 30L42 40C42 41.1 41.1 42 40 42L38.75 42C38.31 42 37.92 41.7 37.79 41.27L37.71 41L36.41 36.45C36.17 35.59 35.38 35 34.49 35L18.51 35C17.62 35 16.83 35.59 16.59 36.45L15.29 41L15.21 41.27C15.08 41.7 14.69 42 14.25 42L8 42C6.9 42 6 41.1 6 40L6 30L42 30L42 30Z" id="Shape" fill="url(#gradient_3)" stroke="none" />
    <g id="Group" transform="translate(6 30)">
      <path d="M36 0L36 10C36 11.1 35.1 12 34 12L32.75 12C32.31 12 31.92 11.7 31.79 11.27L31.71 11L30.67 11L29.45 6.73C29.33 6.3 28.94 6 28.49 6L12.51 6C12.06 6 11.67 6.3 11.55 6.73L10.33 11L9.29 11L9.21 11.27C9.08 11.7 8.69 12 8.25 12L2 12C0.9 12 0 11.1 0 10L0 0L36 0L36 0Z" id="Shape" fill="#000000" fill-opacity="0.05" stroke="none" />
      <path d="M36 0L36 10C36 11.1 35.1 12 34 12L32.75 12C32.31 12 31.92 11.7 31.79 11.27L31.71 11L31.19 11L29.93 6.59C29.75 5.95 29.16 5.5 28.49 5.5L12.51 5.5C11.84 5.5 11.25 5.95 11.07 6.59L9.81 11L9.29 11L9.21 11.27C9.08 11.7 8.69 12 8.25 12L2 12C0.9 12 0 11.1 0 10L0 0L36 0L36 0Z" id="Shape" fill="#000000" fill-opacity="0.07" stroke="none" />
    </g>
    <path d="M10.764 6L37.235 6C38.243 6 39.094 6.75 39.219 7.751L41.986 29.771C42.124 30.958 41.195 32 40 32L8 32C6.805 32 5.876 30.958 6.013 29.771L8.78 7.751C8.906 6.75 9.756 6 10.764 6L10.764 6Z" id="Shape" fill="url(#gradient_4)" stroke="none" />
    <g id="Group" transform="translate(8 34)">
      <path d="M3 1C4.105 1 5 1.895 5 3C5 4.105 4.105 5 3 5C1.895 5 1 4.105 1 3C1 1.895 1.895 1 3 1M3 0C1.346 0 0 1.346 0 3C0 4.654 1.346 6 3 6C4.654 6 6 4.654 6 3C6 1.346 4.654 0 3 0L3 0L3 0Z" id="Shape" fill="#000000" fill-opacity="0.05" fill-rule="evenodd" stroke="none" />
      <path d="M3 1C4.105 1 5 1.895 5 3C5 4.105 4.105 5 3 5C1.895 5 1 4.105 1 3C1 1.895 1.895 1 3 1M3 0.5C1.621 0.5 0.5 1.621 0.5 3C0.5 4.379 1.621 5.5 3 5.5C4.379 5.5 5.5 4.379 5.5 3C5.5 1.621 4.379 0.5 3 0.5L3 0.5L3 0.5Z" id="Shape" fill="#000000" fill-opacity="0.07" fill-rule="evenodd" stroke="none" />
      <path d="M1 3C1 1.89543 1.89543 1 3 1C4.10457 1 5 1.89543 5 3C5 4.10457 4.10457 5 3 5C1.89543 5 1 4.10457 1 3Z" id="Circle" fill="url(#gradient_5)" fill-rule="evenodd" stroke="none" />
    </g>
    <g id="Group" transform="translate(8 7.0000005)">
      <g id="Group" opacity="0.05">
        <path d="M2.5 21C3.328 21 4 21.448 4 22C4 22.552 3.328 23 2.5 23C1.672 23 1 22.552 1 22C1 21.448 1.672 21 2.5 21M2.5 20C1.098 20 0 20.878 0 22C0 23.122 1.098 24 2.5 24C3.902 24 5 23.122 5 22C5 20.878 3.902 20 2.5 20L2.5 20L2.5 20Z" id="Shape" fill="#000000" fill-rule="evenodd" stroke="none" />
        <path d="M29.5 21C30.328 21 31 21.448 31 22C31 22.552 30.328 23 29.5 23C28.672 23 28 22.552 28 22C28 21.448 28.672 21 29.5 21M29.5 20C28.098 20 27 20.878 27 22C27 23.122 28.098 24 29.5 24C30.902 24 32 23.122 32 22C32 20.878 30.902 20 29.5 20L29.5 20L29.5 20Z" id="Shape" fill="#000000" fill-rule="evenodd" stroke="none" />
        <path d="M4.5 1C5.328 1 6 1.448 6 2C6 2.552 5.328 3 4.5 3C3.672 3 3 2.552 3 2C3 1.448 3.672 1 4.5 1M4.5 0C3.098 0 2 0.878 2 2C2 3.122 3.098 4 4.5 4C5.902 4 7 3.122 7 2C7 0.878 5.902 0 4.5 0L4.5 0L4.5 0Z" id="Shape" fill="#000000" fill-rule="evenodd" stroke="none" />
        <path d="M27.5 1C28.328 1 29 1.448 29 2C29 2.552 28.328 3 27.5 3C26.672 3 26 2.552 26 2C26 1.448 26.672 1 27.5 1M27.5 0C26.098 0 25 0.878 25 2C25 3.122 26.098 4 27.5 4C28.902 4 30 3.122 30 2C30 0.878 28.902 0 27.5 0L27.5 0L27.5 0Z" id="Shape" fill="#000000" fill-rule="evenodd" stroke="none" />
      </g>
      <g id="Group" transform="translate(0.5 0.5)" opacity="0.07">
        <path d="M2 20.5C2.828 20.5 3.5 20.948 3.5 21.5C3.5 22.052 2.828 22.5 2 22.5C1.172 22.5 0.5 22.052 0.5 21.5C0.5 20.948 1.172 20.5 2 20.5M2 20C0.879 20 0 20.659 0 21.5C0 22.341 0.879 23 2 23C3.121 23 4 22.341 4 21.5C4 20.659 3.121 20 2 20L2 20L2 20Z" id="Shape" fill="#000000" fill-rule="evenodd" stroke="none" />
        <path d="M29 20.5C29.828 20.5 30.5 20.948 30.5 21.5C30.5 22.052 29.828 22.5 29 22.5C28.172 22.5 27.5 22.052 27.5 21.5C27.5 20.948 28.172 20.5 29 20.5M29 20C27.879 20 27 20.659 27 21.5C27 22.341 27.879 23 29 23C30.121 23 31 22.341 31 21.5C31 20.659 30.121 20 29 20L29 20L29 20Z" id="Shape" fill="#000000" fill-rule="evenodd" stroke="none" />
        <path d="M4 0.5C4.828 0.5 5.5 0.948 5.5 1.5C5.5 2.052 4.828 2.5 4 2.5C3.172 2.5 2.5 2.052 2.5 1.5C2.5 0.948 3.172 0.5 4 0.5M4 0C2.879 0 2 0.659 2 1.5C2 2.341 2.879 3 4 3C5.121 3 6 2.341 6 1.5C6 0.659 5.121 0 4 0L4 0L4 0Z" id="Shape" fill="#000000" fill-rule="evenodd" stroke="none" />
        <path d="M27 0.5C27.828 0.5 28.5 0.948 28.5 1.5C28.5 2.052 27.828 2.5 27 2.5C26.172 2.5 25.5 2.052 25.5 1.5C25.5 0.948 26.172 0.5 27 0.5M27 0C25.879 0 25 0.659 25 1.5C25 2.341 25.879 3 27 3C28.121 3 29 2.341 29 1.5C29 0.659 28.121 0 27 0L27 0L27 0Z" id="Shape" fill="#000000" fill-rule="evenodd" stroke="none" />
      </g>
      <path d="M1 22C1 21.4477 1.67157 21 2.5 21C3.32843 21 4 21.4477 4 22C4 22.5523 3.32843 23 2.5 23C1.67157 23 1 22.5523 1 22Z" id="Oval" fill="#CCCCCC" fill-rule="evenodd" stroke="none" />
      <path d="M28 22C28 21.4477 28.6716 21 29.5 21C30.3284 21 31 21.4477 31 22C31 22.5523 30.3284 23 29.5 23C28.6716 23 28 22.5523 28 22Z" id="Oval" fill="#CCCCCC" fill-rule="evenodd" stroke="none" />
      <path d="M3 2C3 1.44772 3.67157 1 4.5 1C5.32843 1 6 1.44772 6 2C6 2.55228 5.32843 3 4.5 3C3.67157 3 3 2.55228 3 2Z" id="Oval" fill="#CCCCCC" fill-rule="evenodd" stroke="none" />
      <path d="M26 2C26 1.44772 26.6716 1 27.5 1C28.3284 1 29 1.44772 29 2C29 2.55228 28.3284 3 27.5 3C26.6716 3 26 2.55228 26 2Z" id="Oval" fill="#CCCCCC" fill-rule="evenodd" stroke="none" />
    </g>
  </g>
</svg>