<?xml version="1.0" encoding="utf-8"?>
<svg width="48px" height="48px" viewBox="0 0 48 48" version="1.1" xmlns:xlink="http://www.w3.org/1999/xlink" xmlns="http://www.w3.org/2000/svg">
	<defs>
		<linearGradient x1="0.447881" y1="1.0878824" x2="0.6050952" y2="-0.01341176" id="gradient_1">
			<stop offset="0" stop-color="#007AD9" />
			<stop offset="1" stop-color="#2AA4F4" />
		</linearGradient>
		<linearGradient x1="0.38500005" y1="-0.037" x2="0.6189286" y2="1.0553529" id="gradient_2">
			<stop offset="0" stop-color="#A3FFFF" />
			<stop offset="0.223" stop-color="#9DFBFF" />
			<stop offset="0.53" stop-color="#8BF1FF" />
			<stop offset="0.885" stop-color="#6EE0FF" />
			<stop offset="1" stop-color="#63DAFF" />
		</linearGradient>
		<linearGradient x1="0.38107145" y1="-0.055352926" x2="0.6189287" y2="1.055353" id="gradient_3">
			<stop offset="0" stop-color="#A3FFFF" />
			<stop offset="0.223" stop-color="#9DFBFF" />
			<stop offset="0.53" stop-color="#8BF1FF" />
			<stop offset="0.885" stop-color="#6EE0FF" />
			<stop offset="1" stop-color="#63DAFF" />
		</linearGradient>
		<linearGradient x1="0.3699286" y1="-0.0537059" x2="0.6077857" y2="1.0569412" id="gradient_4">
			<stop offset="0" stop-color="#A3FFFF" />
			<stop offset="0.223" stop-color="#9DFBFF" />
			<stop offset="0.53" stop-color="#8BF1FF" />
			<stop offset="0.885" stop-color="#6EE0FF" />
			<stop offset="1" stop-color="#63DAFF" />
		</linearGradient>
		<path d="M0 0L48 0L48 48L0 48L0 0Z" id="path_1" />
		<clipPath id="mask_1">
			<use xlink:href="#path_1" />
		</clipPath>
	</defs>
	<g id="icons8_view_module">
		<path d="M0 0L48 0L48 48L0 48L0 0Z" id="Background" fill="none" fill-rule="evenodd" stroke="none" />
		<g clip-path="url(#mask_1)">
			<path d="M14 0L0 17L0 32C0 33 1 34 2 34L31 34L32.5 34L40 34C41.105 34 42 33 42 32L42 17L28 0L14 0L14 0Z" transform="translate(3 7)" id="Shape" fill="url(#gradient_1)" fill-rule="evenodd" stroke="none" />
			<path d="M0 16L13 16L13 0L15 0L15 16L27 16L27 0L29 0L29 16L42 16L42 18L29 18L29 34L27 34L27 18L15 18L15 34L13 34L13 18L0 18L0 16Z" transform="translate(3 7)" id="Polygon" fill="#000000" fill-opacity="0.05" fill-rule="evenodd" stroke="none" />
			<path d="M14.5 0L14.5 16.5L27.5 16.5L27.5 0L28.5 0L28.5 16.5L42 16.5L42 17.5L28.5 17.5L28.5 34L27.5 34L27.5 17.5L14.5 17.5L14.5 34L13.5 34L13.5 17.5L0 17.5L0 16.5L13.5 16.5L13.5 0L14.5 0Z" transform="translate(3 7)" id="Polygon" fill="#000000" fill-opacity="0.05" fill-rule="evenodd" stroke="none" />
			<path d="M14 17L14 0L2 0C0.895 0 0 0.895 0 2L0 17L14 17L14 17Z" transform="translate(3 7)" id="Shape" fill="url(#gradient_2)" fill-rule="evenodd" stroke="none" />
			<path d="M0 0L14 0L14 17L0 17L0 0Z" transform="translate(17 24)" id="Rectangle" fill="url(#gradient_3)" fill-rule="evenodd" stroke="none" />
			<path d="M14 17L14 2C14 0.895 13.105 0 12 0L0 0L0 17L14 17L14 17Z" transform="translate(31 7)" id="Shape" fill="url(#gradient_4)" fill-rule="evenodd" stroke="none" />
		</g>
	</g>
</svg>