<?xml version="1.0" encoding="utf-8"?>
<svg width="48px" height="48px" viewBox="0 0 48 48" version="1.1" xmlns:xlink="http://www.w3.org/1999/xlink" xmlns="http://www.w3.org/2000/svg">
	<defs>
		<linearGradient x1="0.5" y1="-0.026592612" x2="0.5" y2="1.2234075" id="gradient_1">
			<stop offset="0" stop-color="#FEDE00" />
			<stop offset="1" stop-color="#F5AA00" />
		</linearGradient>
		<path d="M0 0L48 0L48 48L0 48L0 0Z" id="path_1" />
		<clipPath id="mask_1">
			<use xlink:href="#path_1" />
		</clipPath>
	</defs>
	<g id="icons8_length">
		<path d="M0 0L48 0L48 48L0 48L0 0Z" id="Background" fill="none" fill-rule="evenodd" stroke="none" />
		<g clip-path="url(#mask_1)">
			<path d="M2.078 0L45.922 0C47.07 0 48 0.868 48 1.939L48 25.06C48 26.132 47.07 27 45.922 27L2.078 27C0.93 27 0 26.132 0 25.061L0 1.939C0 0.868 0.93 0 2.078 0L2.078 0Z" transform="translate(0 11)" id="Shape" fill="url(#gradient_1)" fill-rule="evenodd" stroke="none" />
			<path d="M1 12L1 12C0.448002 12 0 11.552 0 11L0 0L2 0L2 11C2 11.552 1.552 12 1 12L1 12Z" transform="translate(33 11)" id="Shape" fill="#B65E11" fill-rule="evenodd" stroke="none" />
			<path d="M1 7L1 7C0.448002 7 0 6.552 0 6L0 0L2 0L2 6C2 6.552 1.552 7 1 7L1 7Z" transform="translate(38 11)" id="Shape" fill="#B65E11" fill-rule="evenodd" stroke="none" />
			<path d="M1 12L1 12C0.448 12 0 11.552 0 11L0 0L2 0L2 11C2 11.552 1.552 12 1 12L1 12Z" transform="translate(23 11)" id="Shape" fill="#B65E11" fill-rule="evenodd" stroke="none" />
			<path d="M1 7L1 7C0.448 7 0 6.552 0 6L0 0L2 0L2 6C2 6.552 1.552 7 1 7L1 7Z" transform="translate(28 11)" id="Shape" fill="#B65E11" fill-rule="evenodd" stroke="none" />
			<path d="M1 12L1 12C0.448 12 0 11.552 0 11L0 0L2 0L2 11C2 11.552 1.552 12 1 12L1 12Z" transform="translate(13 11)" id="Shape" fill="#B65E11" fill-rule="evenodd" stroke="none" />
			<path d="M1 7L1 7C0.448 7 0 6.552 0 6L0 0L2 0L2 6C2 6.552 1.552 7 1 7L1 7Z" transform="translate(18 11)" id="Shape" fill="#B65E11" fill-rule="evenodd" stroke="none" />
			<path d="M1 12L1 12C0.448 12 0 11.552 0 11L0 0L2 0L2 11C2 11.552 1.552 12 1 12L1 12Z" transform="translate(3 11)" id="Shape" fill="#B65E11" fill-rule="evenodd" stroke="none" />
			<path d="M1 7L1 7C0.448 7 0 6.552 0 6L0 0L2 0L2 6C2 6.552 1.552 7 1 7L1 7Z" transform="translate(8 11)" id="Shape" fill="#B65E11" fill-rule="evenodd" stroke="none" />
			<path d="M1 12L1 12C0.448002 12 0 11.552 0 11L0 0L2 0L2 11C2 11.552 1.552 12 1 12L1 12Z" transform="translate(43 11)" id="Shape" fill="#B65E11" fill-rule="evenodd" stroke="none" />
		</g>
	</g>
</svg>