<?xml version="1.0" encoding="utf-8"?>
<svg width="48px" height="48px" viewBox="0 0 48 48" version="1.1" xmlns:xlink="http://www.w3.org/1999/xlink" xmlns="http://www.w3.org/2000/svg">
	<defs>
		<path d="M0 0L48 0L48 48L0 48L0 0Z" id="path_1" />
		<clipPath id="mask_1">
			<use xlink:href="#path_1" />
		</clipPath>
	</defs>
	<g id="icons8_link">
		<path d="M0 0L48 0L48 48L0 48L0 0Z" id="Background" fill="none" fill-rule="evenodd" stroke="none" />
		<g clip-path="url(#mask_1)">
			<path d="M2.78175 23.2175C6.49175 26.9275 12.5068 26.9275 16.2168 23.2175C17.9498 21.4845 21.4838 17.9505 23.2168 16.2175C26.9268 12.5075 26.9268 6.4925 23.2168 2.7825C19.5068 -0.9275 13.4918 -0.9275 9.78175 2.7825C8.04875 4.5155 4.51475 8.0495 2.78175 9.7825C-0.92725 13.4915 -0.92725 19.5075 2.78175 23.2175L2.78175 23.2175ZM6.31775 13.3175C7.33775 12.2975 12.5548 7.0805 13.3178 6.3175C15.0748 4.5605 17.9248 4.5605 19.6818 6.3175C21.4388 8.0745 21.4388 10.9245 19.6818 12.6815C18.9188 13.4445 13.7018 18.6615 12.6818 19.6815C10.9248 21.4385 8.07475 21.4385 6.31775 19.6815C4.56075 17.9245 4.56075 15.0745 6.31775 13.3175L6.31775 13.3175Z" transform="translate(5.00025 17.000498)" id="Shape" fill="#0078D4" fill-rule="evenodd" stroke="none" />
			<path d="M8.0753 5.50061C8.0753 5.50061 7.4663 3.99161 8.8453 2.36961L10.2143 0.999605C7.0493 -0.583395 3.1923 -0.285395 0.288301 1.88761C-0.533699 4.99161 0.663301 8.4306 0.663301 8.4306C1.7033 7.3906 2.5353 6.55861 2.7843 6.3096C4.2243 4.87061 6.3173 4.60461 8.0753 5.50061L8.0753 5.50061Z" transform="translate(15.533699 17.008394)" id="Shape" fill="#000000" fill-opacity="0.05" fill-rule="evenodd" stroke="none" />
			<path d="M6.48506 5.21091C6.40306 4.54692 6.30706 3.18691 7.50706 1.86592C7.57706 1.79592 8.42706 0.925915 8.65006 0.702915C6.00806 -0.406084 2.96106 -0.193085 0.458063 1.27291C-0.390937 3.85091 0.141064 6.79491 0.458063 7.85492C1.20106 7.11192 1.78206 6.53092 1.97706 6.33591C3.20606 5.10591 4.91206 4.73191 6.48506 5.21091L6.48506 5.21091Z" transform="translate(16.341936 16.982086)" id="Shape" fill="#000000" fill-opacity="0.07" fill-rule="evenodd" stroke="none" />
			<path d="M23.2175 2.7825C19.5075 -0.9275 13.4925 -0.9275 9.7825 2.7825C8.0495 4.5155 4.5155 8.0495 2.7825 9.7825C-0.9275 13.4925 -0.9275 19.5075 2.7825 23.2175C6.4925 26.9275 12.5075 26.9275 16.2175 23.2175C17.9505 21.4845 21.4845 17.9505 23.2175 16.2175C26.9265 12.5085 26.9265 6.4925 23.2175 2.7825L23.2175 2.7825ZM19.6815 12.6825C18.6615 13.7025 13.4445 18.9195 12.6815 19.6825C10.9245 21.4395 8.0745 21.4395 6.3175 19.6825C4.5605 17.9255 4.5605 15.0755 6.3175 13.3185C7.0805 12.5555 12.2975 7.3385 13.3175 6.3185C15.0745 4.5615 17.9245 4.5615 19.6815 6.3185C21.4385 8.0755 21.4385 10.9255 19.6815 12.6825L19.6815 12.6825Z" transform="translate(17.000498 4.9995)" id="Shape" fill="#1B9DE2" fill-rule="evenodd" stroke="none" />
			<path d="M2.134 2.915C2.134 2.915 2.748 4.439 1.369 6.061L0 7.431C3.165 9.014 7.022 8.716 9.926 6.543C10.748 3.439 9.551 0 9.551 0C8.511 1.04 7.679 1.872 7.43 2.121C5.99 3.56 3.838 3.834 2.134 2.915L2.134 2.915Z" transform="translate(22.252 22.561)" id="Shape" fill="#000000" fill-opacity="0.05" fill-rule="evenodd" stroke="none" />
			<path d="M2.18 2.643C2.262 3.307 2.343 4.668 1.143 5.989C1.073 6.059 0.223 6.909 0 7.132C2.642 8.241 5.718 8.029 8.196 6.504C9.045 3.926 8.51 1.059 8.192 0C7.449 0.743 6.868 1.324 6.673 1.519C5.444 2.749 3.665 3.108 2.18 2.643L2.18 2.643Z" transform="translate(23.008 23.163)" id="Shape" fill="#000000" fill-opacity="0.07" fill-rule="evenodd" stroke="none" />
			<path d="M7 3.535C8.757 5.292 8.757 8.142 7 9.899C6.237 10.662 1.02 15.879 0 16.899L3.536 20.435C5.269 18.702 8.803 15.168 10.536 13.435C14.246 9.725 14.246 3.71 10.536 0L7 3.535L7 3.535Z" transform="translate(17.682 19.782997)" id="Shape" fill="#0078D4" fill-rule="evenodd" stroke="none" />
		</g>
	</g>
</svg>