<?xml version="1.0" encoding="utf-8"?>
<svg width="48px" height="48px" viewBox="0 0 48 48" version="1.1" xmlns:xlink="http://www.w3.org/1999/xlink" xmlns="http://www.w3.org/2000/svg">
	<defs>
		<linearGradient x1="0.21585715" y1="-1.489" x2="0.7593095" y2="2.315167" id="gradient_1">
			<stop offset="0.237" stop-color="#3BC9F3" />
			<stop offset="0.84999996" stop-color="#1591D8" />
		</linearGradient>
		<linearGradient x1="0.21585715" y1="-1.4889998" x2="0.7593095" y2="2.3151665" id="gradient_2">
			<stop offset="0.237" stop-color="#3BC9F3" />
			<stop offset="0.84999996" stop-color="#1591D8" />
		</linearGradient>
		<path d="M0 0L48 0L48 48L0 48L0 0Z" id="path_1" />
		<clipPath id="mask_1">
			<use xlink:href="#path_1" />
		</clipPath>
	</defs>
	<g id="icons8_menu">
		<path d="M0 0L48 0L48 48L0 48L0 0Z" id="Background" fill="none" fill-rule="evenodd" stroke="none" />
		<g clip-path="url(#mask_1)">
			<path d="M40 6L2 6C0.9 6 0 5.1 0 4L0 2C0 0.9 0.9 0 2 0L40 0C41.1 0 42 0.9 42 2L42 4C42 5.1 41.1 6 40 6L40 6Z" transform="translate(3 9)" id="Shape" fill="url(#gradient_1)" fill-rule="evenodd" stroke="none" />
			<path d="M40 6L2 6C0.9 6 0 5.1 0 4L0 2C0 0.9 0.9 0 2 0L40 0C41.1 0 42 0.9 42 2L42 4C42 5.1 41.1 6 40 6L40 6Z" transform="translate(3 21)" id="Shape" fill="url(#gradient_2)" fill-rule="evenodd" stroke="none" />
			<path d="M40 6L2 6C0.9 6 0 5.1 0 4L0 2C0 0.900002 0.9 0 2 0L40 0C41.1 0 42 0.900002 42 2L42 4C42 5.1 41.1 6 40 6L40 6Z" transform="translate(3 33)" id="Shape" fill="url(#gradient_2)" fill-rule="evenodd" stroke="none" />
		</g>
	</g>
</svg>