<?xml version="1.0" encoding="utf-8"?>
<svg width="48px" height="48px" viewBox="0 0 48 48" version="1.1" xmlns:xlink="http://www.w3.org/1999/xlink" xmlns="http://www.w3.org/2000/svg">
  <defs>
    <linearGradient gradientUnits="objectBoundingBox" x1="0.21585715" y1="-1.489" x2="0.7593095" y2="2.315167" id="gradient_1">
      <stop offset="23.7%" stop-color="#3BC9F3" />
      <stop offset="85%" stop-color="#1591D8" />
    </linearGradient>
    <linearGradient gradientUnits="objectBoundingBox" x1="0.21585715" y1="-1.4889998" x2="0.7593095" y2="2.3151665" id="gradient_2">
      <stop offset="23.7%" stop-color="#3BC9F3" />
      <stop offset="85%" stop-color="#1591D8" />
    </linearGradient>
    <path d="M48 0L48 0L48 48L0 48L0 0L48 0Z" id="path_1" />
    <clipPath id="clip_1">
      <use xlink:href="#path_1" />
    </clipPath>
  </defs>
  <g id="Menu" clip-path="url(#clip_1)">
    <path d="M48 0L48 0L48 48L0 48L0 0L48 0Z" id="Menu" fill="none" stroke="none" />
    <path d="M43 15L5 15C3.9 15 3 14.1 3 13L3 11C3 9.9 3.9 9 5 9L43 9C44.1 9 45 9.9 45 11L45 13C45 14.1 44.1 15 43 15L43 15Z" id="Shape" fill="url(#gradient_1)" stroke="none" />
    <path d="M43 27L5 27C3.9 27 3 26.1 3 25L3 23C3 21.9 3.9 21 5 21L43 21C44.1 21 45 21.9 45 23L45 25C45 26.1 44.1 27 43 27L43 27Z" id="Shape" fill="url(#gradient_2)" stroke="none" />
    <path d="M43 39L5 39C3.9 39 3 38.1 3 37L3 35C3 33.9 3.9 33 5 33L43 33C44.1 33 45 33.9 45 35L45 37C45 38.1 44.1 39 43 39L43 39Z" id="Shape" fill="url(#gradient_2)" stroke="none" />
  </g>
</svg>