<?xml version="1.0" encoding="utf-8"?>
<svg width="48px" height="48px" viewBox="0 0 48 48" version="1.1" xmlns:xlink="http://www.w3.org/1999/xlink" xmlns="http://www.w3.org/2000/svg">
	<defs>
		<linearGradient x1="0.94272274" y1="0.9427244" x2="0.31006193" y2="0.31008112" id="gradient_1">
			<stop offset="0.36499998" stop-color="#199AE0" />
			<stop offset="0.699" stop-color="#1898DE" />
			<stop offset="0.819" stop-color="#1691D8" />
			<stop offset="0.905" stop-color="#1186CC" />
			<stop offset="0.9739999" stop-color="#0A75BC" />
			<stop offset="1" stop-color="#076CB3" />
		</linearGradient>
		<linearGradient x1="0.1007185" y1="0.8993065" x2="0.9153551" y2="0.08464736" id="gradient_2">
			<stop offset="0" stop-color="#32BDEF" />
			<stop offset="1" stop-color="#1EA2E4" />
		</linearGradient>
		<path d="M0 0L48 0L48 48L0 48L0 0Z" id="path_1" />
		<clipPath id="mask_1">
			<use xlink:href="#path_1" />
		</clipPath>
	</defs>
	<g id="icons8_back">
		<path d="M0 0L48 0L48 48L0 48L0 0Z" id="Background" fill="none" fill-rule="evenodd" stroke="none" />
		<g clip-path="url(#mask_1)">
			<path d="M0.57975 7.4015L19.5988 26.4205C20.3728 27.1945 21.6268 27.1945 22.4008 26.4205L26.4198 22.4015C27.1938 21.6275 27.1938 20.3735 26.4198 19.5995L7.40075 0.5805C6.62675 -0.193501 5.37275 -0.193501 4.59875 0.5805L0.57975 4.5995C-0.19325 5.3735 -0.19325 6.6275 0.57975 7.4015L0.57975 7.4015Z" transform="translate(9.00025 17.9995)" id="Shape" fill="url(#gradient_1)" fill-rule="evenodd" stroke="none" />
			<path d="M7.4015 26.4205L26.4205 7.4015C27.1945 6.6275 27.1945 5.3735 26.4205 4.5995L22.4015 0.5805C21.6275 -0.1935 20.3735 -0.1935 19.5995 0.5805L0.5805 19.5995C-0.193501 20.3735 -0.193501 21.6275 0.5805 22.4015L4.5995 26.4205C5.3735 27.1935 6.6275 27.1935 7.4015 26.4205L7.4015 26.4205Z" transform="translate(8.9995 2.9995)" id="Shape" fill="url(#gradient_2)" fill-rule="evenodd" stroke="none" />
		</g>
	</g>
</svg>