<?xml version="1.0" encoding="utf-8"?>
<svg width="48px" height="48px" viewBox="0 0 48 48" version="1.1" xmlns:xlink="http://www.w3.org/1999/xlink" xmlns="http://www.w3.org/2000/svg">
  <defs>
    <radialGradient gradientUnits="objectBoundingBox" cx="-101.55341%" cy="-100.64409%" fx="-101.55341%" fy="-100.64409%" r="247.58769%" gradientTransform="translate(-1.0155342,-1.0064409),translate(1.0155342,1.0064409)" id="gradient_1">
      <stop offset="69.3%" stop-color="#006185" />
      <stop offset="92.09999%" stop-color="#35C1F1" />
    </radialGradient>
    <linearGradient x1="0.15346876" y1="0.15346876" x2="0.8543438" y2="0.8543438" id="gradient_2">
      <stop offset="0" stop-color="#A3FFFF" />
      <stop offset="0.223" stop-color="#9DFBFF" />
      <stop offset="0.53" stop-color="#8BF1FF" />
      <stop offset="0.885" stop-color="#6EE0FF" />
      <stop offset="1" stop-color="#63DAFF" />
    </linearGradient>
    <path d="M0 0L48 0L48 48L0 48L0 0Z" id="path_1" />
    <clipPath id="mask_1">
      <use xlink:href="#path_1" />
    </clipPath>
  </defs>
  <g id="icons8_search">
    <path d="M0 0L48 0L48 48L0 48L0 0Z" id="Background" fill="none" fill-rule="evenodd" stroke="none" />
    <g clip-path="url(#mask_1)">
      <path d="M3.536 0L0 3.536L7.87 11.406C8.065 11.601 8.382 11.601 8.577 11.406L11.405 8.578C11.6 8.383 11.6 8.066 11.405 7.871L3.536 0L3.536 0Z" transform="translate(32.447002 32.448)" id="Shape" fill="#199BE2" fill-rule="evenodd" stroke="none" />
      <path d="M3.536 0L0 3.536L4.383 7.918L7.918 4.383L3.536 0Z" transform="translate(28.065 28.065)" id="Polygon" fill="url(#gradient_1)" fill-rule="evenodd" stroke="none" />
      <path d="M0 16C0 7.16344 7.16344 0 16 0C24.8366 0 32 7.16344 32 16C32 24.8366 24.8366 32 16 32C7.16344 32 0 24.8366 0 16Z" transform="translate(4 4)" id="Circle" fill="url(#gradient_2)" fill-rule="evenodd" stroke="none" />
    </g>
  </g>
</svg>