<?xml version="1.0" encoding="UTF-8"?>
<svg xmlns="http://www.w3.org/2000/svg" xmlns:xlink="http://www.w3.org/1999/xlink" width="48pt" height="48pt" viewBox="0 0 48 48" version="1.1">
<defs>
<linearGradient id="linear0" gradientUnits="userSpaceOnUse" x1="711.5" y1="409.459" x2="711.5" y2="400" gradientTransform="matrix(1,0,0,1,-696.5,-396.5)">
<stop offset="0" style="stop-color:rgb(25.882353%,63.921569%,94.901961%);stop-opacity:1;"/>
<stop offset="1" style="stop-color:rgb(25.882353%,64.313725%,92.156863%);stop-opacity:1;"/>
</linearGradient>
<linearGradient id="linear1" gradientUnits="userSpaceOnUse" x1="699.5" y1="443.459" x2="699.5" y2="434" gradientTransform="matrix(1,0,0,1,-666.5,-414.5)">
<stop offset="0" style="stop-color:rgb(18.823529%,47.45098%,83.921569%);stop-opacity:1;"/>
<stop offset="1" style="stop-color:rgb(16.078431%,48.627451%,82.352941%);stop-opacity:1;"/>
</linearGradient>
<linearGradient id="linear2" gradientUnits="userSpaceOnUse" x1="699.5" y1="459.459" x2="699.5" y2="450" gradientTransform="matrix(1,0,0,1,-666.5,-414.5)">
<stop offset="0" style="stop-color:rgb(18.823529%,47.45098%,83.921569%);stop-opacity:1;"/>
<stop offset="1" style="stop-color:rgb(16.078431%,48.627451%,82.352941%);stop-opacity:1;"/>
</linearGradient>
</defs>
<g id="surface3304">
<path style=" stroke:none;fill-rule:nonzero;fill:rgb(39.215686%,44.313725%,48.627451%);fill-opacity:1;" d="M 16 6 L 14 6 L 14 38 C 14 39.65625 15.34375 41 17 41 L 26 41 L 26 39 L 17 39 C 16.449219 39 16 38.550781 16 38 L 16 25 L 26 25 L 26 23 L 16 23 Z M 16 6 "/>
<path style=" stroke:none;fill-rule:nonzero;fill:url(#linear0);" d="M 22 3 L 8 3 C 7.449219 3 7 3.449219 7 4 L 7 12 C 7 12.550781 7.449219 13 8 13 L 22 13 C 22.550781 13 23 12.550781 23 12 L 23 4 C 23 3.449219 22.550781 3 22 3 Z M 22 3 "/>
<path style=" stroke:none;fill-rule:nonzero;fill:url(#linear1);" d="M 40 19 L 26 19 C 25.449219 19 25 19.449219 25 20 L 25 28 C 25 28.550781 25.449219 29 26 29 L 40 29 C 40.550781 29 41 28.550781 41 28 L 41 20 C 41 19.449219 40.550781 19 40 19 Z M 40 19 "/>
<path style=" stroke:none;fill-rule:nonzero;fill:url(#linear2);" d="M 40 35 L 26 35 C 25.449219 35 25 35.449219 25 36 L 25 44 C 25 44.550781 25.449219 45 26 45 L 40 45 C 40.550781 45 41 44.550781 41 44 L 41 36 C 41 35.449219 40.550781 35 40 35 Z M 40 35 "/>
</g>
</svg>
