<?xml version="1.0" encoding="utf-8"?>
<svg width="48px" height="48px" viewBox="0 0 48 48" version="1.1" xmlns:xlink="http://www.w3.org/1999/xlink" xmlns="http://www.w3.org/2000/svg">
  <defs>
    <radialGradient gradientUnits="objectBoundingBox" cx="91.94524%" cy="78.84999%" fx="91.94524%" fy="78.84999%" r="74.02943%" gradientTransform="translate(0.91945237,0.7884999),scale(0.8095238,1),translate(-0.91945237,-0.7884999)" id="gradient_1">
      <stop offset="0%" stop-color="#BD8AF5" />
      <stop offset="13.7%" stop-color="#B88BF5" />
      <stop offset="30.899996%" stop-color="#A88FF3" />
      <stop offset="49.9%" stop-color="#8F96F2" />
      <stop offset="70.200005%" stop-color="#6B9EEF" />
      <stop offset="91.299995%" stop-color="#3EAAEC" />
      <stop offset="100%" stop-color="#29AFEA" />
    </radialGradient>
    <linearGradient gradientUnits="objectBoundingBox" x1="0.49999997" y1="-0.086241364" x2="0.49999997" y2="1.9801203" id="gradient_2">
      <stop offset="0%" stop-color="#124787" />
      <stop offset="92.299995%" stop-color="#173B75" />
      <stop offset="100%" stop-color="#173A73" />
    </linearGradient>
    <linearGradient gradientUnits="objectBoundingBox" x1="0.5" y1="-0.15212488" x2="0.5" y2="1.2796249" id="gradient_3">
      <stop offset="0%" stop-color="#A1AAB3" />
      <stop offset="100%" stop-color="#8F979E" />
    </linearGradient>
    <linearGradient gradientUnits="objectBoundingBox" x1="0.16824442" y1="0.055240363" x2="0.9552066" y2="1.0768783" id="gradient_4">
      <stop offset="0%" stop-color="#A1AAB3" />
      <stop offset="100%" stop-color="#8F979E" />
    </linearGradient>
    <linearGradient gradientUnits="objectBoundingBox" x1="0.11660123" y1="-0.06134993" x2="0.9622104" y2="1.0364027" id="gradient_5">
      <stop offset="0%" stop-color="#A1AAB3" />
      <stop offset="100%" stop-color="#8F979E" />
    </linearGradient>
    <radialGradient gradientUnits="objectBoundingBox" cx="49.881508%" cy="24.056692%" fx="49.881508%" fy="24.056692%" r="24.466621%" gradientTransform="translate(0.49881506,0.24056692),scale(1,0.65775555),translate(-0.49881506,-0.24056692)" id="gradient_6">
      <stop offset="84.1%" stop-color="#000000" stop-opacity="0.2" />
      <stop offset="100%" stop-color="#000000" stop-opacity="0" />
    </radialGradient>
    <linearGradient gradientUnits="objectBoundingBox" x1="0.2636" y1="-0.1494" x2="0.83990014" y2="1.4338" id="gradient_7">
      <stop offset="0%" stop-color="#F44F5A" />
      <stop offset="44.3%" stop-color="#EE3D4A" />
      <stop offset="100%" stop-color="#E52030" />
    </linearGradient>
    <path d="M48 0L48 0L48 48L0 48L0 0L48 0Z" id="path_1" />
    <path d="M24 0L24 0L24 24L0 24L0 0L24 0Z" id="path_2" />
    <clipPath id="clip_1">
      <use xlink:href="#path_1" clip-rule="evenodd" fill-rule="evenodd" />
    </clipPath>
    <clipPath id="clip_2">
      <use xlink:href="#path_2" clip-rule="evenodd" fill-rule="evenodd" />
    </clipPath>
  </defs>
  <g id="Wallpaper" clip-path="url(#clip_1)">
    <path d="M48 0L48 0L48 48L0 48L0 0L48 0Z" id="Wallpaper" fill="none" stroke="none" />
    <path d="M43 6L5 6C3.895 6 3 6.895 3 8L3 38C3 39.105 3.895 40 5 40L43 40C44.105 40 45 39.105 45 38L45 8C45 6.895 44.105 6 43 6L43 6Z" id="Shape" fill="url(#gradient_1)" stroke="none" />
    <path d="M32 15.5C32 13.567 33.567 12 35.5 12C37.433 12 39 13.567 39 15.5C39 17.433 37.433 19 35.5 19C33.567 19 32 17.433 32 15.5Z" id="Circle" fill="#FFF8DE" fill-rule="evenodd" stroke="none" />
    <path d="M35.065 24.065C33.916 22.916 32.06 22.891 30.88 24.008L21 33.368L21 42L43 42C44.105 42 45 41.105 45 40L45 34L35.065 24.065L35.065 24.065Z" id="Shape" fill="#436DCD" stroke="none" />
    <path d="M39 42L17.065 20.065C15.916 18.916 14.06 18.891 12.88 20.008L3 29.368L3 40C3 41.105 3.895 42 5 42L39 42L39 42Z" id="Shape" fill="url(#gradient_2)" stroke="none" />
    <g id="Drawing Compass" clip-path="url(#clip_2)" transform="translate(24 19)">
      <path d="M24 0L24 0L24 24L0 24L0 0L24 0Z" id="Drawing-Compass" fill="none" stroke="none" />
      <path d="M4.5 14.5C4.5 14.3619 4.54882 14.2441 4.64645 14.1465C4.74408 14.0488 4.86193 14 5 14L19 14C19.1381 14 19.2559 14.0488 19.3536 14.1465C19.4512 14.2441 19.5 14.3619 19.5 14.5C19.5 14.6381 19.4512 14.7559 19.3536 14.8536C19.2559 14.9512 19.1381 15 19 15L5 15C4.86193 15 4.74408 14.9512 4.64645 14.8536C4.54882 14.7559 4.5 14.6381 4.5 14.5L4.5 14.5Z" id="Line" fill="#64717C" fill-rule="evenodd" stroke="none" />
      <path d="M11 13.5L11 13C11 12.8619 11.0488 12.7441 11.1464 12.6464C11.2441 12.5488 11.3619 12.5 11.5 12.5L12.5 12.5C12.6381 12.5 12.7559 12.5488 12.8535 12.6464C12.9512 12.7441 13 12.8619 13 13L13 16C13 16.1381 12.9512 16.2559 12.8535 16.3535C12.7559 16.4512 12.6381 16.5 12.5 16.5L11.5 16.5C11.3619 16.5 11.2441 16.4512 11.1464 16.3535C11.0488 16.2559 11 16.1381 11 16L11 13.5Z" id="Line" fill="url(#gradient_3)" fill-rule="evenodd" stroke="none" />
      <path d="M6 22.0002C5.83355 22 5.6781 21.9171 5.58527 21.7789C5.49244 21.6407 5.47439 21.4655 5.53711 21.3113L11.0371 7.81128C11.1413 7.55563 11.4331 7.43288 11.6887 7.53711C11.9444 7.64134 12.0671 7.93307 11.9629 8.18872L6.46289 21.6887C6.38627 21.877 6.20328 22.0002 6 22.0002L6 22.0002Z" id="Shape" fill="#64717C" stroke="none" />
      <path d="M18 22.0002C17.7967 22.0002 17.6137 21.877 17.5371 21.6887L12.0371 8.18874C11.9329 7.93309 12.0556 7.64136 12.3113 7.53713C12.5669 7.4329 12.8587 7.55565 12.9629 7.8113L18.4629 21.3113C18.5256 21.4655 18.5075 21.6408 18.4147 21.7789C18.3219 21.9171 18.1664 22 18 22.0002L18 22.0002Z" id="Shape" fill="#64717C" stroke="none" />
      <path d="M12.2465 7.5L6.9475 20.499L6.024 20.1155L5.75 18L10.25 6.75L12.2465 7.5L12.2465 7.5Z" id="Polygon" fill="url(#gradient_4)" fill-rule="evenodd" stroke="none" />
      <path d="M11.75 7.5L17.049 20.499L17.9725 20.1155L18.2465 18L13.7465 6.75L11.75 7.5L11.75 7.5Z" id="Polygon" fill="url(#gradient_5)" fill-rule="evenodd" stroke="none" />
      <path d="M12 1.5L12 1.5C12.5523 1.5 13 1.94772 13 2.5L13 5L11 5L11 2.5C11 1.94772 11.4477 1.5 12 1.5L12 1.5Z" id="Shape" fill="#B31523" stroke="none" />
      <path d="M18.2466 18L17.9724 20.1157L17.049 20.4989L11.9983 8.10887L6.94763 20.4989L6.0242 20.1157L5.75 18L10.25 6.75L11.9983 7.40653L13.7466 6.75L18.2466 18ZM13 2.5C13 1.94772 12.5523 1.5 12 1.5L12 1.5C11.4477 1.5 11 1.94772 11 2.5L11 5L13 5L13 2.5Z" id="Shape" fill="url(#gradient_6)" fill-rule="evenodd" stroke="none" />
      <path d="M12 3.5C10.6193 3.5 9.5 4.61928 9.5 6C9.5 7.38071 10.6193 8.5 12 8.5C13.3807 8.5 14.5 7.38071 14.5 6C14.5 4.61928 13.3807 3.5 12 3.5L12 3.5ZM12 7C11.4477 7 11 6.55228 11 6C11 5.44771 11.4477 5 12 5C12.5523 5 13 5.44771 13 6C13 6.55228 12.5523 7 12 7L12 7Z" id="Shape" fill="url(#gradient_7)" fill-rule="evenodd" stroke="none" />
    </g>
  </g>
</svg>