<?xml version="1.0" encoding="utf-8"?>
<svg width="48px" height="48px" viewBox="0 0 48 48" version="1.1" xmlns:xlink="http://www.w3.org/1999/xlink" xmlns="http://www.w3.org/2000/svg">
  <defs>
    <path d="M48 0L48 0L48 48L0 48L0 0L48 0Z" id="path_1" />
    <clipPath id="clip_1">
      <use xlink:href="#path_1" clip-rule="evenodd" fill-rule="evenodd" />
    </clipPath>
  </defs>
  <g id="Adobe Framemaker" clip-path="url(#clip_1)">
    <path d="M48 0L48 0L48 48L0 48L0 0L48 0Z" id="Adobe-Framemaker" fill="none" stroke="none" />
    <path d="M36 6L12 6C8.686 6 6 8.686 6 12L6 36C6 39.314 8.686 42 12 42L36 42C39.314 42 42 39.314 42 36L42 12C42 8.686 39.314 6 36 6L36 6Z" id="Shape" fill="#EDBE00" stroke="none" />
    <path d="M36 40L12 40C9.791 40 8 38.209 8 36L8 12C8 9.791 9.791 8 12 8L36 8C38.209 8 40 9.791 40 12L40 36C40 38.209 38.209 40 36 40L36 40Z" id="Shape" fill="#C48C00" stroke="none" />
    <path d="M20.503 18.163L16.938 18.163C16.662 18.163 16.438 18.387 16.438 18.663L16.438 21.822C16.438 22.098 16.662 22.322 16.938 22.322L20.133 22.322C20.409 22.322 20.633 22.546 20.633 22.822L20.633 24.918C20.633 25.194 20.409 25.418 20.133 25.418L16.938 25.418C16.662 25.418 16.438 25.642 16.438 25.918L16.438 31.5C16.438 31.776 16.214 32 15.938 32L14.023 32C13.747 32 13.523 31.776 13.523 31.5L13.523 15.555C13.523 15.279 13.747 15.055 14.023 15.055L20.503 15.055C20.779 15.055 21.003 15.279 21.003 15.555L21.003 17.663C21.003 17.939 20.779 18.163 20.503 18.163L20.503 18.163Z" id="Shape" fill="#FFFFFF" stroke="none" />
    <path d="M35.503 32L33.985 32C33.709 32 33.485 31.776 33.485 31.5L33.485 25.885C33.485 24.329 33.047 23.55 32.173 23.55C31.758 23.55 31.418 23.784 31.158 24.251C30.897 24.719 30.766 25.301 30.766 25.999L30.766 31.5C30.766 31.776 30.542 32 30.266 32L28.74 32C28.464 32 28.24 31.776 28.24 31.5L28.24 25.823C28.24 24.308 27.811 23.551 26.952 23.551C26.521 23.551 26.176 23.774 25.917 24.221C25.658 24.668 25.529 25.275 25.529 26.043L25.529 31.5C25.529 31.776 25.305 32 25.029 32L23.502 32C23.226 32 23.002 31.776 23.002 31.5L23.002 21.779C23.002 21.503 23.226 21.279 23.502 21.279L25.029 21.279C25.305 21.279 25.529 21.503 25.529 21.779L25.529 22.954L25.561 22.954C25.821 22.382 26.188 21.916 26.66 21.556C27.132 21.197 27.647 21.017 28.207 21.017C29.08 21.017 29.746 21.397 30.203 22.157C30.398 22.482 30.833 22.508 31.058 22.204C31.642 21.413 32.401 21.017 33.332 21.017C35.112 21.017 36.002 22.455 36.002 25.331L36.002 31.5C36.003 31.776 35.779 32 35.503 32L35.503 32Z" id="Shape" fill="#FFFFFF" stroke="none" />
  </g>
</svg>