<?xml version="1.0" encoding="utf-8"?>
<svg width="48px" height="48px" viewBox="0 0 48 48" version="1.1" xmlns:xlink="http://www.w3.org/1999/xlink" xmlns="http://www.w3.org/2000/svg">
  <defs>
    <path d="M48 0L48 0L48 48L0 48L0 0L48 0Z" id="path_1" />
    <clipPath id="clip_1">
      <use xlink:href="#path_1" clip-rule="evenodd" fill-rule="evenodd" />
    </clipPath>
  </defs>
  <g id="Adobe After Effects" clip-path="url(#clip_1)">
    <path d="M48 0L48 0L48 48L0 48L0 0L48 0Z" id="Adobe-After-Effects" fill="none" stroke="none" />
    <path d="M36 6L12 6C8.686 6 6 8.686 6 12L6 36C6 39.314 8.686 42 12 42L36 42C39.314 42 42 39.314 42 36L42 12C42 8.686 39.314 6 36 6L36 6Z" id="Shape" fill="#C391F7" stroke="none" />
    <path d="M36 40L12 40C9.791 40 8 38.209 8 36L8 12C8 9.791 9.791 8 12 8L36 8C38.209 8 40 9.791 40 12L40 36C40 38.209 38.209 40 36 40L36 40Z" id="Shape" fill="#5C1D9C" stroke="none" />
    <path d="M24.347 31.999L22.218 31.999C21.988 31.999 21.787 31.842 21.732 31.618L20.997 28.611C20.942 28.387 20.742 28.23 20.511 28.23L16.695 28.23C16.464 28.23 16.263 28.388 16.209 28.612L15.482 31.617C15.428 31.841 15.227 31.999 14.996 31.999L12.89 31.999C12.559 31.999 12.32 31.684 12.408 31.365L16.841 15.42C16.901 15.204 17.098 15.054 17.323 15.054L20.017 15.054C20.243 15.054 20.44 15.205 20.5 15.423L24.83 31.368C24.915 31.686 24.676 31.999 24.347 31.999L24.347 31.999ZM19.599 25.3C19.923 25.3 20.162 24.996 20.085 24.681L18.846 19.604C18.744 19.179 18.672 18.67 18.63 18.08L18.558 18.08C18.528 18.577 18.453 19.069 18.332 19.557L17.076 24.681C16.999 24.996 17.237 25.3 17.562 25.3L19.599 25.3L19.599 25.3Z" id="Shape" fill="#FFFFFF" fill-rule="evenodd" stroke="none" />
    <path d="M34.411 26.717L29.445 26.717C29.127 26.717 28.895 27.014 28.952 27.327C29.199 28.677 30.02 29.352 31.418 29.352C32.122 29.352 32.766 29.201 33.352 28.899C33.693 28.723 34.098 28.947 34.098 29.33L34.098 30.82C34.098 30.994 34.013 31.162 33.864 31.253C33.044 31.75 32.013 31.999 30.769 31.999C29.277 31.999 28.119 31.457 27.294 30.374C26.47 29.291 26.058 27.78 26.058 25.842C26.058 23.833 26.503 22.242 27.394 21.068C28.284 19.894 29.379 19.307 30.678 19.307C32.026 19.307 33.068 19.831 33.805 20.879C34.541 21.927 34.91 23.349 34.91 25.145L34.91 26.217C34.911 26.494 34.687 26.717 34.411 26.717L34.411 26.717ZM31.748 24.425C32.031 24.425 32.269 24.188 32.249 23.905C32.148 22.518 31.619 21.825 30.661 21.825C30.203 21.825 29.807 22.073 29.474 22.569C29.24 22.917 29.07 23.326 28.964 23.794C28.892 24.114 29.124 24.425 29.451 24.425L31.748 24.425L31.748 24.425Z" id="Shape" fill="#FFFFFF" fill-rule="evenodd" stroke="none" />
  </g>
</svg>