<?xml version="1.0" encoding="utf-8"?>
<svg width="48px" height="48px" viewBox="0 0 48 48" version="1.1" xmlns:xlink="http://www.w3.org/1999/xlink" xmlns="http://www.w3.org/2000/svg">
  <defs>
    <path d="M48 0L48 0L48 48L0 48L0 0L48 0Z" id="path_1" />
    <clipPath id="clip_1">
      <use xlink:href="#path_1" clip-rule="evenodd" fill-rule="evenodd" />
    </clipPath>
  </defs>
  <g id="Adobe Indesign" clip-path="url(#clip_1)">
    <path d="M48 0L48 0L48 48L0 48L0 0L48 0Z" id="Adobe-Indesign" fill="none" stroke="none" />
    <path d="M36 6L12 6C8.686 6 6 8.686 6 12L6 36C6 39.314 8.686 42 12 42L36 42C39.314 42 42 39.314 42 36L42 12C42 8.686 39.314 6 36 6L36 6Z" id="Shape" fill="#ED3675" stroke="none" />
    <path d="M36 40L12 40C9.791 40 8 38.209 8 36L8 12C8 9.791 9.791 8 12 8L36 8C38.209 8 40 9.791 40 12L40 36C40 38.209 38.209 40 36 40L36 40Z" id="Shape" fill="#8C193F" stroke="none" />
    <path d="M20.5 14.999C20.776 14.999 21 15.223 21 15.499L21 17.953L19.917 17.953L19.917 28.99L21 28.99L21 31.444C21 31.72 20.776 31.944 20.5 31.944L16.42 31.944C16.144 31.944 15.92 31.72 15.92 31.444L15.92 28.99L17.002 28.99L17.002 17.953L15.92 17.953L15.92 15.499C15.92 15.223 16.144 14.999 16.42 14.999L20.5 14.999L20.5 14.999Z" id="Shape" fill="#FFFFFF" stroke="none" />
    <path d="M31.5 31.723L29.825 31.723C29.549 31.723 29.325 31.499 29.325 31.223L29.325 30.168L29.291 30.168C28.681 31.389 27.786 31.999 26.607 31.999C25.523 31.999 24.651 31.501 23.99 30.504C23.331 29.508 23 28.116 23 26.329C23 24.461 23.365 22.964 24.092 21.839C24.82 20.713 25.774 20.151 26.954 20.151C28.072 20.151 28.851 20.673 29.292 21.718L29.326 21.718L29.326 15.5C29.326 15.224 29.55 15 29.826 15L31.5 15C31.776 15 32 15.224 32 15.5L32 31.224C32 31.5 31.776 31.723 31.5 31.723L31.5 31.723ZM29.375 26.229L29.375 25.38C29.375 24.645 29.211 24.034 28.884 23.549C28.557 23.064 28.131 22.821 27.606 22.821C27.013 22.821 26.55 23.124 26.217 23.731C25.884 24.338 25.718 25.171 25.718 26.23C25.718 27.223 25.879 27.988 26.201 28.525C26.523 29.062 26.969 29.331 27.539 29.331C28.081 29.331 28.522 29.048 28.864 28.481C29.205 27.914 29.375 27.163 29.375 26.229L29.375 26.229Z" id="Shape" fill="#FFFFFF" fill-rule="evenodd" stroke="none" />
  </g>
</svg>