<?xml version="1.0" encoding="utf-8"?>
<svg width="48px" height="48px" viewBox="0 0 48 48" version="1.1" xmlns:xlink="http://www.w3.org/1999/xlink" xmlns="http://www.w3.org/2000/svg">
  <defs>
    <path d="M48 0L48 0L48 48L0 48L0 0L48 0Z" id="path_1" />
    <clipPath id="clip_1">
      <use xlink:href="#path_1" clip-rule="evenodd" fill-rule="evenodd" />
    </clipPath>
  </defs>
  <g id="Adobe Fireworks" clip-path="url(#clip_1)">
    <path d="M48 0L48 0L48 48L0 48L0 0L48 0Z" id="Adobe-Fireworks" fill="none" stroke="none" />
    <path d="M36 6L12 6C8.686 6 6 8.686 6 12L6 36C6 39.314 8.686 42 12 42L36 42C39.314 42 42 39.314 42 36L42 12C42 8.686 39.314 6 36 6L36 6Z" id="Shape" fill="#FAD500" stroke="none" />
    <path d="M36 40L12 40C9.791 40 8 38.209 8 36L8 12C8 9.791 9.791 8 12 8L36 8C38.209 8 40 9.791 40 12L40 36C40 38.209 38.209 40 36 40L36 40Z" id="Shape" fill="#C48C00" stroke="none" />
    <path d="M20.503 18.163L16.938 18.163C16.662 18.163 16.438 18.387 16.438 18.663L16.438 21.822C16.438 22.098 16.662 22.322 16.938 22.322L20.133 22.322C20.409 22.322 20.633 22.546 20.633 22.822L20.633 24.918C20.633 25.194 20.409 25.418 20.133 25.418L16.938 25.418C16.662 25.418 16.438 25.642 16.438 25.918L16.438 31.5C16.438 31.776 16.214 32 15.938 32L14.023 32C13.747 32 13.523 31.776 13.523 31.5L13.523 15.555C13.523 15.279 13.747 15.055 14.023 15.055L20.503 15.055C20.779 15.055 21.003 15.279 21.003 15.555L21.003 17.663C21.003 17.939 20.779 18.163 20.503 18.163L20.503 18.163Z" id="Shape" fill="#FFFFFF" stroke="none" />
    <path d="M35.994 21.607L33.794 31.607C33.744 31.837 33.541 32 33.306 32L31.397 32C31.157 32 30.951 31.83 30.906 31.594L29.745 25.554C29.663 25.124 29.616 24.656 29.606 24.147L29.557 24.147C29.518 24.705 29.464 25.16 29.393 25.511L28.146 31.6C28.098 31.833 27.894 32 27.656 32L25.777 32C25.541 32 25.338 31.836 25.288 31.605L23.133 21.605C23.066 21.294 23.304 21 23.622 21L25.218 21C25.463 21 25.673 21.178 25.712 21.42L26.801 28.176C26.855 28.512 26.897 28.921 26.924 29.4L26.973 29.4C27.001 28.899 27.049 28.476 27.12 28.132L28.483 21.4C28.531 21.167 28.736 21 28.974 21L30.616 21C30.858 21 31.065 21.173 31.108 21.411L32.33 28.176C32.363 28.354 32.401 28.77 32.445 29.422L32.503 29.422C32.531 29.007 32.574 28.592 32.634 28.176L33.66 21.425C33.697 21.18 33.907 21 34.154 21L35.506 21C35.825 21 36.063 21.295 35.994 21.607L35.994 21.607Z" id="Shape" fill="#FFFFFF" stroke="none" />
  </g>
</svg>