<?xml version="1.0" encoding="utf-8"?>
<svg width="48px" height="48px" viewBox="0 0 48 48" version="1.1" xmlns:xlink="http://www.w3.org/1999/xlink" xmlns="http://www.w3.org/2000/svg">
  <defs>
    <path d="M48 0L48 0L48 48L0 48L0 0L48 0Z" id="path_1" />
    <clipPath id="clip_1">
      <use xlink:href="#path_1" clip-rule="evenodd" fill-rule="evenodd" />
    </clipPath>
  </defs>
  <g id="Adobe Illustrator" clip-path="url(#clip_1)">
    <path d="M48 0L48 0L48 48L0 48L0 0L48 0Z" id="Adobe-Illustrator" fill="none" stroke="none" />
    <path d="M36 6L12 6C8.686 6 6 8.686 6 12L6 36C6 39.314 8.686 42 12 42L36 42C39.314 42 42 39.314 42 36L42 12C42 8.686 39.314 6 36 6L36 6Z" id="Shape" fill="#D6742D" stroke="none" />
    <path d="M36 40L12 40C9.791 40 8 38.209 8 36L8 12C8 9.791 9.791 8 12 8L36 8C38.209 8 40 9.791 40 12L40 36C40 38.209 38.209 40 36 40L36 40Z" id="Shape" fill="#CA4E2A" stroke="none" />
    <path d="M26.346 31.999L24.217 31.999C23.987 31.999 23.786 31.842 23.731 31.618L22.996 28.611C22.941 28.387 22.741 28.23 22.51 28.23L18.694 28.23C18.463 28.23 18.262 28.388 18.208 28.612L17.481 31.617C17.427 31.841 17.226 31.999 16.995 31.999L14.888 31.999C14.557 31.999 14.318 31.684 14.406 31.365L18.839 15.421C18.899 15.205 19.096 15.055 19.321 15.055L22.015 15.055C22.241 15.055 22.438 15.206 22.498 15.424L26.828 31.368C26.915 31.686 26.675 31.999 26.346 31.999L26.346 31.999ZM21.598 25.3C21.922 25.3 22.161 24.996 22.084 24.681L20.845 19.603C20.743 19.178 20.671 18.669 20.629 18.079L20.557 18.079C20.527 18.576 20.452 19.068 20.331 19.557L19.075 24.681C18.998 24.996 19.236 25.3 19.561 25.3L21.598 25.3L21.598 25.3Z" id="Shape" fill="#FFFFFF" fill-rule="evenodd" stroke="none" />
    <path d="M30.357 17.986C29.876 17.986 29.482 17.798 29.175 17.424C28.868 17.05 28.715 16.591 28.715 16.047C28.715 15.488 28.868 15.031 29.175 14.677C29.482 14.323 29.875 14.145 30.357 14.145C30.844 14.145 31.24 14.323 31.544 14.677C31.848 15.031 32 15.489 32 16.047C32 16.614 31.848 17.079 31.544 17.442C31.24 17.805 30.844 17.986 30.357 17.986L30.357 17.986ZM31.265 31.999L29.413 31.999C29.137 31.999 28.913 31.775 28.913 31.499L28.913 20.4C28.913 20.124 29.137 19.9 29.413 19.9L31.265 19.9C31.541 19.9 31.765 20.124 31.765 20.4L31.765 31.5C31.765 31.775 31.542 31.999 31.265 31.999L31.265 31.999Z" id="Shape" fill="#FFFFFF" fill-rule="evenodd" stroke="none" />
  </g>
</svg>