<?xml version="1.0" encoding="utf-8"?>
<svg width="48px" height="48px" viewBox="0 0 48 48" version="1.1" xmlns:xlink="http://www.w3.org/1999/xlink" xmlns="http://www.w3.org/2000/svg">
  <defs>
    <path d="M48 0L48 0L48 48L0 48L0 0L48 0Z" id="path_1" />
    <clipPath id="clip_1">
      <use xlink:href="#path_1" clip-rule="evenodd" fill-rule="evenodd" />
    </clipPath>
  </defs>
  <g id="Adobe Animate" clip-path="url(#clip_1)">
    <path d="M48 0L48 0L48 48L0 48L0 0L48 0Z" id="Adobe-Animate" fill="none" stroke="none" />
    <path d="M36 6L12 6C8.686 6 6 8.686 6 12L6 36C6 39.314 8.686 42 12 42L36 42C39.314 42 42 39.314 42 36L42 12C42 8.686 39.314 6 36 6L36 6Z" id="Shape" fill="#DE490D" stroke="none" />
    <path d="M36 40L12 40C9.791 40 8 38.209 8 36L8 12C8 9.791 9.791 8 12 8L36 8C38.209 8 40 9.791 40 12L40 36C40 38.209 38.209 40 36 40L36 40Z" id="Shape" fill="#B31523" stroke="none" />
    <path d="M24.115 31.999L21.986 31.999C21.756 31.999 21.555 31.842 21.5 31.618L20.765 28.611C20.71 28.387 20.51 28.23 20.279 28.23L16.463 28.23C16.232 28.23 16.031 28.388 15.977 28.612L15.25 31.617C15.196 31.841 14.995 31.999 14.764 31.999L12.657 31.999C12.326 31.999 12.087 31.684 12.175 31.365L16.61 15.42C16.67 15.204 16.867 15.054 17.092 15.054L19.786 15.054C20.012 15.054 20.209 15.205 20.269 15.423L24.599 31.368C24.684 31.686 24.445 31.999 24.115 31.999L24.115 31.999ZM19.368 25.3C19.692 25.3 19.931 24.996 19.854 24.681L18.615 19.604C18.513 19.179 18.441 18.67 18.399 18.08L18.327 18.08C18.297 18.577 18.222 19.069 18.101 19.557L16.845 24.681C16.768 24.996 17.006 25.3 17.331 25.3L19.368 25.3L19.368 25.3Z" id="Shape" fill="#FFFFFF" fill-rule="evenodd" stroke="none" />
    <path d="M34.935 31.999L33.093 31.999C32.817 31.999 32.593 31.775 32.593 31.499L32.593 25.275C32.593 23.4 32.081 22.463 31.059 22.463C30.566 22.463 30.16 22.711 29.84 23.207C29.522 23.704 29.362 24.334 29.362 25.098L29.362 31.499C29.362 31.775 29.138 31.999 28.862 31.999L27.01 31.999C26.734 31.999 26.51 31.775 26.51 31.499L26.51 20.399C26.51 20.123 26.734 19.899 27.01 19.899L28.862 19.899C29.138 19.899 29.362 20.123 29.362 20.399L29.362 21.814L29.398 21.814C30.078 20.341 31.067 19.604 32.367 19.604C34.412 19.604 35.434 21.266 35.434 24.591L35.434 31.5C35.435 31.775 35.211 31.999 34.935 31.999L34.935 31.999Z" id="Shape" fill="#FFFFFF" stroke="none" />
  </g>
</svg>