<?xml version="1.0" encoding="utf-8"?>
<svg width="48px" height="48px" viewBox="0 0 48 48" version="1.1" xmlns:xlink="http://www.w3.org/1999/xlink" xmlns="http://www.w3.org/2000/svg">
  <defs>
    <linearGradient gradientUnits="userSpaceOnUse" x1="0.5290003" y1="10.472" x2="5.6" y2="5.3999996" id="gradient_1">
      <stop offset="0%" stop-color="#3079D6" />
      <stop offset="100%" stop-color="#297CD2" />
    </linearGradient>
    <path d="M0 0L48 0L48 48L0 48L0 0Z" id="path_1" />
    <path d="M0 0L26 0L26 26L0 26L0 0Z" id="path_2" />
    <clipPath id="mask_1">
      <use xlink:href="#path_1" />
    </clipPath>
    <clipPath id="mask_2">
      <use xlink:href="#path_2" />
    </clipPath>
  </defs>
  <g id="File-Icon-2">
    <path d="M0 0L48 0L48 48L0 48L0 0Z" id="Background" fill="#FFFFFF" fill-opacity="0" fill-rule="evenodd" stroke="none" />
    <path d="M39 16L39 41C39 42.105 38.105 43 37 43L11 43C9.895 43 9 42.105 9 41L9 7C9 5.895 9.895 5 11 5L28 5L39 16L39 16Z" id="Shape" fill="#50E6FF" stroke="none" />
    <path d="M28 5L28 14C28 15.105 28.895 16 30 16L39 16L28 5L28 5Z" id="Shape" fill="url(#gradient_1)" stroke="none" />
  </g>
  <g id="Android-OS-Icon" transform="translate(11 15)" style="mix-blend-mode: multiply;">
    <path d="M0 0L26 0L26 26L0 26L0 0Z" id="Background" fill="#FFFFFF" fill-opacity="0" fill-rule="evenodd" stroke="none" />
    <path d="M13 7.631C6.18962 7.631 0.600167 12.8462 0 19.5L26 19.5C25.3998 12.8462 19.8104 7.631 13 7.631L13 7.631ZM17.972 14.6678C17.972 14.0698 18.4567 13.585 19.0547 13.585C19.6527 13.585 20.1375 14.0698 20.1375 14.6678C20.1375 15.2658 19.6527 15.7506 19.0547 15.7506C18.4567 15.7506 17.972 15.2658 17.972 14.6678L17.972 14.6678ZM6.94525 15.7506C6.34725 15.7506 5.86246 15.2658 5.86246 14.6678C5.86246 14.0698 6.34725 13.585 6.94525 13.585C7.54325 13.585 8.02804 14.0698 8.02804 14.6678C8.02804 15.2658 7.54325 15.7506 6.94525 15.7506L6.94525 15.7506Z" id="Shape" fill="#2DCC77" fill-rule="evenodd" stroke="none" />
    <path d="M18.4373 10.4612C18.3614 10.4612 18.285 10.4423 18.2152 10.4016C18.0023 10.2787 17.9297 10.0068 18.0521 9.79388L20.8672 4.91455C20.9901 4.70113 21.262 4.628 21.4749 4.7515C21.6878 4.87446 21.7604 5.14638 21.638 5.35925L18.8229 10.2386C18.7406 10.3816 18.5911 10.4612 18.4373 10.4612L18.4373 10.4612Z" id="Shape" fill="#2DCC77" stroke="none" />
    <path d="M7.56274 10.4612C7.40891 10.4612 7.25941 10.381 7.17708 10.2386L4.36258 5.35925C4.23962 5.14638 4.31274 4.87446 4.52508 4.7515C4.73741 4.62801 5.00987 4.70113 5.13283 4.91455L7.94787 9.79388C8.07083 10.0073 7.9977 10.2792 7.78483 10.4016C7.71495 10.4423 7.63858 10.4612 7.56274 10.4612L7.56274 10.4612Z" id="Shape" fill="#2DCC77" stroke="none" />
  </g>
</svg>