<?xml version="1.0" encoding="utf-8"?>
<svg width="48px" height="48px" viewBox="0 0 48 48" version="1.1" xmlns:xlink="http://www.w3.org/1999/xlink" xmlns="http://www.w3.org/2000/svg">
  <defs>
    <path d="M48 0L48 0L48 48L0 48L0 0L48 0Z" id="path_1" />
    <clipPath id="clip_1">
      <use xlink:href="#path_1" />
    </clipPath>
  </defs>
  <g id="Android Phone" clip-path="url(#clip_1)">
    <path d="M48 0L48 0L48 48L0 48L0 0L48 0Z" id="Android-Phone" fill="none" stroke="none" />
    <path d="M34 45L14 45C12.895 45 12 44.105 12 43L12 9L36 9L36 43C36 44.105 35.105 45 34 45L34 45Z" id="Shape" fill="#0DAD57" stroke="none" />
    <path d="M29.26 22.395L30.183 20.796C30.602 20.055 30.318 19.415 29.718 19.06C29.118 18.705 28.392 18.887 27.975 19.525L27.001 21.213C26.037 20.869 25.019 20.697 24 20.697C22.981 20.697 21.963 20.869 20.999 21.213L20.025 19.525C19.787 19.015 18.97 18.66 18.282 19.06C17.678 19.412 17.47 20.191 17.818 20.798L18.74 22.395C16.615 23.917 14.905 27.174 14.905 30L33.094 30C33.095 27.447 31.385 23.917 29.26 22.395L29.26 22.395Z" id="Shape" fill="#000000" fill-opacity="0.05" stroke="none" />
    <path d="M28.588 22.559L29.749 20.547C29.996 20.111 29.832 19.707 29.466 19.492C29.1 19.277 28.654 19.39 28.407 19.775L27.214 21.843C26.212 21.425 25.122 21.198 23.999 21.198C22.876 21.198 21.786 21.425 20.784 21.843L19.591 19.775C19.434 19.455 18.942 19.254 18.532 19.492C18.164 19.706 18.038 20.179 18.25 20.548L19.41 22.559C17.221 23.952 15.573 26.735 15.451 29.5L32.546 29.5C32.425 26.872 30.777 23.951 28.588 22.559L28.588 22.559Z" id="Shape" fill="#000000" fill-opacity="0.07" stroke="none" />
    <path d="M36 9L12 9L12 6C12 4.895 12.895 4 14 4L34 4C35.105 4 36 4.895 36 6L36 9L36 9Z" id="Shape" fill="#30DC80" stroke="none" />
    <path d="M19.25 6.5C19.25 6.08579 19.5858 5.75 20 5.75C20.4142 5.75 20.75 6.08579 20.75 6.5C20.75 6.91421 20.4142 7.25 20 7.25C19.5858 7.25 19.25 6.91421 19.25 6.5Z" id="Circle" fill="#146941" fill-rule="evenodd" stroke="none" />
    <path d="M27.5 5.75C27.306 5.75 22.694 5.75 22.5 5.75C22.086 5.75 21.75 6.086 21.75 6.5C21.75 6.914 22.086 7.25 22.5 7.25C22.694 7.25 27.306 7.25 27.5 7.25C27.914 7.25 28.25 6.914 28.25 6.5C28.25 6.086 27.914 5.75 27.5 5.75L27.5 5.75Z" id="Shape" fill="#146941" stroke="none" />
    <path d="M24 21.696C19.809 21.696 16.369 24.905 16 29L32 29C31.631 24.905 28.191 21.696 24 21.696L24 21.696ZM27.06 26.026C27.06 25.658 27.358 25.36 27.726 25.36C28.094 25.36 28.392 25.658 28.392 26.026C28.392 26.394 28.094 26.692 27.726 26.692C27.358 26.692 27.06 26.394 27.06 26.026L27.06 26.026ZM20.274 26.693C19.906 26.693 19.608 26.395 19.608 26.027C19.608 25.659 19.906 25.361 20.274 25.361C20.642 25.361 20.94 25.659 20.94 26.027C20.94 26.394 20.642 26.693 20.274 26.693L20.274 26.693Z" id="Shape" fill="#FFFFFF" fill-rule="evenodd" stroke="none" />
    <path d="M27.346 23.438C27.299 23.438 27.252 23.426 27.209 23.401C27.078 23.325 27.033 23.158 27.109 23.027L28.841 20.024C28.917 19.893 29.084 19.848 29.215 19.924C29.346 20 29.391 20.167 29.315 20.298L27.583 23.301C27.533 23.389 27.441 23.438 27.346 23.438L27.346 23.438Z" id="Shape" fill="#FFFFFF" stroke="none" />
    <path d="M20.654 23.438C20.559 23.438 20.467 23.389 20.417 23.301L18.685 20.298C18.609 20.167 18.654 19.999 18.785 19.924C18.916 19.848 19.083 19.893 19.159 20.024L20.891 23.027C20.967 23.158 20.922 23.326 20.791 23.401C20.748 23.426 20.701 23.438 20.654 23.438L20.654 23.438Z" id="Shape" fill="#FFFFFF" stroke="none" />
  </g>
</svg>