<?xml version="1.0" encoding="utf-8"?>
<svg width="48px" height="48px" viewBox="0 0 48 48" version="1.1" xmlns:xlink="http://www.w3.org/1999/xlink" xmlns="http://www.w3.org/2000/svg">
  <defs>
    <linearGradient gradientUnits="userSpaceOnUse" x1="17" y1="1.7409998" x2="17" y2="7.66" id="gradient_1">
      <stop offset="0%" stop-color="#484B4F" />
      <stop offset="42.699997%" stop-color="#656D75" />
      <stop offset="79.799995%" stop-color="#727D86" />
    </linearGradient>
    <linearGradient gradientUnits="userSpaceOnUse" x1="17.000002" y1="3.2590008" x2="17.000002" y2="-2.659998" id="gradient_2">
      <stop offset="0%" stop-color="#484B4F" />
      <stop offset="42.699997%" stop-color="#656D75" />
      <stop offset="79.799995%" stop-color="#727D86" />
    </linearGradient>
    <linearGradient gradientUnits="userSpaceOnUse" x1="17" y1="0.5059991" x2="17" y2="2.6689997" id="gradient_3">
      <stop offset="0%" stop-color="#484B4F" />
      <stop offset="42.699997%" stop-color="#656D75" />
      <stop offset="79.799995%" stop-color="#727D86" />
    </linearGradient>
    <linearGradient gradientUnits="userSpaceOnUse" x1="16.999998" y1="2.4939995" x2="16.999998" y2="0.4859991" id="gradient_4">
      <stop offset="0%" stop-color="#484B4F" />
      <stop offset="42.699997%" stop-color="#656D75" />
      <stop offset="79.799995%" stop-color="#727D86" />
    </linearGradient>
    <linearGradient gradientUnits="userSpaceOnUse" x1="3.2299995" y1="-0.117999434" x2="27.808" y2="20.619001" id="gradient_5">
      <stop offset="0%" stop-color="#C3CDD9" />
      <stop offset="100%" stop-color="#9FA7B0" />
    </linearGradient>
    <linearGradient gradientUnits="userSpaceOnUse" x1="6" y1="1.9549999" x2="6" y2="-1.5959988" id="gradient_6">
      <stop offset="0%" stop-color="#737B80" />
      <stop offset="47.3%" stop-color="#686F74" />
      <stop offset="100%" stop-color="#575C61" />
    </linearGradient>
    <path d="M0 0L48 0L48 48L0 48L0 0Z" id="path_1" />
    <clipPath id="clip_1">
      <use xlink:href="#path_1" />
    </clipPath>
  </defs>
  <g id="Programming Logic Controller" clip-path="url(#clip_1)">
    <path d="M0 0L48 0L48 48L0 48L0 0Z" id="Programming-Logic-Controller" fill="none" fill-rule="evenodd" stroke="none" />
    <path d="M41 42L7 42L7 37L41 37L41 42L41 42Z" id="Shape" fill="url(#gradient_1)" stroke="none" />
    <path d="M7 7L41 7L41 12L7 12L7 7L7 7Z" id="Shape" fill="url(#gradient_2)" stroke="none" />
    <path d="M41 38L7 38L7 35L41 35L41 38L41 38Z" id="Shape" fill="url(#gradient_3)" stroke="none" />
    <path d="M7 11L41 11L41 14L7 14L7 11L7 11Z" id="Shape" fill="url(#gradient_4)" stroke="none" />
    <path d="M41 36L7 36L7 13L41 13L41 36L41 36Z" id="Shape" fill="url(#gradient_5)" stroke="none" />
    <path d="M38.515 18L27.485 18C27.217 18 27 17.783 27 17.515L27 15.485C27 15.217 27.217 15 27.485 15L38.515 15C38.783 15 39 15.217 39 15.485L39 17.515C39 17.783 38.783 18 38.515 18L38.515 18Z" id="Shape" fill="url(#gradient_6)" stroke="none" />
    <path d="M31.563 34L27.437 34C27.196 34 27 33.804 27 33.563L27 32.437C27 32.196 27.196 32 27.437 32L31.563 32C31.804 32 32 32.196 32 32.437L32 33.563C32 33.804 31.804 34 31.563 34L31.563 34Z" id="Shape" fill="#50E6FF" stroke="none" />
    <path d="M38.563 34L34.437 34C34.196 34 34 33.804 34 33.563L34 32.437C34 32.196 34.196 32 34.437 32L38.563 32C38.804 32 39 32.196 39 32.437L39 33.563C39 33.804 38.804 34 38.563 34L38.563 34Z" id="Shape" fill="#50E6FF" stroke="none" />
    <path d="M23.874 31L10.126 31C9.504 31 9 30.496 9 29.874L9 19.126C9 18.504 9.504 18 10.126 18L23.874 18C24.496 18 25 18.504 25 19.126L25 29.874C25 30.496 24.496 31 23.874 31L23.874 31Z" id="Shape" fill="#000000" fill-opacity="0.05" stroke="none" />
    <path d="M23.654 30.472L10.346 30.472C9.867 30.472 9.479 30.084 9.479 29.605L9.479 19.395C9.479 18.916 9.867 18.528 10.346 18.528L23.655 18.528C24.134 18.528 24.522 18.916 24.522 19.395L24.522 29.604C24.521 30.084 24.133 30.472 23.654 30.472L23.654 30.472Z" id="Shape" fill="#000000" fill-opacity="0.07" stroke="none" />
    <path d="M23.215 30L10.785 30C10.352 30 10 29.648 10 29.215L10 19.786C10 19.352 10.352 19 10.785 19L23.214 19C23.648 19 24 19.352 24 19.785L24 29.214C24 29.648 23.648 30 23.215 30L23.215 30Z" id="Shape" fill="#61E3A7" stroke="none" />
    <path d="M9 40C9 39.4477 9.44771 39 10 39C10.5523 39 11 39.4477 11 40C11 40.5523 10.5523 41 10 41C9.44771 41 9 40.5523 9 40Z" id="Circle" fill="#FFFFFF" fill-rule="evenodd" stroke="none" />
    <path d="M12 40C12 39.4477 12.4477 39 13 39C13.5523 39 14 39.4477 14 40C14 40.5523 13.5523 41 13 41C12.4477 41 12 40.5523 12 40Z" id="Circle" fill="#FFFFFF" fill-rule="evenodd" stroke="none" />
    <path d="M17 40C17 39.4477 17.4477 39 18 39C18.5523 39 19 39.4477 19 40C19 40.5523 18.5523 41 18 41C17.4477 41 17 40.5523 17 40Z" id="Circle" fill="#FFFFFF" fill-rule="evenodd" stroke="none" />
    <path d="M20 40C20 39.4477 20.4477 39 21 39C21.5523 39 22 39.4477 22 40C22 40.5523 21.5523 41 21 41C20.4477 41 20 40.5523 20 40Z" id="Circle" fill="#FFFFFF" fill-rule="evenodd" stroke="none" />
    <path d="M23 9C23 8.44771 23.4477 8 24 8C24.5523 8 25 8.44771 25 9C25 9.55228 24.5523 10 24 10C23.4477 10 23 9.55228 23 9Z" id="Circle" fill="#FFFFFF" fill-rule="evenodd" stroke="none" />
    <path d="M10 9C10 8.44771 10.4477 8 11 8C11.5523 8 12 8.44771 12 9C12 9.55228 11.5523 10 11 10C10.4477 10 10 9.55228 10 9Z" id="Circle" fill="#FFFFFF" fill-rule="evenodd" stroke="none" />
    <path d="M36 9C36 8.44771 36.4477 8 37 8C37.5523 8 38 8.44771 38 9C38 9.55228 37.5523 10 37 10C36.4477 10 36 9.55228 36 9Z" id="Circle" fill="#FFFFFF" fill-rule="evenodd" stroke="none" />
    <path d="M26 40C26 39.4477 26.4477 39 27 39C27.5523 39 28 39.4477 28 40C28 40.5523 27.5523 41 27 41C26.4477 41 26 40.5523 26 40Z" id="Circle" fill="#FFFFFF" fill-rule="evenodd" stroke="none" />
    <path d="M29 40C29 39.4477 29.4477 39 30 39C30.5523 39 31 39.4477 31 40C31 40.5523 30.5523 41 30 41C29.4477 41 29 40.5523 29 40Z" id="Circle" fill="#FFFFFF" fill-rule="evenodd" stroke="none" />
    <path d="M34 40C34 39.4477 34.4477 39 35 39C35.5523 39 36 39.4477 36 40C36 40.5523 35.5523 41 35 41C34.4477 41 34 40.5523 34 40Z" id="Circle" fill="#FFFFFF" fill-rule="evenodd" stroke="none" />
    <path d="M37 40C37 39.4477 37.4477 39 38 39C38.5523 39 39 39.4477 39 40C39 40.5523 38.5523 41 38 41C37.4477 41 37 40.5523 37 40Z" id="Circle" fill="#FFFFFF" fill-rule="evenodd" stroke="none" />
  </g>
</svg>