<?xml version="1.0" encoding="utf-8"?>
<svg width="48px" height="48px" viewBox="0 0 48 48" version="1.1" xmlns:xlink="http://www.w3.org/1999/xlink" xmlns="http://www.w3.org/2000/svg">
  <defs>
    <path d="M48 0L48 0L48 48L0 48L0 0L48 0Z" id="path_1" />
    <clipPath id="clip_1">
      <use xlink:href="#path_1" clip-rule="evenodd" fill-rule="evenodd" />
    </clipPath>
  </defs>
  <g id="Musical Notes" clip-path="url(#clip_1)">
    <path d="M48 0L48 0L48 48L0 48L0 0L48 0Z" id="Musical-Notes" fill="none" stroke="none" />
    <path d="M34 29C30.686 29 28 31.686 28 35C28 38.314 30.686 41 34 41C37.314 41 40 38.314 40 35C40 31.686 37.314 29 34 29L34 29Z" id="Shape" fill="#ED3675" stroke="none" />
    <path d="M10 31C6.686 31 4 33.686 4 37C4 40.314 6.686 43 10 43C13.314 43 16 40.314 16 37C16 33.686 13.314 31 10 31L10 31Z" id="Shape" fill="#ED3675" stroke="none" />
    <path d="M36 6.389L16 10.736L16 19.736L36 15.389L36 6.389Z" id="Polygon" fill="#CC1B4E" fill-rule="evenodd" stroke="none" />
    <path d="M37.575 5.046L13.575 10.262C12.656 10.463 12 11.276 12 12.217L12 37L16 37L16 15L36 10.653L36 35L40 35L40 7.001C40 5.725 38.822 4.775 37.575 5.046L37.575 5.046Z" id="Shape" fill="#ED3675" stroke="none" />
  </g>
</svg>