<?xml version="1.0" encoding="utf-8"?>
<svg width="48px" height="48px" viewBox="0 0 48 48" version="1.1" xmlns:xlink="http://www.w3.org/1999/xlink" xmlns="http://www.w3.org/2000/svg">
  <defs>
    <linearGradient gradientUnits="objectBoundingBox" x1="0.29670835" y1="0.043806434" x2="0.6285834" y2="1.0224193" id="gradient_1">
      <stop offset="0%" stop-color="#2AA4F4" />
      <stop offset="100%" stop-color="#007AD9" />
    </linearGradient>
    <path d="M48 0L48 0L48 48L0 48L0 0L48 0Z" id="path_1" />
    <clipPath id="clip_1">
      <use xlink:href="#path_1" clip-rule="evenodd" fill-rule="evenodd" />
    </clipPath>
  </defs>
  <g id="Cloud Backup Restore" clip-path="url(#clip_1)">
    <path d="M48 0L48 0L48 48L0 48L0 0L48 0Z" id="Cloud-Backup-Restore" fill="none" stroke="none" />
    <path d="M48 26C48 32.63 42.63 38 36 38C34.2 38 11.34 38 9.5 38C4.25 38 0 33.75 0 28.5C0 23.96 3.18 20.16 7.45 19.22C9.15 12.21 15.46 7 23 7C28.51 7 33.36 9.78 36.24 14.01C42.76 14.13 48 19.45 48 26L48 26Z" id="Shape" fill="url(#gradient_1)" stroke="none" />
    <path d="M24.179 28.926C23.945 28.363 23.401 28 22.793 28L22 28L22 17.5C22 16.673 21.327 16 20.5 16L19.5 16C18.673 16 18 16.673 18 17.5L18 28L17.207 28C16.599 28 16.055 28.363 15.821 28.926C15.588 29.488 15.716 30.129 16.146 30.561L18.939 33.354C19.231 33.647 19.615 33.792 20 33.792C20.385 33.792 20.768 33.646 21.061 33.354L23.854 30.561C24.284 30.129 24.412 29.487 24.179 28.926L24.179 28.926Z" id="Shape" fill="#000000" fill-opacity="0.05" stroke="none" />
    <path d="M23.717 29.117C23.561 28.742 23.199 28.5 22.793 28.5L21.5 28.5L21.5 17.5C21.5 16.948 21.051 16.5 20.5 16.5L19.5 16.5C18.949 16.5 18.5 16.948 18.5 17.5L18.5 28.5L17.207 28.5C16.801 28.5 16.439 28.742 16.283 29.117C16.128 29.491 16.213 29.92 16.5 30.207L19.293 33C19.488 33.195 19.744 33.292 20 33.292C20.256 33.292 20.512 33.195 20.707 33L23.5 30.207C23.787 29.92 23.872 29.491 23.717 29.117L23.717 29.117Z" id="Shape" fill="#000000" fill-opacity="0.07" stroke="none" />
    <path d="M22.793 29L21 29L21 17.5C21 17.224 20.776 17 20.5 17L19.5 17C19.224 17 19 17.224 19 17.5L19 29L17.207 29C16.762 29 16.538 29.539 16.853 29.854L19.646 32.647C19.841 32.842 20.158 32.842 20.353 32.647L23.146 29.854C23.461 29.539 23.238 29 22.793 29L22.793 29Z" id="Shape" fill="#FFFFFF" stroke="none" />
    <path d="M23.821 20.074C24.055 20.637 24.599 21 25.207 21L26 21L26 31.5C26 32.327 26.673 33 27.5 33L28.5 33C29.327 33 30 32.327 30 31.5L30 21L30.793 21C31.401 21 31.945 20.637 32.179 20.074C32.412 19.512 32.284 18.871 31.854 18.439L29.061 15.646C28.769 15.353 28.385 15.208 28 15.208C27.615 15.208 27.232 15.354 26.939 15.646L24.146 18.439C23.716 18.871 23.588 19.513 23.821 20.074L23.821 20.074Z" id="Shape" fill="#000000" fill-opacity="0.05" stroke="none" />
    <path d="M24.283 19.883C24.439 20.258 24.801 20.5 25.207 20.5L26.5 20.5L26.5 31.5C26.5 32.052 26.949 32.5 27.5 32.5L28.5 32.5C29.051 32.5 29.5 32.052 29.5 31.5L29.5 20.5L30.793 20.5C31.199 20.5 31.561 20.258 31.717 19.883C31.872 19.509 31.787 19.08 31.5 18.793L28.707 16C28.512 15.805 28.256 15.708 28 15.708C27.744 15.708 27.488 15.805 27.293 16L24.5 18.793C24.213 19.08 24.128 19.509 24.283 19.883L24.283 19.883Z" id="Shape" fill="#000000" fill-opacity="0.07" stroke="none" />
    <path d="M25.207 20L27 20L27 31.5C27 31.776 27.224 32 27.5 32L28.5 32C28.776 32 29 31.776 29 31.5L29 20L30.793 20C31.238 20 31.462 19.461 31.147 19.146L28.354 16.353C28.159 16.158 27.842 16.158 27.647 16.353L24.854 19.146C24.539 19.461 24.762 20 25.207 20L25.207 20Z" id="Shape" fill="#FFFFFF" stroke="none" />
  </g>
</svg>