<?xml version="1.0" encoding="utf-8"?>
<svg width="48px" height="48px" viewBox="0 0 48 48" version="1.1" xmlns:xlink="http://www.w3.org/1999/xlink" xmlns="http://www.w3.org/2000/svg">
  <defs>
    <linearGradient gradientUnits="userSpaceOnUse" x1="0.5290003" y1="10.472" x2="5.6" y2="5.3999996" id="gradient_1">
      <stop offset="0%" stop-color="#3079D6" />
      <stop offset="100%" stop-color="#297CD2" />
    </linearGradient>
    <linearGradient gradientUnits="userSpaceOnUse" x1="2.5412498" y1="-7.2650003" x2="15.583748" y2="17.265" id="gradient_2">
      <stop offset="0%" stop-color="#899198" />
      <stop offset="100%" stop-color="#787E85" />
    </linearGradient>
    <linearGradient gradientUnits="userSpaceOnUse" x1="-23.04875" y1="-20.350626" x2="-22.377502" y2="-18.466877" id="gradient_3">
      <stop offset="0%" stop-color="#32BDEF" />
      <stop offset="100%" stop-color="#1EA2E4" />
    </linearGradient>
    <linearGradient gradientUnits="userSpaceOnUse" x1="-20" y1="-3.125" x2="-20" y2="47.188126" id="gradient_4">
      <stop offset="0%" stop-color="#737B80" />
      <stop offset="47.3%" stop-color="#686F74" />
      <stop offset="100%" stop-color="#575C61" />
    </linearGradient>
    <linearGradient gradientUnits="userSpaceOnUse" x1="-15.924995" y1="-14.438749" x2="-11.097498" y2="10.453748" id="gradient_5">
      <stop offset="0%" stop-color="#737B80" />
      <stop offset="47.3%" stop-color="#686F74" />
      <stop offset="100%" stop-color="#575C61" />
    </linearGradient>
    <linearGradient gradientUnits="userSpaceOnUse" x1="-10.74375" y1="-13.503748" x2="-5.9168744" y2="11.388125" id="gradient_6">
      <stop offset="0%" stop-color="#737B80" />
      <stop offset="47.3%" stop-color="#686F74" />
      <stop offset="100%" stop-color="#575C61" />
    </linearGradient>
    <linearGradient gradientUnits="userSpaceOnUse" x1="-5.562501" y1="-12.569373" x2="-0.73562497" y2="12.322499" id="gradient_7">
      <stop offset="0%" stop-color="#737B80" />
      <stop offset="47.3%" stop-color="#686F74" />
      <stop offset="100%" stop-color="#575C61" />
    </linearGradient>
    <path d="M0 0L48 0L48 48L0 48L0 0Z" id="path_1" />
    <clipPath id="mask_1">
      <use xlink:href="#path_1" />
    </clipPath>
  </defs>
  <g id="File-Icon-2">
    <path d="M0 0L48 0L48 48L0 48L0 0Z" id="Background" fill="#FFFFFF" fill-opacity="0" fill-rule="evenodd" stroke="none" />
    <path d="M39 16L39 41C39 42.105 38.105 43 37 43L11 43C9.895 43 9 42.105 9 41L9 7C9 5.895 9.895 5 11 5L28 5L39 16L39 16Z" id="Shape" fill="#50E6FF" stroke="none" />
    <path d="M28 5L28 14C28 15.105 28.895 16 30 16L39 16L28 5L28 5Z" id="Shape" fill="url(#gradient_1)" stroke="none" />
  </g>
  <g id="svg" transform="translate(8 14)">
    <g id="NAS-Icon">
      <path d="M0 0L30 0L30 30L0 30L0 0L0 0Z" id="Background" fill="#FFFFFF" fill-opacity="0" fill-rule="evenodd" stroke="none" />
      <path d="M25.625 25L4.99999 25C3.96437 25 3.12499 24.1606 3.12499 23.125L3.12499 6.87499C3.12499 5.83937 3.96437 4.99999 4.99999 4.99999L25.625 4.99999C26.6606 4.99999 27.5 5.83937 27.5 6.87499L27.5 23.125C27.5 24.1606 26.6606 25 25.625 25L25.625 25L25.625 25Z" id="Shape" fill="url(#gradient_2)" stroke="none" />
      <path d="M23.75 8.4375C23.75 7.91975 24.1697 7.5 24.6875 7.5C25.2052 7.5 25.625 7.91975 25.625 8.4375C25.625 8.95525 25.2052 9.375 24.6875 9.375C24.1697 9.375 23.75 8.95525 23.75 8.4375L23.75 8.4375Z" id="Circle" fill="#33C481" fill-rule="evenodd" stroke="none" />
      <path d="M23.75 11.5625C23.75 11.0447 24.1697 10.625 24.6875 10.625C25.2052 10.625 25.625 11.0447 25.625 11.5625C25.625 12.0802 25.2052 12.5 24.6875 12.5C24.1697 12.5 23.75 12.0802 23.75 11.5625L23.75 11.5625Z" id="Circle#1" fill="#33C481" fill-rule="evenodd" stroke="none" />
      <path d="M23.75 14.6875C23.75 14.1698 24.1697 13.75 24.6875 13.75C25.2052 13.75 25.625 14.1698 25.625 14.6875C25.625 15.2053 25.2052 15.625 24.6875 15.625C24.1697 15.625 23.75 15.2053 23.75 14.6875L23.75 14.6875Z" id="Circle#2" fill="#33C481" fill-rule="evenodd" stroke="none" />
      <path d="M23.75 21.5625C23.75 21.0448 24.1697 20.625 24.6875 20.625C25.2052 20.625 25.625 21.0448 25.625 21.5625C25.625 22.0802 25.2052 22.5 24.6875 22.5C24.1697 22.5 23.75 22.0802 23.75 21.5625L23.75 21.5625Z" id="Circle#3" fill="url(#gradient_3)" fill-rule="evenodd" stroke="none" />
      <path d="M20.625 4.99999L21.875 4.99999L21.875 25L20.625 25L20.625 4.99999L20.625 4.99999Z" id="Rectangle" fill="url(#gradient_4)" fill-rule="evenodd" stroke="none" />
      <path d="M5.62501 23.125C4.93563 23.125 4.37501 22.5644 4.37501 21.875L4.37501 8.12499C4.37501 7.43562 4.93563 6.87499 5.62501 6.87499L8.125 6.87499C8.81438 6.87499 9.375 7.43562 9.375 8.12499L9.375 21.875C9.375 22.5644 8.81438 23.125 8.125 23.125L5.62501 23.125L5.62501 23.125L5.62501 23.125Z" id="Shape#1" fill="#000000" fill-opacity="0.050980393" stroke="none" />
      <path d="M5.625 22.8125C5.10813 22.8125 4.6875 22.3919 4.6875 21.875L4.6875 8.125C4.6875 7.60813 5.10813 7.1875 5.625 7.1875L8.125 7.1875C8.64187 7.1875 9.0625 7.60813 9.0625 8.125L9.0625 21.875C9.0625 22.3919 8.64187 22.8125 8.125 22.8125L5.625 22.8125L5.625 22.8125L5.625 22.8125Z" id="Shape#2" fill="#000000" fill-opacity="0.07058824" stroke="none" />
      <path d="M10.625 23.125C9.93563 23.125 9.375 22.5644 9.375 21.875L9.375 8.12499C9.375 7.43562 9.93563 6.87499 10.625 6.87499L13.125 6.87499C13.8144 6.87499 14.375 7.43562 14.375 8.12499L14.375 21.875C14.375 22.5644 13.8144 23.125 13.125 23.125L10.625 23.125L10.625 23.125L10.625 23.125Z" id="Shape#3" fill="#000000" fill-opacity="0.050980393" stroke="none" />
      <path d="M10.625 22.8125C10.1081 22.8125 9.68749 22.3919 9.68749 21.875L9.68749 8.125C9.68749 7.60813 10.1081 7.1875 10.625 7.1875L13.125 7.1875C13.6419 7.1875 14.0625 7.60813 14.0625 8.125L14.0625 21.875C14.0625 22.3919 13.6419 22.8125 13.125 22.8125L10.625 22.8125L10.625 22.8125L10.625 22.8125Z" id="Shape#4" fill="#000000" fill-opacity="0.07058824" stroke="none" />
      <path d="M15.625 23.125C14.9356 23.125 14.375 22.5644 14.375 21.875L14.375 8.12499C14.375 7.43562 14.9356 6.87499 15.625 6.87499L18.125 6.87499C18.8144 6.87499 19.375 7.43562 19.375 8.12499L19.375 21.875C19.375 22.5644 18.8144 23.125 18.125 23.125L15.625 23.125L15.625 23.125L15.625 23.125Z" id="Shape#5" fill="#000000" fill-opacity="0.050980393" stroke="none" />
      <path d="M15.625 22.8125C15.1081 22.8125 14.6875 22.3919 14.6875 21.875L14.6875 8.125C14.6875 7.60813 15.1081 7.1875 15.625 7.1875L18.125 7.1875C18.6419 7.1875 19.0625 7.60813 19.0625 8.125L19.0625 21.875C19.0625 22.3919 18.6419 22.8125 18.125 22.8125L15.625 22.8125L15.625 22.8125L15.625 22.8125Z" id="Shape#6" fill="#000000" fill-opacity="0.07058824" stroke="none" />
      <path d="M18.125 22.5L15.625 22.5C15.28 22.5 15 22.22 15 21.875L15 8.125C15 7.78 15.28 7.5 15.625 7.5L18.125 7.5C18.47 7.5 18.75 7.78 18.75 8.125L18.75 21.875C18.75 22.22 18.47 22.5 18.125 22.5L18.125 22.5L18.125 22.5Z" id="Shape#7" fill="url(#gradient_5)" stroke="none" />
      <path d="M13.125 22.5L10.625 22.5C10.28 22.5 10 22.22 10 21.875L10 8.125C10 7.78 10.28 7.5 10.625 7.5L13.125 7.5C13.47 7.5 13.75 7.78 13.75 8.125L13.75 21.875C13.75 22.22 13.47 22.5 13.125 22.5L13.125 22.5L13.125 22.5Z" id="Shape#8" fill="url(#gradient_6)" stroke="none" />
      <path d="M8.125 22.5L5.62499 22.5C5.27999 22.5 4.99999 22.22 4.99999 21.875L4.99999 8.125C4.99999 7.78 5.27999 7.5 5.62499 7.5L8.125 7.5C8.47 7.5 8.75 7.78 8.75 8.125L8.75 21.875C8.75 22.22 8.47 22.5 8.125 22.5L8.125 22.5L8.125 22.5Z" id="Shape#9" fill="url(#gradient_7)" stroke="none" />
      <path d="M5.93749 17.8125C5.93749 17.2948 6.35724 16.875 6.87499 16.875C7.39274 16.875 7.81249 17.2948 7.81249 17.8125C7.81249 18.3302 7.39274 18.75 6.87499 18.75C6.35724 18.75 5.93749 18.3302 5.93749 17.8125L5.93749 17.8125Z" id="Circle#4" fill="#575C61" fill-rule="evenodd" stroke="none" />
      <path d="M10.9375 17.8125C10.9375 17.2948 11.3573 16.875 11.875 16.875C12.3928 16.875 12.8125 17.2948 12.8125 17.8125C12.8125 18.3302 12.3928 18.75 11.875 18.75C11.3573 18.75 10.9375 18.3302 10.9375 17.8125L10.9375 17.8125Z" id="Circle#5" fill="#575C61" fill-rule="evenodd" stroke="none" />
      <path d="M15.9375 17.8125C15.9375 17.2948 16.3572 16.875 16.875 16.875C17.3927 16.875 17.8125 17.2948 17.8125 17.8125C17.8125 18.3302 17.3927 18.75 16.875 18.75C16.3572 18.75 15.9375 18.3302 15.9375 17.8125L15.9375 17.8125Z" id="Circle#6" fill="#575C61" fill-rule="evenodd" stroke="none" />
    </g>
  </g>
</svg>