<?xml version="1.0" encoding="utf-8"?>
<svg width="28.7px" height="17.3px" viewBox="0 0 28.7 17.3" version="1.1" xmlns:xlink="http://www.w3.org/1999/xlink" xmlns="http://www.w3.org/2000/svg">
  <path d="M-9.5 -11L-9.5 -3.8L-11 -3.8L-11 -9.2C-11.1 -9.1 -11.2 -9.1 -11.3 -9C-11.4 -8.9 -11.5 -8.9 -11.7 -8.8C-11.8 -8.7 -12 -8.7 -12.1 -8.7C-12.2 -8.7 -12.4 -8.6 -12.5 -8.6L-12.5 -9.9C-12.1 -10 -11.7 -10.2 -11.4 -10.3C-11.1 -10.4 -10.7 -10.7 -10.4 -10.9L-9.5 -10.9L-9.5 -11Z" id="Shape" fill="#184F85" stroke="none" />
  <path d="M9.5 -11L9.5 -3.8L8 -3.8L8 -9.2C7.9 -9.1 7.8 -9.1 7.7 -9C7.6 -8.9 7.5 -8.9 7.3 -8.8C7.2 -8.7 7 -8.7 6.9 -8.7C6.8 -8.7 6.6 -8.6 6.5 -8.6L6.5 -9.9C6.9 -10 7.3 -10.2 7.6 -10.3C7.9 -10.4 8.3 -10.7 8.6 -10.9L9.5 -10.9L9.5 -11Z" id="Shape" fill="#184F85" stroke="none" />
  <path d="M15.7 -11L15.7 -3.8L14.2 -3.8L14.2 -9.2C14.1 -9.1 14 -9.1 13.9 -9C13.8 -8.9 13.7 -8.9 13.5 -8.8C13.4 -8.7 13.2 -8.7 13.1 -8.7C13 -8.7 12.8 -8.6 12.7 -8.6L12.7 -9.9C13.1 -10 13.5 -10.2 13.8 -10.3C14.1 -10.4 14.5 -10.7 14.8 -10.9L15.7 -10.9L15.7 -11Z" id="Shape" fill="#184F85" stroke="none" />
  <path d="M-19.2 -22.5C-20.9 -22.5 -21.7 -23.7 -21.7 -26C-21.7 -27.2 -21.5 -28.1 -21 -28.8C-20.5 -29.4 -19.9 -29.8 -19 -29.8C-17.4 -29.8 -16.6 -28.6 -16.6 -26.2C-16.6 -25 -16.8 -24.1 -17.3 -23.5C-17.7 -22.8 -18.3 -22.5 -19.2 -22.5L-19.2 -22.5Z" id="Shape-Path" fill="none" stroke="none" />
  <path d="M-19.2 -22.5C-20.9 -22.5 -21.7 -23.7 -21.7 -26C-21.7 -27.2 -21.5 -28.1 -21 -28.8C-20.5 -29.4 -19.9 -29.8 -19 -29.8C-17.4 -29.8 -16.6 -28.6 -16.6 -26.2C-16.6 -25 -16.8 -24.1 -17.3 -23.5C-17.8 -22.8 -18.4 -22.5 -19.2 -22.5L-19.2 -22.5Z" id="Shape-Path" fill="none" stroke="none" />
  <path d="M-11.7 -29.8L-11.7 -22.6L-13.2 -22.6L-13.2 -28C-13.3 -27.9 -13.4 -27.9 -13.5 -27.8C-13.6 -27.7 -13.7 -27.7 -13.9 -27.6C-14 -27.5 -14.2 -27.5 -14.3 -27.5C-14.4 -27.5 -14.6 -27.4 -14.7 -27.4L-14.7 -28.7C-14.3 -28.8 -13.9 -29 -13.6 -29.1C-13.3 -29.2 -12.9 -29.5 -12.6 -29.7L-11.7 -29.7L-11.7 -29.8Z" id="Shape" fill="#184F85" stroke="none" />
  <path d="M7 -29.8L7 -22.6L5.5 -22.6L5.5 -28C5.4 -27.9 5.3 -27.9 5.2 -27.8C5.1 -27.7 5 -27.7 4.8 -27.6C4.7 -27.5 4.5 -27.5 4.4 -27.5C4.3 -27.5 4.1 -27.4 4 -27.4L4 -28.7C4.4 -28.8 4.8 -29 5.09999 -29.1C5.39999 -29.2 5.8 -29.5 6.09999 -29.7L7 -29.7L7 -29.8Z" id="Shape" fill="#184F85" stroke="none" />
  <path d="M-19.2 -22.5C-20.9 -22.5 -21.7 -23.7 -21.7 -26C-21.7 -27.2 -21.5 -28.1 -21 -28.8C-20.5 -29.4 -19.9 -29.8 -19 -29.8C-17.4 -29.8 -16.6 -28.6 -16.6 -26.2C-16.6 -25 -16.8 -24.1 -17.3 -23.5C-17.7 -22.8 -18.4 -22.5 -19.2 -22.5L-19.2 -22.5Z" id="Shape-Path" fill="none" stroke="none" />
  <path d="M-19.2 -22.5C-20.9 -22.5 -21.7 -23.7 -21.7 -26C-21.7 -27.2 -21.5 -28.1 -21 -28.8C-20.5 -29.4 -19.9 -29.8 -19 -29.8C-17.4 -29.8 -16.6 -28.6 -16.6 -26.2C-16.6 -25 -16.8 -24.1 -17.3 -23.5C-17.8 -22.8 -18.4 -22.5 -19.2 -22.5L-19.2 -22.5Z" id="Shape-Path" fill="none" stroke="none" />
  <path d="M-19.2 -22.5C-20.9 -22.5 -21.7 -23.7 -21.7 -26C-21.7 -27.2 -21.5 -28.1 -21 -28.8C-20.5 -29.4 -19.9 -29.8 -19 -29.8C-17.4 -29.8 -16.6 -28.6 -16.6 -26.2C-16.6 -25 -16.8 -24.1 -17.3 -23.5C-17.8 -22.8 -18.4 -22.5 -19.2 -22.5L-19.2 -22.5Z" id="Shape-Path" fill="none" stroke="none" />
</svg>