<?xml version="1.0" encoding="utf-8"?>
<svg width="48px" height="48px" viewBox="0 0 48 48" version="1.1" xmlns:xlink="http://www.w3.org/1999/xlink" xmlns="http://www.w3.org/2000/svg">
  <defs>
    <linearGradient gradientUnits="userSpaceOnUse" x1="0.5290003" y1="10.472" x2="5.6" y2="5.3999996" id="gradient_1">
      <stop offset="0%" stop-color="#3079D6" />
      <stop offset="100%" stop-color="#297CD2" />
    </linearGradient>
    <path d="M0 0L48 0L48 48L0 48L0 0L0 0Z" id="path_1" />
    <path d="M0 0L38 0L38 38L0 38L0 0L0 0Z" id="path_2" />
    <clipPath id="mask_1">
      <use xlink:href="#path_1" />
    </clipPath>
    <clipPath id="mask_2">
      <use xlink:href="#path_2" />
    </clipPath>
  </defs>
  <g id="svg-3">
    <g id="icons8_file">
      <path d="M0 0L48 0L48 48L0 48L0 0L0 0Z" id="Background" fill="none" fill-rule="evenodd" stroke="none" />
      <g id="Mask-Group">
        <path d="M0 0L48 0L48 48L0 48L0 0L0 0Z" id="path_1" fill="none" stroke="none" />
        <g clip-path="url(#mask_1)">
          <g id="Group" transform="translate(9 5)">
            <path d="M30 11L30 36C30 37.105 29.105 38 28 38L2 38C0.895001 38 0 37.105 0 36L0 2C0 0.895 0.895001 0 2 0L19 0L30 11L30 11L30 11Z" id="Shape" fill="#50E6FF" fill-rule="evenodd" stroke="none" />
            <path d="M19 0L19 9C19 10.105 19.895 11 21 11L30 11L19 0L19 0L19 0Z" id="Shape#1" fill="url(#gradient_1)" fill-rule="evenodd" stroke="none" />
          </g>
        </g>
      </g>
    </g>
    <g id="icons8_online_coding_1" transform="translate(5.1645813 7.014267)">
      <path d="M0 0L38 0L38 38L0 38L0 0L0 0Z" id="Background#1" fill="none" fill-rule="evenodd" stroke="none" />
      <g id="Mask-Group">
        <path d="M0 0L38 0L38 38L0 38L0 0L0 0Z" id="path_2" fill="none" stroke="none" />
        <g clip-path="url(#mask_2)">
          <g id="Group" transform="translate(6.887512 14.883347)">
            <path d="M2.77084 0L2.77084 5.7L1.58334 5.7L1.58334 1.425C1.50417 1.50417 1.42501 1.50417 1.34584 1.58334C1.26668 1.6625 1.18751 1.6625 1.02918 1.74167C0.950009 1.82084 0.791677 1.82084 0.712509 1.82084C0.633343 1.82084 0.47501 1.9 0.395844 1.9L0.395844 0.870836C0.712509 0.79167 1.02918 0.633337 1.26668 0.554171C1.50417 0.475002 1.82084 0.237503 2.05834 0.0791702L2.77084 0.0791702L2.77084 0L2.77084 0Z" id="Shape#2" fill="#184F85" fill-rule="evenodd" stroke="none" />
            <path d="M6.64998 5.77917C5.30414 5.77917 4.67081 4.82917 4.67081 3.00833C4.67081 2.05833 4.82914 1.34583 5.22497 0.791668C5.62081 0.316666 6.09581 0 6.80831 0C8.07498 0 8.70831 0.950001 8.70831 2.85C8.70831 3.8 8.54997 4.5125 8.15414 4.9875C7.83748 5.54167 7.36248 5.77917 6.64998 5.77917L6.64998 5.77917L6.64998 5.77917ZM6.72914 1.02914C6.17497 1.02914 5.93747 1.66248 5.93747 3.00831C5.93747 4.27498 6.17497 4.90831 6.72914 4.90831C7.20414 4.90831 7.52081 4.27498 7.52081 3.00831C7.52081 1.74164 7.20414 1.02914 6.72914 1.02914L6.72914 1.02914L6.72914 1.02914Z" id="Shape#3" fill="#184F85" fill-rule="evenodd" stroke="none" />
            <path d="M12.1125 5.77917C10.7666 5.77917 10.1333 4.82917 10.1333 3.00833C10.1333 2.05833 10.2916 1.34583 10.6875 0.791668C11.0833 0.316666 11.5583 0 12.2708 0C13.5375 0 14.1708 0.950001 14.1708 2.85C14.1708 3.8 14.0125 4.5125 13.6166 4.9875C13.2208 5.54167 12.7458 5.77917 12.1125 5.77917L12.1125 5.77917L12.1125 5.77917ZM12.1125 1.02914C11.5583 1.02914 11.3208 1.66248 11.3208 3.00831C11.3208 4.27498 11.5583 4.90831 12.1125 4.90831C12.5875 4.90831 12.9041 4.27498 12.9041 3.00831C12.9041 1.74164 12.6666 1.02914 12.1125 1.02914L12.1125 1.02914L12.1125 1.02914Z" id="Shape#4" fill="#184F85" fill-rule="evenodd" stroke="none" />
            <path d="M17.8125 0L17.8125 5.7L16.625 5.7L16.625 1.425C16.5458 1.50417 16.4667 1.50417 16.3875 1.58334C16.3083 1.6625 16.2292 1.6625 16.0708 1.74167C15.9917 1.82084 15.8333 1.82084 15.7542 1.82084C15.675 1.82084 15.5167 1.9 15.4375 1.9L15.4375 0.870836C15.7542 0.79167 16.0708 0.633337 16.3083 0.554171C16.5458 0.475002 16.8625 0.237503 17.1 0.0791702L17.8125 0.0791702L17.8125 0L17.8125 0Z" id="Shape#5" fill="#184F85" fill-rule="evenodd" stroke="none" />
            <path d="M22.7208 0L22.7208 5.7L21.5333 5.7L21.5333 1.425C21.4542 1.50417 21.375 1.50417 21.2958 1.58334C21.2167 1.6625 21.1375 1.6625 20.9792 1.74167C20.9 1.82084 20.7417 1.82084 20.6625 1.82084C20.5833 1.82084 20.425 1.9 20.3458 1.9L20.3458 0.870836C20.6625 0.79167 20.9792 0.633337 21.2167 0.554171C21.4542 0.475002 21.7708 0.237503 22.0083 0.0791702L22.7208 0.0791702L22.7208 0L22.7208 0Z" id="Shape#6" fill="#184F85" fill-rule="evenodd" stroke="none" />
            <path d="M1.97917 13.6958C0.633333 13.6958 0 12.7458 0 10.925C0 9.97499 0.158333 9.26249 0.554166 8.70832C0.95 8.23332 1.425 7.91666 2.1375 7.91666C3.40417 7.91666 4.0375 8.86666 4.0375 10.7667C4.0375 11.7167 3.87917 12.4292 3.48333 12.9042C3.16667 13.4583 2.6125 13.6958 1.97917 13.6958L1.97917 13.6958L1.97917 13.6958ZM2.05833 8.9458C1.50416 8.9458 1.26666 9.57914 1.26666 10.925C1.26666 12.1916 1.50416 12.825 2.05833 12.825C2.53333 12.825 2.85 12.1916 2.85 10.925C2.85 9.6583 2.53333 8.9458 2.05833 8.9458L2.05833 8.9458L2.05833 8.9458ZM7.91669 7.91666L7.91669 13.6167L6.72919 13.6167L6.72919 9.34166C6.65002 9.42083 6.57085 9.42083 6.49169 9.49999C6.41252 9.57916 6.33335 9.57916 6.17502 9.65833C6.09585 9.7375 5.93752 9.7375 5.85835 9.7375C5.77919 9.7375 5.62085 9.81666 5.54169 9.81666L5.54169 8.78749C5.85835 8.70833 6.17502 8.54999 6.41252 8.47083C6.65002 8.39166 6.96669 8.15416 7.20419 7.99583L7.91669 7.99583L7.91669 7.91666L7.91669 7.91666ZM11.7959 13.6958C10.45 13.6958 9.81668 12.7458 9.81668 10.925C9.81668 9.97499 9.97502 9.26249 10.3708 8.70832C10.7667 8.23332 11.2417 7.91666 11.9542 7.91666C13.2209 7.91666 13.8542 8.86666 13.8542 10.7667C13.8542 11.7167 13.6959 12.4292 13.3 12.9042C12.9042 13.4583 12.4292 13.6958 11.7959 13.6958L11.7959 13.6958L11.7959 13.6958ZM11.7959 8.9458C11.2417 8.9458 11.0042 9.57914 11.0042 10.925C11.0042 12.1916 11.2417 12.825 11.7959 12.825C12.2709 12.825 12.5875 12.1916 12.5875 10.925C12.5875 9.6583 12.35 8.9458 11.7959 8.9458L11.7959 8.9458L11.7959 8.9458ZM16.8625 13.6958C15.5167 13.6958 14.8833 12.7458 14.8833 10.925C14.8833 9.97499 15.0417 9.26249 15.4375 8.70832C15.8333 8.23332 16.3083 7.91666 17.0208 7.91666C18.2875 7.91666 18.9208 8.86666 18.9208 10.7667C18.9208 11.7167 18.7625 12.4292 18.3667 12.9042C17.9708 13.4583 17.4958 13.6958 16.8625 13.6958L16.8625 13.6958L16.8625 13.6958ZM16.8625 8.9458C16.3083 8.9458 16.0708 9.57914 16.0708 10.925C16.0708 12.1916 16.3083 12.825 16.8625 12.825C17.3375 12.825 17.6542 12.1916 17.6542 10.925C17.6542 9.6583 17.4167 8.9458 16.8625 8.9458L16.8625 8.9458L16.8625 8.9458ZM22.7208 7.91666L22.7208 13.6167L21.5333 13.6167L21.5333 9.34166C21.4542 9.42083 21.375 9.42083 21.2958 9.49999C21.2167 9.57916 21.1375 9.57916 20.9792 9.65833C20.9 9.7375 20.7417 9.7375 20.6625 9.7375C20.5833 9.7375 20.425 9.81666 20.3458 9.81666L20.3458 8.78749C20.6625 8.70833 20.9792 8.54999 21.2167 8.47083C21.4542 8.39166 21.7708 8.15416 22.0083 7.99583L22.7208 7.99583L22.7208 7.91666L22.7208 7.91666Z" id="Group" fill="#184F85" stroke="none" />
          </g>
        </g>
      </g>
    </g>
  </g>
</svg>