<?xml version="1.0" encoding="utf-8"?>
<svg width="48px" height="48px" viewBox="0 0 48 48" version="1.1" xmlns:xlink="http://www.w3.org/1999/xlink" xmlns="http://www.w3.org/2000/svg">
  <defs>
    <linearGradient gradientUnits="userSpaceOnUse" x1="23.999956" y1="-0.013000488" x2="23.999956" y2="6.0119934" id="gradient_1">
      <stop offset="0%" stop-color="#A1AAB3" />
      <stop offset="100%" stop-color="#8F979E" />
    </linearGradient>
    <linearGradient gradientUnits="userSpaceOnUse" x1="4.1959925" y1="0.8220291" x2="36.471935" y2="28.05399" id="gradient_2">
      <stop offset="0%" stop-color="#A1AAB3" />
      <stop offset="100%" stop-color="#8F979E" />
    </linearGradient>
    <linearGradient gradientUnits="userSpaceOnUse" x1="23.999043" y1="-0.008972168" x2="23.999043" y2="4.0079956" id="gradient_3">
      <stop offset="0%" stop-color="#484B4F" />
      <stop offset="2.8000002%" stop-color="#565B61" />
      <stop offset="6.6%" stop-color="#626A72" />
      <stop offset="11.4%" stop-color="#6B757D" />
      <stop offset="18.099998%" stop-color="#717B84" />
      <stop offset="36.7%" stop-color="#727D86" />
    </linearGradient>
    <linearGradient gradientUnits="userSpaceOnUse" x1="0" y1="2" x2="3.9999924" y2="2" id="gradient_4">
      <stop offset="0%" stop-color="#F44F5A" />
      <stop offset="44.3%" stop-color="#EE3D4A" />
      <stop offset="100%" stop-color="#E52030" />
    </linearGradient>
    <path d="M8.8617e-05 0L48 0L48 48L8.8617e-05 48L8.8617e-05 0Z" id="path_1" />
    <clipPath id="mask_1">
      <use xlink:href="#path_1" />
    </clipPath>
  </defs>
  <g id="Performance-Macbook-Icon">
    <path d="M8.8617e-05 0L48 0L48 48L8.8617e-05 48L8.8617e-05 0Z" id="Background" fill="#FFFFFF" fill-opacity="0" fill-rule="evenodd" stroke="none" />
    <path d="M33 40L33 36L15.0001 36L15.0001 40L8.8617e-05 39.689L8.8617e-05 41C8.8617e-05 41.552 0.448088 42 1.00009 42L47 42C47.552 42 48 41.552 48 41L48 39.689L33 40L33 40Z" id="Shape" fill="url(#gradient_1)" stroke="none" />
    <path d="M43 36L5.00008 36C3.89508 36 3.00008 35.105 3.00008 34L3.00008 8C3.00008 6.895 3.89508 6 5.00008 6L43 6C44.105 6 45 6.895 45 8L45 34C45 35.105 44.105 36 43 36L43 36Z" id="Shape" fill="url(#gradient_2)" stroke="none" />
    <path d="M5.00008 8L43 8L43 34L5.00008 34L5.00008 8Z" id="Rectangle" fill="#35C1F1" fill-rule="evenodd" stroke="none" />
    <path d="M47.904 39.462L45.027 36.585C44.653 36.211 44.144 36 43.614 36L4.38608 36C3.85608 36 3.34708 36.211 2.97208 36.586L0.0920885 39.466C-0.104911 39.663 0.0350886 40 0.314088 40L17.3821 40C17.7611 40 18.1071 39.786 18.2761 39.447L18.7231 38.553C18.8931 38.214 19.2391 38 19.6181 38L28.382 38C28.761 38 29.107 38.214 29.276 38.553L29.723 39.447C29.893 39.786 30.239 40 30.618 40L47.682 40C47.962 40 48.103 39.661 47.904 39.462L47.904 39.462Z" id="Shape" fill="url(#gradient_3)" stroke="none" />
    <path d="M12.7471 28.664L11.2531 27.336L19.7851 17.736L28.826 22.76L35.293 16.293L36.707 17.707L29.174 25.24L20.215 20.264L12.7471 28.664Z" id="Polygon" fill="#007AD9" fill-rule="evenodd" stroke="none" />
    <path d="M10.0001 28C10.0001 26.8954 10.8955 26 12.0001 26C13.1046 26 14.0001 26.8954 14.0001 28C14.0001 29.1046 13.1046 30 12.0001 30C10.8955 30 10.0001 29.1046 10.0001 28Z" id="Circle" fill="url(#gradient_4)" fill-rule="evenodd" stroke="none" />
    <path d="M27 24C27 22.8954 27.8955 22 29 22C30.1046 22 31 22.8954 31 24C31 25.1046 30.1046 26 29 26C27.8955 26 27 25.1046 27 24Z" id="Circle" fill="url(#gradient_4)" fill-rule="evenodd" stroke="none" />
    <path d="M34 17C34 15.8954 34.8955 15 36 15C37.1046 15 38 15.8954 38 17C38 18.1046 37.1046 19 36 19C34.8955 19 34 18.1046 34 17Z" id="Circle" fill="url(#gradient_4)" fill-rule="evenodd" stroke="none" />
    <path d="M18.0001 19C18.0001 17.8954 18.8955 17 20.0001 17C21.1046 17 22 17.8954 22 19C22 20.1046 21.1046 21 20.0001 21C18.8955 21 18.0001 20.1046 18.0001 19Z" id="Circle" fill="url(#gradient_4)" fill-rule="evenodd" stroke="none" />
  </g>
</svg>