<?xml version="1.0" encoding="utf-8"?>
<svg width="48px" height="48px" viewBox="0 0 48 48" version="1.1" xmlns:xlink="http://www.w3.org/1999/xlink" xmlns="http://www.w3.org/2000/svg">
  <defs>
    <linearGradient gradientUnits="objectBoundingBox" x1="0.5" y1="-0.002166748" x2="0.5" y2="1.0019989" id="gradient_1">
      <stop offset="0%" stop-color="#A1AAB3" />
      <stop offset="100%" stop-color="#8F979E" />
    </linearGradient>
    <linearGradient gradientUnits="objectBoundingBox" x1="0.09990477" y1="0.02740097" x2="0.86838096" y2="0.935133" id="gradient_2">
      <stop offset="0%" stop-color="#A1AAB3" />
      <stop offset="100%" stop-color="#8F979E" />
    </linearGradient>
    <linearGradient gradientUnits="objectBoundingBox" x1="0.50000936" y1="-0.002243042" x2="0.50000936" y2="1.0019989" id="gradient_3">
      <stop offset="0%" stop-color="#484B4F" />
      <stop offset="2.8000002%" stop-color="#565B61" />
      <stop offset="6.6%" stop-color="#626A72" />
      <stop offset="11.4%" stop-color="#6B757D" />
      <stop offset="18.099998%" stop-color="#717B84" />
      <stop offset="36.7%" stop-color="#727D86" />
    </linearGradient>
    <linearGradient gradientUnits="objectBoundingBox" x1="0" y1="0.5" x2="1" y2="0.5" id="gradient_4">
      <stop offset="0%" stop-color="#F44F5A" />
      <stop offset="44.3%" stop-color="#EE3D4A" />
      <stop offset="100%" stop-color="#E52030" />
    </linearGradient>
    <path d="M48 0L48 0L48 48L0 48L0 0L48 0Z" id="path_1" />
    <clipPath id="clip_1">
      <use xlink:href="#path_1" clip-rule="evenodd" fill-rule="evenodd" />
    </clipPath>
  </defs>
  <g id="Performance Macbook" clip-path="url(#clip_1)">
    <path d="M48 0L48 0L48 48L0 48L0 0L48 0Z" id="Performance-Macbook" fill="none" stroke="none" />
    <path d="M33 40L33 36L15 36L15 40L0 39.689L0 41C0 41.552 0.448 42 1 42L47 42C47.552 42 48 41.552 48 41L48 39.689L33 40L33 40Z" id="Shape" fill="url(#gradient_1)" stroke="none" />
    <path d="M43 36L5 36C3.895 36 3 35.105 3 34L3 8C3 6.895 3.895 6 5 6L43 6C44.105 6 45 6.895 45 8L45 34C45 35.105 44.105 36 43 36L43 36Z" id="Shape" fill="url(#gradient_2)" stroke="none" />
    <path d="M5 8L43 8L43 34L5 34L5 8Z" id="Rectangle" fill="#35C1F1" fill-rule="evenodd" stroke="none" />
    <path d="M47.904 39.462L45.027 36.585C44.653 36.211 44.144 36 43.614 36L4.386 36C3.856 36 3.347 36.211 2.972 36.586L0.092 39.466C-0.105 39.663 0.035 40 0.314 40L17.382 40C17.761 40 18.107 39.786 18.276 39.447L18.723 38.553C18.893 38.214 19.239 38 19.618 38L28.382 38C28.761 38 29.107 38.214 29.276 38.553L29.723 39.447C29.893 39.786 30.239 40 30.618 40L47.682 40C47.962 40 48.103 39.661 47.904 39.462L47.904 39.462Z" id="Shape" fill="url(#gradient_3)" stroke="none" />
    <path d="M12.747 28.664L11.253 27.336L19.785 17.736L28.826 22.76L35.293 16.293L36.707 17.707L29.174 25.24L20.215 20.264L12.747 28.664Z" id="Polygon" fill="#007AD9" fill-rule="evenodd" stroke="none" />
    <path d="M10 28C10 26.8954 10.8954 26 12 26C13.1046 26 14 26.8954 14 28C14 29.1046 13.1046 30 12 30C10.8954 30 10 29.1046 10 28Z" id="Circle" fill="url(#gradient_4)" fill-rule="evenodd" stroke="none" />
    <path d="M27 24C27 22.8954 27.8954 22 29 22C30.1046 22 31 22.8954 31 24C31 25.1046 30.1046 26 29 26C27.8954 26 27 25.1046 27 24Z" id="Circle" fill="url(#gradient_4)" fill-rule="evenodd" stroke="none" />
    <path d="M34 17C34 15.8954 34.8954 15 36 15C37.1046 15 38 15.8954 38 17C38 18.1046 37.1046 19 36 19C34.8954 19 34 18.1046 34 17Z" id="Circle" fill="url(#gradient_4)" fill-rule="evenodd" stroke="none" />
    <path d="M18 19C18 17.8954 18.8954 17 20 17C21.1046 17 22 17.8954 22 19C22 20.1046 21.1046 21 20 21C18.8954 21 18 20.1046 18 19Z" id="Circle" fill="url(#gradient_4)" fill-rule="evenodd" stroke="none" />
  </g>
</svg>