<?xml version="1.0" encoding="utf-8"?>
<svg width="48px" height="48px" viewBox="0 0 48 48" version="1.1" xmlns:xlink="http://www.w3.org/1999/xlink" xmlns="http://www.w3.org/2000/svg">
  <defs>
    <linearGradient gradientUnits="userSpaceOnUse" x1="0.5290003" y1="10.472" x2="5.6" y2="5.3999996" id="gradient_1">
      <stop offset="0%" stop-color="#3079D6" />
      <stop offset="100%" stop-color="#297CD2" />
    </linearGradient>
    <linearGradient gradientUnits="userSpaceOnUse" x1="-1.1666667" y1="-1.5729584" x2="22.16667" y2="-1.5729584" id="gradient_2">
      <stop offset="0%" stop-color="#C26715" />
      <stop offset="50.800003%" stop-color="#B85515" />
      <stop offset="100%" stop-color="#AD3F16" />
    </linearGradient>
    <path d="M0 0L48 0L48 48L0 48L0 0Z" id="path_1" />
    <clipPath id="mask_1">
      <use xlink:href="#path_1" />
    </clipPath>
  </defs>
  <g id="File-Icon-2">
    <path d="M0 0L48 0L48 48L0 48L0 0Z" id="Background" fill="#FFFFFF" fill-opacity="0" fill-rule="evenodd" stroke="none" />
    <path d="M39 16L39 41C39 42.105 38.105 43 37 43L11 43C9.895 43 9 42.105 9 41L9 7C9 5.895 9.895 5 11 5L28 5L39 16L39 16Z" id="Shape" fill="#50E6FF" stroke="none" />
    <path d="M28 5L28 14C28 15.105 28.895 16 30 16L39 16L28 5L28 5Z" id="Shape" fill="url(#gradient_1)" stroke="none" />
  </g>
  <g id="svg" transform="translate(10 15)">
    <g id="Landscape-Icon">
      <path d="M0 0L28 0L28 28L0 28L0 0L0 0Z" id="Background" fill="#FFFFFF" fill-opacity="0" fill-rule="evenodd" stroke="none" />
      <path d="M21.5833 11.0833C21.2613 11.0833 21 10.8226 21 10.5L21 3.49999C21 3.17741 21.2613 2.91666 21.5833 2.91666C21.9053 2.91666 22.1667 3.17741 22.1667 3.49999L22.1667 10.5C22.1667 10.8226 21.9053 11.0833 21.5833 11.0833L21.5833 11.0833L21.5833 11.0833Z" id="Shape" fill="#FAC500" stroke="none" />
      <path d="M25.0833 7.58333L18.0833 7.58333C17.7613 7.58333 17.5 7.32258 17.5 7C17.5 6.67741 17.7613 6.41666 18.0833 6.41666L25.0833 6.41666C25.4053 6.41666 25.6667 6.67741 25.6667 7C25.6667 7.32258 25.4053 7.58333 25.0833 7.58333L25.0833 7.58333L25.0833 7.58333Z" id="Shape#1" fill="#FAC500" stroke="none" />
      <path d="M19.1082 10.0578C18.9589 10.0578 18.8096 10.0007 18.6958 9.88692C18.4678 9.65884 18.4678 9.29017 18.6958 9.06209L23.6454 4.11309C23.8735 3.885 24.2422 3.885 24.4703 4.11309C24.6983 4.34117 24.6983 4.70984 24.4703 4.93792L19.5207 9.88692C19.4069 10.0013 19.2576 10.0578 19.1082 10.0578L19.1082 10.0578L19.1082 10.0578Z" id="Shape#2" fill="#FAC500" stroke="none" />
      <path d="M24.0584 10.0578C23.9091 10.0578 23.7598 10.0007 23.646 9.88692L18.6958 4.93792C18.4678 4.70984 18.4678 4.34117 18.6958 4.11309C18.9239 3.885 19.2926 3.885 19.5207 4.11309L24.4703 9.06209C24.6983 9.29017 24.6983 9.65884 24.4703 9.88692C24.3565 10.0013 24.2078 10.0578 24.0584 10.0578L24.0584 10.0578L24.0584 10.0578Z" id="Shape#3" fill="#FAC500" stroke="none" />
      <path d="M18.6667 7C18.6667 5.38918 19.9725 4.08334 21.5833 4.08334C23.1941 4.08334 24.5 5.38918 24.5 7C24.5 8.61082 23.1941 9.91667 21.5833 9.91667C19.9725 9.91667 18.6667 8.61082 18.6667 7L18.6667 7Z" id="Circle" fill="#FAC500" fill-rule="evenodd" stroke="none" />
      <path d="M10.9171 9.75041C10.2037 9.03699 9.04691 9.03699 8.3335 9.75041L1.16666 16.9167L1.16666 23.3333C1.16666 23.9779 1.68875 24.5 2.33333 24.5L24.5 24.5L10.9171 9.75041L10.9171 9.75041L10.9171 9.75041Z" id="Shape#4" fill="url(#gradient_2)" stroke="none" />
      <path d="M25.6667 24.5C26.3113 24.5 26.8333 23.9779 26.8333 23.3333L26.8333 20.4167L19.6671 13.2504C18.9537 12.537 17.7969 12.537 17.0835 13.2504L7 24.5L25.6667 24.5L25.6667 24.5L25.6667 24.5Z" id="Shape#5" fill="#D6742D" stroke="none" />
    </g>
  </g>
</svg>