<?xml version="1.0" encoding="utf-8"?>
<svg width="48px" height="48px" viewBox="0 0 48 48" version="1.1" xmlns:xlink="http://www.w3.org/1999/xlink" xmlns="http://www.w3.org/2000/svg">
  <defs>
    <linearGradient gradientUnits="userSpaceOnUse" x1="0.5290003" y1="10.472" x2="5.6" y2="5.3999996" id="gradient_1">
      <stop offset="0%" stop-color="#3079D6" />
      <stop offset="100%" stop-color="#297CD2" />
    </linearGradient>
    <linearGradient gradientUnits="userSpaceOnUse" x1="10.196667" y1="9.8132715" x2="15.652583" y2="24.803188" id="gradient_2">
      <stop offset="0%" stop-color="#3940A4" />
      <stop offset="100%" stop-color="#293091" />
    </linearGradient>
    <linearGradient gradientUnits="userSpaceOnUse" x1="6.6675" y1="0.22299764" x2="12.650751" y2="16.66133" id="gradient_3">
      <stop offset="0%" stop-color="#7B83EB" />
      <stop offset="100%" stop-color="#5961C3" />
    </linearGradient>
    <linearGradient gradientUnits="userSpaceOnUse" x1="4.3388333" y1="-0.19833392" x2="9.415584" y2="13.750332" id="gradient_4">
      <stop offset="0%" stop-color="#5C65D6" />
      <stop offset="99.9%" stop-color="#464EB0" />
    </linearGradient>
    <path d="M0 0L48 0L48 48L0 48L0 0Z" id="path_1" />
    <path d="M0 0L28 0L28 28L0 28L0 0Z" id="path_2" />
    <clipPath id="mask_1">
      <use xlink:href="#path_1" />
    </clipPath>
    <clipPath id="mask_2">
      <use xlink:href="#path_2" />
    </clipPath>
  </defs>
  <g id="File-Icon-3">
    <path d="M0 0L48 0L48 48L0 48L0 0Z" id="Background" fill="#FFFFFF" fill-opacity="0" fill-rule="evenodd" stroke="none" />
    <g clip-path="url(#mask_1)">
      <path d="M39 16L39 41C39 42.105 38.105 43 37 43L11 43C9.895 43 9 42.105 9 41L9 7C9 5.895 9.895 5 11 5L28 5L39 16L39 16Z" id="Shape" fill="#50E6FF" fill-rule="evenodd" stroke="none" />
      <path d="M28 5L28 14C28 15.105 28.895 16 30 16L39 16L28 5L28 5Z" id="Shape" fill="url(#gradient_1)" fill-rule="evenodd" stroke="none" />
    </g>
  </g>
  <g id="C-Programming-Icon" transform="translate(10 15)">
    <path d="M0 0L28 0L28 28L0 28L0 0Z" id="Background" fill="#FFFFFF" fill-opacity="0" fill-rule="evenodd" stroke="none" />
    <path d="M13.3601 1.91683C13.7562 1.69458 14.2438 1.69458 14.6393 1.91683C16.5964 3.01525 22.4858 6.32158 24.4434 7.42C24.8395 7.64167 25.0833 8.05233 25.0833 8.49683C25.0833 10.6937 25.0833 17.3058 25.0833 19.5026C25.0833 19.9471 24.8395 20.3577 24.4434 20.58C22.4863 21.6784 16.597 24.9848 14.6393 26.0832C14.2432 26.3054 13.7556 26.3054 13.3601 26.0832C11.403 24.9848 5.51367 21.6784 3.556 20.58C3.1605 20.3577 2.91667 19.9477 2.91667 19.5032C2.91667 17.3063 2.91667 10.6943 2.91667 8.49742C2.91667 8.05292 3.1605 7.64225 3.55658 7.42C5.51308 6.32158 11.4036 3.01525 13.3601 1.91683L13.3601 1.91683Z" id="Shape" fill="url(#gradient_2)" fill-rule="evenodd" stroke="none" />
    <path d="M3.094 20.069C2.93883 19.8613 2.91667 19.6642 2.91667 19.3988C2.91667 17.2148 2.91667 10.6406 2.91667 8.456C2.91667 8.01383 3.15992 7.6055 3.55483 7.385C5.50492 6.293 11.3744 3.00592 13.3245 1.91333C13.7194 1.69225 14.2543 1.69692 14.6493 1.918C16.5993 3.01 22.449 6.26908 24.3991 7.36108C24.5566 7.44975 24.6768 7.5565 24.7841 7.69708L3.094 20.069L3.094 20.069Z" id="Shape" fill="url(#gradient_3)" fill-rule="evenodd" stroke="none" />
    <path d="M14 5.83333C18.5074 5.83333 22.1667 9.49258 22.1667 14C22.1667 18.5074 18.5074 22.1667 14 22.1667C9.49258 22.1667 5.83333 18.5074 5.83333 14C5.83333 9.49258 9.49258 5.83333 14 5.83333L14 5.83333ZM14 9.91667C16.2534 9.91667 18.0833 11.746 18.0833 14C18.0833 16.2534 16.2534 18.0833 14 18.0833C11.7466 18.0833 9.91667 16.2534 9.91667 14C9.91667 11.746 11.746 9.91667 14 9.91667L14 9.91667Z" id="Shape" fill="#FFFFFF" fill-rule="evenodd" stroke="none" />
    <path d="M24.7829 7.70292C25.0839 7.98467 25.0781 8.40933 25.0781 8.74358C25.0781 10.9573 25.0594 17.2538 25.0833 19.4676C25.0857 19.6986 25.0093 19.9418 24.8949 20.125L13.7626 14L24.7829 7.70292L24.7829 7.70292Z" id="Shape" fill="url(#gradient_4)" fill-rule="evenodd" stroke="none" />
    <path d="M14 5.83333C16.9913 5.83333 19.6012 7.44975 21.0239 9.85075L17.4813 11.8749C16.7632 10.7024 15.4741 9.91667 14 9.91667C11.746 9.91667 9.91667 11.746 9.91667 14C9.91667 16.2534 11.7466 18.0833 14 18.0833C15.4992 18.0833 16.807 17.2713 17.5169 16.0656L21.0939 18.0337C19.6875 20.4995 17.0392 22.1667 14 22.1667C9.49258 22.1667 5.83333 18.5074 5.83333 14C5.83333 9.49258 9.49258 5.83333 14 5.83333M14 5.25C9.17525 5.25 5.25 9.17525 5.25 14C5.25 18.8248 9.17525 22.75 14 22.75C17.1307 22.75 20.0433 21.0537 21.6008 18.3225L21.8942 17.808L21.3751 17.5222L17.7981 15.554L17.3017 15.281L17.0141 15.7693C16.3858 16.8368 15.2308 17.5 14 17.5C12.0703 17.5 10.5 15.9297 10.5 14C10.5 12.0703 12.0703 10.5 14 10.5C15.2244 10.5 16.3397 11.1277 16.9837 12.1794L17.2795 12.6624L17.7707 12.3818L21.3133 10.3577L21.8278 10.0637L21.5256 9.55383C19.9529 6.89908 17.0695 5.25 14 5.25L14 5.25L14 5.25Z" id="Shape" fill="#000000" fill-opacity="0.05" fill-rule="evenodd" stroke="none" />
    <path d="M14 5.83333C16.9913 5.83333 19.6012 7.44975 21.0239 9.85075L17.4813 11.8749C16.7633 10.7024 15.4741 9.91667 14 9.91667C11.746 9.91667 9.91667 11.746 9.91667 14C9.91667 16.2534 11.7466 18.0833 14 18.0833C15.4992 18.0833 16.807 17.2713 17.5169 16.0656L21.0939 18.0338C19.6875 20.4995 17.0392 22.1667 14 22.1667C9.49258 22.1667 5.83333 18.5074 5.83333 14C5.83333 9.49258 9.49258 5.83333 14 5.83333M14 5.54167C9.33625 5.54167 5.54167 9.33625 5.54167 14C5.54167 18.6637 9.33625 22.4583 14 22.4583C17.0263 22.4583 19.8415 20.818 21.3471 18.1784L21.4941 17.9212L21.2345 17.7782L17.6575 15.8101L17.4096 15.6736L17.2661 15.9174C16.5847 17.0736 15.3335 17.7917 14 17.7917C11.9093 17.7917 10.2083 16.0907 10.2083 14C10.2083 11.9093 11.9093 10.2083 14 10.2083C15.3271 10.2083 16.5352 10.8885 17.2328 12.0272L17.3804 12.2687L17.626 12.1281L21.1686 10.1039L21.4258 9.95692L21.2748 9.702C19.754 7.13592 16.9668 5.54167 14 5.54167L14 5.54167L14 5.54167Z" id="Shape" fill="#000000" fill-opacity="0.07" fill-rule="evenodd" stroke="none" />
  </g>
</svg>