<?xml version="1.0" encoding="utf-8"?>
<svg width="48px" height="48px" viewBox="0 0 48 48" version="1.1" xmlns:xlink="http://www.w3.org/1999/xlink" xmlns="http://www.w3.org/2000/svg">
  <defs>
    <linearGradient gradientUnits="userSpaceOnUse" x1="17.48" y1="16.82275" x2="26.833" y2="42.519753" id="gradient_1">
      <stop offset="0%" stop-color="#3940A4" />
      <stop offset="100%" stop-color="#293091" />
    </linearGradient>
    <linearGradient gradientUnits="userSpaceOnUse" x1="11.43" y1="0.38228166" x2="21.687002" y2="28.56228" id="gradient_2">
      <stop offset="0%" stop-color="#7B83EB" />
      <stop offset="100%" stop-color="#5961C3" />
    </linearGradient>
    <linearGradient gradientUnits="userSpaceOnUse" x1="7.4379997" y1="-0.34000102" x2="16.141" y2="23.571999" id="gradient_3">
      <stop offset="0%" stop-color="#5C65D6" />
      <stop offset="99.9%" stop-color="#464EB0" />
    </linearGradient>
    <path d="M0 0L48 0L48 48L0 48L0 0Z" id="path_1" />
    <clipPath id="clip_1">
      <use xlink:href="#path_1" />
    </clipPath>
  </defs>
  <g id="C Programming" clip-path="url(#clip_1)">
    <path d="M0 0L48 0L48 48L0 48L0 0Z" id="C-Programming" fill="none" fill-rule="evenodd" stroke="none" />
    <path d="M22.903 3.286C23.582 2.905 24.418 2.905 25.096 3.286C28.451 5.169 38.547 10.837 41.903 12.72C42.582 13.1 43 13.804 43 14.566C43 18.332 43 29.667 43 33.433C43 34.195 42.582 34.899 41.903 35.28C38.548 37.163 28.452 42.831 25.096 44.714C24.417 45.095 23.581 45.095 22.903 44.714C19.548 42.831 9.452 37.163 6.096 35.28C5.418 34.899 5 34.196 5 33.434C5 29.668 5 18.333 5 14.567C5 13.805 5.418 13.101 6.097 12.72C9.451 10.837 19.549 5.169 22.903 3.286L22.903 3.286Z" id="Shape" fill="url(#gradient_1)" fill-rule="evenodd" stroke="none" />
    <path d="M5.304 34.404C5.038 34.048 5 33.71 5 33.255C5 29.511 5 18.241 5 14.496C5 13.738 5.417 13.038 6.094 12.66C9.437 10.788 19.499 5.153 22.842 3.28C23.519 2.901 24.436 2.909 25.113 3.288C28.456 5.16 38.484 10.747 41.827 12.619C42.097 12.771 42.303 12.954 42.487 13.195L5.304 34.404L5.304 34.404Z" id="Shape" fill="url(#gradient_2)" fill-rule="evenodd" stroke="none" />
    <path d="M24 10C31.727 10 38 16.273 38 24C38 31.727 31.727 38 24 38C16.273 38 10 31.727 10 24C10 16.273 16.273 10 24 10L24 10ZM24 17C27.863 17 31 20.136 31 24C31 27.863 27.863 31 24 31C20.137 31 17 27.863 17 24C17 20.136 20.136 17 24 17L24 17Z" id="Shape" fill="#FFFFFF" fill-rule="evenodd" stroke="none" />
    <path d="M42.485 13.205C43.001 13.688 42.991 14.416 42.991 14.989C42.991 18.784 42.959 29.578 43 33.373C43.004 33.769 42.873 34.186 42.677 34.5L23.593 24L42.485 13.205L42.485 13.205Z" id="Shape" fill="url(#gradient_3)" fill-rule="evenodd" stroke="none" />
    <path d="M24 10C29.128 10 33.602 12.771 36.041 16.887L29.968 20.357C28.737 18.347 26.527 17 24 17C20.136 17 17 20.136 17 24C17 27.863 20.137 31 24 31C26.57 31 28.812 29.608 30.029 27.541L36.161 30.915C33.75 35.142 29.21 38 24 38C16.273 38 10 31.727 10 24C10 16.273 16.273 10 24 10M24 9C15.729 9 9 15.729 9 24C9 32.271 15.729 39 24 39C29.367 39 34.36 36.092 37.03 31.41L37.533 30.528L36.643 30.038L30.511 26.664L29.66 26.196L29.167 27.033C28.09 28.863 26.11 30 24 30C20.692 30 18 27.308 18 24C18 20.692 20.692 18 24 18C26.099 18 28.011 19.076 29.115 20.879L29.622 21.707L30.464 21.226L36.537 17.756L37.419 17.252L36.901 16.378C34.205 11.827 29.262 9 24 9L24 9L24 9Z" id="Shape" fill="#000000" fill-opacity="0.05" fill-rule="evenodd" stroke="none" />
    <path d="M24 10C29.128 10 33.602 12.771 36.041 16.887L29.968 20.357C28.737 18.347 26.527 17 24 17C20.136 17 17 20.136 17 24C17 27.863 20.137 31 24 31C26.57 31 28.812 29.608 30.029 27.541L36.161 30.915C33.75 35.142 29.21 38 24 38C16.273 38 10 31.727 10 24C10 16.273 16.273 10 24 10M24 9.5C16.005 9.5 9.5 16.005 9.5 24C9.5 31.995 16.005 38.5 24 38.5C29.188 38.5 34.014 35.688 36.595 31.163L36.847 30.722L36.402 30.477L30.27 27.103L29.845 26.869L29.599 27.287C28.431 29.269 26.286 30.5 24 30.5C20.416 30.5 17.5 27.584 17.5 24C17.5 20.416 20.416 17.5 24 17.5C26.275 17.5 28.346 18.666 29.542 20.618L29.795 21.032L30.216 20.791L36.289 17.321L36.73 17.069L36.471 16.632C33.864 12.233 29.086 9.5 24 9.5L24 9.5L24 9.5Z" id="Shape" fill="#000000" fill-opacity="0.07" fill-rule="evenodd" stroke="none" />
  </g>
</svg>