<?xml version="1.0" encoding="utf-8"?>
<svg width="48px" height="48px" viewBox="0 0 48 48" version="1.1" xmlns:xlink="http://www.w3.org/1999/xlink" xmlns="http://www.w3.org/2000/svg">
  <defs>
    <linearGradient gradientUnits="userSpaceOnUse" x1="0.5290003" y1="10.472" x2="5.6" y2="5.3999996" id="gradient_1">
      <stop offset="0%" stop-color="#3079D6" />
      <stop offset="100%" stop-color="#297CD2" />
    </linearGradient>
    <linearGradient gradientUnits="userSpaceOnUse" x1="-5.0625" y1="-12.375002" x2="11.8125" y2="-12.375002" id="gradient_2">
      <stop offset="0%" stop-color="#11408A" />
      <stop offset="100%" stop-color="#103F8F" />
    </linearGradient>
    <linearGradient gradientUnits="userSpaceOnUse" x1="-5.0625" y1="-6.468751" x2="11.8125" y2="-6.468751" id="gradient_3">
      <stop offset="0%" stop-color="#1D59B3" />
      <stop offset="100%" stop-color="#195BBC" />
    </linearGradient>
    <linearGradient gradientUnits="userSpaceOnUse" x1="-5.0625" y1="-1.2656245" x2="11.8125" y2="-1.2656245" id="gradient_4">
      <stop offset="0%" stop-color="#3079D6" />
      <stop offset="100%" stop-color="#297CD2" />
    </linearGradient>
    <linearGradient gradientUnits="userSpaceOnUse" x1="-5.0625" y1="-0.28125012" x2="11.8125" y2="-0.28125012" id="gradient_5">
      <stop offset="0%" stop-color="#42A3F2" />
      <stop offset="100%" stop-color="#42A4EB" />
    </linearGradient>
    <linearGradient gradientUnits="userSpaceOnUse" x1="-13.956186" y1="-14.410685" x2="-5.947873" y2="-6.402375" id="gradient_6">
      <stop offset="0%" stop-color="#889097" />
      <stop offset="33.1%" stop-color="#848C94" />
      <stop offset="66.9%" stop-color="#78828B" />
      <stop offset="100%" stop-color="#64717C" />
    </linearGradient>
    <linearGradient gradientUnits="userSpaceOnUse" x1="-13.206936" y1="-13.194564" x2="-17.455498" y2="-17.443125" id="gradient_7">
      <stop offset="0%" stop-color="#FFFFFF" />
      <stop offset="24.2%" stop-color="#F2F2F2" />
      <stop offset="100%" stop-color="#CCCCCC" />
    </linearGradient>
    <linearGradient gradientUnits="userSpaceOnUse" x1="-19.412437" y1="-19.400627" x2="-16.386189" y2="-16.374376" id="gradient_8">
      <stop offset="0%" stop-color="#0D61A9" />
      <stop offset="36.3%" stop-color="#0E5FA4" />
      <stop offset="78%" stop-color="#135796" />
      <stop offset="100%" stop-color="#16528C" />
    </linearGradient>
    <linearGradient gradientUnits="userSpaceOnUse" x1="-13.956186" y1="-14.433749" x2="-5.947873" y2="-6.4254365" id="gradient_9">
      <stop offset="0%" stop-color="#889097" />
      <stop offset="33.1%" stop-color="#848C94" />
      <stop offset="66.9%" stop-color="#78828B" />
      <stop offset="100%" stop-color="#64717C" />
    </linearGradient>
    <linearGradient gradientUnits="userSpaceOnUse" x1="-13.790811" y1="-13.802624" x2="-17.735622" y2="-17.747435" id="gradient_10">
      <stop offset="0%" stop-color="#FFFFFF" />
      <stop offset="24.2%" stop-color="#F2F2F2" />
      <stop offset="100%" stop-color="#CCCCCC" />
    </linearGradient>
    <linearGradient gradientUnits="userSpaceOnUse" x1="-19.578938" y1="-19.59075" x2="-16.809189" y2="-16.821001" id="gradient_11">
      <stop offset="0%" stop-color="#0D61A9" />
      <stop offset="36.3%" stop-color="#0E5FA4" />
      <stop offset="78%" stop-color="#135796" />
      <stop offset="100%" stop-color="#16528C" />
    </linearGradient>
    <path d="M0 0L48 0L48 48L0 48L0 0Z" id="path_1" />
    <clipPath id="mask_1">
      <use xlink:href="#path_1" />
    </clipPath>
  </defs>
  <g id="File-Icon-2">
    <path d="M0 0L48 0L48 48L0 48L0 0Z" id="Background" fill="#FFFFFF" fill-opacity="0" fill-rule="evenodd" stroke="none" />
    <path d="M39 16L39 41C39 42.105 38.105 43 37 43L11 43C9.895 43 9 42.105 9 41L9 7C9 5.895 9.895 5 11 5L28 5L39 16L39 16Z" id="Shape" fill="#50E6FF" stroke="none" />
    <path d="M28 5L28 14C28 15.105 28.895 16 30 16L39 16L28 5L28 5Z" id="Shape" fill="url(#gradient_1)" stroke="none" />
  </g>
  <g id="svg" transform="translate(9 15)">
    <g id="Database-Administrator-Icon">
      <path d="M0 0L27 0L27 27L0 27L0 0L0 0Z" id="Background" fill="#FFFFFF" fill-opacity="0" fill-rule="evenodd" stroke="none" />
      <path d="M21.9375 16.3125L5.0625 16.3125C5.0625 16.3125 5.0625 21.1821 5.0625 21.375C5.0625 22.9281 8.84025 24.1875 13.5 24.1875C18.1597 24.1875 21.9375 22.9281 21.9375 21.375C21.9375 21.1821 21.9375 16.3125 21.9375 16.3125L21.9375 16.3125L21.9375 16.3125Z" id="Shape" fill="url(#gradient_2)" stroke="none" />
      <path d="M21.9375 10.6875L5.0625 10.6875C5.0625 10.6875 5.0625 16.1196 5.0625 16.3125C5.0625 17.8656 8.84025 19.125 13.5 19.125C18.1597 19.125 21.9375 17.8656 21.9375 16.3125C21.9375 16.1196 21.9375 10.6875 21.9375 10.6875L21.9375 10.6875L21.9375 10.6875Z" id="Shape#1" fill="url(#gradient_3)" stroke="none" />
      <path d="M21.9375 5.34375L5.0625 5.34375C5.0625 5.34375 5.0625 10.4946 5.0625 10.6875C5.0625 12.2406 8.84025 13.5 13.5 13.5C18.1597 13.5 21.9375 12.2406 21.9375 10.6875C21.9375 10.4946 21.9375 5.34375 21.9375 5.34375L21.9375 5.34375L21.9375 5.34375Z" id="Shape#2" fill="url(#gradient_4)" stroke="none" />
      <path d="M5.0625 5.34375C5.0625 3.94578 8.84008 2.8125 13.5 2.8125C18.1599 2.8125 21.9375 3.94578 21.9375 5.34375C21.9375 6.74173 18.1599 7.875 13.5 7.875C8.84008 7.875 5.0625 6.74173 5.0625 5.34375L5.0625 5.34375Z" id="Oval" fill="url(#gradient_5)" fill-rule="evenodd" stroke="none" />
      <path d="M26.8397 20.0514C26.1686 20.1364 25.4813 19.8225 25.1218 19.1998C24.7624 18.5777 24.8338 17.8251 25.2433 17.2867C24.6082 16.6837 23.8343 16.227 22.9719 15.9716C22.7109 16.5966 22.0944 17.0364 21.375 17.0364C20.6556 17.0364 20.0391 16.5971 19.7781 15.9716C18.9157 16.2264 18.1418 16.6837 17.5067 17.2867C17.9156 17.8251 17.9871 18.5777 17.6282 19.1998C17.2688 19.8219 16.5814 20.1364 15.9103 20.0514C15.8091 20.4727 15.75 20.9109 15.75 21.3632C15.75 21.816 15.8091 22.2536 15.9103 22.6749C16.5814 22.59 17.2688 22.9039 17.6282 23.5266C17.9876 24.1487 17.9162 24.9013 17.5067 25.4396C18.1418 26.0426 18.9157 26.4994 19.7781 26.7547C20.0391 26.1298 20.6556 25.6899 21.375 25.6899C22.0944 25.6899 22.7109 26.1292 22.9719 26.7547C23.8343 26.4999 24.6082 26.0426 25.2433 25.4396C24.8344 24.9013 24.7629 24.1487 25.1218 23.5266C25.4813 22.9044 26.1686 22.59 26.8397 22.6749C26.9409 22.2536 27 21.816 27 21.3632C27 20.9109 26.9409 20.4727 26.8397 20.0514L26.8397 20.0514L26.8397 20.0514Z" id="Shape#3" fill="url(#gradient_6)" stroke="none" />
      <path d="M18.3459 21.3632C18.3459 19.6903 19.7021 18.3341 21.375 18.3341C23.0479 18.3341 24.4041 19.6903 24.4041 21.3632C24.4041 23.0361 23.0479 24.3922 21.375 24.3922C19.7021 24.3922 18.3459 23.0361 18.3459 21.3632L18.3459 21.3632Z" id="Circle" fill="url(#gradient_7)" fill-rule="evenodd" stroke="none" />
      <path d="M19.5311 21.3632C19.5311 20.3448 20.3566 19.5193 21.375 19.5193C22.3933 19.5193 23.2189 20.3448 23.2189 21.3632C23.2189 22.3815 22.3933 23.2071 21.375 23.2071C20.3566 23.2071 19.5311 22.3815 19.5311 21.3632L19.5311 21.3632Z" id="Circle#1" fill="url(#gradient_8)" fill-rule="evenodd" stroke="none" />
      <path d="M26.8397 20.0745C26.1686 20.1594 25.4813 19.8456 25.1218 19.2229C24.7624 18.6007 24.8338 17.8481 25.2433 17.3098C24.6082 16.7068 23.8343 16.2501 22.9719 15.9947C22.7109 16.6196 22.0944 17.0595 21.375 17.0595C20.6556 17.0595 20.0391 16.6202 19.7781 15.9947C18.9157 16.2495 18.1418 16.7068 17.5067 17.3098C17.9156 17.8481 17.9871 18.6007 17.6282 19.2229C17.2688 19.845 16.5814 20.1594 15.9103 20.0745C15.8091 20.4964 15.75 20.934 15.75 21.3868C15.75 21.8396 15.8091 22.2772 15.9103 22.6986C16.5814 22.6136 17.2688 22.9275 17.6282 23.5502C17.9876 24.1723 17.9162 24.9249 17.5067 25.4632C18.1418 26.0662 18.9157 26.523 19.7781 26.7784C20.0391 26.1534 20.6556 25.7136 21.375 25.7136C22.0944 25.7136 22.7109 26.1529 22.9719 26.7784C23.8343 26.5236 24.6082 26.0662 25.2433 25.4632C24.8344 24.9249 24.7629 24.1723 25.1218 23.5502C25.4813 22.9281 26.1686 22.6136 26.8397 22.6986C26.9409 22.2772 27 21.8391 27 21.3868C27 20.934 26.9409 20.4964 26.8397 20.0745L26.8397 20.0745L26.8397 20.0745Z" id="Shape#4" fill="url(#gradient_9)" stroke="none" />
      <path d="M18.5625 21.3868C18.5625 19.8335 19.8217 18.5743 21.375 18.5743C22.9283 18.5743 24.1875 19.8335 24.1875 21.3868C24.1875 22.9401 22.9283 24.1993 21.375 24.1993C19.8217 24.1993 18.5625 22.9401 18.5625 21.3868L18.5625 21.3868Z" id="Circle#2" fill="url(#gradient_10)" fill-rule="evenodd" stroke="none" />
      <path d="M19.6875 21.3868C19.6875 20.4548 20.443 19.6993 21.375 19.6993C22.307 19.6993 23.0625 20.4548 23.0625 21.3868C23.0625 22.3188 22.307 23.0743 21.375 23.0743C20.443 23.0743 19.6875 22.3188 19.6875 21.3868L19.6875 21.3868Z" id="Circle#3" fill="url(#gradient_11)" fill-rule="evenodd" stroke="none" />
    </g>
  </g>
</svg>