<?xml version="1.0" encoding="utf-8"?>
<svg width="19.285706px" height="19.285713px" viewBox="0 0 19.285706 19.285713" version="1.1" xmlns:xlink="http://www.w3.org/1999/xlink" xmlns="http://www.w3.org/2000/svg">
  <g id="svg">
    <g id="CCreative">
      <g id="svg92">
        <path d="M0 9.64286C0 4.31725 4.31725 0 9.64286 0C14.9685 0 19.2857 4.31725 19.2857 9.64286C19.2857 14.9685 14.9685 19.2857 9.64286 19.2857C4.31725 19.2857 0 14.9685 0 9.64286L0 9.64286L0 9.64286Z" id="ellipse82" fill="#388E3C" fill-rule="evenodd" stroke="none" />
        <path d="M6.08329 9.64286C6.08329 7.67696 7.67696 6.08329 9.64286 6.08329C11.6088 6.08329 13.2024 7.67696 13.2024 9.64286C13.2024 11.6088 11.6088 13.2024 9.64286 13.2024C7.67696 13.2024 6.08329 11.6088 6.08329 9.64286L6.08329 9.64286L6.08329 9.64286Z" id="ellipse84" fill="#59AD43" fill-rule="evenodd" stroke="none" />
        <path d="M12.9798 4.71371L11.6147 4.32686L8.14332 4.32686L5.65652 5.82866L4.40106 7.72446L4.49937 10.9744L5.53334 13.7889L10.9428 19.1983C15.2316 18.6205 18.6254 15.2237 19.1994 10.9337L12.9798 4.71371L12.9798 4.71371L12.9798 4.71371Z" id="path86" fill="#1E1E1C" fill-opacity="0.5019608" fill-rule="evenodd" stroke="none" />
        <path d="M11.4999 13.3173L11.7861 13.9102C11.3933 14.1 10.9759 14.2345 10.5461 14.3102C10.2734 14.3581 10.0015 14.3814 9.73289 14.3814C7.48076 14.3814 5.4599 12.7515 5.05723 10.464C4.60673 7.90336 6.34283 5.4256 8.90345 4.97509C9.1336 4.9348 9.36601 4.91107 9.59955 4.90503L9.61687 5.56535C7.41333 5.6226 5.64447 7.42536 5.64447 9.64284C5.64447 11.8961 7.47134 13.723 9.7246 13.723C10.3612 13.723 10.9631 13.5772 11.4999 13.3173L11.4999 13.3173L11.4999 13.3173L11.4999 13.3173ZM12.1515 13.7139L12.1594 13.7302L12.3395 14.1034L11.9662 14.2835C11.5387 14.4899 11.0852 14.6364 10.6177 14.7185C10.3254 14.7698 10.0278 14.7961 9.73252 14.7961C8.53847 14.7961 7.36776 14.3712 6.43663 13.6002C5.49381 12.8193 4.85911 11.7311 4.64855 10.5363C4.41162 9.18895 4.71786 7.82314 5.51113 6.69086C6.30441 5.55858 7.4834 4.80447 8.83114 4.56716C9.0805 4.52347 9.33513 4.49748 9.58825 4.49108L10.0026 4.48015L10.0135 4.8945L10.0139 4.91333C10.8689 4.96493 11.6622 5.24292 12.3357 5.68853L12.9791 4.71407C12.0133 4.07636 10.8814 3.7366 9.72423 3.7366C6.48371 3.7366 3.81761 6.40308 3.81761 9.64322C3.81761 12.8837 6.48409 15.5498 9.72423 15.5498C11.0855 15.5498 12.4058 15.0794 13.4601 14.2183L12.7214 13.3139C12.5425 13.4605 12.3519 13.5942 12.1515 13.7139L12.1515 13.7139L12.1515 13.7139L12.1515 13.7139Z" id="path88" fill="#ECECEC" fill-rule="evenodd" stroke="none" />
        <path d="M6.08328 9.64286C6.08328 7.67695 7.67695 6.08328 9.64286 6.08328C11.6088 6.08328 13.2024 7.67695 13.2024 9.64286C13.2024 11.6088 11.6088 13.2024 9.64286 13.2024C7.67695 13.2024 6.08328 11.6088 6.08328 9.64286L6.08328 9.64286L6.08328 9.64286Z" id="ellipse90" fill="#388E3C" fill-rule="evenodd" stroke="none" />
      </g>
    </g>
  </g>
</svg>