<?xml version="1.0" encoding="utf-8"?>
<svg width="25" height="25" viewBox="0 0 25 25" version="1.1" xmlns:xlink="http://www.w3.org/1999/xlink" xmlns="http://www.w3.org/2000/svg">
  <g id="svg">
    <path d="M0 0L24.2857 0L24.2857 24.2857L0 24.2857L0 0L0 0Z" id="Background#1" fill="#FFFFFF" fill-opacity="0" fill-rule="evenodd" stroke="none" />
    <g id="svg#1">
      <g id="CCreative">
        <g id="svg92">
          <path d="M0 12.1429C0 5.43654 5.43654 0 12.1429 0C18.8492 0 24.2857 5.43654 24.2857 12.1429C24.2857 18.8492 18.8492 24.2857 12.1429 24.2857C5.43654 24.2857 0 18.8492 0 12.1429L0 12.1429L0 12.1429L0 12.1429L0 12.1429Z" id="ellipse82" fill="#388E3C" fill-rule="evenodd" stroke="none" />
          <path d="M7.66043 12.1429C7.66043 9.66724 9.66727 7.6604 12.1429 7.6604C14.6185 7.6604 16.6252 9.66724 16.6252 12.1429C16.6252 14.6185 14.6185 16.6252 12.1429 16.6252C9.66727 16.6252 7.66043 14.6185 7.66043 12.1429L7.66043 12.1429L7.66043 12.1429L7.66043 12.1429L7.66043 12.1429Z" id="ellipse84" fill="#59AD43" fill-rule="evenodd" stroke="none" />
          <path d="M16.3449 5.93575L14.6259 5.44861L10.2546 5.44861L7.12303 7.33976L5.54208 9.72707L5.66588 13.8196L6.96791 17.3638L13.7798 24.1756C19.1805 23.448 23.4542 19.1706 24.177 13.7684L16.3449 5.93575L16.3449 5.93575L16.3449 5.93575L16.3449 5.93575L16.3449 5.93575Z" id="path86" fill="#1E1E1C" fill-opacity="0.5019608" fill-rule="evenodd" stroke="none" />
          <path d="M14.4814 16.7698L14.8418 17.5164C14.3471 17.7555 13.8215 17.9248 13.2803 18.0202C12.9369 18.0805 12.5945 18.1098 12.2562 18.1098C9.42022 18.1098 6.87543 16.0573 6.36836 13.1768C5.80107 9.95232 7.98727 6.83218 11.2118 6.26487C11.5016 6.21412 11.7942 6.18425 12.0883 6.17664L12.1101 7.00816C9.33531 7.08025 7.10785 9.35038 7.10785 12.1427C7.10785 14.9802 9.40836 17.2807 12.2458 17.2807C13.0474 17.2807 13.8054 17.0971 14.4814 16.7698L14.4814 16.7698L14.4814 16.7698L14.4814 16.7698L14.4814 16.7698L14.4814 16.7698ZM15.3019 17.2694L15.3118 17.2899L15.5386 17.7598L15.0686 17.9866C14.5302 18.2465 13.9591 18.431 13.3704 18.5344C13.0024 18.599 12.6276 18.6321 12.2558 18.6321C10.7521 18.6321 9.27792 18.0971 8.10539 17.1262C6.91813 16.1428 6.11888 14.7725 5.85373 13.2679C5.55538 11.5713 5.94101 9.85134 6.93994 8.4255C7.93889 6.99967 9.42354 6.05005 11.1207 5.75121C11.4347 5.6962 11.7554 5.66347 12.0741 5.65541L12.5959 5.64164L12.6096 6.16342L12.6101 6.18713C13.6868 6.25211 14.6857 6.60217 15.5338 7.16331L16.3441 5.93621C15.1279 5.13317 13.7025 4.70532 12.2453 4.70532C8.16467 4.70532 4.80736 8.06311 4.80736 12.1433C4.80736 16.2239 8.16515 19.5812 12.2453 19.5812C13.9595 19.5812 15.6221 18.9889 16.9498 17.9045L16.0195 16.7657C15.7943 16.9503 15.5542 17.1186 15.3019 17.2694L15.3019 17.2694L15.3019 17.2694L15.3019 17.2694L15.3019 17.2694L15.3019 17.2694Z" id="path88" fill="#ECECEC" fill-rule="evenodd" stroke="none" />
          <path d="M7.66043 12.1429C7.66043 9.66724 9.66727 7.6604 12.1429 7.6604C14.6185 7.6604 16.6252 9.66724 16.6252 12.1429C16.6252 14.6185 14.6185 16.6252 12.1429 16.6252C9.66727 16.6252 7.66043 14.6185 7.66043 12.1429L7.66043 12.1429L7.66043 12.1429L7.66043 12.1429L7.66043 12.1429Z" id="ellipse90" fill="#388E3C" fill-rule="evenodd" stroke="none" />
        </g>
      </g>
    </g>
  </g>
</svg>