<?xml version="1.0" encoding="utf-8"?>
<svg width="48px" height="48px" viewBox="0 0 48 48" version="1.1" xmlns:xlink="http://www.w3.org/1999/xlink" xmlns="http://www.w3.org/2000/svg">
  <defs>
    <linearGradient gradientUnits="userSpaceOnUse" x1="0.5290003" y1="10.472" x2="5.6" y2="5.3999996" id="gradient_1">
      <stop offset="0%" stop-color="#3079D6" />
      <stop offset="100%" stop-color="#297CD2" />
    </linearGradient>
    <path d="M0 0L48 0L48 48L0 48L0 0Z" id="path_1" />
    <path d="M0 0L24.2857 0L24.2857 24.2857L0 24.2857L0 0Z" id="path_2" />
    <clipPath id="mask_1">
      <use xlink:href="#path_1" />
    </clipPath>
    <clipPath id="mask_2">
      <use xlink:href="#path_2" />
    </clipPath>
  </defs>
  <g id="File-Icon-2">
    <path d="M0 0L48 0L48 48L0 48L0 0Z" id="Background" fill="#FFFFFF" fill-opacity="0" fill-rule="evenodd" stroke="none" />
    <path d="M39 16L39 41C39 42.105 38.105 43 37 43L11 43C9.895 43 9 42.105 9 41L9 7C9 5.895 9.895 5 11 5L28 5L39 16L39 16Z" id="Shape" fill="#50E6FF" stroke="none" />
    <path d="M28 5L28 14C28 15.105 28.895 16 30 16L39 16L28 5L28 5Z" id="Shape" fill="url(#gradient_1)" stroke="none" />
  </g>
  <g id="svg" transform="translate(11.714294 17)">
    <path d="M0 0L24.2857 0L24.2857 24.2857L0 24.2857L0 0Z" id="Background" fill="#FFFFFF" fill-opacity="0" fill-rule="evenodd" stroke="none" />
    <g id="svg">
      <g id="CCreative">
        <g id="svg92">
          <path d="M0 12.1429C0 5.43654 5.43654 0 12.1429 0C18.8492 0 24.2857 5.43654 24.2857 12.1429C24.2857 18.8492 18.8492 24.2857 12.1429 24.2857C5.43654 24.2857 0 18.8492 0 12.1429L0 12.1429L0 12.1429L0 12.1429Z" id="ellipse82" fill="#388E3C" fill-rule="evenodd" stroke="none" />
          <path d="M7.66043 12.1429C7.66043 9.66727 9.66727 7.66043 12.1429 7.66043C14.6185 7.66043 16.6252 9.66727 16.6252 12.1429C16.6252 14.6185 14.6185 16.6252 12.1429 16.6252C9.66727 16.6252 7.66043 14.6185 7.66043 12.1429L7.66043 12.1429L7.66043 12.1429L7.66043 12.1429Z" id="ellipse84" fill="#59AD43" fill-rule="evenodd" stroke="none" />
          <path d="M16.3449 5.93578L14.6259 5.44864L10.2546 5.44864L7.12303 7.33979L5.54208 9.7271L5.66588 13.8196L6.96791 17.3638L13.7798 24.1756C19.1805 23.448 23.4542 19.1706 24.177 13.7684L16.3449 5.93578L16.3449 5.93578L16.3449 5.93578L16.3449 5.93578Z" id="path86" fill="#1E1E1C" fill-opacity="0.5019608" fill-rule="evenodd" stroke="none" />
          <path d="M14.4814 16.7699L14.8418 17.5165C14.3471 17.7556 13.8215 17.9249 13.2803 18.0203C12.9369 18.0806 12.5945 18.1099 12.2562 18.1099C9.42022 18.1099 6.87543 16.0574 6.36836 13.1769C5.80107 9.95238 7.98727 6.83224 11.2118 6.26493C11.5016 6.21419 11.7942 6.18431 12.0883 6.1767L12.1101 7.00822C9.33531 7.08031 7.10785 9.35045 7.10785 12.1428C7.10785 14.9803 9.40836 17.2808 12.2458 17.2808C13.0474 17.2808 13.8054 17.0972 14.4814 16.7699L14.4814 16.7699L14.4814 16.7699L14.4814 16.7699L14.4814 16.7699ZM15.3019 17.2694L15.3118 17.2899L15.5386 17.7598L15.0686 17.9866C14.5302 18.2465 13.9591 18.431 13.3704 18.5344C13.0024 18.599 12.6276 18.6321 12.2558 18.6321C10.7521 18.6321 9.27792 18.0971 8.10539 17.1262C6.91813 16.1428 6.11888 14.7725 5.85373 13.2679C5.55538 11.5713 5.94101 9.85137 6.93994 8.42553C7.93889 6.9997 9.42354 6.05008 11.1207 5.75124C11.4347 5.69623 11.7554 5.6635 12.0741 5.65544L12.5959 5.64167L12.6096 6.16345L12.6101 6.18716C13.6868 6.25214 14.6857 6.6022 15.5338 7.16334L16.3441 5.93624C15.1279 5.1332 13.7025 4.70535 12.2453 4.70535C8.16467 4.70535 4.80736 8.06314 4.80736 12.1433C4.80736 16.2239 8.16515 19.5812 12.2453 19.5812C13.9595 19.5812 15.6221 18.9889 16.9498 17.9045L16.0195 16.7657C15.7943 16.9503 15.5542 17.1186 15.3019 17.2694L15.3019 17.2694L15.3019 17.2694L15.3019 17.2694L15.3019 17.2694Z" id="path88" fill="#ECECEC" fill-rule="evenodd" stroke="none" />
          <path d="M7.66043 12.1429C7.66043 9.66727 9.66727 7.66043 12.1429 7.66043C14.6185 7.66043 16.6252 9.66727 16.6252 12.1429C16.6252 14.6185 14.6185 16.6252 12.1429 16.6252C9.66727 16.6252 7.66043 14.6185 7.66043 12.1429L7.66043 12.1429L7.66043 12.1429L7.66043 12.1429Z" id="ellipse90" fill="#388E3C" fill-rule="evenodd" stroke="none" />
        </g>
      </g>
    </g>
  </g>
</svg>