<?xml version="1.0" encoding="utf-8"?>
<svg width="48px" height="48px" viewBox="0 0 48 48" version="1.1" xmlns:xlink="http://www.w3.org/1999/xlink" xmlns="http://www.w3.org/2000/svg">
  <defs>
    <linearGradient gradientUnits="objectBoundingBox" x1="0.5" y1="-1.5886669" x2="0.5" y2="0.9433336" id="gradient_1">
      <stop offset="0%" stop-color="#F9F9F9" />
      <stop offset="96.6%" stop-color="#C4C9CD" />
      <stop offset="100%" stop-color="#C2C8CC" />
    </linearGradient>
    <linearGradient gradientUnits="objectBoundingBox" x1="0.5" y1="-1.1120667" x2="0.5" y2="1.0118" id="gradient_2">
      <stop offset="0%" stop-color="#F9F9F9" />
      <stop offset="96.6%" stop-color="#C4C9CD" />
      <stop offset="100%" stop-color="#C2C8CC" />
    </linearGradient>
    <linearGradient gradientUnits="objectBoundingBox" x1="0.5" y1="1" x2="0.5" y2="0" id="gradient_3">
      <stop offset="0%" stop-color="#2AA4F4" />
      <stop offset="100%" stop-color="#007AD9" />
    </linearGradient>
    <linearGradient gradientUnits="objectBoundingBox" x1="0.5" y1="1.0000001" x2="0.5" y2="0" id="gradient_4">
      <stop offset="0%" stop-color="#2AA4F4" />
      <stop offset="100%" stop-color="#007AD9" />
    </linearGradient>
    <linearGradient gradientUnits="objectBoundingBox" x1="-0.651625" y1="0.5" x2="0.992375" y2="0.5" id="gradient_5">
      <stop offset="0%" stop-color="#A3FFFF" />
      <stop offset="22.300001%" stop-color="#9DFBFF" />
      <stop offset="52.999996%" stop-color="#8BF1FF" />
      <stop offset="88.5%" stop-color="#6EE0FF" />
      <stop offset="100%" stop-color="#63DAFF" />
    </linearGradient>
    <linearGradient gradientUnits="objectBoundingBox" x1="-0.19950008" y1="0.5" x2="0.9655001" y2="0.5" id="gradient_6">
      <stop offset="0%" stop-color="#A3FFFF" />
      <stop offset="22.300001%" stop-color="#9DFBFF" />
      <stop offset="52.999996%" stop-color="#8BF1FF" />
      <stop offset="88.5%" stop-color="#6EE0FF" />
      <stop offset="100%" stop-color="#63DAFF" />
    </linearGradient>
    <linearGradient gradientUnits="objectBoundingBox" x1="-0.6516249" y1="0.50000024" x2="0.9923749" y2="0.50000024" id="gradient_7">
      <stop offset="0%" stop-color="#A3FFFF" />
      <stop offset="22.300001%" stop-color="#9DFBFF" />
      <stop offset="52.999996%" stop-color="#8BF1FF" />
      <stop offset="88.5%" stop-color="#6EE0FF" />
      <stop offset="100%" stop-color="#63DAFF" />
    </linearGradient>
    <linearGradient gradientUnits="objectBoundingBox" x1="0.5" y1="-1.0744545" x2="0.5" y2="0.97995454" id="gradient_8">
      <stop offset="0%" stop-color="#F9F9F9" />
      <stop offset="96.6%" stop-color="#C4C9CD" />
      <stop offset="100%" stop-color="#C2C8CC" />
    </linearGradient>
    <path d="M48 0L48 0L48 48L0 48L0 0L48 0Z" id="path_1" />
    <clipPath id="clip_1">
      <use xlink:href="#path_1" clip-rule="evenodd" fill-rule="evenodd" />
    </clipPath>
  </defs>
  <g id="Adjust" clip-path="url(#clip_1)">
    <path d="M48 0L48 0L48 48L0 48L0 0L48 0Z" id="Adjust" fill="none" stroke="none" />
    <path d="M22 11L22 6C22 5.448 22.448 5 23 5L25 5C25.552 5 26 5.448 26 6L26 11L22 11L22 11Z" id="Shape" fill="url(#gradient_1)" stroke="none" />
    <path d="M8 20L8 6C8 5.448 8.448 5 9 5L11 5C11.552 5 12 5.448 12 6L12 20L8 20L8 20Z" id="Shape" fill="url(#gradient_2)" stroke="none" />
    <path d="M8 23L8 42C8 42.552 8.448 43 9 43L11 43C11.552 43 12 42.552 12 42L12 23L8 23L8 23Z" id="Shape" fill="url(#gradient_3)" stroke="none" />
    <path d="M22 13L22 42C22 42.552 22.448 43 23 43L25 43C25.552 43 26 42.552 26 42L26 13L22 13L22 13Z" id="Shape" fill="url(#gradient_4)" stroke="none" />
    <path d="M36 30L36 42C36 42.552 36.448 43 37 43L39 43C39.552 43 40 42.552 40 42L40 30L36 30L36 30Z" id="Shape" fill="url(#gradient_3)" stroke="none" />
    <path d="M14 20.5L14 24.5C14 24.776 13.776 25 13.5 25L6.5 25C6.224 25 6 24.776 6 24.5L6 20.5C6 20.224 6.224 20 6.5 20L13.5 20C13.776 20 14 20.224 14 20.5L14 20.5Z" id="Shape" fill="url(#gradient_5)" stroke="none" />
    <path d="M28 11.5L28 15.5C28 15.776 27.776 16 27.5 16L20.5 16C20.224 16 20 15.776 20 15.5L20 11.5C20 11.224 20.224 11 20.5 11L27.5 11C27.776 11 28 11.224 28 11.5L28 11.5Z" id="Shape" fill="url(#gradient_6)" stroke="none" />
    <path d="M42 27.5L42 31.5C42 31.776 41.776 32 41.5 32L34.5 32C34.224 32 34 31.776 34 31.5L34 27.5C34 27.224 34.224 27 34.5 27L41.5 27C41.776 27 42 27.224 42 27.5L42 27.5Z" id="Shape" fill="url(#gradient_7)" stroke="none" />
    <path d="M36 27L36 6C36 5.448 36.448 5 37 5L39 5C39.552 5 40 5.448 40 6L40 27L36 27L36 27Z" id="Shape" fill="url(#gradient_8)" stroke="none" />
  </g>
</svg>