<?xml version="1.0" encoding="utf-8"?>
<svg width="48px" height="48px" viewBox="0 0 48 48" version="1.1" xmlns:xlink="http://www.w3.org/1999/xlink" xmlns="http://www.w3.org/2000/svg">
  <defs>
    <linearGradient gradientUnits="userSpaceOnUse" x1="1" y1="0.08700007" x2="1" y2="4.0670004" id="gradient_1">
      <stop offset="0%" stop-color="#FFD869" />
      <stop offset="100%" stop-color="#FEC52B" />
    </linearGradient>
    <linearGradient gradientUnits="userSpaceOnUse" x1="-23" y1="7.1299996" x2="1" y2="2.231997" id="gradient_2">
      <stop offset="0%" stop-color="#FFD869" />
      <stop offset="100%" stop-color="#FEC52B" />
    </linearGradient>
    <linearGradient gradientUnits="userSpaceOnUse" x1="1" y1="7.1299996" x2="1" y2="2.231997" id="gradient_3">
      <stop offset="0%" stop-color="#FFD869" />
      <stop offset="100%" stop-color="#FEC52B" />
    </linearGradient>
    <linearGradient gradientUnits="userSpaceOnUse" x1="3.4999998" y1="4.5000005" x2="3.4999995" y2="-0.4669995" id="gradient_4">
      <stop offset="0%" stop-color="#FFD869" />
      <stop offset="100%" stop-color="#FEC52B" />
    </linearGradient>
    <linearGradient gradientUnits="userSpaceOnUse" x1="3.5000017" y1="4.500001" x2="3.5000012" y2="-0.46699905" id="gradient_5">
      <stop offset="0%" stop-color="#FFD869" />
      <stop offset="100%" stop-color="#FEC52B" />
    </linearGradient>
    <linearGradient gradientUnits="userSpaceOnUse" x1="3.4999998" y1="4.499999" x2="3.4999995" y2="-0.46700096" id="gradient_6">
      <stop offset="0%" stop-color="#FFD869" />
      <stop offset="100%" stop-color="#FEC52B" />
    </linearGradient>
    <linearGradient gradientUnits="userSpaceOnUse" x1="3.4999998" y1="-2.6089997" x2="3.5" y2="2.6580036" id="gradient_7">
      <stop offset="0%" stop-color="#FFD869" />
      <stop offset="100%" stop-color="#FEC52B" />
    </linearGradient>
    <linearGradient gradientUnits="userSpaceOnUse" x1="3.499998" y1="-2.6090012" x2="3.4999983" y2="2.658001" id="gradient_8">
      <stop offset="0%" stop-color="#FFD869" />
      <stop offset="100%" stop-color="#FEC52B" />
    </linearGradient>
    <linearGradient gradientUnits="userSpaceOnUse" x1="6.535" y1="-10.005" x2="26.765" y2="45.577" id="gradient_9">
      <stop offset="0%" stop-color="#21AD64" />
      <stop offset="100%" stop-color="#088242" />
    </linearGradient>
    <linearGradient gradientUnits="userSpaceOnUse" x1="9.000001" y1="-9.913" x2="9.000001" y2="10.416001" id="gradient_10">
      <stop offset="0%" stop-color="#6D6D6D" />
      <stop offset="12.6%" stop-color="#626262" />
      <stop offset="98.69999%" stop-color="#464646" />
      <stop offset="99.8%" stop-color="#454545" />
    </linearGradient>
    <path d="M0 0L48 0L48 48L0 48L0 0Z" id="path_1" />
    <clipPath id="mask_1">
      <use xlink:href="#path_1" />
    </clipPath>
  </defs>
  <g id="Electronics-Icon">
    <path d="M0 0L48 0L48 48L0 48L0 0Z" id="Background" fill="#FFFFFF" fill-opacity="0" fill-rule="evenodd" stroke="none" />
    <path d="M24 4L24 4C24.5523 4 25 4.44772 25 5L25 11L23 11L23 5C23 4.44772 23.4477 4 24 4L24 4Z" id="Shape" fill="url(#gradient_1)" stroke="none" />
    <path d="M30 4L30 4C30.5523 4 31 4.44772 31 5L31 11L29 11L29 5C29 4.44772 29.4477 4 30 4L30 4Z" id="Shape" fill="url(#gradient_1)" stroke="none" />
    <path d="M18 4L18 4C18.5523 4 19 4.44772 19 5L19 11L17 11L17 5C17 4.44772 17.4477 4 18 4L18 4Z" id="Shape" fill="url(#gradient_1)" stroke="none" />
    <path d="M23 37L25 37L25 43C25 43.5523 24.5523 44 24 44L24 44C23.4477 44 23 43.5523 23 43L23 37L23 37Z" id="Shape" fill="url(#gradient_2)" stroke="none" />
    <path d="M29 37L31 37L31 43C31 43.5523 30.5523 44 30 44L30 44C29.4477 44 29 43.5523 29 43L29 37L29 37Z" id="Shape" fill="url(#gradient_3)" stroke="none" />
    <path d="M17 37L19 37L19 43C19 43.5523 18.5523 44 18 44L18 44C17.4477 44 17 43.5523 17 43L17 37L17 37Z" id="Shape" fill="url(#gradient_3)" stroke="none" />
    <path d="M11 23.25L11 25.25L5 25.25C4.44772 25.25 4 24.8023 4 24.25L4 24.25C4 23.6977 4.44772 23.25 5 23.25L11 23.25L11 23.25Z" id="Shape" fill="url(#gradient_4)" stroke="none" />
    <path d="M11 29L11 31L5 31C4.44772 31 4 30.5523 4 30L4 30C4 29.4477 4.44772 29 5 29L11 29L11 29Z" id="Shape" fill="url(#gradient_5)" stroke="none" />
    <path d="M11 17L11 19L5 19C4.44772 19 4 18.5523 4 18L4 18C4 17.4477 4.44772 17 5 17L11 17L11 17Z" id="Shape" fill="url(#gradient_6)" stroke="none" />
    <path d="M44 24L44 24C44 24.5523 43.5523 25 43 25L37 25L37 23L43 23C43.5523 23 44 23.4477 44 24L44 24Z" id="Shape" fill="url(#gradient_7)" stroke="none" />
    <path d="M44 30L44 30C44 30.5523 43.5523 31 43 31L37 31L37 29L43 29C43.5523 29 44 29.4477 44 30L44 30Z" id="Shape" fill="url(#gradient_7)" stroke="none" />
    <path d="M44 18L44 18C44 18.5523 43.5523 19 43 19L37 19L37 17L43 17C43.5523 17 44 17.4477 44 18L44 18Z" id="Shape" fill="url(#gradient_8)" stroke="none" />
    <path d="M8 12L8 10C8 9.44771 8.19526 8.97631 8.58579 8.58579C8.97631 8.19526 9.44771 8 10 8L38 8C38.5523 8 39.0237 8.19526 39.4142 8.58579C39.8047 8.97631 40 9.44771 40 10L40 38C40 38.5523 39.8047 39.0237 39.4142 39.4142C39.0237 39.8047 38.5523 40 38 40L10 40C9.44771 40 8.97631 39.8047 8.58579 39.4142C8.19526 39.0237 8 38.5523 8 38L8 12Z" id="Rectangle" fill="url(#gradient_9)" fill-rule="evenodd" stroke="none" />
    <path d="M31 17C32.1046 17 33 17.8954 33 19L33 29C33 30.1046 32.1046 31 31 31L17 31C15.8954 31 15 30.1046 15 29L15 19C15 17.8954 15.8954 17 17 17L31 17M31 16L17 16C15.3439 16.0019 14.0019 17.3439 14 19L14 29C14.0017 30.6558 15.3436 31.998 16.9997 32L31 32C32.6561 31.9981 33.9981 30.6561 34 29L34 19C33.9983 17.3442 32.6564 16.002 31.0003 16L31 16Z" id="Shape" fill="#000000" fill-opacity="0.05" fill-rule="evenodd" stroke="none" />
    <path d="M31 17C32.1046 17 33 17.8954 33 19L33 29C33 30.1046 32.1046 31 31 31L17 31C15.8954 31 15 30.1046 15 29L15 19C15 17.8954 15.8954 17 17 17L31 17M31 16.5L17 16.5C15.6199 16.5016 14.5016 17.6199 14.5 19L14.5 29C14.5016 30.3801 15.62 31.4985 17 31.5L31 31.5C32.3801 31.4984 33.4984 30.3801 33.5 29L33.5 19C33.4985 17.62 32.3802 16.5016 31.0001 16.5L31 16.5Z" id="Shape" fill="#000000" fill-opacity="0.07" fill-rule="evenodd" stroke="none" />
    <path d="M15 21L15 19C15 18.4477 15.1953 17.9763 15.5858 17.5858C15.9763 17.1953 16.4477 17 17 17L31 17C31.5523 17 32.0237 17.1953 32.4142 17.5858C32.8047 17.9763 33 18.4477 33 19L33 29C33 29.5523 32.8047 30.0237 32.4142 30.4142C32.0237 30.8047 31.5523 31 31 31L17 31C16.4477 31 15.9763 30.8047 15.5858 30.4142C15.1953 30.0237 15 29.5523 15 29L15 21Z" id="Rectangle" fill="url(#gradient_10)" fill-rule="evenodd" stroke="none" />
  </g>
</svg>