<?xml version="1.0" encoding="utf-8"?>
<svg width="48px" height="48px" viewBox="0 0 48 48" version="1.1" xmlns:xlink="http://www.w3.org/1999/xlink" xmlns="http://www.w3.org/2000/svg">
  <defs>
    <linearGradient gradientUnits="objectBoundingBox" x1="0.4254973" y1="-0.34210777" x2="0.73744094" y2="2.2345903" id="gradient_1">
      <stop offset="0%" stop-color="#5C65D6" />
      <stop offset="99.9%" stop-color="#464EB0" />
    </linearGradient>
    <linearGradient gradientUnits="objectBoundingBox" x1="0.31292385" y1="-1.463306" x2="0.8118363" y2="3.9349036" id="gradient_2">
      <stop offset="0%" stop-color="#5C65D6" />
      <stop offset="99.9%" stop-color="#464EB0" />
    </linearGradient>
    <linearGradient gradientUnits="objectBoundingBox" x1="0.19864976" y1="-2.485602" x2="0.7777941" y2="3.320115" id="gradient_3">
      <stop offset="0%" stop-color="#5C65D6" />
      <stop offset="99.9%" stop-color="#464EB0" />
    </linearGradient>
    <linearGradient gradientUnits="objectBoundingBox" x1="0.33099964" y1="-1.7043338" x2="0.61804926" y2="1.758348" id="gradient_4">
      <stop offset="0%" stop-color="#5C65D6" />
      <stop offset="99.9%" stop-color="#464EB0" />
    </linearGradient>
    <linearGradient gradientUnits="objectBoundingBox" x1="0.27569264" y1="-2.5986428" x2="0.5730649" y2="1.2218547" id="gradient_5">
      <stop offset="0%" stop-color="#5C65D6" />
      <stop offset="99.9%" stop-color="#464EB0" />
    </linearGradient>
    <path d="M48 0L48 0L48 48L0 48L0 0L48 0Z" id="path_1" />
    <clipPath id="clip_1">
      <use xlink:href="#path_1" />
    </clipPath>
  </defs>
  <g id="Java" clip-path="url(#clip_1)">
    <path d="M48 0L48 0L48 48L0 48L0 0L48 0Z" id="Java" fill="none" stroke="none" />
    <path d="M23.65 24.898C22.652 23.289 21.928 21.955 20.925 19.443C19.229 15.2 31.24 11.366 26.37 3.999C28.481 9.088 18.793 12.234 17.893 16.472C17.07 20.37 23.645 24.898 23.65 24.898L23.65 24.898Z" id="Shape" fill="#D43A02" stroke="none" />
    <path d="M23.878 17.27C23.686 19.786 26.107 21.127 26.177 22.965C26.233 24.461 24.73 25.708 24.73 25.708C24.73 25.708 27.458 25.172 28.309 22.89C29.254 20.356 26.475 18.621 26.761 16.592C27.028 14.654 32.792 11.049 32.792 11.049C32.792 11.049 24.311 11.611 23.878 17.27L23.878 17.27Z" id="Shape" fill="#D43A02" stroke="none" />
    <path d="M32.084 25.055C33.838 24.661 35.317 25.778 35.317 27.065C35.317 29.966 31.296 32.708 31.296 32.708C31.296 32.708 37.521 31.966 37.521 27.203C37.521 24.053 34.464 23.266 32.084 25.055L32.084 25.055ZM29.129 27.395C29.129 27.395 31.07 26.012 31.587 25.493C26.824 26.504 15.949 26.64 15.949 25.762C15.949 24.953 19.456 24.124 19.456 24.124C19.456 24.124 11.683 24.012 11.683 26.305C11.683 28.695 21.858 28.866 29.129 27.395L29.129 27.395Z" id="Shape" fill="url(#gradient_1)" fill-rule="evenodd" stroke="none" />
    <path d="M27.935 29.571C23.426 31.07 15.121 30.591 17.581 28.578C16.383 28.578 14.607 29.541 14.607 30.467C14.607 32.324 23.589 33.758 30.237 31.039L27.935 29.571L27.935 29.571Z" id="Shape" fill="url(#gradient_2)" stroke="none" />
    <path d="M18.686 32.739C17.05 32.739 15.991 33.793 15.991 34.561C15.991 36.952 25.751 37.193 29.618 34.766L27.16 33.134C24.271 34.404 17.014 34.579 18.686 32.739L18.686 32.739Z" id="Shape" fill="url(#gradient_3)" stroke="none" />
    <path d="M36.281 36.632C36.281 35.696 35.226 35.255 34.848 35.044C37.076 40.417 12.531 40 12.531 36.828C12.531 36.107 14.338 35.401 16.008 35.735L14.588 34.896C11.26 34.374 9 35.837 9 37.017C9 42.52 36.281 42.255 36.281 36.632L36.281 36.632Z" id="Shape" fill="url(#gradient_4)" stroke="none" />
    <path d="M39 38.604C34.854 42.699 24.341 44.191 13.769 41.661C24.341 46.164 38.95 43.628 39 38.604L39 38.604Z" id="Shape" fill="url(#gradient_5)" stroke="none" />
  </g>
</svg>