<?xml version="1.0" encoding="utf-8"?>
<svg width="48px" height="48px" viewBox="0 0 48 48" version="1.1" xmlns:xlink="http://www.w3.org/1999/xlink" xmlns="http://www.w3.org/2000/svg">
  <defs>
    <linearGradient gradientUnits="userSpaceOnUse" x1="0.5290003" y1="10.472" x2="5.6" y2="5.3999996" id="gradient_1">
      <stop offset="0%" stop-color="#3079D6" />
      <stop offset="100%" stop-color="#297CD2" />
    </linearGradient>
    <linearGradient gradientUnits="userSpaceOnUse" x1="-0.44498" y1="-17.472443" x2="4.7604313" y2="-3.171112" id="gradient_2">
      <stop offset="0%" stop-color="#5C65D6" />
      <stop offset="99.9%" stop-color="#464EB0" />
    </linearGradient>
    <linearGradient gradientUnits="userSpaceOnUse" x1="-6.2749176" y1="-22.207613" x2="-1.2387078" y2="-8.369995" id="gradient_3">
      <stop offset="0%" stop-color="#5C65D6" />
      <stop offset="99.9%" stop-color="#464EB0" />
    </linearGradient>
    <linearGradient gradientUnits="userSpaceOnUse" x1="-8.579249" y1="-27.139854" x2="-3.4823332" y2="-13.134957" id="gradient_4">
      <stop offset="0%" stop-color="#5C65D6" />
      <stop offset="99.9%" stop-color="#464EB0" />
    </linearGradient>
    <linearGradient gradientUnits="userSpaceOnUse" x1="0.019375691" y1="-29.305614" x2="5.0768957" y2="-15.411145" id="gradient_5">
      <stop offset="0%" stop-color="#5C65D6" />
      <stop offset="99.9%" stop-color="#464EB0" />
    </linearGradient>
    <linearGradient gradientUnits="userSpaceOnUse" x1="-4.400061" y1="-33.98763" x2="0.44562516" y2="-20.673775" id="gradient_6">
      <stop offset="0%" stop-color="#5C65D6" />
      <stop offset="99.9%" stop-color="#464EB0" />
    </linearGradient>
    <path d="M0 0L48 0L48 48L0 48L0 0Z" id="path_1" />
    <clipPath id="mask_1">
      <use xlink:href="#path_1" />
    </clipPath>
  </defs>
  <g id="File-Icon-2">
    <path d="M0 0L48 0L48 48L0 48L0 0Z" id="Background" fill="#FFFFFF" fill-opacity="0" fill-rule="evenodd" stroke="none" />
    <path d="M39 16L39 41C39 42.105 38.105 43 37 43L11 43C9.895 43 9 42.105 9 41L9 7C9 5.895 9.895 5 11 5L28 5L39 16L39 16Z" id="Shape" fill="#50E6FF" stroke="none" />
    <path d="M28 5L28 14C28 15.105 28.895 16 30 16L39 16L28 5L28 5Z" id="Shape" fill="url(#gradient_1)" stroke="none" />
  </g>
  <g id="svg" transform="translate(8 13)">
    <g id="Java-Icon">
      <path d="M0 0L31 0L31 31L0 31L0 0L0 0Z" id="Background" fill="#FFFFFF" fill-opacity="0" fill-rule="evenodd" stroke="none" />
      <path d="M15.274 16.08C14.6294 15.0408 14.1618 14.1793 13.5141 12.5569C12.4187 9.81667 20.1758 7.34054 17.0306 2.58269C18.394 5.86933 12.1371 7.90113 11.5559 10.6382C11.0244 13.1556 15.2707 16.08 15.274 16.08L15.274 16.08L15.274 16.08Z" id="Shape" fill="#D43A02" stroke="none" />
      <path d="M15.4212 11.1535C15.2972 12.7785 16.8608 13.6445 16.906 14.8316C16.9422 15.7977 15.9715 16.6031 15.9715 16.6031C15.9715 16.6031 17.7333 16.2569 18.2829 14.7831C18.8932 13.1466 17.0985 12.0261 17.2832 10.7157C17.4556 9.46404 21.1782 7.13581 21.1782 7.13581C21.1782 7.13581 15.7009 7.49877 15.4212 11.1535L15.4212 11.1535L15.4212 11.1535Z" id="Shape#1" fill="#D43A02" stroke="none" />
      <path d="M20.7209 16.1814C21.8537 15.9269 22.8089 16.6483 22.8089 17.4795C22.8089 19.3531 20.212 21.1239 20.212 21.1239C20.212 21.1239 24.2323 20.6447 24.2323 17.5686C24.2323 15.5342 22.258 15.026 20.7209 16.1814L20.7209 16.1814L20.7209 16.1814ZM18.8125 17.6926C18.8125 17.6926 20.066 16.7994 20.3999 16.4642C17.3238 17.1172 10.3004 17.205 10.3004 16.638C10.3004 16.1155 12.5653 15.5801 12.5653 15.5801C12.5653 15.5801 7.54527 15.5077 7.54527 16.9886C7.54527 18.5322 14.1166 18.6426 18.8125 17.6926L18.8125 17.6926L18.8125 17.6926Z" id="Shape#2" fill="url(#gradient_2)" fill-rule="evenodd" stroke="none" />
      <path d="M18.0413 19.0979C15.1293 20.066 9.76564 19.7567 11.3544 18.4566C10.5807 18.4566 9.43368 19.0786 9.43368 19.6766C9.43368 20.8759 15.2346 21.802 19.5281 20.046L18.0413 19.0979L18.0413 19.0979L18.0413 19.0979Z" id="Shape#3" fill="url(#gradient_3)" stroke="none" />
      <path d="M12.068 21.1439C11.0115 21.1439 10.3275 21.8247 10.3275 22.3207C10.3275 23.8648 16.6308 24.0205 19.1283 22.453L17.5408 21.399C15.675 22.2193 10.9882 22.3323 12.068 21.1439L12.068 21.1439L12.068 21.1439Z" id="Shape#4" fill="url(#gradient_4)" stroke="none" />
      <path d="M23.4315 23.6582C23.4315 23.0537 22.7501 22.7689 22.506 22.6326C23.9449 26.1026 8.09294 25.8333 8.09294 23.7847C8.09294 23.3191 9.25996 22.8631 10.3385 23.0789L9.42142 22.537C7.27208 22.1999 5.8125 23.1447 5.8125 23.9068C5.8125 27.4608 23.4315 27.2897 23.4315 23.6582L23.4315 23.6582L23.4315 23.6582Z" id="Shape#5" fill="url(#gradient_5)" stroke="none" />
      <path d="M25.1875 24.9317C22.5099 27.5764 15.7202 28.54 8.89248 26.9061C15.7202 29.8142 25.1552 28.1764 25.1875 24.9317L25.1875 24.9317L25.1875 24.9317Z" id="Shape#6" fill="url(#gradient_6)" stroke="none" />
    </g>
  </g>
</svg>