<?xml version="1.0" encoding="utf-8"?>
<svg width="48px" height="48px" viewBox="0 0 48 48" version="1.1" xmlns:xlink="http://www.w3.org/1999/xlink"
     xmlns="http://www.w3.org/2000/svg">
    <defs>
        <linearGradient gradientUnits="userSpaceOnUse" x1="0.5290003" y1="10.472" x2="5.6" y2="5.3999996"
                        id="gradient_1">
            <stop offset="0%" stop-color="#3079D6"/>
            <stop offset="100%" stop-color="#297CD2"/>
        </linearGradient>
        <linearGradient gradientUnits="userSpaceOnUse" x1="1.8606246" y1="-10.691876" x2="21.727497" y2="24.494375"
                        id="gradient_2">
            <stop offset="0%" stop-color="#41474A"/>
            <stop offset="100%" stop-color="#323538"/>
        </linearGradient>
        <linearGradient gradientUnits="userSpaceOnUse" x1="1.8606246" y1="-10.691876" x2="21.727497" y2="24.494375"
                        id="gradient_3">
            <stop offset="0%" stop-color="#ECEFF1"/>
            <stop offset="100%" stop-color="#CFD8DC"/>
        </linearGradient>
        <path d="M0 0L48 0L48 48L0 48L0 0Z" id="path_1"/>
        <clipPath id="mask_1">
            <use xlink:href="#path_1"/>
        </clipPath>
    </defs>
    <g id="File-Icon-2">
        <path d="M0 0L48 0L48 48L0 48L0 0Z" id="Background" fill="#FFFFFF" fill-opacity="0" fill-rule="evenodd"
              stroke="none"/>
        <path d="M39 16L39 41C39 42.105 38.105 43 37 43L11 43C9.895 43 9 42.105 9 41L9 7C9 5.895 9.895 5 11 5L28 5L39 16L39 16Z"
              id="Shape" fill="#50E6FF" stroke="none"/>
        <path d="M28 5L28 14C28 15.105 28.895 16 30 16L39 16L28 5L28 5Z" id="Shape" fill="url(#gradient_1)"
              stroke="none"/>
    </g>
    <g id="svg-2" transform="translate(9 15)">
        <g id="Linux-Terminal-Icon">
            <path d="M0 0L30 0L30 30L0 30L0 0L0 0Z" id="Background" fill="#FFFFFF" fill-opacity="0" fill-rule="evenodd"
                  stroke="none"/>
            <path d="M26.875 25L3.125 25C2.43437 25 1.875 24.4406 1.875 23.75L1.875 5.62499C1.875 4.93436 2.43437 4.37499 3.125 4.37499L26.875 4.37499C27.5656 4.37499 28.125 4.93436 28.125 5.62499L28.125 23.75C28.125 24.4406 27.5656 25 26.875 25L26.875 25L26.875 25Z"
                  id="Shape" fill="url(#gradient_2)" stroke="none"/>
            <path d="M26.25 6.24999L26.25 23.125L3.75 23.125L3.75 6.24999L26.25 6.24999M26.875 4.37499L3.125 4.37499C2.43437 4.37499 1.875 4.93436 1.875 5.62499L1.875 23.75C1.875 24.4406 2.43437 25 3.125 25L26.875 25C27.5656 25 28.125 24.4406 28.125 23.75L28.125 5.62499C28.125 4.93436 27.5656 4.37499 26.875 4.37499L26.875 4.37499L26.875 4.37499L26.875 4.37499Z"
                  id="Shape#1" fill="url(#gradient_3)" fill-rule="evenodd" stroke="none"/>
            <path d="M10.325 11.5794C10.085 11.3206 9.72812 11.0969 9.23937 10.8988L9.23937 10.0594C9.49125 10.12 9.725 10.2163 9.93625 10.3456L10.4119 10.6375L10.4119 10.0794L10.4119 9.06439L10.4119 8.88189L10.2531 8.79251C10.0044 8.65189 9.67062 8.56188 9.23937 8.51876L9.23937 8.12501L9.23937 7.81251L8.92687 7.81251L8.38312 7.81251L8.07062 7.81251L8.07062 8.12501L8.07062 8.55626C7.67 8.64126 7.33312 8.81876 7.06687 9.08626C6.73187 9.42251 6.5625 9.83501 6.5625 10.3125C6.5625 10.7519 6.69375 11.1319 6.95312 11.4431C7.17625 11.71 7.54312 11.9469 8.07062 12.1644L8.07062 12.955C7.96187 12.9294 7.84562 12.895 7.72375 12.8519C7.47312 12.7638 7.28812 12.6719 7.17312 12.5775L6.6625 12.16L6.6625 12.8194L6.6625 13.8606L6.6625 14.0494L6.82937 14.1375C7.21562 14.3406 7.63188 14.4631 8.07 14.5038L8.07 15L8.07 15.3125L8.3825 15.3125L8.92625 15.3125L9.23875 15.3125L9.23875 15L9.23875 14.4513C9.66625 14.3644 10.0131 14.1944 10.2719 13.9444C10.5975 13.6306 10.7625 13.2169 10.7625 12.7144C10.7625 12.2738 10.6156 11.8919 10.325 11.5794L10.325 11.5794L10.325 11.5794Z"
                  id="Shape#2" fill="#000000" fill-opacity="0.050980393" stroke="none"/>
            <path d="M10.5537 11.3669C10.3156 11.11 9.98624 10.8881 9.55124 10.6925L9.55124 10.4956C9.62811 10.5306 9.70186 10.5694 9.77249 10.6125L10.2481 10.9044L10.7244 11.1962L10.7244 10.6381L10.7244 10.08L10.7244 9.065L10.7244 8.8825L10.7244 8.7L10.5656 8.61062L10.4069 8.52125C10.1781 8.39187 9.89686 8.30125 9.55186 8.245L9.55186 8.125L9.55186 7.8125L9.55186 7.5L9.23936 7.5L8.92686 7.5L8.38311 7.5L8.07061 7.5L7.75811 7.5L7.75811 7.8125L7.75811 8.125L7.75811 8.31562C7.40374 8.42812 7.09749 8.6125 6.84561 8.86562C6.44999 9.26312 6.24999 9.75 6.24999 10.3125C6.24999 10.8269 6.40561 11.2744 6.71249 11.6431C6.93999 11.915 7.28311 12.1537 7.75749 12.3694L7.75749 12.5319C7.52311 12.4437 7.41499 12.3725 7.37061 12.3356L6.85999 11.9181L6.34936 11.5006L6.34936 12.16L6.34936 12.8194L6.34936 13.8606L6.34936 14.0494L6.34936 14.2381L6.51624 14.3262L6.68311 14.4144C7.02124 14.5919 7.38061 14.7137 7.75686 14.7781L7.75686 15L7.75686 15.3125L7.75686 15.625L8.06936 15.625L8.38186 15.625L8.92561 15.625L9.23811 15.625L9.55061 15.625L9.55061 15.3125L9.55061 15L9.55061 14.6956C9.92561 14.5856 10.24 14.4087 10.4881 14.1687C10.8769 13.7937 11.0737 13.3044 11.0737 12.7144C11.075 12.1925 10.9 11.7387 10.5537 11.3669L10.5537 11.3669L10.5537 11.3669Z"
                  id="Shape#3" fill="#000000" fill-opacity="0.050980393" stroke="none"/>
            <path d="M25.9375 6.5625L25.9375 22.8125L4.06251 22.8125L4.06251 6.5625L25.9375 6.5625M26.25 6.24999L3.75 6.24999L3.75 23.125L26.25 23.125L26.25 6.24999L26.25 6.24999L26.25 6.24999L26.25 6.24999Z"
                  id="Shape#4" fill="#000000" fill-opacity="0.050980393" fill-rule="evenodd" stroke="none"/>
            <path d="M3.75 6.24999L26.25 6.24999L26.25 23.125L3.75 23.125L3.75 6.24999L3.75 6.24999Z" id="Rectangle"
                  fill="none" fill-rule="evenodd" stroke="none"/>
            <path d="M25.625 6.87498L25.625 22.5L4.37499 22.5L4.37499 6.87498L25.625 6.87498M26.25 6.24999L3.75 6.24999L3.75 23.125L26.25 23.125L26.25 6.24999L26.25 6.24999L26.25 6.24999L26.25 6.24999Z"
                  id="Shape#5" fill="#000000" fill-opacity="0.050980393" fill-rule="evenodd" stroke="none"/>
            <path d="M15.625 14.0625L11.875 14.0625L11.5625 14.0625L11.5625 14.375L11.5625 15L11.5625 15.3125L11.875 15.3125L15.625 15.3125L15.9375 15.3125L15.9375 15L15.9375 14.375L15.9375 14.0625L15.625 14.0625L15.625 14.0625Z"
                  id="Polygon" fill="#000000" fill-opacity="0.050980393" fill-rule="evenodd" stroke="none"/>
            <path d="M15.9375 13.75L15.625 13.75L11.875 13.75L11.5625 13.75L11.25 13.75L11.25 14.0625L11.25 14.375L11.25 15L11.25 15.3125L11.25 15.625L11.5625 15.625L11.875 15.625L15.625 15.625L15.9375 15.625L16.25 15.625L16.25 15.3125L16.25 15L16.25 14.375L16.25 14.0625L16.25 13.75L15.9375 13.75L15.9375 13.75Z"
                  id="Polygon#1" fill="#000000" fill-opacity="0.050980393" fill-rule="evenodd" stroke="none"/>
            <path d="M8.92688 14.1844L8.92688 15L8.38313 15L8.38313 14.2069C7.87876 14.2044 7.41001 14.0894 6.97564 13.8612L6.97564 12.82C7.11938 12.9375 7.33438 13.0469 7.62001 13.1469C7.90563 13.2475 8.16001 13.305 8.38313 13.32L8.38313 11.9519C7.80188 11.7337 7.40563 11.4975 7.19313 11.2437C6.98126 10.9887 6.87501 10.6787 6.87501 10.3125C6.87501 9.91874 7.01251 9.58374 7.28814 9.30686C7.56376 9.02999 7.92876 8.86936 8.38313 8.82374L8.38313 8.12499L8.92688 8.12499L8.92688 8.80936C9.45063 8.83436 9.84188 8.91936 10.1 9.06499L10.1 10.08C9.75251 9.86686 9.36126 9.73687 8.92688 9.68936L8.92688 11.1137C9.47063 11.3119 9.86001 11.5381 10.0963 11.7925C10.3325 12.0469 10.4506 12.3544 10.4506 12.715C10.4506 13.1312 10.3188 13.4662 10.055 13.7206C9.79188 13.9744 9.41626 14.1294 8.92688 14.1844L8.92688 14.1844L8.92688 14.1844ZM8.49001 10.895L8.49001 9.70311C8.07385 9.76561 7.86501 9.94748 7.86501 10.2481C7.86501 10.5069 8.07385 10.7225 8.49001 10.895L8.49001 10.895L8.49001 10.895ZM8.92688 12.1656L8.92688 13.3044C9.34355 13.2494 9.55188 13.07 9.55188 12.7669C9.55115 12.5219 9.34355 12.3212 8.92688 12.1656L8.92688 12.1656L8.92688 12.1656Z"
                  id="Group" fill="#FFFFFF" fill-rule="evenodd" stroke="none"/>
            <path d="M11.875 14.375L15.625 14.375L15.625 15L11.875 15L11.875 14.375L11.875 14.375Z" id="Rectangle#1"
                  fill="#FFFFFF" fill-rule="evenodd" stroke="none"/>
        </g>
    </g>
</svg>