<?xml version="1.0" encoding="utf-8"?>
<svg width="48px" height="48px" viewBox="0 0 48 48" version="1.1" xmlns:xlink="http://www.w3.org/1999/xlink" xmlns="http://www.w3.org/2000/svg">
  <defs>
    <linearGradient gradientUnits="userSpaceOnUse" x1="16.89" y1="-1.1240044" x2="25.234" y2="26.835" id="gradient_1">
      <stop offset="0%" stop-color="#6E6E6E" />
      <stop offset="99.9%" stop-color="#4D4D4D" />
    </linearGradient>
    <path d="M0 0L48 0L48 48L0 48L0 0Z" id="path_1" />
    <clipPath id="clip_1">
      <use xlink:href="#path_1" />
    </clipPath>
  </defs>
  <g id="Command Line" clip-path="url(#clip_1)">
    <path d="M0 0L48 0L48 48L0 48L0 0Z" id="Command-Line" fill="none" fill-rule="evenodd" stroke="none" />
    <path d="M43 8C44.1 8 45 8.9 45 10L45 15L3 15L3 10C3 8.9 3.9 8 5 8L43 8L43 8Z" id="Shape" fill="#CCCCCC" stroke="none" />
    <path d="M45 13L3 13L3 38C3 39.1 3.9 40 5 40L43 40C44.1 40 45 39.1 45 38L45 13L45 13Z" id="Shape" fill="url(#gradient_1)" stroke="none" />
    <path d="M25.2 28.8C24.7 28.8 24.2 29 23.8 29.4C23.8 29.4 23.8 29.5 23.7 29.5L23.7 27.8L22.2 28.8C21.6 29.2 21 29.3 20.2 29.3C19.4 29.3 18.8 29.1 18.3 28.6C17.8 28.1 17.6 27.4 17.6 26.5C17.6 25.5 17.9 24.8 18.4 24.3C18.9 23.8 19.6 23.5 20.4 23.5C21.1 23.5 21.7 23.7 22.2 24L23.2 24.6C23.2 24.7 23.1 24.9 23.1 25C23.1 25.5 23.3 26 23.7 26.4C24.1 26.8 24.6 27 25.1 27C25.6 27 26.1 26.8 26.5 26.4C26.9 26 27.1 25.5 27.1 25C27.1 24.5 26.9 24 26.5 23.6C26.1 23.2 25.6 23 25.1 23C24.6 23 24.1 23.2 23.7 23.6C23.7 23.6 23.7 23.7 23.6 23.7L23.6 20.8L23 20.5C22.2 20.2 21.2 20 20.1 20C18.3 20 16.7 20.6 15.5 21.8C14.3 23 13.7 24.6 13.7 26.6C13.7 28.4 14.3 29.9 15.4 31.1C16.5 32.3 18 32.9 19.8 32.9C21.1 32.9 22.3 32.7 23.2 32.2L23.5 32C23.6 32.1 23.7 32.2 23.8 32.3C24.2 32.7 24.7 32.9 25.2 32.9C25.8 32.9 26.2 32.7 26.6 32.3C27 31.9 27.2 31.4 27.2 30.9C27.2 30.4 27 29.9 26.6 29.5C26.2 29 25.7 28.8 25.2 28.8L25.2 28.8Z" id="Shape" fill="#000000" fill-opacity="0.05" stroke="none" />
    <path d="M41 11C41 10.4477 41.4477 10 42 10C42.5523 10 43 10.4477 43 11C43 11.5523 42.5523 12 42 12C41.4477 12 41 11.5523 41 11Z" id="Circle" fill="#999999" fill-rule="evenodd" stroke="none" />
    <path d="M38 11C38 10.4477 38.4477 10 39 10C39.5523 10 40 10.4477 40 11C40 11.5523 39.5523 12 39 12C38.4477 12 38 11.5523 38 11Z" id="Circle" fill="#999999" fill-rule="evenodd" stroke="none" />
    <path d="M19.7 32.3C18 32.3 16.7 31.8 15.7 30.7C14.7 29.6 14.2 28.3 14.2 26.6C14.2 24.8 14.8 23.3 15.9 22.2C17 21.1 18.5 20.5 20.2 20.5C21.3 20.5 22.2 20.7 22.9 21L23.2 21.1L23.2 24L22.4 23.6C21.8 23.2 21.1 23 20.3 23C19.3 23 18.5 23.3 17.9 23.9C17.3 24.5 17 25.4 17 26.5C17 27.5 17.3 28.3 17.8 28.9C18.4 29.5 19.1 29.8 20 29.8C20.9 29.8 21.7 29.6 22.3 29.2L23.1 28.7L23.1 31.5L22.8 31.6C22 32 21 32.3 19.7 32.3L19.7 32.3Z" id="Shape" fill="#000000" fill-opacity="0.07" stroke="none" />
    <path d="M16.2 22.4C15.2 23.4 14.7 24.8 14.7 26.5C14.7 28.1 15.2 29.3 16.1 30.3C17 31.3 18.2 31.7 19.8 31.7C21 31.7 22 31.5 22.8 31.1L22.8 29.5C22.1 30 21.2 30.2 20.2 30.2C19.1 30.2 18.3 29.9 17.6 29.2C16.9 28.5 16.6 27.6 16.6 26.4C16.6 25.2 17 24.2 17.7 23.5C18.4 22.8 19.3 22.4 20.5 22.4C21.4 22.4 22.1 22.6 22.8 23L22.8 21.3C22.1 21 21.3 20.9 20.3 20.9C18.6 20.9 17.2 21.4 16.2 22.4L16.2 22.4Z" id="Shape" fill="#FFFFFF" stroke="none" />
    <path d="M25.2 32.2C24.8 32.2 24.4 32.1 24.1 31.8C23.8 31.5 23.6 31.1 23.6 30.7C23.6 30.3 23.8 29.9 24.1 29.6C24.4 29.3 24.8 29.2 25.2 29.2C25.6 29.2 26 29.3 26.3 29.6C26.6 29.9 26.8 30.3 26.8 30.7C26.8 31.1 26.6 31.5 26.3 31.8C26 32.1 25.6 32.2 25.2 32.2L25.2 32.2Z" id="Shape" fill="#000000" fill-opacity="0.07" stroke="none" />
    <path d="M25.2 29.8C24.9 29.8 24.7 29.9 24.5 30.1C24.3 30.3 24.2 30.5 24.2 30.8C24.2 31.1 24.3 31.3 24.5 31.5C24.7 31.7 25 31.8 25.2 31.8C25.5 31.8 25.8 31.7 26 31.5C26.2 31.3 26.3 31.1 26.3 30.8C26.3 30.5 26.2 30.3 26 30.1C25.7 29.9 25.5 29.8 25.2 29.8L25.2 29.8Z" id="Shape" fill="#FFFFFF" stroke="none" />
    <path d="M25.2 26.4C24.8 26.4 24.4 26.3 24.1 26C23.8 25.7 23.6 25.3 23.6 24.9C23.6 24.5 23.8 24.1 24.1 23.8C24.4 23.5 24.8 23.4 25.2 23.4C25.6 23.4 26 23.5 26.3 23.8C26.6 24.1 26.8 24.5 26.8 24.9C26.8 25.3 26.6 25.7 26.3 26C26 26.3 25.6 26.4 25.2 26.4L25.2 26.4Z" id="Shape" fill="#000000" fill-opacity="0.07" stroke="none" />
    <path d="M25.2 24C24.9 24 24.7 24.1 24.5 24.3C24.3 24.5 24.2 24.7 24.2 25C24.2 25.3 24.3 25.5 24.5 25.7C24.7 25.9 25 26 25.2 26C25.5 26 25.8 25.9 26 25.7C26.2 25.5 26.3 25.3 26.3 25C26.3 24.7 26.2 24.5 26 24.3C25.7 24.1 25.5 24 25.2 24L25.2 24Z" id="Shape" fill="#FFFFFF" stroke="none" />
    <path d="M31.2 33.3L25.4 19.1L29.1 19.1L34.8 33.3L31.2 33.3Z" id="Polygon" fill="#000000" fill-opacity="0.05" fill-rule="evenodd" stroke="none" />
    <path d="M31.5 32.8L26.1 19.6L28.8 19.6L34.1 32.8L31.5 32.8Z" id="Polygon" fill="#000000" fill-opacity="0.07" fill-rule="evenodd" stroke="none" />
    <path d="M28.4 20.1L26.9 20.1L31.8 32.3L33.3 32.3L28.4 20.1Z" id="Polygon" fill="#FFFFFF" fill-rule="evenodd" stroke="none" />
  </g>
</svg>