<?xml version="1.0" encoding="utf-8"?>
<svg width="48px" height="48px" viewBox="0 0 48 48" version="1.1" xmlns:xlink="http://www.w3.org/1999/xlink" xmlns="http://www.w3.org/2000/svg">
  <defs>
    <linearGradient gradientUnits="userSpaceOnUse" x1="19.512001" y1="19.512001" x2="3.3810003" y2="3.3810003" id="gradient_1">
      <stop offset="0%" stop-color="#FFFFFF" />
      <stop offset="24.2%" stop-color="#F2F2F2" />
      <stop offset="100%" stop-color="#CCCCCC" />
    </linearGradient>
    <linearGradient gradientUnits="userSpaceOnUse" x1="0.45000196" y1="0.45000196" x2="11.9400015" y2="11.9400015" id="gradient_2">
      <stop offset="0%" stop-color="#0D61A9" />
      <stop offset="36.3%" stop-color="#0E5FA4" />
      <stop offset="78%" stop-color="#135796" />
      <stop offset="100%" stop-color="#16528C" />
    </linearGradient>
    <linearGradient gradientUnits="userSpaceOnUse" x1="2.652001" y1="0.94999987" x2="68.164" y2="66.46" id="gradient_3">
      <stop offset="0%" stop-color="#889097" />
      <stop offset="33.1%" stop-color="#848C94" />
      <stop offset="66.9%" stop-color="#78828B" />
      <stop offset="100%" stop-color="#64717C" />
    </linearGradient>
    <path d="M0 0L48 0L48 48L0 48L0 0Z" id="path_1" />
    <clipPath id="clip_1">
      <use xlink:href="#path_1" />
    </clipPath>
  </defs>
  <g id="Settings" clip-path="url(#clip_1)">
    <path d="M0 0L48 0L48 48L0 48L0 0Z" id="Settings" fill="none" fill-rule="evenodd" stroke="none" />
    <path d="M12.5 24C12.5 17.6487 17.6487 12.5 24 12.5C30.3513 12.5 35.5 17.6487 35.5 24C35.5 30.3513 30.3513 35.5 24 35.5C17.6487 35.5 12.5 30.3513 12.5 24Z" id="Circle" fill="url(#gradient_1)" fill-rule="evenodd" stroke="none" />
    <path d="M17 24C17 20.134 20.134 17 24 17C27.866 17 31 20.134 31 24C31 27.866 27.866 31 24 31C20.134 31 17 27.866 17 24Z" id="Circle" fill="url(#gradient_2)" fill-rule="evenodd" stroke="none" />
    <path d="M43.407 19.243C41.018 19.214 38.705 17.969 37.424 15.75C36.191 13.614 36.216 11.101 37.262 9.057C35.137 7.17 32.62 5.718 29.832 4.869C28.577 6.756 26.435 8 24 8C21.565 8 19.423 6.756 18.169 4.869C15.381 5.718 12.864 7.17 10.739 9.057C11.785 11.101 11.81 13.614 10.577 15.75C9.296 17.969 6.983 19.214 4.594 19.243C4.22 20.77 4 22.358 4 24C4 25.284 4.133 26.535 4.364 27.752C6.833 27.701 9.255 28.96 10.577 31.25C11.945 33.62 11.764 36.454 10.357 38.595C12.439 40.542 14.93 42.051 17.697 42.97C18.827 40.624 21.221 39 24 39C26.779 39 29.173 40.624 30.303 42.971C33.07 42.052 35.561 40.543 37.643 38.596C36.236 36.455 36.055 33.621 37.423 31.251C38.745 28.961 41.166 27.702 43.636 27.753C43.867 26.535 44 25.284 44 24C44 22.358 43.78 20.77 43.407 19.243L43.407 19.243ZM24 34.5C18.201 34.5 13.5 29.799 13.5 24C13.5 18.201 18.201 13.5 24 13.5C29.799 13.5 34.5 18.201 34.5 24C34.5 29.799 29.799 34.5 24 34.5L24 34.5Z" id="Shape" fill="url(#gradient_3)" fill-rule="evenodd" stroke="none" />
  </g>
</svg>