<?xml version="1.0" encoding="utf-8"?>
<svg width="48px" height="48px" viewBox="0 0 48 48" version="1.1" xmlns:xlink="http://www.w3.org/1999/xlink" xmlns="http://www.w3.org/2000/svg">
  <defs>
    <linearGradient gradientUnits="userSpaceOnUse" x1="0.5290003" y1="10.472" x2="5.6" y2="5.3999996" id="gradient_1">
      <stop offset="0%" stop-color="#3079D6" />
      <stop offset="100%" stop-color="#297CD2" />
    </linearGradient>
    <linearGradient gradientUnits="userSpaceOnUse" x1="-2.916667" y1="10.499709" x2="19.250002" y2="10.499709" id="gradient_2">
      <stop offset="0.2%" stop-color="#427FDB" />
      <stop offset="39.699997%" stop-color="#2668CB" />
      <stop offset="76.3%" stop-color="#1358BF" />
      <stop offset="100%" stop-color="#0C52BB" />
    </linearGradient>
    <linearGradient gradientUnits="userSpaceOnUse" x1="-2.9166667" y1="7.4098277" x2="18.95075" y2="7.4098277" id="gradient_3">
      <stop offset="0%" stop-color="#32BDEF" />
      <stop offset="100%" stop-color="#1EA2E4" />
    </linearGradient>
    <linearGradient gradientUnits="userSpaceOnUse" x1="-13.762585" y1="-1.4921678" x2="-2.4418337" y2="-1.4921678" id="gradient_4">
      <stop offset="0%" stop-color="#2AA4F4" />
      <stop offset="100%" stop-color="#007AD9" />
    </linearGradient>
    <path d="M0 0L48 0L48 48L0 48L0 0Z" id="path_1" />
    <clipPath id="mask_1">
      <use xlink:href="#path_1" />
    </clipPath>
  </defs>
  <g id="File-Icon-2">
    <path d="M0 0L48 0L48 48L0 48L0 0Z" id="Background" fill="#FFFFFF" fill-opacity="0" fill-rule="evenodd" stroke="none" />
    <path d="M39 16L39 41C39 42.105 38.105 43 37 43L11 43C9.895 43 9 42.105 9 41L9 7C9 5.895 9.895 5 11 5L28 5L39 16L39 16Z" id="Shape" fill="#50E6FF" stroke="none" />
    <path d="M28 5L28 14C28 15.105 28.895 16 30 16L39 16L28 5L28 5Z" id="Shape" fill="url(#gradient_1)" stroke="none" />
  </g>
  <g id="svg" transform="translate(10 14.5)">
    <g id="C++-Icon">
      <path d="M0 0L28 0L28 28L0 28L0 0L0 0Z" id="Background" fill="#FFFFFF" fill-opacity="0" fill-rule="evenodd" stroke="none" />
      <path d="M13.3601 1.91683C13.7562 1.69458 14.2438 1.69458 14.6393 1.91683C16.5964 3.01525 22.4858 6.32158 24.4434 7.42C24.8395 7.64166 25.0833 8.05233 25.0833 8.49683C25.0833 10.6937 25.0833 17.3057 25.0833 19.5026C25.0833 19.9471 24.8395 20.3577 24.4434 20.58C22.4863 21.6784 16.597 24.9847 14.6393 26.0832C14.2433 26.3054 13.7556 26.3054 13.3601 26.0832C11.403 24.9847 5.51367 21.6784 3.556 20.58C3.1605 20.3577 2.91667 19.9477 2.91667 19.5032C2.91667 17.3063 2.91667 10.6942 2.91667 8.49741C2.91667 8.05291 3.1605 7.64225 3.55658 7.42C5.51308 6.32158 11.4036 3.01525 13.3601 1.91683L13.3601 1.91683L13.3601 1.91683Z" id="Shape" fill="url(#gradient_2)" fill-rule="evenodd" stroke="none" />
      <path d="M3.094 20.069C2.93883 19.8613 2.91667 19.6642 2.91667 19.3988C2.91667 17.2148 2.91667 10.6406 2.91667 8.45601C2.91667 8.01384 3.15992 7.60551 3.55483 7.38501C5.50492 6.29301 11.3744 3.00592 13.3245 1.91334C13.7194 1.69226 14.2543 1.69692 14.6493 1.91801C16.5993 3.01001 22.449 6.26909 24.3991 7.36109C24.5566 7.44976 24.6768 7.55651 24.7841 7.69709L3.094 20.069L3.094 20.069L3.094 20.069Z" id="Shape#1" fill="url(#gradient_3)" fill-rule="evenodd" stroke="none" />
      <path d="M14 5.83333C18.5074 5.83333 22.1667 9.49258 22.1667 14C22.1667 18.5074 18.5074 22.1667 14 22.1667C9.49258 22.1667 5.83333 18.5074 5.83333 14C5.83333 9.49258 9.49258 5.83333 14 5.83333L14 5.83333L14 5.83333ZM14 9.91667C16.2534 9.91667 18.0833 11.746 18.0833 14C18.0833 16.2534 16.2534 18.0833 14 18.0833C11.7466 18.0833 9.91667 16.2534 9.91667 14C9.91667 11.746 11.746 9.91667 14 9.91667L14 9.91667L14 9.91667Z" id="Shape#2" fill="#FFFFFF" fill-rule="evenodd" stroke="none" />
      <path d="M24.7829 7.70291C25.0839 7.98466 25.0781 8.40932 25.0781 8.74357C25.0781 10.9573 25.0594 17.2538 25.0833 19.4676C25.0857 19.6986 25.0092 19.9418 24.8949 20.125L13.7626 14L24.7829 7.70291L24.7829 7.70291L24.7829 7.70291Z" id="Shape#3" fill="url(#gradient_4)" fill-rule="evenodd" stroke="none" />
      <g id="Group" transform="translate(16.333334 11.666668)" opacity="0.05">
        <path d="M2.91667 0.583333L2.91667 1.75L4.08333 1.75L4.08333 2.91667L2.91667 2.91667L2.91667 4.08333L1.75 4.08333L1.75 2.91667L0.583333 2.91667L0.583333 1.75L1.75 1.75L1.75 0.583333L2.91667 0.583333M3.5 0L2.91667 0L1.75 0L1.16667 0L1.16667 0.583333L1.16667 1.16667L0.583333 1.16667L0 1.16667L0 1.75L0 2.91667L0 3.5L0.583333 3.5L1.16667 3.5L1.16667 4.08333L1.16667 4.66667L1.75 4.66667L2.91667 4.66667L3.5 4.66667L3.5 4.08333L3.5 3.5L4.08333 3.5L4.66667 3.5L4.66667 2.91667L4.66667 1.75L4.66667 1.16667L4.08333 1.16667L3.5 1.16667L3.5 0.583333L3.5 0L3.5 0L3.5 0L3.5 0Z" id="Shape#4" fill="#000000" fill-rule="evenodd" stroke="none" />
        <path d="M7 0.583333L7 1.75L8.16667 1.75L8.16667 2.91667L7 2.91667L7 4.08333L5.83333 4.08333L5.83333 2.91667L4.66667 2.91667L4.66667 1.75L5.83333 1.75L5.83333 0.583333L7 0.583333M7.58333 0L7 0L5.83333 0L5.25 0L5.25 0.583333L5.25 1.16667L4.66667 1.16667L4.08333 1.16667L4.08333 1.75L4.08333 2.91667L4.08333 3.5L4.66667 3.5L5.25 3.5L5.25 4.08333L5.25 4.66667L5.83333 4.66667L7 4.66667L7.58333 4.66667L7.58333 4.08333L7.58333 3.5L8.16667 3.5L8.75 3.5L8.75 2.91667L8.75 1.75L8.75 1.16667L8.16667 1.16667L7.58333 1.16667L7.58333 0.583333L7.58333 0L7.58333 0L7.58333 0L7.58333 0Z" id="Shape#5" fill="#000000" fill-rule="evenodd" stroke="none" />
      </g>
      <g id="Group#1" transform="translate(16.625002 11.958334)" opacity="0.07">
        <path d="M2.625 0.291667L2.625 1.45833L3.79167 1.45833L3.79167 2.625L2.625 2.625L2.625 3.79167L1.45833 3.79167L1.45833 2.625L0.291667 2.625L0.291667 1.45833L1.45833 1.45833L1.45833 0.291667L2.625 0.291667M2.91667 0L2.625 0L1.45833 0L1.16667 0L1.16667 0.291667L1.16667 1.16667L0.291667 1.16667L0 1.16667L0 1.45833L0 2.625L0 2.91667L0.291667 2.91667L1.16667 2.91667L1.16667 3.79167L1.16667 4.08333L1.45833 4.08333L2.625 4.08333L2.91667 4.08333L2.91667 3.79167L2.91667 2.91667L3.79167 2.91667L4.08333 2.91667L4.08333 2.625L4.08333 1.45833L4.08333 1.16667L3.79167 1.16667L2.91667 1.16667L2.91667 0.291667L2.91667 0L2.91667 0L2.91667 0L2.91667 0Z" id="Shape#6" fill="#000000" fill-rule="evenodd" stroke="none" />
        <path d="M6.70833 0.291667L6.70833 1.45833L7.875 1.45833L7.875 2.625L6.70833 2.625L6.70833 3.79167L5.54167 3.79167L5.54167 2.625L4.375 2.625L4.375 1.45833L5.54167 1.45833L5.54167 0.291667L6.70833 0.291667M7 0L6.70833 0L5.54167 0L5.25 0L5.25 0.291667L5.25 1.16667L4.375 1.16667L4.08333 1.16667L4.08333 1.45833L4.08333 2.625L4.08333 2.91667L4.375 2.91667L5.25 2.91667L5.25 3.79167L5.25 4.08333L5.54167 4.08333L6.70833 4.08333L7 4.08333L7 3.79167L7 2.91667L7.875 2.91667L8.16667 2.91667L8.16667 2.625L8.16667 1.45833L8.16667 1.16667L7.875 1.16667L7 1.16667L7 0.291667L7 0L7 0L7 0L7 0Z" id="Shape#7" fill="#000000" fill-rule="evenodd" stroke="none" />
      </g>
      <path d="M19.25 12.25L18.0833 12.25L18.0833 13.4167L16.9167 13.4167L16.9167 14.5833L18.0833 14.5833L18.0833 15.75L19.25 15.75L19.25 14.5833L20.4167 14.5833L20.4167 13.4167L19.25 13.4167L19.25 12.25L19.25 12.25Z" id="Polygon" fill="#FFFFFF" fill-rule="evenodd" stroke="none" />
      <path d="M24.5 13.4167L23.3333 13.4167L23.3333 12.25L22.1667 12.25L22.1667 13.4167L21 13.4167L21 14.5833L22.1667 14.5833L22.1667 15.75L23.3333 15.75L23.3333 14.5833L24.5 14.5833L24.5 13.4167L24.5 13.4167Z" id="Polygon#1" fill="#FFFFFF" fill-rule="evenodd" stroke="none" />
      <g id="Group#2" transform="translate(5.2500005 5.2500005)">
        <path d="M8.75 0.583333C11.7413 0.583333 14.3512 2.19975 15.7739 4.60075L12.2313 6.62492C11.5133 5.45242 10.2241 4.66667 8.75 4.66667C6.496 4.66667 4.66667 6.496 4.66667 8.75C4.66667 11.0034 6.49659 12.8333 8.75 12.8333C10.2492 12.8333 11.557 12.0213 12.2669 10.8156L15.8439 12.7838C14.4375 15.2495 11.7892 16.9167 8.75 16.9167C4.24258 16.9167 0.583333 13.2574 0.583333 8.75C0.583333 4.24258 4.24258 0.583333 8.75 0.583333M8.75 0C3.92525 0 0 3.92525 0 8.75C0 13.5748 3.92525 17.5 8.75 17.5C11.8808 17.5 14.7933 15.8037 16.3508 13.0725L16.6443 12.558L16.1251 12.2722L12.5481 10.304L12.0517 10.031L11.7641 10.5193C11.1358 11.5868 9.98083 12.25 8.75 12.25C6.82033 12.25 5.25 10.6797 5.25 8.75C5.25 6.82034 6.82033 5.25 8.75 5.25C9.97442 5.25 11.0898 5.87767 11.7338 6.92942L12.0295 7.41242L12.5207 7.13183L16.0633 5.10767L16.5778 4.81367L16.2756 4.30383C14.7029 1.64908 11.8195 0 8.75 0L8.75 0L8.75 0L8.75 0Z" id="Shape#8" fill="#000000" fill-opacity="0.050980393" fill-rule="evenodd" stroke="none" />
        <path d="M8.75 0.583333C11.7413 0.583333 14.3512 2.19975 15.7739 4.60075L12.2313 6.62492C11.5133 5.45242 10.2241 4.66667 8.75 4.66667C6.496 4.66667 4.66667 6.496 4.66667 8.75C4.66667 11.0034 6.49658 12.8333 8.75 12.8333C10.2492 12.8333 11.557 12.0213 12.2669 10.8156L15.8439 12.7838C14.4375 15.2495 11.7892 16.9167 8.75 16.9167C4.24258 16.9167 0.583333 13.2574 0.583333 8.75C0.583333 4.24258 4.24258 0.583333 8.75 0.583333M8.75 0.291667C4.08625 0.291667 0.291667 4.08625 0.291667 8.75C0.291667 13.4138 4.08625 17.2083 8.75 17.2083C11.7763 17.2083 14.5915 15.568 16.0971 12.9284L16.2441 12.6712L15.9845 12.5283L12.4075 10.5601L12.1596 10.4236L12.0161 10.6674C11.3348 11.8236 10.0835 12.5417 8.75 12.5417C6.65933 12.5417 4.95833 10.8407 4.95833 8.75C4.95833 6.65933 6.65933 4.95833 8.75 4.95833C10.0771 4.95833 11.2852 5.6385 11.9828 6.77717L12.1304 7.01867L12.376 6.87808L15.9186 4.85392L16.1758 4.70692L16.0248 4.452C14.504 1.88592 11.7168 0.291667 8.75 0.291667L8.75 0.291667L8.75 0.291667L8.75 0.291667Z" id="Shape#9" fill="#000000" fill-opacity="0.07058824" fill-rule="evenodd" stroke="none" />
      </g>
    </g>
  </g>
</svg>