<?xml version="1.0" encoding="utf-8"?>
<svg width="48px" height="48px" viewBox="0 0 48 48" version="1.1" xmlns:xlink="http://www.w3.org/1999/xlink" xmlns="http://www.w3.org/2000/svg">
  <defs>
    <linearGradient gradientUnits="userSpaceOnUse" x1="0.5290003" y1="10.472" x2="5.6" y2="5.3999996" id="gradient_1">
      <stop offset="0%" stop-color="#3079D6" />
      <stop offset="100%" stop-color="#297CD2" />
    </linearGradient>
    <linearGradient gradientUnits="userSpaceOnUse" x1="9.999974" y1="-2.7750092" x2="9.99997" y2="20.825602" id="gradient_2">
      <stop offset="90%" stop-color="#6D7882" />
      <stop offset="91.7%" stop-color="#45494D" />
    </linearGradient>
    <linearGradient gradientUnits="userSpaceOnUse" x1="-21.875" y1="-8.125" x2="-19.375" y2="-8.125" id="gradient_3">
      <stop offset="0%" stop-color="#4B4B4B" />
      <stop offset="100%" stop-color="#3B3B3B" />
    </linearGradient>
    <linearGradient gradientUnits="userSpaceOnUse" x1="-21.875" y1="-13.124995" x2="-19.375" y2="-13.124995" id="gradient_4">
      <stop offset="0%" stop-color="#4B4B4B" />
      <stop offset="100%" stop-color="#3B3B3B" />
    </linearGradient>
    <linearGradient gradientUnits="userSpaceOnUse" x1="-21.875" y1="-18.125" x2="-19.375" y2="-18.125" id="gradient_5">
      <stop offset="0%" stop-color="#4B4B4B" />
      <stop offset="100%" stop-color="#3B3B3B" />
    </linearGradient>
    <linearGradient gradientUnits="userSpaceOnUse" x1="2.4999998" y1="-12.663114" x2="2.4999998" y2="4.5500274" id="gradient_6">
      <stop offset="0%" stop-color="#9EA7B0" />
      <stop offset="100%" stop-color="#6F7D8A" />
    </linearGradient>
    <linearGradient gradientUnits="userSpaceOnUse" x1="-1.2499998" y1="-14.50261" x2="-1.2499998" y2="-8.245722" id="gradient_7">
      <stop offset="0%" stop-color="#124787" />
      <stop offset="92.299995%" stop-color="#173B75" />
      <stop offset="100%" stop-color="#173A73" />
    </linearGradient>
    <path d="M0 0L48 0L48 48L0 48L0 0Z" id="path_1" />
    <clipPath id="mask_1">
      <use xlink:href="#path_1" />
    </clipPath>
  </defs>
  <g id="File-Icon-2">
    <path d="M0 0L48 0L48 48L0 48L0 0Z" id="Background" fill="#FFFFFF" fill-opacity="0" fill-rule="evenodd" stroke="none" />
    <g clip-path="url(#mask_1)">
      <path d="M39 16L39 41C39 42.105 38.105 43 37 43L11 43C9.895 43 9 42.105 9 41L9 7C9 5.895 9.895 5 11 5L28 5L39 16L39 16Z" id="Shape" fill="#50E6FF" fill-rule="evenodd" stroke="none" />
      <path d="M28 5L28 14C28 15.105 28.895 16 30 16L39 16L28 5L28 5Z" id="Shape" fill="url(#gradient_1)" fill-rule="evenodd" stroke="none" />
    </g>
  </g>
  <g id="svg" transform="translate(9 14.5)">
    <g id="SLR-Back-Side-Icon">
      <path d="M0 0L30 0L30 30L0 30L0 0L0 0Z" id="Background" fill="#FFFFFF" fill-opacity="0" fill-rule="evenodd" stroke="none" />
      <path d="M2.49999 7.5L2.49999 25C2.49999 25.6906 3.05937 26.25 3.74999 26.25L26.25 26.25C26.9406 26.25 27.5 25.6906 27.5 25L27.5 7.5C27.5 6.80938 26.9406 6.25 26.25 6.25L17.6844 6.25C17.2581 6.25 16.8644 6.03688 16.6344 5.67813C16.2737 5.115 15.7256 4.25938 15.3644 3.69688C15.1344 3.33813 14.7406 3.125 14.3144 3.125L9.43437 3.125C9.00812 3.125 8.61125 3.34188 8.38187 3.70125L7.11874 5.67375C6.88875 6.03313 6.49249 6.25 6.06625 6.25L3.74999 6.25C3.05937 6.25 2.49999 6.80938 2.49999 7.5L2.49999 7.5L2.49999 7.5Z" id="Shape" fill="url(#gradient_2)" stroke="none" />
      <path d="M21.875 10.625C21.875 9.93462 22.4346 9.375 23.125 9.375C23.8154 9.375 24.375 9.93462 24.375 10.625C24.375 11.3154 23.8154 11.875 23.125 11.875C22.4346 11.875 21.875 11.3154 21.875 10.625L21.875 10.625Z" id="Circle" fill="url(#gradient_3)" fill-rule="evenodd" stroke="none" />
      <path d="M21.875 15.625C21.875 14.9346 22.4346 14.375 23.125 14.375C23.8154 14.375 24.375 14.9346 24.375 15.625C24.375 16.3154 23.8154 16.875 23.125 16.875C22.4346 16.875 21.875 16.3154 21.875 15.625L21.875 15.625Z" id="Circle#1" fill="url(#gradient_4)" fill-rule="evenodd" stroke="none" />
      <path d="M21.875 20.625C21.875 19.9346 22.4346 19.375 23.125 19.375C23.8154 19.375 24.375 19.9346 24.375 20.625C24.375 21.3154 23.8154 21.875 23.125 21.875C22.4346 21.875 21.875 21.3154 21.875 20.625L21.875 20.625Z" id="Circle#2" fill="url(#gradient_5)" fill-rule="evenodd" stroke="none" />
      <path d="M20.625 5.625C20.625 5.28 20.905 5 21.25 5L24.375 5C24.72 5 25 5.28 25 5.625L25 6.25L20.625 6.25L20.625 5.625L20.625 5.625L20.625 5.625Z" id="Shape#1" fill="#0076D7" stroke="none" />
      <path d="M17.5 21.875L7.5 21.875C6.11938 21.875 5 20.7556 5 19.375L5 12.5C5 11.1194 6.11938 10 7.5 10L17.5 10C18.8806 10 20 11.1194 20 12.5L20 19.375C20 20.7556 18.8806 21.875 17.5 21.875L17.5 21.875L17.5 21.875Z" id="Shape#2" fill="url(#gradient_6)" stroke="none" />
      <path d="M17.5 11.25L7.49999 11.25C6.80937 11.25 6.24999 11.8094 6.24999 12.5L6.24999 18.75C6.24999 19.7856 7.08937 20.625 8.125 20.625L17.2175 20.625C18.0637 20.625 18.75 19.9388 18.75 19.0925L18.75 12.5C18.75 11.8094 18.1906 11.25 17.5 11.25L17.5 11.25L17.5 11.25Z" id="Shape#3" fill="#29AFEA" stroke="none" />
      <path d="M18.75 19.055L15.3875 15.6925C15.0263 15.3312 14.4431 15.3237 14.0725 15.675L11.25 18.3481L10.625 20.625L17.5 20.625C18.1906 20.625 18.75 20.0656 18.75 19.375L18.75 19.055L18.75 19.055L18.75 19.055Z" id="Shape#4" fill="#436DCD" stroke="none" />
      <path d="M16.25 20.625L10.4506 14.8256C10.01 14.385 9.29874 14.3756 8.84624 14.8037L6.24999 17.2637L6.24999 19.375C6.24999 20.0656 6.80937 20.625 7.49999 20.625L16.25 20.625L16.25 20.625L16.25 20.625Z" id="Shape#5" fill="url(#gradient_7)" stroke="none" />
      <path d="M12.5 13.75C12.5 13.4048 12.7798 13.125 13.125 13.125C13.4702 13.125 13.75 13.4048 13.75 13.75C13.75 14.0952 13.4702 14.375 13.125 14.375C12.7798 14.375 12.5 14.0952 12.5 13.75L12.5 13.75Z" id="Circle#3" fill="#FFFFFF" fill-rule="evenodd" stroke="none" />
    </g>
  </g>
</svg>