<?xml version="1.0" encoding="utf-8"?>
<svg width="48px" height="48px" viewBox="0 0 48 48" version="1.1" xmlns:xlink="http://www.w3.org/1999/xlink" xmlns="http://www.w3.org/2000/svg">
  <defs>
    <path d="M0 0L48 0L48 48L0 48L0 0Z" id="path_1" />
    <clipPath id="mask_1">
      <use xlink:href="#path_1" />
    </clipPath>
  </defs>
  <g id="C-Sharp-Logo-Icon">
    <path d="M0 0L48 0L48 48L0 48L0 0Z" id="Background" fill="#FFFFFF" fill-opacity="0" fill-rule="evenodd" stroke="none" />
    <g clip-path="url(#mask_1)">
      <path d="M22.903 3.286C23.582 2.905 24.418 2.905 25.096 3.286C28.451 5.169 38.547 10.837 41.903 12.72C42.582 13.1 43 13.804 43 14.566C43 18.332 43 29.667 43 33.433C43 34.195 42.582 34.899 41.903 35.28C38.548 37.163 28.452 42.831 25.096 44.714C24.417 45.095 23.581 45.095 22.903 44.714C19.548 42.831 9.452 37.163 6.096 35.28C5.418 34.899 5 34.196 5 33.434C5 29.668 5 18.333 5 14.567C5 13.805 5.418 13.101 6.097 12.72C9.451 10.837 19.549 5.169 22.903 3.286L22.903 3.286Z" id="Shape" fill="#6B1578" fill-rule="evenodd" stroke="none" />
      <path d="M5.304 34.404C5.038 34.048 5 33.71 5 33.255C5 29.511 5 18.241 5 14.496C5 13.738 5.417 13.038 6.094 12.66C9.437 10.788 19.499 5.153 22.842 3.28C23.519 2.901 24.436 2.909 25.113 3.288C28.456 5.16 38.484 10.747 41.827 12.619C42.097 12.771 42.303 12.954 42.487 13.195L5.304 34.404L5.304 34.404Z" id="Shape" fill="#9A4A93" fill-rule="evenodd" stroke="none" />
      <path d="M24 10C31.727 10 38 16.273 38 24C38 31.727 31.727 38 24 38C16.273 38 10 31.727 10 24C10 16.273 16.273 10 24 10L24 10ZM24 17C27.863 17 31 20.136 31 24C31 27.863 27.863 31 24 31C20.137 31 17 27.863 17 24C17 20.136 20.136 17 24 17L24 17Z" id="Shape" fill="#FFFFFF" fill-rule="evenodd" stroke="none" />
      <path d="M42.485 13.205C43.001 13.688 42.991 14.416 42.991 14.989C42.991 18.784 42.959 29.578 43 33.373C43.004 33.769 42.873 34.186 42.677 34.5L23.593 24L42.485 13.205L42.485 13.205Z" id="Shape" fill="#823084" fill-rule="evenodd" stroke="none" />
      <path d="M38 20L38 22L40 22L40 23L38 23L38 25L40 25L40 26L38 26L38 28L37 28L37 26L35 26L35 28L34 28L34 26L32 26L32 25L34 25L34 23L32 23L32 22L34 22L34 20L35 20L35 22L37 22L37 20L38 20M35 25L37 25L37 23L35 23L35 25M39 19L38 19L37 19L36 19L35 19L34 19L33 19L33 20L33 21L32 21L31 21L31 22L31 23L31 24L31 25L31 26L31 27L32 27L33 27L33 28L33 29L34 29L35 29L36 29L36 28L36 27L36 28L36 29L37 29L38 29L39 29L39 28L39 27L40 27L41 27L41 26L41 25L41 24L40 24L39 24L40 24L41 24L41 23L41 22L41 21L40 21L39 21L39 20L39 19L39 19L39 19Z" id="Shape" fill="#6B1578" fill-opacity="0.05" fill-rule="evenodd" stroke="none" />
      <path d="M38 20L38 22L40 22L40 23L38 23L38 25L40 25L40 26L38 26L38 28L37 28L37 26L35 26L35 28L34 28L34 26L32 26L32 25L34 25L34 23L32 23L32 22L34 22L34 20L35 20L35 22L37 22L37 20L38 20M35 25L37 25L37 23L35 23L35 25M38.5 19.5L38 19.5L37 19.5L36.5 19.5L36.5 20L36.5 21.5L35.5 21.5L35.5 20L35.5 19.5L35 19.5L34 19.5L33.5 19.5L33.5 20L33.5 21.5L32 21.5L31.5 21.5L31.5 22L31.5 23L31.5 23.5L32 23.5L33.5 23.5L33.5 24.5L32 24.5L31.5 24.5L31.5 25L31.5 26L31.5 26.5L32 26.5L33.5 26.5L33.5 28L33.5 28.5L34 28.5L35 28.5L35.5 28.5L35.5 28L35.5 26.5L36.5 26.5L36.5 28L36.5 28.5L37 28.5L38 28.5L38.5 28.5L38.5 28L38.5 26.5L40 26.5L40.5 26.5L40.5 26L40.5 25L40.5 24.5L40 24.5L38.5 24.5L38.5 23.5L40 23.5L40.5 23.5L40.5 23L40.5 22L40.5 21.5L40 21.5L38.5 21.5L38.5 20L38.5 19.5L38.5 19.5L38.5 19.5ZM35.5 23.5L36.5 23.5L36.5 24.5L35.5 24.5L35.5 23.5L35.5 23.5L35.5 23.5Z" id="Shape" fill="#6B1578" fill-opacity="0.07" fill-rule="evenodd" stroke="none" />
      <path d="M40 23L40 22L38 22L38 20L37 20L37 22L35 22L35 20L34 20L34 22L32 22L32 23L34 23L34 25L32 25L32 26L34 26L34 28L35 28L35 26L37 26L37 28L38 28L38 26L40 26L40 25L38 25L38 23L40 23L40 23ZM37 25L35 25L35 23L37 23L37 25L37 25Z" id="Shape" fill="#FFFFFF" fill-rule="evenodd" stroke="none" />
      <g id="Group" transform="translate(9 9)">
        <path d="M15 1C20.128 1 24.602 3.771 27.041 7.887L20.968 11.357C19.737 9.347 17.527 8 15 8C11.136 8 8 11.136 8 15C8 18.863 11.137 22 15 22C17.57 22 19.812 20.608 21.029 18.541L27.161 21.915C24.75 26.142 20.21 29 15 29C7.273 29 1 22.727 1 15C1 7.273 7.273 1 15 1M15 0C6.729 0 0 6.729 0 15C0 23.271 6.729 30 15 30C20.367 30 25.36 27.092 28.03 22.41L28.533 21.528L27.643 21.038L21.511 17.664L20.66 17.196L20.167 18.033C19.09 19.863 17.11 21 15 21C11.692 21 9 18.308 9 15C9 11.692 11.692 9 15 9C17.099 9 19.011 10.076 20.115 11.879L20.622 12.707L21.464 12.226L27.537 8.756L28.419 8.252L27.901 7.378C25.205 2.827 20.262 0 15 0L15 0L15 0Z" id="Shape" fill="#6B1578" fill-opacity="0.05" fill-rule="evenodd" stroke="none" />
        <path d="M15 1C20.128 1 24.602 3.771 27.041 7.887L20.968 11.357C19.737 9.347 17.527 8 15 8C11.136 8 8 11.136 8 15C8 18.863 11.137 22 15 22C17.57 22 19.812 20.608 21.029 18.541L27.161 21.915C24.75 26.142 20.21 29 15 29C7.273 29 1 22.727 1 15C1 7.273 7.273 1 15 1M15 0.5C7.005 0.5 0.5 7.005 0.5 15C0.5 22.995 7.005 29.5 15 29.5C20.188 29.5 25.014 26.688 27.595 22.163L27.847 21.722L27.402 21.477L21.27 18.103L20.845 17.869L20.599 18.287C19.431 20.269 17.286 21.5 15 21.5C11.416 21.5 8.5 18.584 8.5 15C8.5 11.416 11.416 8.5 15 8.5C17.275 8.5 19.346 9.666 20.542 11.618L20.795 12.032L21.216 11.791L27.289 8.321L27.73 8.069L27.471 7.632C24.864 3.233 20.086 0.5 15 0.5L15 0.5L15 0.5Z" id="Shape" fill="#6B1578" fill-opacity="0.07" fill-rule="evenodd" stroke="none" />
      </g>
    </g>
  </g>
</svg>