<?xml version="1.0" encoding="utf-8"?>
<svg width="38.00009px" height="42px" viewBox="0 0 38.00009 42" version="1.1" xmlns:xlink="http://www.w3.org/1999/xlink" xmlns="http://www.w3.org/2000/svg">
  <path d="M17.903 0.28575C18.582 -0.0952499 19.418 -0.0952499 20.096 0.28575C23.451 2.16875 33.547 7.83675 36.903 9.71975C37.582 10.0998 38 10.8038 38 11.5658C38 15.3318 38 26.6668 38 30.4327C38 31.1947 37.582 31.8988 36.903 32.2797C33.548 34.1628 23.452 39.8307 20.096 41.7137C19.417 42.0947 18.581 42.0947 17.903 41.7137C14.548 39.8307 4.452 34.1628 1.096 32.2797C0.418 31.8988 0 31.1957 0 30.4337C0 26.6677 0 15.3327 0 11.5667C0 10.8047 0.418 10.1007 1.097 9.71975C4.451 7.83675 14.549 2.16875 17.903 0.28575L17.903 0.28575Z" id="Shape" fill="#6B1578" fill-rule="evenodd" stroke="none" />
  <path d="M0.304 31.4038C0.0380001 31.0478 0 30.7098 0 30.2548C0 26.5108 0 15.2408 0 11.4958C0 10.7378 0.417 10.0378 1.094 9.65979C4.437 7.78779 14.499 2.15279 17.842 0.279793C18.519 -0.0992067 19.436 -0.0912068 20.113 0.287793C23.456 2.15979 33.484 7.74679 36.827 9.61879C37.097 9.77079 37.303 9.95379 37.487 10.1948L0.304 31.4038L0.304 31.4038Z" id="Shape" fill="#9A4A93" fill-rule="evenodd" stroke="none" />
  <path d="M19 6.99976C26.727 6.99976 33 13.2728 33 20.9998C33 28.7268 26.727 34.9998 19 34.9998C11.273 34.9998 5 28.7268 5 20.9998C5 13.2728 11.273 6.99976 19 6.99976L19 6.99976ZM19 13.9998C22.863 13.9998 26 17.1358 26 20.9998C26 24.8628 22.863 27.9998 19 27.9998C15.137 27.9998 12 24.8628 12 20.9998C12 17.1358 15.136 13.9998 19 13.9998L19 13.9998Z" id="Shape" fill="#FFFFFF" fill-rule="evenodd" stroke="none" />
  <path d="M37.485 10.2047C38.001 10.6877 37.991 11.4157 37.991 11.9887C37.991 15.7837 37.959 26.5777 38 30.3727C38.004 30.7687 37.873 31.1857 37.677 31.4997L18.593 20.9997L37.485 10.2047L37.485 10.2047Z" id="Shape" fill="#823084" fill-rule="evenodd" stroke="none" />
  <path d="M33 16.9998L33 18.9998L35 18.9998L35 19.9998L33 19.9998L33 21.9998L35 21.9998L35 22.9998L33 22.9998L33 24.9998L32 24.9998L32 22.9998L30 22.9998L30 24.9998L29 24.9998L29 22.9998L27 22.9998L27 21.9998L29 21.9998L29 19.9998L27 19.9998L27 18.9998L29 18.9998L29 16.9998L30 16.9998L30 18.9998L32 18.9998L32 16.9998L33 16.9998M30 21.9998L32 21.9998L32 19.9998L30 19.9998L30 21.9998M34 15.9998L33 15.9998L32 15.9998L31 15.9998L30 15.9998L29 15.9998L28 15.9998L28 16.9998L28 17.9998L27 17.9998L26 17.9998L26 18.9998L26 19.9998L26 20.9998L26 21.9998L26 22.9998L26 23.9998L27 23.9998L28 23.9998L28 24.9998L28 25.9998L29 25.9998L30 25.9998L31 25.9998L31 24.9998L31 23.9998L31 24.9998L31 25.9998L32 25.9998L33 25.9998L34 25.9998L34 24.9998L34 23.9998L35 23.9998L36 23.9998L36 22.9998L36 21.9998L36 20.9998L35 20.9998L34 20.9998L35 20.9998L36 20.9998L36 19.9998L36 18.9998L36 17.9998L35 17.9998L34 17.9998L34 16.9998L34 15.9998L34 15.9998L34 15.9998Z" id="Shape" fill="#000000" fill-opacity="0.05" fill-rule="evenodd" stroke="none" />
  <path d="M33 16.9998L33 18.9998L35 18.9998L35 19.9998L33 19.9998L33 21.9998L35 21.9998L35 22.9998L33 22.9998L33 24.9998L32 24.9998L32 22.9998L30 22.9998L30 24.9998L29 24.9998L29 22.9998L27 22.9998L27 21.9998L29 21.9998L29 19.9998L27 19.9998L27 18.9998L29 18.9998L29 16.9998L30 16.9998L30 18.9998L32 18.9998L32 16.9998L33 16.9998M30 21.9998L32 21.9998L32 19.9998L30 19.9998L30 21.9998M33.5 16.4998L33 16.4998L32 16.4998L31.5 16.4998L31.5 16.9998L31.5 18.4998L30.5 18.4998L30.5 16.9998L30.5 16.4998L30 16.4998L29 16.4998L28.5 16.4998L28.5 16.9998L28.5 18.4998L27 18.4998L26.5 18.4998L26.5 18.9998L26.5 19.9998L26.5 20.4998L27 20.4998L28.5 20.4998L28.5 21.4998L27 21.4998L26.5 21.4998L26.5 21.9998L26.5 22.9998L26.5 23.4998L27 23.4998L28.5 23.4998L28.5 24.9998L28.5 25.4998L29 25.4998L30 25.4998L30.5 25.4998L30.5 24.9998L30.5 23.4998L31.5 23.4998L31.5 24.9998L31.5 25.4998L32 25.4998L33 25.4998L33.5 25.4998L33.5 24.9998L33.5 23.4998L35 23.4998L35.5 23.4998L35.5 22.9998L35.5 21.9998L35.5 21.4998L35 21.4998L33.5 21.4998L33.5 20.4998L35 20.4998L35.5 20.4998L35.5 19.9998L35.5 18.9998L35.5 18.4998L35 18.4998L33.5 18.4998L33.5 16.9998L33.5 16.4998L33.5 16.4998L33.5 16.4998ZM30.5 20.4998L31.5 20.4998L31.5 21.4998L30.5 21.4998L30.5 20.4998L30.5 20.4998L30.5 20.4998Z" id="Shape" fill="#000000" fill-opacity="0.07" fill-rule="evenodd" stroke="none" />
  <path d="M35 19.9998L35 18.9998L33 18.9998L33 16.9998L32 16.9998L32 18.9998L30 18.9998L30 16.9998L29 16.9998L29 18.9998L27 18.9998L27 19.9998L29 19.9998L29 21.9998L27 21.9998L27 22.9998L29 22.9998L29 24.9998L30 24.9998L30 22.9998L32 22.9998L32 24.9998L33 24.9998L33 22.9998L35 22.9998L35 21.9998L33 21.9998L33 19.9998L35 19.9998L35 19.9998ZM32 21.9998L30 21.9998L30 19.9998L32 19.9998L32 21.9998L32 21.9998Z" id="Shape" fill="#FFFFFF" fill-rule="evenodd" stroke="none" />
  <g id="Group" transform="translate(4 6.000244)">
    <path d="M15 1C20.128 1 24.602 3.771 27.041 7.887L20.968 11.357C19.737 9.347 17.527 8 15 8C11.136 8 8 11.136 8 15C8 18.863 11.137 22 15 22C17.57 22 19.812 20.608 21.029 18.541L27.161 21.915C24.75 26.142 20.21 29 15 29C7.273 29 1 22.727 1 15C1 7.273 7.273 1 15 1M15 0C6.729 0 0 6.729 0 15C0 23.271 6.729 30 15 30C20.367 30 25.36 27.092 28.03 22.41L28.533 21.528L27.643 21.038L21.511 17.664L20.66 17.196L20.167 18.033C19.09 19.863 17.11 21 15 21C11.692 21 9 18.308 9 15C9 11.692 11.692 9 15 9C17.099 9 19.011 10.076 20.115 11.879L20.622 12.707L21.464 12.226L27.537 8.756L28.419 8.252L27.901 7.378C25.205 2.827 20.262 0 15 0L15 0L15 0Z" id="Shape" fill="#000000" fill-opacity="0.05" fill-rule="evenodd" stroke="none" />
    <path d="M15 1C20.128 1 24.602 3.771 27.041 7.887L20.968 11.357C19.737 9.347 17.527 8 15 8C11.136 8 8 11.136 8 15C8 18.863 11.137 22 15 22C17.57 22 19.812 20.608 21.029 18.541L27.161 21.915C24.75 26.142 20.21 29 15 29C7.273 29 1 22.727 1 15C1 7.273 7.273 1 15 1M15 0.5C7.005 0.5 0.5 7.005 0.5 15C0.5 22.995 7.005 29.5 15 29.5C20.188 29.5 25.014 26.688 27.595 22.163L27.847 21.722L27.402 21.477L21.27 18.103L20.845 17.869L20.599 18.287C19.431 20.269 17.286 21.5 15 21.5C11.416 21.5 8.5 18.584 8.5 15C8.5 11.416 11.416 8.5 15 8.5C17.275 8.5 19.346 9.666 20.542 11.618L20.795 12.032L21.216 11.791L27.289 8.321L27.73 8.069L27.471 7.632C24.864 3.233 20.086 0.5 15 0.5L15 0.5L15 0.5Z" id="Shape" fill="#000000" fill-opacity="0.07" fill-rule="evenodd" stroke="none" />
  </g>
</svg>