<?xml version="1.0" encoding="utf-8"?>
<svg width="48px" height="48px" viewBox="0 0 48 48" version="1.1" xmlns:xlink="http://www.w3.org/1999/xlink" xmlns="http://www.w3.org/2000/svg">
  <defs>
    <linearGradient gradientUnits="userSpaceOnUse" x1="0.5290003" y1="10.472" x2="5.6" y2="5.3999996" id="gradient_1">
      <stop offset="0%" stop-color="#3079D6" />
      <stop offset="100%" stop-color="#297CD2" />
    </linearGradient>
    <path d="M0 0L48 0L48 48L0 48L0 0Z" id="path_1" />
    <path d="M0 0L28 0L28 28L0 28L0 0L0 0Z" id="path_2" />
    <clipPath id="mask_1">
      <use xlink:href="#path_1" />
    </clipPath>
    <clipPath id="mask_2">
      <use xlink:href="#path_2" />
    </clipPath>
  </defs>
  <g id="File-Icon-3">
    <path d="M0 0L48 0L48 48L0 48L0 0Z" id="Background" fill="#FFFFFF" fill-opacity="0" fill-rule="evenodd" stroke="none" />
    <g clip-path="url(#mask_1)">
      <path d="M39 16L39 41C39 42.105 38.105 43 37 43L11 43C9.895 43 9 42.105 9 41L9 7C9 5.895 9.895 5 11 5L28 5L39 16L39 16Z" id="Shape" fill="#50E6FF" fill-rule="evenodd" stroke="none" />
      <path d="M28 5L28 14C28 15.105 28.895 16 30 16L39 16L28 5L28 5Z" id="Shape" fill="url(#gradient_1)" fill-rule="evenodd" stroke="none" />
    </g>
  </g>
  <g id="svg-2" transform="translate(10 15)">
    <g id="C-Sharp-Logo-Icon">
      <path d="M0 0L28 0L28 28L0 28L0 0L0 0Z" id="Background" fill="#FFFFFF" fill-opacity="0" fill-rule="evenodd" stroke="none" />
      <g id="Mask-Group">
        <path d="M0 0L28 0L28 28L0 28L0 0L0 0Z" id="path_1" fill="none" stroke="none" />
        <g clip-path="url(#mask_2)">
          <g id="Group" transform="translate(2.916663 1.7498313)">
            <path d="M10.4434 0.167002C10.8395 -0.0552476 11.3272 -0.0552476 11.7227 0.167002C13.6797 1.26542 19.5691 4.57175 21.5267 5.67017C21.9228 5.89184 22.1667 6.3025 22.1667 6.747C22.1667 8.94384 22.1667 15.5559 22.1667 17.7528C22.1667 18.1973 21.9228 18.6079 21.5267 18.8302C19.5697 19.9286 13.6803 23.2349 11.7227 24.3333C11.3266 24.5556 10.8389 24.5556 10.4434 24.3333C8.48633 23.2349 2.597 19.9286 0.639333 18.8302C0.243833 18.6079 0 18.1978 0 17.7533C0 15.5565 0 8.94442 0 6.74759C0 6.30309 0.243833 5.89242 0.639917 5.67017C2.59642 4.57175 8.48692 1.26542 10.4434 0.167002L10.4434 0.167002L10.4434 0.167002Z" id="Shape" fill="#6B1578" fill-rule="evenodd" stroke="none" />
            <path d="M0.177333 18.3192C0.0221667 18.1115 0 17.9143 0 17.6489C0 15.4649 0 8.89075 0 6.70616C0 6.264 0.24325 5.85566 0.638167 5.63516C2.58825 4.54316 8.45775 1.25608 10.4078 0.163498C10.8027 -0.0575856 11.3377 -0.052919 11.7326 0.168164C13.6827 1.26016 19.5323 4.51925 21.4824 5.61125C21.6399 5.69991 21.7601 5.80666 21.8674 5.94725L0.177333 18.3192L0.177333 18.3192L0.177333 18.3192Z" id="Shape#1" fill="#9A4A93" fill-rule="evenodd" stroke="none" />
            <path d="M11.0833 4.08349C15.5907 4.08349 19.25 7.74275 19.25 12.2502C19.25 16.7576 15.5907 20.4168 11.0833 20.4168C6.57591 20.4168 2.91666 16.7576 2.91666 12.2502C2.91666 7.74275 6.57591 4.08349 11.0833 4.08349L11.0833 4.08349L11.0833 4.08349ZM11.0833 8.16683C13.3368 8.16683 15.1667 9.99616 15.1667 12.2502C15.1667 14.5036 13.3368 16.3335 11.0833 16.3335C8.82992 16.3335 7 14.5036 7 12.2502C7 9.99616 8.82933 8.16683 11.0833 8.16683L11.0833 8.16683L11.0833 8.16683Z" id="Shape#2" fill="#FFFFFF" fill-rule="evenodd" stroke="none" />
            <path d="M21.8663 5.95308C22.1673 6.23483 22.1614 6.6595 22.1614 6.99374C22.1614 9.20749 22.1428 15.504 22.1667 17.7177C22.169 17.9487 22.0926 18.192 21.9783 18.3752L10.8459 12.2502L21.8663 5.95308L21.8663 5.95308L21.8663 5.95308Z" id="Shape#3" fill="#823084" fill-rule="evenodd" stroke="none" />
            <path d="M19.25 9.91683L19.25 11.0835L20.4167 11.0835L20.4167 11.6668L19.25 11.6668L19.25 12.8335L20.4167 12.8335L20.4167 13.4168L19.25 13.4168L19.25 14.5835L18.6667 14.5835L18.6667 13.4168L17.5 13.4168L17.5 14.5835L16.9167 14.5835L16.9167 13.4168L15.75 13.4168L15.75 12.8335L16.9167 12.8335L16.9167 11.6668L15.75 11.6668L15.75 11.0835L16.9167 11.0835L16.9167 9.91683L17.5 9.91683L17.5 11.0835L18.6667 11.0835L18.6667 9.91683L19.25 9.91683M17.5 12.8335L18.6667 12.8335L18.6667 11.6668L17.5 11.6668L17.5 12.8335M19.8333 9.33349L19.25 9.33349L18.6667 9.33349L18.0833 9.33349L17.5 9.33349L16.9167 9.33349L16.3333 9.33349L16.3333 9.91683L16.3333 10.5002L15.75 10.5002L15.1667 10.5002L15.1667 11.0835L15.1667 11.6668L15.1667 12.2502L15.1667 12.8335L15.1667 13.4168L15.1667 14.0002L15.75 14.0002L16.3333 14.0002L16.3333 14.5835L16.3333 15.1668L16.9167 15.1668L17.5 15.1668L18.0833 15.1668L18.0833 14.5835L18.0833 14.0002L18.0833 14.5835L18.0833 15.1668L18.6667 15.1668L19.25 15.1668L19.8333 15.1668L19.8333 14.5835L19.8333 14.0002L20.4167 14.0002L21 14.0002L21 13.4168L21 12.8335L21 12.2502L20.4167 12.2502L19.8333 12.2502L20.4167 12.2502L21 12.2502L21 11.6668L21 11.0835L21 10.5002L20.4167 10.5002L19.8333 10.5002L19.8333 9.91683L19.8333 9.33349L19.8333 9.33349L19.8333 9.33349L19.8333 9.33349Z" id="Shape#4" fill="#6B1578" fill-opacity="0.050980393" fill-rule="evenodd" stroke="none" />
            <path d="M19.25 9.91683L19.25 11.0835L20.4167 11.0835L20.4167 11.6668L19.25 11.6668L19.25 12.8335L20.4167 12.8335L20.4167 13.4168L19.25 13.4168L19.25 14.5835L18.6667 14.5835L18.6667 13.4168L17.5 13.4168L17.5 14.5835L16.9167 14.5835L16.9167 13.4168L15.75 13.4168L15.75 12.8335L16.9167 12.8335L16.9167 11.6668L15.75 11.6668L15.75 11.0835L16.9167 11.0835L16.9167 9.91683L17.5 9.91683L17.5 11.0835L18.6667 11.0835L18.6667 9.91683L19.25 9.91683M17.5 12.8335L18.6667 12.8335L18.6667 11.6668L17.5 11.6668L17.5 12.8335M19.5417 9.62517L19.25 9.62517L18.6667 9.62517L18.375 9.62517L18.375 9.91684L18.375 10.7918L17.7917 10.7918L17.7917 9.91684L17.7917 9.62517L17.5 9.62517L16.9167 9.62517L16.625 9.62517L16.625 9.91684L16.625 10.7918L15.75 10.7918L15.4583 10.7918L15.4583 11.0835L15.4583 11.6668L15.4583 11.9585L15.75 11.9585L16.625 11.9585L16.625 12.5418L15.75 12.5418L15.4583 12.5418L15.4583 12.8335L15.4583 13.4168L15.4583 13.7085L15.75 13.7085L16.625 13.7085L16.625 14.5835L16.625 14.8752L16.9167 14.8752L17.5 14.8752L17.7917 14.8752L17.7917 14.5835L17.7917 13.7085L18.375 13.7085L18.375 14.5835L18.375 14.8752L18.6667 14.8752L19.25 14.8752L19.5417 14.8752L19.5417 14.5835L19.5417 13.7085L20.4167 13.7085L20.7083 13.7085L20.7083 13.4168L20.7083 12.8335L20.7083 12.5418L20.4167 12.5418L19.5417 12.5418L19.5417 11.9585L20.4167 11.9585L20.7083 11.9585L20.7083 11.6668L20.7083 11.0835L20.7083 10.7918L20.4167 10.7918L19.5417 10.7918L19.5417 9.91684L19.5417 9.62517L19.5417 9.62517L19.5417 9.62517L19.5417 9.62517ZM17.7917 11.9585L18.375 11.9585L18.375 12.5418L17.7917 12.5418L17.7917 11.9585L17.7917 11.9585L17.7917 11.9585L17.7917 11.9585Z" id="Shape#5" fill="#6B1578" fill-opacity="0.07058824" fill-rule="evenodd" stroke="none" />
            <path d="M20.4167 11.6668L20.4167 11.0835L19.25 11.0835L19.25 9.91683L18.6667 9.91683L18.6667 11.0835L17.5 11.0835L17.5 9.91683L16.9167 9.91683L16.9167 11.0835L15.75 11.0835L15.75 11.6668L16.9167 11.6668L16.9167 12.8335L15.75 12.8335L15.75 13.4168L16.9167 13.4168L16.9167 14.5835L17.5 14.5835L17.5 13.4168L18.6667 13.4168L18.6667 14.5835L19.25 14.5835L19.25 13.4168L20.4167 13.4168L20.4167 12.8335L19.25 12.8335L19.25 11.6668L20.4167 11.6668L20.4167 11.6668L20.4167 11.6668ZM18.6667 12.8335L17.5 12.8335L17.5 11.6668L18.6667 11.6668L18.6667 12.8335L18.6667 12.8335L18.6667 12.8335Z" id="Shape#6" fill="#FFFFFF" fill-rule="evenodd" stroke="none" />
            <g id="Group" transform="translate(2.333337 3.5001686)">
              <path d="M8.75 0.583337C11.7413 0.583337 14.3512 2.19975 15.7739 4.60075L12.2313 6.62492C11.5133 5.45242 10.2241 4.66667 8.75 4.66667C6.496 4.66667 4.66667 6.496 4.66667 8.75C4.66667 11.0034 6.49659 12.8333 8.75 12.8333C10.2492 12.8333 11.557 12.0213 12.2669 10.8156L15.8439 12.7838C14.4375 15.2495 11.7892 16.9167 8.75 16.9167C4.24259 16.9167 0.583337 13.2574 0.583337 8.75C0.583337 4.24259 4.24259 0.583337 8.75 0.583337M8.75 0C3.92525 0 0 3.92525 0 8.75C0 13.5748 3.92525 17.5 8.75 17.5C11.8807 17.5 14.7933 15.8037 16.3508 13.0725L16.6443 12.558L16.1251 12.2722L12.5481 10.304L12.0517 10.031L11.7641 10.5193C11.1358 11.5868 9.98083 12.25 8.75 12.25C6.82033 12.25 5.25 10.6797 5.25 8.75C5.25 6.82033 6.82033 5.25 8.75 5.25C9.97442 5.25 11.0898 5.87767 11.7338 6.92942L12.0295 7.41242L12.5207 7.13183L16.0633 5.10767L16.5777 4.81367L16.2756 4.30383C14.7029 1.64908 11.8195 0 8.75 0L8.75 0L8.75 0L8.75 0Z" id="Shape#7" fill="#6B1578" fill-opacity="0.050980393" fill-rule="evenodd" stroke="none" />
              <path d="M8.74999 0.583326C11.7413 0.583326 14.3512 2.19974 15.7739 4.60074L12.2313 6.62491C11.5132 5.45241 10.2241 4.66666 8.74999 4.66666C6.49599 4.66666 4.66666 6.49599 4.66666 8.74999C4.66666 11.0034 6.49658 12.8333 8.74999 12.8333C10.2492 12.8333 11.557 12.0213 12.2669 10.8156L15.8439 12.7837C14.4375 15.2495 11.7892 16.9167 8.74999 16.9167C4.24258 16.9167 0.583326 13.2574 0.583326 8.74999C0.583326 4.24257 4.24258 0.583326 8.74999 0.583326M8.75 0.291663C4.08625 0.291663 0.291663 4.08625 0.291663 8.75C0.291663 13.4137 4.08625 17.2083 8.75 17.2083C11.7763 17.2083 14.5915 15.568 16.0971 12.9284L16.2441 12.6712L15.9845 12.5282L12.4075 10.5601L12.1596 10.4236L12.0161 10.6674C11.3347 11.8236 10.0835 12.5417 8.75 12.5417C6.65933 12.5417 4.95833 10.8407 4.95833 8.75C4.95833 6.65933 6.65933 4.95833 8.75 4.95833C10.0771 4.95833 11.2852 5.6385 11.9828 6.77716L12.1304 7.01866L12.376 6.87808L15.9186 4.85391L16.1758 4.70691L16.0247 4.452C14.504 1.88591 11.7168 0.291663 8.75 0.291663L8.75 0.291663L8.75 0.291663L8.75 0.291663Z" id="Shape#8" fill="#6B1578" fill-opacity="0.07058824" fill-rule="evenodd" stroke="none" />
            </g>
          </g>
        </g>
      </g>
    </g>
  </g>
</svg>