<?xml version="1.0" encoding="utf-8"?>
<svg width="48px" height="48px" viewBox="0 0 48 48" version="1.1" xmlns:xlink="http://www.w3.org/1999/xlink" xmlns="http://www.w3.org/2000/svg">
  <defs>
    <linearGradient gradientUnits="objectBoundingBox" x1="0.31135002" y1="-0.033424854" x2="0.6688" y2="0.97722507" id="gradient_1">
      <stop offset="0%" stop-color="#7DD8F3" />
      <stop offset="100%" stop-color="#45B0D0" />
    </linearGradient>
    <linearGradient gradientUnits="objectBoundingBox" x1="0.0021152496" y1="0.5" x2="0.9978844" y2="0.5" id="gradient_2">
      <stop offset="0%" stop-color="#3079D6" />
      <stop offset="100%" stop-color="#297CD2" />
    </linearGradient>
    <linearGradient gradientUnits="objectBoundingBox" x1="0" y1="0.49999994" x2="1" y2="0.49999994" id="gradient_3">
      <stop offset="0%" stop-color="#FEDE00" />
      <stop offset="100%" stop-color="#FFD000" />
    </linearGradient>
    <linearGradient gradientUnits="objectBoundingBox" x1="2.5987625E-05" y1="0.4999838" x2="1" y2="0.4999838" id="gradient_4">
      <stop offset="0%" stop-color="#4B4B4B" />
      <stop offset="100%" stop-color="#3B3B3B" />
    </linearGradient>
    <path d="M48 0L48 0L48 48L0 48L0 0L48 0Z" id="path_1" />
    <path d="M26 0L26 0L26 26L0 26L0 0L26 0Z" id="path_2" />
    <clipPath id="clip_1">
      <use xlink:href="#path_1" clip-rule="evenodd" fill-rule="evenodd" />
    </clipPath>
    <clipPath id="clip_2">
      <use xlink:href="#path_2" clip-rule="evenodd" fill-rule="evenodd" />
    </clipPath>
  </defs>
  <g id="CD" clip-path="url(#clip_1)">
    <path d="M48 0L48 0L48 48L0 48L0 0L48 0Z" id="CD" fill="none" stroke="none" />
    <path d="M4 24C4 12.9543 12.9543 4 24 4C35.0457 4 44 12.9543 44 24C44 35.0457 35.0457 44 24 44C12.9543 44 4 35.0457 4 24Z" id="Circle" fill="url(#gradient_1)" fill-rule="evenodd" stroke="none" />
    <path d="M16.2 24.2C16.2 19.8922 19.6922 16.4 24 16.4C28.3078 16.4 31.8 19.8922 31.8 24.2C31.8 28.5078 28.3078 32 24 32C19.6922 32 16.2 28.5078 16.2 24.2Z" id="Circle" fill="url(#gradient_2)" fill-rule="evenodd" stroke="none" />
    <path d="M20.9 24.2C20.9 22.4879 22.2879 21.1 24 21.1C25.7121 21.1 27.1 22.4879 27.1 24.2C27.1 25.9121 25.7121 27.3 24 27.3C22.2879 27.3 20.9 25.9121 20.9 24.2Z" id="Circle" fill="#FFFFFF" fill-rule="evenodd" stroke="none" />
    <path d="M24 39C23.447 39 23 38.552 23 38C23 37.448 23.447 37 24 37C31.168 37 37 31.168 37 24C37 23.448 37.447 23 38 23C38.553 23 39 23.448 39 24C39 32.271 32.271 39 24 39L24 39Z" id="Shape" fill="#EDEDED" stroke="none" />
    <path d="M10 26C9.447 26 9 25.552 9 25C9 16.178 16.178 9 25 9C25.553 9 26 9.448 26 10C26 10.552 25.553 11 25 11C17.28 11 11 17.28 11 25C11 25.552 10.553 26 10 26L10 26Z" id="Shape" fill="#EDEDED" stroke="none" />
    <g id="Archive" clip-path="url(#clip_2)" transform="translate(21 21)">
      <path d="M26 0L26 0L26 26L0 26L0 0L26 0Z" id="Archive" fill="none" stroke="none" />
      <path d="M21.125 22.2083C21.125 22.8069 20.6402 23.2917 20.0417 23.2917L5.95833 23.2917C5.35979 23.2917 4.875 22.8069 4.875 22.2083L4.875 3.79166C4.875 3.19312 5.35979 2.70833 5.95833 2.70833L20.0417 2.70833C20.6402 2.70833 21.125 3.19312 21.125 3.79166L21.125 22.2083L21.125 22.2083Z" id="Shape" fill="url(#gradient_3)" stroke="none" />
      <path d="M14.1667 11.2764C14.1202 11.0197 13.8959 10.8333 13.6343 10.8333L12.3657 10.8333C12.1041 10.8333 11.8798 11.0186 11.8332 11.2759C11.6843 12.0943 11.3874 13.8721 11.3755 15.093C11.3674 15.9098 11.9427 16.653 12.7503 16.7732C13.7583 16.9233 14.625 16.146 14.625 15.1667C14.625 13.9452 14.3189 12.1122 14.1667 11.2764L14.1667 11.2764ZM13 15.7083C12.701 15.7083 12.4583 15.4657 12.4583 15.1667C12.4583 14.8677 12.701 14.625 13 14.625C13.299 14.625 13.5417 14.8677 13.5417 15.1667C13.5417 15.4657 13.299 15.7083 13 15.7083L13 15.7083Z" id="Shape" fill="url(#gradient_4)" fill-rule="evenodd" stroke="none" />
      <path d="M12.7059 9.20834L12.2113 9.20834C12.0483 9.20834 11.9167 9.07672 11.9167 8.91422L11.9167 8.41968C11.9167 8.25718 12.0483 8.12555 12.2108 8.12555L12.7053 8.12555C12.8678 8.12555 12.9995 8.25718 12.9995 8.41968L12.9995 8.91422C13 9.07672 12.8684 9.20834 12.7059 9.20834L12.7059 9.20834Z" id="Shape" fill="#E97C01" stroke="none" />
      <path d="M13.7892 10.2917L13.2947 10.2917C13.1316 10.2917 13 10.16 13 9.99755L13 9.503C13 9.3405 13.1316 9.20888 13.2941 9.20888L13.7887 9.20888C13.9512 9.20888 14.0828 9.3405 14.0828 9.503L14.0828 9.99755C14.0833 10.16 13.9517 10.2917 13.7892 10.2917L13.7892 10.2917Z" id="Shape" fill="#E97C01" stroke="none" />
      <path d="M12.7059 7.04167L12.2113 7.04167C12.0483 7.04167 11.9167 6.91005 11.9167 6.74755L11.9167 6.253C11.9167 6.0905 12.0483 5.95888 12.2108 5.95888L12.7053 5.95888C12.8678 5.95888 12.9995 6.0905 12.9995 6.253L12.9995 6.74755C13 6.91005 12.8684 7.04167 12.7059 7.04167L12.7059 7.04167Z" id="Shape" fill="#E97C01" stroke="none" />
      <path d="M13.7892 8.125L13.2947 8.125C13.1316 8.125 13 7.99337 13 7.83087L13 7.33633C13 7.17383 13.1316 7.04221 13.2941 7.04221L13.7887 7.04221C13.9512 7.04221 14.0828 7.17383 14.0828 7.33633L14.0828 7.83087C14.0833 7.99337 13.9517 8.125 13.7892 8.125L13.7892 8.125Z" id="Shape" fill="#E97C01" stroke="none" />
      <path d="M12.7059 4.87501L12.2113 4.87501C12.0483 4.87501 11.9167 4.74338 11.9167 4.58088L11.9167 4.0858C11.9167 3.9233 12.0483 3.79167 12.2108 3.79167L12.7053 3.79167C12.8684 3.79167 13 3.9233 13 4.0858L13 4.58034C13 4.74338 12.8684 4.87501 12.7059 4.87501L12.7059 4.87501Z" id="Shape" fill="#E97C01" stroke="none" />
      <path d="M13.7892 5.95833L13.2947 5.95833C13.1316 5.95833 13 5.82671 13 5.66421L13 5.16913C13 5.00663 13.1316 4.875 13.2941 4.875L13.7887 4.875C13.9517 4.875 14.0833 5.00663 14.0833 5.16913L14.0833 5.66367C14.0833 5.82671 13.9517 5.95833 13.7892 5.95833L13.7892 5.95833Z" id="Shape" fill="#E97C01" stroke="none" />
      <path d="M13.7892 3.79166L13.2947 3.79166C13.1316 3.79166 13 3.66004 13 3.49754L13 3.00245C13 2.83995 13.1316 2.70833 13.2941 2.70833L13.7887 2.70833C13.9517 2.70833 14.0833 2.83995 14.0833 3.00245L14.0833 3.49699C14.0833 3.66004 13.9517 3.79166 13.7892 3.79166L13.7892 3.79166Z" id="Shape" fill="#E97C01" stroke="none" />
    </g>
  </g>
</svg>