<?xml version="1.0" encoding="utf-8"?>
<svg width="48px" height="48px" viewBox="0 0 48 48" version="1.1" xmlns:xlink="http://www.w3.org/1999/xlink" xmlns="http://www.w3.org/2000/svg">
  <defs>
    <linearGradient gradientUnits="userSpaceOnUse" x1="0.5290003" y1="10.472" x2="5.6" y2="5.3999996" id="gradient_1">
      <stop offset="0%" stop-color="#3079D6" />
      <stop offset="100%" stop-color="#297CD2" />
    </linearGradient>
    <linearGradient gradientUnits="userSpaceOnUse" x1="-14.071733" y1="-2.4232502" x2="-14.071733" y2="20.530687" id="gradient_2">
      <stop offset="0%" stop-color="#C391F7" />
      <stop offset="100%" stop-color="#B579F4" />
    </linearGradient>
    <linearGradient gradientUnits="userSpaceOnUse" x1="-1.9136251" y1="16.626938" x2="16.830004" y2="-2.1166914" id="gradient_3">
      <stop offset="1.9%" stop-color="#742FB6" />
      <stop offset="32%" stop-color="#702DB5" />
      <stop offset="36.399998%" stop-color="#5D2596" />
      <stop offset="38%" stop-color="#5D2596" />
      <stop offset="48%" stop-color="#5D2596" />
      <stop offset="48.5%" stop-color="#60279A" />
      <stop offset="51.7%" stop-color="#6F2DAB" />
      <stop offset="55.6%" stop-color="#7932B6" />
      <stop offset="61%" stop-color="#7E34BD" />
      <stop offset="76.200005%" stop-color="#8035BF" />
      <stop offset="80.6%" stop-color="#7D34BB" />
      <stop offset="85.1%" stop-color="#7530AE" />
      <stop offset="89.700005%" stop-color="#66299A" />
      <stop offset="94.3%" stop-color="#52207D" />
      <stop offset="96.3%" stop-color="#481B6E" />
    </linearGradient>
    <linearGradient gradientUnits="userSpaceOnUse" x1="-2.0221877" y1="0.79481274" x2="15.68588" y2="3.4380007" id="gradient_4">
      <stop offset="0.2%" stop-color="#9C55D4" />
      <stop offset="0.3%" stop-color="#9C55D4" />
      <stop offset="33.7%" stop-color="#9751D2" />
      <stop offset="73.69999%" stop-color="#8847CB" />
      <stop offset="84.799995%" stop-color="#8343C8" />
      <stop offset="89%" stop-color="#8042C3" />
      <stop offset="93.8%" stop-color="#773DB6" />
      <stop offset="98.79999%" stop-color="#68369F" />
      <stop offset="100%" stop-color="#643499" />
    </linearGradient>
    <linearGradient gradientUnits="userSpaceOnUse" x1="-0.84374994" y1="3.0205991" x2="-0.84374994" y2="-7.868276" id="gradient_5">
      <stop offset="0%" stop-color="#5C1D9C" />
      <stop offset="100%" stop-color="#561B90" />
    </linearGradient>
    <path d="M0 0L48 0L48 48L0 48L0 0Z" id="path_1" />
    <path d="M0 0L27 0L27 27L0 27L0 0L0 0Z" id="path_2" />
    <path d="M0 0L18.5625 0L18.5625 18.5625L0 18.5625L0 0L0 0L0 0Z" id="path_3" />
    <clipPath id="mask_1">
      <use xlink:href="#path_1" />
    </clipPath>
    <clipPath id="mask_2">
      <use xlink:href="#path_2" />
    </clipPath>
    <clipPath id="mask_3">
      <use xlink:href="#path_3" />
    </clipPath>
  </defs>
  <g id="File-Icon-2">
    <path d="M0 0L48 0L48 48L0 48L0 0Z" id="Background" fill="#FFFFFF" fill-opacity="0" fill-rule="evenodd" stroke="none" />
    <path d="M39 16L39 41C39 42.105 38.105 43 37 43L11 43C9.895 43 9 42.105 9 41L9 7C9 5.895 9.895 5 11 5L28 5L39 16L39 16Z" id="Shape" fill="#50E6FF" stroke="none" />
    <path d="M28 5L28 14C28 15.105 28.895 16 30 16L39 16L28 5L28 5Z" id="Shape" fill="url(#gradient_1)" stroke="none" />
  </g>
  <g id="svg" transform="translate(10 16)">
    <g id="Visual-Studio-Icon-2">
      <path d="M0 0L27 0L27 27L0 27L0 0L0 0Z" id="Background" fill="#FFFFFF" fill-opacity="0" fill-rule="evenodd" stroke="none" />
      <g id="Mask-Group">
        <path d="M0 0L27 0L27 27L0 27L0 0L0 0Z" id="path_1" fill="none" stroke="none" />
        <g clip-path="url(#mask_2)">
          <g id="Group" transform="translate(2.2499952 2.2466257)">
            <path d="M22.5 3.81769L22.5 18.6694C22.5 19.3146 22.1327 19.9029 21.5528 20.1859C20.232 20.8294 17.9573 21.9369 17.5871 22.1057C17.0606 22.3464 16.7299 22.5034 16.3164 22.5034C15.903 22.5034 15.6296 22.2339 15.4395 22.0331C15.2494 21.8318 16.875 16.3159 16.875 16.3159L16.875 1.25775C16.875 1.25775 15.0851 0.883125 15.4238 0.505688C15.7629 0.12825 16.0464 0 16.4003 0C16.8081 0 17.1377 0.181687 17.5089 0.360563C17.7722 0.487125 20.1707 1.638 21.5443 2.29725C22.1299 2.57794 22.5 3.16856 22.5 3.81769L22.5 3.81769L22.5 3.81769Z" id="Shape" fill="url(#gradient_2)" fill-rule="evenodd" stroke="none" />
            <path d="M0 15.7534C0 16.8379 0.146813 16.9988 1.20038 17.4566C2.01938 17.8127 2.34563 18.0034 2.56444 18.0034C2.82825 18.0034 3.07631 17.8217 3.31088 17.6299C3.54544 17.4381 16.875 6.48619 16.875 6.48619L16.875 0.873002C16.875 0.199127 15.9334 -0.0697484 15.4873 0.435377C15.4873 0.435377 1.54238 15.9216 1.125 16.3226C0.707625 16.7237 0.993938 15.2578 0 15.7534L0 15.7534L0 15.7534Z" id="Shape#1" fill="url(#gradient_3)" fill-rule="evenodd" stroke="none" />
            <path d="M0.34875 5.44894C0.527062 5.36344 1.99913 4.70531 2.18025 4.626C2.39288 4.53319 2.46938 4.50337 2.62631 4.50337C2.79956 4.50337 2.91769 4.56919 3.18938 4.7925C3.56906 5.10412 16.875 16.0251 16.875 16.0251L16.875 21.5145C16.875 22.4567 15.894 22.5534 15.3405 21.9313C14.9479 21.4903 1.34381 6.435 1.34381 6.435C1.34381 6.435 0 7.11394 0 6.52106C0 5.72175 0.15525 5.54231 0.34875 5.44894L0.34875 5.44894L0.34875 5.44894Z" id="Shape#2" fill="url(#gradient_4)" fill-rule="evenodd" stroke="none" />
            <path d="M2.8125 8.06006L2.8125 14.4793C2.8125 14.4793 1.27688 16.1663 0.93375 16.5375C0.628875 16.8677 0 16.7642 0 15.8366L0 6.43163C0 5.72794 0.636188 5.6565 1.18013 6.24994C1.27856 6.35738 2.8125 8.06006 2.8125 8.06006L2.8125 8.06006L2.8125 8.06006Z" id="Shape#3" fill="url(#gradient_5)" fill-rule="evenodd" stroke="none" />
          </g>
        </g>
      </g>
    </g>
    <g id="svg" transform="translate(8.4375 8.4375)">
      <g id="C-Sharp-Logo-Icon">
        <path d="M0 0L18.5625 0L18.5625 18.5625L0 18.5625L0 0L0 0L0 0Z" id="Background#1" fill="#FFFFFF" fill-opacity="0" fill-rule="evenodd" stroke="none" />
        <g id="Mask-Group">
          <path d="M0 0L18.5625 0L18.5625 18.5625L0 18.5625L0 0L0 0L0 0Z" id="path_1#1" fill="none" fill-rule="evenodd" stroke="none" />
          <g id="Mask-Group">
            <path d="M0 0L18.5625 0L18.5625 18.5625L0 18.5625L0 0L0 0L0 0Z" id="path_2" fill="none" stroke="none" />
            <g clip-path="url(#mask_3)">
              <g id="Group" transform="translate(1.9335889 1.1600533)">
                <g id="Group">
                  <path d="M6.92342 0.110696C7.18599 -0.036643 7.50932 -0.036643 7.7715 0.110696C9.06896 0.838888 12.9733 3.03081 14.2711 3.759C14.5337 3.90595 14.6953 4.1782 14.6953 4.47289C14.6953 5.92929 14.6953 10.3127 14.6953 11.7691C14.6953 12.0638 14.5337 12.3361 14.2711 12.4834C12.9736 13.2116 9.0693 15.4035 7.7715 16.1317C7.50893 16.279 7.1856 16.279 6.92342 16.1317C5.62596 15.4035 1.72167 13.2116 0.423844 12.4834C0.161648 12.3361 0 12.0642 0 11.7695C0 10.3131 0 5.92963 0 4.47327C0 4.17859 0.161648 3.90634 0.424231 3.759C1.72128 3.03081 5.62635 0.838888 6.92342 0.110696L6.92342 0.110696L6.92342 0.110696L6.92342 0.110696Z" id="Shape#4" fill="#6B1578" fill-rule="evenodd" stroke="none" />
                  <path d="M0.117562 12.1446C0.0146953 12.007 0 11.8762 0 11.7003C0 10.2524 0 5.8941 0 4.44583C0 4.1527 0.161262 3.88199 0.42307 3.73581C1.71587 3.01187 5.60703 0.832714 6.89985 0.10839C7.16164 -0.0381764 7.51629 -0.0350822 7.77808 0.111484C9.07087 0.835419 12.9489 2.99602 14.2417 3.71996C14.3461 3.77874 14.4258 3.84951 14.4969 3.94271L0.117562 12.1446L0.117562 12.1446L0.117562 12.1446L0.117562 12.1446Z" id="Shape#5" fill="#9A4A93" fill-rule="evenodd" stroke="none" />
                  <path d="M7.34765 2.70714C10.3358 2.70714 12.7617 5.13303 12.7617 8.12121C12.7617 11.1094 10.3358 13.5353 7.34765 13.5353C4.35947 13.5353 1.93359 11.1094 1.93359 8.12121C1.93359 5.13303 4.35947 2.70714 7.34765 2.70714L7.34765 2.70714L7.34765 2.70714L7.34765 2.70714ZM7.34766 5.41418C8.84154 5.41418 10.0547 6.62694 10.0547 8.12122C10.0547 9.61511 8.84154 10.8283 7.34766 10.8283C5.85377 10.8283 4.64062 9.61511 4.64062 8.12122C4.64062 6.62694 5.85337 5.41418 7.34766 5.41418L7.34766 5.41418L7.34766 5.41418L7.34766 5.41418Z" id="Shape#6" fill="#FFFFFF" fill-rule="evenodd" stroke="none" />
                  <path d="M14.4961 3.94657C14.6957 4.13336 14.6918 4.41489 14.6918 4.63648C14.6918 6.10408 14.6794 10.2783 14.6953 11.7459C14.6968 11.8991 14.6462 12.0603 14.5704 12.1817L7.19027 8.12121L14.4961 3.94657L14.4961 3.94657L14.4961 3.94657L14.4961 3.94657Z" id="Shape#7" fill="#823084" fill-rule="evenodd" stroke="none" />
                  <path d="M12.7617 6.57435L12.7617 7.34778L13.5352 7.34778L13.5352 7.7345L12.7617 7.7345L12.7617 8.50794L13.5352 8.50794L13.5352 8.89466L12.7617 8.89466L12.7617 9.6681L12.375 9.6681L12.375 8.89466L11.6016 8.89466L11.6016 9.6681L11.2148 9.6681L11.2148 8.89466L10.4414 8.89466L10.4414 8.50794L11.2148 8.50794L11.2148 7.7345L10.4414 7.7345L10.4414 7.34778L11.2148 7.34778L11.2148 6.57435L11.6016 6.57435L11.6016 7.34778L12.375 7.34778L12.375 6.57435L12.7617 6.57435M11.6016 8.50794L12.375 8.50794L12.375 7.7345L11.6016 7.7345L11.6016 8.50794M13.1484 6.18762L12.7617 6.18762L12.375 6.18762L11.9883 6.18762L11.6016 6.18762L11.2148 6.18762L10.8281 6.18762L10.8281 6.57434L10.8281 6.96106L10.4414 6.96106L10.0547 6.96106L10.0547 7.34778L10.0547 7.7345L10.0547 8.12122L10.0547 8.50794L10.0547 8.89466L10.0547 9.28137L10.4414 9.28137L10.8281 9.28137L10.8281 9.66809L10.8281 10.0548L11.2148 10.0548L11.6016 10.0548L11.9883 10.0548L11.9883 9.66809L11.9883 9.28137L11.9883 9.66809L11.9883 10.0548L12.375 10.0548L12.7617 10.0548L13.1484 10.0548L13.1484 9.66809L13.1484 9.28137L13.5352 9.28137L13.9219 9.28137L13.9219 8.89466L13.9219 8.50794L13.9219 8.12122L13.5352 8.12122L13.1484 8.12122L13.5352 8.12122L13.9219 8.12122L13.9219 7.7345L13.9219 7.34778L13.9219 6.96106L13.5352 6.96106L13.1484 6.96106L13.1484 6.57434L13.1484 6.18762L13.1484 6.18762L13.1484 6.18762L13.1484 6.18762L13.1484 6.18762Z" id="Shape#8" fill="#6B1578" fill-opacity="0.050980393" fill-rule="evenodd" stroke="none" />
                  <path d="M12.7617 6.57433L12.7617 7.34777L13.5352 7.34777L13.5352 7.73449L12.7617 7.73449L12.7617 8.50793L13.5352 8.50793L13.5352 8.89465L12.7617 8.89465L12.7617 9.66808L12.375 9.66808L12.375 8.89465L11.6016 8.89465L11.6016 9.66808L11.2148 9.66808L11.2148 8.89465L10.4414 8.89465L10.4414 8.50793L11.2148 8.50793L11.2148 7.73449L10.4414 7.73449L10.4414 7.34777L11.2148 7.34777L11.2148 6.57433L11.6016 6.57433L11.6016 7.34777L12.375 7.34777L12.375 6.57433L12.7617 6.57433M11.6016 8.50793L12.375 8.50793L12.375 7.73449L11.6016 7.73449L11.6016 8.50793M12.9551 6.38095L12.7617 6.38095L12.375 6.38095L12.1817 6.38095L12.1817 6.57434L12.1817 7.15439L11.795 7.15439L11.795 6.57434L11.795 6.38095L11.6016 6.38095L11.2149 6.38095L11.0215 6.38095L11.0215 6.57434L11.0215 7.15439L10.4414 7.15439L10.2481 7.15439L10.2481 7.34777L10.2481 7.73449L10.2481 7.92782L10.4414 7.92782L11.0215 7.92782L11.0215 8.31454L10.4414 8.31454L10.2481 8.31454L10.2481 8.50793L10.2481 8.89465L10.2481 9.08798L10.4414 9.08798L11.0215 9.08798L11.0215 9.66809L11.0215 9.86142L11.2149 9.86142L11.6016 9.86142L11.795 9.86142L11.795 9.66809L11.795 9.08798L12.1817 9.08798L12.1817 9.66809L12.1817 9.86142L12.375 9.86142L12.7617 9.86142L12.9551 9.86142L12.9551 9.66809L12.9551 9.08798L13.5352 9.08798L13.7285 9.08798L13.7285 8.89465L13.7285 8.50793L13.7285 8.31454L13.5352 8.31454L12.9551 8.31454L12.9551 7.92782L13.5352 7.92782L13.7285 7.92782L13.7285 7.73449L13.7285 7.34777L13.7285 7.15439L13.5352 7.15439L12.9551 7.15439L12.9551 6.57434L12.9551 6.38095L12.9551 6.38095L12.9551 6.38095L12.9551 6.38095L12.9551 6.38095ZM11.795 7.92783L12.3575 7.92783L12.3575 8.49033L11.795 8.49033L11.795 7.92783L11.795 7.92783L11.795 7.92783L11.795 7.92783L11.795 7.92783Z" id="Shape#9" fill="#6B1578" fill-opacity="0.07058824" fill-rule="evenodd" stroke="none" />
                  <path d="M13.5352 7.73449L13.5352 7.34777L12.7617 7.34777L12.7617 6.57433L12.375 6.57433L12.375 7.34777L11.6016 7.34777L11.6016 6.57433L11.2148 6.57433L11.2148 7.34777L10.4414 7.34777L10.4414 7.73449L11.2148 7.73449L11.2148 8.50793L10.4414 8.50793L10.4414 8.89465L11.2148 8.89465L11.2148 9.66808L11.6016 9.66808L11.6016 8.89465L12.375 8.89465L12.375 9.66808L12.7617 9.66808L12.7617 8.89465L13.5352 8.89465L13.5352 8.50793L12.7617 8.50793L12.7617 7.73449L13.5352 7.73449L13.5352 7.73449L13.5352 7.73449L13.5352 7.73449ZM12.375 8.50793L11.6016 8.50793L11.6016 7.73449L12.375 7.73449L12.375 8.50793L12.375 8.50793L12.375 8.50793L12.375 8.50793Z" id="Shape#10" fill="#FFFFFF" fill-rule="evenodd" stroke="none" />
                  <g id="Group#1" transform="translate(1.5468799 2.3204155)">
                    <path d="M5.80078 0.386724C7.78388 0.386724 9.51407 1.45832 10.4573 3.05006L8.10872 4.39197C7.63268 3.61467 6.77802 3.09375 5.80078 3.09375C4.3065 3.09375 3.09375 4.3065 3.09375 5.80078C3.09375 7.29467 4.30689 8.50781 5.80078 8.50781C6.79466 8.50781 7.6617 7.9695 8.13229 7.17013L10.5037 8.47496C9.57128 10.1096 7.8156 11.2148 5.80078 11.2148C2.81261 11.2148 0.386724 8.78895 0.386724 5.80078C0.386724 2.81261 2.81261 0.386724 5.80078 0.386724M5.80078 0C2.60223 0 0 2.60223 0 5.80078C0 8.99933 2.60223 11.6016 5.80078 11.6016C7.87629 11.6016 9.80719 10.477 10.8397 8.66638L11.0342 8.32528L10.6901 8.13577L8.3187 6.831L7.98964 6.64999L7.79895 6.97371C7.38248 7.68139 6.61674 8.12109 5.80078 8.12109C4.52152 8.12109 3.48047 7.08007 3.48047 5.80078C3.48047 4.52152 4.52152 3.48047 5.80078 3.48047C6.61253 3.48047 7.35193 3.89658 7.77887 4.59383L7.9749 4.91403L8.30053 4.72803L10.6491 3.38611L10.9902 3.1912L10.7898 2.85321C9.74723 1.09325 7.83568 0 5.80078 0L5.80078 0L5.80078 0L5.80078 0L5.80078 0Z" id="Shape#11" fill="#6B1578" fill-opacity="0.050980393" fill-rule="evenodd" stroke="none" />
                    <path d="M5.80078 0.386709C7.78387 0.386709 9.51407 1.45831 10.4573 3.05004L8.10872 4.39196C7.63267 3.61465 6.77801 3.09374 5.80078 3.09374C4.30649 3.09374 3.09374 4.30649 3.09374 5.80078C3.09374 7.29466 4.30688 8.50781 5.80078 8.50781C6.79466 8.50781 7.66164 7.9695 8.13229 7.17013L10.5037 8.47496C9.57127 10.1096 7.8156 11.2148 5.80078 11.2148C2.8126 11.2148 0.386709 8.78895 0.386709 5.80078C0.386709 2.8126 2.8126 0.386709 5.80078 0.386709M5.80078 0.193354C2.70896 0.193354 0.193354 2.70896 0.193354 5.80078C0.193354 8.89262 2.70896 11.4082 5.80078 11.4082C7.80705 11.4082 9.67337 10.3207 10.6715 8.57087L10.7689 8.40032L10.5969 8.30554L8.22549 7.00076L8.06113 6.91025L7.96601 7.07192C7.51432 7.83838 6.68481 8.31442 5.80078 8.31442C4.41477 8.31442 3.2871 7.18678 3.2871 5.80078C3.2871 4.41477 4.41477 3.2871 5.80078 3.2871C6.68059 3.2871 7.48147 3.73802 7.94396 4.49289L8.04184 4.65299L8.20462 4.5598L10.5532 3.21788L10.7237 3.12043L10.6235 2.95143C9.61538 1.25026 7.76762 0.193354 5.80078 0.193354L5.80078 0.193354L5.80078 0.193354L5.80078 0.193354L5.80078 0.193354Z" id="Shape#12" fill="#6B1578" fill-opacity="0.07058824" fill-rule="evenodd" stroke="none" />
                  </g>
                </g>
              </g>
            </g>
          </g>
        </g>
      </g>
    </g>
  </g>
</svg>