<?xml version="1.0" encoding="utf-8"?>
<svg width="48px" height="48px" viewBox="0 0 48 48" version="1.1" xmlns:xlink="http://www.w3.org/1999/xlink" xmlns="http://www.w3.org/2000/svg">
  <defs>
    <linearGradient gradientUnits="userSpaceOnUse" x1="6.3277926" y1="-0.31400025" x2="6.3277926" y2="40.493" id="gradient_1">
      <stop offset="0%" stop-color="#C391F7" />
      <stop offset="100%" stop-color="#B579F4" />
    </linearGradient>
    <linearGradient gradientUnits="userSpaceOnUse" x1="0.5980003" y1="33.8615" x2="33.920002" y2="0.53949666" id="gradient_2">
      <stop offset="1.9%" stop-color="#742FB6" />
      <stop offset="32%" stop-color="#702DB5" />
      <stop offset="36.399998%" stop-color="#5D2596" />
      <stop offset="38%" stop-color="#5D2596" />
      <stop offset="48%" stop-color="#5D2596" />
      <stop offset="48.5%" stop-color="#60279A" />
      <stop offset="51.7%" stop-color="#6F2DAB" />
      <stop offset="55.6%" stop-color="#7932B6" />
      <stop offset="61%" stop-color="#7E34BD" />
      <stop offset="76.200005%" stop-color="#8035BF" />
      <stop offset="80.6%" stop-color="#7D34BB" />
      <stop offset="85.1%" stop-color="#7530AE" />
      <stop offset="89.700005%" stop-color="#66299A" />
      <stop offset="94.3%" stop-color="#52207D" />
      <stop offset="96.3%" stop-color="#481B6E" />
    </linearGradient>
    <linearGradient gradientUnits="userSpaceOnUse" x1="0.40500015" y1="13.413" x2="31.886003" y2="18.112" id="gradient_3">
      <stop offset="0.2%" stop-color="#9C55D4" />
      <stop offset="0.3%" stop-color="#9C55D4" />
      <stop offset="33.7%" stop-color="#9751D2" />
      <stop offset="73.69999%" stop-color="#8847CB" />
      <stop offset="84.799995%" stop-color="#8343C8" />
      <stop offset="89%" stop-color="#8042C3" />
      <stop offset="93.8%" stop-color="#773DB6" />
      <stop offset="98.79999%" stop-color="#68369F" />
      <stop offset="100%" stop-color="#643499" />
    </linearGradient>
    <linearGradient gradientUnits="userSpaceOnUse" x1="2.5000002" y1="19.76348" x2="2.5000002" y2="0.40547585" id="gradient_4">
      <stop offset="0%" stop-color="#5C1D9C" />
      <stop offset="100%" stop-color="#561B90" />
    </linearGradient>
    <path d="M0 0L48 0L48 48L0 48L0 0Z" id="path_1" />
    <path d="M0 0L27.0001 0L27.0001 30L0 30L0 0Z" id="path_2" />
    <clipPath id="clip_1">
      <use xlink:href="#path_1" />
    </clipPath>
    <clipPath id="clip_2">
      <use xlink:href="#path_2" />
    </clipPath>
  </defs>
  <g id="Visual Studio" clip-path="url(#clip_1)">
    <path d="M0 0L48 0L48 48L0 48L0 0Z" id="Visual-Studio" fill="none" fill-rule="evenodd" stroke="none" />
    <path d="M44 10.781L44 37.184C44 38.331 43.347 39.377 42.316 39.88C39.968 41.024 35.924 42.993 35.266 43.293C34.33 43.721 33.742 44 33.007 44C32.272 44 31.786 43.521 31.448 43.164C31.11 42.806 34 33 34 33L34 6.23C34 6.23 30.818 5.564 31.42 4.893C32.023 4.222 32.527 3.994 33.156 3.994C33.881 3.994 34.467 4.317 35.127 4.635C35.595 4.86 39.859 6.906 42.301 8.078C43.342 8.577 44 9.627 44 10.781L44 10.781Z" id="Shape" fill="url(#gradient_1)" stroke="none" />
    <path d="M4 32C4 33.928 4.261 34.214 6.134 35.028C7.59 35.661 8.17 36 8.559 36C9.028 36 9.469 35.677 9.886 35.336C10.303 34.995 34 15.525 34 15.525L34 5.546C34 4.348 32.326 3.87 31.533 4.768C31.533 4.768 6.742 32.299 6 33.012C5.258 33.725 5.767 31.119 4 32L4 32Z" id="Shape" fill="url(#gradient_2)" stroke="none" />
    <path d="M4.62 13.681C4.937 13.529 7.554 12.359 7.876 12.218C8.254 12.053 8.39 12 8.669 12C8.977 12 9.187 12.117 9.67 12.514C10.345 13.068 34 32.483 34 32.483L34 42.242C34 43.917 32.256 44.089 31.272 42.983C30.574 42.199 6.389 15.434 6.389 15.434C6.389 15.434 4 16.641 4 15.587C4 14.166 4.276 13.847 4.62 13.681L4.62 13.681Z" id="Shape" fill="url(#gradient_3)" stroke="none" />
    <path d="M9 18.323L9 29.735C9 29.735 6.27 32.734 5.66 33.394C5.118 33.981 4 33.797 4 32.148L4 15.428C4 14.177 5.131 14.05 6.098 15.105C6.273 15.296 9 18.323 9 18.323L9 18.323Z" id="Shape" fill="url(#gradient_4)" stroke="none" />
    <g id="svg" clip-path="url(#clip_2)" transform="translate(17.999908 15.999878)">
      <path d="M0 0L27.0001 0L27.0001 30L0 30L0 0Z" id="svg" fill="none" fill-rule="evenodd" stroke="none" />
      <path d="M12.7206 0.204107C13.203 -0.0680357 13.797 -0.0680357 14.2788 0.204107C16.6626 1.54911 23.8361 5.59768 26.2206 6.94268C26.703 7.21414 27 7.717 27 8.26129C27 10.9513 27 19.0477 27 21.7376C27 22.2819 26.703 22.7849 26.2206 23.0569C23.8368 24.402 16.6633 28.4505 14.2788 29.7955C13.7963 30.0676 13.2023 30.0676 12.7206 29.7955C10.3367 28.4505 3.16327 24.402 0.778738 23.0569C0.297 22.7849 0 22.2826 0 21.7384C0 19.0484 0 10.9519 0 8.26193C0 7.71764 0.297 7.21479 0.779448 6.94268C3.16256 5.59768 10.3375 1.54911 12.7206 0.204107L12.7206 0.204107L12.7206 0.204107Z" id="Shape" fill="#6B1578" fill-rule="evenodd" stroke="none" />
      <path d="M0.216 22.4313C0.0270001 22.177 0 21.9356 0 21.6106C0 18.9363 0 10.8863 0 8.21127C0 7.66984 0.29629 7.16984 0.777317 6.89983C3.15261 5.56269 10.3019 1.53769 12.6772 0.199835C13.1583 -0.0708792 13.8098 -0.065165 14.2908 0.205549C16.6661 1.54269 23.7913 5.5334 26.1666 6.87055C26.3584 6.97912 26.5048 7.10983 26.6355 7.28198L0.216 22.4313L0.216 22.4313L0.216 22.4313Z" id="Shape#1" fill="#9A4A93" fill-rule="evenodd" stroke="none" />
      <path d="M13.4989 4.99988C18.9886 4.99988 23.4452 9.48083 23.4452 15.0003C23.4452 20.5199 18.9886 25.0008 13.4989 25.0008C8.00928 25.0008 3.55263 20.5199 3.55263 15.0003C3.55263 9.48083 8.00928 4.99988 13.4989 4.99988L13.4989 4.99988L13.4989 4.99988ZM13.4995 9.99988C16.2439 9.99988 18.4726 12.2397 18.4726 14.9995C18.4726 17.7586 16.2439 19.9991 13.4995 19.9991C10.755 19.9991 8.52631 17.7586 8.52631 14.9995C8.52631 12.2397 10.7543 9.99988 13.4995 9.99988L13.4995 9.99988L13.4995 9.99988Z" id="Shape#2" fill="#FFFFFF" fill-rule="evenodd" stroke="none" />
      <path d="M26.6341 7.28906C27.0007 7.63406 26.9936 8.15406 26.9936 8.56335C26.9936 11.2741 26.9709 18.9841 27 21.6948C27.0029 21.9776 26.9098 22.2755 26.7705 22.4998L13.2108 14.9998L26.6341 7.28906L26.6341 7.28906L26.6341 7.28906Z" id="Shape#3" fill="#823084" fill-rule="evenodd" stroke="none" />
      <path d="M23.4469 12.1426L23.4469 13.571L24.8678 13.571L24.8678 14.2853L23.4469 14.2853L23.4469 15.7137L24.8678 15.7137L24.8678 16.428L23.4469 16.428L23.4469 17.8564L22.7364 17.8564L22.7364 16.428L21.3155 16.428L21.3155 17.8564L20.6051 17.8564L20.6051 16.428L19.1842 16.428L19.1842 15.7137L20.6051 15.7137L20.6051 14.2853L19.1842 14.2853L19.1842 13.571L20.6051 13.571L20.6051 12.1426L21.3155 12.1426L21.3155 13.571L22.7364 13.571L22.7364 12.1426L23.4469 12.1426M21.3158 15.7142L22.7367 15.7142L22.7367 14.2855L21.3158 14.2855L21.3158 15.7142M24.1573 11.4283L23.4468 11.4283L22.7364 11.4283L22.0259 11.4283L21.3155 11.4283L20.605 11.4283L19.8946 11.4283L19.8946 12.1427L19.8946 12.857L19.1841 12.857L18.4737 12.857L18.4737 13.5713L18.4737 14.2856L18.4737 14.9999L18.4737 15.7142L18.4737 16.4286L18.4737 17.1429L19.1841 17.1429L19.8946 17.1429L19.8946 17.8572L19.8946 18.5715L20.605 18.5715L21.3155 18.5715L22.0259 18.5715L22.0259 17.8572L22.0259 17.1429L22.0259 17.8572L22.0259 18.5715L22.7364 18.5715L23.4468 18.5715L24.1573 18.5715L24.1573 17.8572L24.1573 17.1429L24.8677 17.1429L25.5782 17.1429L25.5782 16.4286L25.5782 15.7142L25.5782 14.9999L24.8677 14.9999L24.1573 14.9999L24.8677 14.9999L25.5782 14.9999L25.5782 14.2856L25.5782 13.5713L25.5782 12.857L24.8677 12.857L24.1573 12.857L24.1573 12.1427L24.1573 11.4283L24.1573 11.4283L24.1573 11.4283L24.1573 11.4283Z" id="Shape#4" fill="#000000" fill-opacity="0.050980393" fill-rule="evenodd" stroke="none" />
      <path d="M23.4469 12.1426L23.4469 13.571L24.8678 13.571L24.8678 14.2853L23.4469 14.2853L23.4469 15.7137L24.8678 15.7137L24.8678 16.428L23.4469 16.428L23.4469 17.8564L22.7365 17.8564L22.7365 16.428L21.3156 16.428L21.3156 17.8564L20.6051 17.8564L20.6051 16.428L19.1842 16.428L19.1842 15.7137L20.6051 15.7137L20.6051 14.2853L19.1842 14.2853L19.1842 13.571L20.6051 13.571L20.6051 12.1426L21.3156 12.1426L21.3156 13.571L22.7365 13.571L22.7365 12.1426L23.4469 12.1426M21.3158 15.7142L22.7367 15.7142L22.7367 14.2855L21.3158 14.2855L21.3158 15.7142M23.8022 11.7856L23.4469 11.7856L22.7365 11.7856L22.3813 11.7856L22.3813 12.1428L22.3813 13.2141L21.6708 13.2141L21.6708 12.1428L21.6708 11.7856L21.3156 11.7856L20.6051 11.7856L20.2499 11.7856L20.2499 12.1428L20.2499 13.2141L19.1842 13.2141L18.829 13.2141L18.829 13.5712L18.829 14.2855L18.829 14.6426L19.1842 14.6426L20.2499 14.6426L20.2499 15.3568L19.1842 15.3568L18.829 15.3568L18.829 15.7139L18.829 16.4282L18.829 16.7853L19.1842 16.7853L20.2499 16.7853L20.2499 17.8566L20.2499 18.2137L20.6051 18.2137L21.3156 18.2137L21.6708 18.2137L21.6708 17.8566L21.6708 16.7853L22.3813 16.7853L22.3813 17.8566L22.3813 18.2137L22.7365 18.2137L23.4469 18.2137L23.8022 18.2137L23.8022 17.8566L23.8022 16.7853L24.8678 16.7853L25.2231 16.7853L25.2231 16.4282L25.2231 15.7139L25.2231 15.3568L24.8678 15.3568L23.8022 15.3568L23.8022 14.6426L24.8678 14.6426L25.2231 14.6426L25.2231 14.2855L25.2231 13.5712L25.2231 13.2141L24.8678 13.2141L23.8022 13.2141L23.8022 12.1428L23.8022 11.7856L23.8022 11.7856L23.8022 11.7856L23.8022 11.7856ZM21.6711 14.6427L22.3816 14.6427L22.3816 15.357L21.6711 15.357L21.6711 14.6427L21.6711 14.6427L21.6711 14.6427L21.6711 14.6427Z" id="Shape#5" fill="#000000" fill-opacity="0.07058824" fill-rule="evenodd" stroke="none" />
      <path d="M24.8678 14.2853L24.8678 13.571L23.4469 13.571L23.4469 12.1426L22.7365 12.1426L22.7365 13.571L21.3155 13.571L21.3155 12.1426L20.6051 12.1426L20.6051 13.571L19.1842 13.571L19.1842 14.2853L20.6051 14.2853L20.6051 15.7137L19.1842 15.7137L19.1842 16.428L20.6051 16.428L20.6051 17.8564L21.3155 17.8564L21.3155 16.428L22.7365 16.428L22.7365 17.8564L23.4469 17.8564L23.4469 16.428L24.8678 16.428L24.8678 15.7137L23.4469 15.7137L23.4469 14.2853L24.8678 14.2853L24.8678 14.2853L24.8678 14.2853ZM22.7367 15.7142L21.3158 15.7142L21.3158 14.2855L22.7367 14.2855L22.7367 15.7142L22.7367 15.7142L22.7367 15.7142Z" id="Shape#6" fill="#FFFFFF" fill-rule="evenodd" stroke="none" />
      <g id="Group" transform="translate(2.8421173 4.2858887)">
        <path d="M10.6579 0.714355C14.3015 0.714355 17.4804 2.69364 19.2134 5.63364L14.8983 8.11221C14.0237 6.6765 12.4534 5.71436 10.6579 5.71436C7.91243 5.71436 5.68422 7.95436 5.68422 10.7144C5.68422 13.4736 7.91314 15.7144 10.6579 15.7144C12.484 15.7144 14.077 14.7201 14.9417 13.2436L19.2986 15.6536C17.5855 18.6729 14.3598 20.7144 10.6579 20.7144C5.16766 20.7144 0.710526 16.2336 0.710526 10.7144C0.710526 5.19507 5.16766 0.714355 10.6579 0.714355M10.6579 0C4.78114 0 0 4.80643 0 10.7143C0 16.6221 4.78114 21.4286 10.6579 21.4286C14.4713 21.4286 18.019 19.3514 19.9161 16.0071L20.2735 15.3771L19.6411 15.0271L15.2841 12.6171L14.6795 12.2829L14.3292 12.8807C13.564 14.1879 12.1571 15 10.6579 15C8.30748 15 6.39474 13.0771 6.39474 10.7143C6.39474 8.35143 8.30748 6.42857 10.6579 6.42857C12.1493 6.42857 13.5078 7.19714 14.2923 8.485L14.6525 9.07643L15.2508 8.73286L19.5658 6.25429L20.1925 5.89429L19.8244 5.27C17.9088 2.01929 14.3967 0 10.6579 0L10.6579 0L10.6579 0L10.6579 0Z" id="Shape#7" fill="#000000" fill-opacity="0.050980393" fill-rule="evenodd" stroke="none" />
        <path d="M10.6579 0.714355C14.3015 0.714355 17.4804 2.69364 19.2134 5.63364L14.8983 8.11221C14.0237 6.6765 12.4534 5.71436 10.6579 5.71436C7.91244 5.71436 5.68423 7.95436 5.68423 10.7144C5.68423 13.4736 7.91315 15.7144 10.6579 15.7144C12.484 15.7144 14.077 14.7201 14.9417 13.2436L19.2986 15.6536C17.5856 18.6729 14.3598 20.7144 10.6579 20.7144C5.16768 20.7144 0.710541 16.2336 0.710541 10.7144C0.710541 5.19507 5.16768 0.714355 10.6579 0.714355M10.6579 0.357178C4.97725 0.357178 0.35527 5.00361 0.35527 10.7143C0.35527 16.425 4.97725 21.0715 10.6579 21.0715C14.3441 21.0715 17.7731 19.0629 19.607 15.8307L19.7861 15.5157L19.4699 15.3407L15.1129 12.9307L14.8109 12.7636L14.6362 13.0622C13.8063 14.4779 12.2822 15.3572 10.6579 15.3572C8.11138 15.3572 6.03949 13.2743 6.03949 10.7143C6.03949 8.15432 8.11138 6.07146 10.6579 6.07146C12.2744 6.07146 13.7459 6.90432 14.5957 8.29861L14.7754 8.59432L15.0745 8.42218L19.3896 5.94361L19.7029 5.76361L19.5189 5.45146C17.6666 2.30932 14.2717 0.357178 10.6579 0.357178L10.6579 0.357178L10.6579 0.357178L10.6579 0.357178Z" id="Shape#8" fill="#000000" fill-opacity="0.07058824" fill-rule="evenodd" stroke="none" />
      </g>
    </g>
  </g>
</svg>