<?xml version="1.0" encoding="utf-8"?>
<svg width="49px" height="49px" viewBox="0 0 49 49" version="1.1" xmlns:xlink="http://www.w3.org/1999/xlink" xmlns="http://www.w3.org/2000/svg">
	<defs>
		<linearGradient x1="0.048090935" y1="0.952" x2="0.5090909" y2="0.49090907" id="gradient_1">
			<stop offset="0" stop-color="#3079D6" />
			<stop offset="1" stop-color="#297CD2" />
		</linearGradient>
		<linearGradient x1="0.4999919" y1="-0.007848829" x2="0.4999919" y2="1.0121732" id="gradient_2">
			<stop offset="0" stop-color="#C391F7" />
			<stop offset="1" stop-color="#B579F4" />
		</linearGradient>
		<linearGradient x1="0.019933343" y1="1.0682704" x2="1.1306667" y2="0.017020166" id="gradient_3">
			<stop offset="0.019" stop-color="#742FB6" />
			<stop offset="0.32" stop-color="#702DB5" />
			<stop offset="0.36399996" stop-color="#5D2596" />
			<stop offset="0.38" stop-color="#5D2596" />
			<stop offset="0.48" stop-color="#5D2596" />
			<stop offset="0.48499998" stop-color="#60279A" />
			<stop offset="0.517" stop-color="#6F2DAB" />
			<stop offset="0.556" stop-color="#7932B6" />
			<stop offset="0.61" stop-color="#7E34BD" />
			<stop offset="0.762" stop-color="#8035BF" />
			<stop offset="0.806" stop-color="#7D34BB" />
			<stop offset="0.85099995" stop-color="#7530AE" />
			<stop offset="0.897" stop-color="#66299A" />
			<stop offset="0.943" stop-color="#52207D" />
			<stop offset="0.963" stop-color="#481B6E" />
		</linearGradient>
		<linearGradient x1="0.013500005" y1="0.42334202" x2="1.0628668" y2="0.5716522" id="gradient_4">
			<stop offset="0.002" stop-color="#9C55D4" />
			<stop offset="0.003" stop-color="#9C55D4" />
			<stop offset="0.337" stop-color="#9751D2" />
			<stop offset="0.73699987" stop-color="#8847CB" />
			<stop offset="0.84799993" stop-color="#8343C8" />
			<stop offset="0.89" stop-color="#8042C3" />
			<stop offset="0.938" stop-color="#773DB6" />
			<stop offset="0.98799986" stop-color="#68369F" />
			<stop offset="1" stop-color="#643499" />
		</linearGradient>
		<linearGradient x1="0.50000006" y1="1.0237606" x2="0.50000006" y2="0.021003902" id="gradient_5">
			<stop offset="0" stop-color="#5C1D9C" />
			<stop offset="1" stop-color="#561B90" />
		</linearGradient>
		<path d="M0 0L48 0L48 49L0 49L0 0Z" id="path_1" />
		<path d="M0 0L48 0L48 48L0 48L0 0L0 0Z" id="path_2" />
		<path d="M0 0L25 0L25 25L0 25L0 0L0 0Z" id="path_3" />
		<path d="M0 0L26.449 0L26.449 27L0 27L0 0Z" id="path_4" />
		<path d="M0 0L26.449 0L26.449 26.449L0 26.449L0 0L0 0Z" id="path_5" />
		<path d="M0 0L13.7755 0L13.7755 13.7755L0 13.7755L0 0L0 0Z" id="path_6" />
		<clipPath id="mask_1">
			<use xlink:href="#path_1" />
		</clipPath>
		<clipPath id="mask_2">
			<use xlink:href="#path_2" />
		</clipPath>
		<clipPath id="mask_3">
			<use xlink:href="#path_3" />
		</clipPath>
		<clipPath id="mask_4">
			<use xlink:href="#path_4" />
		</clipPath>
		<clipPath id="mask_5">
			<use xlink:href="#path_5" />
		</clipPath>
		<clipPath id="mask_6">
			<use xlink:href="#path_6" />
		</clipPath>
	</defs>
	<g id="svg-2">
		<path d="M0 0L48 0L48 49L0 49L0 0Z" id="Background" fill="none" fill-rule="evenodd" stroke="none" />
		<g clip-path="url(#mask_1)">
			<g id="icons8_file_2">
				<path d="M0 0L48 0L48 48L0 48L0 0L0 0Z" id="Background" fill="none" fill-rule="evenodd" stroke="none" />
				<g id="Mask-group">
					<path d="M0 0L48 0L48 48L0 48L0 0L0 0Z" id="path_1" fill="none" fill-rule="evenodd" stroke="none" />
					<g clip-path="url(#mask_2)">
						<g id="Group" transform="translate(9 5)">
							<path d="M30 11L30 36C30 37.105 29.105 38 28 38L2 38C0.895001 38 0 37.105 0 36L0 2C0 0.895 0.895001 0 2 0L19 0L30 11L30 11L30 11Z" id="Shape" fill="#50E6FF" fill-rule="evenodd" stroke="none" />
							<path d="M0 0L0 9C0 10.105 0.895 11 2 11L11 11L0 0L0 0L0 0Z" transform="translate(19 0)" id="Shape#1" fill="url(#gradient_1)" fill-rule="evenodd" stroke="none" />
						</g>
					</g>
				</g>
			</g>
			<g id="icons8_visual_studio_2019" transform="translate(11.361206 16.645508)">
				<path d="M0 0L25 0L25 25L0 25L0 0L0 0Z" id="Background#1" fill="none" fill-rule="evenodd" stroke="none" />
				<g id="Mask-group">
					<path d="M0 0L25 0L25 25L0 25L0 0L0 0Z" id="path_2" fill="none" fill-rule="evenodd" stroke="none" />
					<g clip-path="url(#mask_3)">
						<g id="Group" transform="translate(2.0833435 2.0802002)">
							<path d="M6.59156 3.5349L6.59156 17.2865C6.59156 17.8839 6.25145 18.4286 5.71447 18.6906C4.49156 19.2865 2.38531 20.312 2.0426 20.4682C1.5551 20.6911 1.24885 20.8365 0.866037 20.8365C0.483225 20.8365 0.230099 20.587 0.0540581 20.401C-0.121984 20.2146 1.38322 15.1073 1.38322 15.1073L1.38322 1.16458C1.38322 1.16458 -0.274067 0.817707 0.0394745 0.468229C0.353537 0.11875 0.616037 0 0.94364 0C1.32124 0 1.62645 0.168228 1.9702 0.333855C2.21395 0.451042 4.43478 1.51667 5.70666 2.12708C6.24885 2.38698 6.59156 2.93385 6.59156 3.5349L6.59156 3.5349L6.59156 3.5349Z" transform="translate(14.24176 0)" id="Shape#2" fill="url(#gradient_2)" fill-rule="evenodd" stroke="none" />
							<path d="M0 14.4258C0 15.4299 0.135938 15.5789 1.11146 16.0029C1.86979 16.3325 2.17188 16.5091 2.37448 16.5091C2.61875 16.5091 2.84844 16.3409 3.06562 16.1633C3.28281 15.9857 15.625 5.84505 15.625 5.84505L15.625 0.647654C15.625 0.0236969 14.7531 -0.225262 14.3401 0.242447C14.3401 0.242447 1.42813 14.5815 1.04167 14.9529C0.655208 15.3242 0.920313 13.9669 0 14.4258L0 14.4258L0 14.4258Z" transform="translate(0 0.16067505)" id="Shape#3" fill="url(#gradient_3)" fill-rule="evenodd" stroke="none" />
							<path d="M0.322917 0.875521C0.488021 0.796354 1.85104 0.186979 2.01875 0.113541C2.21562 0.0276051 2.28646 0 2.43177 0C2.59219 0 2.70156 0.0609379 2.95313 0.267708C3.30469 0.55625 15.625 10.6682 15.625 10.6682L15.625 15.751C15.625 16.6234 14.7167 16.713 14.2042 16.137C13.8406 15.7286 1.24427 1.78854 1.24427 1.78854C1.24427 1.78854 0 2.41719 0 1.86823C0 1.12813 0.14375 0.961979 0.322917 0.875521L0.322917 0.875521L0.322917 0.875521Z" transform="translate(0 4.1698)" id="Shape#4" fill="url(#gradient_4)" fill-rule="evenodd" stroke="none" />
							<path d="M2.60417 2.0466L2.60417 7.99035C2.60417 7.99035 1.18229 9.55233 0.864583 9.89608C0.582292 10.2018 0 10.106 0 9.24712L0 0.53879C0 -0.112774 0.589063 -0.178919 1.09271 0.370562C1.18385 0.470039 2.60417 2.0466 2.60417 2.0466L2.60417 2.0466L2.60417 2.0466Z" transform="translate(0 5.4164124)" id="Shape#5" fill="url(#gradient_5)" fill-rule="evenodd" stroke="none" />
						</g>
					</g>
				</g>
			</g>
		</g>
	</g>
	<g id="svg" transform="translate(15.583542 18.029053)">
		<path d="M0 0L26.449 0L26.449 27L0 27L0 0Z" id="Background" fill="none" fill-rule="evenodd" stroke="none" />
		<g clip-path="url(#mask_4)">
			<g id="icons8_file_2">
				<path d="M0 0L26.449 0L26.449 26.449L0 26.449L0 0L0 0Z" id="Background" fill="none" fill-rule="evenodd" stroke="none" />
				<g id="Mask-group">
					<path d="M0 0L26.449 0L26.449 26.449L0 26.449L0 0L0 0Z" id="path_1" fill="none" fill-rule="evenodd" stroke="none" />
				</g>
			</g>
			<g id="icons8_c_sharp_logo_3" transform="translate(6.425812 9.172028)">
				<path d="M0 0L13.7755 0L13.7755 13.7755L0 13.7755L0 0L0 0Z" id="Background#1" fill="none" fill-rule="evenodd" stroke="none" />
				<g id="Mask-group">
					<path d="M0 0L13.7755 0L13.7755 13.7755L0 13.7755L0 0L0 0Z" id="path_2" fill="none" fill-rule="evenodd" stroke="none" />
					<g clip-path="url(#mask_6)">
						<g id="Group" transform="translate(1.434967 0.8609009)">
							<path d="M5.13798 0.0820075C5.33285 -0.0273362 5.57274 -0.0273362 5.76736 0.0820075C6.73022 0.622411 9.62765 2.24907 10.5908 2.78947C10.7857 2.89853 10.9056 3.10056 10.9056 3.31925C10.9056 4.40006 10.9056 7.65307 10.9056 8.73389C10.9056 8.95259 10.7857 9.1546 10.5908 9.26398C9.62792 9.80436 6.73049 11.431 5.76736 11.9714C5.57247 12.0807 5.33256 12.0807 5.13798 11.9714C4.17513 11.431 1.27768 9.80436 0.314541 9.26398C0.119961 9.1546 0 8.95287 0 8.73417C0 7.6534 0 4.40034 0 3.31954C0 3.10085 0.119961 2.89881 0.314828 2.78947C1.27739 2.24907 4.17541 0.622411 5.13798 0.0820075L5.13798 0.0820075L5.13798 0.0820075Z" transform="translate(0 0.00012207031)" id="Shape#2" fill="#6B1578" fill-rule="evenodd" stroke="none" />
							<path d="M0.0872446 9.01271C0.0109056 8.91055 0 8.81352 0 8.68298C0 7.60849 0 4.37409 0 3.29932C0 3.08177 0.119674 2.88088 0.313967 2.7724C1.27337 2.23516 4.16106 0.617969 5.12047 0.0804384C5.31476 -0.0283315 5.57792 -0.0260351 5.77221 0.0827338C6.73165 0.619981 9.60958 2.22339 10.569 2.76063C10.6465 2.80426 10.7056 2.85678 10.7584 2.92594L0.0872446 9.01271L0.0872446 9.01271L0.0872446 9.01271Z" id="Shape#3" fill="#9A4A93" fill-rule="evenodd" stroke="none" />
							<path d="M4.01786 0C6.2354 0 8.03569 1.80029 8.03569 4.01786C8.03569 6.2354 6.2354 8.03569 4.01786 8.03569C1.80029 8.03569 0 6.2354 0 4.01786C0 1.80029 1.80029 0 4.01786 0L4.01786 0L4.01786 0ZM4.01787 2.00894C5.12651 2.00894 6.0268 2.90894 6.0268 4.01787C6.0268 5.12651 5.12651 6.0268 4.01787 6.0268C2.90923 6.0268 2.00894 5.12651 2.00894 4.01787C2.00894 2.90894 2.90894 2.00894 4.01787 2.00894L4.01787 2.00894L4.01787 2.00894Z" transform="translate(1.4349365 2.0090027)" id="Shape#4" fill="#FFFFFF" fill-rule="evenodd" stroke="none" />
							<path d="M5.42181 0C5.56988 0.138616 5.56701 0.347545 5.56701 0.51199C5.56701 1.60112 5.55787 4.69888 5.5696 5.78803C5.57076 5.90165 5.53318 6.02133 5.47691 6.11142L0 3.09806L5.42181 0L5.42181 0L5.42181 0Z" transform="translate(5.3359985 2.9288025)" id="Shape#5" fill="#823084" fill-rule="evenodd" stroke="none" />
							<path d="M0 0L0.55102 0L0.55102 2.29592L0 2.29592L0 0L0 0ZM0.860962 0L1.41198 0L1.41198 2.29592L0.860962 2.29592L0.860962 0L0.860962 0Z" transform="translate(8.322693 4.8789062)" id="Shape#6" fill="#FFFFFF" fill-rule="evenodd" stroke="none" />
							<path d="M0 0.860962L2.29592 0.860962L2.29592 1.41198L0 1.41198L0 0.860962L0 0.860962ZM0 0L2.29592 0L2.29592 0.55102L0 0.55102L0 0L0 0Z" transform="translate(7.7487183 5.452881)" id="Shape#7" fill="#FFFFFF" fill-rule="evenodd" stroke="none" />
						</g>
					</g>
				</g>
			</g>
		</g>
	</g>
</svg>