<?xml version="1.0" encoding="utf-8"?>
<svg width="48px" height="48px" viewBox="0 0 48 48" version="1.1" xmlns:xlink="http://www.w3.org/1999/xlink" xmlns="http://www.w3.org/2000/svg">
  <defs>
    <linearGradient gradientUnits="userSpaceOnUse" x1="6.3277926" y1="-0.31400025" x2="6.3277926" y2="40.493" id="gradient_1">
      <stop offset="0%" stop-color="#C391F7" />
      <stop offset="100%" stop-color="#B579F4" />
    </linearGradient>
    <linearGradient gradientUnits="userSpaceOnUse" x1="0.5980003" y1="33.8615" x2="33.920002" y2="0.53949666" id="gradient_2">
      <stop offset="1.9%" stop-color="#742FB6" />
      <stop offset="32%" stop-color="#702DB5" />
      <stop offset="36.399998%" stop-color="#5D2596" />
      <stop offset="38%" stop-color="#5D2596" />
      <stop offset="48%" stop-color="#5D2596" />
      <stop offset="48.5%" stop-color="#60279A" />
      <stop offset="51.7%" stop-color="#6F2DAB" />
      <stop offset="55.6%" stop-color="#7932B6" />
      <stop offset="61%" stop-color="#7E34BD" />
      <stop offset="76.200005%" stop-color="#8035BF" />
      <stop offset="80.6%" stop-color="#7D34BB" />
      <stop offset="85.1%" stop-color="#7530AE" />
      <stop offset="89.700005%" stop-color="#66299A" />
      <stop offset="94.3%" stop-color="#52207D" />
      <stop offset="96.3%" stop-color="#481B6E" />
    </linearGradient>
    <linearGradient gradientUnits="userSpaceOnUse" x1="0.40500015" y1="13.413" x2="31.886003" y2="18.112" id="gradient_3">
      <stop offset="0.2%" stop-color="#9C55D4" />
      <stop offset="0.3%" stop-color="#9C55D4" />
      <stop offset="33.7%" stop-color="#9751D2" />
      <stop offset="73.69999%" stop-color="#8847CB" />
      <stop offset="84.799995%" stop-color="#8343C8" />
      <stop offset="89%" stop-color="#8042C3" />
      <stop offset="93.8%" stop-color="#773DB6" />
      <stop offset="98.79999%" stop-color="#68369F" />
      <stop offset="100%" stop-color="#643499" />
    </linearGradient>
    <linearGradient gradientUnits="userSpaceOnUse" x1="2.5000002" y1="19.76348" x2="2.5000002" y2="0.40547585" id="gradient_4">
      <stop offset="0%" stop-color="#5C1D9C" />
      <stop offset="100%" stop-color="#561B90" />
    </linearGradient>
    <path d="M0 0L48 0L48 48L0 48L0 0Z" id="path_1" />
    <path d="M0 0L33 0L33 33L0 33L0 0L0 0Z" id="path_2" />
    <clipPath id="mask_1">
      <use xlink:href="#path_1" />
    </clipPath>
    <clipPath id="mask_2">
      <use xlink:href="#path_2" />
    </clipPath>
  </defs>
  <g id="Visual-Studio-Icon-2">
    <path d="M0 0L48 0L48 48L0 48L0 0Z" id="Background" fill="#FFFFFF" fill-opacity="0" fill-rule="evenodd" stroke="none" />
    <g clip-path="url(#mask_1)">
      <path d="M44 10.781L44 37.184C44 38.331 43.347 39.377 42.316 39.88C39.968 41.024 35.924 42.993 35.266 43.293C34.33 43.721 33.742 44 33.007 44C32.272 44 31.786 43.521 31.448 43.164C31.11 42.806 34 33 34 33L34 6.23C34 6.23 30.818 5.564 31.42 4.893C32.023 4.222 32.527 3.994 33.156 3.994C33.881 3.994 34.467 4.317 35.127 4.635C35.595 4.86 39.859 6.906 42.301 8.078C43.342 8.577 44 9.627 44 10.781L44 10.781Z" id="Shape" fill="url(#gradient_1)" fill-rule="evenodd" stroke="none" />
      <path d="M4 32C4 33.928 4.261 34.214 6.134 35.028C7.59 35.661 8.17 36 8.559 36C9.028 36 9.469 35.677 9.886 35.336C10.303 34.995 34 15.525 34 15.525L34 5.546C34 4.348 32.326 3.87 31.533 4.768C31.533 4.768 6.742 32.299 6 33.012C5.258 33.725 5.767 31.119 4 32L4 32Z" id="Shape" fill="url(#gradient_2)" fill-rule="evenodd" stroke="none" />
      <path d="M4.62 13.681C4.937 13.529 7.554 12.359 7.876 12.218C8.254 12.053 8.39 12 8.669 12C8.977 12 9.187 12.117 9.67 12.514C10.345 13.068 34 32.483 34 32.483L34 42.242C34 43.917 32.256 44.089 31.272 42.983C30.574 42.199 6.389 15.434 6.389 15.434C6.389 15.434 4 16.641 4 15.587C4 14.166 4.276 13.847 4.62 13.681L4.62 13.681Z" id="Shape" fill="url(#gradient_3)" fill-rule="evenodd" stroke="none" />
      <path d="M9 18.323L9 29.735C9 29.735 6.27 32.734 5.66 33.394C5.118 33.981 4 33.797 4 32.148L4 15.428C4 14.177 5.131 14.05 6.098 15.105C6.273 15.296 9 18.323 9 18.323L9 18.323Z" id="Shape" fill="url(#gradient_4)" fill-rule="evenodd" stroke="none" />
    </g>
  </g>
  <g id="svg" transform="translate(15 15)">
    <g id="C-Sharp-Logo-Icon">
      <path d="M0 0L33 0L33 33L0 33L0 0L0 0Z" id="Background" fill="#FFFFFF" fill-opacity="0" fill-rule="evenodd" stroke="none" />
      <g id="Mask-Group">
        <path d="M0 0L33 0L33 33L0 33L0 0L0 0Z" id="path_1" fill="none" fill-rule="evenodd" stroke="none" />
        <g clip-path="url(#mask_2)">
          <g id="Group" transform="translate(3.4374952 2.062313)">
            <path d="M12.3083 0.196827C12.7751 -0.0651102 13.3499 -0.0651102 13.816 0.196827C16.1226 1.49139 23.0636 5.38814 25.3708 6.6827C25.8376 6.94395 26.125 7.42795 26.125 7.95183C26.125 10.541 26.125 18.3338 26.125 20.9229C26.125 21.4468 25.8376 21.9308 25.3708 22.1927C23.0642 23.4873 16.1232 27.384 13.816 28.6786C13.3492 28.9405 12.7744 28.9405 12.3083 28.6786C10.0017 27.384 3.06075 23.4873 0.7535 22.1927C0.287375 21.9308 0 21.4475 0 20.9236C0 18.3345 0 10.5416 0 7.95251C0 7.42864 0.287375 6.94464 0.754188 6.6827C3.06006 5.38814 10.0024 1.49139 12.3083 0.196827L12.3083 0.196827L12.3083 0.196827Z" id="Shape" fill="#6B1578" fill-rule="evenodd" stroke="none" />
            <path d="M0.209 21.5904C0.0261251 21.3457 0 21.1133 0 20.8005C0 18.2265 0 10.4784 0 7.90369C0 7.38257 0.286687 6.90132 0.752125 6.64144C3.05044 5.35444 9.96806 1.48038 12.2664 0.192694C12.7318 -0.0678687 13.3623 -0.0623688 13.8277 0.198194C16.126 1.48519 23.0203 5.32626 25.3186 6.61326C25.5042 6.71776 25.6458 6.84357 25.7723 7.00926L0.209 21.5904L0.209 21.5904L0.209 21.5904Z" id="Shape#1" fill="#9A4A93" fill-rule="evenodd" stroke="none" />
            <path d="M13.0625 4.81268C18.3748 4.81268 22.6875 9.12537 22.6875 14.4377C22.6875 19.75 18.3748 24.0627 13.0625 24.0627C7.75018 24.0627 3.4375 19.75 3.4375 14.4377C3.4375 9.12537 7.75018 4.81268 13.0625 4.81268L13.0625 4.81268L13.0625 4.81268ZM13.0625 9.62518C15.7183 9.62518 17.875 11.7812 17.875 14.4377C17.875 17.0935 15.7183 19.2502 13.0625 19.2502C10.4067 19.2502 8.25 17.0935 8.25 14.4377C8.25 11.7812 10.406 9.62518 13.0625 9.62518L13.0625 9.62518L13.0625 9.62518Z" id="Shape#2" fill="#FFFFFF" fill-rule="evenodd" stroke="none" />
            <path d="M25.7709 7.01613C26.1257 7.34819 26.1188 7.84869 26.1188 8.24263C26.1188 10.8517 26.0968 18.2726 26.125 20.8816C26.1277 21.1539 26.0377 21.4406 25.9029 21.6564L12.7827 14.4377L25.7709 7.01613L25.7709 7.01613L25.7709 7.01613Z" id="Shape#3" fill="#823084" fill-rule="evenodd" stroke="none" />
            <path d="M22.6875 11.6877L22.6875 13.0627L24.0625 13.0627L24.0625 13.7502L22.6875 13.7502L22.6875 15.1252L24.0625 15.1252L24.0625 15.8127L22.6875 15.8127L22.6875 17.1877L22 17.1877L22 15.8127L20.625 15.8127L20.625 17.1877L19.9375 17.1877L19.9375 15.8127L18.5625 15.8127L18.5625 15.1252L19.9375 15.1252L19.9375 13.7502L18.5625 13.7502L18.5625 13.0627L19.9375 13.0627L19.9375 11.6877L20.625 11.6877L20.625 13.0627L22 13.0627L22 11.6877L22.6875 11.6877M20.625 15.1252L22 15.1252L22 13.7502L20.625 13.7502L20.625 15.1252M23.375 11.0002L22.6875 11.0002L22 11.0002L21.3125 11.0002L20.625 11.0002L19.9375 11.0002L19.25 11.0002L19.25 11.6877L19.25 12.3752L18.5625 12.3752L17.875 12.3752L17.875 13.0627L17.875 13.7502L17.875 14.4377L17.875 15.1252L17.875 15.8127L17.875 16.5002L18.5625 16.5002L19.25 16.5002L19.25 17.1877L19.25 17.8752L19.9375 17.8752L20.625 17.8752L21.3125 17.8752L21.3125 17.1877L21.3125 16.5002L21.3125 17.1877L21.3125 17.8752L22 17.8752L22.6875 17.8752L23.375 17.8752L23.375 17.1877L23.375 16.5002L24.0625 16.5002L24.75 16.5002L24.75 15.8127L24.75 15.1252L24.75 14.4377L24.0625 14.4377L23.375 14.4377L24.0625 14.4377L24.75 14.4377L24.75 13.7502L24.75 13.0627L24.75 12.3752L24.0625 12.3752L23.375 12.3752L23.375 11.6877L23.375 11.0002L23.375 11.0002L23.375 11.0002L23.375 11.0002Z" id="Shape#4" fill="#6B1578" fill-opacity="0.050980393" fill-rule="evenodd" stroke="none" />
            <path d="M22.6875 11.6877L22.6875 13.0627L24.0625 13.0627L24.0625 13.7502L22.6875 13.7502L22.6875 15.1252L24.0625 15.1252L24.0625 15.8127L22.6875 15.8127L22.6875 17.1877L22 17.1877L22 15.8127L20.625 15.8127L20.625 17.1877L19.9375 17.1877L19.9375 15.8127L18.5625 15.8127L18.5625 15.1252L19.9375 15.1252L19.9375 13.7502L18.5625 13.7502L18.5625 13.0627L19.9375 13.0627L19.9375 11.6877L20.625 11.6877L20.625 13.0627L22 13.0627L22 11.6877L22.6875 11.6877M20.625 15.1252L22 15.1252L22 13.7502L20.625 13.7502L20.625 15.1252M23.0313 11.3439L22.6875 11.3439L22 11.3439L21.6563 11.3439L21.6563 11.6877L21.6563 12.7189L20.9688 12.7189L20.9688 11.6877L20.9688 11.3439L20.625 11.3439L19.9375 11.3439L19.5938 11.3439L19.5938 11.6877L19.5938 12.7189L18.5625 12.7189L18.2188 12.7189L18.2188 13.0627L18.2188 13.7502L18.2188 14.0939L18.5625 14.0939L19.5938 14.0939L19.5938 14.7814L18.5625 14.7814L18.2188 14.7814L18.2188 15.1252L18.2188 15.8127L18.2188 16.1564L18.5625 16.1564L19.5938 16.1564L19.5938 17.1877L19.5938 17.5314L19.9375 17.5314L20.625 17.5314L20.9688 17.5314L20.9688 17.1877L20.9688 16.1564L21.6563 16.1564L21.6563 17.1877L21.6563 17.5314L22 17.5314L22.6875 17.5314L23.0313 17.5314L23.0313 17.1877L23.0313 16.1564L24.0625 16.1564L24.4063 16.1564L24.4063 15.8127L24.4063 15.1252L24.4063 14.7814L24.0625 14.7814L23.0313 14.7814L23.0313 14.0939L24.0625 14.0939L24.4063 14.0939L24.4063 13.7502L24.4063 13.0627L24.4063 12.7189L24.0625 12.7189L23.0313 12.7189L23.0313 11.6877L23.0313 11.3439L23.0313 11.3439L23.0313 11.3439L23.0313 11.3439ZM20.9688 14.0939L21.6563 14.0939L21.6563 14.7814L20.9688 14.7814L20.9688 14.0939L20.9688 14.0939L20.9688 14.0939L20.9688 14.0939Z" id="Shape#5" fill="#6B1578" fill-opacity="0.07058824" fill-rule="evenodd" stroke="none" />
            <path d="M24.0625 13.7502L24.0625 13.0627L22.6875 13.0627L22.6875 11.6877L22 11.6877L22 13.0627L20.625 13.0627L20.625 11.6877L19.9375 11.6877L19.9375 13.0627L18.5625 13.0627L18.5625 13.7502L19.9375 13.7502L19.9375 15.1252L18.5625 15.1252L18.5625 15.8127L19.9375 15.8127L19.9375 17.1877L20.625 17.1877L20.625 15.8127L22 15.8127L22 17.1877L22.6875 17.1877L22.6875 15.8127L24.0625 15.8127L24.0625 15.1252L22.6875 15.1252L22.6875 13.7502L24.0625 13.7502L24.0625 13.7502L24.0625 13.7502ZM22 15.1252L20.625 15.1252L20.625 13.7502L22 13.7502L22 15.1252L22 15.1252L22 15.1252Z" id="Shape#6" fill="#FFFFFF" fill-rule="evenodd" stroke="none" />
            <g id="Group" transform="translate(2.7500048 4.125187)">
              <path d="M10.3125 0.687505C13.838 0.687505 16.9139 2.59257 18.5907 5.42232L14.4155 7.80794C13.5692 6.42607 12.0498 5.5 10.3125 5.5C7.656 5.5 5.5 7.656 5.5 10.3125C5.5 12.9683 7.65669 15.125 10.3125 15.125C12.0794 15.125 13.6208 14.168 14.4574 12.7469L18.6732 15.0666C17.0156 17.9726 13.8944 19.9375 10.3125 19.9375C5.00019 19.9375 0.687505 15.6248 0.687505 10.3125C0.687505 5.00019 5.00019 0.687505 10.3125 0.687505M10.3125 0C4.62619 0 0 4.62619 0 10.3125C0 15.9988 4.62619 20.625 10.3125 20.625C14.0023 20.625 17.435 18.6258 19.2706 15.4069L19.6164 14.8005L19.0046 14.4636L14.7888 12.144L14.2038 11.8222L13.8648 12.3977C13.1244 13.6558 11.7631 14.4375 10.3125 14.4375C8.03825 14.4375 6.1875 12.5868 6.1875 10.3125C6.1875 8.03825 8.03825 6.1875 10.3125 6.1875C11.7556 6.1875 13.0701 6.92725 13.8291 8.16681L14.1776 8.73606L14.7565 8.40538L18.9317 6.01975L19.5381 5.67325L19.1819 5.07238C17.3284 1.94356 13.9301 0 10.3125 0L10.3125 0L10.3125 0L10.3125 0Z" id="Shape#7" fill="#6B1578" fill-opacity="0.050980393" fill-rule="evenodd" stroke="none" />
              <path d="M10.3125 0.68749C13.838 0.68749 16.9139 2.59255 18.5907 5.4223L14.4155 7.80793C13.5692 6.42605 12.0498 5.49999 10.3125 5.49999C7.65599 5.49999 5.49999 7.65599 5.49999 10.3125C5.49999 12.9683 7.65668 15.125 10.3125 15.125C12.0794 15.125 13.6207 14.168 14.4574 12.7469L18.6732 15.0666C17.0156 17.9726 13.8944 19.9375 10.3125 19.9375C5.00018 19.9375 0.68749 15.6248 0.68749 10.3125C0.68749 5.00018 5.00018 0.68749 10.3125 0.68749M10.3125 0.343745C4.81593 0.343745 0.343745 4.81593 0.343745 10.3125C0.343745 15.8091 4.81593 20.2812 10.3125 20.2812C13.8792 20.2812 17.1971 18.348 18.9716 15.2371L19.1448 14.9339L18.8389 14.7654L14.6231 12.4458L14.3309 12.2849L14.1618 12.5723C13.3588 13.9349 11.8841 14.7812 10.3125 14.7812C7.84849 14.7812 5.84374 12.7765 5.84374 10.3125C5.84374 7.84849 7.84849 5.84374 10.3125 5.84374C11.8766 5.84374 13.3004 6.64537 14.1226 7.98737L14.2966 8.27199L14.586 8.10631L18.7612 5.72068L19.0644 5.54743L18.8863 5.24699C17.094 2.22268 13.8091 0.343745 10.3125 0.343745L10.3125 0.343745L10.3125 0.343745L10.3125 0.343745Z" id="Shape#8" fill="#6B1578" fill-opacity="0.07058824" fill-rule="evenodd" stroke="none" />
            </g>
          </g>
        </g>
      </g>
    </g>
  </g>
</svg>