<?xml version="1.0" encoding="utf-8"?>
<svg width="48px" height="48px" viewBox="0 0 48 48" version="1.1" xmlns:xlink="http://www.w3.org/1999/xlink" xmlns="http://www.w3.org/2000/svg">
  <defs>
    <linearGradient gradientUnits="userSpaceOnUse" x1="9.14587" y1="-7.748" x2="25.108871" y2="36.109" id="gradient_1">
      <stop offset="0%" stop-color="#2AA4F4" />
      <stop offset="100%" stop-color="#007AD9" />
    </linearGradient>
    <path d="M0 0L48 0L48 48L0 48L0 0Z" id="path_1" />
    <clipPath id="mask_1">
      <use xlink:href="#path_1" />
    </clipPath>
  </defs>
  <g id="CSS3-Icon">
    <path d="M0 0L48 0L48 48L0 48L0 0Z" id="Background" fill="#FFFFFF" fill-opacity="0" fill-rule="evenodd" stroke="none" />
    <path d="M7.192 7.176L9.819 36.946C9.928 38.183 10.789 39.226 11.983 39.567L22.626 42.608C23.524 42.865 24.475 42.865 25.373 42.608L36.016 39.567C37.21 39.226 38.071 38.184 38.18 36.946L40.807 7.176C40.911 6.006 39.99 5 38.816 5L9.184 5C8.01 5 7.089 6.006 7.192 7.176L7.192 7.176Z" id="Shape" fill="url(#gradient_1)" stroke="none" />
    <path d="M24 8L24 39.9L33.876 37.078C34.673 36.85 35.247 36.154 35.319 35.329L37.605 9.087C37.656 8.502 37.196 8 36.609 8L24 8L24 8Z" id="Shape" fill="#35C1F1" stroke="none" />
    <path d="M33.1 13L24 13L24 17L28.9 17L28.6 21L24 21L24 25L28.4 25L28.1 29.5L24 30.9L24 35.1L31.9 32.5L32.6 21L32.6 21L33.1 13L33.1 13Z" id="Shape" fill="#FFFFFF" stroke="none" />
    <path d="M24 13L24 17L15.1 17L14.8 13L24 13L24 13ZM19.4 21L19.6 25L24 25L24 21L19.4 21L19.4 21ZM19.8 27L15.8 27L16.1 32.5L24 35.1L24 30.9L19.9 29.5L19.8 27L19.8 27Z" id="Shape" fill="#D6E0E9" fill-rule="evenodd" stroke="none" />
    <path d="M33.1 13L32.6 21L31.9 32.5L24 35.1L16.1 32.5L15.8 27L19.8 27L19.9 29.5L24 30.9L28.1 29.5L28.4 25L24 25L19.6 25L19.4 21L24 21L28.6 21L28.9 17L24 17L15.1 17L14.8 13L24 13L33.1 13M34.164 12L33.1 12L24 12L14.8 12L13.722 12L13.803 13.075L14.103 17.075L14.172 18L15.1 18L24 18L27.822 18L27.672 20L24 20L19.4 20L18.349 20L18.401 21.05L18.601 25.05L18.649 26L15.8 26L14.744 26L14.802 27.054L15.102 32.554L15.139 33.236L15.788 33.45L23.688 36.05L24 36.153L24.313 36.05L32.213 33.45L32.857 33.238L32.898 32.561L33.598 21.061L34.098 13.063L34.164 12L34.164 12L34.164 12ZM20.761 26L24 26L27.331 26L27.146 28.769L24 29.843L20.872 28.775L20.799 26.96L20.761 26L20.761 26L20.761 26Z" id="Shape" fill="#000000" fill-opacity="0.05" fill-rule="evenodd" stroke="none" />
    <path d="M33.1 13L32.6 21L31.9 32.5L24 35.1L16.1 32.5L15.8 27L19.8 27L19.9 29.5L24 30.9L28.1 29.5L28.4 25L24 25L19.6 25L19.4 21L24 21L28.6 21L28.9 17L24 17L15.1 17L14.8 13L24 13L33.1 13M33.632 12.5L33.1 12.5L24 12.5L14.8 12.5L14.261 12.5L14.301 13.037L14.601 17.037L14.636 17.5L15.1 17.5L24 17.5L28.361 17.5L28.136 20.5L24 20.5L19.4 20.5L18.874 20.5L18.9 21.025L19.1 25.025L19.124 25.5L19.6 25.5L24 25.5L27.866 25.5L27.624 29.134L24 30.372L20.386 29.138L20.3 26.98L20.28 26.5L19.8 26.5L15.8 26.5L15.272 26.5L15.301 27.027L15.601 32.527L15.62 32.868L15.944 32.975L23.844 35.575L24 35.626L24.156 35.575L32.056 32.975L32.378 32.869L32.399 32.53L33.099 21.03L33.599 13.031L33.632 12.5L33.632 12.5L33.632 12.5Z" id="Shape" fill="#000000" fill-opacity="0.07" fill-rule="evenodd" stroke="none" />
  </g>
</svg>