<?xml version="1.0" encoding="utf-8"?>
<svg width="48px" height="48px" viewBox="0 0 48 48" version="1.1" xmlns:xlink="http://www.w3.org/1999/xlink" xmlns="http://www.w3.org/2000/svg">
  <defs>
    <linearGradient gradientUnits="userSpaceOnUse" x1="0.5290003" y1="10.472" x2="5.6" y2="5.3999996" id="gradient_1">
      <stop offset="0%" stop-color="#3079D6" />
      <stop offset="100%" stop-color="#297CD2" />
    </linearGradient>
    <linearGradient gradientUnits="userSpaceOnUse" x1="1.226088" y1="-7.9675007" x2="11.202964" y2="19.443127" id="gradient_2">
      <stop offset="0%" stop-color="#2AA4F4" />
      <stop offset="100%" stop-color="#007AD9" />
    </linearGradient>
    <path d="M0 0L48 0L48 48L0 48L0 0Z" id="path_1" />
    <clipPath id="mask_1">
      <use xlink:href="#path_1" />
    </clipPath>
  </defs>
  <g id="File-Icon-2">
    <path d="M0 0L48 0L48 48L0 48L0 0Z" id="Background" fill="#FFFFFF" fill-opacity="0" fill-rule="evenodd" stroke="none" />
    <path d="M39 16L39 41C39 42.105 38.105 43 37 43L11 43C9.895 43 9 42.105 9 41L9 7C9 5.895 9.895 5 11 5L28 5L39 16L39 16Z" id="Shape" fill="#50E6FF" stroke="none" />
    <path d="M28 5L28 14C28 15.105 28.895 16 30 16L39 16L28 5L28 5Z" id="Shape" fill="url(#gradient_1)" stroke="none" />
  </g>
  <g id="svg" transform="translate(9 14)">
    <g id="CSS3-Icon">
      <path d="M0 0L30 0L30 30L0 30L0 0L0 0Z" id="Background" fill="#FFFFFF" fill-opacity="0" fill-rule="evenodd" stroke="none" />
      <path d="M4.49499 4.48501L6.13687 23.0913C6.20499 23.8644 6.74312 24.5163 7.48937 24.7294L14.1412 26.63C14.7025 26.7906 15.2969 26.7906 15.8581 26.63L22.51 24.7294C23.2562 24.5163 23.7944 23.865 23.8625 23.0913L25.5044 4.48501C25.5694 3.75376 24.9937 3.12501 24.26 3.12501L5.73999 3.12501C5.00624 3.12501 4.43062 3.75376 4.49499 4.48501L4.49499 4.48501L4.49499 4.48501Z" id="Shape" fill="url(#gradient_2)" stroke="none" />
      <path d="M15 5.00001L15 24.9375L21.1725 23.1738C21.6706 23.0313 22.0294 22.5963 22.0744 22.0806L23.5031 5.67938C23.535 5.31376 23.2475 5.00001 22.8806 5.00001L15 5.00001L15 5.00001L15 5.00001Z" id="Shape#1" fill="#35C1F1" stroke="none" />
      <path d="M20.6875 8.12499L15 8.12499L15 10.625L18.0625 10.625L17.875 13.125L15 13.125L15 15.625L17.75 15.625L17.5625 18.4375L15 19.3125L15 21.9375L19.9375 20.3125L20.375 13.125L20.375 13.125L20.6875 8.12499L20.6875 8.12499L20.6875 8.12499Z" id="Shape#2" fill="#FFFFFF" stroke="none" />
      <path d="M15 8.12499L15 10.625L9.4375 10.625L9.25 8.12499L15 8.12499L15 8.12499L15 8.12499ZM12.125 13.125L12.25 15.625L15 15.625L15 13.125L12.125 13.125L12.125 13.125L12.125 13.125ZM12.375 16.875L9.87499 16.875L10.0625 20.3125L15 21.9375L15 19.3125L12.4375 18.4375L12.375 16.875L12.375 16.875L12.375 16.875Z" id="Shape#3" fill="#D6E0E9" fill-rule="evenodd" stroke="none" />
      <path d="M20.6875 8.12499L20.375 13.125L19.9375 20.3125L15 21.9375L10.0625 20.3125L9.875 16.875L12.375 16.875L12.4375 18.4375L15 19.3125L17.5625 18.4375L17.75 15.625L15 15.625L12.25 15.625L12.125 13.125L15 13.125L17.875 13.125L18.0625 10.625L15 10.625L9.4375 10.625L9.25 8.12499L15 8.12499L20.6875 8.12499M21.3525 7.5L20.6875 7.5L15 7.5L9.25 7.5L8.57625 7.5L8.62688 8.17188L8.81438 10.6719L8.8575 11.25L9.4375 11.25L15 11.25L17.3888 11.25L17.295 12.5L15 12.5L12.125 12.5L11.4681 12.5L11.5006 13.1562L11.6256 15.6562L11.6556 16.25L9.875 16.25L9.215 16.25L9.25125 16.9087L9.43875 20.3462L9.46188 20.7725L9.8675 20.9062L14.805 22.5312L15 22.5956L15.1956 22.5312L20.1331 20.9062L20.5356 20.7737L20.5612 20.3506L20.9987 13.1631L21.3112 8.16437L21.3525 7.5L21.3525 7.5L21.3525 7.5L21.3525 7.5ZM12.9756 16.25L15 16.25L17.0819 16.25L16.9662 17.9806L15 18.6519L13.045 17.9844L12.9994 16.85L12.9756 16.25L12.9756 16.25L12.9756 16.25L12.9756 16.25Z" id="Shape#4" fill="#000000" fill-opacity="0.050980393" fill-rule="evenodd" stroke="none" />
      <path d="M20.6875 8.12501L20.375 13.125L19.9375 20.3125L15 21.9375L10.0625 20.3125L9.87501 16.875L12.375 16.875L12.4375 18.4375L15 19.3125L17.5625 18.4375L17.75 15.625L15 15.625L12.25 15.625L12.125 13.125L15 13.125L17.875 13.125L18.0625 10.625L15 10.625L9.43751 10.625L9.25001 8.12501L15 8.12501L20.6875 8.12501M21.02 7.81251L20.6875 7.81251L15 7.81251L9.25001 7.81251L8.91313 7.81251L8.93813 8.14813L9.12563 10.6481L9.14751 10.9375L9.43751 10.9375L15 10.9375L17.7256 10.9375L17.585 12.8125L15 12.8125L12.125 12.8125L11.7963 12.8125L11.8125 13.1406L11.9375 15.6406L11.9525 15.9375L12.25 15.9375L15 15.9375L17.4163 15.9375L17.265 18.2088L15 18.9825L12.7413 18.2113L12.6875 16.8625L12.675 16.5625L12.375 16.5625L9.87501 16.5625L9.54501 16.5625L9.56313 16.8919L9.75063 20.3294L9.76251 20.5425L9.96501 20.6094L14.9025 22.2344L15 22.2663L15.0975 22.2344L20.035 20.6094L20.2363 20.5431L20.2494 20.3313L20.6869 13.1438L20.9994 8.14438L21.02 7.81251L21.02 7.81251L21.02 7.81251L21.02 7.81251Z" id="Shape#5" fill="#000000" fill-opacity="0.07058824" fill-rule="evenodd" stroke="none" />
    </g>
  </g>
</svg>