<?xml version="1.0" encoding="utf-8"?>
<svg width="48px" height="48px" viewBox="0 0 48 48" version="1.1" xmlns:xlink="http://www.w3.org/1999/xlink" xmlns="http://www.w3.org/2000/svg">
  <defs>
    <path d="M0 0L48 0L48 48L0 48L0 0Z" id="path_1" />
    <clipPath id="clip_1">
      <use xlink:href="#path_1" />
    </clipPath>
  </defs>
  <g id="Icon" clip-path="url(#clip_1)">
    <path d="M0 0L48 0L48 48L0 48L0 0Z" id="Icon" fill="none" fill-rule="evenodd" stroke="none" />
    <path d="M42.991 9.131L42.991 9.131C42.991 9.59 42.711 10.013 42.279 10.167C38.619 11.472 33 16.271 33 24C33 25.328 33.227 26 33.74 26C34.341 26 35.294 25 38 25C41.289 25 45 27.622 45 32.059C45 35.942 42.088 40 37 40C32.865 40 27 36.917 27 27.907C27 15.429 36.397 10.133 41.432 8.096C42.175 7.796 42.991 8.329 42.991 9.131L42.991 9.131Z" id="Shape" fill="#C767E5" stroke="none" />
    <path d="M18.991 9.131L18.991 9.131C18.991 9.59 18.711 10.013 18.279 10.167C14.619 11.472 9 16.271 9 24C9 25.328 9.227 26 9.74 26C10.341 26 11.294 25 14 25C17.289 25 21 27.622 21 32.059C21 35.942 18.088 40 13 40C8.865 40 3 36.917 3 27.907C3 15.429 12.397 10.133 17.432 8.096C18.175 7.796 18.991 8.329 18.991 9.131L18.991 9.131Z" id="Shape" fill="#C767E5" stroke="none" />
  </g>
</svg>