<?xml version="1.0" encoding="utf-8"?>
<svg width="48px" height="48px" viewBox="0 0 48 48" version="1.1" xmlns:xlink="http://www.w3.org/1999/xlink" xmlns="http://www.w3.org/2000/svg">
  <defs>
    <path d="M0 0L48 0L48 48L0 48L0 0Z" id="path_1" />
    <clipPath id="mask_1">
      <use xlink:href="#path_1" />
    </clipPath>
  </defs>
  <g id="Get-Quote-Icon">
    <path d="M0 0L48 0L48 48L0 48L0 0Z" id="Background" fill="#FFFFFF" fill-opacity="0" fill-rule="evenodd" stroke="none" />
    <path d="M5.009 38.88L5.009 38.88C5.009 38.421 5.289 37.998 5.721 37.844C9.381 36.539 15 31.74 15 24.011C15 22.683 14.773 22.011 14.26 22.011C13.659 22.011 12.706 23.011 10 23.011C6.711 23.011 3 20.389 3 15.952C3 12.069 5.912 8.011 11 8.011C15.135 8.011 21 11.094 21 20.104C21 32.582 11.603 37.878 6.568 39.915C5.825 40.215 5.009 39.682 5.009 38.88L5.009 38.88Z" id="Shape" fill="#C767E5" stroke="none" />
    <path d="M29.009 38.88L29.009 38.88C29.009 38.421 29.289 37.998 29.721 37.844C33.381 36.539 39 31.74 39 24.011C39 22.683 38.773 22.011 38.26 22.011C37.659 22.011 36.706 23.011 34 23.011C30.711 23.011 27 20.389 27 15.952C27 12.069 29.912 8.011 35 8.011C39.135 8.011 45 11.094 45 20.104C45 32.582 35.603 37.878 30.568 39.915C29.825 40.215 29.009 39.682 29.009 38.88L29.009 38.88Z" id="Shape" fill="#C767E5" stroke="none" />
  </g>
</svg>