<?xml version="1.0" encoding="utf-8"?>
<svg width="48px" height="48px" viewBox="0 0 48 48" version="1.1" xmlns:xlink="http://www.w3.org/1999/xlink" xmlns="http://www.w3.org/2000/svg">
  <defs>
    <linearGradient gradientUnits="userSpaceOnUse" x1="0.5290003" y1="10.472" x2="5.6" y2="5.3999996" id="gradient_1">
      <stop offset="0%" stop-color="#3079D6" />
      <stop offset="100%" stop-color="#297CD2" />
    </linearGradient>
    <path d="M0 0L48 0L48 48L0 48L0 0Z" id="path_1" />
    <clipPath id="mask_1">
      <use xlink:href="#path_1" />
    </clipPath>
  </defs>
  <g id="File-Icon-2">
    <path d="M0 0L48 0L48 48L0 48L0 0Z" id="Background" fill="#FFFFFF" fill-opacity="0" fill-rule="evenodd" stroke="none" />
    <path d="M39 16L39 41C39 42.105 38.105 43 37 43L11 43C9.895 43 9 42.105 9 41L9 7C9 5.895 9.895 5 11 5L28 5L39 16L39 16Z" id="Shape" fill="#50E6FF" stroke="none" />
    <path d="M28 5L28 14C28 15.105 28.895 16 30 16L39 16L28 5L28 5Z" id="Shape" fill="url(#gradient_1)" stroke="none" />
  </g>
  <g id="svg" transform="translate(10 14.5)">
    <g id="Get-Quote-Icon">
      <path d="M0 0L28 0L28 28L0 28L0 0L0 0Z" id="Background" fill="#FFFFFF" fill-opacity="0" fill-rule="evenodd" stroke="none" />
      <path d="M2.92192 22.68L2.92192 22.68C2.92192 22.4123 3.08525 22.1655 3.33725 22.0757C5.47225 21.3144 8.75 18.515 8.75 14.0064C8.75 13.2318 8.61758 12.8398 8.31833 12.8398C7.96775 12.8398 7.41183 13.4231 5.83333 13.4231C3.91475 13.4231 1.75 11.8936 1.75 9.30535C1.75 7.04027 3.44867 4.6731 6.41667 4.6731C8.82875 4.6731 12.25 6.47152 12.25 11.7274C12.25 19.0062 6.76842 22.0955 3.83133 23.2838C3.39792 23.4588 2.92192 23.1479 2.92192 22.68L2.92192 22.68L2.92192 22.68Z" id="Shape" fill="#C767E5" stroke="none" />
      <path d="M16.9219 22.68L16.9219 22.68C16.9219 22.4123 17.0852 22.1655 17.3372 22.0757C19.4722 21.3144 22.75 18.515 22.75 14.0064C22.75 13.2318 22.6176 12.8398 22.3183 12.8398C21.9677 12.8398 21.4118 13.4231 19.8333 13.4231C17.9147 13.4231 15.75 11.8936 15.75 9.30535C15.75 7.04027 17.4487 4.6731 20.4167 4.6731C22.8287 4.6731 26.25 6.47152 26.25 11.7274C26.25 19.0062 20.7684 22.0955 17.8313 23.2838C17.3979 23.4588 16.9219 23.1479 16.9219 22.68L16.9219 22.68L16.9219 22.68Z" id="Shape#1" fill="#C767E5" stroke="none" />
    </g>
  </g>
</svg>