<?xml version="1.0" encoding="utf-8"?>
<svg width="48px" height="48px" viewBox="0 0 48 48" version="1.1" xmlns:xlink="http://www.w3.org/1999/xlink" xmlns="http://www.w3.org/2000/svg">
  <defs>
    <linearGradient gradientUnits="objectBoundingBox" x1="0.039875" y1="-0.079111114" x2="0.8935938" y2="0.99536115" id="gradient_1">
      <stop offset="0%" stop-color="#889097" />
      <stop offset="33.1%" stop-color="#848C94" />
      <stop offset="66.9%" stop-color="#78828B" />
      <stop offset="100%" stop-color="#64717C" />
    </linearGradient>
    <linearGradient gradientUnits="objectBoundingBox" x1="0.5" y1="-0.39233336" x2="0.5" y2="1.2625558" id="gradient_2">
      <stop offset="0%" stop-color="#FFDA1C" />
      <stop offset="100%" stop-color="#FEB705" />
    </linearGradient>
    <path d="M48 0L48 0L48 48L0 48L0 0L48 0Z" id="path_1" />
    <clipPath id="clip_1">
      <use xlink:href="#path_1" clip-rule="evenodd" fill-rule="evenodd" />
    </clipPath>
  </defs>
  <g id="Micro SD" clip-path="url(#clip_1)">
    <path d="M48 0L48 0L48 48L0 48L0 0L48 0Z" id="Micro-SD" fill="none" stroke="none" />
    <path d="M12 8.003L12.018 19.901L8.341 25.355C8.119 25.686 8 26.075 8 26.473L8 40C8 41.105 8.895 42 10 42L38 42C39.105 42 40 41.105 40 40L40 8C40 6.895 39.105 6 38 6L14 6C12.894 6 11.998 6.897 12 8.003L12 8.003Z" id="Shape" fill="url(#gradient_1)" fill-rule="evenodd" stroke="none" />
    <path d="M33.5 18C32.673 18 32 17.327 32 16.5L32 8.5C32 7.673 32.673 7 33.5 7L36.5 7C37.327 7 38 7.673 38 8.5L38 16.5C38 17.327 37.327 18 36.5 18L33.5 18L33.5 18Z" id="Shape" fill="#000000" fill-opacity="0.05" fill-rule="evenodd" stroke="none" />
    <path d="M33.5 17.5C32.949 17.5 32.5 17.051 32.5 16.5L32.5 8.5C32.5 7.949 32.949 7.5 33.5 7.5L36.5 7.5C37.051 7.5 37.5 7.949 37.5 8.5L37.5 16.5C37.5 17.051 37.051 17.5 36.5 17.5L33.5 17.5L33.5 17.5Z" id="Shape" fill="#000000" fill-opacity="0.07" fill-rule="evenodd" stroke="none" />
    <path d="M33.5 8L36.5 8C36.776 8 37 8.224 37 8.5L37 16.5C37 16.776 36.776 17 36.5 17L33.5 17C33.224 17 33 16.776 33 16.5L33 8.5C33 8.224 33.224 8 33.5 8L33.5 8Z" id="Shape" fill="url(#gradient_2)" fill-rule="evenodd" stroke="none" />
    <path d="M27.5 18C26.673 18 26 17.327 26 16.5L26 8.5C26 7.673 26.673 7 27.5 7L30.5 7C31.327 7 32 7.673 32 8.5L32 16.5C32 17.327 31.327 18 30.5 18L27.5 18L27.5 18Z" id="Shape" fill="#000000" fill-opacity="0.05" fill-rule="evenodd" stroke="none" />
    <path d="M27.5 17.5C26.949 17.5 26.5 17.051 26.5 16.5L26.5 8.5C26.5 7.949 26.949 7.5 27.5 7.5L30.5 7.5C31.051 7.5 31.5 7.949 31.5 8.5L31.5 16.5C31.5 17.051 31.051 17.5 30.5 17.5L27.5 17.5L27.5 17.5Z" id="Shape" fill="#000000" fill-opacity="0.07" fill-rule="evenodd" stroke="none" />
    <path d="M27.5 8L30.5 8C30.776 8 31 8.224 31 8.5L31 16.5C31 16.776 30.776 17 30.5 17L27.5 17C27.224 17 27 16.776 27 16.5L27 8.5C27 8.224 27.224 8 27.5 8L27.5 8Z" id="Shape" fill="url(#gradient_2)" fill-rule="evenodd" stroke="none" />
    <path d="M15.5 18C14.673 18 14 17.327 14 16.5L14 8.5C14 7.673 14.673 7 15.5 7L18.5 7C19.327 7 20 7.673 20 8.5L20 16.5C20 17.327 19.327 18 18.5 18L15.5 18L15.5 18Z" id="Shape" fill="#000000" fill-opacity="0.05" fill-rule="evenodd" stroke="none" />
    <path d="M15.5 17.5C14.949 17.5 14.5 17.051 14.5 16.5L14.5 8.5C14.5 7.949 14.949 7.5 15.5 7.5L18.5 7.5C19.051 7.5 19.5 7.949 19.5 8.5L19.5 16.5C19.5 17.051 19.051 17.5 18.5 17.5L15.5 17.5L15.5 17.5Z" id="Shape" fill="#000000" fill-opacity="0.07" fill-rule="evenodd" stroke="none" />
    <path d="M15.5 8L18.5 8C18.776 8 19 8.224 19 8.5L19 16.5C19 16.776 18.776 17 18.5 17L15.5 17C15.224 17 15 16.776 15 16.5L15 8.5C15 8.224 15.224 8 15.5 8L15.5 8Z" id="Shape" fill="url(#gradient_2)" fill-rule="evenodd" stroke="none" />
    <path d="M21.5 18C20.673 18 20 17.327 20 16.5L20 8.5C20 7.673 20.673 7 21.5 7L24.5 7C25.327 7 26 7.673 26 8.5L26 16.5C26 17.327 25.327 18 24.5 18L21.5 18L21.5 18Z" id="Shape" fill="#000000" fill-opacity="0.05" fill-rule="evenodd" stroke="none" />
    <path d="M21.5 17.5C20.949 17.5 20.5 17.051 20.5 16.5L20.5 8.5C20.5 7.949 20.949 7.5 21.5 7.5L24.5 7.5C25.051 7.5 25.5 7.949 25.5 8.5L25.5 16.5C25.5 17.051 25.051 17.5 24.5 17.5L21.5 17.5L21.5 17.5Z" id="Shape" fill="#000000" fill-opacity="0.07" fill-rule="evenodd" stroke="none" />
    <path d="M21.5 8L24.5 8C24.776 8 25 8.224 25 8.5L25 16.5C25 16.776 24.776 17 24.5 17L21.5 17C21.224 17 21 16.776 21 16.5L21 8.5C21 8.224 21.224 8 21.5 8L21.5 8Z" id="Shape" fill="url(#gradient_2)" fill-rule="evenodd" stroke="none" />
  </g>
</svg>