<?xml version="1.0" encoding="utf-8"?>
<svg width="48px" height="48px" viewBox="0 0 48 48" version="1.1" xmlns:xlink="http://www.w3.org/1999/xlink"
	 xmlns="http://www.w3.org/2000/svg">
	<defs>
		<path d="M48 0L48 0L48 48L0 48L0 0L48 0Z" id="path_1"/>
		<clipPath id="clip_1">
			<use xlink:href="#path_1" clip-rule="evenodd" fill-rule="evenodd"/>
		</clipPath>
	</defs>
	<g id="Online Coding" clip-path="url(#clip_1)">
		<path d="M48 0L48 0L48 48L0 48L0 0L48 0Z" id="Online-Coding" fill="none" stroke="none"/>
		<path d="M7.36588 10L7.36588 22.3682L5.06623 22.3682L5.06623 13.0921C4.91292 13.2638 4.75961 13.2638 4.6063 13.4356C4.45299 13.6074 4.29968 13.6074 3.99306 13.7792C3.83975 13.951 3.53313 13.951 3.37983 13.951C3.22652 13.951 2.9199 14.1228 2.76659 14.1228L2.76659 11.8896C3.37983 11.7178 3.99307 11.3743 4.453 11.2025C4.91293 11.0307 5.52617 10.5154 5.9861 10.1718L7.36588 10.1718L7.36588 10Z"
			  id="Shape" fill="#0077D2" stroke="none"/>
		<path d="M14.8781 22.54C12.2718 22.54 11.0453 20.4786 11.0453 16.5277C11.0453 14.4663 11.3519 12.9203 12.1185 11.7178C12.885 10.6871 13.8049 10 15.1847 10C17.6376 10 18.8641 12.0614 18.8641 16.1841C18.8641 18.2455 18.5575 19.7915 17.7909 20.8222C17.1777 22.0247 16.2578 22.54 14.8781 22.54L14.8781 22.54ZM15.0314 12.2332C13.9582 12.2332 13.4983 13.6074 13.4983 16.5277C13.4983 19.2762 13.9582 20.6504 15.0314 20.6504C15.9512 20.6504 16.5645 19.2762 16.5645 16.5277C16.5645 13.7792 15.9512 12.2332 15.0314 12.2332L15.0314 12.2332Z"
			  id="Shape" fill="#0077D2" fill-rule="evenodd" stroke="none"/>
		<path d="M25.4565 22.54C22.8502 22.54 21.6237 20.4786 21.6237 16.5277C21.6237 14.4663 21.9303 12.9203 22.6969 11.7178C23.4634 10.6871 24.3833 10 25.7631 10C28.216 10 29.4425 12.0614 29.4425 16.1841C29.4425 18.2455 29.1359 19.7915 28.3693 20.8222C27.6028 22.0247 26.6829 22.54 25.4565 22.54L25.4565 22.54ZM25.4565 12.2332C24.3833 12.2332 23.9234 13.6074 23.9234 16.5277C23.9234 19.2762 24.3833 20.6504 25.4565 20.6504C26.3763 20.6504 26.9896 19.2762 26.9896 16.5277C26.9896 13.7792 26.5296 12.2332 25.4565 12.2332L25.4565 12.2332Z"
			  id="Shape" fill="#0077D2" fill-rule="evenodd" stroke="none"/>
		<path d="M36.4948 10L36.4948 22.3682L34.1951 22.3682L34.1951 13.0921C34.0418 13.2638 33.8885 13.2638 33.7352 13.4356C33.5819 13.6074 33.4286 13.6074 33.122 13.7792C32.9687 13.951 32.662 13.951 32.5087 13.951C32.3554 13.951 32.0488 14.1228 31.8955 14.1228L31.8955 11.8896C32.5087 11.7178 33.122 11.3743 33.5819 11.2025C34.0418 11.0307 34.6551 10.5154 35.115 10.1718L36.4948 10.1718L36.4948 10Z"
			  id="Shape" fill="#0077D2" stroke="none"/>
		<path d="M46 10L46 22.3682L43.7004 22.3682L43.7004 13.0921C43.547 13.2638 43.3937 13.2638 43.2404 13.4356C43.0871 13.6074 42.9338 13.6074 42.6272 13.7792C42.4739 13.951 42.1673 13.951 42.0139 13.951C41.8606 13.951 41.554 14.1228 41.4007 14.1228L41.4007 11.8896C42.0139 11.7178 42.6272 11.3743 43.0871 11.2025C43.547 11.0307 44.1603 10.5154 44.6202 10.1718L46 10.1718L46 10Z"
			  id="Shape" fill="#0077D2" stroke="none"/>
		<path d="M5.83261 38C3.22641 38 1.99996 35.9387 1.99996 31.9878C1.99996 29.9265 2.30658 28.3805 3.07311 27.1781C3.83964 26.1474 4.75947 25.4603 6.13923 25.4603C8.59212 25.4603 9.81857 27.5216 9.81857 31.6443C9.81857 33.7056 9.51196 35.2516 8.74543 36.2822C8.1322 37.4847 7.05906 38 5.83261 38L5.83261 38ZM5.98592 27.6934C4.91278 27.6934 4.45286 29.0676 4.45286 31.9878C4.45286 34.7362 4.91278 36.1105 5.98592 36.1105C6.90576 36.1105 7.51898 34.7362 7.51898 31.9878C7.51898 29.2394 6.90576 27.6934 5.98592 27.6934L5.98592 27.6934ZM17.3308 25.4603L17.3308 37.8282L15.0312 37.8282L15.0312 28.5523C14.8779 28.7241 14.7246 28.7241 14.5713 28.8958C14.418 29.0676 14.2647 29.0676 13.9581 29.2394C13.8048 29.4112 13.4982 29.4112 13.3449 29.4112C13.1916 29.4112 12.885 29.5829 12.7317 29.5829L12.7317 27.3499C13.3449 27.1781 13.9581 26.8345 14.418 26.6627C14.8779 26.491 15.4912 25.9756 15.9511 25.6321L17.3308 25.6321L17.3308 25.4603ZM24.843 38C22.2368 38 21.0104 35.9387 21.0104 31.9878C21.0104 29.9265 21.317 28.3805 22.0835 27.1781C22.85 26.1474 23.7699 25.4603 25.1496 25.4603C27.6025 25.4603 28.829 27.5216 28.829 31.6443C28.829 33.7056 28.5224 35.2516 27.7558 36.2822C26.9893 37.4847 26.0695 38 24.843 38L24.843 38ZM24.843 27.6934C23.7699 27.6934 23.31 29.0676 23.31 31.9878C23.31 34.7362 23.7699 36.1105 24.843 36.1105C25.7629 36.1105 26.3761 34.7362 26.3761 31.9878C26.3761 29.2394 25.9162 27.6934 24.843 27.6934L24.843 27.6934ZM34.6549 38C32.0487 38 30.8222 35.9387 30.8222 31.9878C30.8222 29.9265 31.1288 28.3805 31.8954 27.1781C32.6619 26.1474 33.5817 25.4603 34.9615 25.4603C37.4144 25.4603 38.6408 27.5216 38.6408 31.6443C38.6408 33.7056 38.3342 35.2516 37.5677 36.2822C36.8012 37.4847 35.8813 38 34.6549 38L34.6549 38ZM34.6549 27.6934C33.5817 27.6934 33.1218 29.0676 33.1218 31.9878C33.1218 34.7362 33.5817 36.1105 34.6549 36.1105C35.5747 36.1105 36.1879 34.7362 36.1879 31.9878C36.1879 29.2394 35.728 27.6934 34.6549 27.6934L34.6549 27.6934ZM45.9997 25.4603L45.9997 37.8282L43.7001 37.8282L43.7001 28.5523C43.5468 28.7241 43.3935 28.7241 43.2402 28.8958C43.0869 29.0676 42.9336 29.0676 42.627 29.2394C42.4737 29.4112 42.1671 29.4112 42.0138 29.4112C41.8605 29.4112 41.5539 29.5829 41.4005 29.5829L41.4005 27.3499C42.0138 27.1781 42.627 26.8345 43.0869 26.6627C43.5468 26.491 44.16 25.9756 44.62 25.6321L45.9997 25.6321L45.9997 25.4603Z"
			  id="Group" fill="#0077D2" fill-rule="evenodd" stroke="none"/>
	</g>
</svg>