<?xml version="1.0" encoding="utf-8"?>
<svg width="48px" height="48px" viewBox="0 0 48 48" version="1.1" xmlns:xlink="http://www.w3.org/1999/xlink" xmlns="http://www.w3.org/2000/svg">
	<defs>
		<linearGradient x1="0.048090935" y1="0.952" x2="0.5090909" y2="0.49090907" id="gradient_1">
			<stop offset="0" stop-color="#3079D6" />
			<stop offset="1" stop-color="#297CD2" />
		</linearGradient>
		<path d="M0 0L48 0L48 48L0 48L0 0Z" id="path_1" />
		<path d="M0 0L38 0L38 38L0 38L0 0Z" id="path_2" />
		<clipPath id="mask_1">
			<use xlink:href="#path_1" />
		</clipPath>
		<clipPath id="mask_2">
			<use xlink:href="#path_2" />
		</clipPath>
	</defs>
	<g id="icons8_file">
		<path d="M0 0L48 0L48 48L0 48L0 0Z" id="Background" fill="none" fill-rule="evenodd" stroke="none" />
		<g clip-path="url(#mask_1)">
			<path d="M30 11L30 36C30 37.105 29.105 38 28 38L2 38C0.895001 38 0 37.105 0 36L0 2C0 0.895 0.895001 0 2 0L19 0L30 11L30 11Z" transform="translate(9 5)" id="Shape" fill="#50E6FF" fill-rule="evenodd" stroke="none" />
			<path d="M0 0L0 9C0 10.105 0.895 11 2 11L11 11L0 0L0 0Z" transform="translate(28 5)" id="Shape" fill="url(#gradient_1)" fill-rule="evenodd" stroke="none" />
		</g>
	</g>
	<g id="icons8_online_coding_1" transform="translate(5.1645813 7.014267)">
		<path d="M0 0L38 0L38 38L0 38L0 0Z" id="Background" fill="none" fill-rule="evenodd" stroke="none" />
		<g clip-path="url(#mask_2)">
			<path d="M2.375 0L2.375 5.7L1.1875 5.7L1.1875 1.425C1.10833 1.50417 1.02917 1.50417 0.949999 1.58334C0.870832 1.6625 0.791666 1.6625 0.633333 1.74167C0.554166 1.82084 0.395833 1.82084 0.316666 1.82084C0.237499 1.82084 0.0791662 1.9 0 1.9L0 0.870837C0.316666 0.79167 0.633334 0.633337 0.870834 0.55417C1.10833 0.475003 1.425 0.237504 1.6625 0.07917L2.375 0.07917L2.375 0Z" transform="translate(7.2833557 14.883347)" id="Shape" fill="#184F85" fill-rule="evenodd" stroke="none" />
			<path d="M1.97917 5.77917C0.633333 5.77917 0 4.82917 0 3.00833C0 2.05833 0.158333 1.34583 0.554166 0.791667C0.95 0.316666 1.425 0 2.1375 0C3.40417 0 4.0375 0.950001 4.0375 2.85C4.0375 3.8 3.87916 4.5125 3.48333 4.9875C3.16667 5.54167 2.69167 5.77917 1.97917 5.77917L1.97917 5.77917ZM2.05833 1.02914C1.50416 1.02914 1.26666 1.66248 1.26666 3.00831C1.26666 4.27498 1.50416 4.90831 2.05833 4.90831C2.53333 4.90831 2.85 4.27498 2.85 3.00831C2.85 1.74164 2.53333 1.02914 2.05833 1.02914L2.05833 1.02914Z" transform="translate(11.558319 14.883347)" id="Shape" fill="#184F85" fill-rule="evenodd" stroke="none" />
			<path d="M1.97917 5.77917C0.633333 5.77917 0 4.82917 0 3.00833C0 2.05833 0.158334 1.34583 0.554167 0.791667C0.950001 0.316666 1.425 0 2.1375 0C3.40417 0 4.0375 0.950001 4.0375 2.85C4.0375 3.8 3.87917 4.5125 3.48333 4.9875C3.0875 5.54167 2.6125 5.77917 1.97917 5.77917L1.97917 5.77917ZM1.97917 1.02914C1.425 1.02914 1.1875 1.66248 1.1875 3.00831C1.1875 4.27498 1.425 4.90831 1.97917 4.90831C2.45417 4.90831 2.77083 4.27498 2.77083 3.00831C2.77083 1.74164 2.53333 1.02914 1.97917 1.02914L1.97917 1.02914Z" transform="translate(17.020813 14.883347)" id="Shape" fill="#184F85" fill-rule="evenodd" stroke="none" />
			<path d="M2.375 0L2.375 5.7L1.1875 5.7L1.1875 1.425C1.10833 1.50417 1.02916 1.50417 0.949999 1.58334C0.870832 1.6625 0.791665 1.6625 0.633333 1.74167C0.554166 1.82084 0.395833 1.82084 0.316666 1.82084C0.237499 1.82084 0.079167 1.9 0 1.9L0 0.870837C0.316666 0.79167 0.633333 0.633337 0.870834 0.55417C1.10833 0.475003 1.425 0.237504 1.6625 0.07917L2.375 0.07917L2.375 0Z" transform="translate(22.325012 14.883347)" id="Shape" fill="#184F85" fill-rule="evenodd" stroke="none" />
			<path d="M2.375 0L2.375 5.7L1.1875 5.7L1.1875 1.425C1.10834 1.50417 1.02917 1.50417 0.950004 1.58334C0.870838 1.6625 0.79167 1.6625 0.633336 1.74167C0.55417 1.82084 0.395836 1.82084 0.316668 1.82084C0.237502 1.82084 0.0791685 1.9 0 1.9L0 0.870837C0.316668 0.79167 0.633333 0.633337 0.870832 0.55417C1.10833 0.475003 1.425 0.237504 1.6625 0.07917L2.375 0.07917L2.375 0Z" transform="translate(27.233337 14.883347)" id="Shape" fill="#184F85" fill-rule="evenodd" stroke="none" />
			<g id="Group" transform="translate(6.887512 22.800003)">
				<path d="M1.97917 5.77917C0.633333 5.77917 0 4.82916 0 3.00833C0 2.05833 0.158333 1.34583 0.554166 0.791667C0.95 0.316666 1.425 0 2.1375 0C3.40417 0 4.0375 0.95 4.0375 2.85C4.0375 3.8 3.87917 4.5125 3.48333 4.9875C3.16667 5.54167 2.6125 5.77917 1.97917 5.77917L1.97917 5.77917ZM2.05833 1.02914C1.50416 1.02914 1.26666 1.66248 1.26666 3.00831C1.26666 4.27497 1.50416 4.90831 2.05833 4.90831C2.53333 4.90831 2.85 4.27498 2.85 3.00831C2.85 1.74164 2.53333 1.02914 2.05833 1.02914L2.05833 1.02914Z" id="Shape" fill="#184F85" fill-rule="evenodd" stroke="none" />
				<path d="M2.375 0L2.375 5.7L1.1875 5.7L1.1875 1.425C1.10833 1.50417 1.02916 1.50417 0.949999 1.58333C0.870832 1.6625 0.791665 1.6625 0.633333 1.74167C0.554166 1.82084 0.395833 1.82084 0.316666 1.82084C0.237499 1.82084 0.0791662 1.9 0 1.9L0 0.870837C0.316666 0.79167 0.633333 0.633337 0.870834 0.55417C1.10833 0.475003 1.425 0.237504 1.6625 0.07917L2.375 0.07917L2.375 0Z" transform="translate(5.541687 0)" id="Shape" fill="#184F85" fill-rule="evenodd" stroke="none" />
				<path d="M1.97917 5.77917C0.633333 5.77917 0 4.82916 0 3.00833C0 2.05833 0.158334 1.34583 0.554167 0.791667C0.950001 0.316666 1.425 0 2.1375 0C3.40417 0 4.0375 0.95 4.0375 2.85C4.0375 3.8 3.87917 4.5125 3.48333 4.9875C3.0875 5.54167 2.6125 5.77917 1.97917 5.77917L1.97917 5.77917ZM1.97917 1.02914C1.425 1.02914 1.1875 1.66248 1.1875 3.00831C1.1875 4.27497 1.425 4.90831 1.97917 4.90831C2.45417 4.90831 2.77083 4.27498 2.77083 3.00831C2.77083 1.74164 2.53333 1.02914 1.97917 1.02914L1.97917 1.02914Z" transform="translate(9.816681 0)" id="Shape" fill="#184F85" fill-rule="evenodd" stroke="none" />
				<path d="M1.97917 5.77917C0.633333 5.77917 0 4.82916 0 3.00833C0 2.05833 0.158334 1.34583 0.554167 0.791667C0.950001 0.316666 1.425 0 2.1375 0C3.40417 0 4.0375 0.95 4.0375 2.85C4.0375 3.8 3.87917 4.5125 3.48333 4.9875C3.0875 5.54167 2.6125 5.77917 1.97917 5.77917L1.97917 5.77917ZM1.97917 1.02914C1.425 1.02914 1.1875 1.66248 1.1875 3.00831C1.1875 4.27497 1.425 4.90831 1.97917 4.90831C2.45417 4.90831 2.77083 4.27498 2.77083 3.00831C2.77083 1.74164 2.53333 1.02914 1.97917 1.02914L1.97917 1.02914Z" transform="translate(14.883331 0)" id="Shape" fill="#184F85" fill-rule="evenodd" stroke="none" />
				<path d="M2.375 0L2.375 5.7L1.1875 5.7L1.1875 1.425C1.10834 1.50417 1.02917 1.50417 0.950004 1.58333C0.870838 1.6625 0.79167 1.6625 0.633336 1.74167C0.55417 1.82084 0.395836 1.82084 0.316668 1.82084C0.237502 1.82084 0.0791685 1.9 0 1.9L0 0.870837C0.316668 0.79167 0.633333 0.633337 0.870832 0.55417C1.10833 0.475003 1.425 0.237504 1.6625 0.07917L2.375 0.07917L2.375 0Z" transform="translate(20.345825 0)" id="Shape" fill="#184F85" fill-rule="evenodd" stroke="none" />
			</g>
		</g>
	</g>
</svg>