<?xml version="1.0" encoding="utf-8"?>
<svg width="48px" height="48px" viewBox="0 0 48 48" version="1.1" xmlns:xlink="http://www.w3.org/1999/xlink" xmlns="http://www.w3.org/2000/svg">
  <defs>
    <radialGradient gradientUnits="objectBoundingBox" cx="117.8751%" cy="208.06714%" fx="117.8751%" fy="208.06714%" r="67525.88%" gradientTransform="translate(1.178751,2.0806713),rotate(103.289566),scale(1,0.99659127),translate(-1.178751,-2.0806713)" id="gradient_1">
      <stop offset="32.300003%" stop-color="#23D9D6" />
      <stop offset="42.699997%" stop-color="#23D4D7" />
      <stop offset="54.2%" stop-color="#21C7DC" />
      <stop offset="66.399994%" stop-color="#1FB0E2" />
      <stop offset="78.899994%" stop-color="#1C91EC" />
      <stop offset="91.7%" stop-color="#1969F8" />
      <stop offset="94.4%" stop-color="#1860FB" />
    </radialGradient>
    <path d="M48 0L48 0L48 48L0 48L0 0L48 0Z" id="path_1" />
    <clipPath id="clip_1">
      <use xlink:href="#path_1" />
    </clipPath>
  </defs>
  <g id="Desktop" clip-path="url(#clip_1)">
    <path d="M48 0L48 0L48 48L0 48L0 0L48 0Z" id="Desktop" fill="none" stroke="none" />
    <path d="M8 6L40 6C41.105 6 42 6.895 42 8L42 40C42 41.105 41.105 42 40 42L8 42C6.895 42 6 41.105 6 40L6 8C6 6.895 6.895 6 8 6L8 6Z" id="Shape" fill="url(#gradient_1)" stroke="none" />
    <path d="M42 40L42 36L6 36L6 40C6 41.105 6.895 42 8 42L40 42C41.105 42 42 41.105 42 40L42 40Z" id="Shape" fill="#184F85" stroke="none" />
    <path d="M8.5 41C7.673 41 7 40.327 7 39.5L7 38.5C7 37.673 7.673 37 8.5 37L9.5 37C10.327 37 11 37.673 11 38.5L11 39.5C11 40.327 10.327 41 9.5 41L8.5 41L8.5 41Z" id="Shape" fill="#000000" fill-opacity="0.05" stroke="none" />
    <path d="M8.5 40.5C7.949 40.5 7.5 40.051 7.5 39.5L7.5 38.5C7.5 37.949 7.949 37.5 8.5 37.5L9.5 37.5C10.051 37.5 10.5 37.949 10.5 38.5L10.5 39.5C10.5 40.051 10.051 40.5 9.5 40.5L8.5 40.5L8.5 40.5Z" id="Shape" fill="#000000" fill-opacity="0.07" stroke="none" />
    <path d="M9.5 40L8.5 40C8.224 40 8 39.776 8 39.5L8 38.5C8 38.224 8.224 38 8.5 38L9.5 38C9.776 38 10 38.224 10 38.5L10 39.5C10 39.776 9.776 40 9.5 40L9.5 40Z" id="Shape" fill="#FFFFFF" stroke="none" />
    <path d="M10.5 15C9.673 15 9 14.327 9 13.5L9 10.5C9 9.673 9.673 9 10.5 9L13.5 9C14.327 9 15 9.673 15 10.5L15 13.5C15 14.327 14.327 15 13.5 15L10.5 15L10.5 15Z" id="Shape" fill="#000000" fill-opacity="0.05" stroke="none" />
    <path d="M10.5 14.5C9.949 14.5 9.5 14.051 9.5 13.5L9.5 10.5C9.5 9.949 9.949 9.5 10.5 9.5L13.5 9.5C14.051 9.5 14.5 9.949 14.5 10.5L14.5 13.5C14.5 14.051 14.051 14.5 13.5 14.5L10.5 14.5L10.5 14.5Z" id="Shape" fill="#000000" fill-opacity="0.07" stroke="none" />
    <path d="M13.5 14L10.5 14C10.224 14 10 13.776 10 13.5L10 10.5C10 10.224 10.224 10 10.5 10L13.5 10C13.776 10 14 10.224 14 10.5L14 13.5C14 13.776 13.776 14 13.5 14L13.5 14Z" id="Shape" fill="#FFFFFF" stroke="none" />
    <path d="M10.5 23C9.673 23 9 22.327 9 21.5L9 18.5C9 17.673 9.673 17 10.5 17L13.5 17C14.327 17 15 17.673 15 18.5L15 21.5C15 22.327 14.327 23 13.5 23L10.5 23L10.5 23Z" id="Shape" fill="#000000" fill-opacity="0.05" stroke="none" />
    <path d="M10.5 22.5C9.949 22.5 9.5 22.051 9.5 21.5L9.5 18.5C9.5 17.949 9.949 17.5 10.5 17.5L13.5 17.5C14.051 17.5 14.5 17.949 14.5 18.5L14.5 21.5C14.5 22.051 14.051 22.5 13.5 22.5L10.5 22.5L10.5 22.5Z" id="Shape" fill="#000000" fill-opacity="0.07" stroke="none" />
    <path d="M13.5 22L10.5 22C10.224 22 10 21.776 10 21.5L10 18.5C10 18.224 10.224 18 10.5 18L13.5 18C13.776 18 14 18.224 14 18.5L14 21.5C14 21.776 13.776 22 13.5 22L13.5 22Z" id="Shape" fill="#FFFFFF" stroke="none" />
  </g>
</svg>