<?xml version="1.0" encoding="utf-8"?>
<svg width="48px" height="49px" viewBox="0 0 48 49" version="1.1" xmlns:xlink="http://www.w3.org/1999/xlink" xmlns="http://www.w3.org/2000/svg">
	<defs>
		<linearGradient x1="0.048090935" y1="0.952" x2="0.5090909" y2="0.49090907" id="gradient_1">
			<stop offset="0" stop-color="#3079D6" />
			<stop offset="1" stop-color="#297CD2" />
		</linearGradient>
		<path d="M0 0L48 0L48 48L0 48L0 0Z" id="path_1" />
		<path d="M0 0L25 0L25 25L0 25L0 0Z" id="path_2" />
		<clipPath id="mask_1">
			<use xlink:href="#path_1" />
		</clipPath>
		<clipPath id="mask_2">
			<use xlink:href="#path_2" />
		</clipPath>
	</defs>
	<g id="icons8_file_2">
		<path d="M0 0L48 0L48 48L0 48L0 0Z" id="Background" fill="none" fill-rule="evenodd" stroke="none" />
		<g clip-path="url(#mask_1)">
			<path d="M30 11L30 36C30 37.105 29.105 38 28 38L2 38C0.895001 38 0 37.105 0 36L0 2C0 0.895 0.895001 0 2 0L19 0L30 11L30 11Z" transform="translate(9 5)" id="Shape" fill="#50E6FF" fill-rule="evenodd" stroke="none" />
			<path d="M0 0L0 9C0 10.105 0.895 11 2 11L11 11L0 0L0 0Z" transform="translate(28 5)" id="Shape" fill="url(#gradient_1)" fill-rule="evenodd" stroke="none" />
		</g>
	</g>
	<g id="icons8_html_5" transform="translate(11.948029 16.955276)">
		<path d="M0 0L25 0L25 25L0 25L0 0Z" id="Background" fill="none" fill-rule="evenodd" stroke="none" />
		<g clip-path="url(#mask_2)">
			<path d="M17.7083 0L0 0L1.5625 17.7083L8.85417 19.7917L16.1458 17.7083L17.7083 0L17.7083 0L17.7083 0Z" transform="translate(3.6458435 2.6041718)" id="Shape" fill="#E65100" fill-rule="evenodd" stroke="none" />
			<path d="M0 0L0 16.6146L5.83333 14.9479L7.13542 0L0 0Z" transform="translate(12.5 4.1666718)" id="Shape" fill="#FF6D00" fill-rule="evenodd" stroke="none" />
			<path d="M0 6.25001L0 4.16667L4.47917 4.16667L4.11458 10.1563L0 11.5104L0 9.32292L2.13542 8.59375L2.29167 6.25L0 6.25L0 6.25001ZM4.63542 2.08333L4.79167 0L0 0L0 2.08333L4.63542 2.08333L4.63542 2.08333Z" transform="translate(12.5 6.770813)" id="Shape" fill="#FFFFFF" fill-rule="evenodd" stroke="none" />
			<path d="M4.73957 9.32292L4.73957 11.5104L0.62499 10.1563L0.416656 7.29167L2.49999 7.29167L2.60416 8.59375L4.73957 9.32292L4.73957 9.32292ZM2.1875 2.08333L4.73958 2.08333L4.73958 0L0 0L0.364583 6.25L4.73958 6.25L4.73958 4.16667L2.34375 4.16667L2.1875 2.08333L2.1875 2.08333Z" transform="translate(7.7604065 6.770813)" id="Shape" fill="#EEEEEE" fill-rule="evenodd" stroke="none" />
		</g>
	</g>
</svg>