<?xml version="1.0" encoding="utf-8"?>
<svg width="48px" height="48px" viewBox="0 0 48 48" version="1.1" xmlns:xlink="http://www.w3.org/1999/xlink" xmlns="http://www.w3.org/2000/svg">
	<defs>
		<linearGradient x1="0.048090935" y1="0.952" x2="0.5090909" y2="0.49090907" id="gradient_1">
			<stop offset="0" stop-color="#3079D6" />
			<stop offset="1" stop-color="#297CD2" />
		</linearGradient>
		<linearGradient x1="0.50000006" y1="0.31561118" x2="0.50000006" y2="-0.6843889" id="gradient_2">
			<stop offset="0" stop-color="#D28862" />
			<stop offset="0.319" stop-color="#D9A177" />
			<stop offset="0.75" stop-color="#E0BD8E" />
			<stop offset="1" stop-color="#E3C797" />
		</linearGradient>
		<linearGradient x1="0.5000001" y1="1.4787143" x2="0.5000001" y2="0.2082144" id="gradient_3">
			<stop offset="0" stop-color="#999999" />
			<stop offset="0.313" stop-color="#C4C4C4" />
			<stop offset="0.598" stop-color="#E4E4E4" />
			<stop offset="0.837" stop-color="#F8F8F8" />
			<stop offset="1" stop-color="#FFFFFF" />
		</linearGradient>
		<linearGradient x1="0.5" y1="0.80852276" x2="0.5" y2="-0.023113638" id="gradient_4">
			<stop offset="0" stop-color="#D28862" />
			<stop offset="0.319" stop-color="#D9A177" />
			<stop offset="0.75" stop-color="#E0BD8E" />
			<stop offset="1" stop-color="#E3C797" />
		</linearGradient>
		<path d="M0 0L48 0L48 48L0 48L0 0Z" id="path_1" />
		<path d="M0 0L25 0L25 25L0 25L0 0Z" id="path_2" />
		<clipPath id="mask_1">
			<use xlink:href="#path_1" />
		</clipPath>
		<clipPath id="mask_2">
			<use xlink:href="#path_2" />
		</clipPath>
	</defs>
	<g id="icons8_file_2">
		<path d="M0 0L48 0L48 48L0 48L0 0Z" id="Background" fill="none" fill-rule="evenodd" stroke="none" />
		<g clip-path="url(#mask_1)">
			<path d="M30 11L30 36C30 37.105 29.105 38 28 38L2 38C0.895001 38 0 37.105 0 36L0 2C0 0.895 0.895001 0 2 0L19 0L30 11L30 11Z" transform="translate(9 5)" id="Shape" fill="#50E6FF" fill-rule="evenodd" stroke="none" />
			<path d="M0 0L0 9C0 10.105 0.895 11 2 11L11 11L0 0L0 0Z" transform="translate(28 5)" id="Shape" fill="url(#gradient_1)" fill-rule="evenodd" stroke="none" />
		</g>
	</g>
	<g id="icons8_dvd" transform="translate(11.0000305 16.645538)">
		<path d="M0 0L25 0L25 25L0 25L0 0Z" id="Background" fill="none" fill-rule="evenodd" stroke="none" />
		<g clip-path="url(#mask_2)">
			<path d="M11.4583 0C5.13021 0 0 5.13021 0 11.4583C0 17.7865 5.13021 22.9167 11.4583 22.9167C17.7865 22.9167 22.9167 17.7865 22.9167 11.4583C22.9167 5.13021 17.7865 0 11.4583 0L11.4583 0ZM11.4583 13.0208C10.5953 13.0208 9.89583 12.3214 9.89583 11.4583C9.89583 10.5953 10.5953 9.89584 11.4583 9.89584C12.3213 9.89584 13.0208 10.5953 13.0208 11.4583C13.0208 12.3214 12.3213 13.0208 11.4583 13.0208L11.4583 13.0208Z" transform="translate(1.0416565 1.0416565)" id="Shape" fill="#D2A572" fill-rule="evenodd" stroke="none" />
			<path d="M9.62448 3.85625C9.25 2.89688 8.79323 1.69531 7.18125 0L0 6.28281L0.822917 8.10312L10.2396 8.84271C10.5052 6.49896 9.99844 4.81458 9.62448 3.85625L9.62448 3.85625Z" transform="translate(13.5859375 4.6989746)" id="Shape" fill="#D2A572" fill-rule="evenodd" stroke="none" />
			<path d="M9.54844 3.59792C9.18802 2.67552 8.7776 1.58698 7.28542 0L0 6.09844L0.752604 7.76041L10.1406 8.23906C10.3646 6.04687 9.90833 4.51979 9.54844 3.59792L9.54844 3.59792Z" transform="translate(13.6614685 4.950012)" id="Shape" fill="#D5AC79" fill-rule="evenodd" stroke="none" />
			<path d="M9.47291 3.33958C9.12708 2.45417 8.76198 1.47813 7.39062 0L0 5.91302L0.682291 7.41719L10.0422 7.6349C10.224 5.59427 9.81823 4.22448 9.47291 3.33958L9.47291 3.33958Z" transform="translate(13.736969 5.2015686)" id="Shape" fill="#D9B381" fill-rule="evenodd" stroke="none" />
			<path d="M9.39688 3.08073C9.06562 2.23229 8.74635 1.36927 7.49531 0L0 5.7276L0.611979 7.07396L9.94375 7.03073C10.0833 5.14167 9.72813 3.92865 9.39688 3.08073L9.39688 3.08073Z" transform="translate(13.8125 5.453644)" id="Shape" fill="#DCB988" fill-rule="evenodd" stroke="none" />
			<path d="M9.32083 2.8224C9.00417 2.01094 8.73021 1.26042 7.6 0L0 5.54271L0.541667 6.73125L9.84479 6.42708C9.94271 4.68906 9.6375 3.63333 9.32083 2.8224L9.32083 2.8224Z" transform="translate(13.888031 5.7052)" id="Shape" fill="#DFC090" fill-rule="evenodd" stroke="none" />
			<path d="M9.24531 2.56406C8.94271 1.78958 8.71511 1.15208 7.70521 0L0 5.35781L0.471355 6.38854L9.74636 5.82344C9.80209 4.23698 9.5474 3.33854 9.24531 2.56406L9.24531 2.56406Z" transform="translate(13.9635315 5.956238)" id="Shape" fill="#E3C797" fill-rule="evenodd" stroke="none" />
			<path d="M9.16875 2.30521C8.88073 1.56771 8.69844 1.04271 7.80937 0L0 5.1724L0.401042 6.04531L9.6474 5.21927C9.66094 3.78385 9.45677 3.04271 9.16875 2.30521L9.16875 2.30521Z" transform="translate(14.039581 6.2083435)" id="Shape" fill="#E6CE9F" fill-rule="evenodd" stroke="none" />
			<path d="M9.09271 2.04688C8.81927 1.34635 8.68281 0.934375 7.91406 0L0 4.9875L0.330729 5.70208L9.54896 4.6151C9.52031 3.33177 9.36615 2.7474 9.09271 2.04688L9.09271 2.04688Z" transform="translate(14.115112 6.4599)" id="Shape" fill="#EAD5A6" fill-rule="evenodd" stroke="none" />
			<path d="M9.01719 1.78854C8.75781 1.125 8.66719 0.825521 8.01927 0L0 4.8026L0.260417 5.35937L9.45 4.01146C9.37917 2.87917 9.27604 2.45208 9.01719 1.78854L9.01719 1.78854Z" transform="translate(14.190643 6.7114563)" id="Shape" fill="#EDDCAE" fill-rule="evenodd" stroke="none" />
			<path d="M8.94166 1.52969C8.69687 0.902604 8.65208 0.716667 8.12396 0L0 4.61719L0.190626 5.01615L9.35208 3.40729C9.23906 2.42656 9.18646 2.15677 8.94166 1.52969L8.94166 1.52969Z" transform="translate(14.265625 6.9630127)" id="Shape" fill="#F0E2B5" fill-rule="evenodd" stroke="none" />
			<path d="M8.86563 1.27135C8.63542 0.68125 8.63646 0.607812 8.22865 0L0 4.43229L0.120313 4.67344L9.25365 2.80365C9.09844 1.97396 9.09635 1.86146 8.86563 1.27135L8.86563 1.27135Z" transform="translate(14.341156 7.214569)" id="Shape" fill="#F4E9BD" fill-rule="evenodd" stroke="none" />
			<path d="M8.78958 1.01302C8.57344 0.459896 8.62031 0.499479 8.33333 0L0 4.24688L0.0500004 4.33021L9.15469 2.19948C8.95729 1.52187 9.00521 1.56614 8.78958 1.01302L8.78958 1.01302Z" transform="translate(14.417206 7.466156)" id="Shape" fill="#F7F0C4" fill-rule="evenodd" stroke="none" />
			<path d="M0 4.44635L6.63229 7.54635L7.89583 6.11667L3.50729 0C1.84583 1.19323 0.834375 2.64583 0 4.44635L0 4.44635Z" transform="translate(2.2494812 3.3135376)" id="Shape" fill="#D2A572" fill-rule="evenodd" stroke="none" />
			<path d="M0 4.15833L6.54896 7.30729L7.70521 6.00156L3.27969 0C1.7125 1.13125 0.794271 2.4599 0 4.15833L0 4.15833Z" transform="translate(2.3447876 3.449463)" id="Shape" fill="#D2A170" fill-rule="evenodd" stroke="none" />
			<path d="M0 3.87031L6.46615 7.06823L7.5151 5.88646L3.0526 0C1.57865 1.06927 0.754167 2.27344 0 3.87031L0 3.87031Z" transform="translate(2.440094 3.5859375)" id="Shape" fill="#D29D6E" fill-rule="evenodd" stroke="none" />
			<path d="M0 3.58177L6.38281 6.82917L7.32448 5.77135L2.825 0C1.44531 1.00677 0.713541 2.08698 0 3.58177L0 3.58177Z" transform="translate(2.535431 3.722412)" id="Shape" fill="#D29A6C" fill-rule="evenodd" stroke="none" />
			<path d="M0 3.29375L6.3 6.5901L7.13437 5.65625L2.59792 0C1.31198 0.94427 0.673958 1.90052 0 3.29375L0 3.29375Z" transform="translate(2.6302185 3.8588562)" id="Shape" fill="#D2966A" fill-rule="evenodd" stroke="none" />
			<path d="M0 3.00573L6.21667 6.35156L6.94375 5.54167L2.37031 0C1.17813 0.882292 0.633854 1.71458 0 3.00573L0 3.00573Z" transform="translate(2.725525 3.994812)" id="Shape" fill="#D29268" fill-rule="evenodd" stroke="none" />
			<path d="M0 2.71719L6.13385 6.11198L6.75365 5.42604L2.14271 0C1.04479 0.819791 0.593229 1.52812 0 2.71719L0 2.71719Z" transform="translate(2.8208313 4.131256)" id="Shape" fill="#D18E67" fill-rule="evenodd" stroke="none" />
			<path d="M0 2.42969L6.05052 5.87344L6.56302 5.31146L1.9151 0C0.910938 0.757813 0.553125 1.34219 0 2.42969L0 2.42969Z" transform="translate(2.9161377 4.2671814)" id="Shape" fill="#D18A65" fill-rule="evenodd" stroke="none" />
			<path d="M0 2.14115L5.96719 5.63385L6.37239 5.19583L1.68854 0C0.778125 0.695834 0.513542 1.15573 0 2.14115L0 2.14115Z" transform="translate(3.0109558 4.4036255)" id="Shape" fill="#D18663" fill-rule="evenodd" stroke="none" />
			<path d="M0 1.85312L5.88437 5.39531L6.18229 5.08125L1.46094 0C0.644271 0.633333 0.472917 0.969271 0 1.85312L0 1.85312Z" transform="translate(3.1062317 4.5401)" id="Shape" fill="#D18361" fill-rule="evenodd" stroke="none" />
			<path d="M0 1.5651L5.80104 5.15625L5.99167 4.96563L1.23333 0C0.510417 0.571354 0.432813 0.783334 0 1.5651L0 1.5651Z" transform="translate(3.2015686 4.6760254)" id="Shape" fill="#D17F5F" fill-rule="evenodd" stroke="none" />
			<path d="M0 1.27656L5.71823 4.91667L5.80156 4.85L1.00573 0C0.377083 0.508854 0.392708 0.596875 0 1.27656L0 1.27656Z" transform="translate(3.296875 4.8125)" id="Shape" fill="#D17B5D" fill-rule="evenodd" stroke="none" />
			<g id="Group" transform="translate(5.765106 1.2359314)">
				<path d="M2.5349 0.714583C1.57552 1.08906 0.794271 1.55677 0 2.13594L4.38021 8.19479L6.17552 7.46354L5.27813 0C4.30208 0.111979 3.49323 0.340104 2.5349 0.714583L2.5349 0.714583Z" id="Shape" fill="#D2A572" fill-rule="evenodd" stroke="none" />
				<path d="M2.37344 0.672917C1.45104 1.03333 0.767708 1.42917 0 1.98177L4.28229 8.06614L5.93229 7.39687L4.9349 0C3.99688 0.114063 3.29531 0.313021 2.37344 0.672917L2.37344 0.672917Z" transform="translate(0.15312195 0.053131104)" id="Shape" fill="#D4A974" fill-rule="evenodd" stroke="none" />
				<path d="M2.21146 0.63125C1.32604 0.977083 0.740624 1.30104 0 1.82708L4.1849 7.93646L5.6901 7.32917L4.59115 0C3.69062 0.115104 3.09583 0.285937 2.21146 0.63125L2.21146 0.63125Z" transform="translate(0.30729675 0.10675049)" id="Shape" fill="#D5AD77" fill-rule="evenodd" stroke="none" />
				<path d="M2.05 0.589063C1.20156 0.920312 0.714062 1.17292 0 1.6724L4.0875 7.80729L5.4474 7.26198L4.24844 0C3.38542 0.116667 2.89792 0.258333 2.05 0.589063L2.05 0.589063Z" transform="translate(0.4604187 0.16043091)" id="Shape" fill="#D7B179" fill-rule="evenodd" stroke="none" />
				<path d="M1.88802 0.547396C1.07656 0.864062 0.686979 1.04531 0 1.51823L3.98958 7.67812L5.20469 7.19479L3.90521 0C3.08021 0.118229 2.69896 0.230729 1.88802 0.547396L1.88802 0.547396Z" transform="translate(0.61405945 0.21408081)" id="Shape" fill="#D9B57B" fill-rule="evenodd" stroke="none" />
				<path d="M1.72656 0.505729C0.952084 0.808333 0.660417 0.917708 0 1.36406L3.89219 7.54948L4.96198 7.12812L3.5625 0C2.775 0.119271 2.50104 0.203125 1.72656 0.505729L1.72656 0.505729Z" transform="translate(0.7671814 0.2677002)" id="Shape" fill="#DAB97E" fill-rule="evenodd" stroke="none" />
				<path d="M1.56458 0.463542C0.827083 0.751562 0.633333 0.789063 0 1.20885L3.79479 7.41927L4.71979 7.05937L3.21875 0C2.46927 0.120833 2.30208 0.175521 1.56458 0.463542L1.56458 0.463542Z" transform="translate(0.9208374 0.3213501)" id="Shape" fill="#DCBC80" fill-rule="evenodd" stroke="none" />
				<path d="M1.40313 0.421875C0.702604 0.695313 0.606771 0.661458 0 1.05469L3.69687 7.29062L4.47656 6.99271L2.87552 0C2.16354 0.122396 2.10312 0.148438 1.40313 0.421875L1.40313 0.421875Z" transform="translate(1.0744781 0.375)" id="Shape" fill="#DDC083" fill-rule="evenodd" stroke="none" />
				<path d="M1.24115 0.379687C0.577604 0.639062 0.579688 0.533333 0 0.9L3.59948 7.16094L4.23438 6.925L2.53229 0C1.85781 0.123437 1.90469 0.120833 1.24115 0.379687L1.24115 0.379687Z" transform="translate(1.2281189 0.4286499)" id="Shape" fill="#DFC485" fill-rule="evenodd" stroke="none" />
				<path d="M1.07969 0.338021C0.452604 0.582813 0.553125 0.40573 0 0.745834L3.50208 7.03229L3.99167 6.85833L2.18958 0C1.5526 0.125001 1.70625 0.0932297 1.07969 0.338021L1.07969 0.338021Z" transform="translate(1.3812408 0.4822998)" id="Shape" fill="#E1C887" fill-rule="evenodd" stroke="none" />
				<path d="M0.917708 0.296354C0.327604 0.526563 0.526042 0.278125 0 0.591667L3.40417 6.90312L3.74896 6.79115L1.84635 0C1.24687 0.126042 1.50781 0.0656251 0.917708 0.296354L0.917708 0.296354Z" transform="translate(1.5348969 0.5359192)" id="Shape" fill="#E2CC8A" fill-rule="evenodd" stroke="none" />
				<path d="M0.75625 0.254688C0.203125 0.470833 0.499479 0.15 0 0.436979L3.30677 6.77396L3.50625 6.72396L1.50312 0C0.941667 0.128125 1.30937 0.0390626 0.75625 0.254688L0.75625 0.254688Z" transform="translate(1.6880188 0.5890808)" id="Shape" fill="#E4D08C" fill-rule="evenodd" stroke="none" />
			</g>
			<g id="Group" transform="translate(11.040619 1.0773621)">
				<path d="M0 0.0861861L0.816667 6.97317L3.04427 7.32212L5.88646 0.889832C4.0526 0.130978 2.03073 -0.161731 0 0.0861861L0 0.0861861Z" id="Shape" fill="#D2A572" fill-rule="evenodd" stroke="none" />
				<path d="M0 0.0793327L0.720834 6.97256L2.77292 7.28662L5.50938 0.829853C3.74792 0.115791 1.94427 -0.147751 0 0.0793327L0 0.0793327Z" transform="translate(0.18333435 0.0037231445)" id="Shape" fill="#CFA470" fill-rule="evenodd" stroke="none" />
				<path d="M0 0.0722591L0.625 6.97174L2.50156 7.25143L5.13229 0.770176C3.44271 0.100384 1.85833 -0.13347 0 0.0722591L0 0.0722591Z" transform="translate(0.3666687 0.0076904297)" id="Shape" fill="#CDA26D" fill-rule="evenodd" stroke="none" />
				<path d="M0 0.0653356L0.529688 6.97107L2.23125 7.21586L4.75625 0.710649C3.1375 0.0856482 1.7724 -0.11956 0 0.0653356L0 0.0653356Z" transform="translate(0.55000305 0.011474609)" id="Shape" fill="#CAA16B" fill-rule="evenodd" stroke="none" />
				<path d="M0 0.0582787L0.433854 6.96974L1.9599 7.17963L4.37917 0.649946C2.83229 0.0702579 1.68594 -0.105263 0 0.0582787L0 0.0582787Z" transform="translate(0.73332214 0.015411377)" id="Shape" fill="#C7A068" fill-rule="evenodd" stroke="none" />
				<path d="M0 0.0512029L0.338021 6.96891L1.68906 7.14443L4.0026 0.590786C2.52708 0.0548487 1.6 -0.0909846 0 0.0512029L0 0.0512029Z" transform="translate(0.91667175 0.019348145)" id="Shape" fill="#C59F66" fill-rule="evenodd" stroke="none" />
				<path d="M0 0.0443601L0.242188 6.96832L1.41771 7.10894L3.62552 0.530819C2.2224 0.0396726 1.51406 -0.076994 0 0.0443601L0 0.0443601Z" transform="translate(1.1000061 0.023071289)" id="Shape" fill="#C29D63" fill-rule="evenodd" stroke="none" />
				<path d="M0 0.0372998L0.146875 6.96751L1.1474 7.07324L3.24896 0.471154C1.91719 0.0242791 1.42812 -0.0627001 0 0.0372998L0 0.0372998Z" transform="translate(1.2833252 0.027008057)" id="Shape" fill="#C09C61" fill-rule="evenodd" stroke="none" />
				<path d="M0 0.0304732L0.0510414 6.96641L0.876041 7.03724L2.8724 0.411202C1.61198 0.00911901 1.34167 -0.0486935 0 0.0304732L0 0.0304732Z" transform="translate(1.4666748 0.030700684)" id="Shape" fill="#BD9B5E" fill-rule="evenodd" stroke="none" />
				<path d="M0.0447909 0.0234303L0 6.96614L0.65 7.0026L2.54063 0.352076C1.35156 -0.00625725 1.30052 -0.0343822 0.0447909 0.0234303L0.0447909 0.0234303Z" transform="translate(1.6052094 0.03463745)" id="Shape" fill="#BA9A5C" fill-rule="evenodd" stroke="none" />
				<path d="M0.140625 0.0167372L0 6.96518L0.474479 6.96674L2.25885 0.292258C1.14271 -0.0218044 1.31042 -0.0202419 0.140625 0.0167372L0.140625 0.0167372Z" transform="translate(1.6927032 0.038726807)" id="Shape" fill="#B89859" fill-rule="evenodd" stroke="none" />
				<path d="M0.236459 0.0100013L0 6.96469L0.298958 6.93136L1.9776 0.232397C0.932814 -0.0363529 1.31927 -0.00614449 0.236459 0.0100013L0.236459 0.0100013Z" transform="translate(1.7807312 0.04232788)" id="Shape" fill="#B59757" fill-rule="evenodd" stroke="none" />
			</g>
			<g id="Group" transform="translate(1.1004944 11.4583435)">
				<path d="M0.689097 4.98646C1.06358 5.94583 1.52035 7.14739 3.13233 8.84271L10.3131 2.55938L9.49014 0.739064L0.0739933 0C-0.191632 2.34375 0.315139 4.02812 0.689097 4.98646L0.689097 4.98646Z" id="Shape" fill="#D2A572" fill-rule="evenodd" stroke="none" />
				<path d="M0.651563 4.64114C1.01198 5.56354 1.4224 6.65208 2.91458 8.23906L10.2 2.14063L9.4474 0.478646L0.0593752 0C-0.164583 2.19219 0.291667 3.71927 0.651563 4.64114L0.651563 4.64114Z" transform="translate(0.03805542 0.3526001)" id="Shape" fill="#D5AC79" fill-rule="evenodd" stroke="none" />
				<path d="M0.614222 4.29583C0.960055 5.18125 1.32516 6.15729 2.69651 7.63542L10.0871 1.7224L9.40485 0.218228L0.044951 0C-0.13682 2.04114 0.268909 3.41094 0.614222 4.29583L0.614222 4.29583Z" transform="translate(0.07539368 0.7046814)" id="Shape" fill="#D9B381" fill-rule="evenodd" stroke="none" />
				<path d="M0.578054 3.99323C0.909304 4.84167 1.22857 5.70469 2.47962 7.07396L9.97493 1.34635L9.36295 0L0.0311792 0.0432302C-0.108404 1.93229 0.246804 3.14531 0.578054 3.99323L0.578054 3.99323Z" transform="translate(0.112091064 1.0140686)" id="Shape" fill="#DCB988" fill-rule="evenodd" stroke="none" />
				<path d="M0.542912 3.90885C0.859578 4.72031 1.13354 5.47083 2.26375 6.73125L9.86374 1.18854L9.32208 0L0.0184326 0.304165C-0.0789632 2.04219 0.226245 3.09792 0.542912 3.90885L0.542912 3.90885Z" transform="translate(0.14775085 1.1052246)" id="Shape" fill="#DFC090" fill-rule="evenodd" stroke="none" />
				<path d="M0.508747 3.82448C0.811352 4.59896 1.03896 5.23646 2.04885 6.38854L9.75406 1.03073L9.28271 0L0.00770576 0.565104C-0.0480235 2.15156 0.206664 3.05 0.508747 3.82448L0.508747 3.82448Z" transform="translate(0.18191528 1.1968689)" id="Shape" fill="#E3C797" fill-rule="evenodd" stroke="none" />
				<path d="M0.479282 3.7401C0.767302 4.4776 0.949594 5.0026 1.83866 6.04531L9.64803 0.872917L9.24699 0L0.000635783 0.826043C-0.0129059 2.26146 0.191261 3.00261 0.479282 3.7401L0.479282 3.7401Z" transform="translate(0.2118988 1.2880249)" id="Shape" fill="#E6CE9F" fill-rule="evenodd" stroke="none" />
				<path d="M0.45625 3.65521C0.729687 4.35573 0.866146 4.76771 1.6349 5.70208L9.54896 0.714583L9.21823 0L0 1.08698C0.0286457 2.37031 0.182812 2.95469 0.45625 3.65521L0.45625 3.65521Z" transform="translate(0.23545837 1.3796692)" id="Shape" fill="#EAD5A6" fill-rule="evenodd" stroke="none" />
				<path d="M0.433333 3.57083C0.692708 4.23438 0.783333 4.53385 1.43125 5.35937L9.45052 0.556771L9.1901 0L0 1.34792C0.0713542 2.48021 0.174479 2.90729 0.433333 3.57083L0.433333 3.57083Z" transform="translate(0.25836182 1.4708252)" id="Shape" fill="#EDDCAE" fill-rule="evenodd" stroke="none" />
				<path d="M0.410417 3.48646C0.655209 4.11354 0.7 4.29948 1.22813 5.01614L9.35208 0.398959L9.16146 0L0 1.60885C0.113021 2.58958 0.165625 2.85937 0.410417 3.48646L0.410417 3.48646Z" transform="translate(0.28179932 1.5625)" id="Shape" fill="#F0E2B5" fill-rule="evenodd" stroke="none" />
				<path d="M0.388021 3.40208C0.618229 3.99219 0.617188 4.06562 1.025 4.67344L9.25365 0.241145L9.13333 0L0 1.86979C0.155208 2.69948 0.157292 2.81198 0.388021 3.40208L0.388021 3.40208Z" transform="translate(0.30471802 1.6536255)" id="Shape" fill="#F4E9BD" fill-rule="evenodd" stroke="none" />
				<path d="M0.365104 3.31719C0.58125 3.87031 0.534375 3.83073 0.821354 4.33021L9.15469 0.0833332L9.10469 0L0 2.13073C0.197396 2.80833 0.149479 2.76406 0.365104 3.31719L0.365104 3.31719Z" transform="translate(0.32763672 1.7453308)" id="Shape" fill="#F7F0C4" fill-rule="evenodd" stroke="none" />
			</g>
			<g id="Group" transform="translate(14.716156 14.483337)">
				<path d="M7.97865 3.00885L1.52917 0L0 1.35469L4.37188 7.38021C6.03333 6.18698 7.14427 4.80938 7.97865 3.00885L7.97865 3.00885Z" id="Shape" fill="#D2A572" fill-rule="evenodd" stroke="none" />
				<path d="M7.78073 3.07969L1.39792 0L0 1.2375L4.41042 7.16979C5.9776 6.03906 6.98646 4.77813 7.78073 3.07969L7.78073 3.07969Z" transform="translate(0.0864563 0.080200195)" id="Shape" fill="#D2A170" fill-rule="evenodd" stroke="none" />
				<path d="M7.58281 3.15052L1.26615 0L0 1.12031L4.44844 6.95938C5.9224 5.89062 6.82865 4.74739 7.58281 3.15052L7.58281 3.15052Z" transform="translate(0.1723938 0.16043091)" id="Shape" fill="#D29D6E" fill-rule="evenodd" stroke="none" />
				<path d="M7.3849 3.22188L1.1349 0L0 1.00365L4.48698 6.74948C5.86719 5.74219 6.67136 4.71667 7.3849 3.22188L7.3849 3.22188Z" transform="translate(0.2583313 0.2406311)" id="Shape" fill="#D29A6C" fill-rule="evenodd" stroke="none" />
				<path d="M7.18646 3.29271L1.00313 0L0 0.886458L4.52552 6.53906C5.81094 5.59427 6.5125 4.68542 7.18646 3.29271L7.18646 3.29271Z" transform="translate(0.3453064 0.3208313)" id="Shape" fill="#D2966A" fill-rule="evenodd" stroke="none" />
				<path d="M6.98906 3.36354L0.871875 0L0 0.76927L4.56406 6.32864C5.75625 5.44583 6.35521 4.65469 6.98906 3.36354L6.98906 3.36354Z" transform="translate(0.4307251 0.4010315)" id="Shape" fill="#D29268" fill-rule="evenodd" stroke="none" />
				<path d="M6.79115 3.4349L0.740626 0L0 0.652084L4.60261 6.11823C5.70104 5.29844 6.19792 4.62396 6.79115 3.4349L6.79115 3.4349Z" transform="translate(0.5166626 0.4807434)" id="Shape" fill="#D18E67" fill-rule="evenodd" stroke="none" />
				<path d="M6.59271 3.50573L0.608855 0L0 0.534896L4.64115 5.90781C5.64479 5.15 6.03906 4.59323 6.59271 3.50573L6.59271 3.50573Z" transform="translate(0.6036377 0.5609436)" id="Shape" fill="#D18A65" fill-rule="evenodd" stroke="none" />
				<path d="M6.39531 3.57708L0.477604 0L0 0.417708L4.67969 5.6974C5.59011 5.00261 5.88229 4.5625 6.39531 3.57708L6.39531 3.57708Z" transform="translate(0.6890564 0.640625)" id="Shape" fill="#D18663" fill-rule="evenodd" stroke="none" />
				<path d="M6.19688 3.64792L0.345833 0L0 0.300521L4.71823 5.48698C5.53438 4.85417 5.72396 4.53177 6.19688 3.64792L6.19688 3.64792Z" transform="translate(0.7755127 0.7208252)" id="Shape" fill="#D18361" fill-rule="evenodd" stroke="none" />
				<path d="M5.99896 3.71875L0.214584 0L0 0.183854L4.75677 5.27708C5.47969 4.70625 5.56615 4.50104 5.99896 3.71875L5.99896 3.71875Z" transform="translate(0.8614502 0.8010254)" id="Shape" fill="#D17F5F" fill-rule="evenodd" stroke="none" />
				<path d="M5.80156 3.7901L0.0833333 0L0 0.0666668L4.79531 5.06667C5.42448 4.55781 5.40885 4.46979 5.80156 3.7901L5.80156 3.7901Z" transform="translate(0.94740295 0.8812561)" id="Shape" fill="#D17B5D" fill-rule="evenodd" stroke="none" />
			</g>
			<g id="Group" transform="translate(12.9375 16.095825)">
				<path d="M3.62604 7.10313C4.58542 6.72864 5.45573 6.22969 6.24948 5.65052L1.99479 0L0 0.631772L0.714583 7.8125C1.69063 7.7 2.66771 7.47708 3.62604 7.10313L3.62604 7.10313Z" id="Shape" fill="#D2A572" fill-rule="evenodd" stroke="none" />
				<path d="M3.54479 7.06979C4.46719 6.70937 5.22344 6.27083 5.99115 5.71823L1.83125 0L0 0.580207L0.83125 7.73854C1.76823 7.62448 2.62292 7.42969 3.54479 7.06979L3.54479 7.06979Z" transform="translate(0.08854675 0.026031494)" id="Shape" fill="#D4A974" fill-rule="evenodd" stroke="none" />
				<path d="M3.4651 7.0375C4.35052 6.69167 4.99323 6.3125 5.73385 5.78646L1.66823 0L0 0.528646L0.947396 7.66406C1.84792 7.54896 2.58021 7.38281 3.4651 7.0375L3.4651 7.0375Z" transform="translate(0.17552185 0.051574707)" id="Shape" fill="#D5AD77" fill-rule="evenodd" stroke="none" />
				<path d="M3.3849 7.00521C4.23333 6.67396 4.7625 6.35417 5.47604 5.85469L1.50521 0L0 0.477604L1.06406 7.59063C1.92656 7.47396 2.53698 7.33594 3.3849 7.00521L3.3849 7.00521Z" transform="translate(0.263031 0.0770874)" id="Shape" fill="#D7B179" fill-rule="evenodd" stroke="none" />
				<path d="M3.30417 6.97187C4.11563 6.65521 4.53073 6.39531 5.21771 5.9224L1.34167 0L0 0.426042L1.18021 7.51615C2.00521 7.39844 2.49323 7.28854 3.30417 6.97187L3.30417 6.97187Z" transform="translate(0.3510437 0.1031189)" id="Shape" fill="#D9B57B" fill-rule="evenodd" stroke="none" />
				<path d="M3.22344 6.93958C3.99792 6.63698 4.29948 6.43698 4.9599 5.99062L1.17865 0L0 0.375L1.29635 7.44271C2.08333 7.32292 2.44896 7.24167 3.22344 6.93958L3.22344 6.93958Z" transform="translate(0.4390564 0.12866211)" id="Shape" fill="#DAB97E" fill-rule="evenodd" stroke="none" />
				<path d="M3.14375 6.90729C3.88125 6.61927 4.06927 6.47865 4.7026 6.05885L1.01563 0L0 0.323438L1.41302 7.36823C2.1625 7.24792 2.40625 7.19479 3.14375 6.90729L3.14375 6.90729Z" transform="translate(0.52604675 0.1541748)" id="Shape" fill="#DCBC80" fill-rule="evenodd" stroke="none" />
				<path d="M3.06302 6.87396C3.76354 6.60052 3.8375 6.51979 4.44427 6.12656L0.852083 0L0 0.271875L1.52917 7.29427C2.24115 7.17188 2.3625 7.14792 3.06302 6.87396L3.06302 6.87396Z" transform="translate(0.61405945 0.1802063)" id="Shape" fill="#DDC083" fill-rule="evenodd" stroke="none" />
				<path d="M2.98281 6.84167C3.64635 6.58229 3.60677 6.56146 4.18646 6.19479L0.689063 0L0 0.220833L1.64583 7.22031C2.31979 7.09687 2.31927 7.10104 2.98281 6.84167L2.98281 6.84167Z" transform="translate(0.7015686 0.205719)" id="Shape" fill="#DFC485" fill-rule="evenodd" stroke="none" />
				<path d="M2.90261 6.80885C3.52969 6.56406 3.37604 6.60312 3.92865 6.26302L0.526042 0L0 0.169271L1.76198 7.14635C2.39896 7.02083 2.27552 7.05364 2.90261 6.80885L2.90261 6.80885Z" transform="translate(0.78904724 0.231781)" id="Shape" fill="#E1C887" fill-rule="evenodd" stroke="none" />
				<path d="M2.82187 6.77656C3.41198 6.54635 3.14427 6.64479 3.67083 6.33125L0.3625 0L0 0.117708L1.87813 7.07187C2.47708 6.94635 2.23177 7.00729 2.82187 6.77656L2.82187 6.77656Z" transform="translate(0.8770752 0.2567749)" id="Shape" fill="#E2CC8A" fill-rule="evenodd" stroke="none" />
				<path d="M2.74167 6.74427C3.29479 6.52812 2.91354 6.68646 3.41302 6.39948L0.199479 0L0 0.0666668L1.99479 6.99844C2.55625 6.87083 2.18854 6.96042 2.74167 6.74427L2.74167 6.74427Z" transform="translate(0.96458435 0.2822876)" id="Shape" fill="#E4D08C" fill-rule="evenodd" stroke="none" />
			</g>
			<g id="Group" transform="translate(7.981781 16.279175)">
				<path d="M5.88698 7.54636L4.95573 0.315626L3.12708 0L0 6.74323C1.83385 7.50156 3.85625 7.79427 5.88698 7.54636L5.88698 7.54636Z" id="Shape" fill="#D2A572" fill-rule="evenodd" stroke="none" />
				<path d="M5.50989 7.54219L4.70417 0.31875L3.03125 0L0 6.79115C1.76198 7.50573 3.56562 7.76927 5.50989 7.54219L5.50989 7.54219Z" transform="translate(0.1895752 0.0010375977)" id="Shape" fill="#CFA470" fill-rule="evenodd" stroke="none" />
				<path d="M5.13333 7.5375L4.45312 0.321875L2.93594 0L0 6.83958C1.69062 7.50938 3.275 7.74323 5.13333 7.5375L5.13333 7.5375Z" transform="translate(0.37864685 0.0025939941)" id="Shape" fill="#CDA26D" fill-rule="evenodd" stroke="none" />
				<path d="M4.75625 7.53281L4.20156 0.325L2.8401 0L0 6.88802C1.61875 7.51302 2.98437 7.71771 4.75625 7.53281L4.75625 7.53281Z" transform="translate(0.5682373 0.0041503906)" id="Shape" fill="#CAA16B" fill-rule="evenodd" stroke="none" />
				<path d="M4.37969 7.52865L3.95052 0.328125L2.74479 0L0 6.93646C1.54687 7.51719 2.69323 7.69271 4.37969 7.52865L4.37969 7.52865Z" transform="translate(0.7578125 0.005218506)" id="Shape" fill="#C7A068" fill-rule="evenodd" stroke="none" />
				<path d="M4.00208 7.52344L3.69844 0.330729L2.64844 0L0 6.98438C1.475 7.51979 2.40208 7.66563 4.00208 7.52344L4.00208 7.52344Z" transform="translate(0.9479065 0.0078125)" id="Shape" fill="#C59F66" fill-rule="evenodd" stroke="none" />
				<path d="M3.62604 7.51927L3.44792 0.333855L2.55313 0L0 7.03281C1.40417 7.52396 2.11198 7.64063 3.62604 7.51927L3.62604 7.51927Z" transform="translate(1.1364594 0.008850098)" id="Shape" fill="#C29D63" fill-rule="evenodd" stroke="none" />
				<path d="M3.24948 7.51458L3.19635 0.336979L2.45729 0L0 7.08125C1.33281 7.52761 1.82188 7.61511 3.24948 7.51458L3.24948 7.51458Z" transform="translate(1.3255157 0.010406494)" id="Shape" fill="#C09C61" fill-rule="evenodd" stroke="none" />
				<path d="M2.8724 7.51042L2.94479 0.340104L2.36146 0L0 7.12917C1.26042 7.53177 1.53073 7.58958 2.8724 7.51042L2.8724 7.51042Z" transform="translate(1.515625 0.011474609)" id="Shape" fill="#BD9B5E" fill-rule="evenodd" stroke="none" />
				<path d="M2.49531 7.50573L2.69323 0.343229L2.26563 0L0 7.17761C1.18854 7.53594 1.23958 7.56406 2.49531 7.50573L2.49531 7.50573Z" transform="translate(1.7052155 0.013031006)" id="Shape" fill="#BA9A5C" fill-rule="evenodd" stroke="none" />
				<path d="M2.11823 7.50104L2.44167 0.345833L2.16979 0L0 7.22604C1.11667 7.53906 0.948958 7.53802 2.11823 7.50104L2.11823 7.50104Z" transform="translate(1.8948059 0.015106201)" id="Shape" fill="#B89859" fill-rule="evenodd" stroke="none" />
				<path d="M1.74167 7.49636L2.19062 0.348958L2.07448 0L0 7.27396C1.04531 7.54271 0.658333 7.51198 1.74167 7.49636L1.74167 7.49636Z" transform="translate(2.083847 0.016662598)" id="Shape" fill="#B59757" fill-rule="evenodd" stroke="none" />
			</g>
			<path d="M4.6875 0C2.09844 0 0 2.09844 0 4.6875C0 7.27656 2.09844 9.375 4.6875 9.375C7.27656 9.375 9.375 7.27656 9.375 4.6875C9.375 2.09844 7.27656 0 4.6875 0L4.6875 0ZM4.6875 6.25C3.82448 6.25 3.125 5.55052 3.125 4.6875C3.125 3.82448 3.82448 3.125 4.6875 3.125C5.55052 3.125 6.25 3.82448 6.25 4.6875C6.25 5.55052 5.55052 6.25 4.6875 6.25L4.6875 6.25Z" transform="translate(7.8125 7.8125)" id="Shape" fill="url(#gradient_2)" fill-rule="evenodd" stroke="none" />
			<path d="M3.64583 0C1.63229 0 0 1.63229 0 3.64583C0 5.65937 1.63229 7.29167 3.64583 7.29167C5.65937 7.29167 7.29167 5.65937 7.29167 3.64583C7.29167 1.63229 5.65937 0 3.64583 0L3.64583 0ZM3.64583 5.20834C2.78281 5.20834 2.08333 4.50886 2.08333 3.64584C2.08333 2.78282 2.78281 2.08334 3.64583 2.08334C4.50885 2.08334 5.20833 2.78282 5.20833 3.64584C5.20833 4.50886 4.50885 5.20834 3.64583 5.20834L3.64583 5.20834Z" transform="translate(8.8541565 8.8541565)" id="Shape" fill="url(#gradient_3)" fill-rule="evenodd" stroke="none" />
			<path d="M11.4583 0C5.13021 0 0 5.13021 0 11.4583C0 17.7865 5.13021 22.9167 11.4583 22.9167C17.7865 22.9167 22.9167 17.7865 22.9167 11.4583C22.9167 5.13021 17.7865 0 11.4583 0L11.4583 0ZM11.4583 22.7313C5.23282 22.7313 0.185425 17.6844 0.185425 11.4583C0.185425 5.2323 5.23282 0.185425 11.4583 0.185425C17.6839 0.185425 22.7313 5.23282 22.7313 11.4583C22.7313 17.6839 17.6839 22.7313 11.4583 22.7313L11.4583 22.7313Z" transform="translate(1.0416565 1.0416565)" id="Shape" fill="url(#gradient_4)" fill-rule="evenodd" stroke="none" />
			<path d="M2.08333 0C0.932813 0 0 0.932813 0 2.08333C0 3.23385 0.932813 4.16667 2.08333 4.16667C3.23385 4.16667 4.16667 3.23385 4.16667 2.08333C4.16667 0.932813 3.23385 0 2.08333 0L2.08333 0ZM2.08333 3.64584C1.22031 3.64584 0.520828 2.94636 0.520828 2.08334C0.520828 1.22032 1.22031 0.520844 2.08333 0.520844C2.94635 0.520844 3.64583 1.22032 3.64583 2.08334C3.64583 2.94636 2.94635 3.64584 2.08333 3.64584L2.08333 3.64584Z" transform="translate(10.4166565 10.4166565)" id="Shape" fill="#E2E2E2" fill-rule="evenodd" stroke="none" />
		</g>
	</g>
</svg> 