<?xml version="1.0" encoding="utf-8"?>
<svg width="48px" height="48px" viewBox="0 0 48 48" version="1.1" xmlns:xlink="http://www.w3.org/1999/xlink" xmlns="http://www.w3.org/2000/svg">
  <defs>
    <linearGradient gradientUnits="userSpaceOnUse" x1="0" y1="12.499998" x2="12" y2="12.499998" id="gradient_1">
      <stop offset="0%" stop-color="#7819A2" />
      <stop offset="100%" stop-color="#771AA9" />
    </linearGradient>
    <linearGradient gradientUnits="userSpaceOnUse" x1="0" y1="1.5" x2="12" y2="1.5" id="gradient_2">
      <stop offset="0%" stop-color="#912FBD" />
      <stop offset="100%" stop-color="#9332BF" />
    </linearGradient>
    <path d="M0 0L48 0L48 48L0 48L0 0Z" id="path_1" />
    <clipPath id="clip_1">
      <use xlink:href="#path_1" />
    </clipPath>
  </defs>
  <g id="Course Assign" clip-path="url(#clip_1)">
    <path d="M0 0L48 0L48 48L0 48L0 0Z" id="Course-Assign" fill="none" fill-rule="evenodd" stroke="none" />
    <path d="M7 42L17 42C17.552 42 18 41.552 18 41L18 6C18 5.448 17.552 5 17 5L7 5C6.448 5 6 5.448 6 6L6 41C6 41.552 6.448 42 7 42L7 42Z" id="Shape" fill="#027AD4" stroke="none" />
    <path d="M31 42L41 42C41.552 42 42 41.552 42 41L42 6C42 5.448 41.552 5 41 5L31 5C30.448 5 30 5.448 30 6L30 41C30 41.552 30.448 42 31 42L31 42Z" id="Shape" fill="#AF2031" stroke="none" />
    <path d="M19 42L29 42C29.552 42 30 41.552 30 41L30 18C30 17.448 29.552 17 29 17L19 17C18.448 17 18 17.448 18 18L18 41C18 41.552 18.448 42 19 42L19 42Z" id="Shape" fill="url(#gradient_1)" stroke="none" />
    <path d="M6 9L18 9L18 12L6 12L6 9Z" id="Rectangle" fill="#25A2E5" fill-rule="evenodd" stroke="none" />
    <path d="M18 20L30 20L30 23L18 23L18 20Z" id="Rectangle" fill="url(#gradient_2)" fill-rule="evenodd" stroke="none" />
    <path d="M18 35L30 35L30 38L18 38L18 35Z" id="Rectangle" fill="url(#gradient_2)" fill-rule="evenodd" stroke="none" />
    <path d="M6 35L18 35L18 38L6 38L6 35Z" id="Rectangle" fill="#25A2E5" fill-rule="evenodd" stroke="none" />
    <path d="M30 9L42 9L42 12L30 12L30 9Z" id="Rectangle" fill="#C94F60" fill-rule="evenodd" stroke="none" />
    <path d="M30 35L42 35L42 38L30 38L30 35Z" id="Rectangle" fill="#C94F60" fill-rule="evenodd" stroke="none" />
  </g>
</svg>