<?xml version="1.0" encoding="utf-8"?>
<svg width="48px" height="48px" viewBox="0 0 48 48" version="1.1" xmlns:xlink="http://www.w3.org/1999/xlink" xmlns="http://www.w3.org/2000/svg">
	<defs>
		<linearGradient x1="0.048090935" y1="0.952" x2="0.5090909" y2="0.49090907" id="gradient_1">
			<stop offset="0" stop-color="#3079D6" />
			<stop offset="1" stop-color="#297CD2" />
		</linearGradient>
		<linearGradient x1="0.15946154" y1="0.14470297" x2="0.87130773" y2="0.8873995" id="gradient_2">
			<stop offset="0" stop-color="#889097" />
			<stop offset="0.33099997" stop-color="#848C94" />
			<stop offset="0.669" stop-color="#78828B" />
			<stop offset="1" stop-color="#64717C" />
		</linearGradient>
		<linearGradient x1="0.8483572" y1="0.8483572" x2="0.14700001" y2="0.14700007" id="gradient_3">
			<stop offset="0" stop-color="#FFFFFF" />
			<stop offset="0.242" stop-color="#F2F2F2" />
			<stop offset="1" stop-color="#CCCCCC" />
		</linearGradient>
		<linearGradient x1="0.032151937" y1="0.032152176" x2="0.8528513" y2="0.85285115" id="gradient_4">
			<stop offset="0" stop-color="#0D61A9" />
			<stop offset="0.36299998" stop-color="#0E5FA4" />
			<stop offset="0.78" stop-color="#135796" />
			<stop offset="1" stop-color="#16528C" />
		</linearGradient>
		<linearGradient x1="0.032124996" y1="0.032124996" x2="0.852875" y2="0.85287523" id="gradient_5">
			<stop offset="0" stop-color="#0D61A9" />
			<stop offset="0.36299998" stop-color="#0E5FA4" />
			<stop offset="0.78" stop-color="#135796" />
			<stop offset="1" stop-color="#16528C" />
		</linearGradient>
		<linearGradient x1="0.08243775" y1="0.25906506" x2="0.955294" y2="0.76279163" id="gradient_6">
			<stop offset="0" stop-color="#889097" />
			<stop offset="0.33099997" stop-color="#848C94" />
			<stop offset="0.669" stop-color="#78828B" />
			<stop offset="1" stop-color="#64717C" />
		</linearGradient>
		<linearGradient x1="0.92662024" y1="0.7463621" x2="0.067655325" y2="0.25041842" id="gradient_7">
			<stop offset="0" stop-color="#FFFFFF" />
			<stop offset="0.242" stop-color="#F2F2F2" />
			<stop offset="1" stop-color="#CCCCCC" />
		</linearGradient>
		<linearGradient x1="-0.072963715" y1="0.16925597" x2="0.9320967" y2="0.7495518" id="gradient_8">
			<stop offset="0" stop-color="#0D61A9" />
			<stop offset="0.36299998" stop-color="#0E5FA4" />
			<stop offset="0.78" stop-color="#135796" />
			<stop offset="1" stop-color="#16528C" />
		</linearGradient>
		<linearGradient x1="0.84831357" y1="0.8483136" x2="0.14696455" y2="0.14696461" id="gradient_9">
			<stop offset="0" stop-color="#FFFFFF" />
			<stop offset="0.242" stop-color="#F2F2F2" />
			<stop offset="1" stop-color="#CCCCCC" />
		</linearGradient>
		<linearGradient x1="0.032162666" y1="0.032162786" x2="0.8527589" y2="0.8527589" id="gradient_10">
			<stop offset="0" stop-color="#0D61A9" />
			<stop offset="0.36299998" stop-color="#0E5FA4" />
			<stop offset="0.78" stop-color="#135796" />
			<stop offset="1" stop-color="#16528C" />
		</linearGradient>
		<path d="M0 0L48 0L48 48L0 48L0 0Z" id="path_1" />
		<path d="M0 0L25 0L25 25L0 25L0 0Z" id="path_2" />
		<clipPath id="mask_1">
			<use xlink:href="#path_1" />
		</clipPath>
		<clipPath id="mask_2">
			<use xlink:href="#path_2" />
		</clipPath>
	</defs>
	<g id="icons8_file">
		<path d="M0 0L48 0L48 48L0 48L0 0Z" id="Background" fill="none" fill-rule="evenodd" stroke="none" />
		<g clip-path="url(#mask_1)">
			<path d="M30 11L30 36C30 37.105 29.105 38 28 38L2 38C0.895001 38 0 37.105 0 36L0 2C0 0.895 0.895001 0 2 0L19 0L30 11L30 11Z" transform="translate(9 5)" id="Shape" fill="#50E6FF" fill-rule="evenodd" stroke="none" />
			<path d="M0 0L0 9C0 10.105 0.895 11 2 11L11 11L0 0L0 0Z" transform="translate(28 5)" id="Shape" fill="url(#gradient_1)" fill-rule="evenodd" stroke="none" />
		</g>
	</g>
	<g id="icons8_services_2" transform="translate(11.174652 16.71428)">
		<path d="M0 0L25 0L25 25L0 25L0 0Z" id="Background" fill="none" fill-rule="evenodd" stroke="none" />
		<g clip-path="url(#mask_2)">
			<path d="M13.349 4.91042C12.5417 5.01302 11.7141 4.6349 11.2813 3.88542C10.849 3.13646 10.9349 2.23073 11.4271 1.58281C10.6625 0.856771 9.73125 0.30677 8.69323 0C8.37917 0.752082 7.63698 1.28125 6.77083 1.28125C5.90469 1.28125 5.1625 0.752082 4.84844 0C3.81042 0.307292 2.87917 0.856771 2.11458 1.58281C2.60677 2.23073 2.69271 3.13646 2.26042 3.88542C1.82813 4.63437 1.00052 5.01302 0.192708 4.91042C0.0713542 5.41771 0 5.94479 0 6.48958C0 7.03437 0.0713542 7.56146 0.192708 8.06875C1 7.96615 1.8276 8.34479 2.26042 9.09375C2.69271 9.84271 2.60677 10.7484 2.11458 11.3964C2.87917 12.1224 3.81042 12.6724 4.84844 12.9792C5.1625 12.2271 5.90469 11.6979 6.77083 11.6979C7.63698 11.6979 8.37917 12.2271 8.69323 12.9792C9.73125 12.6719 10.6625 12.1224 11.4271 11.3964C10.9349 10.7484 10.8484 9.8427 11.2813 9.09375C11.7135 8.34479 12.5411 7.96614 13.349 8.06875C13.4703 7.56146 13.5417 7.03437 13.5417 6.48958C13.5417 5.94479 13.4703 5.41771 13.349 4.91042L13.349 4.91042Z" transform="translate(2.0833435 10.697922)" id="Shape" fill="url(#gradient_2)" fill-rule="evenodd" stroke="none" />
			<path d="M0 3.64583C0 1.63229 1.6323 0 3.64583 0C5.65937 0 7.29167 1.63229 7.29167 3.64583C7.29167 5.65937 5.65937 7.29167 3.64583 7.29167C1.6323 7.29167 0 5.65937 0 3.64583Z" transform="translate(5.2083435 13.541672)" id="Circle" fill="url(#gradient_3)" fill-rule="evenodd" stroke="none" />
			<path d="M0 2.21927C0 0.993601 0.993601 0 2.21927 0C3.44494 0 4.43854 0.993601 4.43854 2.21927C4.43854 3.44494 3.44494 4.43854 2.21927 4.43854C0.993601 4.43854 0 3.44494 0 2.21927Z" transform="translate(6.6348877 14.968246)" id="Circle" fill="url(#gradient_4)" fill-rule="evenodd" stroke="none" />
			<path d="M13.349 4.91042C12.5417 5.01302 11.7141 4.6349 11.2813 3.88542C10.849 3.13646 10.9349 2.23073 11.4271 1.58281C10.6625 0.856771 9.73125 0.30677 8.69323 0C8.37917 0.752082 7.63698 1.28125 6.77083 1.28125C5.90469 1.28125 5.1625 0.752082 4.84844 0C3.81042 0.307292 2.87917 0.856771 2.11458 1.58281C2.60677 2.23073 2.69271 3.13646 2.26042 3.88542C1.82813 4.63437 1.00052 5.01302 0.192708 4.91042C0.0713542 5.41771 0 5.94479 0 6.48958C0 7.03437 0.0713542 7.56146 0.192708 8.06875C1 7.96615 1.8276 8.34479 2.26042 9.09375C2.69271 9.84271 2.60677 10.7484 2.11458 11.3964C2.87917 12.1224 3.81042 12.6724 4.84844 12.9792C5.1625 12.2271 5.90469 11.6979 6.77083 11.6979C7.63698 11.6979 8.37917 12.2271 8.69323 12.9792C9.73125 12.6719 10.6625 12.1224 11.4271 11.3964C10.9349 10.7484 10.8484 9.8427 11.2813 9.09375C11.7135 8.34479 12.5411 7.96614 13.349 8.06875C13.4703 7.56146 13.5417 7.03437 13.5417 6.48958C13.5417 5.94479 13.4703 5.41771 13.349 4.91042L13.349 4.91042Z" transform="translate(2.0833435 10.697922)" id="Shape" fill="url(#gradient_2)" fill-rule="evenodd" stroke="none" />
			<path d="M0 3.64583C0 1.63229 1.6323 0 3.64583 0C5.65937 0 7.29167 1.63229 7.29167 3.64583C7.29167 5.65937 5.65937 7.29167 3.64583 7.29167C1.6323 7.29167 0 5.65937 0 3.64583Z" transform="translate(5.2083435 13.541672)" id="Circle" fill="url(#gradient_3)" fill-rule="evenodd" stroke="none" />
			<path d="M0 2.08333C0 0.93274 0.93274 0 2.08333 0C3.23393 0 4.16667 0.93274 4.16667 2.08333C4.16667 3.23393 3.23393 4.16667 2.08333 4.16667C0.93274 4.16667 0 3.23393 0 2.08333Z" transform="translate(6.7708435 15.104172)" id="Circle" fill="url(#gradient_5)" fill-rule="evenodd" stroke="none" />
			<path d="M10.7656 2.9974C10.1271 3.25833 9.36719 3.13021 8.84896 2.61198C8.33073 2.09375 8.2026 1.33385 8.46354 0.695833C7.67865 0.269271 6.79583 0.0239583 5.87917 0C5.78698 0.684375 5.29583 1.28021 4.58698 1.47031C3.87812 1.66042 3.15469 1.3901 2.73281 0.843229C1.95052 1.32187 1.30937 1.97656 0.842708 2.73802C1.3875 3.16042 1.65677 3.88281 1.46719 4.59062C1.2776 5.29844 0.683333 5.78958 0 5.88281C0.0119795 6.325 0.0692705 6.77135 0.188541 7.21719C0.307812 7.66302 0.48177 8.07864 0.692708 8.46719C1.33125 8.20625 2.09115 8.33437 2.60937 8.8526C3.1276 9.37083 3.25573 10.1307 2.99479 10.7687C3.77969 11.1953 4.6625 11.4406 5.57917 11.4646C5.67135 10.7802 6.1625 10.1844 6.87135 9.99427C7.58021 9.80417 8.30365 10.0745 8.72552 10.6214C9.50781 10.1427 10.149 9.48802 10.6156 8.72656C10.0708 8.30416 9.80156 7.58177 9.99115 6.87396C10.1807 6.16614 10.775 5.675 11.4583 5.58177C11.4464 5.13958 11.3891 4.69323 11.2698 4.24739C11.1505 3.80208 10.9766 3.38646 10.7656 2.9974L10.7656 2.9974Z" transform="translate(11.9791565 1.559372)" id="Shape" fill="url(#gradient_6)" fill-rule="evenodd" stroke="none" />
			<path d="M0 3.08854C0 1.38279 1.38279 0 3.08854 0C4.7943 0 6.17708 1.38279 6.17708 3.08854C6.17708 4.7943 4.7943 6.17708 3.08854 6.17708C1.38279 6.17708 0 4.7943 0 3.08854Z" transform="translate(14.6197815 4.2031097)" id="Circle" fill="url(#gradient_7)" fill-rule="evenodd" stroke="none" />
			<path d="M0 1.88021C0 0.841798 0.841798 0 1.88021 0C2.91862 0 3.76042 0.841798 3.76042 1.88021C3.76042 2.91862 2.91862 3.76042 1.88021 3.76042C0.841798 3.76042 0 2.91862 0 1.88021Z" transform="translate(15.828125 5.4114532)" id="Circle" fill="url(#gradient_8)" fill-rule="evenodd" stroke="none" />
			<path d="M10.7656 2.9974C10.1271 3.25833 9.36719 3.13021 8.84896 2.61198C8.33073 2.09375 8.2026 1.33385 8.46354 0.695833C7.67865 0.269271 6.79583 0.0239583 5.87917 0C5.78698 0.684375 5.29583 1.28021 4.58698 1.47031C3.87812 1.66042 3.15469 1.3901 2.73281 0.843229C1.95052 1.32187 1.30937 1.97656 0.842708 2.73802C1.3875 3.16042 1.65677 3.88281 1.46719 4.59062C1.2776 5.29844 0.683333 5.78958 0 5.88281C0.0119795 6.325 0.0692705 6.77135 0.188541 7.21719C0.307812 7.66302 0.48177 8.07864 0.692708 8.46719C1.33125 8.20625 2.09115 8.33437 2.60937 8.8526C3.1276 9.37083 3.25573 10.1307 2.99479 10.7687C3.77969 11.1953 4.6625 11.4406 5.57917 11.4646C5.67135 10.7802 6.1625 10.1844 6.87135 9.99427C7.58021 9.80417 8.30365 10.0745 8.72552 10.6214C9.50781 10.1427 10.149 9.48802 10.6156 8.72656C10.0708 8.30416 9.80156 7.58177 9.99115 6.87396C10.1807 6.16614 10.775 5.675 11.4583 5.58177C11.4464 5.13958 11.3891 4.69323 11.2698 4.24739C11.1505 3.80208 10.9766 3.38646 10.7656 2.9974L10.7656 2.9974Z" transform="translate(11.9791565 1.559372)" id="Shape" fill="url(#gradient_6)" fill-rule="evenodd" stroke="none" />
			<path d="M0 3.08854C0 1.38279 1.38279 0 3.08854 0C4.7943 0 6.17708 1.38279 6.17708 3.08854C6.17708 4.7943 4.7943 6.17708 3.08854 6.17708C1.38279 6.17708 0 4.7943 0 3.08854Z" transform="translate(14.6197815 4.2031097)" id="Circle" fill="url(#gradient_9)" fill-rule="evenodd" stroke="none" />
			<path d="M0 1.7651C0 0.790264 0.790264 0 1.7651 0C2.73994 0 3.53021 0.790264 3.53021 1.7651C3.53021 2.73994 2.73994 3.53021 1.7651 3.53021C0.790264 3.53021 0 2.73994 0 1.7651Z" transform="translate(15.943237 5.5265656)" id="Circle" fill="url(#gradient_10)" fill-rule="evenodd" stroke="none" />
		</g>
	</g>
</svg>