<?xml version="1.0" encoding="utf-8"?>
<svg width="48px" height="48px" viewBox="0 0 48 48" version="1.1" xmlns:xlink="http://www.w3.org/1999/xlink" xmlns="http://www.w3.org/2000/svg">
  <defs>
    <linearGradient gradientUnits="userSpaceOnUse" x1="1.3269999" y1="0.4749778" x2="34.083" y2="33.229984" id="gradient_1">
      <stop offset="0%" stop-color="#889097" />
      <stop offset="33.1%" stop-color="#848C94" />
      <stop offset="66.9%" stop-color="#78828B" />
      <stop offset="100%" stop-color="#64717C" />
    </linearGradient>
    <linearGradient gradientUnits="userSpaceOnUse" x1="4.19" y1="-1.3629985" x2="4.19" y2="33.376003" id="gradient_2">
      <stop offset="0%" stop-color="#FFFFFF" />
      <stop offset="24.2%" stop-color="#F2F2F2" />
      <stop offset="100%" stop-color="#CCCCCC" />
    </linearGradient>
    <linearGradient gradientUnits="userSpaceOnUse" x1="4.4009995" y1="1.6520011" x2="4.4009995" y2="36.391003" id="gradient_3">
      <stop offset="0%" stop-color="#FFFFFF" />
      <stop offset="24.2%" stop-color="#F2F2F2" />
      <stop offset="100%" stop-color="#CCCCCC" />
    </linearGradient>
    <linearGradient gradientUnits="userSpaceOnUse" x1="4.1890016" y1="-1.2730007" x2="4.1890016" y2="33.466" id="gradient_4">
      <stop offset="0%" stop-color="#FFFFFF" />
      <stop offset="24.2%" stop-color="#F2F2F2" />
      <stop offset="100%" stop-color="#CCCCCC" />
    </linearGradient>
    <path d="M0 0L48 0L48 48L0 48L0 0Z" id="path_1" />
    <clipPath id="mask_1">
      <use xlink:href="#path_1" />
    </clipPath>
  </defs>
  <g id="Backend-Development-Icon">
    <path d="M0 0L48 0L48 48L0 48L0 0Z" id="Background" fill="#FFFFFF" fill-opacity="0" fill-rule="evenodd" stroke="none" />
    <path d="M43.407 19.243C41.018 19.214 38.705 17.969 37.424 15.75C36.191 13.614 36.216 11.101 37.262 9.057C35.137 7.17 32.62 5.718 29.832 4.869C28.577 6.756 26.435 8 24 8C21.565 8 19.423 6.756 18.169 4.869C15.381 5.718 12.864 7.17 10.739 9.057C11.785 11.101 11.81 13.614 10.577 15.75C9.296 17.969 6.983 19.214 4.594 19.243C4.22 20.77 4 22.358 4 24C4 25.284 4.133 26.535 4.364 27.752C6.833 27.701 9.255 28.96 10.577 31.25C11.945 33.62 11.764 36.454 10.357 38.595C12.439 40.542 14.93 42.051 17.697 42.97C18.827 40.624 21.221 39 24 39C26.779 39 29.173 40.624 30.303 42.971C33.07 42.052 35.561 40.543 37.643 38.596C36.236 36.455 36.055 33.621 37.423 31.251C38.745 28.961 41.166 27.702 43.636 27.753C43.867 26.535 44 25.284 44 24C44 22.358 43.78 20.77 43.407 19.243L43.407 19.243Z" id="Shape" fill="url(#gradient_1)" stroke="none" />
    <g id="Group" transform="translate(8.844001 15)" opacity="0.05">
      <path d="M9.379 4.014L9.379 6.149L3.404 8.706L3.404 8.76L9.379 11.164L9.379 13.3L0.999999 9.478L0.999999 8.025L9.379 4.014M10.379 2.427L8.947 3.112L0.568 7.122L0 7.394L0 8.024L0 9.477L0 10.12L0.585 10.387L8.964 14.209L10.379 14.854L10.379 13.3L10.379 11.165L10.379 10.489L9.752 10.237L5.947 8.706L9.772 7.069L10.379 6.809L10.379 6.149L10.379 4.014L10.379 2.427L10.379 2.427L10.379 2.427Z" id="Shape" fill="#000000" fill-rule="evenodd" stroke="none" />
      <path d="M19.435 1L13.164 16L10.634 16L16.878 1L19.435 1M20.937 0L19.435 0L16.878 0L16.211 0L15.955 0.616L9.711 15.616L9.135 17L10.634 17L13.164 17L13.83 17L14.087 16.386L20.358 1.386L20.937 0L20.937 0L20.937 0Z" id="Shape" fill="#000000" fill-rule="evenodd" stroke="none" />
      <path d="M20.933 3.925L29.312 7.908L29.312 9.361L20.933 13.183L20.933 11.057L26.926 8.662L26.926 8.626L20.933 6.06L20.933 3.925M19.933 2.342L19.933 3.925L19.933 6.06L19.933 6.72L20.539 6.98L24.354 8.613L20.562 10.129L19.933 10.38L19.933 11.057L19.933 13.183L19.933 14.738L21.348 14.093L29.727 10.271L30.312 10.004L30.312 9.361L30.312 7.908L30.312 7.276L29.741 7.005L21.362 3.022L19.933 2.342L19.933 2.342L19.933 2.342Z" id="Shape" fill="#000000" fill-rule="evenodd" stroke="none" />
    </g>
    <g id="Group" transform="translate(9.344 15.5)" opacity="0.07">
      <path d="M8.879 3.514L8.879 5.649L2.904 8.206L2.904 8.26L8.879 10.664L8.879 12.8L0.5 8.978L0.5 7.525L8.879 3.514M9.379 2.721L8.663 3.064L0.284 7.074L0 7.21L0 7.525L0 8.978L0 9.3L0.293 9.433L8.672 13.255L9.379 13.578L9.379 12.8L9.379 10.665L9.379 10.327L9.066 10.201L4.144 8.22L9.076 6.109L9.379 5.979L9.379 5.649L9.379 3.514L9.379 2.721L9.379 2.721L9.379 2.721Z" id="Shape" fill="#000000" fill-rule="evenodd" stroke="none" />
      <path d="M18.935 0.5L12.664 15.5L10.134 15.5L16.378 0.5L18.935 0.5M19.686 0L18.935 0L16.378 0L16.045 0L15.917 0.308L9.673 15.308L9.385 16L10.135 16L12.665 16L12.998 16L13.126 15.693L19.397 0.693001L19.686 0L19.686 0L19.686 0Z" id="Shape" fill="#000000" fill-rule="evenodd" stroke="none" />
      <path d="M20.433 3.425L28.812 7.408L28.812 8.861L20.433 12.683L20.433 10.557L26.426 8.162L26.426 8.126L20.433 5.56L20.433 3.425M19.933 2.633L19.933 3.424L19.933 5.559L19.933 5.889L20.236 6.019L25.162 8.128L20.248 10.092L19.934 10.218L19.934 10.557L19.934 12.683L19.934 13.461L20.641 13.138L29.02 9.316L29.313 9.183L29.313 8.861L29.313 7.408L29.313 7.092L29.028 6.956L20.649 2.973L19.933 2.633L19.933 2.633L19.933 2.633Z" id="Shape" fill="#000000" fill-rule="evenodd" stroke="none" />
    </g>
    <path d="M18.223 28.3L9.844 24.478L9.844 23.025L18.223 19.015L18.223 21.15L12.248 23.707L12.248 23.761L18.223 26.165L18.223 28.3L18.223 28.3Z" id="Shape" fill="url(#gradient_2)" stroke="none" />
    <path d="M28.279 16L22.008 31L19.478 31L25.722 16L28.279 16L28.279 16Z" id="Shape" fill="url(#gradient_3)" stroke="none" />
    <path d="M38.156 24.361L29.777 28.183L29.777 26.057L35.77 23.662L35.77 23.626L29.777 21.06L29.777 18.925L38.156 22.908L38.156 24.361L38.156 24.361Z" id="Shape" fill="url(#gradient_4)" stroke="none" />
  </g>
</svg>