<?xml version="1.0" encoding="utf-8"?>
<svg width="48px" height="48px" viewBox="0 0 48 48" version="1.1" xmlns:xlink="http://www.w3.org/1999/xlink" xmlns="http://www.w3.org/2000/svg">
  <defs>
    <linearGradient gradientUnits="userSpaceOnUse" x1="16" y1="8.966" x2="16" y2="0.44999987" id="gradient_1">
      <stop offset="0%" stop-color="#42A3F2" />
      <stop offset="100%" stop-color="#42A4EB" />
    </linearGradient>
    <linearGradient gradientUnits="userSpaceOnUse" x1="16" y1="8.945999" x2="16" y2="0" id="gradient_2">
      <stop offset="0%" stop-color="#11408A" />
      <stop offset="100%" stop-color="#103F8F" />
    </linearGradient>
    <linearGradient gradientUnits="userSpaceOnUse" x1="16" y1="-30.463" x2="16" y2="-30.524" id="gradient_3">
      <stop offset="0%" stop-color="#3079D6" />
      <stop offset="100%" stop-color="#297CD2" />
    </linearGradient>
    <linearGradient gradientUnits="userSpaceOnUse" x1="0" y1="4.525003" x2="32" y2="4.525003" id="gradient_4">
      <stop offset="0%" stop-color="#1D59B3" />
      <stop offset="100%" stop-color="#195BBC" />
    </linearGradient>
    <linearGradient gradientUnits="userSpaceOnUse" x1="0.7440001" y1="0.7440007" x2="19.494001" y2="19.493002" id="gradient_5">
      <stop offset="0%" stop-color="#256AC2" />
      <stop offset="100%" stop-color="#1247AD" />
    </linearGradient>
    <path d="M0 0L48 0L48 48L0 48L0 0Z" id="path_1" />
    <clipPath id="clip_1">
      <use xlink:href="#path_1" />
    </clipPath>
  </defs>
  <g id="Microsoft Word 2019" clip-path="url(#clip_1)">
    <path d="M0 0L48 0L48 48L0 48L0 0Z" id="Microsoft-Word-2019" fill="none" fill-rule="evenodd" stroke="none" />
    <path d="M42 6L14 6C12.895 6 12 6.895 12 8L12 15.003L44 15.003L44 8C44 6.895 43.105 6 42 6L42 6Z" id="Shape" fill="url(#gradient_1)" stroke="none" />
    <path d="M12 33.054L12 40C12 41.105 12.895 42 14 42L42 42C43.105 42 44 41.105 44 40L44 33.054L12 33.054L12 33.054Z" id="Shape" fill="url(#gradient_2)" stroke="none" />
    <path d="M12 15.003L44 15.003L44 24.005L12 24.005L12 15.003L12 15.003Z" id="Shape" fill="url(#gradient_3)" stroke="none" />
    <path d="M12 24.005L44 24.005L44 33.055L12 33.055L12 24.005L12 24.005Z" id="Shape" fill="url(#gradient_4)" stroke="none" />
    <path d="M22.319 13L12 13L12 37L22.319 37C24.352 37 26 35.352 26 33.319L26 16.681C26 14.648 24.352 13 22.319 13L22.319 13Z" id="Shape" fill="#000000" fill-opacity="0.05" stroke="none" />
    <path d="M22.213 36L12 36L12 13.333L22.213 13.333C23.937 13.333 25.334 14.73 25.334 16.454L25.334 32.879C25.333 34.603 23.936 36 22.213 36L22.213 36Z" id="Shape" fill="#000000" fill-opacity="0.07" stroke="none" />
    <path d="M22.106 35L12 35L12 13.667L22.106 13.667C23.52 13.667 24.666 14.813 24.666 16.227L24.666 32.44C24.667 33.854 23.52 35 22.106 35L22.106 35Z" id="Shape" fill="#000000" fill-opacity="0.09" stroke="none" />
    <path d="M22 34L6 34C4.895 34 4 33.105 4 32L4 16C4 14.895 4.895 14 6 14L22 14C23.105 14 24 14.895 24 16L24 32C24 33.105 23.105 34 22 34L22 34Z" id="Shape" fill="url(#gradient_5)" stroke="none" />
    <path d="M18.403 19L16.857 26.264L15.144 19L12.957 19L11.19 26.489L9.597 19L7.641 19L9.985 29L12.337 29L14.05 21.311L15.764 29L18.015 29L20.359 19L18.403 19L18.403 19Z" id="Shape" fill="#FFFFFF" stroke="none" />
  </g>
</svg>