<?xml version="1.0" encoding="utf-8"?>
<svg width="48px" height="48px" viewBox="0 0 48 48" version="1.1" xmlns:xlink="http://www.w3.org/1999/xlink" xmlns="http://www.w3.org/2000/svg">
  <defs>
    <path d="M48 0L48 0L48 48L0 48L0 0L48 0Z" id="path_1" />
    <clipPath id="clip_1">
      <use xlink:href="#path_1" clip-rule="evenodd" fill-rule="evenodd" />
    </clipPath>
  </defs>
  <g id="Literature" clip-path="url(#clip_1)">
    <path d="M48 0L48 0L48 48L0 48L0 0L48 0Z" id="Literature" fill="none" stroke="none" />
    <path d="M43 8L24 8L24 40L43 40C44.105 40 45 39.105 45 38L45 10C45 8.895 44.105 8 43 8L43 8Z" id="Shape" fill="#0078D4" stroke="none" />
    <path d="M24 8L5 8C3.895 8 3 8.895 3 10L3 38C3 39.105 3.895 40 5 40L24 40L24 8L24 8Z" id="Shape" fill="#1B9DE2" stroke="none" />
    <path d="M21 38C21 39.657 22.343 41 24 41L24 35C22.343 35 21 36.343 21 38L21 38Z" id="Shape" fill="#1B9DE2" stroke="none" />
    <path d="M27 38C27 36.343 25.657 35 24 35L24 41C25.657 41 27 39.657 27 38L27 38Z" id="Shape" fill="#0078D4" stroke="none" />
    <path d="M24 8L6 8C5.448 8 5 8.448 5 9L5 37C5 37.552 5.448 38 6 38L24 38L24 8L24 8Z" id="Shape" fill="#FFFFFF" stroke="none" />
    <path d="M42 8L24 8L24 38L42 38C42.552 38 43 37.552 43 37L43 9C43 8.448 42.552 8 42 8L42 8Z" id="Shape" fill="#F0F0F0" stroke="none" />
    <path d="M20.5 14L8.5 14C8.224 14 8 13.776 8 13.5L8 12.5C8 12.224 8.224 12 8.5 12L20.5 12C20.776 12 21 12.224 21 12.5L21 13.5C21 13.776 20.776 14 20.5 14L20.5 14Z" id="Shape" fill="#F0F0F0" stroke="none" />
    <path d="M20.5 18L8.5 18C8.224 18 8 17.776 8 17.5L8 16.5C8 16.224 8.224 16 8.5 16L20.5 16C20.776 16 21 16.224 21 16.5L21 17.5C21 17.776 20.776 18 20.5 18L20.5 18Z" id="Shape" fill="#F0F0F0" stroke="none" />
    <path d="M20.5 22L8.5 22C8.224 22 8 21.776 8 21.5L8 20.5C8 20.224 8.224 20 8.5 20L20.5 20C20.776 20 21 20.224 21 20.5L21 21.5C21 21.776 20.776 22 20.5 22L20.5 22Z" id="Shape" fill="#F0F0F0" stroke="none" />
    <path d="M20.5 26L8.5 26C8.224 26 8 25.776 8 25.5L8 24.5C8 24.224 8.224 24 8.5 24L20.5 24C20.776 24 21 24.224 21 24.5L21 25.5C21 25.776 20.776 26 20.5 26L20.5 26Z" id="Shape" fill="#F0F0F0" stroke="none" />
    <path d="M20.5 30L8.5 30C8.224 30 8 29.776 8 29.5L8 28.5C8 28.224 8.224 28 8.5 28L20.5 28C20.776 28 21 28.224 21 28.5L21 29.5C21 29.776 20.776 30 20.5 30L20.5 30Z" id="Shape" fill="#F0F0F0" stroke="none" />
    <path d="M18.5 34L8.5 34C8.224 34 8 33.776 8 33.5L8 32.5C8 32.224 8.224 32 8.5 32L18.5 32C18.776 32 19 32.224 19 32.5L19 33.5C19 33.776 18.776 34 18.5 34L18.5 34Z" id="Shape" fill="#F0F0F0" stroke="none" />
    <path d="M39.5 14L27.5 14C27.224 14 27 13.776 27 13.5L27 12.5C27 12.224 27.224 12 27.5 12L39.5 12C39.776 12 40 12.224 40 12.5L40 13.5C40 13.776 39.776 14 39.5 14L39.5 14Z" id="Shape" fill="#E0E0E0" stroke="none" />
    <path d="M39.5 18L27.5 18C27.224 18 27 17.776 27 17.5L27 16.5C27 16.224 27.224 16 27.5 16L39.5 16C39.776 16 40 16.224 40 16.5L40 17.5C40 17.776 39.776 18 39.5 18L39.5 18Z" id="Shape" fill="#E0E0E0" stroke="none" />
    <path d="M39.5 22L27.5 22C27.224 22 27 21.776 27 21.5L27 20.5C27 20.224 27.224 20 27.5 20L39.5 20C39.776 20 40 20.224 40 20.5L40 21.5C40 21.776 39.776 22 39.5 22L39.5 22Z" id="Shape" fill="#E0E0E0" stroke="none" />
    <path d="M39.5 26L27.5 26C27.224 26 27 25.776 27 25.5L27 24.5C27 24.224 27.224 24 27.5 24L39.5 24C39.776 24 40 24.224 40 24.5L40 25.5C40 25.776 39.776 26 39.5 26L39.5 26Z" id="Shape" fill="#E0E0E0" stroke="none" />
    <path d="M39.5 30L27.5 30C27.224 30 27 29.776 27 29.5L27 28.5C27 28.224 27.224 28 27.5 28L39.5 28C39.776 28 40 28.224 40 28.5L40 29.5C40 29.776 39.776 30 39.5 30L39.5 30Z" id="Shape" fill="#E0E0E0" stroke="none" />
    <path d="M37.5 34L27.5 34C27.224 34 27 33.776 27 33.5L27 32.5C27 32.224 27.224 32 27.5 32L37.5 32C37.776 32 38 32.224 38 32.5L38 33.5C38 33.776 37.776 34 37.5 34L37.5 34Z" id="Shape" fill="#E0E0E0" stroke="none" />
  </g>
</svg>