<?xml version="1.0" encoding="utf-8"?>
<svg width="48px" height="48px" viewBox="0 0 48 48" version="1.1" xmlns:xlink="http://www.w3.org/1999/xlink" xmlns="http://www.w3.org/2000/svg">
  <defs>
    <linearGradient gradientUnits="objectBoundingBox" x1="0.036249995" y1="0.036250055" x2="0.95275" y2="0.95275" id="gradient_1">
      <stop offset="0%" stop-color="#18884F" />
      <stop offset="100%" stop-color="#0B6731" />
    </linearGradient>
    <path d="M48 0L48 0L48 48L0 48L0 0L48 0Z" id="path_1" />
    <clipPath id="clip_1">
      <use xlink:href="#path_1" />
    </clipPath>
  </defs>
  <g id="Microsoft Excel 2019" clip-path="url(#clip_1)">
    <path d="M48 0L48 0L48 48L0 48L0 0L48 0Z" id="Microsoft-Excel-2019" fill="none" stroke="none" />
    <path d="M28 15L44 15L44 24L28 24L28 15Z" id="Rectangle" fill="#21A366" fill-rule="evenodd" stroke="none" />
    <path d="M44 24L12 24L12 40C12 41.105 12.895 42 14 42L42 42C43.105 42 44 41.105 44 40L44 24L44 24Z" id="Shape" fill="#185C37" stroke="none" />
    <path d="M28 24L44 24L44 33L28 33L28 24Z" id="Rectangle" fill="#107C42" fill-rule="evenodd" stroke="none" />
    <path d="M12 15L28 15L28 24L12 24L12 15Z" id="Rectangle" fill="#3FA071" fill-rule="evenodd" stroke="none" />
    <path d="M42 6L28 6L28 15L44 15L44 8C44 6.895 43.105 6 42 6L42 6Z" id="Shape" fill="#33C481" stroke="none" />
    <path d="M14 6L28 6L28 15L12 15L12 8C12 6.895 12.895 6 14 6L14 6Z" id="Shape" fill="#21A366" stroke="none" />
    <path d="M22.319 13L12 13L12 37L22.319 37C24.352 37 26 35.352 26 33.319L26 16.681C26 14.648 24.352 13 22.319 13L22.319 13Z" id="Shape" fill="#000000" fill-opacity="0.05" stroke="none" />
    <path d="M22.213 36L12 36L12 13.333L22.213 13.333C23.937 13.333 25.334 14.73 25.334 16.454L25.334 32.879C25.333 34.603 23.936 36 22.213 36L22.213 36Z" id="Shape" fill="#000000" fill-opacity="0.07" stroke="none" />
    <path d="M22.106 35L12 35L12 13.667L22.106 13.667C23.52 13.667 24.666 14.813 24.666 16.227L24.666 32.44C24.667 33.854 23.52 35 22.106 35L22.106 35Z" id="Shape" fill="#000000" fill-opacity="0.09" stroke="none" />
    <path d="M22 34L6 34C4.895 34 4 33.105 4 32L4 16C4 14.895 4.895 14 6 14L22 14C23.105 14 24 14.895 24 16L24 32C24 33.105 23.105 34 22 34L22 34Z" id="Shape" fill="url(#gradient_1)" stroke="none" />
    <path d="M9.807 19L12.193 19L14.129 22.754L16.175 19L18.404 19L15.333 24L18.474 29L16.123 29L14.013 25.07L11.912 29L9.526 29L12.719 23.982L9.807 19L9.807 19Z" id="Shape" fill="#FFFFFF" stroke="none" />
  </g>
</svg>