<?xml version="1.0" encoding="utf-8"?>
<svg width="48px" height="48px" viewBox="0 0 48 48" version="1.1" xmlns:xlink="http://www.w3.org/1999/xlink" xmlns="http://www.w3.org/2000/svg">
  <defs>
    <linearGradient gradientUnits="userSpaceOnUse" x1="-27.470999" y1="5.472" x2="-22.4" y2="0.39999962" id="gradient_1">
      <stop offset="0%" stop-color="#3079D6" />
      <stop offset="100%" stop-color="#297CD2" />
    </linearGradient>
    <linearGradient gradientUnits="userSpaceOnUse" x1="-1.9871075" y1="-4.6756573" x2="21.05097" y2="0.008449942" id="gradient_2">
      <stop offset="0%" stop-color="#0077D2" />
      <stop offset="9.032926%" stop-color="#0074CD" />
      <stop offset="100%" stop-color="#0B59A2" />
    </linearGradient>
  </defs>
  <g id="svg">
    <g id="File-Icon-2">
      <path d="M0 0L48 0L48 48L0 48L0 0L0 0Z" id="Background" fill="#FFFFFF" fill-opacity="0" fill-rule="evenodd" stroke="none" />
      <path d="M39 16L39 41C39 42.105 38.105 43 37 43L11 43C9.895 43 9 42.105 9 41L9 7C9 5.895 9.895 5 11 5L28 5L39 16L39 16L39 16Z" id="Shape" fill="#50E6FF" stroke="none" />
      <path d="M28 5L28 14C28 15.105 28.895 16 30 16L39 16L28 5L28 5L28 5Z" id="Shape#1" fill="url(#gradient_1)" stroke="none" />
    </g>
    <g id="Cursor-In-Window-Icon" transform="translate(9.5 15)">
      <path d="M0 0L29 0L29 29L0 29L0 0L0 0Z" id="Background#1" fill="#FFFFFF" fill-opacity="0" fill-rule="evenodd" stroke="none" />
      <path d="M2.41667 23.5625L2.41667 7.85417L26.5833 7.85417L26.5833 23.5625C26.5833 24.2271 26.0396 24.7708 25.375 24.7708L3.625 24.7708C2.96042 24.7708 2.41667 24.2271 2.41667 23.5625L2.41667 23.5625L2.41667 23.5625Z" id="Shape#2" fill="#0089F2" stroke="none" />
      <path d="M26.5833 5.4375L26.5833 7.85417L2.41667 7.85417L2.41667 5.4375C2.41667 4.77292 2.96042 4.22917 3.625 4.22917L25.375 4.22917C26.0396 4.22917 26.5833 4.77292 26.5833 5.4375L26.5833 5.4375L26.5833 5.4375Z" id="Shape#3" fill="url(#gradient_2)" stroke="none" />
      <path d="M21.75 6.04167C21.75 5.70799 22.0205 5.4375 22.3542 5.4375C22.6878 5.4375 22.9583 5.70799 22.9583 6.04167C22.9583 6.37534 22.6878 6.64583 22.3542 6.64583C22.0205 6.64583 21.75 6.37534 21.75 6.04167L21.75 6.04167Z" id="Circle" fill="#35C1F1" fill-rule="evenodd" stroke="none" />
      <path d="M24.1667 6.04167C24.1667 5.70799 24.4372 5.4375 24.7708 5.4375C25.1045 5.4375 25.375 5.70799 25.375 6.04167C25.375 6.37534 25.1045 6.64583 24.7708 6.64583C24.4372 6.64583 24.1667 6.37534 24.1667 6.04167L24.1667 6.04167Z" id="Circle#1" fill="#35C1F1" fill-rule="evenodd" stroke="none" />
      <path d="M14.5 13.4808L14.5 18.9896C14.5 19.1533 14.6909 19.2421 14.8166 19.1376L16.0884 18.0773L16.9263 20.0046C16.968 20.1 17.0792 20.1441 17.1752 20.1024L17.5106 19.9568L14.6148 13.308C14.5495 13.3358 14.5 13.398 14.5 13.4808L14.5 13.4808L14.5 13.4808Z" id="Shape#4" fill="#F5F6F7" stroke="none" />
      <path d="M17.9293 19.5684L17.0979 17.6556L18.5534 17.5251C18.7165 17.5106 18.7884 17.3124 18.6724 17.1964L14.8226 13.3467C14.7622 13.2862 14.68 13.2784 14.6136 13.3074L17.5094 19.9568L17.8314 19.8167C17.9274 19.7756 17.9709 19.6644 17.9293 19.5684L17.9293 19.5684L17.9293 19.5684Z" id="Shape#5" fill="#D9DCDF" stroke="none" />
    </g>
  </g>
</svg>