<?xml version="1.0" encoding="utf-8"?>
<svg width="48px" height="48px" viewBox="0 0 48 48" version="1.1" xmlns:xlink="http://www.w3.org/1999/xlink" xmlns="http://www.w3.org/2000/svg">
  <defs>
    <linearGradient gradientUnits="userSpaceOnUse" x1="9.48" y1="-3.4070015" x2="27.634" y2="22.852993" id="gradient_1">
      <stop offset="0%" stop-color="#7DD8F3" />
      <stop offset="100%" stop-color="#45B0D0" />
    </linearGradient>
    <linearGradient gradientUnits="userSpaceOnUse" x1="0.61399996" y1="-0.25899792" x2="38.936" y2="7.533003" id="gradient_2">
      <stop offset="0%" stop-color="#0077D2" />
      <stop offset="100%" stop-color="#0B59A2" />
    </linearGradient>
    <linearGradient gradientUnits="userSpaceOnUse" x1="0.75100136" y1="0.41599274" x2="2.0320015" y2="2.2689972" id="gradient_3">
      <stop offset="0%" stop-color="#75DAFF" />
      <stop offset="100%" stop-color="#49BEF1" />
    </linearGradient>
    <linearGradient gradientUnits="userSpaceOnUse" x1="0.7509985" y1="0.41599274" x2="2.0319986" y2="2.2689972" id="gradient_4">
      <stop offset="0%" stop-color="#75DAFF" />
      <stop offset="100%" stop-color="#49BEF1" />
    </linearGradient>
    <linearGradient gradientUnits="userSpaceOnUse" x1="0.7509985" y1="0.41599274" x2="2.0320015" y2="2.2689972" id="gradient_5">
      <stop offset="0%" stop-color="#75DAFF" />
      <stop offset="100%" stop-color="#49BEF1" />
    </linearGradient>
    <path d="M0 0L48 0L48 48L0 48L0 0Z" id="path_1" />
    <clipPath id="clip_1">
      <use xlink:href="#path_1" />
    </clipPath>
  </defs>
  <g id="Application Window" clip-path="url(#clip_1)">
    <path d="M0 0L48 0L48 48L0 48L0 0Z" id="Application-Window" fill="none" fill-rule="evenodd" stroke="none" />
    <path d="M4 38L4 15L44 15L44 38C44 39.1 43.1 40 42 40L6 40C4.9 40 4 39.1 4 38L4 38Z" id="Shape" fill="url(#gradient_1)" stroke="none" />
    <path d="M44 10L44 15L4 15L4 10C4 8.9 4.9 8 6 8L42 8C43.1 8 44 8.9 44 10L44 10Z" id="Shape" fill="url(#gradient_2)" stroke="none" />
    <path d="M33 11.5C33 10.6716 33.6716 10 34.5 10C35.3284 10 36 10.6716 36 11.5C36 12.3284 35.3284 13 34.5 13C33.6716 13 33 12.3284 33 11.5Z" id="Circle" fill="url(#gradient_3)" fill-rule="evenodd" stroke="none" />
    <path d="M28 11.5C28 10.6716 28.6716 10 29.5 10C30.3284 10 31 10.6716 31 11.5C31 12.3284 30.3284 13 29.5 13C28.6716 13 28 12.3284 28 11.5Z" id="Circle" fill="url(#gradient_4)" fill-rule="evenodd" stroke="none" />
    <path d="M38 11.5C38 10.6716 38.6716 10 39.5 10C40.3284 10 41 10.6716 41 11.5C41 12.3284 40.3284 13 39.5 13C38.6716 13 38 12.3284 38 11.5Z" id="Circle" fill="url(#gradient_5)" fill-rule="evenodd" stroke="none" />
  </g>
</svg>