<?xml version="1.0" encoding="utf-8"?>
<svg width="48px" height="48px" viewBox="0 0 48 48" version="1.1" xmlns:xlink="http://www.w3.org/1999/xlink" xmlns="http://www.w3.org/2000/svg">
  <defs>
    <linearGradient gradientUnits="objectBoundingBox" x1="0.017775" y1="-0.123168945" x2="0.97107494" y2="1.1689987" id="gradient_1">
      <stop offset="0%" stop-color="#0077D2" />
      <stop offset="100%" stop-color="#0B59A2" />
    </linearGradient>
    <path d="M48 0L48 0L48 48L0 48L0 0L48 0Z" id="path_1" />
    <clipPath id="clip_1">
      <use xlink:href="#path_1" clip-rule="evenodd" fill-rule="evenodd" />
    </clipPath>
  </defs>
  <g id="Cursor In Window" clip-path="url(#clip_1)">
    <path d="M48 0L48 0L48 48L0 48L0 0L48 0Z" id="Cursor-In-Window" fill="none" stroke="none" />
    <path d="M4 39L4 13L44 13L44 39C44 40.1 43.1 41 42 41L6 41C4.9 41 4 40.1 4 39L4 39Z" id="Shape" fill="#35C1F1" stroke="none" />
    <path d="M44 9L44 13L4 13L4 9C4 7.9 4.9 7 6 7L42 7C43.1 7 44 7.9 44 9L44 9Z" id="Shape" fill="url(#gradient_1)" stroke="none" />
    <path d="M36 10C36 9.44771 36.4477 9 37 9C37.5523 9 38 9.44771 38 10C38 10.5523 37.5523 11 37 11C36.4477 11 36 10.5523 36 10Z" id="Circle" fill="#35C1F1" fill-rule="evenodd" stroke="none" />
    <path d="M40 10C40 9.44771 40.4477 9 41 9C41.5523 9 42 9.44771 42 10C42 10.5523 41.5523 11 41 11C40.4477 11 40 10.5523 40 10Z" id="Circle" fill="#35C1F1" fill-rule="evenodd" stroke="none" />
    <path d="M24 22.313L24 31.431C24 31.702 24.316 31.849 24.524 31.676L26.629 29.921L28.016 33.111C28.085 33.269 28.269 33.342 28.428 33.273L28.983 33.032L24.19 22.027C24.082 22.073 24 22.176 24 22.313L24 22.313Z" id="Shape" fill="#F5F6F7" stroke="none" />
    <path d="M29.676 32.389L28.3 29.223L30.709 29.007C30.979 28.983 31.098 28.655 30.906 28.463L24.534 22.091C24.434 21.991 24.298 21.978 24.188 22.026L28.981 33.032L29.514 32.8C29.673 32.732 29.745 32.548 29.676 32.389L29.676 32.389Z" id="Shape" fill="#D9DCDF" stroke="none" />
  </g>
</svg>