<?xml version="1.0" encoding="utf-8"?>
<svg width="48px" height="48px" viewBox="0 0 48 48" version="1.1" xmlns:xlink="http://www.w3.org/1999/xlink" xmlns="http://www.w3.org/2000/svg">
  <defs>
    <linearGradient gradientUnits="userSpaceOnUse" x1="3.9719849" y1="20" x2="7.1139526" y2="20" id="gradient_1">
      <stop offset="44.100002%" stop-color="#999998" />
      <stop offset="65.3%" stop-color="#C1C1C0" />
      <stop offset="88%" stop-color="#E5E5E5" />
      <stop offset="100%" stop-color="#F3F3F3" />
    </linearGradient>
    <linearGradient gradientUnits="userSpaceOnUse" x1="-3.362" y1="4.571991" x2="8.691" y2="37.404938" id="gradient_2">
      <stop offset="0%" stop-color="#CA4E2A" />
      <stop offset="100%" stop-color="#B63016" />
    </linearGradient>
    <path d="M0 0L48 0L48 48L0 48L0 0Z" id="path_1" />
    <clipPath id="mask_1">
      <use xlink:href="#path_1" />
    </clipPath>
  </defs>
  <g id="FB2-Icon">
    <path d="M0 0L48 0L48 48L0 48L0 0Z" id="Background" fill="#FFFFFF" fill-opacity="0" fill-rule="evenodd" stroke="none" />
    <path d="M41 6L41 42C41 43.105 40.105 44 39 44L34 44L34 4L39 4C40.105 4 41 4.895 41 6L41 6Z" id="Shape" fill="#FF8F6B" stroke="none" />
    <path d="M39 6L39 42C39 43.105 38.105 44 37 44L31 44L31 4L37 4C38.105 4 39 4.895 39 6L39 6Z" id="Shape" fill="url(#gradient_1)" stroke="none" />
    <path d="M7 6L7 42C7 43.105 7.895 44 9 44L11 44L11 4L9 4C7.895 4 7 4.895 7 6L7 6Z" id="Shape" fill="url(#gradient_2)" stroke="none" />
    <path d="M35 4L11 4L11 44L35 44C36.105 44 37 43.105 37 42L37 6C37 4.895 36.105 4 35 4L35 4Z" id="Shape" fill="#FF8F6B" stroke="none" />
    <path d="M19.616 21.507L16.823 21.507L16.823 23.45L19.389 23.45L19.389 24.896L16.823 24.896L16.823 27.97L15.04 27.97L15.04 20.056L19.615 20.056L19.615 21.507L19.616 21.507Z" id="Shape" fill="#B63016" stroke="none" />
    <path d="M20.919 27.97L20.919 20.056L23.8 20.056C24.683 20.056 25.362 20.218 25.837 20.542C26.312 20.866 26.549 21.322 26.549 21.911C26.549 22.338 26.405 22.711 26.116 23.031C25.827 23.351 25.458 23.574 25.009 23.699L25.009 23.721C25.572 23.791 26.022 23.999 26.358 24.345C26.695 24.691 26.863 25.112 26.863 25.609C26.863 26.334 26.604 26.909 26.085 27.334C25.566 27.759 24.858 27.971 23.96 27.971L20.919 27.971L20.919 27.97ZM22.701 21.369L22.701 23.245L23.485 23.245C23.853 23.245 24.143 23.156 24.354 22.977C24.566 22.799 24.671 22.553 24.671 22.24C24.671 21.659 24.237 21.368 23.368 21.368L22.701 21.368L22.701 21.369ZM22.701 24.57L22.701 26.656L23.667 26.656C24.079 26.656 24.402 26.56 24.636 26.369C24.87 26.178 24.986 25.916 24.986 25.585C24.986 25.269 24.871 25.02 24.641 24.84C24.411 24.66 24.09 24.57 23.678 24.57L22.701 24.57L22.701 24.57Z" id="Shape" fill="#B63016" fill-rule="evenodd" stroke="none" />
    <path d="M29.628 26.524L32.984 26.524L32.984 27.97L27.719 27.97L27.719 27.374C27.719 26.969 27.787 26.606 27.923 26.284C28.059 25.962 28.23 25.673 28.436 25.418C28.642 25.162 28.867 24.936 29.112 24.739C29.357 24.542 29.589 24.365 29.81 24.206C30.042 24.04 30.245 23.882 30.42 23.731C30.595 23.58 30.742 23.43 30.862 23.281C30.982 23.132 31.071 22.981 31.13 22.828C31.189 22.675 31.218 22.512 31.218 22.34C31.218 22.001 31.122 21.746 30.931 21.573C30.74 21.4 30.447 21.314 30.053 21.314C29.372 21.314 28.721 21.584 28.099 22.125L28.099 20.591C28.787 20.146 29.563 19.923 30.428 19.923C30.829 19.923 31.189 19.975 31.507 20.08C31.825 20.185 32.095 20.335 32.316 20.53C32.537 20.725 32.705 20.961 32.821 21.239C32.937 21.517 32.995 21.827 32.995 22.169C32.995 22.533 32.939 22.857 32.827 23.14C32.715 23.423 32.566 23.681 32.38 23.913C32.194 24.145 31.98 24.357 31.737 24.55C31.494 24.743 31.242 24.93 30.981 25.11C30.804 25.235 30.634 25.359 30.47 25.483C30.306 25.607 30.162 25.728 30.037 25.847C29.912 25.967 29.813 26.083 29.739 26.197C29.665 26.313 29.628 26.421 29.628 26.524L29.628 26.524Z" id="Shape" fill="#B63016" stroke="none" />
  </g>
</svg>