<?xml version="1.0" encoding="utf-8"?>
<svg width="48px" height="48px" viewBox="0 0 48 48" version="1.1" xmlns:xlink="http://www.w3.org/1999/xlink" xmlns="http://www.w3.org/2000/svg">
  <defs>
    <linearGradient gradientUnits="userSpaceOnUse" x1="0.5290003" y1="10.472" x2="5.6" y2="5.3999996" id="gradient_1">
      <stop offset="0%" stop-color="#3079D6" />
      <stop offset="100%" stop-color="#297CD2" />
    </linearGradient>
    <linearGradient gradientUnits="userSpaceOnUse" x1="-15.76634" y1="9.333331" x2="-13.933526" y2="9.333331" id="gradient_2">
      <stop offset="44.100002%" stop-color="#999998" />
      <stop offset="65.3%" stop-color="#C1C1C0" />
      <stop offset="88%" stop-color="#E5E5E5" />
      <stop offset="100%" stop-color="#F3F3F3" />
    </linearGradient>
    <linearGradient gradientUnits="userSpaceOnUse" x1="-6.044499" y1="0.3336613" x2="0.9864165" y2="19.486208" id="gradient_3">
      <stop offset="0%" stop-color="#CA4E2A" />
      <stop offset="100%" stop-color="#B63016" />
    </linearGradient>
    <path d="M0 0L48 0L48 48L0 48L0 0Z" id="path_1" />
    <clipPath id="mask_1">
      <use xlink:href="#path_1" />
    </clipPath>
  </defs>
  <g id="File-Icon-2">
    <path d="M0 0L48 0L48 48L0 48L0 0Z" id="Background" fill="#FFFFFF" fill-opacity="0" fill-rule="evenodd" stroke="none" />
    <path d="M39 16L39 41C39 42.105 38.105 43 37 43L11 43C9.895 43 9 42.105 9 41L9 7C9 5.895 9.895 5 11 5L28 5L39 16L39 16Z" id="Shape" fill="#50E6FF" stroke="none" />
    <path d="M28 5L28 14C28 15.105 28.895 16 30 16L39 16L28 5L28 5Z" id="Shape" fill="url(#gradient_1)" stroke="none" />
  </g>
  <g id="svg" transform="translate(9.5 15.5)">
    <g id="FB2-Icon">
      <path d="M0 0L28 0L28 28L0 28L0 0L0 0Z" id="Background" fill="#FFFFFF" fill-opacity="0" fill-rule="evenodd" stroke="none" />
      <path d="M23.9167 3.49999L23.9167 24.5C23.9167 25.1446 23.3946 25.6667 22.75 25.6667L19.8333 25.6667L19.8333 2.33332L22.75 2.33332C23.3946 2.33332 23.9167 2.85541 23.9167 3.49999L23.9167 3.49999L23.9167 3.49999Z" id="Shape" fill="#FF8F6B" stroke="none" />
      <path d="M22.75 3.49999L22.75 24.5C22.75 25.1446 22.2279 25.6667 21.5833 25.6667L18.0833 25.6667L18.0833 2.33332L21.5833 2.33332C22.2279 2.33332 22.75 2.85541 22.75 3.49999L22.75 3.49999L22.75 3.49999Z" id="Shape#1" fill="url(#gradient_2)" stroke="none" />
      <path d="M4.08332 3.49999L4.08332 24.5C4.08332 25.1446 4.60541 25.6667 5.24999 25.6667L6.41666 25.6667L6.41666 2.33332L5.24999 2.33332C4.60541 2.33332 4.08332 2.85541 4.08332 3.49999L4.08332 3.49999L4.08332 3.49999Z" id="Shape#2" fill="url(#gradient_3)" stroke="none" />
      <path d="M20.4167 2.33332L6.41668 2.33332L6.41668 25.6667L20.4167 25.6667C21.0613 25.6667 21.5833 25.1446 21.5833 24.5L21.5833 3.49999C21.5833 2.85541 21.0613 2.33332 20.4167 2.33332L20.4167 2.33332L20.4167 2.33332Z" id="Shape#3" fill="#FF8F6B" stroke="none" />
      <path d="M11.4427 12.5458L9.81342 12.5458L9.81342 13.6792L11.3103 13.6792L11.3103 14.5227L9.81342 14.5227L9.81342 16.3158L8.77334 16.3158L8.77334 11.6993L11.4421 11.6993L11.4421 12.5458L11.4427 12.5458L11.4427 12.5458Z" id="Shape#4" fill="#B63016" stroke="none" />
      <path d="M12.2027 16.3158L12.2027 11.6993L13.8833 11.6993C14.3984 11.6993 14.7945 11.7938 15.0716 11.9828C15.3487 12.1718 15.4869 12.4378 15.4869 12.7814C15.4869 13.0305 15.4029 13.2481 15.2343 13.4348C15.0657 13.6214 14.8505 13.7515 14.5886 13.8244L14.5886 13.8373C14.917 13.8781 15.1795 13.9994 15.3755 14.2013C15.5721 14.4031 15.6701 14.6487 15.6701 14.9386C15.6701 15.3615 15.519 15.6969 15.2162 15.9448C14.9135 16.1928 14.5005 16.3164 13.9767 16.3164L12.2027 16.3164L12.2027 16.3158L12.2027 16.3158ZM13.2422 12.4652L13.2422 13.5596L13.6996 13.5596C13.9142 13.5596 14.0834 13.5077 14.2065 13.4032C14.3302 13.2994 14.3914 13.1559 14.3914 12.9733C14.3914 12.6344 14.1382 12.4647 13.6313 12.4647L13.2422 12.4647L13.2422 12.4652L13.2422 12.4652ZM13.2422 14.3325L13.2422 15.5493L13.8057 15.5493C14.0461 15.5493 14.2345 15.4933 14.371 15.3819C14.5075 15.2705 14.5752 15.1177 14.5752 14.9246C14.5752 14.7403 14.5081 14.595 14.3739 14.49C14.2397 14.385 14.0525 14.3325 13.8122 14.3325L13.2422 14.3325L13.2422 14.3325L13.2422 14.3325Z" id="Shape#5" fill="#B63016" fill-rule="evenodd" stroke="none" />
      <path d="M17.283 15.4724L19.2407 15.4724L19.2407 16.3159L16.1694 16.3159L16.1694 15.9682C16.1694 15.7319 16.2091 15.5202 16.2884 15.3324C16.3678 15.1445 16.4675 14.9759 16.5877 14.8272C16.7078 14.6779 16.8391 14.546 16.982 14.4311C17.1249 14.3162 17.2603 14.2129 17.3892 14.1202C17.5245 14.0234 17.6429 13.9312 17.745 13.8431C17.8471 13.755 17.9328 13.6675 18.0028 13.5806C18.0728 13.4937 18.1248 13.4056 18.1592 13.3164C18.1936 13.2271 18.2105 13.132 18.2105 13.0317C18.2105 12.8339 18.1545 12.6852 18.0431 12.5843C17.9317 12.4834 17.7608 12.4332 17.5309 12.4332C17.1337 12.4332 16.7539 12.5907 16.3911 12.9063L16.3911 12.0114C16.7924 11.7519 17.2451 11.6218 17.7497 11.6218C17.9836 11.6218 18.1936 11.6521 18.3791 11.7134C18.5646 11.7746 18.7221 11.8621 18.851 11.9759C18.9799 12.0896 19.0779 12.2273 19.1456 12.3894C19.2133 12.5516 19.2471 12.7324 19.2471 12.9319C19.2471 13.1443 19.2144 13.3333 19.1491 13.4984C19.0838 13.6634 18.9968 13.8139 18.8883 13.9493C18.7798 14.0846 18.655 14.2083 18.5133 14.3209C18.3715 14.4334 18.2245 14.5425 18.0723 14.6475C17.969 14.7204 17.8698 14.7928 17.7742 14.8651C17.6785 14.9374 17.5945 15.008 17.5216 15.0774C17.4487 15.1474 17.3909 15.2151 17.3478 15.2816C17.3046 15.3493 17.283 15.4123 17.283 15.4724L17.283 15.4724L17.283 15.4724Z" id="Shape#6" fill="#B63016" stroke="none" />
    </g>
  </g>
</svg>