<?xml version="1.0" encoding="utf-8"?>
<svg width="48px" height="48px" viewBox="0 0 48 48" version="1.1" xmlns:xlink="http://www.w3.org/1999/xlink" xmlns="http://www.w3.org/2000/svg">
	<defs>
		<linearGradient x1="0.49999994" y1="1.2142859" x2="0.49999994" y2="0.2677145" id="gradient_1">
			<stop offset="0" stop-color="#737B80" />
			<stop offset="1" stop-color="#575C61" />
		</linearGradient>
		<linearGradient x1="0.5" y1="0.84900045" x2="0.5" y2="0.45816708" id="gradient_2">
			<stop offset="0" stop-color="#FFD869" />
			<stop offset="1" stop-color="#FEC52B" />
		</linearGradient>
		<linearGradient x1="0.5" y1="0.027750015" x2="0.5" y2="1.0625" id="gradient_3">
			<stop offset="0" stop-color="#C3CDD9" />
			<stop offset="1" stop-color="#9FA7B0" />
		</linearGradient>
		<linearGradient x1="0.5000113" y1="0.016038448" x2="0.5000113" y2="0.99742305" id="gradient_4">
			<stop offset="0" stop-color="#737B80" />
			<stop offset="1" stop-color="#575C61" />
		</linearGradient>
		<linearGradient x1="0.5" y1="-0.010499954" x2="0.5" y2="1.0129995" id="gradient_5">
			<stop offset="0" stop-color="#75FF8A" />
			<stop offset="1" stop-color="#1EE446" />
		</linearGradient>
		<path d="M0 0L48 0L48 48L0 48L0 0Z" id="path_1" />
		<clipPath id="mask_1">
			<use xlink:href="#path_1" />
		</clipPath>
	</defs>
	<g id="icons8_ssd_2">
		<path d="M0 0L48 0L48 48L0 48L0 0Z" id="Background" fill="none" fill-rule="evenodd" stroke="none" />
		<g clip-path="url(#mask_1)">
			<path d="M0 0L25 0L25 7L0 7L0 0Z" transform="translate(14 34)" id="Rectangle" fill="url(#gradient_1)" fill-rule="evenodd" stroke="none" />
			<path d="M1.5 6L0.5 6C0.224001 6 0 5.776 0 5.5L0 0.5C0 0.223999 0.224001 0 0.5 0L1.5 0C1.776 0 2 0.223999 2 0.5L2 5.5C2 5.776 1.776 6 1.5 6L1.5 6Z" transform="translate(17 33)" id="Shape" fill="url(#gradient_2)" fill-rule="evenodd" stroke="none" />
			<path d="M1.5 6L0.5 6C0.224001 6 0 5.776 0 5.5L0 0.5C0 0.223999 0.224001 0 0.5 0L1.5 0C1.776 0 2 0.223999 2 0.5L2 5.5C2 5.776 1.776 6 1.5 6L1.5 6Z" transform="translate(21 33)" id="Shape" fill="url(#gradient_2)" fill-rule="evenodd" stroke="none" />
			<path d="M1.5 6L0.5 6C0.224001 6 0 5.776 0 5.5L0 0.5C0 0.223999 0.224001 0 0.5 0L1.5 0C1.776 0 2 0.223999 2 0.5L2 5.5C2 5.776 1.776 6 1.5 6L1.5 6Z" transform="translate(26 33)" id="Shape" fill="url(#gradient_2)" fill-rule="evenodd" stroke="none" />
			<path d="M1.5 6L0.5 6C0.224001 6 0 5.776 0 5.5L0 0.5C0 0.223999 0.224001 0 0.5 0L1.5 0C1.776 0 2 0.223999 2 0.5L2 5.5C2 5.776 1.776 6 1.5 6L1.5 6Z" transform="translate(30 33)" id="Shape" fill="url(#gradient_2)" fill-rule="evenodd" stroke="none" />
			<path d="M1.5 6L0.5 6C0.223999 6 0 5.776 0 5.5L0 0.5C0 0.223999 0.223999 0 0.5 0L1.5 0C1.776 0 2 0.223999 2 0.5L2 5.5C2 5.776 1.776 6 1.5 6L1.5 6Z" transform="translate(34 33)" id="Shape" fill="url(#gradient_2)" fill-rule="evenodd" stroke="none" />
			<path d="M36 0L36 10C36 11.1 35.1 12 34 12L32.75 12C32.31 12 31.92 11.7 31.79 11.27L31.71 11L30.41 6.45C30.17 5.59 29.38 5 28.49 5L12.51 5C11.62 5 10.83 5.59 10.59 6.45L9.29 11L9.21 11.27C9.08 11.7 8.69 12 8.25 12L2 12C0.9 12 0 11.1 0 10L0 0L36 0L36 0Z" transform="translate(6 30)" id="Shape" fill="url(#gradient_3)" fill-rule="evenodd" stroke="none" />
			<g id="Group" transform="translate(6 30)">
				<path d="M36 0L36 10C36 11.1 35.1 12 34 12L32.75 12C32.31 12 31.92 11.7 31.79 11.27L31.71 11L30.67 11L29.45 6.73C29.33 6.3 28.94 6 28.49 6L12.51 6C12.06 6 11.67 6.3 11.55 6.73L10.33 11L9.29 11L9.21 11.27C9.08 11.7 8.69 12 8.25 12L2 12C0.9 12 0 11.1 0 10L0 0L36 0L36 0Z" id="Shape" fill="#000000" fill-opacity="0.05" fill-rule="evenodd" stroke="none" />
				<path d="M36 0L36 10C36 11.1 35.1 12 34 12L32.75 12C32.31 12 31.92 11.7 31.79 11.27L31.71 11L31.19 11L29.93 6.59C29.75 5.95 29.16 5.5 28.49 5.5L12.51 5.5C11.84 5.5 11.25 5.95 11.07 6.59L9.81 11L9.29 11L9.21 11.27C9.08 11.7 8.69 12 8.25 12L2 12C0.9 12 0 11.1 0 10L0 0L36 0L36 0Z" id="Shape" fill="#000000" fill-opacity="0.07" fill-rule="evenodd" stroke="none" />
			</g>
			<path d="M4.76443 0L31.2354 0C32.2434 0 33.0944 0.75 33.2194 1.751L35.9864 23.771C36.1244 24.958 35.1954 26 34.0004 26L2.00043 26C0.805426 26 -0.123574 24.958 0.0134263 23.771L2.78043 1.751C2.90643 0.75 3.75643 0 4.76443 0L4.76443 0Z" transform="translate(5.9995737 6)" id="Shape" fill="url(#gradient_4)" fill-rule="evenodd" stroke="none" />
			<g id="Group" transform="translate(8 34)">
				<path d="M3 1C4.105 1 5 1.895 5 3C5 4.105 4.105 5 3 5C1.895 5 1 4.105 1 3C1 1.895 1.895 1 3 1M3 0C1.346 0 0 1.346 0 3C0 4.654 1.346 6 3 6C4.654 6 6 4.654 6 3C6 1.346 4.654 0 3 0L3 0L3 0Z" id="Shape" fill="#000000" fill-opacity="0.05" fill-rule="evenodd" stroke="none" />
				<path d="M2.5 0.5C3.605 0.5 4.5 1.395 4.5 2.5C4.5 3.605 3.605 4.5 2.5 4.5C1.395 4.5 0.5 3.605 0.5 2.5C0.5 1.395 1.395 0.5 2.5 0.5M2.5 0C1.121 0 0 1.121 0 2.5C0 3.879 1.121 5 2.5 5C3.879 5 5 3.879 5 2.5C5 1.121 3.879 0 2.5 0L2.5 0L2.5 0Z" transform="translate(0.5 0.5)" id="Shape" fill="#000000" fill-opacity="0.07" fill-rule="evenodd" stroke="none" />
				<path d="M0 2C0 0.89543 0.89543 0 2 0C3.10457 0 4 0.89543 4 2C4 3.10457 3.10457 4 2 4C0.89543 4 0 3.10457 0 2Z" transform="translate(1 1)" id="Circle" fill="url(#gradient_5)" fill-rule="evenodd" stroke="none" />
			</g>
			<g id="Group" transform="translate(8 7)">
				<g id="Group" opacity="0.05">
					<path d="M2.5 1C3.328 1 4 1.448 4 2C4 2.552 3.328 3 2.5 3C1.672 3 1 2.552 1 2C1 1.448 1.672 1 2.5 1M2.5 0C1.098 0 0 0.878 0 2C0 3.122 1.098 4 2.5 4C3.902 4 5 3.122 5 2C5 0.878 3.902 0 2.5 0L2.5 0L2.5 0Z" transform="translate(0 20)" id="Shape" fill="#000000" fill-rule="evenodd" stroke="none" />
					<path d="M2.5 1C3.328 1 4 1.448 4 2C4 2.552 3.328 3 2.5 3C1.672 3 1 2.552 1 2C1 1.448 1.672 1 2.5 1M2.5 0C1.098 0 0 0.878 0 2C0 3.122 1.098 4 2.5 4C3.902 4 5 3.122 5 2C5 0.878 3.902 0 2.5 0L2.5 0L2.5 0Z" transform="translate(27 20)" id="Shape" fill="#000000" fill-rule="evenodd" stroke="none" />
					<path d="M2.5 1C3.328 1 4 1.448 4 2C4 2.552 3.328 3 2.5 3C1.672 3 1 2.552 1 2C1 1.448 1.672 1 2.5 1M2.5 0C1.098 0 0 0.878 0 2C0 3.122 1.098 4 2.5 4C3.902 4 5 3.122 5 2C5 0.878 3.902 0 2.5 0L2.5 0L2.5 0Z" transform="translate(2 0)" id="Shape" fill="#000000" fill-rule="evenodd" stroke="none" />
					<path d="M2.5 1C3.328 1 4 1.448 4 2C4 2.552 3.328 3 2.5 3C1.672 3 1 2.552 1 2C1 1.448 1.672 1 2.5 1M2.5 0C1.098 0 0 0.878 0 2C0 3.122 1.098 4 2.5 4C3.902 4 5 3.122 5 2C5 0.878 3.902 0 2.5 0L2.5 0L2.5 0Z" transform="translate(25 0)" id="Shape" fill="#000000" fill-rule="evenodd" stroke="none" />
				</g>
				<g id="Group" transform="translate(0.5 0.5)" opacity="0.07">
					<path d="M2 0.5C2.828 0.5 3.5 0.948 3.5 1.5C3.5 2.052 2.828 2.5 2 2.5C1.172 2.5 0.5 2.052 0.5 1.5C0.5 0.948 1.172 0.5 2 0.5M2 0C0.879 0 0 0.659 0 1.5C0 2.341 0.879 3 2 3C3.121 3 4 2.341 4 1.5C4 0.659 3.121 0 2 0L2 0L2 0Z" transform="translate(0 20)" id="Shape" fill="#000000" fill-rule="evenodd" stroke="none" />
					<path d="M2 0.5C2.828 0.5 3.5 0.948 3.5 1.5C3.5 2.052 2.828 2.5 2 2.5C1.172 2.5 0.5 2.052 0.5 1.5C0.5 0.948 1.172 0.5 2 0.5M2 0C0.879002 0 0 0.659 0 1.5C0 2.341 0.879002 3 2 3C3.121 3 4 2.341 4 1.5C4 0.659 3.121 0 2 0L2 0L2 0Z" transform="translate(27 20)" id="Shape" fill="#000000" fill-rule="evenodd" stroke="none" />
					<path d="M2 0.5C2.828 0.5 3.5 0.948 3.5 1.5C3.5 2.052 2.828 2.5 2 2.5C1.172 2.5 0.5 2.052 0.5 1.5C0.5 0.948 1.172 0.5 2 0.5M2 0C0.879 0 0 0.659 0 1.5C0 2.341 0.879 3 2 3C3.121 3 4 2.341 4 1.5C4 0.659 3.121 0 2 0L2 0L2 0Z" transform="translate(2 0)" id="Shape" fill="#000000" fill-rule="evenodd" stroke="none" />
					<path d="M2 0.5C2.828 0.5 3.5 0.948 3.5 1.5C3.5 2.052 2.828 2.5 2 2.5C1.172 2.5 0.5 2.052 0.5 1.5C0.5 0.948 1.172 0.5 2 0.5M2 0C0.879002 0 0 0.659 0 1.5C0 2.341 0.879002 3 2 3C3.121 3 4 2.341 4 1.5C4 0.659 3.121 0 2 0L2 0L2 0Z" transform="translate(25 0)" id="Shape" fill="#000000" fill-rule="evenodd" stroke="none" />
				</g>
				<path d="M0 1C0 0.447715 0.671573 0 1.5 0C2.32843 0 3 0.447715 3 1C3 1.55228 2.32843 2 1.5 2C0.671573 2 0 1.55228 0 1Z" transform="translate(1 21)" id="Ellipse" fill="#CCCCCC" fill-rule="evenodd" stroke="none" />
				<path d="M0 1C0 0.447715 0.671573 0 1.5 0C2.32843 0 3 0.447715 3 1C3 1.55228 2.32843 2 1.5 2C0.671573 2 0 1.55228 0 1Z" transform="translate(28 21)" id="Ellipse" fill="#CCCCCC" fill-rule="evenodd" stroke="none" />
				<path d="M0 1C0 0.447715 0.671573 0 1.5 0C2.32843 0 3 0.447715 3 1C3 1.55228 2.32843 2 1.5 2C0.671573 2 0 1.55228 0 1Z" transform="translate(3 1)" id="Ellipse" fill="#CCCCCC" fill-rule="evenodd" stroke="none" />
				<path d="M0 1C0 0.447715 0.671573 0 1.5 0C2.32843 0 3 0.447715 3 1C3 1.55228 2.32843 2 1.5 2C0.671573 2 0 1.55228 0 1Z" transform="translate(26 1)" id="Ellipse" fill="#CCCCCC" fill-rule="evenodd" stroke="none" />
			</g>
		</g>
	</g>
</svg>