<?xml version="1.0" encoding="utf-8"?>
<svg width="48px" height="48px" viewBox="0 0 48 48" version="1.1" xmlns:xlink="http://www.w3.org/1999/xlink" xmlns="http://www.w3.org/2000/svg">
  <defs>
    <linearGradient gradientUnits="objectBoundingBox" x1="0.5" y1="-0.008588791" x2="0.5" y2="0.23461771" id="gradient_1">
      <stop offset="0%" stop-color="#EBA600" />
      <stop offset="100%" stop-color="#C28200" />
    </linearGradient>
    <linearGradient gradientUnits="objectBoundingBox" x1="0.5" y1="-0.0048666" x2="0.5" y2="0.9994335" id="gradient_2">
      <stop offset="0%" stop-color="#FFD869" />
      <stop offset="100%" stop-color="#FEC52B" />
    </linearGradient>
    <linearGradient gradientUnits="objectBoundingBox" x1="0.09295273" y1="0.9070473" x2="0.50819063" y2="0.49180984" id="gradient_3">
      <stop offset="0%" stop-color="#3079D6" />
      <stop offset="100%" stop-color="#297CD2" />
    </linearGradient>
    <path d="M48 0L48 0L48 48L0 48L0 0L48 0Z" id="path_1" />
    <clipPath id="clip_1">
      <use xlink:href="#path_1" clip-rule="evenodd" fill-rule="evenodd" />
    </clipPath>
  </defs>
  <g id="Documents Folder" clip-path="url(#clip_1)">
    <path d="M48 0L48 0L48 48L0 48L0 0L48 0Z" id="Documents-Folder" fill="none" stroke="none" />
    <path d="M24.414 10.414L21.878 7.878C21.316 7.316 20.553 7 19.757 7L5 7C3.895 7 3 7.895 3 9L3 39C3 40.105 3.895 41 5 41L43 41C44.105 41 45 40.105 45 39L45 13C45 11.895 44.105 11 43 11L25.828 11C25.298 11 24.789 10.789 24.414 10.414L24.414 10.414Z" id="Shape" fill="url(#gradient_1)" stroke="none" />
    <path d="M21.586 14.414L24.854 11.146C24.947 11.053 25.074 11 25.207 11L43 11C44.105 11 45 11.895 45 13L45 39C45 40.105 44.105 41 43 41L5 41C3.895 41 3 40.105 3 39L3 15.5C3 15.224 3.224 15 3.5 15L20.172 15C20.702 15 21.211 14.789 21.586 14.414L21.586 14.414Z" id="Shape" fill="url(#gradient_2)" stroke="none" />
    <path d="M26.164 18.5L18.75 18.5C17.233 18.5 16 19.733 16 21.25L16 35.25C16 36.767 17.233 38 18.75 38L29.25 38C30.767 38 32 36.767 32 35.25L32 24.336L26.164 18.5L26.164 18.5Z" id="Shape" fill="#000000" fill-opacity="0.05" stroke="none" />
    <path d="M25.957 19L18.75 19C17.51 19 16.5 20.009 16.5 21.25L16.5 35.25C16.5 36.491 17.51 37.5 18.75 37.5L29.25 37.5C30.49 37.5 31.5 36.491 31.5 35.25L31.5 24.543L25.957 19L25.957 19Z" id="Shape" fill="#000000" fill-opacity="0.07" stroke="none" />
    <path d="M31 24.75L31 35.25C31 36.216 30.216 37 29.25 37L18.75 37C17.784 37 17 36.216 17 35.25L17 21.25C17 20.284 17.784 19.5 18.75 19.5L25.75 19.5L31 24.75L31 24.75Z" id="Shape" fill="#35C1F1" stroke="none" />
    <path d="M25.75 19.5L25.75 23C25.75 23.966 26.534 24.75 27.5 24.75L31 24.75L25.75 19.5L25.75 19.5Z" id="Shape" fill="url(#gradient_3)" stroke="none" />
  </g>
</svg>