<?xml version="1.0" encoding="utf-8"?>
<svg width="48px" height="48px" viewBox="0 0 48 48" version="1.1" xmlns:xlink="http://www.w3.org/1999/xlink" xmlns="http://www.w3.org/2000/svg">
  <defs>
    <path d="M48 0L48 0L48 48L0 48L0 0L48 0Z" id="path_1" />
    <clipPath id="clip_1">
      <use xlink:href="#path_1" clip-rule="evenodd" fill-rule="evenodd" />
    </clipPath>
  </defs>
  <g id="Animated" clip-path="url(#clip_1)">
    <path d="M48 0L48 0L48 48L0 48L0 0L48 0Z" id="Animated" fill="none" stroke="none" />
    <path d="M22.114 43.309L12.243 24.464C12.091 24.173 12.091 23.827 12.243 23.536L22.114 4.691C22.488 3.976 23.511 3.976 23.886 4.691L33.757 23.536C33.909 23.827 33.909 24.173 33.757 24.464L23.886 43.309C23.511 44.024 22.489 44.024 22.114 43.309L22.114 43.309Z" id="Shape" fill="#199BE2" stroke="none" />
    <path d="M33.757 24.464C33.909 24.173 33.909 23.827 33.757 23.536L27.435 11.467L21.357 23.071C21.053 23.652 21.052 24.345 21.356 24.927L27.435 36.531L33.757 24.464L33.757 24.464Z" id="Shape" fill="#000000" fill-opacity="0.05" stroke="none" />
    <path d="M27.718 12.007L21.801 23.304C21.572 23.74 21.572 24.261 21.8 24.696L27.718 35.994L33.757 24.464C33.909 24.173 33.909 23.827 33.757 23.536L27.718 12.007L27.718 12.007Z" id="Shape" fill="#000000" fill-opacity="0.07" stroke="none" />
    <path d="M32.114 43.309L22.243 24.464C22.091 24.173 22.091 23.827 22.243 23.536L32.114 4.691C32.488 3.976 33.511 3.976 33.886 4.691L43.757 23.536C43.909 23.827 43.909 24.173 43.757 24.464L33.886 43.309C33.511 44.024 32.489 44.024 32.114 43.309L32.114 43.309Z" id="Shape" fill="#50E6FF" stroke="none" />
    <path d="M16.382 43.824C16.027 43.824 15.697 43.636 15.519 43.328L14.51 41.601C14.232 41.124 14.392 40.512 14.868 40.233C15.347 39.955 15.958 40.116 16.236 40.592L16.382 40.841L16.528 40.592C16.806 40.116 17.418 39.955 17.896 40.233C18.373 40.511 18.533 41.124 18.254 41.601L17.245 43.328C17.066 43.636 16.737 43.824 16.382 43.824L16.382 43.824Z" id="Shape" fill="#0D62AB" stroke="none" />
    <path d="M13.577 39.023C13.233 39.023 12.898 38.846 12.713 38.527L10.917 35.453C10.639 34.976 10.799 34.364 11.275 34.085C11.755 33.806 12.366 33.967 12.643 34.444L14.439 37.518C14.717 37.995 14.557 38.607 14.081 38.886C13.922 38.979 13.748 39.023 13.577 39.023L13.577 39.023ZM9.984 32.875C9.64 32.875 9.305 32.698 9.12 32.379L7.324 29.305C7.046 28.828 7.206 28.216 7.682 27.937C8.162 27.659 8.773 27.819 9.05 28.296L10.846 31.37C11.124 31.847 10.964 32.459 10.488 32.738C10.329 32.831 10.155 32.875 9.984 32.875L9.984 32.875Z" id="Shape" fill="#0D62AB" fill-rule="evenodd" stroke="none" />
    <path d="M6.392 26.727C6.048 26.727 5.713 26.55 5.528 26.231L4.519 24.504C4.336 24.192 4.336 23.807 4.519 23.495L5.528 21.768C5.806 21.292 6.42 21.13 6.895 21.409C7.373 21.687 7.533 22.3 7.254 22.777L6.54 24L7.254 25.222C7.532 25.699 7.372 26.311 6.896 26.59C6.736 26.683 6.563 26.727 6.392 26.727L6.392 26.727Z" id="Shape" fill="#0D62AB" stroke="none" />
    <path d="M8.187 20.196C8.016 20.196 7.842 20.152 7.684 20.06C7.206 19.781 7.046 19.169 7.325 18.692L9.122 15.615C9.4 15.138 10.014 14.979 10.489 15.256C10.967 15.535 11.127 16.147 10.848 16.624L9.051 19.7C8.865 20.019 8.53 20.196 8.187 20.196L8.187 20.196ZM11.779 14.042C11.608 14.042 11.434 13.998 11.276 13.906C10.798 13.627 10.638 13.015 10.917 12.538L12.714 9.46C12.992 8.983 13.606 8.823 14.081 9.101C14.559 9.38 14.719 9.992 14.44 10.469L12.643 13.547C12.458 13.864 12.123 14.042 11.779 14.042L11.779 14.042Z" id="Shape" fill="#0D62AB" fill-rule="evenodd" stroke="none" />
    <path d="M15.373 7.887C15.202 7.887 15.028 7.843 14.87 7.751C14.392 7.473 14.232 6.86 14.511 6.383L15.519 4.656C15.876 4.042 16.888 4.041 17.246 4.656L18.255 6.383C18.533 6.86 18.373 7.472 17.896 7.751C17.419 8.031 16.807 7.869 16.529 7.392L16.383 7.144L16.238 7.392C16.052 7.709 15.717 7.887 15.373 7.887L15.373 7.887Z" id="Shape" fill="#0D62AB" stroke="none" />
  </g>
</svg>