<?xml version="1.0" encoding="utf-8"?>
<svg width="48px" height="48px" viewBox="0 0 48 48" version="1.1" xmlns:xlink="http://www.w3.org/1999/xlink" xmlns="http://www.w3.org/2000/svg">
  <defs>
    <linearGradient gradientUnits="userSpaceOnUse" x1="0.5290003" y1="10.472" x2="5.6" y2="5.3999996" id="gradient_1">
      <stop offset="0%" stop-color="#3079D6" />
      <stop offset="100%" stop-color="#297CD2" />
    </linearGradient>
    <linearGradient gradientUnits="userSpaceOnUse" x1="-0.13110413" y1="-0.13110413" x2="25.818459" y2="25.818459" id="gradient_2">
      <stop offset="0%" stop-color="#21AD64" />
      <stop offset="100%" stop-color="#088242" />
    </linearGradient>
    <linearGradient gradientUnits="userSpaceOnUse" x1="0.26281333" y1="0.26281333" x2="2.036041" y2="2.036041" id="gradient_3">
      <stop offset="0%" stop-color="#FFD869" />
      <stop offset="100%" stop-color="#FEC52B" />
    </linearGradient>
    <linearGradient gradientUnits="userSpaceOnUse" x1="-0.3679373" y1="-0.367938" x2="3.2528334" y2="3.2528334" id="gradient_4">
      <stop offset="0%" stop-color="#FFD869" />
      <stop offset="100%" stop-color="#FEC52B" />
    </linearGradient>
    <linearGradient gradientUnits="userSpaceOnUse" x1="0.41385445" y1="0.4138529" x2="3.5083954" y2="3.5083947" id="gradient_5">
      <stop offset="0%" stop-color="#FFD869" />
      <stop offset="100%" stop-color="#FEC52B" />
    </linearGradient>
    <linearGradient gradientUnits="userSpaceOnUse" x1="48.76178" y1="-37.009457" x2="-7.4220824" y2="16.668339" id="gradient_6">
      <stop offset="0%" stop-color="#FFD869" />
      <stop offset="100%" stop-color="#FEC52B" />
    </linearGradient>
    <path d="M0 0L48 0L48 48L0 48L0 0Z" id="path_1" />
    <path d="M0 0L29 0L29 29L0 29L0 0Z" id="path_2" />
    <clipPath id="mask_1">
      <use xlink:href="#path_1" />
    </clipPath>
    <clipPath id="mask_2">
      <use xlink:href="#path_2" />
    </clipPath>
  </defs>
  <g id="File-Icon-2">
    <path d="M0 0L48 0L48 48L0 48L0 0Z" id="Background" fill="#FFFFFF" fill-opacity="0" fill-rule="evenodd" stroke="none" />
    <path d="M39 16L39 41C39 42.105 38.105 43 37 43L11 43C9.895 43 9 42.105 9 41L9 7C9 5.895 9.895 5 11 5L28 5L39 16L39 16Z" id="Shape" fill="#50E6FF" stroke="none" />
    <path d="M28 5L28 14C28 15.105 28.895 16 30 16L39 16L28 5L28 5Z" id="Shape" fill="url(#gradient_1)" stroke="none" />
  </g>
  <g id="Radar-Icon" transform="translate(9.5 15)">
    <path d="M0 0L29 0L29 29L0 29L0 0Z" id="Background" fill="#FFFFFF" fill-opacity="0" fill-rule="evenodd" stroke="none" />
    <path d="M26.5833 14.5C26.5833 14.6994 26.5773 14.9048 26.5652 15.1042C26.2579 21.3022 21.3022 26.2579 15.1042 26.5652C14.9048 26.5773 14.6994 26.5833 14.5 26.5833C14.3006 26.5833 14.0952 26.5773 13.8958 26.5652C7.69784 26.2579 2.74213 21.3022 2.43479 15.1042C2.42271 14.9048 2.41667 14.6994 2.41667 14.5C2.41667 14.3006 2.42271 14.0952 2.43479 13.8958C2.74216 7.69784 7.69786 2.74215 13.8958 2.43479C14.0952 2.42271 14.3006 2.41667 14.5 2.41667C14.6994 2.41667 14.9048 2.42271 15.1042 2.43479C21.3022 2.74215 26.2578 7.69785 26.5652 13.8958C26.5773 14.0952 26.5833 14.3006 26.5833 14.5L26.5833 14.5Z" id="Shape" fill="url(#gradient_2)" stroke="none" />
    <path d="M14.5 23.5625C9.49492 23.5625 5.43751 19.5051 5.4375 14.5C5.43749 9.49494 9.49489 5.43752 14.5 5.4375C19.505 5.43748 23.5625 9.49488 23.5625 14.5C23.557 19.5024 19.5031 23.5567 14.5003 23.5625L14.5 23.5625ZM14.5 6.64583C10.1623 6.64583 6.64584 10.1623 6.64583 14.5C6.64583 18.8377 10.1622 22.3542 14.5 22.3542C18.8377 22.3542 22.3541 18.8378 22.3542 14.5C22.3494 10.1644 18.8358 6.65068 14.5001 6.64583L14.5 6.64583Z" id="Shape" fill="#33C481" fill-rule="evenodd" stroke="none" />
    <path d="M14.5 19.3333C11.8306 19.3333 9.66668 17.1694 9.66667 14.5C9.66667 11.8306 11.8306 9.66668 14.5 9.66667C17.1694 9.66666 19.3333 11.8306 19.3333 14.5C19.3304 17.1679 17.1684 19.3302 14.5002 19.3333L14.5 19.3333ZM14.5 10.875C12.498 10.875 10.875 12.498 10.875 14.5C10.875 16.502 12.498 18.125 14.5 18.125C16.502 18.125 18.125 16.5021 18.125 14.5C18.1227 12.4987 16.5009 10.8771 14.4998 10.875L14.5 10.875Z" id="Shape" fill="#33C481" fill-rule="evenodd" stroke="none" />
    <path d="M20.8438 19.3333C21.3443 19.3333 21.75 19.7391 21.75 20.2396C21.75 20.7401 21.3443 21.1458 20.8438 21.1458C20.3432 21.1458 19.9375 20.7401 19.9375 20.2396C19.9375 19.7391 20.3432 19.3333 20.8438 19.3333M20.8438 18.7292C20.0096 18.7292 19.3333 19.4054 19.3333 20.2396C19.3333 21.0738 20.0096 21.75 20.8437 21.75C21.6779 21.75 22.3542 21.0738 22.3542 20.2396C22.3533 19.4059 21.6776 18.7301 20.8438 18.7292L20.8438 18.7292Z" id="Shape" fill="#000000" fill-opacity="0.05" fill-rule="evenodd" stroke="none" />
    <path d="M20.8438 19.3333C21.3443 19.3333 21.75 19.7391 21.75 20.2396C21.75 20.7401 21.3443 21.1458 20.8438 21.1458C20.3432 21.1458 19.9375 20.7401 19.9375 20.2396C19.9375 19.7391 20.3432 19.3333 20.8438 19.3333M20.8438 19.0312C20.1764 19.0312 19.6354 19.5722 19.6354 20.2396C19.6354 20.9069 20.1764 21.4479 20.8437 21.4479C21.5111 21.4479 22.0521 20.9069 22.0521 20.2396C22.0514 19.5726 21.5108 19.032 20.8438 19.0313L20.8438 19.0312Z" id="Shape" fill="#000000" fill-opacity="0.07" fill-rule="evenodd" stroke="none" />
    <path d="M19.9375 20.2396C19.9375 19.7391 20.3432 19.3333 20.8438 19.3333C21.3443 19.3333 21.75 19.7391 21.75 20.2396C21.75 20.7401 21.3443 21.1458 20.8438 21.1458C20.3432 21.1458 19.9375 20.7401 19.9375 20.2396Z" id="Circle" fill="url(#gradient_3)" fill-rule="evenodd" stroke="none" />
    <path d="M8.15625 7.25C8.99043 7.25 9.66667 7.92624 9.66667 8.76041C9.66667 9.59459 8.99043 10.2708 8.15626 10.2708C7.32208 10.2708 6.64584 9.5946 6.64583 8.76042C6.64583 7.92623 7.32207 7.25 8.15626 7.25M8.15625 6.64583C6.9884 6.64583 6.04167 7.59256 6.04167 8.76041C6.04166 9.92826 6.98839 10.875 8.15624 10.875C9.32409 10.875 10.2708 9.92828 10.2708 8.76043C10.2696 7.59322 9.32365 6.64722 8.15634 6.64583L8.15625 6.64583Z" id="Shape" fill="#000000" fill-opacity="0.05" fill-rule="evenodd" stroke="none" />
    <path d="M8.15625 7.25C8.99043 7.25 9.66667 7.92623 9.66667 8.76041C9.66667 9.59459 8.99043 10.2708 8.15626 10.2708C7.32208 10.2708 6.64584 9.5946 6.64583 8.76042C6.64583 7.92623 7.32207 7.25 8.15626 7.25M8.15625 6.94792C7.15523 6.94792 6.34375 7.7594 6.34375 8.76041C6.34375 9.76143 7.15523 10.5729 8.15624 10.5729C9.15726 10.5729 9.96875 9.76144 9.96875 8.76043C9.96771 7.76003 9.15696 6.94913 8.15641 6.94792L8.15625 6.94792Z" id="Shape" fill="#000000" fill-opacity="0.07" fill-rule="evenodd" stroke="none" />
    <path d="M6.64583 8.76042C6.64583 7.92624 7.32207 7.25 8.15625 7.25C8.99043 7.25 9.66667 7.92624 9.66667 8.76042C9.66667 9.5946 8.99043 10.2708 8.15625 10.2708C7.32207 10.2708 6.64583 9.5946 6.64583 8.76042Z" id="Circle" fill="url(#gradient_4)" fill-rule="evenodd" stroke="none" />
    <g id="Group" transform="translate(6.0416665 18.125)">
      <path d="M2.11458 0.604167C2.94876 0.604167 3.625 1.2804 3.625 2.11458C3.625 2.94876 2.94877 3.625 2.11459 3.625C1.28041 3.625 0.604171 2.94877 0.604167 2.11459C0.604167 1.2804 1.28041 0.604162 2.11459 0.604167M2.11458 0C0.946732 0 1.72853e-06 0.946729 0 2.11458C-1.72853e-06 3.28243 0.946725 4.22916 2.11458 4.22917C3.28243 4.22917 4.22916 3.28245 4.22917 2.11459C4.22789 0.947382 3.28198 0.00138283 2.11468 0L2.11458 0Z" id="Shape" fill="#000000" fill-opacity="0.05" fill-rule="evenodd" stroke="none" />
      <path d="M2.11458 0.604167C2.94876 0.604167 3.625 1.2804 3.625 2.11458C3.625 2.94876 2.94877 3.625 2.11459 3.625C1.28041 3.625 0.604171 2.94877 0.604167 2.11459C0.604167 1.2804 1.28041 0.604162 2.11459 0.604167M2.11458 0.302083C1.11357 0.302083 0.302085 1.11357 0.302083 2.11458C0.302082 3.1156 1.11356 3.92708 2.11458 3.92708C3.11559 3.92709 3.92708 3.11561 3.92708 2.11459C3.92605 1.1142 3.11529 0.303299 2.11474 0.302083L2.11458 0.302083Z" id="Shape" fill="#000000" fill-opacity="0.07" fill-rule="evenodd" stroke="none" />
      <path d="M0.604167 2.11458C0.604167 1.2804 1.2804 0.604167 2.11458 0.604167C2.94876 0.604167 3.625 1.2804 3.625 2.11458C3.625 2.94876 2.94876 3.625 2.11458 3.625C1.2804 3.625 0.604167 2.94876 0.604167 2.11458Z" id="Circle" fill="url(#gradient_5)" fill-rule="evenodd" stroke="none" />
    </g>
    <path d="M15.1042 2.43479L15.1042 26.5652C14.9048 26.5773 14.6994 26.5833 14.5 26.5833C14.3006 26.5833 14.0952 26.5773 13.8958 26.5652L13.8958 2.43479C14.0952 2.42271 14.3006 2.41667 14.5 2.41667C14.6994 2.41667 14.9048 2.42271 15.1042 2.43479L15.1042 2.43479Z" id="Shape" fill="#33C481" stroke="none" />
    <path d="M26.5833 14.5C26.5833 14.6994 26.5773 14.9048 26.5652 15.1042L2.43479 15.1042C2.42271 14.9048 2.41667 14.6994 2.41667 14.5C2.41667 14.3006 2.42271 14.0952 2.43479 13.8958L26.5652 13.8958C26.5773 14.0952 26.5833 14.3006 26.5833 14.5L26.5833 14.5Z" id="Shape" fill="#33C481" stroke="none" />
    <g id="Group" transform="translate(12.6875 5.5130205)">
      <path d="M9.59114 0.604168C9.83546 0.60422 10.0557 0.751419 10.1492 0.977147C10.2427 1.20287 10.191 1.46269 10.0183 1.63548L2.97591 8.67789C3.12582 9.21604 2.89402 9.78762 2.4116 10.0693C1.92918 10.351 1.31747 10.272 0.922449 9.87702C0.527424 9.482 0.448427 8.87029 0.730135 8.38787C1.01184 7.90545 1.58342 7.67365 2.12158 7.82356L9.16399 0.781189C9.27714 0.667694 9.43087 0.603986 9.59114 0.604167M9.59114 4.03325e-06C9.27051 -0.000850439 8.96286 0.126605 8.73677 0.353961L1.91298 7.17775C1.87919 7.17557 1.8457 7.17448 1.8125 7.17448C0.811485 7.17448 1.15236e-06 7.98597 0 8.98698C-1.15236e-06 9.98799 0.811479 10.7995 1.81249 10.7995C2.81351 10.7995 3.62499 9.98801 3.625 8.98699C3.625 8.95376 3.62391 8.92027 3.62173 8.88651L10.4455 2.06271C10.7911 1.71713 10.8944 1.19744 10.7074 0.74594C10.5204 0.294441 10.0798 4.03325e-05 9.59114 4.03325e-06L9.59114 4.03325e-06Z" id="Shape" fill="#000000" fill-opacity="0.05" fill-rule="evenodd" stroke="none" />
      <path d="M9.59113 0.604163C9.83545 0.604215 10.0557 0.751414 10.1492 0.977142C10.2427 1.20287 10.191 1.46269 10.0183 1.63548L2.97591 8.67788C3.12582 9.21604 2.89401 9.78761 2.4116 10.0693C1.92918 10.351 1.31747 10.272 0.922444 9.87702C0.527419 9.482 0.448421 8.87029 0.73013 8.38787C1.01184 7.90545 1.58341 7.67364 2.12157 7.82355L9.16399 0.781184C9.27714 0.667689 9.43087 0.603981 9.59113 0.604162M9.59114 0.302082C9.35067 0.301443 9.11993 0.397041 8.95037 0.567564L2.0241 7.49383C1.95414 7.48243 1.88338 7.47666 1.8125 7.47656C0.978317 7.47656 0.302081 8.15279 0.302078 8.98697C0.302076 9.82115 0.978309 10.4974 1.81249 10.4974C2.64667 10.4974 3.32291 9.82117 3.32291 8.98699C3.32282 8.91609 3.31704 8.84533 3.30563 8.77537L10.2319 1.8491C10.4911 1.58992 10.5686 1.20016 10.4283 0.861538C10.2881 0.522919 9.95765 0.302117 9.59114 0.302081L9.59114 0.302082Z" id="Shape" fill="#000000" fill-opacity="0.07" fill-rule="evenodd" stroke="none" />
      <path d="M10.0183 0.781186C9.90503 0.667855 9.75136 0.604181 9.59113 0.604181C9.4309 0.604181 9.27724 0.667855 9.16397 0.781186L2.1216 7.82356C1.58344 7.67364 1.01187 7.90545 0.730154 8.38787C0.448442 8.87028 0.527438 9.48199 0.922461 9.87702C1.31748 10.272 1.92919 10.351 2.41161 10.0693C2.89403 9.78762 3.12584 9.21605 2.97593 8.67789L10.0183 1.63548C10.1316 1.52221 10.1953 1.36855 10.1953 1.20833C10.1953 1.04811 10.1316 0.894454 10.0183 0.781186L10.0183 0.781186Z" id="Shape" fill="url(#gradient_6)" stroke="none" />
    </g>
  </g>
</svg>