<?xml version="1.0" encoding="utf-8"?>
<svg width="48px" height="48px" viewBox="0 0 48 48" version="1.1" xmlns:xlink="http://www.w3.org/1999/xlink" xmlns="http://www.w3.org/2000/svg">
  <defs>
    <linearGradient gradientUnits="objectBoundingBox" x1="-0.005424969" y1="-0.0054250583" x2="1.0683501" y2="1.0683501" id="gradient_1">
      <stop offset="0%" stop-color="#21AD64" />
      <stop offset="100%" stop-color="#088242" />
    </linearGradient>
    <linearGradient gradientUnits="objectBoundingBox" x1="0.14500046" y1="0.14500046" x2="1.123333" y2="1.123333" id="gradient_2">
      <stop offset="0%" stop-color="#FFD869" />
      <stop offset="100%" stop-color="#FEC52B" />
    </linearGradient>
    <linearGradient gradientUnits="objectBoundingBox" x1="-0.121799946" y1="-0.121800184" x2="1.0768001" y2="1.0768001" id="gradient_3">
      <stop offset="0%" stop-color="#FFD869" />
      <stop offset="100%" stop-color="#FEC52B" />
    </linearGradient>
    <linearGradient gradientUnits="objectBoundingBox" x1="0.13700008" y1="0.1369996" x2="1.1613998" y2="1.1613998" id="gradient_4">
      <stop offset="0%" stop-color="#FFD869" />
      <stop offset="100%" stop-color="#FEC52B" />
    </linearGradient>
    <linearGradient gradientUnits="objectBoundingBox" x1="5.062004" y1="-3.8419757" x2="-0.770493" y2="1.7303511" id="gradient_5">
      <stop offset="0%" stop-color="#FFD869" />
      <stop offset="100%" stop-color="#FEC52B" />
    </linearGradient>
    <path d="M48 0L48 0L48 48L0 48L0 0L48 0Z" id="path_1" />
    <clipPath id="clip_1">
      <use xlink:href="#path_1" clip-rule="evenodd" fill-rule="evenodd" />
    </clipPath>
  </defs>
  <g id="Radar" clip-path="url(#clip_1)">
    <path d="M48 0L48 0L48 48L0 48L0 0L48 0Z" id="Radar" fill="none" stroke="none" />
    <path d="M44 24C44 24.33 43.99 24.67 43.97 25C43.4613 35.2587 35.2587 43.4613 25 43.97C24.67 43.99 24.33 44 24 44C23.67 44 23.33 43.99 23 43.97C12.7413 43.4613 4.5387 35.2587 4.03 25C4.01 24.67 4 24.33 4 24C4 23.67 4.01 23.33 4.03 23C4.53873 12.7413 12.7413 4.53874 23 4.03C23.33 4.01 23.67 4 24 4C24.33 4 24.67 4.01 25 4.03C35.2587 4.53873 43.4613 12.7413 43.97 23C43.99 23.33 44 23.67 44 24L44 24Z" id="Shape" fill="url(#gradient_1)" stroke="none" />
    <path d="M24 39C15.7157 39 9 32.2843 9 24C9 15.7157 15.7157 9 24 9C32.2843 9 39 15.7157 39 24C38.9905 32.2806 32.2802 38.9907 23.9998 39L24 39ZM24 11C16.8203 11 11 16.8203 11 24C11 31.1797 16.8203 37 24 37C31.1797 37 37 31.1797 37 24C36.9922 16.8238 31.1766 11.0081 24.0002 11L24 11Z" id="Shape" fill="#33C481" fill-rule="evenodd" stroke="none" />
    <path d="M24 32C19.5817 32 16 28.4183 16 24C16 19.5817 19.5817 16 24 16C28.4183 16 32 19.5817 32 24C31.9952 28.4158 28.4166 31.9947 24.0004 32L24 32ZM24 18C20.6863 18 18 20.6863 18 24C18 27.3137 20.6863 30 24 30C27.3137 30 30 27.3137 30 24C29.9962 20.6875 27.3119 18.0034 23.9997 18L24 18Z" id="Shape" fill="#33C481" fill-rule="evenodd" stroke="none" />
    <path d="M34.5 32C35.3284 32 36 32.6716 36 33.5C36 34.3284 35.3284 35 34.5 35C33.6716 35 33 34.3284 33 33.5C33 32.6716 33.6716 32 34.5 32M34.5 31C33.1193 31 32 32.1193 32 33.5C32 34.8807 33.1193 36 34.5 36C35.8807 36 37 34.8807 37 33.5C36.9984 32.1199 35.88 31.0016 34.5 31L34.5 31Z" id="Shape" fill="#000000" fill-opacity="0.05" fill-rule="evenodd" stroke="none" />
    <path d="M34.5 32C35.3284 32 36 32.6716 36 33.5C36 34.3284 35.3284 35 34.5 35C33.6716 35 33 34.3284 33 33.5C33 32.6716 33.6716 32 34.5 32M34.5 31.5C33.3954 31.5 32.5 32.3954 32.5 33.5C32.5 34.6046 33.3954 35.5 34.5 35.5C35.6046 35.5 36.5 34.6046 36.5 33.5C36.4988 32.396 35.6041 31.5013 34.5001 31.5L34.5 31.5Z" id="Shape" fill="#000000" fill-opacity="0.07" fill-rule="evenodd" stroke="none" />
    <path d="M33 33.5C33 32.6716 33.6716 32 34.5 32C35.3284 32 36 32.6716 36 33.5C36 34.3284 35.3284 35 34.5 35C33.6716 35 33 34.3284 33 33.5Z" id="Circle" fill="url(#gradient_2)" fill-rule="evenodd" stroke="none" />
    <path d="M13.5 12C14.8807 12 16 13.1193 16 14.5C16 15.8807 14.8807 17 13.5 17C12.1193 17 11 15.8807 11 14.5C11 13.1193 12.1193 12 13.5 12M13.5 11C11.567 11 10 12.567 10 14.5C10 16.433 11.567 18 13.5 18C15.433 18 17 16.433 17 14.5C16.9979 12.5681 15.4323 11.0023 13.5002 11L13.5 11Z" id="Shape" fill="#000000" fill-opacity="0.05" fill-rule="evenodd" stroke="none" />
    <path d="M13.5 12C14.8807 12 16 13.1193 16 14.5C16 15.8807 14.8807 17 13.5 17C12.1193 17 11 15.8807 11 14.5C11 13.1193 12.1193 12 13.5 12M13.5 11.5C11.8431 11.5 10.5 12.8431 10.5 14.5C10.5 16.1569 11.8431 17.5 13.5 17.5C15.1569 17.5 16.5 16.1569 16.5 14.5C16.4983 12.8442 15.1564 11.502 13.5003 11.5L13.5 11.5Z" id="Shape" fill="#000000" fill-opacity="0.07" fill-rule="evenodd" stroke="none" />
    <path d="M11 14.5C11 13.1193 12.1193 12 13.5 12C14.8807 12 16 13.1193 16 14.5C16 15.8807 14.8807 17 13.5 17C12.1193 17 11 15.8807 11 14.5Z" id="Circle" fill="url(#gradient_3)" fill-rule="evenodd" stroke="none" />
    <g id="Group" transform="translate(10 30)">
      <path d="M3.5 1C4.88071 1 6 2.11929 6 3.5C6 4.88071 4.88071 6 3.5 6C2.11929 6 1 4.88071 1 3.5C1 2.11929 2.11929 1 3.5 1M3.5 0C1.567 0 0 1.567 0 3.5C0 5.433 1.567 7 3.5 7C5.433 7 7 5.433 7 3.5C6.99789 1.56809 5.43225 0.00230026 3.50017 0L3.5 0Z" id="Shape" fill="#000000" fill-opacity="0.05" fill-rule="evenodd" stroke="none" />
      <path d="M3.5 1C4.88071 1 6 2.11929 6 3.5C6 4.88071 4.88071 6 3.5 6C2.11929 6 1 4.88071 1 3.5C1 2.11929 2.11929 1 3.5 1M3.5 0.5C1.84315 0.5 0.5 1.84315 0.5 3.5C0.5 5.15685 1.84315 6.5 3.5 6.5C5.15685 6.5 6.5 5.15685 6.5 3.5C6.49829 1.8442 5.15636 0.502022 3.50028 0.5L3.5 0.5Z" id="Shape" fill="#000000" fill-opacity="0.07" fill-rule="evenodd" stroke="none" />
      <path d="M1 3.5C1 2.11929 2.11929 1 3.5 1C4.88071 1 6 2.11929 6 3.5C6 4.88071 4.88071 6 3.5 6C2.11929 6 1 4.88071 1 3.5Z" id="Circle" fill="url(#gradient_4)" fill-rule="evenodd" stroke="none" />
    </g>
    <path d="M25 4.03L25 43.97C24.67 43.99 24.33 44 24 44C23.67 44 23.33 43.99 23 43.97L23 4.03C23.33 4.01 23.67 4 24 4C24.33 4 24.67 4.01 25 4.03L25 4.03Z" id="Shape" fill="#33C481" stroke="none" />
    <path d="M44 24C44 24.33 43.99 24.67 43.97 25L4.03 25C4.01 24.67 4 24.33 4 24C4 23.67 4.01 23.33 4.03 23L43.97 23C43.99 23.33 44 23.67 44 24L44 24Z" id="Shape" fill="#33C481" stroke="none" />
    <g id="Group" transform="translate(21 9.124991)">
      <path d="M15.875 1.00001C16.2794 1.00009 16.6439 1.24374 16.7987 1.61735C16.9534 1.99097 16.8679 2.42101 16.582 2.70701L4.92566 14.3634C5.17379 15.2542 4.79011 16.2002 3.99163 16.6665C3.19314 17.1328 2.18066 17.002 1.52682 16.3482C0.87299 15.6943 0.742237 14.6819 1.20852 13.8834C1.6748 13.0849 2.62085 12.7012 3.5116 12.9493L15.168 1.29301C15.3553 1.10515 15.6097 0.999707 15.875 1.00001M15.875 7.39098e-06C15.3443 -0.00140786 14.8351 0.209553 14.4609 0.585867L3.16631 11.8804C3.11039 11.8768 3.05495 11.875 3 11.875C1.34315 11.875 0 13.2182 0 14.875C0 16.5319 1.34315 17.875 3 17.875C4.65686 17.875 6 16.5319 6 14.875C6 14.82 5.9982 14.7646 5.99459 14.7087L17.2891 3.41415C17.8611 2.84215 18.0322 1.98197 17.7226 1.23466C17.4131 0.487352 16.6839 6.84261e-05 15.875 8.34465e-06L15.875 7.39098e-06Z" id="Shape" fill="#000000" fill-opacity="0.05" fill-rule="evenodd" stroke="none" />
      <path d="M15.875 1.00001C16.2794 1.00009 16.6439 1.24374 16.7987 1.61735C16.9534 1.99097 16.8679 2.42101 16.582 2.70701L4.92566 14.3634C5.17379 15.2542 4.79011 16.2002 3.99163 16.6665C3.19314 17.1328 2.18066 17.002 1.52682 16.3482C0.872989 15.6943 0.742237 14.6819 1.20852 13.8834C1.6748 13.0849 2.62085 12.7012 3.5116 12.9493L15.168 1.29301C15.3553 1.10515 15.6097 0.999707 15.875 1.00001M15.875 0.500007C15.477 0.498952 15.0951 0.657182 14.8144 0.939428L3.35024 12.4036C3.23445 12.3847 3.11732 12.3752 3 12.375C1.61929 12.375 0.5 13.4943 0.5 14.875C0.5 16.2557 1.61929 17.375 3 17.375C4.38071 17.375 5.5 16.2557 5.5 14.875C5.49984 14.7577 5.49028 14.6406 5.4714 14.5248L16.9356 3.0606C17.3645 2.6316 17.4928 1.98648 17.2607 1.42601C17.0285 0.865532 16.4816 0.500067 15.875 0.500007L15.875 0.500007Z" id="Shape" fill="#000000" fill-opacity="0.07" fill-rule="evenodd" stroke="none" />
      <path d="M16.582 1.29301C16.3945 1.10543 16.1402 1.00004 15.875 1.00004C15.6098 1.00004 15.3554 1.10543 15.1679 1.29301L3.5116 12.9493C2.62086 12.7012 1.6748 13.0849 1.20852 13.8834C0.742241 14.6819 0.872994 15.6944 1.52683 16.3482C2.18066 17.002 3.19315 17.1328 3.99163 16.6665C4.79012 16.2002 5.1738 15.2542 4.92566 14.3634L16.582 2.70701C16.7696 2.51953 16.8749 2.2652 16.8749 2.00001C16.8749 1.73481 16.7696 1.48049 16.582 1.29301L16.582 1.29301Z" id="Shape" fill="url(#gradient_5)" stroke="none" />
    </g>
  </g>
</svg>