<?xml version="1.0" encoding="utf-8"?>
<svg width="48px" height="48px" viewBox="0 0 48 48" version="1.1" xmlns:xlink="http://www.w3.org/1999/xlink" xmlns="http://www.w3.org/2000/svg">
  <defs>
    <linearGradient gradientUnits="userSpaceOnUse" x1="0" y1="18.999998" x2="30" y2="18.999998" id="gradient_1">
      <stop offset="0%" stop-color="#FEDE00" />
      <stop offset="100%" stop-color="#FFD000" />
    </linearGradient>
    <linearGradient gradientUnits="userSpaceOnUse" x1="0.00015590384" y1="5.5" x2="5.999157" y2="5.5" id="gradient_2">
      <stop offset="0%" stop-color="#4B4B4B" />
      <stop offset="100%" stop-color="#3B3B3B" />
    </linearGradient>
    <path d="M0 0L48 0L48 48L0 48L0 0Z" id="path_1" />
    <clipPath id="mask_1">
      <use xlink:href="#path_1" />
    </clipPath>
  </defs>
  <g id="Archive-Icon">
    <path d="M0 0L48 0L48 48L0 48L0 0Z" id="Background" fill="#FFFFFF" fill-opacity="0" fill-rule="evenodd" stroke="none" />
    <path d="M39 41C39 42.105 38.105 43 37 43L11 43C9.895 43 9 42.105 9 41L9 7C9 5.895 9.895 5 11 5L37 5C38.105 5 39 5.895 39 7L39 41L39 41Z" id="Shape" fill="url(#gradient_1)" stroke="none" />
    <path d="M26.154 20.818C26.068 20.344 25.654 20 25.171 20L22.829 20C22.346 20 21.932 20.342 21.846 20.817C21.571 22.328 21.023 25.61 21.001 27.864C20.986 29.372 22.048 30.744 23.539 30.966C25.4 31.243 27 29.808 27 28C27 25.745 26.435 22.361 26.154 20.818L26.154 20.818ZM24 29C23.448 29 23 28.552 23 28C23 27.448 23.448 27 24 27C24.552 27 25 27.448 25 28C25 28.552 24.552 29 24 29L24 29Z" id="Shape" fill="url(#gradient_2)" fill-rule="evenodd" stroke="none" />
    <path d="M23.457 17L22.544 17C22.243 17 22 16.757 22 16.457L22 15.544C22 15.244 22.243 15.001 22.543 15.001L23.456 15.001C23.756 15.001 23.999 15.244 23.999 15.544L23.999 16.457C24 16.757 23.757 17 23.457 17L23.457 17Z" id="Shape" fill="#E97C01" stroke="none" />
    <path d="M25.457 19L24.544 19C24.243 19 24 18.757 24 18.457L24 17.544C24 17.244 24.243 17.001 24.543 17.001L25.456 17.001C25.756 17.001 25.999 17.244 25.999 17.544L25.999 18.457C26 18.757 25.757 19 25.457 19L25.457 19Z" id="Shape" fill="#E97C01" stroke="none" />
    <path d="M23.457 13L22.544 13C22.243 13 22 12.757 22 12.457L22 11.544C22 11.244 22.243 11.001 22.543 11.001L23.456 11.001C23.756 11.001 23.999 11.244 23.999 11.544L23.999 12.457C24 12.757 23.757 13 23.457 13L23.457 13Z" id="Shape" fill="#E97C01" stroke="none" />
    <path d="M25.457 15L24.544 15C24.243 15 24 14.757 24 14.457L24 13.544C24 13.244 24.243 13.001 24.543 13.001L25.456 13.001C25.756 13.001 25.999 13.244 25.999 13.544L25.999 14.457C26 14.757 25.757 15 25.457 15L25.457 15Z" id="Shape" fill="#E97C01" stroke="none" />
    <path d="M23.457 9L22.544 9C22.243 9 22 8.757 22 8.457L22 7.543C22 7.243 22.243 7 22.543 7L23.456 7C23.757 7 24 7.243 24 7.543L24 8.456C24 8.757 23.757 9 23.457 9L23.457 9Z" id="Shape" fill="#E97C01" stroke="none" />
    <path d="M25.457 11L24.544 11C24.243 11 24 10.757 24 10.457L24 9.543C24 9.243 24.243 9 24.543 9L25.456 9C25.757 9 26 9.243 26 9.543L26 10.456C26 10.757 25.757 11 25.457 11L25.457 11Z" id="Shape" fill="#E97C01" stroke="none" />
    <path d="M25.457 7L24.544 7C24.243 7 24 6.757 24 6.457L24 5.543C24 5.243 24.243 5 24.543 5L25.456 5C25.757 5 26 5.243 26 5.543L26 6.456C26 6.757 25.757 7 25.457 7L25.457 7Z" id="Shape" fill="#E97C01" stroke="none" />
  </g>
</svg>