<?xml version="1.0" encoding="utf-8"?>
<svg width="33px" height="33px" viewBox="0 0 33 33" version="1.1" xmlns:xlink="http://www.w3.org/1999/xlink" xmlns="http://www.w3.org/2000/svg">
  <defs>
    <linearGradient gradientUnits="userSpaceOnUse" x1="0" y1="14.437329" x2="26.125" y2="14.437329" id="gradient_1">
      <stop offset="0.2%" stop-color="#427FDB" />
      <stop offset="39.699997%" stop-color="#2668CB" />
      <stop offset="76.3%" stop-color="#1358BF" />
      <stop offset="100%" stop-color="#0C52BB" />
    </linearGradient>
    <linearGradient gradientUnits="userSpaceOnUse" x1="0" y1="10.795318" x2="25.772312" y2="10.795318" id="gradient_2">
      <stop offset="0%" stop-color="#32BDEF" />
      <stop offset="100%" stop-color="#1EA2E4" />
    </linearGradient>
    <linearGradient gradientUnits="userSpaceOnUse" x1="0" y1="7.319811" x2="13.342311" y2="7.319811" id="gradient_3">
      <stop offset="0%" stop-color="#2AA4F4" />
      <stop offset="100%" stop-color="#007AD9" />
    </linearGradient>
    <path d="M0 0L33 0L33 33L0 33L0 0Z" id="path_1" />
    <clipPath id="mask_1">
      <use xlink:href="#path_1" />
    </clipPath>
  </defs>
  <g id="C++-Icon">
    <path d="M0 0L33 0L33 33L0 33L0 0Z" id="Background" fill="#FFFFFF" fill-opacity="0" fill-rule="evenodd" stroke="none" />
    <g clip-path="url(#mask_1)">
      <path d="M15.7458 2.25912C16.2126 1.99718 16.7874 1.99718 17.2535 2.25912C19.5601 3.55368 26.5011 7.45043 28.8083 8.745C29.2751 9.00625 29.5625 9.49025 29.5625 10.0141C29.5625 12.6032 29.5625 20.3961 29.5625 22.9852C29.5625 23.5091 29.2751 23.9931 28.8083 24.255C26.5018 25.5496 19.5607 29.4463 17.2535 30.7409C16.7867 31.0028 16.2119 31.0028 15.7458 30.7409C13.4393 29.4463 6.49825 25.5496 4.191 24.255C3.72488 23.9931 3.4375 23.5097 3.4375 22.9859C3.4375 20.3967 3.4375 12.6039 3.4375 10.0148C3.4375 9.49093 3.72488 9.00693 4.19169 8.74499C6.49756 7.45043 13.4399 3.55368 15.7458 2.25912L15.7458 2.25912Z" id="Shape" fill="url(#gradient_1)" fill-rule="evenodd" stroke="none" />
      <path d="M3.6465 23.6528C3.46362 23.408 3.4375 23.1756 3.4375 22.8628C3.4375 20.2888 3.4375 12.5407 3.4375 9.96601C3.4375 9.44488 3.72419 8.96363 4.18962 8.70376C6.48794 7.41676 13.4056 3.5427 15.7039 2.25501C16.1693 1.99445 16.7998 1.99995 17.2652 2.26051C19.5635 3.54751 26.4578 7.38857 28.7561 8.67557C28.9417 8.78007 29.0833 8.90588 29.2098 9.07157L3.6465 23.6528L3.6465 23.6528Z" id="Shape" fill="url(#gradient_2)" fill-rule="evenodd" stroke="none" />
      <path d="M16.5 6.875C21.8123 6.875 26.125 11.1877 26.125 16.5C26.125 21.8123 21.8123 26.125 16.5 26.125C11.1877 26.125 6.875 21.8123 6.875 16.5C6.875 11.1877 11.1877 6.875 16.5 6.875L16.5 6.875ZM16.5 11.6875C19.1558 11.6875 21.3125 13.8435 21.3125 16.5C21.3125 19.1558 19.1558 21.3125 16.5 21.3125C13.8442 21.3125 11.6875 19.1558 11.6875 16.5C11.6875 13.8435 13.8435 11.6875 16.5 11.6875L16.5 11.6875Z" id="Shape" fill="#FFFFFF" fill-rule="evenodd" stroke="none" />
      <path d="M29.2084 9.07844C29.5632 9.4105 29.5563 9.911 29.5563 10.3049C29.5563 12.914 29.5343 20.3349 29.5625 22.9439C29.5652 23.2162 29.4752 23.5029 29.3404 23.7188L16.2202 16.5L29.2084 9.07844L29.2084 9.07844Z" id="Shape" fill="url(#gradient_3)" fill-rule="evenodd" stroke="none" />
      <g id="Group" transform="translate(19.25 13.75)" opacity="0.05">
        <path d="M3.4375 0.6875L3.4375 2.0625L4.8125 2.0625L4.8125 3.4375L3.4375 3.4375L3.4375 4.8125L2.0625 4.8125L2.0625 3.4375L0.6875 3.4375L0.6875 2.0625L2.0625 2.0625L2.0625 0.6875L3.4375 0.6875M4.125 0L3.4375 0L2.0625 0L1.375 0L1.375 0.6875L1.375 1.375L0.6875 1.375L0 1.375L0 2.0625L0 3.4375L0 4.125L0.6875 4.125L1.375 4.125L1.375 4.8125L1.375 5.5L2.0625 5.5L3.4375 5.5L4.125 5.5L4.125 4.8125L4.125 4.125L4.8125 4.125L5.5 4.125L5.5 3.4375L5.5 2.0625L5.5 1.375L4.8125 1.375L4.125 1.375L4.125 0.6875L4.125 0L4.125 0L4.125 0Z" id="Shape" fill="#000000" fill-rule="evenodd" stroke="none" />
        <path d="M8.25 0.6875L8.25 2.0625L9.625 2.0625L9.625 3.4375L8.25 3.4375L8.25 4.8125L6.875 4.8125L6.875 3.4375L5.5 3.4375L5.5 2.0625L6.875 2.0625L6.875 0.6875L8.25 0.6875M8.9375 0L8.25 0L6.875 0L6.1875 0L6.1875 0.6875L6.1875 1.375L5.5 1.375L4.8125 1.375L4.8125 2.0625L4.8125 3.4375L4.8125 4.125L5.5 4.125L6.1875 4.125L6.1875 4.8125L6.1875 5.5L6.875 5.5L8.25 5.5L8.9375 5.5L8.9375 4.8125L8.9375 4.125L9.625 4.125L10.3125 4.125L10.3125 3.4375L10.3125 2.0625L10.3125 1.375L9.625 1.375L8.9375 1.375L8.9375 0.6875L8.9375 0L8.9375 0L8.9375 0Z" id="Shape" fill="#000000" fill-rule="evenodd" stroke="none" />
      </g>
      <g id="Group" transform="translate(19.59375 14.09375)" opacity="0.07">
        <path d="M3.09375 0.34375L3.09375 1.71875L4.46875 1.71875L4.46875 3.09375L3.09375 3.09375L3.09375 4.46875L1.71875 4.46875L1.71875 3.09375L0.34375 3.09375L0.34375 1.71875L1.71875 1.71875L1.71875 0.34375L3.09375 0.34375M3.4375 0L3.09375 0L1.71875 0L1.375 0L1.375 0.34375L1.375 1.375L0.34375 1.375L0 1.375L0 1.71875L0 3.09375L0 3.4375L0.34375 3.4375L1.375 3.4375L1.375 4.46875L1.375 4.8125L1.71875 4.8125L3.09375 4.8125L3.4375 4.8125L3.4375 4.46875L3.4375 3.4375L4.46875 3.4375L4.8125 3.4375L4.8125 3.09375L4.8125 1.71875L4.8125 1.375L4.46875 1.375L3.4375 1.375L3.4375 0.34375L3.4375 0L3.4375 0L3.4375 0Z" id="Shape" fill="#000000" fill-rule="evenodd" stroke="none" />
        <path d="M7.90625 0.34375L7.90625 1.71875L9.28125 1.71875L9.28125 3.09375L7.90625 3.09375L7.90625 4.46875L6.53125 4.46875L6.53125 3.09375L5.15625 3.09375L5.15625 1.71875L6.53125 1.71875L6.53125 0.34375L7.90625 0.34375M8.25 0L7.90625 0L6.53125 0L6.1875 0L6.1875 0.34375L6.1875 1.375L5.15625 1.375L4.8125 1.375L4.8125 1.71875L4.8125 3.09375L4.8125 3.4375L5.15625 3.4375L6.1875 3.4375L6.1875 4.46875L6.1875 4.8125L6.53125 4.8125L7.90625 4.8125L8.25 4.8125L8.25 4.46875L8.25 3.4375L9.28125 3.4375L9.625 3.4375L9.625 3.09375L9.625 1.71875L9.625 1.375L9.28125 1.375L8.25 1.375L8.25 0.34375L8.25 0L8.25 0L8.25 0Z" id="Shape" fill="#000000" fill-rule="evenodd" stroke="none" />
      </g>
      <path d="M22.6875 14.4375L21.3125 14.4375L21.3125 15.8125L19.9375 15.8125L19.9375 17.1875L21.3125 17.1875L21.3125 18.5625L22.6875 18.5625L22.6875 17.1875L24.0625 17.1875L24.0625 15.8125L22.6875 15.8125L22.6875 14.4375Z" id="Polygon" fill="#FFFFFF" fill-rule="evenodd" stroke="none" />
      <path d="M28.875 15.8125L27.5 15.8125L27.5 14.4375L26.125 14.4375L26.125 15.8125L24.75 15.8125L24.75 17.1875L26.125 17.1875L26.125 18.5625L27.5 18.5625L27.5 17.1875L28.875 17.1875L28.875 15.8125Z" id="Polygon" fill="#FFFFFF" fill-rule="evenodd" stroke="none" />
      <g id="Group" transform="translate(6.1875 6.1875)">
        <path d="M10.3125 0.6875C13.838 0.6875 16.9139 2.59256 18.5907 5.42231L14.4155 7.80794C13.5692 6.42606 12.0498 5.5 10.3125 5.5C7.656 5.5 5.5 7.656 5.5 10.3125C5.5 12.9683 7.65669 15.125 10.3125 15.125C12.0794 15.125 13.6207 14.168 14.4574 12.7469L18.6732 15.0666C17.0156 17.9726 13.8944 19.9375 10.3125 19.9375C5.00019 19.9375 0.6875 15.6248 0.6875 10.3125C0.6875 5.00019 5.00019 0.6875 10.3125 0.6875M10.3125 0C4.62619 0 0 4.62619 0 10.3125C0 15.9988 4.62619 20.625 10.3125 20.625C14.0023 20.625 17.435 18.6258 19.2706 15.4069L19.6164 14.8005L19.0046 14.4636L14.7888 12.144L14.2037 11.8222L13.8648 12.3977C13.1244 13.6558 11.7631 14.4375 10.3125 14.4375C8.03825 14.4375 6.1875 12.5868 6.1875 10.3125C6.1875 8.03825 8.03825 6.1875 10.3125 6.1875C11.7556 6.1875 13.0701 6.92725 13.8291 8.16681L14.1776 8.73606L14.7565 8.40537L18.9317 6.01975L19.5381 5.67325L19.1819 5.07237C17.3284 1.94356 13.9301 0 10.3125 0L10.3125 0L10.3125 0Z" id="Shape" fill="#000000" fill-opacity="0.05" fill-rule="evenodd" stroke="none" />
        <path d="M10.3125 0.6875C13.838 0.6875 16.9139 2.59256 18.5907 5.42231L14.4155 7.80794C13.5692 6.42606 12.0498 5.5 10.3125 5.5C7.656 5.5 5.5 7.656 5.5 10.3125C5.5 12.9683 7.65669 15.125 10.3125 15.125C12.0794 15.125 13.6207 14.168 14.4574 12.7469L18.6732 15.0666C17.0156 17.9726 13.8944 19.9375 10.3125 19.9375C5.00019 19.9375 0.6875 15.6248 0.6875 10.3125C0.6875 5.00019 5.00019 0.6875 10.3125 0.6875M10.3125 0.34375C4.81594 0.34375 0.34375 4.81594 0.34375 10.3125C0.34375 15.8091 4.81594 20.2812 10.3125 20.2812C13.8792 20.2812 17.1971 18.348 18.9716 15.2371L19.1448 14.9339L18.8389 14.7654L14.6231 12.4458L14.3309 12.2849L14.1618 12.5723C13.3588 13.9349 11.8841 14.7812 10.3125 14.7812C7.8485 14.7812 5.84375 12.7765 5.84375 10.3125C5.84375 7.8485 7.8485 5.84375 10.3125 5.84375C11.8766 5.84375 13.3004 6.64538 14.1226 7.98737L14.2966 8.272L14.586 8.10631L18.7612 5.72069L19.0644 5.54744L18.8863 5.247C17.094 2.22269 13.8091 0.34375 10.3125 0.34375L10.3125 0.34375L10.3125 0.34375Z" id="Shape" fill="#000000" fill-opacity="0.07" fill-rule="evenodd" stroke="none" />
      </g>
    </g>
  </g>
</svg>