<?xml version="1.0" encoding="utf-8"?>
<svg width="48px" height="48px" viewBox="0 0 48 48" version="1.1" xmlns:xlink="http://www.w3.org/1999/xlink" xmlns="http://www.w3.org/2000/svg">
	<defs>
		<linearGradient x1="0.048090935" y1="0.952" x2="0.5090909" y2="0.49090907" id="gradient_1">
			<stop offset="0" stop-color="#3079D6" />
			<stop offset="1" stop-color="#297CD2" />
		</linearGradient>
		<linearGradient x1="0.14644998" y1="0.14644998" x2="0.85354996" y2="0.85354996" id="gradient_2">
			<stop offset="0" stop-color="#33BEF0" />
			<stop offset="1" stop-color="#0A85D9" />
		</linearGradient>
		<path d="M0 0L48 0L48 48L0 48L0 0Z" id="path_1" />
		<path d="M0 0L25 0L25 25L0 25L0 0Z" id="path_2" />
		<clipPath id="mask_1">
			<use xlink:href="#path_1" />
		</clipPath>
		<clipPath id="mask_2">
			<use xlink:href="#path_2" />
		</clipPath>
	</defs>
	<g id="icons8_file_2">
		<path d="M0 0L48 0L48 48L0 48L0 0Z" id="Background" fill="none" fill-rule="evenodd" stroke="none" />
		<g clip-path="url(#mask_1)">
			<path d="M30 11L30 36C30 37.105 29.105 38 28 38L2 38C0.895001 38 0 37.105 0 36L0 2C0 0.895 0.895001 0 2 0L19 0L30 11L30 11Z" transform="translate(9 5)" id="Shape" fill="#50E6FF" fill-rule="evenodd" stroke="none" />
			<path d="M0 0L0 9C0 10.105 0.895 11 2 11L11 11L0 0L0 0Z" transform="translate(28 5)" id="Shape" fill="url(#gradient_1)" fill-rule="evenodd" stroke="none" />
		</g>
	</g>
	<g id="icons8_help" transform="translate(11.183868 16.645538)">
		<path d="M0 0L25 0L25 25L0 25L0 0Z" id="Background" fill="none" fill-rule="evenodd" stroke="none" />
		<g clip-path="url(#mask_2)">
			<path d="M20.8333 10.4167C20.8333 16.1693 16.1693 20.8333 10.4167 20.8333C4.66406 20.8333 0 16.1693 0 10.4167C0 4.66406 4.66406 0 10.4167 0C16.1693 0 20.8333 4.66406 20.8333 10.4167L20.8333 10.4167Z" transform="translate(2.0833282 2.0833435)" id="Shape" fill="url(#gradient_2)" fill-rule="evenodd" stroke="none" />
			<path d="M3.66615 1.6875C3.66615 2.68906 2.91719 3.38906 1.84375 3.38906C0.950001 3.38906 0 2.79271 0 1.6875C0 0.591667 0.95 0 1.84375 0C2.74948 9.93411e-07 3.66615 0.579688 3.66615 1.6875L3.66615 1.6875Z" transform="translate(10.74791 15.714569)" id="Shape" fill="#000000" fill-opacity="0.05" fill-rule="evenodd" stroke="none" />
			<path d="M3.29479 0C1.95625 0 0.879166 0.460417 0.352084 0.7375C0.132813 0.852604 0 1.08125 0 1.32865L0 3.99115C0 4.24948 0.305729 4.38177 0.495833 4.20625C1.01875 3.72292 1.91979 3.08281 3.0224 3.08281C3.2875 3.08281 3.73229 3.16094 3.73229 3.68385C3.73229 4.19896 3.4224 4.49479 2.87552 4.97292C2.21927 5.54635 1.4026 6.26042 1.4026 7.7125C1.4026 8.16354 1.4875 8.53385 1.57083 8.78802C1.64635 9.01771 1.86563 9.16823 2.10781 9.16823C2.10781 9.16823 3.89687 9.1651 4.15312 9.1651C4.75625 9.1651 4.70156 8.7224 4.62135 8.50313C4.56979 8.36146 4.46979 8.14271 4.46979 7.93854C4.46979 7.4401 4.82031 7.11875 5.4401 6.59323C6.2401 5.9151 7.23594 5.07083 7.23594 3.34063C7.23698 1.24896 5.76354 0 3.29479 0L3.29479 0Z" transform="translate(9.367706 6.25)" id="Shape" fill="#000000" fill-opacity="0.05" fill-rule="evenodd" stroke="none" />
			<path d="M1.58333 0C2.34427 0 3.14531 0.4625 3.14531 1.42708C3.14531 2.33854 2.44167 2.86823 1.58333 2.86823C0.815103 2.86823 0 2.36927 0 1.42708C-9.93411e-07 0.489583 0.828124 0 1.58333 0L1.58333 0Z" transform="translate(11.008331 15.975006)" id="Shape" fill="#000000" fill-opacity="0.07" fill-rule="evenodd" stroke="none" />
			<path d="M0.261459 0.678646C0.756251 0.414063 1.72552 0 3.03542 0C5.95833 0 6.71667 1.78542 6.71667 3.08125C6.71667 4.66771 5.81823 5.45156 5.04792 6.10521C4.53542 6.53958 4.20052 6.86823 4.05365 7.30208C3.89167 7.78073 4.12917 8.14167 4.1349 8.15938C4.20156 8.35209 4.14479 8.64688 3.7099 8.64688C3.3474 8.6474 2.08646 8.64792 2.08646 8.64792C1.96563 8.64792 1.60729 8.57292 1.56927 8.45782C1.50573 8.27604 1.41146 7.91302 1.40469 7.51823C1.40365 7.47448 1.40417 7.43021 1.40469 7.38646C1.43281 5.98073 2.30469 5.35313 2.96615 4.7474C3.43021 4.32604 3.73281 3.98021 3.73281 3.42344C3.73281 2.93594 3.41406 2.76406 3.16562 2.68073C2.8526 2.57552 2.51354 2.59375 2.32083 2.62917C1.6224 2.75885 1.02604 3.06823 0.607812 3.37656C0.408334 3.52344 0.167187 3.52083 0.0958333 3.44688C0.0562499 3.4776 0 3.27031 0 3.21979L0 1.20521C0 1.16302 0.0109375 1.03333 0.0223955 0.994791C0.0614593 0.864583 0.136459 0.745312 0.261459 0.678646L0.261459 0.678646Z" transform="translate(9.627609 6.5104065)" id="Shape" fill="#000000" fill-opacity="0.07" fill-rule="evenodd" stroke="none" />
			<path d="M1.56667 8.1276C1.51458 7.99271 1.40313 7.59011 1.40313 7.19271C1.40313 4.92969 3.73281 4.84271 3.73281 3.16406C3.73281 2.10729 2.68854 2.04219 2.50156 2.04219C1.31562 2.04219 0.389583 2.72031 0 3.06302L0 0.717709C0.4 0.478125 1.31562 0 2.77448 0C6.1526 0 6.19531 2.32188 6.19531 2.82083C6.19531 5.50104 3.42917 5.7 3.42917 7.41823C3.42917 7.77656 3.55885 8.03906 3.61615 8.12708L1.56667 8.12708L1.56667 8.1276ZM2.70312 11.812C2.05989 11.812 1.3802 11.4109 1.3802 10.6312C1.3802 9.85207 2.08645 9.46457 2.70312 9.46457C3.31979 9.46457 4.00468 9.8104 4.00468 10.6312C4.00468 11.4521 3.34635 11.812 2.70312 11.812L2.70312 11.812Z" transform="translate(9.88855 6.7708435)" id="Shape" fill="#FFFFFF" fill-rule="evenodd" stroke="none" />
		</g>
	</g>
</svg>