<?xml version="1.0" encoding="utf-8"?>
<svg width="48px" height="48px" viewBox="0 0 48 48" version="1.1" xmlns:xlink="http://www.w3.org/1999/xlink" xmlns="http://www.w3.org/2000/svg">
  <defs>
    <linearGradient gradientUnits="userSpaceOnUse" x1="0.5290003" y1="10.472" x2="5.6" y2="5.3999996" id="gradient_1">
      <stop offset="0%" stop-color="#3079D6" />
      <stop offset="100%" stop-color="#297CD2" />
    </linearGradient>
    <linearGradient gradientUnits="userSpaceOnUse" x1="3.4171667" y1="3.4171667" x2="19.916168" y2="19.916168" id="gradient_2">
      <stop offset="0%" stop-color="#33BEF0" />
      <stop offset="100%" stop-color="#0A85D9" />
    </linearGradient>
    <path d="M0 0L48 0L48 48L0 48L0 0Z" id="path_1" />
    <path d="M0 0L28 0L28 28L0 28L0 0Z" id="path_2" />
    <clipPath id="mask_1">
      <use xlink:href="#path_1" />
    </clipPath>
    <clipPath id="mask_2">
      <use xlink:href="#path_2" />
    </clipPath>
  </defs>
  <g id="File-Icon-2">
    <path d="M0 0L48 0L48 48L0 48L0 0Z" id="Background" fill="#FFFFFF" fill-opacity="0" fill-rule="evenodd" stroke="none" />
    <path d="M39 16L39 41C39 42.105 38.105 43 37 43L11 43C9.895 43 9 42.105 9 41L9 7C9 5.895 9.895 5 11 5L28 5L39 16L39 16Z" id="Shape" fill="#50E6FF" stroke="none" />
    <path d="M28 5L28 14C28 15.105 28.895 16 30 16L39 16L28 5L28 5Z" id="Shape" fill="url(#gradient_1)" stroke="none" />
  </g>
  <g id="Help-Icon" transform="translate(10 15)">
    <path d="M0 0L28 0L28 28L0 28L0 0Z" id="Background" fill="#FFFFFF" fill-opacity="0" fill-rule="evenodd" stroke="none" />
    <path d="M25.6667 14C25.6667 20.4429 20.4429 25.6667 14 25.6667C7.55708 25.6667 2.33332 20.4429 2.33332 14C2.33332 7.55708 7.55707 2.33332 14 2.33332C20.4429 2.33332 25.6667 7.55707 25.6667 14L25.6667 14Z" id="Shape" fill="url(#gradient_2)" stroke="none" />
    <path d="M16.1438 19.4903C16.1438 20.6121 15.3049 21.3961 14.1027 21.3961C13.1017 21.3961 12.0377 20.7282 12.0377 19.4903C12.0377 18.263 13.1017 17.6003 14.1027 17.6003C15.1171 17.6003 16.1438 18.2496 16.1438 19.4903L16.1438 19.4903Z" id="Shape" fill="#000000" fill-opacity="0.05" stroke="none" />
    <path d="M14.182 7C12.6828 7 11.4765 7.51567 10.8862 7.826C10.6406 7.95492 10.4918 8.211 10.4918 8.48808L10.4918 11.4701C10.4918 11.7594 10.8342 11.9076 11.0472 11.711C11.6328 11.1697 12.642 10.4528 13.8769 10.4528C14.1738 10.4528 14.672 10.5403 14.672 11.1259C14.672 11.7028 14.3249 12.0342 13.7124 12.5697C12.9774 13.2119 12.0627 14.0117 12.0627 15.638C12.0627 16.1432 12.1578 16.5579 12.2512 16.8426C12.3357 17.0998 12.5813 17.2684 12.8526 17.2684C12.8526 17.2684 14.8563 17.2649 15.1433 17.2649C15.8188 17.2649 15.7576 16.7691 15.6677 16.5235C15.61 16.3648 15.498 16.1198 15.498 15.8912C15.498 15.3329 15.8906 14.973 16.5847 14.3844C17.4807 13.6249 18.5961 12.6793 18.5961 10.7415C18.5972 8.39883 16.947 7 14.182 7L14.182 7Z" id="Shape" fill="#000000" fill-opacity="0.05" stroke="none" />
    <path d="M14.1027 17.892C14.9549 17.892 15.8521 18.41 15.8521 19.4903C15.8521 20.5112 15.064 21.1044 14.1027 21.1044C13.2423 21.1044 12.3293 20.5456 12.3293 19.4903C12.3293 18.4403 13.2568 17.892 14.1027 17.892L14.1027 17.892Z" id="Shape" fill="#000000" fill-opacity="0.07" stroke="none" />
    <path d="M11.0758 8.05176C11.6299 7.75543 12.7155 7.29168 14.1826 7.29168C17.4563 7.29168 18.3056 9.29134 18.3056 10.7427C18.3056 12.5195 17.2993 13.3974 16.4366 14.1295C15.8626 14.616 15.4875 14.9841 15.323 15.47C15.1416 16.0061 15.4076 16.4103 15.414 16.4302C15.4887 16.646 15.4251 16.9762 14.938 16.9762C14.532 16.9768 13.1198 16.9773 13.1198 16.9773C12.9844 16.9773 12.5831 16.8933 12.5405 16.7644C12.4693 16.5608 12.3638 16.1543 12.3562 15.7121C12.355 15.6631 12.3556 15.6135 12.3562 15.5645C12.3877 13.9901 13.3642 13.2872 14.105 12.6088C14.6248 12.1368 14.9637 11.7495 14.9637 11.1259C14.9637 10.5799 14.6067 10.3874 14.3284 10.2941C13.9778 10.1763 13.5981 10.1967 13.3823 10.2363C12.6 10.3816 11.9321 10.7281 11.4637 11.0734C11.2403 11.2379 10.9702 11.235 10.8903 11.1522C10.8459 11.1866 10.7829 10.9544 10.7829 10.8978L10.7829 8.64151C10.7829 8.59426 10.7952 8.44901 10.808 8.40584C10.8518 8.26001 10.9358 8.12643 11.0758 8.05176L11.0758 8.05176Z" id="Shape" fill="#000000" fill-opacity="0.07" stroke="none" />
    <path d="M12.8298 16.6862C12.7715 16.5352 12.6467 16.0842 12.6467 15.6392C12.6467 13.1046 15.2559 13.0072 15.2559 11.1271C15.2559 9.94349 14.0863 9.87057 13.8769 9.87057C12.5487 9.87057 11.5115 10.6301 11.0752 11.0139L11.0752 8.38716C11.5232 8.11882 12.5487 7.58332 14.1826 7.58332C17.9661 7.58332 18.0139 10.1838 18.0139 10.7427C18.0139 13.7445 14.9158 13.9673 14.9158 15.8917C14.9158 16.2931 15.0611 16.5871 15.1253 16.6857L12.8298 16.6857L12.8298 16.6862ZM14.1027 20.8127C13.3823 20.8127 12.621 20.3636 12.621 19.4903C12.621 18.6177 13.412 18.1837 14.1027 18.1837C14.7933 18.1837 15.5604 18.571 15.5604 19.4903C15.5604 20.4096 14.8231 20.8127 14.1027 20.8127L14.1027 20.8127Z" id="Shape" fill="#FFFFFF" fill-rule="evenodd" stroke="none" />
  </g>
</svg>