<?xml version="1.0" encoding="utf-8"?>
<svg width="48px" height="48px" viewBox="0 0 48 48" version="1.1" xmlns:xlink="http://www.w3.org/1999/xlink" xmlns="http://www.w3.org/2000/svg">
  <defs>
    <linearGradient gradientUnits="objectBoundingBox" x1="0.14644998" y1="0.14644998" x2="0.85354996" y2="0.85354996" id="gradient_1">
      <stop offset="0%" stop-color="#33BEF0" />
      <stop offset="100%" stop-color="#0A85D9" />
    </linearGradient>
    <path d="M48 0L48 0L48 48L0 48L0 0L48 0Z" id="path_1" />
    <clipPath id="clip_1">
      <use xlink:href="#path_1" clip-rule="evenodd" fill-rule="evenodd" />
    </clipPath>
  </defs>
  <g id="Help" clip-path="url(#clip_1)">
    <path d="M48 0L48 0L48 48L0 48L0 0L48 0Z" id="Help" fill="none" stroke="none" />
    <path d="M44 24C44 35.045 35.045 44 24 44C12.955 44 4 35.045 4 24C4 12.955 12.955 4 24 4C35.045 4 44 12.955 44 24L44 24Z" id="Shape" fill="url(#gradient_1)" stroke="none" />
    <path d="M27.675 33.412C27.675 35.335 26.237 36.679 24.176 36.679C22.46 36.679 20.636 35.534 20.636 33.412C20.636 31.308 22.46 30.172 24.176 30.172C25.915 30.172 27.675 31.285 27.675 33.412L27.675 33.412Z" id="Shape" fill="#000000" fill-opacity="0.05" stroke="none" />
    <path d="M24.312 12C21.742 12 19.674 12.884 18.662 13.416C18.241 13.637 17.986 14.076 17.986 14.551L17.986 19.663C17.986 20.159 18.573 20.413 18.938 20.076C19.942 19.148 21.672 17.919 23.789 17.919C24.298 17.919 25.152 18.069 25.152 19.073C25.152 20.062 24.557 20.63 23.507 21.548C22.247 22.649 20.679 24.02 20.679 26.808C20.679 27.674 20.842 28.385 21.002 28.873C21.147 29.314 21.568 29.603 22.033 29.603C22.033 29.603 25.468 29.597 25.96 29.597C27.118 29.597 27.013 28.747 26.859 28.326C26.76 28.054 26.568 27.634 26.568 27.242C26.568 26.285 27.241 25.668 28.431 24.659C29.967 23.357 31.879 21.736 31.879 18.414C31.881 14.398 29.052 12 24.312 12L24.312 12Z" id="Shape" fill="#000000" fill-opacity="0.05" stroke="none" />
    <path d="M24.176 30.672C25.637 30.672 27.175 31.56 27.175 33.412C27.175 35.162 25.824 36.179 24.176 36.179C22.701 36.179 21.136 35.221 21.136 33.412C21.136 31.612 22.726 30.672 24.176 30.672L24.176 30.672Z" id="Shape" fill="#000000" fill-opacity="0.07" stroke="none" />
    <path d="M18.987 13.803C19.937 13.295 21.798 12.5 24.313 12.5C29.925 12.5 31.381 15.928 31.381 18.416C31.381 21.462 29.656 22.967 28.177 24.222C27.193 25.056 26.55 25.687 26.268 26.52C25.957 27.439 26.413 28.132 26.424 28.166C26.552 28.536 26.443 29.102 25.608 29.102C24.912 29.103 22.491 29.104 22.491 29.104C22.259 29.104 21.571 28.96 21.498 28.739C21.376 28.39 21.195 27.693 21.182 26.935C21.18 26.851 21.181 26.766 21.182 26.682C21.236 23.983 22.91 22.778 24.18 21.615C25.071 20.806 25.652 20.142 25.652 19.073C25.652 18.137 25.04 17.807 24.563 17.647C23.962 17.445 23.311 17.48 22.941 17.548C21.6 17.797 20.455 18.391 19.652 18.983C19.269 19.265 18.806 19.26 18.669 19.118C18.593 19.177 18.485 18.779 18.485 18.682L18.485 14.814C18.485 14.733 18.506 14.484 18.528 14.41C18.603 14.16 18.747 13.931 18.987 13.803L18.987 13.803Z" id="Shape" fill="#000000" fill-opacity="0.07" stroke="none" />
    <path d="M21.994 28.605C21.894 28.346 21.68 27.573 21.68 26.81C21.68 22.465 26.153 22.298 26.153 19.075C26.153 17.046 24.148 16.921 23.789 16.921C21.512 16.921 19.734 18.223 18.986 18.881L18.986 14.378C19.754 13.918 21.512 13 24.313 13C30.799 13 30.881 17.458 30.881 18.416C30.881 23.562 25.57 23.944 25.57 27.243C25.57 27.931 25.819 28.435 25.929 28.604L21.994 28.604L21.994 28.605ZM24.176 35.679C22.941 35.679 21.636 34.909 21.636 33.412C21.636 31.916 22.992 31.172 24.176 31.172C25.36 31.172 26.675 31.836 26.675 33.412C26.675 34.988 25.411 35.679 24.176 35.679L24.176 35.679Z" id="Shape" fill="#FFFFFF" fill-rule="evenodd" stroke="none" />
  </g>
</svg>