<?xml version="1.0" encoding="utf-8"?>
<svg width="48px" height="48px" viewBox="0 0 48 48" version="1.1" xmlns:xlink="http://www.w3.org/1999/xlink" xmlns="http://www.w3.org/2000/svg">
  <defs>
    <linearGradient gradientUnits="userSpaceOnUse" x1="0" y1="20.99975" x2="38" y2="20.99975" id="gradient_1">
      <stop offset="0.2%" stop-color="#427FDB" />
      <stop offset="39.699997%" stop-color="#2668CB" />
      <stop offset="76.3%" stop-color="#1358BF" />
      <stop offset="100%" stop-color="#0C52BB" />
    </linearGradient>
    <linearGradient gradientUnits="userSpaceOnUse" x1="0" y1="15.702279" x2="37.487" y2="15.702279" id="gradient_2">
      <stop offset="0%" stop-color="#32BDEF" />
      <stop offset="100%" stop-color="#1EA2E4" />
    </linearGradient>
    <linearGradient gradientUnits="userSpaceOnUse" x1="0" y1="10.646998" x2="19.407" y2="10.646998" id="gradient_3">
      <stop offset="0%" stop-color="#2AA4F4" />
      <stop offset="100%" stop-color="#007AD9" />
    </linearGradient>
    <path d="M0 0L48 0L48 48L0 48L0 0Z" id="path_1" />
    <clipPath id="mask_1">
      <use xlink:href="#path_1" />
    </clipPath>
  </defs>
  <g id="C++-Icon">
    <path d="M0 0L48 0L48 48L0 48L0 0Z" id="Background" fill="#FFFFFF" fill-opacity="0" fill-rule="evenodd" stroke="none" />
    <path d="M22.903 3.286C23.582 2.905 24.418 2.905 25.096 3.286C28.451 5.169 38.547 10.837 41.903 12.72C42.582 13.1 43 13.804 43 14.566C43 18.332 43 29.667 43 33.433C43 34.195 42.582 34.899 41.903 35.28C38.548 37.163 28.452 42.831 25.096 44.714C24.417 45.095 23.581 45.095 22.903 44.714C19.548 42.831 9.452 37.163 6.096 35.28C5.418 34.899 5 34.196 5 33.434C5 29.668 5 18.333 5 14.567C5 13.805 5.418 13.101 6.097 12.72C9.451 10.837 19.549 5.169 22.903 3.286L22.903 3.286Z" id="Shape" fill="url(#gradient_1)" fill-rule="evenodd" stroke="none" />
    <path d="M5.304 34.404C5.038 34.048 5 33.71 5 33.255C5 29.511 5 18.241 5 14.496C5 13.738 5.417 13.038 6.094 12.66C9.437 10.788 19.499 5.153 22.842 3.28C23.519 2.901 24.436 2.909 25.113 3.288C28.456 5.16 38.484 10.747 41.827 12.619C42.097 12.771 42.303 12.954 42.487 13.195L5.304 34.404L5.304 34.404Z" id="Shape" fill="url(#gradient_2)" fill-rule="evenodd" stroke="none" />
    <path d="M24 10C31.727 10 38 16.273 38 24C38 31.727 31.727 38 24 38C16.273 38 10 31.727 10 24C10 16.273 16.273 10 24 10L24 10ZM24 17C27.863 17 31 20.136 31 24C31 27.863 27.863 31 24 31C20.137 31 17 27.863 17 24C17 20.136 20.136 17 24 17L24 17Z" id="Shape" fill="#FFFFFF" fill-rule="evenodd" stroke="none" />
    <path d="M42.485 13.205C43.001 13.688 42.991 14.416 42.991 14.989C42.991 18.784 42.959 29.578 43 33.373C43.004 33.769 42.873 34.186 42.677 34.5L23.593 24L42.485 13.205L42.485 13.205Z" id="Shape" fill="url(#gradient_3)" fill-rule="evenodd" stroke="none" />
    <g id="Group" transform="translate(28 20)" opacity="0.05">
      <path d="M5 1L5 3L7 3L7 5L5 5L5 7L3 7L3 5L1 5L1 3L3 3L3 1L5 1M6 0L5 0L3 0L2 0L2 1L2 2L1 2L0 2L0 3L0 5L0 6L1 6L2 6L2 7L2 8L3 8L5 8L6 8L6 7L6 6L7 6L8 6L8 5L8 3L8 2L7 2L6 2L6 1L6 0L6 0L6 0Z" id="Shape" fill="#000000" fill-rule="evenodd" stroke="none" />
      <path d="M12 1L12 3L14 3L14 5L12 5L12 7L10 7L10 5L8 5L8 3L10 3L10 1L12 1M13 0L12 0L10 0L9 0L9 1L9 2L8 2L7 2L7 3L7 5L7 6L8 6L9 6L9 7L9 8L10 8L12 8L13 8L13 7L13 6L14 6L15 6L15 5L15 3L15 2L14 2L13 2L13 1L13 0L13 0L13 0Z" id="Shape" fill="#000000" fill-rule="evenodd" stroke="none" />
    </g>
    <g id="Group" transform="translate(28.5 20.5)" opacity="0.07">
      <path d="M4.5 0.5L4.5 2.5L6.5 2.5L6.5 4.5L4.5 4.5L4.5 6.5L2.5 6.5L2.5 4.5L0.5 4.5L0.5 2.5L2.5 2.5L2.5 0.5L4.5 0.5M5 0L4.5 0L2.5 0L2 0L2 0.5L2 2L0.5 2L0 2L0 2.5L0 4.5L0 5L0.5 5L2 5L2 6.5L2 7L2.5 7L4.5 7L5 7L5 6.5L5 5L6.5 5L7 5L7 4.5L7 2.5L7 2L6.5 2L5 2L5 0.5L5 0L5 0L5 0Z" id="Shape" fill="#000000" fill-rule="evenodd" stroke="none" />
      <path d="M11.5 0.5L11.5 2.5L13.5 2.5L13.5 4.5L11.5 4.5L11.5 6.5L9.5 6.5L9.5 4.5L7.5 4.5L7.5 2.5L9.5 2.5L9.5 0.5L11.5 0.5M12 0L11.5 0L9.5 0L9 0L9 0.5L9 2L7.5 2L7 2L7 2.5L7 4.5L7 5L7.5 5L9 5L9 6.5L9 7L9.5 7L11.5 7L12 7L12 6.5L12 5L13.5 5L14 5L14 4.5L14 2.5L14 2L13.5 2L12 2L12 0.5L12 0L12 0L12 0Z" id="Shape" fill="#000000" fill-rule="evenodd" stroke="none" />
    </g>
    <path d="M33 21L31 21L31 23L29 23L29 25L31 25L31 27L33 27L33 25L35 25L35 23L33 23L33 21Z" id="Polygon" fill="#FFFFFF" fill-rule="evenodd" stroke="none" />
    <path d="M42 23L40 23L40 21L38 21L38 23L36 23L36 25L38 25L38 27L40 27L40 25L42 25L42 23Z" id="Polygon" fill="#FFFFFF" fill-rule="evenodd" stroke="none" />
    <g id="Group" transform="translate(9 9)">
      <path d="M15 1C20.128 1 24.602 3.771 27.041 7.887L20.968 11.357C19.737 9.347 17.527 8 15 8C11.136 8 8 11.136 8 15C8 18.863 11.137 22 15 22C17.57 22 19.812 20.608 21.029 18.541L27.161 21.915C24.75 26.142 20.21 29 15 29C7.273 29 1 22.727 1 15C1 7.273 7.273 1 15 1M15 0C6.729 0 0 6.729 0 15C0 23.271 6.729 30 15 30C20.367 30 25.36 27.092 28.03 22.41L28.533 21.528L27.643 21.038L21.511 17.664L20.66 17.196L20.167 18.033C19.09 19.863 17.11 21 15 21C11.692 21 9 18.308 9 15C9 11.692 11.692 9 15 9C17.099 9 19.011 10.076 20.115 11.879L20.622 12.707L21.464 12.226L27.537 8.756L28.419 8.252L27.901 7.378C25.205 2.827 20.262 0 15 0L15 0L15 0Z" id="Shape" fill="#000000" fill-opacity="0.05" fill-rule="evenodd" stroke="none" />
      <path d="M15 1C20.128 1 24.602 3.771 27.041 7.887L20.968 11.357C19.737 9.347 17.527 8 15 8C11.136 8 8 11.136 8 15C8 18.863 11.137 22 15 22C17.57 22 19.812 20.608 21.029 18.541L27.161 21.915C24.75 26.142 20.21 29 15 29C7.273 29 1 22.727 1 15C1 7.273 7.273 1 15 1M15 0.5C7.005 0.5 0.5 7.005 0.5 15C0.5 22.995 7.005 29.5 15 29.5C20.188 29.5 25.014 26.688 27.595 22.163L27.847 21.722L27.402 21.477L21.27 18.103L20.845 17.869L20.599 18.287C19.431 20.269 17.286 21.5 15 21.5C11.416 21.5 8.5 18.584 8.5 15C8.5 11.416 11.416 8.5 15 8.5C17.275 8.5 19.346 9.666 20.542 11.618L20.795 12.032L21.216 11.791L27.289 8.321L27.73 8.069L27.471 7.632C24.864 3.233 20.086 0.5 15 0.5L15 0.5L15 0.5Z" id="Shape" fill="#000000" fill-opacity="0.07" fill-rule="evenodd" stroke="none" />
    </g>
  </g>
</svg>