<?xml version="1.0" encoding="utf-8"?>
<svg width="48px" height="48px" viewBox="0 0 48 48" version="1.1" xmlns:xlink="http://www.w3.org/1999/xlink" xmlns="http://www.w3.org/2000/svg">
  <defs>
    <linearGradient gradientUnits="userSpaceOnUse" x1="0.5290003" y1="10.472" x2="5.6" y2="5.3999996" id="gradient_1">
      <stop offset="0%" stop-color="#3079D6" />
      <stop offset="100%" stop-color="#297CD2" />
    </linearGradient>
    <linearGradient gradientUnits="userSpaceOnUse" x1="2.3998384" y1="-4.741875" x2="12.369216" y2="22.647503" id="gradient_2">
      <stop offset="0%" stop-color="#F09701" />
      <stop offset="100%" stop-color="#E36001" />
    </linearGradient>
    <path d="M0 0L48 0L48 48L0 48L0 0Z" id="path_1" />
    <clipPath id="mask_1">
      <use xlink:href="#path_1" />
    </clipPath>
  </defs>
  <g id="File-Icon-3">
    <path d="M0 0L48 0L48 48L0 48L0 0Z" id="Background" fill="#FFFFFF" fill-opacity="0" fill-rule="evenodd" stroke="none" />
    <g clip-path="url(#mask_1)">
      <path d="M39 16L39 41C39 42.105 38.105 43 37 43L11 43C9.895 43 9 42.105 9 41L9 7C9 5.895 9.895 5 11 5L28 5L39 16L39 16Z" id="Shape" fill="#50E6FF" fill-rule="evenodd" stroke="none" />
      <path d="M28 5L28 14C28 15.105 28.895 16 30 16L39 16L28 5L28 5Z" id="Shape" fill="url(#gradient_1)" fill-rule="evenodd" stroke="none" />
    </g>
  </g>
  <g id="svg-2" transform="translate(9 14)">
    <g id="Html-5-Icon">
      <path d="M0 0L30 0L30 30L0 30L0 0L0 0Z" id="Background" fill="#FFFFFF" fill-opacity="0" fill-rule="evenodd" stroke="none" />
      <path d="M4.49501 4.485L6.13688 23.0912C6.20501 23.8644 6.74313 24.5162 7.48938 24.7294L14.1413 26.63C14.7025 26.7906 15.2969 26.7906 15.8581 26.63L22.51 24.7294C23.2563 24.5162 23.7944 23.865 23.8625 23.0912L25.5044 4.485C25.5694 3.75375 24.9938 3.125 24.26 3.125L5.74001 3.125C5.00626 3.125 4.43063 3.75375 4.49501 4.485L4.49501 4.485L4.49501 4.485Z" id="Shape" fill="url(#gradient_2)" stroke="none" />
      <path d="M15 5L15 24.9375L21.1725 23.1737C21.6706 23.0312 22.0294 22.5962 22.0744 22.0806L23.5031 5.67937C23.535 5.31375 23.2475 5 22.8806 5L15 5L15 5L15 5Z" id="Shape#1" fill="#F09601" stroke="none" />
      <path d="M15 15.625L15 13.125L20.375 13.125L19.9375 20.3125L15 21.9375L15 19.3125L17.5625 18.4375L17.75 15.625L15 15.625L15 15.625L15 15.625ZM20.5625 10.625L20.75 8.125L15 8.125L15 10.625L20.5625 10.625L20.5625 10.625L20.5625 10.625Z" id="Shape#2" fill="#FFFFFF" fill-rule="evenodd" stroke="none" />
      <path d="M15 19.3125L15 21.9375L10.0625 20.3125L9.81248 16.875L12.3125 16.875L12.4375 18.4375L15 19.3125L15 19.3125L15 19.3125ZM11.9375 10.625L15 10.625L15 8.125L9.31249 8.125L9.74999 15.625L15 15.625L15 13.125L12.125 13.125L11.9375 10.625L11.9375 10.625L11.9375 10.625Z" id="Shape#3" fill="#D6E0E9" fill-rule="evenodd" stroke="none" />
      <path d="M20.75 8.125L20.5625 10.625L15 10.625L11.9375 10.625L12.125 13.125L15 13.125L20.375 13.125L19.9375 20.3125L15 21.9375L10.0625 20.3125L9.81249 16.875L12.3125 16.875L12.4375 18.4375L15 19.3125L17.5625 18.4375L17.75 15.625L15 15.625L9.74999 15.625L9.31249 8.125L15 8.125L20.75 8.125M21.4237 7.5L20.75 7.5L15 7.5L9.31249 7.5L8.64999 7.5L8.68874 8.16125L9.12624 15.6613L9.16061 16.25L9.14061 16.25L9.18936 16.9206L9.43936 20.3581L9.46999 20.7756L9.86749 20.9063L14.805 22.5312L15 22.5956L15.1956 22.5312L20.1331 20.9063L20.5356 20.7738L20.5612 20.3506L20.9987 13.1631L21.0394 12.5L20.375 12.5L15 12.5L12.705 12.5L12.6112 11.25L15 11.25L20.5625 11.25L21.1425 11.25L21.1856 10.6719L21.3731 8.17188L21.4237 7.5L21.4237 7.5L21.4237 7.5L21.4237 7.5ZM12.8894 16.25L15 16.25L17.0819 16.25L16.9662 17.9806L15 18.6519L13.0275 17.9787L12.935 16.825L12.8894 16.25L12.8894 16.25L12.8894 16.25L12.8894 16.25Z" id="Shape#4" fill="#000000" fill-opacity="0.050980393" fill-rule="evenodd" stroke="none" />
      <path d="M20.75 8.12499L20.5625 10.625L15 10.625L11.9375 10.625L12.125 13.125L15 13.125L20.375 13.125L19.9375 20.3125L15 21.9375L10.0625 20.3125L9.81249 16.875L12.3125 16.875L12.4375 18.4375L15 19.3125L17.5625 18.4375L17.75 15.625L15 15.625L9.74999 15.625L9.31249 8.12499L15 8.12499L20.75 8.12499M21.0869 7.8125L20.75 7.8125L15 7.8125L9.31249 7.8125L8.98124 7.8125L9.00061 8.14312L9.43811 15.6431L9.45499 15.9375L9.74999 15.9375L15 15.9375L17.4162 15.9375L17.265 18.2087L15 18.9825L12.7325 18.2081L12.6237 16.85L12.6006 16.5625L12.3125 16.5625L9.81249 16.5625L9.47624 16.5625L9.50061 16.8975L9.75061 20.335L9.76561 20.5437L9.96436 20.6094L14.9019 22.2344L15 22.2662L15.0975 22.2344L20.035 20.6094L20.2362 20.5431L20.2494 20.3312L20.6869 13.1437L20.7069 12.8125L20.375 12.8125L15 12.8125L12.415 12.8125L12.2744 10.9375L15 10.9375L20.5625 10.9375L20.8525 10.9375L20.8744 10.6481L21.0619 8.14812L21.0869 7.8125L21.0869 7.8125L21.0869 7.8125L21.0869 7.8125Z" id="Shape#5" fill="#000000" fill-opacity="0.07058824" fill-rule="evenodd" stroke="none" />
    </g>
  </g>
</svg>