<?xml version="1.0" encoding="utf-8"?>
<svg width="48px" height="48px" viewBox="0 0 48 48" version="1.1" xmlns:xlink="http://www.w3.org/1999/xlink" xmlns="http://www.w3.org/2000/svg">
  <defs>
    <linearGradient gradientUnits="userSpaceOnUse" x1="11.023871" y1="-2.5870001" x2="26.974874" y2="41.236004" id="gradient_1">
      <stop offset="0%" stop-color="#F09701" />
      <stop offset="100%" stop-color="#E36001" />
    </linearGradient>
    <path d="M0 0L48 0L48 48L0 48L0 0Z" id="path_1" />
    <clipPath id="mask_1">
      <use xlink:href="#path_1" />
    </clipPath>
  </defs>
  <g id="Html-5-Icon">
    <path d="M0 0L48 0L48 48L0 48L0 0Z" id="Background" fill="#FFFFFF" fill-opacity="0" fill-rule="evenodd" stroke="none" />
    <path d="M7.192 7.176L9.819 36.946C9.928 38.183 10.789 39.226 11.983 39.567L22.626 42.608C23.524 42.865 24.475 42.865 25.373 42.608L36.016 39.567C37.21 39.226 38.071 38.184 38.18 36.946L40.807 7.176C40.911 6.006 39.99 5 38.816 5L9.184 5C8.01 5 7.089 6.006 7.192 7.176L7.192 7.176Z" id="Shape" fill="url(#gradient_1)" stroke="none" />
    <path d="M24 8L24 39.9L33.876 37.078C34.673 36.85 35.247 36.154 35.319 35.329L37.605 9.087C37.656 8.502 37.196 8 36.609 8L24 8L24 8Z" id="Shape" fill="#F09601" stroke="none" />
    <path d="M24 25L24 21L32.6 21L31.9 32.5L24 35.1L24 30.9L28.1 29.5L28.4 25L24 25L24 25ZM32.9 17L33.2 13L24 13L24 17L32.9 17L32.9 17Z" id="Shape" fill="#FFFFFF" fill-rule="evenodd" stroke="none" />
    <path d="M24 30.9L24 35.1L16.1 32.5L15.7 27L19.7 27L19.9 29.5L24 30.9L24 30.9ZM19.1 17L24 17L24 13L14.9 13L15.6 25L24 25L24 21L19.4 21L19.1 17L19.1 17Z" id="Shape" fill="#D6E0E9" fill-rule="evenodd" stroke="none" />
    <path d="M33.2 13L32.9 17L24 17L19.1 17L19.4 21L24 21L32.6 21L31.9 32.5L24 35.1L16.1 32.5L15.7 27L19.7 27L19.9 29.5L24 30.9L28.1 29.5L28.4 25L24 25L15.6 25L14.9 13L24 13L33.2 13M34.278 12L33.2 12L24 12L14.9 12L13.84 12L13.902 13.058L14.602 25.058L14.657 26L14.625 26L14.703 27.073L15.103 32.573L15.152 33.241L15.788 33.45L23.688 36.05L24 36.153L24.313 36.05L32.213 33.45L32.857 33.238L32.898 32.561L33.598 21.061L33.663 20L32.6 20L24 20L20.328 20L20.178 18L24 18L32.9 18L33.828 18L33.897 17.075L34.197 13.075L34.278 12L34.278 12L34.278 12ZM20.623 26L24 26L27.331 26L27.146 28.769L24 29.843L20.844 28.766L20.696 26.92L20.623 26L20.623 26L20.623 26Z" id="Shape" fill="#000000" fill-opacity="0.05" fill-rule="evenodd" stroke="none" />
    <path d="M33.2 13L32.9 17L24 17L19.1 17L19.4 21L24 21L32.6 21L31.9 32.5L24 35.1L16.1 32.5L15.7 27L19.7 27L19.9 29.5L24 30.9L28.1 29.5L28.4 25L24 25L15.6 25L14.9 13L24 13L33.2 13M33.739 12.5L33.2 12.5L24 12.5L14.9 12.5L14.37 12.5L14.401 13.029L15.101 25.029L15.128 25.5L15.6 25.5L24 25.5L27.866 25.5L27.624 29.134L24 30.372L20.372 29.133L20.198 26.96L20.161 26.5L19.7 26.5L15.7 26.5L15.162 26.5L15.201 27.036L15.601 32.536L15.625 32.87L15.943 32.975L23.843 35.575L24 35.626L24.156 35.575L32.056 32.975L32.378 32.869L32.399 32.53L33.099 21.03L33.131 20.5L32.6 20.5L24 20.5L19.864 20.5L19.639 17.5L24 17.5L32.9 17.5L33.364 17.5L33.399 17.037L33.699 13.037L33.739 12.5L33.739 12.5L33.739 12.5Z" id="Shape" fill="#000000" fill-opacity="0.07" fill-rule="evenodd" stroke="none" />
  </g>
</svg>