<?xml version="1.0" encoding="utf-8"?>
<svg width="60px" height="60px" viewBox="0 0 60 60" version="1.1" xmlns:xlink="http://www.w3.org/1999/xlink" xmlns="http://www.w3.org/2000/svg">
  <defs>
    <linearGradient gradientUnits="userSpaceOnUse" x1="0.5290003" y1="10.472" x2="5.6" y2="5.3999996" id="gradient_1">
      <stop offset="0%" stop-color="#3079D6" />
      <stop offset="100%" stop-color="#297CD2" />
    </linearGradient>
    <linearGradient gradientUnits="userSpaceOnUse" x1="7.769667" y1="-4.732542" x2="11.730333" y2="17.732544" id="gradient_2">
      <stop offset="0%" stop-color="#21AD64" />
      <stop offset="100%" stop-color="#088242" />
    </linearGradient>
    <linearGradient gradientUnits="userSpaceOnUse" x1="-16.217495" y1="-16.217495" x2="5.83754" y2="5.83754" id="gradient_3">
      <stop offset="0%" stop-color="#FED100" />
      <stop offset="100%" stop-color="#E36001" />
    </linearGradient>
    <path d="M0 0L48 0L48 48L0 48L0 0Z" id="path_1" />
    <clipPath id="mask_1">
      <use xlink:href="#path_1" />
    </clipPath>
  </defs>
  <g id="File-Icon-2" transform="translate(6 4)">
    <path d="M0 0L48 0L48 48L0 48L0 0Z" id="Background" fill="#FFFFFF" fill-opacity="0" fill-rule="evenodd" stroke="none" />
    <path d="M39 16L39 41C39 42.105 38.105 43 37 43L11 43C9.895 43 9 42.105 9 41L9 7C9 5.895 9.895 5 11 5L28 5L39 16L39 16Z" id="Shape" fill="#50E6FF" stroke="none" />
    <path d="M28 5L28 14C28 15.105 28.895 16 30 16L39 16L28 5L28 5Z" id="Shape" fill="url(#gradient_1)" stroke="none" />
  </g>
  <g id="svg-2" transform="translate(17 20)">
    <g id="Large-Icons-Icon">
      <path d="M0 0L26 0L26 26L0 26L0 0L0 0Z" id="Background" fill="#FFFFFF" fill-opacity="0" fill-rule="evenodd" stroke="none" />
      <path d="M23.2917 3.25L2.70833 3.25C2.10979 3.25 1.625 3.73479 1.625 4.33333L1.625 21.6667C1.625 22.2652 2.10979 22.75 2.70833 22.75L23.2917 22.75C23.8902 22.75 24.375 22.2652 24.375 21.6667L24.375 4.33333C24.375 3.73479 23.8902 3.25 23.2917 3.25L23.2917 3.25L23.2917 3.25Z" id="Shape" fill="url(#gradient_2)" stroke="none" />
      <path d="M17.7802 13.2898C17.5343 13.1462 17.1291 13.0558 16.659 13C17.1291 12.9442 17.5343 12.8538 17.7802 12.7102C18.804 12.1111 19.1539 10.783 18.5635 9.75C17.9725 8.71217 16.6627 8.35575 15.6385 8.95429C15.3925 9.09838 15.1125 9.40821 14.8297 9.79225C15.0166 9.35296 15.1412 8.95321 15.1412 8.66667C15.1412 7.46958 14.183 6.5 13 6.5C11.8165 6.5 10.8588 7.46904 10.8588 8.66667C10.8588 8.95375 10.9834 9.3535 11.1708 9.79333C10.8875 9.40875 10.608 9.09892 10.3621 8.95483C9.33833 8.35629 8.02858 8.71217 7.43708 9.75054C6.84666 10.7835 7.19658 12.1111 8.22033 12.7108C8.46625 12.8543 8.87141 12.9447 9.34158 13.0005C8.87141 13.0563 8.46625 13.1468 8.22033 13.2903C7.19604 13.8883 6.84666 15.2154 7.43654 16.25C8.02804 17.2878 9.33779 17.6415 10.3615 17.0457C10.6075 16.9016 10.8875 16.5913 11.1708 16.2067C10.9839 16.647 10.8588 17.0468 10.8588 17.3344C10.8588 18.531 11.8165 19.5 13 19.5C14.183 19.5 15.1412 18.531 15.1412 17.3344C15.1412 17.0473 15.0166 16.6476 14.8292 16.2078C15.1125 16.5918 15.392 16.9016 15.6379 17.0462C16.6622 17.6421 17.972 17.2889 18.5629 16.2505C19.1533 15.2154 18.804 13.8883 17.7802 13.2898L17.7802 13.2898L17.7802 13.2898Z" id="Shape#1" fill="#FFFFFF" stroke="none" />
      <path d="M15.1667 13.0016C15.1667 14.1976 14.1976 15.1667 13 15.1667C11.8024 15.1667 10.8333 14.1976 10.8333 13.0016C10.8333 11.8024 11.8024 10.8333 13 10.8333C14.1976 10.8333 15.1667 11.8024 15.1667 13.0016" id="Shape#2" fill="url(#gradient_3)" stroke="none" />
    </g>
  </g>
</svg>