<?xml version="1.0" encoding="utf-8"?>
<svg width="48px" height="47.999996px" viewBox="0 0 48 47.999996" version="1.1" xmlns:xlink="http://www.w3.org/1999/xlink" xmlns="http://www.w3.org/2000/svg">
  <defs>
    <linearGradient gradientUnits="userSpaceOnUse" x1="0.41400003" y1="1.6619995" x2="35.774" y2="27.487999" id="gradient_1">
      <stop offset="0%" stop-color="#28AFEA" />
      <stop offset="100%" stop-color="#047ED6" />
    </linearGradient>
    <linearGradient gradientUnits="userSpaceOnUse" x1="0.42000014" y1="0.6079998" x2="35.198" y2="7.6800003" id="gradient_2">
      <stop offset="0%" stop-color="#0077D2" />
      <stop offset="100%" stop-color="#0B59A2" />
    </linearGradient>
    <path d="M0 0L48 0L48 48L0 48L0 0Z" id="path_1" />
    <clipPath id="mask_1">
      <use xlink:href="#path_1" />
    </clipPath>
  </defs>
  <g id="Calendar-Icon">
    <path d="M0 0L48 0L48 48L0 48L0 0Z" id="Background" fill="#FFFFFF" fill-opacity="0" fill-rule="evenodd" stroke="none" />
    <path d="M6 40L6 12L42 12L42 40C42 41.1 41.1 42 40 42L8 42C6.9 42 6 41.1 6 40L6 40Z" id="Shape" fill="url(#gradient_1)" stroke="none" />
    <path d="M42 8L42 14L6 14L6 8C6 6.9 6.9 6 8 6L40 6C41.1 6 42 6.9 42 8L42 8Z" id="Shape" fill="url(#gradient_2)" stroke="none" />
    <path d="M35.5 12.5L35.5 12.5C33.843 12.5 32.5 11.157 32.5 9.5L32.5 6L38.5 6L38.5 9.5C38.5 11.157 37.157 12.5 35.5 12.5L35.5 12.5Z" id="Shape" fill="#000000" fill-opacity="0.05" stroke="none" />
    <path d="M35.5 11.75L35.5 11.75C34.257 11.75 33.25 10.743 33.25 9.5L33.25 6L37.75 6L37.75 9.5C37.75 10.743 36.743 11.75 35.5 11.75L35.5 11.75Z" id="Shape" fill="#000000" fill-opacity="0.07" stroke="none" />
    <path d="M12.5 12.5L12.5 12.5C10.843 12.5 9.5 11.157 9.5 9.5L9.5 6L15.5 6L15.5 9.5C15.5 11.157 14.157 12.5 12.5 12.5L12.5 12.5Z" id="Shape" fill="#000000" fill-opacity="0.05" stroke="none" />
    <path d="M12.5 11.75L12.5 11.75C11.257 11.75 10.25 10.743 10.25 9.5L10.25 6L14.75 6L14.75 9.5C14.75 10.743 13.743 11.75 12.5 11.75L12.5 11.75Z" id="Shape" fill="#000000" fill-opacity="0.07" stroke="none" />
    <path d="M12.5 11L12.5 11C11.672 11 11 10.328 11 9.5L11 5.5C11 4.672 11.672 4 12.5 4L12.5 4C13.328 4 14 4.672 14 5.5L14 9.5C14 10.328 13.328 11 12.5 11L12.5 11Z" id="Shape" fill="#3CCBF4" stroke="none" />
    <path d="M38 19.5L38 22.5C38 22.776 37.776 23 37.5 23L34.5 23C34.224 23 34 22.776 34 22.5L34 19.5C34 19.224 34.224 19 34.5 19L37.5 19C37.776 19 38 19.224 38 19.5L38 19.5ZM30 19.5L30 22.5C30 22.776 29.776 23 29.5 23L26.5 23C26.224 23 26 22.776 26 22.5L26 19.5C26 19.224 26.224 19 26.5 19L29.5 19C29.776 19 30 19.224 30 19.5L30 19.5ZM22 19.5L22 22.5C22 22.776 21.776 23 21.5 23L18.5 23C18.224 23 18 22.776 18 22.5L18 19.5C18 19.224 18.224 19 18.5 19L21.5 19C21.776 19 22 19.224 22 19.5L22 19.5Z" id="Shape" fill="#FFFFFF" fill-rule="evenodd" stroke="none" />
    <path d="M38 26.5L38 29.5C38 29.776 37.776 30 37.5 30L34.5 30C34.224 30 34 29.776 34 29.5L34 26.5C34 26.224 34.224 26 34.5 26L37.5 26C37.776 26 38 26.224 38 26.5L38 26.5ZM30 26.5L30 29.5C30 29.776 29.776 30 29.5 30L26.5 30C26.224 30 26 29.776 26 29.5L26 26.5C26 26.224 26.224 26 26.5 26L29.5 26C29.776 26 30 26.224 30 26.5L30 26.5ZM22 26.5L22 29.5C22 29.776 21.776 30 21.5 30L18.5 30C18.224 30 18 29.776 18 29.5L18 26.5C18 26.224 18.224 26 18.5 26L21.5 26C21.776 26 22 26.224 22 26.5L22 26.5ZM14 26.5L14 29.5C14 29.776 13.776 30 13.5 30L10.5 30C10.224 30 10 29.776 10 29.5L10 26.5C10 26.224 10.224 26 10.5 26L13.5 26C13.776 26 14 26.224 14 26.5L14 26.5Z" id="Shape" fill="#FFFFFF" fill-rule="evenodd" stroke="none" />
    <path d="M30 33.5L30 36.5C30 36.776 29.776 37 29.5 37L26.5 37C26.224 37 26 36.776 26 36.5L26 33.5C26 33.224 26.224 33 26.5 33L29.5 33C29.776 33 30 33.224 30 33.5L30 33.5ZM22 33.5L22 36.5C22 36.776 21.776 37 21.5 37L18.5 37C18.224 37 18 36.776 18 36.5L18 33.5C18 33.224 18.224 33 18.5 33L21.5 33C21.776 33 22 33.224 22 33.5L22 33.5ZM14 33.5L14 36.5C14 36.776 13.776 37 13.5 37L10.5 37C10.224 37 10 36.776 10 36.5L10 33.5C10 33.224 10.224 33 10.5 33L13.5 33C13.776 33 14 33.224 14 33.5L14 33.5Z" id="Shape" fill="#FFFFFF" fill-rule="evenodd" stroke="none" />
    <path d="M35.5 11L35.5 11C34.672 11 34 10.328 34 9.5L34 5.5C34 4.672 34.672 4 35.5 4L35.5 4C36.328 4 37 4.672 37 5.5L37 9.5C37 10.328 36.328 11 35.5 11L35.5 11Z" id="Shape" fill="#3CCBF4" stroke="none" />
  </g>
</svg>