<?xml version="1.0" encoding="utf-8"?>
<svg width="48px" height="48px" viewBox="0 0 48 48" version="1.1" xmlns:xlink="http://www.w3.org/1999/xlink" xmlns="http://www.w3.org/2000/svg">
  <defs>
    <linearGradient gradientUnits="userSpaceOnUse" x1="0.5290003" y1="10.472" x2="5.6" y2="5.3999996" id="gradient_1">
      <stop offset="0%" stop-color="#3079D6" />
      <stop offset="100%" stop-color="#297CD2" />
    </linearGradient>
    <linearGradient gradientUnits="userSpaceOnUse" x1="-3.6076255" y1="-6.6766267" x2="19.229042" y2="10.002667" id="gradient_2">
      <stop offset="0%" stop-color="#28AFEA" />
      <stop offset="100%" stop-color="#047ED6" />
    </linearGradient>
    <linearGradient gradientUnits="userSpaceOnUse" x1="-3.6037502" y1="-3.4823344" x2="18.857044" y2="1.0850005" id="gradient_3">
      <stop offset="0%" stop-color="#0077D2" />
      <stop offset="100%" stop-color="#0B59A2" />
    </linearGradient>
    <path d="M0 0L48 0L48 48L0 48L0 0Z" id="path_1" />
    <path d="M0 0L31 0L31 31L0 31L0 0Z" id="path_2" />
    <clipPath id="mask_1">
      <use xlink:href="#path_1" />
    </clipPath>
    <clipPath id="mask_2">
      <use xlink:href="#path_2" />
    </clipPath>
  </defs>
  <g id="File-Icon-2">
    <path d="M0 0L48 0L48 48L0 48L0 0Z" id="Background" fill="#FFFFFF" fill-opacity="0" fill-rule="evenodd" stroke="none" />
    <g clip-path="url(#mask_1)">
      <path d="M39 16L39 41C39 42.105 38.105 43 37 43L11 43C9.895 43 9 42.105 9 41L9 7C9 5.895 9.895 5 11 5L28 5L39 16L39 16Z" id="Shape" fill="#50E6FF" fill-rule="evenodd" stroke="none" />
      <path d="M28 5L28 14C28 15.105 28.895 16 30 16L39 16L28 5L28 5Z" id="Shape" fill="url(#gradient_1)" fill-rule="evenodd" stroke="none" />
    </g>
  </g>
  <g id="svg" transform="translate(8.5 14)">
    <path d="M0 0L31 0L31 31L0 31L0 0Z" id="Background" fill="#FFFFFF" fill-opacity="0" fill-rule="evenodd" stroke="none" />
    <g id="Calendar-Icon">
      <path d="M0 0L31 0L31 31L0 31L0 0L0 0Z" id="Background" fill="#FFFFFF" fill-opacity="0" fill-rule="evenodd" stroke="none" />
      <path d="M3.875 25.8333L3.875 7.75L27.125 7.75L27.125 25.8333C27.125 26.5438 26.5438 27.125 25.8333 27.125L5.16667 27.125C4.45625 27.125 3.875 26.5438 3.875 25.8333L3.875 25.8333L3.875 25.8333Z" id="Shape" fill="url(#gradient_2)" stroke="none" />
      <path d="M27.125 5.16667L27.125 9.04167L3.875 9.04167L3.875 5.16667C3.875 4.45625 4.45625 3.875 5.16667 3.875L25.8333 3.875C26.5438 3.875 27.125 4.45625 27.125 5.16667L27.125 5.16667L27.125 5.16667Z" id="Shape#1" fill="url(#gradient_3)" stroke="none" />
      <path d="M22.9271 8.07292L22.9271 8.07292C21.8569 8.07292 20.9896 7.20556 20.9896 6.13542L20.9896 3.875L24.8646 3.875L24.8646 6.13542C24.8646 7.20556 23.9972 8.07292 22.9271 8.07292L22.9271 8.07292L22.9271 8.07292Z" id="Shape#2" fill="#000000" fill-opacity="0.050980393" stroke="none" />
      <path d="M22.9271 7.58854L22.9271 7.58854C22.1243 7.58854 21.474 6.93819 21.474 6.13542L21.474 3.875L24.3802 3.875L24.3802 6.13542C24.3802 6.93819 23.7299 7.58854 22.9271 7.58854L22.9271 7.58854L22.9271 7.58854Z" id="Shape#3" fill="#000000" fill-opacity="0.07058824" stroke="none" />
      <path d="M8.07291 8.07292L8.07291 8.07292C7.00277 8.07292 6.13541 7.20556 6.13541 6.13542L6.13541 3.875L10.0104 3.875L10.0104 6.13542C10.0104 7.20556 9.14306 8.07292 8.07291 8.07292L8.07291 8.07292L8.07291 8.07292Z" id="Shape#4" fill="#000000" fill-opacity="0.050980393" stroke="none" />
      <path d="M8.07291 7.58854L8.07291 7.58854C7.27014 7.58854 6.61979 6.93819 6.61979 6.13542L6.61979 3.875L9.52604 3.875L9.52604 6.13542C9.52604 6.93819 8.87568 7.58854 8.07291 7.58854L8.07291 7.58854L8.07291 7.58854Z" id="Shape#5" fill="#000000" fill-opacity="0.07058824" stroke="none" />
      <path d="M8.07291 7.10417L8.07291 7.10417C7.53816 7.10417 7.10416 6.67017 7.10416 6.13542L7.10416 3.55209C7.10416 3.01734 7.53816 2.58334 8.07291 2.58334L8.07291 2.58334C8.60766 2.58334 9.04166 3.01734 9.04166 3.55209L9.04166 6.13542C9.04166 6.67017 8.60766 7.10417 8.07291 7.10417L8.07291 7.10417L8.07291 7.10417Z" id="Shape#6" fill="#3CCBF4" stroke="none" />
      <path d="M24.5417 12.5938L24.5417 14.5313C24.5417 14.7095 24.397 14.8542 24.2188 14.8542L22.2813 14.8542C22.103 14.8542 21.9583 14.7095 21.9583 14.5313L21.9583 12.5938C21.9583 12.4155 22.103 12.2708 22.2813 12.2708L24.2188 12.2708C24.397 12.2708 24.5417 12.4155 24.5417 12.5938L24.5417 12.5938L24.5417 12.5938ZM19.375 12.5938L19.375 14.5313C19.375 14.7095 19.2303 14.8542 19.0521 14.8542L17.1146 14.8542C16.9363 14.8542 16.7917 14.7095 16.7917 14.5313L16.7917 12.5938C16.7917 12.4155 16.9363 12.2708 17.1146 12.2708L19.0521 12.2708C19.2303 12.2708 19.375 12.4155 19.375 12.5938L19.375 12.5938L19.375 12.5938ZM14.2083 12.5938L14.2083 14.5313C14.2083 14.7095 14.0637 14.8542 13.8854 14.8542L11.9479 14.8542C11.7697 14.8542 11.625 14.7095 11.625 14.5313L11.625 12.5938C11.625 12.4155 11.7697 12.2708 11.9479 12.2708L13.8854 12.2708C14.0637 12.2708 14.2083 12.4155 14.2083 12.5938L14.2083 12.5938L14.2083 12.5938Z" id="Shape#7" fill="#FFFFFF" fill-rule="evenodd" stroke="none" />
      <path d="M24.5417 17.1146L24.5417 19.0521C24.5417 19.2303 24.397 19.375 24.2188 19.375L22.2813 19.375C22.103 19.375 21.9583 19.2303 21.9583 19.0521L21.9583 17.1146C21.9583 16.9363 22.103 16.7917 22.2813 16.7917L24.2188 16.7917C24.397 16.7917 24.5417 16.9363 24.5417 17.1146L24.5417 17.1146L24.5417 17.1146ZM19.375 17.1146L19.375 19.0521C19.375 19.2303 19.2303 19.375 19.0521 19.375L17.1146 19.375C16.9363 19.375 16.7917 19.2303 16.7917 19.0521L16.7917 17.1146C16.7917 16.9363 16.9363 16.7917 17.1146 16.7917L19.0521 16.7917C19.2303 16.7917 19.375 16.9363 19.375 17.1146L19.375 17.1146L19.375 17.1146ZM14.2083 17.1146L14.2083 19.0521C14.2083 19.2303 14.0637 19.375 13.8854 19.375L11.9479 19.375C11.7697 19.375 11.625 19.2303 11.625 19.0521L11.625 17.1146C11.625 16.9363 11.7697 16.7917 11.9479 16.7917L13.8854 16.7917C14.0637 16.7917 14.2083 16.9363 14.2083 17.1146L14.2083 17.1146L14.2083 17.1146ZM9.04167 17.1146L9.04167 19.0521C9.04167 19.2303 8.89701 19.375 8.71875 19.375L6.78125 19.375C6.603 19.375 6.45834 19.2303 6.45834 19.0521L6.45834 17.1146C6.45834 16.9363 6.603 16.7917 6.78125 16.7917L8.71875 16.7917C8.89701 16.7917 9.04167 16.9363 9.04167 17.1146L9.04167 17.1146L9.04167 17.1146Z" id="Shape#8" fill="#FFFFFF" fill-rule="evenodd" stroke="none" />
      <path d="M19.375 21.6354L19.375 23.5729C19.375 23.7512 19.2303 23.8958 19.0521 23.8958L17.1146 23.8958C16.9363 23.8958 16.7917 23.7512 16.7917 23.5729L16.7917 21.6354C16.7917 21.4572 16.9363 21.3125 17.1146 21.3125L19.0521 21.3125C19.2303 21.3125 19.375 21.4572 19.375 21.6354L19.375 21.6354L19.375 21.6354ZM14.2083 21.6354L14.2083 23.5729C14.2083 23.7512 14.0637 23.8958 13.8854 23.8958L11.9479 23.8958C11.7697 23.8958 11.625 23.7512 11.625 23.5729L11.625 21.6354C11.625 21.4572 11.7697 21.3125 11.9479 21.3125L13.8854 21.3125C14.0637 21.3125 14.2083 21.4572 14.2083 21.6354L14.2083 21.6354L14.2083 21.6354ZM9.04167 21.6354L9.04167 23.5729C9.04167 23.7512 8.89701 23.8958 8.71875 23.8958L6.78125 23.8958C6.603 23.8958 6.45834 23.7512 6.45834 23.5729L6.45834 21.6354C6.45834 21.4572 6.603 21.3125 6.78125 21.3125L8.71875 21.3125C8.89701 21.3125 9.04167 21.4572 9.04167 21.6354L9.04167 21.6354L9.04167 21.6354Z" id="Shape#9" fill="#FFFFFF" fill-rule="evenodd" stroke="none" />
      <path d="M22.9271 7.10417L22.9271 7.10417C22.3923 7.10417 21.9583 6.67017 21.9583 6.13542L21.9583 3.55209C21.9583 3.01734 22.3923 2.58334 22.9271 2.58334L22.9271 2.58334C23.4618 2.58334 23.8958 3.01734 23.8958 3.55209L23.8958 6.13542C23.8958 6.67017 23.4618 7.10417 22.9271 7.10417L22.9271 7.10417L22.9271 7.10417Z" id="Shape#10" fill="#3CCBF4" stroke="none" />
    </g>
  </g>
</svg>