<?xml version="1.0" encoding="utf-8"?>
<svg width="48px" height="48px" viewBox="0 0 48 48" version="1.1" xmlns:xlink="http://www.w3.org/1999/xlink" xmlns="http://www.w3.org/2000/svg">
  <defs>
    <radialGradient gradientUnits="objectBoundingBox" cx="117.81763%" cy="-17.547262%" fx="117.81763%" fy="-17.547262%" r="76.96639%" gradientTransform="translate(1.1781763,-0.17547262),scale(0.99999994,1),translate(-1.1781763,0.17547262)" id="gradient_1">
      <stop offset="77.100006%" stop-color="#787F85" />
      <stop offset="81.9%" stop-color="#838A91" />
      <stop offset="93.09999%" stop-color="#99A1AA" />
      <stop offset="100%" stop-color="#A1AAB3" />
    </radialGradient>
    <linearGradient gradientUnits="userSpaceOnUse" x1="3.3150063" y1="4.6692243" x2="22.807007" y2="24.161226" id="gradient_2">
      <stop offset="0%" stop-color="#A1AAB3" />
      <stop offset="100%" stop-color="#8F979E" />
    </linearGradient>
    <linearGradient gradientUnits="userSpaceOnUse" x1="6.7889996" y1="6.7890015" x2="1.1820002" y2="1.1819992" id="gradient_3">
      <stop offset="0%" stop-color="#FFFFFF" />
      <stop offset="24.2%" stop-color="#F2F2F2" />
      <stop offset="100%" stop-color="#CCCCCC" />
    </linearGradient>
    <linearGradient gradientUnits="userSpaceOnUse" x1="0.12899971" y1="0.12900162" x2="3.4110003" y2="3.4109993" id="gradient_4">
      <stop offset="0%" stop-color="#0D61A9" />
      <stop offset="36.3%" stop-color="#0E5FA4" />
      <stop offset="78%" stop-color="#135796" />
      <stop offset="100%" stop-color="#16528C" />
    </linearGradient>
    <path d="M0 0L48 0L48 48L0 48L0 0Z" id="path_1" />
    <clipPath id="mask_1">
      <use xlink:href="#path_1" />
    </clipPath>
  </defs>
  <g id="Support-Icon">
    <path d="M0 0L48 0L48 48L0 48L0 0Z" id="Background" fill="#FFFFFF" fill-opacity="0" fill-rule="evenodd" stroke="none" />
    <path d="M17.464 21.808L26.192 30.536L14.536 42.192C12.126 44.602 8.218 44.602 5.808 42.192L5.808 42.192C3.398 39.782 3.398 35.874 5.808 33.464L17.464 21.808L17.464 21.808Z" id="Shape" fill="url(#gradient_1)" stroke="none" />
    <path d="M36.883 19.304C34.622 21.565 30.956 21.565 28.695 19.304C26.434 17.043 26.434 13.377 28.695 11.116C29.247 10.564 31.47 8.341 33.735 6.076C34.278 5.533 34.037 4.584 33.291 4.401C31.455 3.949 29.48 3.855 27.425 4.242C21.399 5.378 16.7 10.42 16.075 16.521C15.163 25.416 22.586 32.838 31.481 31.924C37.581 31.297 42.622 26.598 43.757 20.572C44.144 18.518 44.049 16.544 43.598 14.708C43.414 13.962 42.466 13.721 41.923 14.264C39.658 16.529 37.435 18.753 36.883 19.304L36.883 19.304Z" id="Shape" fill="url(#gradient_2)" stroke="none" />
    <path d="M6 38C6 35.7909 7.79086 34 10 34C12.2091 34 14 35.7909 14 38C14 40.2091 12.2091 42 10 42C7.79086 42 6 40.2091 6 38Z" id="Circle" fill="url(#gradient_3)" fill-rule="evenodd" stroke="none" />
    <path d="M8 38C8 36.8954 8.89543 36 10 36C11.1046 36 12 36.8954 12 38C12 39.1046 11.1046 40 10 40C8.89543 40 8 39.1046 8 38Z" id="Circle" fill="url(#gradient_4)" fill-rule="evenodd" stroke="none" />
  </g>
</svg>