<?xml version="1.0" encoding="utf-8"?>
<svg width="48px" height="48px" viewBox="0 0 48 48" version="1.1" xmlns:xlink="http://www.w3.org/1999/xlink" xmlns="http://www.w3.org/2000/svg">
  <defs>
    <linearGradient gradientUnits="objectBoundingBox" x1="0.09938775" y1="0.90061224" x2="0.80334693" y2="0.19665307" id="gradient_1">
      <stop offset="50.300003%" stop-color="#A1AAB3" />
      <stop offset="65.8%" stop-color="#9EA7AF" />
      <stop offset="79.59999%" stop-color="#949DA5" />
      <stop offset="92.79999%" stop-color="#848C92" />
      <stop offset="100%" stop-color="#787F85" />
    </linearGradient>
    <linearGradient gradientUnits="objectBoundingBox" x1="0.11838508" y1="0.16673668" x2="0.814524" y2="0.8628549" id="gradient_2">
      <stop offset="0%" stop-color="#A1AAB3" />
      <stop offset="100%" stop-color="#8F979E" />
    </linearGradient>
    <linearGradient gradientUnits="objectBoundingBox" x1="0.84862494" y1="0.8486252" x2="0.14775002" y2="0.1477499" id="gradient_3">
      <stop offset="0%" stop-color="#FFFFFF" />
      <stop offset="24.2%" stop-color="#F2F2F2" />
      <stop offset="100%" stop-color="#CCCCCC" />
    </linearGradient>
    <linearGradient gradientUnits="objectBoundingBox" x1="0.032249928" y1="0.032250404" x2="0.85275006" y2="0.8527498" id="gradient_4">
      <stop offset="0%" stop-color="#0D61A9" />
      <stop offset="36.3%" stop-color="#0E5FA4" />
      <stop offset="78%" stop-color="#135796" />
      <stop offset="100%" stop-color="#16528C" />
    </linearGradient>
    <path d="M48 0L48 0L48 48L0 48L0 0L48 0Z" id="path_1" />
    <clipPath id="clip_1">
      <use xlink:href="#path_1" />
    </clipPath>
  </defs>
  <g id="Wrench" clip-path="url(#clip_1)">
    <path d="M48 0L48 0L48 48L0 48L0 0L48 0Z" id="Wrench" fill="none" stroke="none" />
    <path d="M28.5 26.579L21.421 19.5L10.917 30.004C7.089 30.049 4 33.162 4 37C4 40.866 7.134 44 11 44C14.838 44 17.951 40.91 17.996 37.083L28.5 26.579L28.5 26.579Z" id="Shape" fill="url(#gradient_1)" stroke="none" />
    <path d="M37.9 17.118C35.962 19.056 32.82 19.056 30.882 17.118C28.944 15.18 28.944 12.038 30.882 10.1C31.355 9.627 33.261 7.721 35.202 5.78C35.668 5.314 35.461 4.501 34.822 4.344C33.248 3.957 31.555 3.876 29.794 4.208C24.629 5.182 20.601 9.504 20.065 14.733C19.283 22.357 25.646 28.719 33.27 27.935C38.498 27.398 42.82 23.37 43.792 18.205C44.124 16.444 44.042 14.752 43.655 13.179C43.498 12.54 42.685 12.333 42.219 12.799C40.279 14.739 38.373 16.645 37.9 17.118L37.9 17.118Z" id="Shape" fill="url(#gradient_2)" stroke="none" />
    <path d="M7 37C7 34.7909 8.79086 33 11 33C13.2091 33 15 34.7909 15 37C15 39.2091 13.2091 41 11 41C8.79086 41 7 39.2091 7 37Z" id="Circle" fill="url(#gradient_3)" fill-rule="evenodd" stroke="none" />
    <path d="M9 37C9 35.8954 9.89543 35 11 35C12.1046 35 13 35.8954 13 37C13 38.1046 12.1046 39 11 39C9.89543 39 9 38.1046 9 37Z" id="Circle" fill="url(#gradient_4)" fill-rule="evenodd" stroke="none" />
  </g>
</svg>