<?xml version="1.0" encoding="utf-8"?>
<svg width="48px" height="48px" viewBox="0 0 48 48" version="1.1" xmlns:xlink="http://www.w3.org/1999/xlink" xmlns="http://www.w3.org/2000/svg">
  <defs>
    <linearGradient gradientUnits="objectBoundingBox" x1="0.30929172" y1="-0.010130435" x2="0.68645835" y2="0.99880433" id="gradient_1">
      <stop offset="0%" stop-color="#889097" />
      <stop offset="33.1%" stop-color="#848C94" />
      <stop offset="66.9%" stop-color="#78828B" />
      <stop offset="100%" stop-color="#64717C" />
    </linearGradient>
    <radialGradient gradientUnits="objectBoundingBox" cx="-1.0954559%" cy="-2.268182%" fx="-1.0954559%" fy="-2.268182%" r="1108.6053%" gradientTransform="translate(-0.010954559,-0.02268182),scale(1,0.5),rotate(-158.84981),scale(1,1.3113964),translate(0.010954559,0.02268182)" id="gradient_2">
      <stop offset="0%" stop-color="#BD8AF5" />
      <stop offset="13.7%" stop-color="#B88BF5" />
      <stop offset="30.899996%" stop-color="#A88FF3" />
      <stop offset="49.9%" stop-color="#8F96F2" />
      <stop offset="70.200005%" stop-color="#6B9EEF" />
      <stop offset="91.299995%" stop-color="#3EAAEC" />
      <stop offset="100%" stop-color="#29AFEA" />
    </radialGradient>
    <linearGradient gradientUnits="objectBoundingBox" x1="0.5" y1="1.0105" x2="0.5" y2="0.038000107" id="gradient_3">
      <stop offset="0%" stop-color="#6D7479" />
      <stop offset="100%" stop-color="#323538" />
    </linearGradient>
    <path d="M48 0L48 0L48 48L0 48L0 0L48 0Z" id="path_1" />
    <clipPath id="clip_1">
      <use xlink:href="#path_1" />
    </clipPath>
  </defs>
  <g id="Iphone 14 Pro" clip-path="url(#clip_1)">
    <path d="M48 0L48 0L48 48L0 48L0 0L48 0Z" id="Iphone-14-Pro" fill="none" stroke="none" />
    <path d="M12 44L12 4C12 2.343 13.343 1 15 1L33 1C34.657 1 36 2.343 36 4L36 44C36 45.657 34.657 47 33 47L15 47C13.343 47 12 45.657 12 44L12 44Z" id="Shape" fill="url(#gradient_1)" stroke="none" />
    <path d="M13 44L13 4C13 2.895 13.895 2 15 2L33 2C34.105 2 35 2.895 35 4L35 44C35 45.105 34.105 46 33 46L15 46C13.895 46 13 45.105 13 44L13 44Z" id="Shape" fill="url(#gradient_2)" stroke="none" />
    <path d="M27 4C26.814 4 21.186 4 21 4C20.448 4 20 4.448 20 5C20 5.552 20.448 6 21 6C21.186 6 26.814 6 27 6C27.552 6 28 5.552 28 5C28 4.448 27.552 4 27 4L27 4Z" id="Shape" fill="url(#gradient_3)" stroke="none" />
  </g>
</svg>