<?xml version="1.0" encoding="utf-8"?>
<svg width="48px" height="48px" viewBox="0 0 48 48" version="1.1" xmlns:xlink="http://www.w3.org/1999/xlink" xmlns="http://www.w3.org/2000/svg">
  <defs>
    <linearGradient gradientUnits="userSpaceOnUse" x1="0.5290003" y1="10.472" x2="5.6" y2="5.3999996" id="gradient_1">
      <stop offset="0%" stop-color="#3079D6" />
      <stop offset="100%" stop-color="#297CD2" />
    </linearGradient>
    <path d="M0 0L48 0L48 48L0 48L0 0Z" id="path_1" />
    <clipPath id="mask_1">
      <use xlink:href="#path_1" />
    </clipPath>
  </defs>
  <g id="File-Icon-2">
    <path d="M0 0L48 0L48 48L0 48L0 0Z" id="Background" fill="#FFFFFF" fill-opacity="0" fill-rule="evenodd" stroke="none" />
    <g clip-path="url(#mask_1)">
      <path d="M39 16L39 41C39 42.105 38.105 43 37 43L11 43C9.895 43 9 42.105 9 41L9 7C9 5.895 9.895 5 11 5L28 5L39 16L39 16Z" id="Shape" fill="#50E6FF" fill-rule="evenodd" stroke="none" />
      <path d="M28 5L28 14C28 15.105 28.895 16 30 16L39 16L28 5L28 5Z" id="Shape" fill="url(#gradient_1)" fill-rule="evenodd" stroke="none" />
    </g>
  </g>
  <g id="svg" transform="translate(10 17)">
    <g id="Apple-Logo-Icon">
      <path d="M0 0L26 0L26 26L0 26L0 0L0 0Z" id="Background" fill="#FFFFFF" fill-opacity="0" fill-rule="evenodd" stroke="none" />
      <path d="M19.6257 12.9919C19.6257 9.815 22.2072 8.38229 22.3156 8.31404C20.9094 6.15116 18.6377 5.89441 17.7862 5.89387C15.8129 5.89387 14.0687 6.98912 13.1359 6.98912C12.1626 6.98912 10.7429 5.84025 9.14766 5.89387C7.06603 5.9345 5.15937 7.16462 4.09174 8.9765C3.33503 10.2743 3.03712 11.8024 3.06474 13.357C3.06583 13.4182 3.07395 13.4805 3.07558 13.5417L19.6733 13.5417C19.6511 13.3635 19.6316 13.1825 19.6257 12.9919L19.6257 12.9919L19.6257 12.9919Z" id="Shape" fill="#0883D9" stroke="none" />
      <path d="M16.556 3.82579C17.4747 2.81179 17.9887 1.41971 17.9075 0C16.6367 0 15.1634 0.743167 14.2307 1.83842C13.5005 2.74408 12.7167 4.16379 13.0005 5.58296C14.3119 5.74546 15.7316 4.92104 16.556 3.82579L16.556 3.82579L16.556 3.82579Z" id="Shape#1" fill="#0883D9" stroke="none" />
      <path d="M9.48513 24.375C10.9861 24.375 11.5402 23.374 13.5005 23.374C15.3259 23.374 15.8936 24.375 17.4753 24.375C19.1382 24.375 20.2334 22.861 21.2198 21.3595C22.4629 19.6165 22.8827 17.9535 22.9363 17.8853C22.8854 17.8853 20.0725 16.7413 19.6723 13.5417L3.07559 13.5417C3.16063 16.4185 4.28242 19.3863 5.60571 21.2924C6.64625 22.7798 7.82221 24.375 9.48513 24.375L9.48513 24.375L9.48513 24.375Z" id="Shape#2" fill="#0370C8" stroke="none" />
    </g>
  </g>
</svg>