<?xml version="1.0" encoding="utf-8"?>
<svg width="48px" height="48px" viewBox="0 0 48 48" version="1.1" xmlns:xlink="http://www.w3.org/1999/xlink" xmlns="http://www.w3.org/2000/svg">
  <defs>
    <linearGradient gradientUnits="userSpaceOnUse" x1="0.5290003" y1="10.472" x2="5.6" y2="5.3999996" id="gradient_1">
      <stop offset="0%" stop-color="#3079D6" />
      <stop offset="100%" stop-color="#297CD2" />
    </linearGradient>
    <radialGradient gradientUnits="objectBoundingBox" cx="117.99168%" cy="84.65278%" fx="117.99168%" fy="84.65278%" r="63.72777%" gradientTransform="translate(1.1799167,0.84652776),translate(-1.1799167,-0.84652776)" id="gradient_2">
      <stop offset="0%" stop-color="#FFCF7B" />
      <stop offset="19.5%" stop-color="#FECD76" />
      <stop offset="43.9%" stop-color="#FAC666" />
      <stop offset="71%" stop-color="#F3BC4D" />
      <stop offset="99.69999%" stop-color="#EAAD29" />
      <stop offset="100%" stop-color="#EAAD29" />
    </radialGradient>
    <linearGradient gradientUnits="userSpaceOnUse" x1="7.691876" y1="-11.779965" x2="7.691876" y2="3.9021626" id="gradient_3">
      <stop offset="0%" stop-color="#C26715" />
      <stop offset="50.800003%" stop-color="#B85515" />
      <stop offset="100%" stop-color="#AD3F16" />
    </linearGradient>
    <path d="M0 0L48 0L48 48L0 48L0 0Z" id="path_1" />
    <clipPath id="mask_1">
      <use xlink:href="#path_1" />
    </clipPath>
  </defs>
  <g id="File-Icon-2">
    <path d="M0 0L48 0L48 48L0 48L0 0Z" id="Background" fill="#FFFFFF" fill-opacity="0" fill-rule="evenodd" stroke="none" />
    <g clip-path="url(#mask_1)">
      <path d="M39 16L39 41C39 42.105 38.105 43 37 43L11 43C9.895 43 9 42.105 9 41L9 7C9 5.895 9.895 5 11 5L28 5L39 16L39 16Z" id="Shape" fill="#50E6FF" fill-rule="evenodd" stroke="none" />
      <path d="M28 5L28 14C28 15.105 28.895 16 30 16L39 16L28 5L28 5Z" id="Shape" fill="url(#gradient_1)" fill-rule="evenodd" stroke="none" />
    </g>
  </g>
  <g id="svg" transform="translate(8.5 14)">
    <g id="Picture-Icon">
      <path d="M0 0L31 0L31 31L0 31L0 0L0 0Z" id="Background" fill="#FFFFFF" fill-opacity="0" fill-rule="evenodd" stroke="none" />
      <path d="M25.8333 3.875L5.16667 3.875C4.45302 3.875 3.875 4.45302 3.875 5.16667L3.875 25.8333C3.875 26.547 4.45302 27.125 5.16667 27.125L25.8333 27.125C26.547 27.125 27.125 26.547 27.125 25.8333L27.125 5.16667C27.125 4.45302 26.547 3.875 25.8333 3.875L25.8333 3.875L25.8333 3.875Z" id="Shape" fill="url(#gradient_2)" stroke="none" />
      <path d="M20.7086 14.8961C19.9666 14.1541 18.7679 14.1379 18.0058 14.8593L11.625 20.9043L11.625 27.125L25.8333 27.125C26.547 27.125 27.125 26.547 27.125 25.8333L27.125 21.3125L20.7086 14.8961L20.7086 14.8961L20.7086 14.8961Z" id="Shape#1" fill="#D6742D" stroke="none" />
      <path d="M17.4375 9.36458C17.4375 8.11618 18.4495 7.10416 19.6979 7.10416C20.9463 7.10416 21.9583 8.11618 21.9583 9.36458C21.9583 10.613 20.9463 11.625 19.6979 11.625C18.4495 11.625 17.4375 10.613 17.4375 9.36458L17.4375 9.36458Z" id="Circle" fill="#FFF8DE" fill-rule="evenodd" stroke="none" />
      <path d="M5.16667 27.125L25.8333 27.125C26.3571 27.125 26.8066 26.8118 27.0088 26.3629L12.9586 12.3128C12.2166 11.5707 11.0179 11.5546 10.2558 12.276L3.875 18.321L3.875 25.8333C3.875 26.547 4.45302 27.125 5.16667 27.125L5.16667 27.125L5.16667 27.125Z" id="Shape#2" fill="url(#gradient_3)" stroke="none" />
    </g>
  </g>
</svg>