<?xml version="1.0" encoding="utf-8"?>
<svg width="60px" height="60px" viewBox="0 0 60 60" version="1.1" xmlns:xlink="http://www.w3.org/1999/xlink" xmlns="http://www.w3.org/2000/svg">
  <defs>
    <linearGradient gradientUnits="userSpaceOnUse" x1="0.5290003" y1="10.472" x2="5.6" y2="5.3999996" id="gradient_1">
      <stop offset="0%" stop-color="#3079D6" />
      <stop offset="100%" stop-color="#297CD2" />
    </linearGradient>
    <path d="M0 0L48 0L48 48L0 48L0 0Z" id="path_1" />
    <clipPath id="mask_1">
      <use xlink:href="#path_1" />
    </clipPath>
  </defs>
  <g id="File-Icon-2" transform="translate(6 4)">
    <path d="M0 0L48 0L48 48L0 48L0 0Z" id="Background" fill="#FFFFFF" fill-opacity="0" fill-rule="evenodd" stroke="none" />
    <path d="M39 16L39 41C39 42.105 38.105 43 37 43L11 43C9.895 43 9 42.105 9 41L9 7C9 5.895 9.895 5 11 5L28 5L39 16L39 16Z" id="Shape" fill="#50E6FF" stroke="none" />
    <path d="M28 5L28 14C28 15.105 28.895 16 30 16L39 16L28 5L28 5Z" id="Shape" fill="url(#gradient_1)" stroke="none" />
  </g>
  <g id="svg-2" transform="translate(15 19)">
    <g id="Javascript-Icon">
      <path d="M0 0L29 0L29 29L0 29L0 0L0 0Z" id="Background" fill="#FFFFFF" fill-opacity="0" fill-rule="evenodd" stroke="none" />
      <path d="M3.625 25.375L3.625 3.625L25.375 3.625L25.375 25.375L3.625 25.375L3.625 25.375L3.625 25.375Z" id="Shape" fill="#E6CF1B" stroke="none" />
      <path d="M17.8459 19.9055C18.264 20.5846 18.7183 21.2352 19.6807 21.2352C20.4891 21.2352 20.9132 20.8335 20.9132 20.2776C20.9132 19.6125 20.4746 19.3762 19.5853 18.989L19.0977 18.7811C17.6906 18.1842 16.7547 17.4363 16.7547 15.8564C16.7547 14.4003 17.8694 13.2923 19.6112 13.2923C20.8516 13.2923 21.7427 13.7218 22.3856 14.8468L20.8667 15.8177C20.5326 15.2208 20.1713 14.9858 19.6112 14.9858C19.0397 14.9858 18.6778 15.3464 18.6778 15.8177C18.6778 16.4001 19.0403 16.6357 19.8771 16.9964L20.3646 17.2043C22.0231 17.9105 22.9583 18.6319 22.9583 20.2535C22.9583 22.0007 21.5784 22.9583 19.726 22.9583C17.9141 22.9583 16.8853 22.0491 16.3125 20.9235L17.8459 19.9055L17.8459 19.9055L17.8459 19.9055ZM10.846 19.955C11.1517 20.5024 11.6163 20.9235 12.2845 20.9235C12.9237 20.9235 13.2917 20.671 13.2917 19.6892L13.2917 13.2917L15.3054 13.2917L15.3054 19.9985C15.3054 22.0327 14.1254 22.9583 12.4023 22.9583C10.8454 22.9583 9.72165 21.9035 9.26369 20.9235L10.846 19.955L10.846 19.955L10.846 19.955Z" id="Shape#1" fill="#000001" fill-rule="evenodd" stroke="none" />
    </g>
  </g>
</svg>