<?xml version="1.0" encoding="utf-8"?>
<svg width="48px" height="48px" viewBox="0 0 48 48" version="1.1" xmlns:xlink="http://www.w3.org/1999/xlink" xmlns="http://www.w3.org/2000/svg">
  <defs>
    <linearGradient gradientUnits="objectBoundingBox" x1="0.8479001" y1="0.1379" x2="0.087050006" y2="0.93110013" id="gradient_1">
      <stop offset="0%" stop-color="#E5A505" />
      <stop offset="1%" stop-color="#E9A804" />
      <stop offset="6%" stop-color="#F4B102" />
      <stop offset="12.9%" stop-color="#FBB600" />
      <stop offset="32.300003%" stop-color="#FDB700" />
    </linearGradient>
    <linearGradient gradientUnits="objectBoundingBox" x1="0.20888889" y1="0.076777756" x2="0.7767037" y2="0.9022963" id="gradient_2">
      <stop offset="0%" stop-color="#FEDE00" />
      <stop offset="100%" stop-color="#FFD000" />
    </linearGradient>
    <path d="M48 0L48 0L48 48L0 48L0 0L48 0Z" id="path_1" />
    <clipPath id="clip_1">
      <use xlink:href="#path_1" />
    </clipPath>
  </defs>
  <g id="Key Security" clip-path="url(#clip_1)">
    <path d="M48 0L48 0L48 48L0 48L0 0L48 0Z" id="Key-Security" fill="none" stroke="none" />
    <path d="M12 41.5C12 40.119 13.119 39 14.5 39C14.656 39 14.807 39.019 14.954 39.046L16.14 37.86C16.058 37.586 16 37.301 16 37C16 35.343 17.343 34 19 34C19.301 34 19.586 34.058 19.86 34.14L24 30L18 24L4.586 37.414C4.211 37.789 4 38.298 4 38.828L4 40.171C4 40.701 4.211 41.21 4.586 41.585L6.414 43.413C6.789 43.789 7.298 44 7.828 44L9.171 44C9.701 44 10.21 43.789 10.585 43.414L12.045 41.954C12.019 41.807 12 41.656 12 41.5L12 41.5Z" id="Shape" fill="url(#gradient_1)" stroke="none" />
    <path d="M29.5 5C22.044 5 16 11.044 16 18.5C16 25.956 22.044 32 29.5 32C36.956 32 43 25.956 43 18.5C43 11.044 36.956 5 29.5 5L29.5 5ZM33 19C30.791 19 29 17.209 29 15C29 12.791 30.791 11 33 11C35.209 11 37 12.791 37 15C37 17.209 35.209 19 33 19L33 19Z" id="Shape" fill="url(#gradient_2)" fill-rule="evenodd" stroke="none" />
  </g>
</svg>