<?xml version="1.0" encoding="utf-8"?>
<svg width="48px" height="48px" viewBox="0 0 48 48" version="1.1" xmlns:xlink="http://www.w3.org/1999/xlink" xmlns="http://www.w3.org/2000/svg">
  <defs>
    <linearGradient gradientUnits="userSpaceOnUse" x1="0.5290003" y1="10.472" x2="5.6" y2="5.3999996" id="gradient_1">
      <stop offset="0%" stop-color="#3079D6" />
      <stop offset="100%" stop-color="#297CD2" />
    </linearGradient>
    <linearGradient gradientUnits="userSpaceOnUse" x1="-23.71875" y1="-17.817244" x2="-23.71875" y2="-23.317242" id="gradient_2">
      <stop offset="0%" stop-color="#EBA600" />
      <stop offset="100%" stop-color="#C28200" />
    </linearGradient>
    <linearGradient gradientUnits="userSpaceOnUse" x1="-5.15625" y1="-17.817244" x2="-5.15625" y2="-23.317242" id="gradient_3">
      <stop offset="0%" stop-color="#EBA600" />
      <stop offset="100%" stop-color="#C28200" />
    </linearGradient>
    <linearGradient gradientUnits="userSpaceOnUse" x1="-3.4374995" y1="-18.21874" x2="22.687498" y2="-18.21874" id="gradient_4">
      <stop offset="0%" stop-color="#FFCF54" />
      <stop offset="26.1%" stop-color="#FDCB4D" />
      <stop offset="63.9%" stop-color="#F7C13A" />
      <stop offset="100%" stop-color="#F0B421" />
    </linearGradient>
    <linearGradient gradientUnits="userSpaceOnUse" x1="-6.1875" y1="3.78125" x2="-2.0625" y2="3.78125" id="gradient_5">
      <stop offset="0%" stop-color="#7819A2" />
      <stop offset="100%" stop-color="#771AA9" />
    </linearGradient>
    <linearGradient gradientUnits="userSpaceOnUse" x1="-6.1875" y1="-5.499998" x2="-2.0625" y2="-5.499998" id="gradient_6">
      <stop offset="0%" stop-color="#912FBD" />
      <stop offset="100%" stop-color="#9332BF" />
    </linearGradient>
    <linearGradient gradientUnits="userSpaceOnUse" x1="-6.1875" y1="-15.812478" x2="-2.0625" y2="-15.812478" id="gradient_7">
      <stop offset="0%" stop-color="#912FBD" />
      <stop offset="100%" stop-color="#9332BF" />
    </linearGradient>
    <path d="M0 0L48 0L48 48L0 48L0 0Z" id="path_1" />
    <clipPath id="mask_1">
      <use xlink:href="#path_1" />
    </clipPath>
  </defs>
  <g id="File-Icon-2">
    <path d="M0 0L48 0L48 48L0 48L0 0Z" id="Background" fill="#FFFFFF" fill-opacity="0" fill-rule="evenodd" stroke="none" />
    <g clip-path="url(#mask_1)">
      <path d="M39 16L39 41C39 42.105 38.105 43 37 43L11 43C9.895 43 9 42.105 9 41L9 7C9 5.895 9.895 5 11 5L28 5L39 16L39 16Z" id="Shape" fill="#50E6FF" fill-rule="evenodd" stroke="none" />
      <path d="M28 5L28 14C28 15.105 28.895 16 30 16L39 16L28 5L28 5Z" id="Shape" fill="url(#gradient_1)" fill-rule="evenodd" stroke="none" />
    </g>
  </g>
  <g id="svg" transform="translate(7 12)">
    <g id="Book-Shelf-Icon">
      <path d="M0 0L33 0L33 33L0 33L0 0L0 0Z" id="Background" fill="#FFFFFF" fill-opacity="0" fill-rule="evenodd" stroke="none" />
      <path d="M24.75 23.375L24.75 28.1875C24.75 28.567 25.058 28.875 25.4375 28.875L26.125 28.875C26.5045 28.875 26.8125 28.567 26.8125 28.1875L26.8125 23.375L24.75 23.375L24.75 23.375L24.75 23.375Z" id="Shape" fill="url(#gradient_2)" stroke="none" />
      <path d="M6.1875 23.375L6.1875 28.1875C6.1875 28.567 6.4955 28.875 6.875 28.875L7.5625 28.875C7.942 28.875 8.25 28.567 8.25 28.1875L8.25 23.375L6.1875 23.375L6.1875 23.375L6.1875 23.375Z" id="Shape#1" fill="url(#gradient_3)" stroke="none" />
      <path d="M28.875 23.375L4.12502 23.375C3.74552 23.375 3.43752 23.067 3.43752 22.6875L3.43752 20.625C3.43752 20.2455 3.74552 19.9375 4.12502 19.9375L28.875 19.9375C29.2545 19.9375 29.5625 20.2455 29.5625 20.625L29.5625 22.6875C29.5625 23.067 29.2545 23.375 28.875 23.375L28.875 23.375L28.875 23.375Z" id="Shape#2" fill="url(#gradient_4)" stroke="none" />
      <path d="M6.875 4.125L9.625 4.125C10.0045 4.125 10.3125 4.433 10.3125 4.8125L10.3125 19.25C10.3125 19.6295 10.0045 19.9375 9.625 19.9375L6.875 19.9375C6.4955 19.9375 6.1875 19.6295 6.1875 19.25L6.1875 4.8125C6.1875 4.433 6.4955 4.125 6.875 4.125L6.875 4.125L6.875 4.125Z" id="Shape#3" fill="url(#gradient_5)" stroke="none" />
      <path d="M12.375 4.125L15.125 4.125C15.5045 4.125 15.8125 4.433 15.8125 4.8125L15.8125 19.25C15.8125 19.6295 15.5045 19.9375 15.125 19.9375L12.375 19.9375C11.9955 19.9375 11.6875 19.6295 11.6875 19.25L11.6875 4.8125C11.6875 4.433 11.9955 4.125 12.375 4.125L12.375 4.125L12.375 4.125Z" id="Shape#4" fill="#107C42" stroke="none" />
      <path d="M16.5 8.25L19.25 8.25C19.6295 8.25 19.9375 8.558 19.9375 8.9375L19.9375 19.25C19.9375 19.6295 19.6295 19.9375 19.25 19.9375L16.5 19.9375C16.1205 19.9375 15.8125 19.6295 15.8125 19.25L15.8125 8.9375C15.8125 8.558 16.1205 8.25 16.5 8.25L16.5 8.25L16.5 8.25Z" id="Shape#5" fill="#AF2031" stroke="none" />
      <path d="M6.1875 6.1875L10.3125 6.1875L10.3125 7.5625L6.1875 7.5625L6.1875 6.1875L6.1875 6.1875Z" id="Rectangle" fill="url(#gradient_6)" fill-rule="evenodd" stroke="none" />
      <path d="M6.1875 16.5L10.3125 16.5L10.3125 17.875L6.1875 17.875L6.1875 16.5L6.1875 16.5Z" id="Rectangle#1" fill="url(#gradient_7)" fill-rule="evenodd" stroke="none" />
      <path d="M11.6875 6.1875L15.8125 6.1875L15.8125 7.5625L11.6875 7.5625L11.6875 6.1875L11.6875 6.1875Z" id="Rectangle#2" fill="#21A366" fill-rule="evenodd" stroke="none" />
      <path d="M11.6875 16.5L15.8125 16.5L15.8125 17.875L11.6875 17.875L11.6875 16.5L11.6875 16.5Z" id="Rectangle#3" fill="#21A366" fill-rule="evenodd" stroke="none" />
      <path d="M15.8125 10.3125L19.9375 10.3125L19.9375 11.6875L15.8125 11.6875L15.8125 10.3125L15.8125 10.3125Z" id="Rectangle#4" fill="#C94F60" fill-rule="evenodd" stroke="none" />
      <path d="M15.8125 16.5L19.9375 16.5L19.9375 17.875L15.8125 17.875L15.8125 16.5L15.8125 16.5Z" id="Rectangle#5" fill="#C94F60" fill-rule="evenodd" stroke="none" />
      <path d="M26.6901 18.9619L23.87 19.9018C23.5049 20.0234 23.111 19.822 22.9962 19.4549L19.9691 9.76732C19.8571 9.40982 20.0523 9.02826 20.4078 8.91001L23.2279 7.97019C23.5929 7.84851 23.9869 8.04994 24.1017 8.41707L27.1288 18.1046C27.2408 18.4621 27.0456 18.8437 26.6901 18.9619L26.6901 18.9619L26.6901 18.9619Z" id="Shape#6" fill="#027AD4" stroke="none" />
      <path d="M22.5995 18.1858L22.1877 16.8678L26.3037 15.4646L26.7155 16.7826L22.5995 18.1858L22.5995 18.1858Z" id="Polygon" fill="#25A2E5" fill-rule="evenodd" stroke="none" />
      <path d="M20.3335 10.934L20.7453 12.2519L24.8531 10.8212L24.4413 9.50331L20.3335 10.934L20.3335 10.934Z" id="Polygon#1" fill="#25A2E5" fill-rule="evenodd" stroke="none" />
    </g>
  </g>
</svg>