<?xml version="1.0" encoding="utf-8"?>
<svg width="48px" height="48px" viewBox="0 0 48 48" version="1.1" xmlns:xlink="http://www.w3.org/1999/xlink" xmlns="http://www.w3.org/2000/svg">
  <defs>
    <linearGradient gradientUnits="userSpaceOnUse" x1="0.5290003" y1="10.472" x2="5.6" y2="5.3999996" id="gradient_1">
      <stop offset="0%" stop-color="#3079D6" />
      <stop offset="100%" stop-color="#297CD2" />
    </linearGradient>
    <path d="M0 0L48 0L48 48L0 48L0 0Z" id="path_1" />
    <path d="M0 0L29 0L29 29L0 29L0 0Z" id="path_2" />
    <clipPath id="mask_1">
      <use xlink:href="#path_1" />
    </clipPath>
    <clipPath id="mask_2">
      <use xlink:href="#path_2" />
    </clipPath>
  </defs>
  <g id="File-Icon-2">
    <path d="M0 0L48 0L48 48L0 48L0 0Z" id="Background" fill="#FFFFFF" fill-opacity="0" fill-rule="evenodd" stroke="none" />
    <g clip-path="url(#mask_1)">
      <path d="M39 16L39 41C39 42.105 38.105 43 37 43L11 43C9.895 43 9 42.105 9 41L9 7C9 5.895 9.895 5 11 5L28 5L39 16L39 16Z" id="Shape" fill="#50E6FF" fill-rule="evenodd" stroke="none" />
      <path d="M28 5L28 14C28 15.105 28.895 16 30 16L39 16L28 5L28 5Z" id="Shape" fill="url(#gradient_1)" fill-rule="evenodd" stroke="none" />
    </g>
  </g>
  <g id="Link-Icon" transform="translate(9.5 15)">
    <path d="M0 0L29 0L29 29L0 29L0 0Z" id="Background" fill="#FFFFFF" fill-opacity="0" fill-rule="evenodd" stroke="none" />
    <path d="M4.70162 24.2984C6.94308 26.5398 10.5771 26.5398 12.8186 24.2984C13.8656 23.2514 16.0007 21.1162 17.0478 20.0692C19.2892 17.8278 19.2892 14.1937 17.0478 11.9522C14.8063 9.71078 11.1722 9.71078 8.93079 11.9522C7.88377 12.9993 5.74864 15.1344 4.70162 16.1814C2.46077 18.4223 2.46077 22.0569 4.70162 24.2984L4.70162 24.2984ZM6.83795 18.3171C7.4542 17.7009 10.6061 14.549 11.0671 14.088C12.1286 13.0265 13.8505 13.0265 14.912 14.088C15.9736 15.1495 15.9736 16.8714 14.912 17.9329C14.4511 18.3939 11.2991 21.5458 10.6829 22.1621C9.62135 23.2236 7.89948 23.2236 6.83796 22.1621C5.77643 21.1005 5.77643 19.3787 6.83795 18.3171L6.83795 18.3171Z" id="Shape" fill="#0078D4" fill-rule="evenodd" stroke="none" />
    <path d="M14.2638 13.5992C14.2638 13.5992 13.8958 12.6875 14.729 11.7075L15.5561 10.8798C13.6439 9.92344 11.3136 10.1035 9.55912 11.4163C9.0625 13.2917 9.78568 15.3694 9.78568 15.3694C10.414 14.7411 10.9167 14.2384 11.0671 14.088C11.9371 13.2186 13.2016 13.0579 14.2638 13.5992L14.2638 13.5992Z" id="Shape" fill="#000000" fill-opacity="0.05" stroke="none" />
    <path d="M13.7913 13.4083C13.7418 13.0071 13.6838 12.1854 14.4088 11.3873C14.4511 11.345 14.9646 10.8194 15.0993 10.6847C13.5031 10.0147 11.6622 10.1434 10.15 11.0291C9.63707 12.5866 9.95848 14.3653 10.15 15.0057C10.5989 14.5568 10.9499 14.2058 11.0677 14.088C11.8103 13.3448 12.841 13.1189 13.7913 13.4083L13.7913 13.4083Z" id="Shape" fill="#000000" fill-opacity="0.07" stroke="none" />
    <path d="M24.2984 4.70162C22.0569 2.46016 18.4229 2.46016 16.1814 4.70162C15.1344 5.74864 12.9993 7.88376 11.9522 8.93078C9.71078 11.1722 9.71078 14.8063 11.9522 17.0478C14.1937 19.2892 17.8278 19.2892 20.0692 17.0478C21.1162 16.0007 23.2514 13.8656 24.2984 12.8186C26.5392 10.5777 26.5392 6.94308 24.2984 4.70162L24.2984 4.70162ZM22.1621 10.6829C21.5458 11.2991 18.3939 14.4511 17.9329 14.912C16.8714 15.9736 15.1495 15.9736 14.088 14.912C13.0265 13.8505 13.0265 12.1286 14.088 11.0671C14.549 10.6061 17.7009 7.45421 18.3171 6.83795C19.3787 5.77643 21.1005 5.77643 22.1621 6.83795C23.2236 7.89948 23.2236 9.62135 22.1621 10.6829L22.1621 10.6829Z" id="Shape" fill="#1B9DE2" fill-rule="evenodd" stroke="none" />
    <path d="M14.7332 15.3918C14.7332 15.3918 15.1042 16.3125 14.271 17.2925L13.4439 18.1202C15.3561 19.0766 17.6864 18.8965 19.4409 17.5837C19.9375 15.7083 19.2143 13.6306 19.2143 13.6306C18.586 14.2589 18.0833 14.7616 17.9329 14.912C17.0629 15.7814 15.7627 15.947 14.7332 15.3918L14.7332 15.3918Z" id="Shape" fill="#000000" fill-opacity="0.05" stroke="none" />
    <path d="M15.2177 15.5911C15.2673 15.9923 15.3162 16.8146 14.5912 17.6127C14.5489 17.655 14.0354 18.1685 13.9007 18.3032C15.4969 18.9732 17.3553 18.8452 18.8524 17.9238C19.3653 16.3663 19.0421 14.6341 18.85 13.9943C18.4011 14.4432 18.0501 14.7942 17.9323 14.912C17.1897 15.6552 16.1149 15.8721 15.2177 15.5911L15.2177 15.5911Z" id="Shape" fill="#000000" fill-opacity="0.07" stroke="none" />
    <path d="M14.912 14.0879C15.9736 15.1495 15.9736 16.8713 14.912 17.9329C14.4511 18.3938 11.2991 21.5458 10.6829 22.162L12.8192 24.2984C13.8662 23.2513 16.0014 21.1162 17.0484 20.0692C19.2898 17.8277 19.2898 14.1937 17.0484 11.9522L14.912 14.0879L14.912 14.0879Z" id="Shape" fill="#0078D4" stroke="none" />
  </g>
</svg>