<?xml version="1.0" encoding="utf-8"?>
<svg width="48px" height="48px" viewBox="0 0 48 48" version="1.1" xmlns:xlink="http://www.w3.org/1999/xlink" xmlns="http://www.w3.org/2000/svg">
  <defs>
    <path d="M0 0L48 0L48 48L0 48L0 0Z" id="path_1" />
    <clipPath id="clip_1">
      <use xlink:href="#path_1" />
    </clipPath>
  </defs>
  <g id="Link" clip-path="url(#clip_1)">
    <path d="M0 0L48 0L48 48L0 48L0 0Z" id="Link" fill="none" fill-rule="evenodd" stroke="none" />
    <path d="M7.782 40.218C11.492 43.928 17.507 43.928 21.217 40.218C22.95 38.485 26.484 34.951 28.217 33.218C31.927 29.508 31.927 23.493 28.217 19.783C24.507 16.073 18.492 16.073 14.782 19.783C13.049 21.516 9.515 25.05 7.782 26.783C4.073 30.492 4.073 36.508 7.782 40.218L7.782 40.218ZM11.318 30.318C12.338 29.298 17.555 24.081 18.318 23.318C20.075 21.561 22.925 21.561 24.682 23.318C26.439 25.075 26.439 27.925 24.682 29.682C23.919 30.445 18.702 35.662 17.682 36.682C15.925 38.439 13.075 38.439 11.318 36.682C9.561 34.925 9.561 32.075 11.318 30.318L11.318 30.318Z" id="Shape" fill="#0078D4" fill-rule="evenodd" stroke="none" />
    <path d="M23.609 22.509C23.609 22.509 23 21 24.379 19.378L25.748 18.008C22.583 16.425 18.726 16.723 15.822 18.896C15 22 16.197 25.439 16.197 25.439C17.237 24.399 18.069 23.567 18.318 23.318C19.758 21.879 21.851 21.613 23.609 22.509L23.609 22.509Z" id="Shape" fill="#000000" fill-opacity="0.05" stroke="none" />
    <path d="M22.827 22.193C22.745 21.529 22.649 20.169 23.849 18.848C23.919 18.778 24.769 17.908 24.992 17.685C22.35 16.576 19.303 16.789 16.8 18.255C15.951 20.833 16.483 23.777 16.8 24.837C17.543 24.094 18.124 23.513 18.319 23.318C19.548 22.088 21.254 21.714 22.827 22.193L22.827 22.193Z" id="Shape" fill="#000000" fill-opacity="0.07" stroke="none" />
    <path d="M40.218 7.782C36.508 4.072 30.493 4.072 26.783 7.782C25.05 9.515 21.516 13.049 19.783 14.782C16.073 18.492 16.073 24.507 19.783 28.217C23.493 31.927 29.508 31.927 33.218 28.217C34.951 26.484 38.485 22.95 40.218 21.217C43.927 17.508 43.927 11.492 40.218 7.782L40.218 7.782ZM36.682 17.682C35.662 18.702 30.445 23.919 29.682 24.682C27.925 26.439 25.075 26.439 23.318 24.682C21.561 22.925 21.561 20.075 23.318 18.318C24.081 17.555 29.298 12.338 30.318 11.318C32.075 9.561 34.925 9.561 36.682 11.318C38.439 13.075 38.439 15.925 36.682 17.682L36.682 17.682Z" id="Shape" fill="#1B9DE2" fill-rule="evenodd" stroke="none" />
    <path d="M24.386 25.476C24.386 25.476 25 27 23.621 28.622L22.252 29.992C25.417 31.575 29.274 31.277 32.178 29.104C33 26 31.803 22.561 31.803 22.561C30.763 23.601 29.931 24.433 29.682 24.682C28.242 26.121 26.09 26.395 24.386 25.476L24.386 25.476Z" id="Shape" fill="#000000" fill-opacity="0.05" stroke="none" />
    <path d="M25.188 25.806C25.27 26.47 25.351 27.831 24.151 29.152C24.081 29.222 23.231 30.072 23.008 30.295C25.65 31.404 28.726 31.192 31.204 29.667C32.053 27.089 31.518 24.222 31.2 23.163C30.457 23.906 29.876 24.487 29.681 24.682C28.452 25.912 26.673 26.271 25.188 25.806L25.188 25.806Z" id="Shape" fill="#000000" fill-opacity="0.07" stroke="none" />
    <path d="M24.682 23.318C26.439 25.075 26.439 27.925 24.682 29.682C23.919 30.445 18.702 35.662 17.682 36.682L21.218 40.218C22.951 38.485 26.485 34.951 28.218 33.218C31.928 29.508 31.928 23.493 28.218 19.783L24.682 23.318L24.682 23.318Z" id="Shape" fill="#0078D4" stroke="none" />
  </g>
</svg>