<?xml version="1.0" encoding="utf-8"?>
<svg width="48px" height="48px" viewBox="0 0 48 48" version="1.1" xmlns:xlink="http://www.w3.org/1999/xlink" xmlns="http://www.w3.org/2000/svg">
  <defs>
    <linearGradient gradientUnits="userSpaceOnUse" x1="0.5290003" y1="10.472" x2="5.6" y2="5.3999996" id="gradient_1">
      <stop offset="0%" stop-color="#3079D6" />
      <stop offset="100%" stop-color="#297CD2" />
    </linearGradient>
    <linearGradient gradientUnits="userSpaceOnUse" x1="1.1250017" y1="8.801437" x2="1.1250017" y2="-0.1665" id="gradient_2">
      <stop offset="0%" stop-color="#92A3B0" />
      <stop offset="1.5%" stop-color="#A3B5C4" />
      <stop offset="3.2%" stop-color="#AEC2D1" />
      <stop offset="4.5999994%" stop-color="#B2C6D6" />
    </linearGradient>
    <linearGradient gradientUnits="userSpaceOnUse" x1="-10.125" y1="-9.352687" x2="-10.125" y2="-13.975311" id="gradient_3">
      <stop offset="0%" stop-color="#4B4B4B" />
      <stop offset="100%" stop-color="#3B3B3B" />
    </linearGradient>
    <path d="M0 0L48 0L48 48L0 48L0 0Z" id="path_1" />
    <clipPath id="mask_1">
      <use xlink:href="#path_1" />
    </clipPath>
  </defs>
  <g id="File-Icon-2">
    <path d="M0 0L48 0L48 48L0 48L0 0Z" id="Background" fill="#FFFFFF" fill-opacity="0" fill-rule="evenodd" stroke="none" />
    <g clip-path="url(#mask_1)">
      <path d="M39 16L39 41C39 42.105 38.105 43 37 43L11 43C9.895 43 9 42.105 9 41L9 7C9 5.895 9.895 5 11 5L28 5L39 16L39 16Z" id="Shape" fill="#50E6FF" fill-rule="evenodd" stroke="none" />
      <path d="M28 5L28 14C28 15.105 28.895 16 30 16L39 16L28 5L28 5Z" id="Shape" fill="url(#gradient_1)" fill-rule="evenodd" stroke="none" />
    </g>
  </g>
  <g id="svg" transform="translate(10 16)">
    <g id="Lock-Icon">
      <path d="M0 0L27 0L27 27L0 27L0 0L0 0Z" id="Background" fill="#FFFFFF" fill-opacity="0" fill-rule="evenodd" stroke="none" />
      <path d="M24.75 20.8125L2.24998 20.8125L2.24998 23.625C2.24998 24.2465 2.75342 24.75 3.37498 24.75L23.625 24.75C24.2465 24.75 24.75 24.2465 24.75 23.625L24.75 20.8125L24.75 20.8125L24.75 20.8125Z" id="Shape" fill="#C48C00" stroke="none" />
      <path d="M6.18752 7.3125L6.18752 9L8.43752 9L8.43752 7.3125C8.43752 4.51631 10.7038 2.25 13.5 2.25L13.5 2.25C16.2962 2.25 18.5625 4.51631 18.5625 7.3125L18.5625 9L20.8125 9L20.8125 7.3125C20.8125 3.27375 17.5388 0 13.5 0L13.5 0C9.46127 0 6.18752 3.27375 6.18752 7.3125L6.18752 7.3125L6.18752 7.3125Z" id="Shape#1" fill="url(#gradient_2)" stroke="none" />
      <path d="M24.75 12.9375L2.24998 12.9375L2.24998 10.125C2.24998 9.50342 2.75342 8.99998 3.37498 8.99998L23.625 8.99998C24.2465 8.99998 24.75 9.50342 24.75 10.125L24.75 12.9375L24.75 12.9375L24.75 12.9375Z" id="Shape#2" fill="#FAD500" stroke="none" />
      <path d="M2.24998 12.9375L24.75 12.9375L24.75 16.875L2.24998 16.875L2.24998 12.9375L2.24998 12.9375Z" id="Rectangle" fill="#EDBE00" fill-rule="evenodd" stroke="none" />
      <path d="M2.24998 16.875L24.75 16.875L24.75 20.8125L2.24998 20.8125L2.24998 16.875L2.24998 16.875Z" id="Rectangle#1" fill="#E3A600" fill-rule="evenodd" stroke="none" />
      <path d="M15.1875 16.3125C15.1875 15.3805 14.4321 14.625 13.5 14.625C12.5679 14.625 11.8125 15.3805 11.8125 16.3125C11.8125 17.046 12.2833 17.6642 12.9375 17.8965L12.9375 19.6875C12.9375 19.998 13.1895 20.25 13.5 20.25C13.8105 20.25 14.0625 19.998 14.0625 19.6875L14.0625 17.8965C14.7167 17.6642 15.1875 17.046 15.1875 16.3125L15.1875 16.3125L15.1875 16.3125Z" id="Shape#3" fill="url(#gradient_3)" stroke="none" />
    </g>
  </g>
</svg>