<?xml version="1.0" encoding="utf-8"?>
<svg width="48px" height="48px" viewBox="0 0 48 48" version="1.1" xmlns:xlink="http://www.w3.org/1999/xlink" xmlns="http://www.w3.org/2000/svg">
  <defs>
    <linearGradient gradientUnits="userSpaceOnUse" x1="2.4240003" y1="-0.26699996" x2="3.5760005" y2="6.2670007" id="gradient_1">
      <stop offset="0%" stop-color="#3079D6" />
      <stop offset="100%" stop-color="#297CD2" />
    </linearGradient>
    <linearGradient gradientUnits="userSpaceOnUse" x1="2.4240003" y1="-0.26700068" x2="3.5760005" y2="6.2670007" id="gradient_2">
      <stop offset="0%" stop-color="#3079D6" />
      <stop offset="100%" stop-color="#297CD2" />
    </linearGradient>
    <linearGradient gradientUnits="userSpaceOnUse" x1="2.4240003" y1="-0.26699924" x2="3.5760005" y2="6.2669992" id="gradient_3">
      <stop offset="0%" stop-color="#3079D6" />
      <stop offset="100%" stop-color="#297CD2" />
    </linearGradient>
    <linearGradient gradientUnits="userSpaceOnUse" x1="2.4240003" y1="-0.26699638" x2="3.5760005" y2="6.2669992" id="gradient_4">
      <stop offset="0%" stop-color="#3079D6" />
      <stop offset="100%" stop-color="#297CD2" />
    </linearGradient>
    <linearGradient gradientUnits="userSpaceOnUse" x1="13.000002" y1="0" x2="13.000002" y2="4" id="gradient_5">
      <stop offset="0%" stop-color="#28AFEA" />
      <stop offset="100%" stop-color="#0B88DA" />
    </linearGradient>
    <path d="M0 0L48 0L48 48L0 48L0 0Z" id="path_1" />
    <clipPath id="mask_1">
      <use xlink:href="#path_1" />
    </clipPath>
  </defs>
  <g id="Index-Icon">
    <path d="M0 0L48 0L48 48L0 48L0 0Z" id="Background" fill="#FFFFFF" fill-opacity="0" fill-rule="evenodd" stroke="none" />
    <path d="M7 6L11 6C11.552 6 12 6.448 12 7L12 11C12 11.552 11.552 12 11 12L7 12C6.448 12 6 11.552 6 11L6 7C6 6.448 6.448 6 7 6L7 6Z" id="Shape" fill="url(#gradient_1)" stroke="none" />
    <path d="M7 16L11 16C11.552 16 12 16.448 12 17L12 21C12 21.552 11.552 22 11 22L7 22C6.448 22 6 21.552 6 21L6 17C6 16.448 6.448 16 7 16L7 16Z" id="Shape" fill="url(#gradient_2)" stroke="none" />
    <path d="M7 26L11 26C11.552 26 12 26.448 12 27L12 31C12 31.552 11.552 32 11 32L7 32C6.448 32 6 31.552 6 31L6 27C6 26.448 6.448 26 7 26L7 26Z" id="Shape" fill="url(#gradient_3)" stroke="none" />
    <path d="M7 36L11 36C11.552 36 12 36.448 12 37L12 41C12 41.552 11.552 42 11 42L7 42C6.448 42 6 41.552 6 41L6 37C6 36.448 6.448 36 7 36L7 36Z" id="Shape" fill="url(#gradient_4)" stroke="none" />
    <path d="M17 17L41 17C41.552 17 42 17.448 42 18L42 20C42 20.552 41.552 21 41 21L17 21C16.448 21 16 20.552 16 20L16 18C16 17.448 16.448 17 17 17L17 17Z" id="Shape" fill="url(#gradient_5)" stroke="none" />
    <path d="M17 27L41 27C41.552 27 42 27.448 42 28L42 30C42 30.552 41.552 31 41 31L17 31C16.448 31 16 30.552 16 30L16 28C16 27.448 16.448 27 17 27L17 27Z" id="Shape" fill="url(#gradient_5)" stroke="none" />
    <path d="M17 37L41 37C41.552 37 42 37.448 42 38L42 40C42 40.552 41.552 41 41 41L17 41C16.448 41 16 40.552 16 40L16 38C16 37.448 16.448 37 17 37L17 37Z" id="Shape" fill="url(#gradient_5)" stroke="none" />
    <path d="M17 7L41 7C41.552 7 42 7.448 42 8L42 10C42 10.552 41.552 11 41 11L17 11C16.448 11 16 10.552 16 10L16 8C16 7.448 16.448 7 17 7L17 7Z" id="Shape" fill="url(#gradient_5)" stroke="none" />
  </g>
</svg>