<?xml version="1.0" encoding="utf-8"?>
<svg width="48px" height="48px" viewBox="0 0 48 48" version="1.1" xmlns:xlink="http://www.w3.org/1999/xlink" xmlns="http://www.w3.org/2000/svg">
  <defs>
    <linearGradient gradientUnits="userSpaceOnUse" x1="0" y1="2.5" x2="5" y2="2.5" id="gradient_1">
      <stop offset="0%" stop-color="#C965EB" />
      <stop offset="100%" stop-color="#C767E5" />
    </linearGradient>
    <linearGradient gradientUnits="userSpaceOnUse" x1="-0.0010004315" y1="2.9046874" x2="4.0670004" y2="2.9046874" id="gradient_2">
      <stop offset="0%" stop-color="#AE4CD5" />
      <stop offset="100%" stop-color="#AC4AD5" />
    </linearGradient>
    <path d="M0 0L48 0L48 48L0 48L0 0Z" id="path_1" />
    <clipPath id="mask_1">
      <use xlink:href="#path_1" />
    </clipPath>
  </defs>
  <g id="Waypoint-Map-Icon">
    <path d="M0 0L48 0L48 48L0 48L0 0Z" id="Background" fill="#FFFFFF" fill-opacity="0" fill-rule="evenodd" stroke="none" />
    <path d="M40 43L22 43L22 7L40 7C41.105 7 42 7.895 42 9L42 41C42 42.105 41.105 43 40 43L40 43Z" id="Shape" fill="#35C1F1" stroke="none" />
    <path d="M14.447 3.224C14.306 3.153 14.153 3.118 14 3.118L14 39.118C14.153 39.118 14.306 39.153 14.447 39.224L22 43L22 7L14.447 3.224L14.447 3.224Z" id="Shape" fill="#199BE2" stroke="none" />
    <path d="M13.553 3.224L7.106 6.447C6.428 6.786 6 7.479 6 8.236L6 41.382C6 42.125 6.782 42.609 7.447 42.276L13.553 39.223C13.694 39.153 13.847 39.117 14 39.117L14 3.117C13.847 3.118 13.694 3.153 13.553 3.224L13.553 3.224Z" id="Shape" fill="#50E6FF" stroke="none" />
    <path d="M29 17C32.859 17 36 20.141 36 24C36 27.859 32.859 31 29 31L26 31C25.447 31 25 31.447 25 32C25 32.553 25.447 33 26 33L29 33C33.963 33 38 28.963 38 24C38 19.037 33.963 15 29 15L22.236 15L22 14.882L22 17L29 17L29 17Z" id="Shape" fill="#1A7ECF" stroke="none" />
    <path d="M14 13.118L21.764 17L22 17L22 14.882L14 10.882L14 13.118Z" id="Polygon" fill="#235199" fill-rule="evenodd" stroke="none" />
    <path d="M34.5 24C34.5 22.6193 35.6193 21.5 37 21.5C38.3807 21.5 39.5 22.6193 39.5 24C39.5 25.3807 38.3807 26.5 37 26.5C35.6193 26.5 34.5 25.3807 34.5 24Z" id="Circle" fill="url(#gradient_1)" fill-rule="evenodd" stroke="none" />
    <path d="M23.5 32C23.5 30.6193 24.6193 29.5 26 29.5C27.3807 29.5 28.5 30.6193 28.5 32C28.5 33.3807 27.3807 34.5 26 34.5C24.6193 34.5 23.5 33.3807 23.5 32Z" id="Circle" fill="url(#gradient_1)" fill-rule="evenodd" stroke="none" />
    <path d="M20.533 15.273C20.533 16.77 19.623 17.519 18.5 16.946C17.377 16.373 16.467 14.694 16.467 13.196C16.467 11.698 17.377 10.95 18.5 11.523C19.623 12.096 20.533 13.776 20.533 15.273L20.533 15.273Z" id="Shape" fill="url(#gradient_2)" stroke="none" />
    <path d="M8 13.885L8 16.122L14 13.118L14 10.882L8 13.885Z" id="Polygon" fill="#199BE2" fill-rule="evenodd" stroke="none" />
  </g>
</svg>