<?xml version="1.0" encoding="utf-8"?>
<svg width="48px" height="48px" viewBox="0 0 48 48" version="1.1" xmlns:xlink="http://www.w3.org/1999/xlink" xmlns="http://www.w3.org/2000/svg">
  <defs>
    <linearGradient gradientUnits="userSpaceOnUse" x1="0.5290003" y1="10.472" x2="5.6" y2="5.3999996" id="gradient_1">
      <stop offset="0%" stop-color="#3079D6" />
      <stop offset="100%" stop-color="#297CD2" />
    </linearGradient>
    <linearGradient gradientUnits="userSpaceOnUse" x1="0.16683334" y1="-8.24525" x2="22.893541" y2="6.3564587" id="gradient_2">
      <stop offset="0%" stop-color="#6E6E6E" />
      <stop offset="99.9%" stop-color="#4D4D4D" />
    </linearGradient>
    <path d="M0 0L48 0L48 48L0 48L0 0Z" id="path_1" />
    <clipPath id="mask_1">
      <use xlink:href="#path_1" />
    </clipPath>
  </defs>
  <g id="File-Icon-2">
    <path d="M0 0L48 0L48 48L0 48L0 0Z" id="Background" fill="#FFFFFF" fill-opacity="0" fill-rule="evenodd" stroke="none" />
    <g clip-path="url(#mask_1)">
      <path d="M39 16L39 41C39 42.105 38.105 43 37 43L11 43C9.895 43 9 42.105 9 41L9 7C9 5.895 9.895 5 11 5L28 5L39 16L39 16Z" id="Shape" fill="#50E6FF" fill-rule="evenodd" stroke="none" />
      <path d="M28 5L28 14C28 15.105 28.895 16 30 16L39 16L28 5L28 5Z" id="Shape" fill="url(#gradient_1)" fill-rule="evenodd" stroke="none" />
    </g>
  </g>
  <g id="svg" transform="translate(11 15)">
    <g id="Markdown-Icon">
      <path d="M0 0L26 0L26 26L0 26L0 0L0 0Z" id="Background" fill="#FFFFFF" fill-opacity="0" fill-rule="evenodd" stroke="none" />
      <path d="M24.8083 19.5L1.19167 19.5C0.541667 19.5 0 18.9583 0 18.3083L0 7.69167C0 7.04167 0.541667 6.5 1.19167 6.5L24.8083 6.5C25.4583 6.5 26 7.04167 26 7.69167L26 18.3083C26 18.9583 25.4583 19.5 24.8083 19.5L24.8083 19.5L24.8083 19.5Z" id="Shape" fill="url(#gradient_2)" stroke="none" />
      <path d="M18.4167 17.2792C18.2 17.2792 17.9292 17.1708 17.7667 17.0083L15.1125 13.8125C14.8958 13.5417 14.8417 13.2167 15.0042 12.9458C15.1667 12.675 15.4375 12.4583 15.7625 12.4583L16.7917 12.4583L16.7917 9.47917C16.7917 9.04583 17.1708 8.66667 17.6042 8.66667L19.2292 8.66667C19.6625 8.66667 20.0417 9.04583 20.0417 9.47917L20.0417 12.4583L21.0708 12.4583C21.3958 12.4583 21.6667 12.6208 21.8292 12.9458C21.9917 13.2708 21.9375 13.5417 21.7208 13.8125L19.0667 17.0083C18.9042 17.1708 18.6333 17.2792 18.4167 17.2792L18.4167 17.2792L18.4167 17.2792Z" id="Shape#1" fill="#000000" fill-opacity="0.050980393" stroke="none" />
      <path d="M18.4167 17.0083C18.2542 17.0083 18.0917 16.9542 17.9833 16.7917L15.3292 13.5958C15.1667 13.4333 15.1667 13.2167 15.275 13C15.3833 12.7833 15.5458 12.675 15.7625 12.675L17.0625 12.675L17.0625 9.42501C17.0625 9.10001 17.2792 8.88334 17.6042 8.88334L19.2292 8.88334C19.5542 8.88334 19.7708 9.10001 19.7708 9.42501L19.7708 12.675L21.0708 12.675C21.2875 12.675 21.45 12.7833 21.5583 13C21.6667 13.2167 21.6125 13.4333 21.5042 13.5958L18.85 16.7917C18.7417 16.9542 18.5792 17.0083 18.4167 17.0083L18.4167 17.0083L18.4167 17.0083Z" id="Shape#2" fill="#000000" fill-opacity="0.07058824" stroke="none" />
      <path d="M17.3333 9.47917L17.3333 13L15.7625 13C15.5458 13 15.3833 13.2708 15.5458 13.4333L18.2 16.6292C18.3083 16.7375 18.525 16.7375 18.6333 16.6292L21.2875 13.4333C21.45 13.2708 21.2875 13 21.0708 13L19.5 13L19.5 9.47917C19.5 9.31667 19.3917 9.20833 19.2292 9.20833L17.6042 9.20833C17.4417 9.20833 17.3333 9.31667 17.3333 9.47917L17.3333 9.47917L17.3333 9.47917Z" id="Shape#3" fill="#FFFFFF" stroke="none" />
      <path d="M11.1042 17.3333C10.6708 17.3333 10.2917 16.9542 10.2917 16.5208L10.2917 14.0292L9.31667 15.275C9.15417 15.4917 8.9375 15.6 8.66667 15.6C8.39583 15.6 8.17917 15.4917 8.01667 15.275L7.04167 14.0292L7.04167 16.5208C7.04167 16.9542 6.6625 17.3333 6.22917 17.3333L4.60417 17.3333C4.17083 17.3333 3.79167 16.9542 3.79167 16.5208L3.79167 9.47917C3.79167 9.04583 4.17083 8.66667 4.60417 8.66667L6.39167 8.66667C6.6625 8.66667 6.87917 8.775 7.04167 8.99167L8.72083 11.1042L10.4 8.99167C10.5625 8.775 10.7792 8.66667 11.05 8.66667L12.8375 8.66667C13.2708 8.66667 13.65 9.04583 13.65 9.47917L13.65 16.5208C13.65 16.9542 13.2708 17.3333 12.8375 17.3333L11.1042 17.3333L11.1042 17.3333L11.1042 17.3333Z" id="Shape#4" fill="#000000" fill-opacity="0.050980393" stroke="none" />
      <path d="M11.1042 17.0625C10.7792 17.0625 10.5625 16.8458 10.5625 16.5208L10.5625 13.2167L9.1 15.1125C8.99167 15.2208 8.82917 15.3292 8.66667 15.3292C8.50417 15.3292 8.34167 15.275 8.23333 15.1125L6.77083 13.2167L6.77083 16.5208C6.77083 16.8458 6.55417 17.0625 6.22917 17.0625L4.60417 17.0625C4.27917 17.0625 4.0625 16.8458 4.0625 16.5208L4.0625 9.47917C4.0625 9.15417 4.27917 8.9375 4.60417 8.9375L6.39167 8.9375C6.55417 8.9375 6.71667 8.99167 6.825 9.15417L8.72083 11.5375L10.6167 9.15417C10.725 9.04583 10.8875 8.9375 11.05 8.9375L12.8375 8.9375C13.1625 8.9375 13.3792 9.15417 13.3792 9.47917L13.3792 16.5208C13.3792 16.8458 13.1625 17.0625 12.8375 17.0625L11.1042 17.0625L11.1042 17.0625L11.1042 17.0625Z" id="Shape#5" fill="#000000" fill-opacity="0.07058824" stroke="none" />
      <path d="M13 16.5208L13 9.47917C13 9.31667 12.8917 9.20833 12.7292 9.20833L10.9417 9.20833C10.8333 9.20833 10.7792 9.2625 10.725 9.31667L8.66667 12.025L6.60833 9.31667C6.55417 9.2625 6.5 9.20833 6.39167 9.20833L4.60417 9.20833C4.44167 9.20833 4.33333 9.31667 4.33333 9.47917L4.33333 16.5208C4.33333 16.6833 4.44167 16.7917 4.60417 16.7917L6.22917 16.7917C6.39167 16.7917 6.5 16.6833 6.5 16.5208L6.5 12.4583L8.45 14.95C8.55833 15.1125 8.775 15.1125 8.88333 14.95L10.8333 12.4583L10.8333 16.5208C10.8333 16.6833 10.9417 16.7917 11.1042 16.7917L12.7292 16.7917C12.8917 16.7917 13 16.6833 13 16.5208L13 16.5208L13 16.5208Z" id="Shape#6" fill="#FFFFFF" stroke="none" />
    </g>
  </g>
</svg>