<?xml version="1.0" encoding="utf-8"?>
<svg width="48px" height="48px" viewBox="0 0 48 48" version="1.1" xmlns:xlink="http://www.w3.org/1999/xlink" xmlns="http://www.w3.org/2000/svg">
  <defs>
    <linearGradient gradientUnits="userSpaceOnUse" x1="0.308" y1="-3.2219996" x2="42.265" y2="23.735" id="gradient_1">
      <stop offset="0%" stop-color="#6E6E6E" />
      <stop offset="99.9%" stop-color="#4D4D4D" />
    </linearGradient>
    <path d="M0 0L48 0L48 48L0 48L0 0Z" id="path_1" />
    <clipPath id="mask_1">
      <use xlink:href="#path_1" />
    </clipPath>
  </defs>
  <g id="Markdown-Icon">
    <path d="M0 0L48 0L48 48L0 48L0 0Z" id="Background" fill="#FFFFFF" fill-opacity="0" fill-rule="evenodd" stroke="none" />
    <path d="M45.8 36L2.2 36C1 36 0 35 0 33.8L0 14.2C0 13 1 12 2.2 12L45.8 12C47 12 48 13 48 14.2L48 33.8C48 35 47 36 45.8 36L45.8 36Z" id="Shape" fill="url(#gradient_1)" stroke="none" />
    <path d="M34 31.9C33.6 31.9 33.1 31.7 32.8 31.4L27.9 25.5C27.5 25 27.4 24.4 27.7 23.9C28 23.4 28.5 23 29.1 23L31 23L31 17.5C31 16.7 31.7 16 32.5 16L35.5 16C36.3 16 37 16.7 37 17.5L37 23L38.9 23C39.5 23 40 23.3 40.3 23.9C40.6 24.5 40.5 25 40.1 25.5L35.2 31.4C34.9 31.7 34.4 31.9 34 31.9L34 31.9Z" id="Shape" fill="#000000" fill-opacity="0.05" stroke="none" />
    <path d="M34 31.4C33.7 31.4 33.4 31.3 33.2 31L28.3 25.1C28 24.8 28 24.4 28.2 24C28.4 23.6 28.7 23.4 29.1 23.4L31.5 23.4L31.5 17.4C31.5 16.8 31.9 16.4 32.5 16.4L35.5 16.4C36.1 16.4 36.5 16.8 36.5 17.4L36.5 23.4L38.9 23.4C39.3 23.4 39.6 23.6 39.8 24C40 24.4 39.9 24.8 39.7 25.1L34.8 31C34.6 31.3 34.3 31.4 34 31.4L34 31.4Z" id="Shape" fill="#000000" fill-opacity="0.07" stroke="none" />
    <path d="M32 17.5L32 24L29.1 24C28.7 24 28.4 24.5 28.7 24.8L33.6 30.7C33.8 30.9 34.2 30.9 34.4 30.7L39.3 24.8C39.6 24.5 39.3 24 38.9 24L36 24L36 17.5C36 17.2 35.8 17 35.5 17L32.5 17C32.2 17 32 17.2 32 17.5L32 17.5Z" id="Shape" fill="#FFFFFF" stroke="none" />
    <path d="M20.5 32C19.7 32 19 31.3 19 30.5L19 25.9L17.2 28.2C16.9 28.6 16.5 28.8 16 28.8C15.5 28.8 15.1 28.6 14.8 28.2L13 25.9L13 30.5C13 31.3 12.3 32 11.5 32L8.5 32C7.7 32 7 31.3 7 30.5L7 17.5C7 16.7 7.7 16 8.5 16L11.8 16C12.3 16 12.7 16.2 13 16.6L16.1 20.5L19.2 16.6C19.5 16.2 19.9 16 20.4 16L23.7 16C24.5 16 25.2 16.7 25.2 17.5L25.2 30.5C25.2 31.3 24.5 32 23.7 32L20.5 32L20.5 32Z" id="Shape" fill="#000000" fill-opacity="0.05" stroke="none" />
    <path d="M20.5 31.5C19.9 31.5 19.5 31.1 19.5 30.5L19.5 24.4L16.8 27.9C16.6 28.1 16.3 28.3 16 28.3C15.7 28.3 15.4 28.2 15.2 27.9L12.5 24.4L12.5 30.5C12.5 31.1 12.1 31.5 11.5 31.5L8.5 31.5C7.9 31.5 7.5 31.1 7.5 30.5L7.5 17.5C7.5 16.9 7.9 16.5 8.5 16.5L11.8 16.5C12.1 16.5 12.4 16.6 12.6 16.9L16.1 21.3L19.6 16.9C19.8 16.7 20.1 16.5 20.4 16.5L23.7 16.5C24.3 16.5 24.7 16.9 24.7 17.5L24.7 30.5C24.7 31.1 24.3 31.5 23.7 31.5L20.5 31.5L20.5 31.5Z" id="Shape" fill="#000000" fill-opacity="0.07" stroke="none" />
    <path d="M24 30.5L24 17.5C24 17.2 23.8 17 23.5 17L20.2 17C20 17 19.9 17.1 19.8 17.2L16 22.2L12.2 17.2C12.1 17.1 12 17 11.8 17L8.5 17C8.2 17 8 17.2 8 17.5L8 30.5C8 30.8 8.2 31 8.5 31L11.5 31C11.8 31 12 30.8 12 30.5L12 23L15.6 27.6C15.8 27.9 16.2 27.9 16.4 27.6L20 23L20 30.5C20 30.8 20.2 31 20.5 31L23.5 31C23.8 31 24 30.8 24 30.5L24 30.5Z" id="Shape" fill="#FFFFFF" stroke="none" />
  </g>
</svg>