<?xml version="1.0" encoding="utf-8"?>
<svg width="48px" height="48px" viewBox="0 0 48 48" version="1.1" xmlns:xlink="http://www.w3.org/1999/xlink" xmlns="http://www.w3.org/2000/svg">
  <defs>
    <linearGradient gradientUnits="userSpaceOnUse" x1="0.5290003" y1="10.472" x2="5.6" y2="5.3999996" id="gradient_1">
      <stop offset="0%" stop-color="#3079D6" />
      <stop offset="100%" stop-color="#297CD2" />
    </linearGradient>
    <linearGradient gradientUnits="userSpaceOnUse" x1="-2.0626247" y1="-8.104291" x2="9.088479" y2="3.046813" id="gradient_2">
      <stop offset="0%" stop-color="#BB273D" />
      <stop offset="100%" stop-color="#9F1728" />
    </linearGradient>
    <path d="M0 0L48 0L48 48L0 48L0 0Z" id="path_1" />
    <clipPath id="mask_1">
      <use xlink:href="#path_1" />
    </clipPath>
  </defs>
  <g id="File-Icon-2">
    <path d="M0 0L48 0L48 48L0 48L0 0Z" id="Background" fill="#FFFFFF" fill-opacity="0" fill-rule="evenodd" stroke="none" />
    <g clip-path="url(#mask_1)">
      <path d="M39 16L39 41C39 42.105 38.105 43 37 43L11 43C9.895 43 9 42.105 9 41L9 7C9 5.895 9.895 5 11 5L28 5L39 16L39 16Z" id="Shape" fill="#50E6FF" fill-rule="evenodd" stroke="none" />
      <path d="M28 5L28 14C28 15.105 28.895 16 30 16L39 16L28 5L28 5Z" id="Shape" fill="url(#gradient_1)" fill-rule="evenodd" stroke="none" />
    </g>
  </g>
  <g id="svg" transform="translate(8.5 15)">
    <g id="Microsoft-Access-2019-Icon">
      <path d="M0 0L29 0L29 29L0 29L0 0L0 0Z" id="Background" fill="#FFFFFF" fill-opacity="0" fill-rule="evenodd" stroke="none" />
      <path d="M25.375 17.5208L7.25 17.5208C7.25 17.5208 7.25 22.7511 7.25 22.9583C7.25 24.6265 11.3076 25.9792 16.3125 25.9792C21.3174 25.9792 25.375 24.6265 25.375 22.9583C25.375 22.7511 25.375 17.5208 25.375 17.5208L25.375 17.5208L25.375 17.5208Z" id="Shape" fill="#881421" stroke="none" />
      <path d="M25.375 11.4792L7.25 11.4792C7.25 11.4792 7.25 17.3136 7.25 17.5208C7.25 19.1889 11.3076 20.5417 16.3125 20.5417C21.3174 20.5417 25.375 19.1889 25.375 17.5208C25.375 17.3136 25.375 11.4792 25.375 11.4792L25.375 11.4792L25.375 11.4792Z" id="Shape#1" fill="#AF2031" stroke="none" />
      <path d="M25.375 5.7396L7.25 5.7396C7.25 5.7396 7.25 11.272 7.25 11.4792C7.25 13.1473 11.3076 14.5 16.3125 14.5C21.3174 14.5 25.375 13.1473 25.375 11.4792C25.375 11.272 25.375 5.7396 25.375 5.7396L25.375 5.7396L25.375 5.7396Z" id="Shape#2" fill="#C94F60" stroke="none" />
      <path d="M7.25 5.7396C7.25 4.23807 11.3074 3.02085 16.3125 3.02085C21.3176 3.02085 25.375 4.23807 25.375 5.7396C25.375 7.24113 21.3176 8.45835 16.3125 8.45835C11.3074 8.45835 7.25 7.24113 7.25 5.7396L7.25 5.7396Z" id="Oval" fill="#E08095" fill-rule="evenodd" stroke="none" />
      <path d="M13.4844 7.85415L7.25 7.85415L7.25 22.3542L13.4844 22.3542C14.7127 22.3542 15.7083 21.3585 15.7083 20.1302L15.7083 10.0781C15.7083 8.84982 14.7127 7.85415 13.4844 7.85415L13.4844 7.85415L13.4844 7.85415Z" id="Shape#3" fill="#000000" fill-opacity="0.050980393" stroke="none" />
      <path d="M13.4204 21.75L7.25 21.75L7.25 8.05536L13.4204 8.05536C14.4619 8.05536 15.306 8.89938 15.306 9.94096L15.306 19.8644C15.3054 20.906 14.4613 21.75 13.4204 21.75L13.4204 21.75L13.4204 21.75Z" id="Shape#4" fill="#000000" fill-opacity="0.07058824" stroke="none" />
      <path d="M13.3424 21.1507L7.23671 21.138L7.26329 8.24929L13.369 8.26198C14.2233 8.26379 14.9145 8.95798 14.9126 9.81227L14.8927 19.607C14.8909 20.4613 14.1967 21.1525 13.3424 21.1507L13.3424 21.1507L13.3424 21.1507Z" id="Shape#5" fill="#000000" fill-opacity="0.09019608" stroke="none" />
      <path d="M13.2917 20.5417L3.62499 20.5417C2.95738 20.5417 2.41665 20.001 2.41665 19.3333L2.41665 9.66668C2.41665 8.99908 2.95738 8.45835 3.62499 8.45835L13.2917 8.45835C13.9593 8.45835 14.5 8.99908 14.5 9.66668L14.5 19.3333C14.5 20.001 13.9593 20.5417 13.2917 20.5417L13.2917 20.5417L13.2917 20.5417Z" id="Shape#6" fill="url(#gradient_2)" stroke="none" />
      <path d="M7.79074 11.4822L9.15979 11.4822L11.359 17.5239L10.0654 17.5239L9.58089 16.0829L7.31828 16.0829L6.8422 17.5239L5.55774 17.5239L7.79074 11.4822L7.79074 11.4822L7.79074 11.4822ZM9.29087 15.1513L8.58702 12.9648C8.52902 12.8047 8.48552 12.6398 8.45652 12.4718L8.43114 12.4718C8.40456 12.644 8.36227 12.8132 8.30487 12.9775L7.59256 15.1513L9.29087 15.1513L9.29087 15.1513L9.29087 15.1513Z" id="Shape#7" fill="#FFFFFF" fill-rule="evenodd" stroke="none" />
    </g>
  </g>
</svg>