<?xml version="1.0" encoding="utf-8"?>
<svg width="48px" height="48px" viewBox="0 0 48 48" version="1.1" xmlns:xlink="http://www.w3.org/1999/xlink" xmlns="http://www.w3.org/2000/svg">
  <defs>
    <linearGradient gradientUnits="objectBoundingBox" x1="0.402875" y1="-0.050937504" x2="0.597125" y2="1.0509375" id="gradient_1">
      <stop offset="0%" stop-color="#199AE0" />
      <stop offset="100%" stop-color="#0782D8" />
    </linearGradient>
    <linearGradient gradientUnits="objectBoundingBox" x1="0.40287495" y1="-0.050937533" x2="0.59712505" y2="1.0509374" id="gradient_2">
      <stop offset="0%" stop-color="#21AD64" />
      <stop offset="100%" stop-color="#088242" />
    </linearGradient>
    <linearGradient gradientUnits="objectBoundingBox" x1="0.40074998" y1="-0.062999964" x2="0.60525" y2="1.09675" id="gradient_3">
      <stop offset="0%" stop-color="#A235D4" />
      <stop offset="44.100002%" stop-color="#A033D1" />
      <stop offset="70.200005%" stop-color="#982CC9" />
      <stop offset="91.5%" stop-color="#8B21BB" />
      <stop offset="100%" stop-color="#831BB3" />
    </linearGradient>
    <linearGradient gradientUnits="objectBoundingBox" x1="0.41481256" y1="0.01699999" x2="0.681375" y2="1.5285" id="gradient_4">
      <stop offset="0.2%" stop-color="#F44F78" />
      <stop offset="39.699997%" stop-color="#E4305D" />
      <stop offset="76.3%" stop-color="#D81B4A" />
      <stop offset="100%" stop-color="#D41343" />
    </linearGradient>
    <linearGradient gradientUnits="objectBoundingBox" x1="0.37194586" y1="0.02468121" x2="0.52935076" y2="1.0790033" id="gradient_5">
      <stop offset="0%" stop-color="#FEC60F" />
      <stop offset="100%" stop-color="#FEB705" />
    </linearGradient>
    <linearGradient gradientUnits="objectBoundingBox" x1="0.4142043" y1="0.013624668" x2="0.5857957" y2="0.9864001" id="gradient_6">
      <stop offset="0%" stop-color="#FEC60F" />
      <stop offset="100%" stop-color="#FEB705" />
    </linearGradient>
    <linearGradient gradientUnits="objectBoundingBox" x1="0.43319607" y1="0.010345459" x2="0.60641074" y2="1.0276217" id="gradient_7">
      <stop offset="0%" stop-color="#FFDA1C" />
      <stop offset="100%" stop-color="#FEB705" />
    </linearGradient>
    <linearGradient gradientUnits="objectBoundingBox" x1="0.40389776" y1="0.013624668" x2="0.5961021" y2="0.9864003" id="gradient_8">
      <stop offset="0%" stop-color="#FEC60F" />
      <stop offset="100%" stop-color="#FEB705" />
    </linearGradient>
    <path d="M48 0L48 0L48 48L0 48L0 0L48 0Z" id="path_1" />
    <clipPath id="clip_1">
      <use xlink:href="#path_1" clip-rule="evenodd" fill-rule="evenodd" />
    </clipPath>
  </defs>
  <g id="Categorize" clip-path="url(#clip_1)">
    <path d="M48 0L48 0L48 48L0 48L0 0L48 0Z" id="Categorize" fill="none" stroke="none" />
    <path d="M22 20L22 8C22 6.895 21.105 6 20 6L8 6C6.895 6 6 6.895 6 8L6 20C6 21.105 6.895 22 8 22L20 22C21.105 22 22 21.105 22 20L22 20Z" id="Shape" fill="url(#gradient_1)" stroke="none" />
    <path d="M42 28L42 40C42 41.1 41.1 42 40 42L28 42C26.9 42 26 41.1 26 40L26 28C26 26.9 26.9 26 28 26L40 26C41.1 26 42 26.9 42 28L42 28Z" id="Shape" fill="url(#gradient_2)" stroke="none" />
    <path d="M20 26L8 26C6.895 26 6 26.895 6 28L6 40C6 41.105 6.895 42 8 42L20 42C21.105 42 22 41.105 22 40L22 28C22 26.895 21.105 26 20 26L20 26Z" id="Shape" fill="url(#gradient_3)" stroke="none" />
    <path d="M40 6L28 6C26.895 6 26 6.895 26 8L26 20C26 21.105 26.895 22 28 22L40 22C41.105 22 42 21.105 42 20L42 8C42 6.895 41.105 6 40 6L40 6L40 6Z" id="Shape" fill="url(#gradient_4)" stroke="none" />
    <path d="M38.852 16.476L34.852 9.976C34.489 9.384 33.512 9.384 33.149 9.976L29.149 16.476C28.959 16.785 28.951 17.171 29.128 17.488C29.305 17.805 29.638 18 30 18L38 18C38.362 18 38.696 17.804 38.873 17.488C39.05 17.172 39.042 16.785 38.852 16.476L38.852 16.476Z" id="Shape" fill="url(#gradient_5)" stroke="none" />
    <path d="M18.707 33.293L14.707 29.293C14.316 28.902 13.684 28.902 13.293 29.293L9.293 33.293C8.902 33.684 8.902 34.316 9.293 34.707L13.293 38.707C13.488 38.902 13.744 39 14 39C14.256 39 14.512 38.902 14.707 38.707L18.707 34.707C19.098 34.316 19.098 33.684 18.707 33.293L18.707 33.293Z" id="Shape" fill="url(#gradient_6)" stroke="none" />
    <path d="M39.105 32.745C38.99 32.391 38.687 32.131 38.32 32.07L35.982 31.679L34.89 29.545C34.546 28.877 33.452 28.877 33.109 29.545L32.017 31.679L29.679 32.07C29.312 32.132 29.009 32.392 28.894 32.745C28.778 33.099 28.869 33.488 29.128 33.754L30.799 35.468L30.442 37.852C30.387 38.222 30.543 38.592 30.846 38.811C31.15 39.029 31.55 39.061 31.883 38.892L34 37.819L36.116 38.892C36.259 38.964 36.414 39 36.568 39C36.774 39 36.979 38.936 37.153 38.811C37.457 38.592 37.612 38.222 37.557 37.852L37.2 35.468L38.871 33.754C39.131 33.487 39.222 33.099 39.105 32.745L39.105 32.745Z" id="Shape" fill="url(#gradient_7)" stroke="none" />
    <path d="M17.964 11.134L14.5 9.134C14.191 8.955 13.809 8.955 13.5 9.134L10.036 11.134C9.726 11.313 9.536 11.643 9.536 12L9.536 16C9.536 16.357 9.726 16.688 10.036 16.866L13.5 18.866C13.654 18.955 13.827 19 14 19C14.173 19 14.346 18.956 14.5 18.866L17.964 16.866C18.274 16.687 18.464 16.357 18.464 16L18.464 12C18.464 11.643 18.273 11.313 17.964 11.134L17.964 11.134Z" id="Shape" fill="url(#gradient_8)" stroke="none" />
  </g>
</svg>