<?xml version="1.0" encoding="utf-8"?>
<svg width="48px" height="48px" viewBox="0 0 48 48" version="1.1" xmlns:xlink="http://www.w3.org/1999/xlink" xmlns="http://www.w3.org/2000/svg">
  <defs>
    <linearGradient gradientUnits="userSpaceOnUse" x1="0.5290003" y1="10.472" x2="5.6" y2="5.3999996" id="gradient_1">
      <stop offset="0%" stop-color="#3079D6" />
      <stop offset="100%" stop-color="#297CD2" />
    </linearGradient>
    <path d="M0 0L48 0L48 48L0 48L0 0Z" id="path_1" />
    <clipPath id="mask_1">
      <use xlink:href="#path_1" />
    </clipPath>
  </defs>
  <g id="File-Icon-2">
    <path d="M0 0L48 0L48 48L0 48L0 0Z" id="Background" fill="#FFFFFF" fill-opacity="0" fill-rule="evenodd" stroke="none" />
    <g clip-path="url(#mask_1)">
      <path d="M39 16L39 41C39 42.105 38.105 43 37 43L11 43C9.895 43 9 42.105 9 41L9 7C9 5.895 9.895 5 11 5L28 5L39 16L39 16Z" id="Shape" fill="#50E6FF" fill-rule="evenodd" stroke="none" />
      <path d="M28 5L28 14C28 15.105 28.895 16 30 16L39 16L28 5L28 5Z" id="Shape" fill="url(#gradient_1)" fill-rule="evenodd" stroke="none" />
    </g>
  </g>
  <g id="svg" transform="translate(9.5 15)">
    <g id="Musical-Notes-Icon">
      <path d="M0 0L29 0L29 29L0 29L0 0L0 0Z" id="Background" fill="#FFFFFF" fill-opacity="0" fill-rule="evenodd" stroke="none" />
      <path d="M20.5417 17.5208C18.5395 17.5208 16.9167 19.1436 16.9167 21.1458C16.9167 23.148 18.5395 24.7708 20.5417 24.7708C22.5439 24.7708 24.1667 23.148 24.1667 21.1458C24.1667 19.1436 22.5439 17.5208 20.5417 17.5208L20.5417 17.5208L20.5417 17.5208Z" id="Shape" fill="#ED3675" stroke="none" />
      <path d="M6.04166 18.7292C4.03945 18.7292 2.41666 20.352 2.41666 22.3542C2.41666 24.3564 4.03945 25.9792 6.04166 25.9792C8.04387 25.9792 9.66666 24.3564 9.66666 22.3542C9.66666 20.352 8.04387 18.7292 6.04166 18.7292L6.04166 18.7292L6.04166 18.7292Z" id="Shape#1" fill="#ED3675" stroke="none" />
      <path d="M21.75 3.86002L9.66666 6.48633L9.66666 11.9238L21.75 9.29752L21.75 3.86002L21.75 3.86002Z" id="Polygon" fill="#CC1B4E" fill-rule="evenodd" stroke="none" />
      <path d="M22.7016 3.04863L8.20156 6.19996C7.64633 6.3214 7.25 6.81259 7.25 7.38111L7.25 22.3542L9.66667 22.3542L9.66667 9.0625L21.75 6.43619L21.75 21.1458L24.1667 21.1458L24.1667 4.22977C24.1667 3.45886 23.455 2.8849 22.7016 3.04863L22.7016 3.04863L22.7016 3.04863Z" id="Shape#2" fill="#ED3675" stroke="none" />
    </g>
  </g>
</svg>