<?xml version="1.0" encoding="utf-8"?>
<svg width="48px" height="48px" viewBox="0 0 48 48" version="1.1" xmlns:xlink="http://www.w3.org/1999/xlink" xmlns="http://www.w3.org/2000/svg">
  <defs>
    <linearGradient gradientUnits="userSpaceOnUse" x1="0.5290003" y1="10.472" x2="5.6" y2="5.3999996" id="gradient_1">
      <stop offset="0%" stop-color="#3079D6" />
      <stop offset="100%" stop-color="#297CD2" />
    </linearGradient>
    <linearGradient gradientUnits="userSpaceOnUse" x1="7.7598033" y1="-3.8750005" x2="7.7598033" y2="12.786861" id="gradient_2">
      <stop offset="0%" stop-color="#737B80" />
      <stop offset="100%" stop-color="#575C61" />
    </linearGradient>
    <linearGradient gradientUnits="userSpaceOnUse" x1="7.7499995" y1="-19.3214" x2="7.7499995" y2="-11.3020735" id="gradient_3">
      <stop offset="0%" stop-color="#C3CDD9" />
      <stop offset="100%" stop-color="#9FA7B0" />
    </linearGradient>
    <linearGradient gradientUnits="userSpaceOnUse" x1="-20.020824" y1="-22.819223" x2="-20.020824" y2="-20.01629" id="gradient_4">
      <stop offset="0%" stop-color="#75FF8A" />
      <stop offset="100%" stop-color="#1EE446" />
    </linearGradient>
    <path d="M0 0L48 0L48 48L0 48L0 0Z" id="path_1" />
    <clipPath id="mask_1">
      <use xlink:href="#path_1" />
    </clipPath>
  </defs>
  <g id="File-Icon-2">
    <path d="M0 0L48 0L48 48L0 48L0 0Z" id="Background" fill="#FFFFFF" fill-opacity="0" fill-rule="evenodd" stroke="none" />
    <g clip-path="url(#mask_1)">
      <path d="M39 16L39 41C39 42.105 38.105 43 37 43L11 43C9.895 43 9 42.105 9 41L9 7C9 5.895 9.895 5 11 5L28 5L39 16L39 16Z" id="Shape" fill="#50E6FF" fill-rule="evenodd" stroke="none" />
      <path d="M28 5L28 14C28 15.105 28.895 16 30 16L39 16L28 5L28 5Z" id="Shape" fill="url(#gradient_1)" fill-rule="evenodd" stroke="none" />
    </g>
  </g>
  <g id="svg" transform="translate(8 14)">
    <g id="Software-Installer-Icon">
      <path d="M0 0L31 0L31 31L0 31L0 0L0 0Z" id="Background" fill="#FFFFFF" fill-opacity="0" fill-rule="evenodd" stroke="none" />
      <path d="M6.97501 3.875L24.0896 3.875C24.7354 3.875 25.3167 4.39167 25.3813 5.0375L27.1896 19.2458C27.2542 20.0208 26.6729 20.6667 25.8979 20.6667L5.16668 20.6667C4.39168 20.6667 3.81043 20.0208 3.87501 19.2458L5.68334 5.0375C5.74793 4.39167 6.32918 3.875 6.97501 3.875L6.97501 3.875L6.97501 3.875Z" id="Shape" fill="url(#gradient_2)" stroke="none" />
      <path d="M27.125 19.375L3.875 19.375L3.875 25.8333C3.875 26.5437 4.45625 27.125 5.16667 27.125L25.8333 27.125C26.5437 27.125 27.125 26.5437 27.125 25.8333L27.125 19.375L27.125 19.375L27.125 19.375Z" id="Shape#1" fill="url(#gradient_3)" stroke="none" />
      <path d="M22.6042 22.6042C23.3146 22.6042 23.8958 23.1854 23.8958 23.8958C23.8958 24.6063 23.3146 25.1875 22.6042 25.1875C21.8938 25.1875 21.3125 24.6063 21.3125 23.8958C21.3125 23.1854 21.8938 22.6042 22.6042 22.6042M22.6042 21.9583C21.5062 21.9583 20.6667 22.7979 20.6667 23.8958C20.6667 24.9938 21.5062 25.8333 22.6042 25.8333C23.7021 25.8333 24.5417 24.9938 24.5417 23.8958C24.5417 22.7979 23.7021 21.9583 22.6042 21.9583L22.6042 21.9583L22.6042 21.9583L22.6042 21.9583Z" id="Shape#2" fill="#000000" fill-opacity="0.050980393" fill-rule="evenodd" stroke="none" />
      <path d="M22.6042 22.6042C23.3146 22.6042 23.8958 23.1854 23.8958 23.8958C23.8958 24.6062 23.3146 25.1875 22.6042 25.1875C21.8938 25.1875 21.3125 24.6062 21.3125 23.8958C21.3125 23.1854 21.8938 22.6042 22.6042 22.6042M22.6042 22.2812C21.7 22.2812 20.9896 22.9917 20.9896 23.8958C20.9896 24.8 21.7 25.5104 22.6042 25.5104C23.5083 25.5104 24.2188 24.8 24.2188 23.8958C24.2188 22.9917 23.5083 22.2812 22.6042 22.2812L22.6042 22.2812L22.6042 22.2812L22.6042 22.2812Z" id="Shape#3" fill="#000000" fill-opacity="0.07058824" fill-rule="evenodd" stroke="none" />
      <path d="M21.3125 23.8958C21.3125 23.1824 21.8908 22.6042 22.6042 22.6042C23.3176 22.6042 23.8958 23.1824 23.8958 23.8958C23.8958 24.6092 23.3176 25.1875 22.6042 25.1875C21.8908 25.1875 21.3125 24.6092 21.3125 23.8958L21.3125 23.8958Z" id="Circle" fill="url(#gradient_4)" fill-rule="evenodd" stroke="none" />
      <path d="M14.3375 14.5958C14.6604 14.9187 15.0479 15.0479 15.5 15.0479C15.9521 15.0479 16.3396 14.8542 16.6625 14.5958L20.9896 10.2687C21.3125 9.94583 21.3771 9.49375 21.2479 9.04167C21.0542 8.65417 20.6667 8.39583 20.2146 8.39583L18.0833 8.39583L18.0833 3.875L12.9167 3.875L12.9167 8.39583L10.7854 8.39583C10.3333 8.39583 9.94584 8.65417 9.75209 9.10625C9.55834 9.49375 9.6875 10.0104 10.0104 10.3333L14.3375 14.5958L14.3375 14.5958L14.3375 14.5958Z" id="Shape#4" fill="#000000" fill-opacity="0.050980393" stroke="none" />
      <path d="M14.5958 14.4021C14.8542 14.6604 15.1771 14.7896 15.5 14.7896C15.8229 14.7896 16.1458 14.6604 16.4042 14.4021L20.7312 10.075C20.925 9.88125 21.0542 9.49375 20.925 9.23542C20.7958 8.9125 20.5375 8.78333 20.2146 8.78333L17.7604 8.78333L17.7604 3.875L13.2396 3.875L13.2396 8.71875L10.7854 8.71875C10.4625 8.71875 10.2042 8.9125 10.075 9.17083C9.94583 9.49375 10.0104 9.81667 10.2687 10.0104L14.5958 14.4021L14.5958 14.4021L14.5958 14.4021Z" id="Shape#5" fill="#000000" fill-opacity="0.07058824" stroke="none" />
      <path d="M20.5375 9.81667L16.2104 14.1437C15.8229 14.5312 15.2417 14.5312 14.8542 14.1437L10.5271 9.81667C10.2688 9.55833 10.4625 9.04167 10.85 9.04167L13.5625 9.04167L13.5625 0.645833C13.5625 0.258333 13.8208 0 14.2083 0L16.7917 0C17.1792 0 17.4375 0.258333 17.4375 0.645833L17.4375 9.04167L20.2146 9.04167C20.6021 9.04167 20.7958 9.55833 20.5375 9.81667L20.5375 9.81667L20.5375 9.81667Z" id="Shape#6" fill="#50E6FF" stroke="none" />
    </g>
  </g>
</svg>