<?xml version="1.0" encoding="utf-8"?>
<svg width="48px" height="48px" viewBox="0 0 48 48" version="1.1" xmlns:xlink="http://www.w3.org/1999/xlink" xmlns="http://www.w3.org/2000/svg">
  <defs>
    <linearGradient gradientUnits="objectBoundingBox" x1="0.05340004" y1="0.94659996" x2="0.50900006" y2="0.49099994" id="gradient_1">
      <stop offset="0%" stop-color="#3079D6" />
      <stop offset="100%" stop-color="#297CD2" />
    </linearGradient>
    <path d="M48 0L48 0L48 48L0 48L0 0L48 0Z" id="path_1" />
    <clipPath id="clip_1">
      <use xlink:href="#path_1" />
    </clipPath>
  </defs>
  <g id="Documents" clip-path="url(#clip_1)">
    <path d="M48 0L48 0L48 48L0 48L0 0L48 0Z" id="Documents" fill="none" stroke="none" />
    <path d="M36 17L36 42C36 43.105 35.105 44 34 44L10 44C8.895 44 8 43.105 8 42L8 10C8 8.895 8.895 8 10 8L27 8L36 17L36 17Z" id="Shape" fill="#199BE2" stroke="none" />
    <path d="M10 8L27 8L36 17L36 42L13.681 42C11.648 42 10 40.352 10 38.319L10 8L10 8Z" id="Shape" fill="#000000" fill-opacity="0.05" stroke="none" />
    <path d="M11 8L27 8L36 17L36 41L13.839 41C12.271 41 11 39.729 11 38.161L11 8L11 8Z" id="Shape" fill="#000000" fill-opacity="0.07" stroke="none" />
    <path d="M40 14L40 38C40 39.105 39.105 40 38 40L14 40C12.895 40 12 39.105 12 38L12 6C12 4.895 12.895 4 14 4L30 4L40 14L40 14Z" id="Shape" fill="#50E6FF" stroke="none" />
    <path d="M30 4L30 12C30 13.105 30.895 14 32 14L40 14L30 4L30 4Z" id="Shape" fill="url(#gradient_1)" stroke="none" />
    <path d="M33.317 20.934L18.317 20.934C18.041 20.934 17.817 20.71 17.817 20.434L17.817 19.434C17.817 19.158 18.041 18.934 18.317 18.934L33.317 18.934C33.593 18.934 33.817 19.158 33.817 19.434L33.817 20.434C33.817 20.71 33.593 20.934 33.317 20.934L33.317 20.934Z" id="Shape" fill="#057093" stroke="none" />
    <path d="M33.317 24.934L18.317 24.934C18.041 24.934 17.817 24.71 17.817 24.434L17.817 23.434C17.817 23.158 18.041 22.934 18.317 22.934L33.317 22.934C33.593 22.934 33.817 23.158 33.817 23.434L33.817 24.434C33.817 24.71 33.593 24.934 33.317 24.934L33.317 24.934Z" id="Shape" fill="#057093" stroke="none" />
    <path d="M33.317 28.934L18.317 28.934C18.041 28.934 17.817 28.71 17.817 28.434L17.817 27.434C17.817 27.158 18.041 26.934 18.317 26.934L33.317 26.934C33.593 26.934 33.817 27.158 33.817 27.434L33.817 28.434C33.817 28.71 33.593 28.934 33.317 28.934L33.317 28.934Z" id="Shape" fill="#057093" stroke="none" />
    <path d="M29.317 32.934L18.317 32.934C18.041 32.934 17.817 32.71 17.817 32.434L17.817 31.434C17.817 31.158 18.041 30.934 18.317 30.934L29.317 30.934C29.593 30.934 29.817 31.158 29.817 31.434L29.817 32.434C29.817 32.71 29.593 32.934 29.317 32.934L29.317 32.934Z" id="Shape" fill="#057093" stroke="none" />
  </g>
</svg>