<?xml version="1.0" encoding="utf-8"?>
<svg width="48px" height="48px" viewBox="0 0 48 48" version="1.1" xmlns:xlink="http://www.w3.org/1999/xlink" xmlns="http://www.w3.org/2000/svg">
  <defs>
    <radialGradient gradientUnits="objectBoundingBox" cx="103.201256%" cy="90.385315%" fx="103.201256%" fy="90.385315%" r="55.78115%" gradientTransform="translate(1.0320126,0.9038532),scale(1,0.99999344),rotate(10.1989975),translate(-1.0320126,-0.9038532)" id="gradient_1">
      <stop offset="0%" stop-color="#BD8AF5" />
      <stop offset="13.7%" stop-color="#B88BF5" />
      <stop offset="30.899996%" stop-color="#A88FF3" />
      <stop offset="49.9%" stop-color="#8F96F2" />
      <stop offset="70.200005%" stop-color="#6B9EEF" />
      <stop offset="91.299995%" stop-color="#3EAAEC" />
      <stop offset="100%" stop-color="#29AFEA" />
    </radialGradient>
    <linearGradient gradientUnits="objectBoundingBox" x1="0.61219937" y1="0.038436726" x2="0.49004734" y2="0.9099665" id="gradient_2">
      <stop offset="0%" stop-color="#124787" />
      <stop offset="92.299995%" stop-color="#173B75" />
      <stop offset="100%" stop-color="#173A73" />
    </linearGradient>
    <radialGradient gradientUnits="objectBoundingBox" cx="117.99119%" cy="84.65295%" fx="117.99119%" fy="84.65295%" r="63.726448%" gradientTransform="translate(1.1799119,0.8465295),translate(-1.1799119,-0.8465295)" id="gradient_3">
      <stop offset="0%" stop-color="#FFCF7B" />
      <stop offset="19.5%" stop-color="#FECD76" />
      <stop offset="43.9%" stop-color="#FAC666" />
      <stop offset="71%" stop-color="#F3BC4D" />
      <stop offset="99.69999%" stop-color="#EAAD29" />
      <stop offset="100%" stop-color="#EAAD29" />
    </radialGradient>
    <linearGradient gradientUnits="objectBoundingBox" x1="0.4999852" y1="-0.0022507906" x2="0.4999852" y2="1.0174363" id="gradient_4">
      <stop offset="0%" stop-color="#C26715" />
      <stop offset="50.800003%" stop-color="#B85515" />
      <stop offset="100%" stop-color="#AD3F16" />
    </linearGradient>
    <path d="M48 0L48 0L48 48L0 48L0 0L48 0Z" id="path_1" />
    <clipPath id="clip_1">
      <use xlink:href="#path_1" />
    </clipPath>
  </defs>
  <g id="Photo Gallery" clip-path="url(#clip_1)">
    <path d="M48 0L48 0L48 48L0 48L0 0L48 0Z" id="Photo-Gallery" fill="none" stroke="none" />
    <path d="M41.518 10.211L11.993 4.894C10.906 4.698 9.866 5.421 9.67 6.508L4.353 36.033C4.158 37.12 4.88 38.16 5.967 38.356L35.492 43.673C36.579 43.869 37.619 43.146 37.815 42.059L43.132 12.534C43.328 11.447 42.605 10.407 41.518 10.211L41.518 10.211Z" id="Shape" fill="url(#gradient_1)" stroke="none" />
    <path d="M32.105 25.234C31.178 23.899 29.356 23.546 27.997 24.437L17.382 31.394L15.809 40.128L35.492 43.673C36.579 43.869 37.619 43.146 37.815 42.059L39.046 35.224L32.105 25.234L32.105 25.234Z" id="Shape" fill="#436DCD" stroke="none" />
    <path d="M37.467 42.867L21.004 19.171C20.077 17.836 18.255 17.483 16.896 18.374L6.281 25.331L4.353 36.033C4.158 37.12 4.88 38.16 5.967 38.356L35.492 43.673C36.276 43.814 37.031 43.473 37.467 42.867L37.467 42.867Z" id="Shape" fill="url(#gradient_2)" stroke="none" />
    <path d="M36 40C36.868 40 37.666 39.716 38.322 39.247L40 29.927L40 9.938L11.993 4.894C10.906 4.698 9.866 5.421 9.67 6.508L4.353 36.033C4.158 37.12 4.88 38.16 5.967 38.356L15.096 40L36 40L36 40Z" id="Shape" fill="#000000" fill-opacity="0.05" stroke="none" />
    <path d="M9.671 6.508L4.484 35.308C4.435 35.578 4.37 36.568 4.514 36.778C4.614 37.247 4.9 37.654 5.303 37.907C5.482 38.074 6.485 38.315 6.749 38.315L14.261 39L34.81 39C35.244 39 36.833 38.858 37.161 38.623C37.713 38.623 38.438 36.637 38.438 36.085L39 29.789L39 9.758L11.993 4.894C10.906 4.698 9.866 5.421 9.671 6.508L9.671 6.508Z" id="Shape" fill="#000000" fill-opacity="0.07" stroke="none" />
    <path d="M36 4L6 4C4.895 4 4 4.895 4 6L4 36C4 37.105 4.895 38 6 38L36 38C37.105 38 38 37.105 38 36L38 6C38 4.895 37.105 4 36 4L36 4Z" id="Shape" fill="url(#gradient_3)" stroke="none" />
    <path d="M25 12C25 10.3431 26.3431 9 28 9C29.6569 9 31 10.3431 31 12C31 13.6569 29.6569 15 28 15C26.3431 15 25 13.6569 25 12Z" id="Circle" fill="#FFF8DE" fill-rule="evenodd" stroke="none" />
    <path d="M29.398 20.454C28.249 19.305 26.393 19.28 25.213 20.397L16 29.126L16 38L36 38C37.105 38 38 37.105 38 36L38 29.056L29.398 20.454L29.398 20.454Z" id="Shape" fill="#D6742D" stroke="none" />
    <path d="M37.801 36.856L17.398 16.454C16.249 15.305 14.393 15.28 13.213 16.397L4 25.126L4 36C4 37.105 4.895 38 6 38L36 38C36.797 38 37.479 37.531 37.801 36.856L37.801 36.856Z" id="Shape" fill="url(#gradient_4)" stroke="none" />
  </g>
</svg>