<?xml version="1.0" encoding="utf-8"?>
<svg width="48px" height="48px" viewBox="0 0 48 48" version="1.1" xmlns:xlink="http://www.w3.org/1999/xlink" xmlns="http://www.w3.org/2000/svg">
  <defs>
    <linearGradient gradientUnits="userSpaceOnUse" x1="0.5290003" y1="10.472" x2="5.6" y2="5.3999996" id="gradient_1">
      <stop offset="0%" stop-color="#3079D6" />
      <stop offset="100%" stop-color="#297CD2" />
    </linearGradient>
    <linearGradient gradientUnits="userSpaceOnUse" x1="22.117554" y1="0.21772611" x2="3.404843" y2="16.005978" id="gradient_2">
      <stop offset="0%" stop-color="#A1AAB3" />
      <stop offset="100%" stop-color="#8F979E" />
    </linearGradient>
    <linearGradient gradientUnits="userSpaceOnUse" x1="8.999437" y1="0.061311394" x2="13.7474985" y2="15.360745" id="gradient_3">
      <stop offset="0%" stop-color="#6D7479" />
      <stop offset="100%" stop-color="#323538" />
    </linearGradient>
    <linearGradient gradientUnits="userSpaceOnUse" x1="7.875001" y1="-0.004499674" x2="7.875001" y2="2.2544997" id="gradient_4">
      <stop offset="0%" stop-color="#484B4F" />
      <stop offset="22.999998%" stop-color="#656D75" />
      <stop offset="36.7%" stop-color="#727D86" />
    </linearGradient>
    <path d="M0 0L48 0L48 48L0 48L0 0Z" id="path_1" />
    <path d="M0 0L27 0L27 27L0 27L0 0Z" id="path_2" />
    <clipPath id="mask_1">
      <use xlink:href="#path_1" />
    </clipPath>
    <clipPath id="mask_2">
      <use xlink:href="#path_2" />
    </clipPath>
  </defs>
  <g id="File-Icon">
    <path d="M0 0L48 0L48 48L0 48L0 0Z" id="Background" fill="#FFFFFF" fill-opacity="0" fill-rule="evenodd" stroke="none" />
    <path d="M39 16L39 41C39 42.105 38.105 43 37 43L11 43C9.895 43 9 42.105 9 41L9 7C9 5.895 9.895 5 11 5L28 5L39 16L39 16Z" id="Shape" fill="#50E6FF" stroke="none" />
    <path d="M28 5L28 14C28 15.105 28.895 16 30 16L39 16L28 5L28 5Z" id="Shape" fill="url(#gradient_1)" stroke="none" />
  </g>
  <g id="Layout-Icon" transform="translate(10.5 16)">
    <path d="M0 0L27 0L27 27L0 27L0 0Z" id="Background" fill="#FFFFFF" fill-opacity="0" fill-rule="evenodd" stroke="none" />
    <path d="M2.25004 20.8125L24.75 20.8125C25.3716 20.8125 25.875 20.309 25.875 19.6875L25.875 5.06246C25.875 4.4409 25.3716 3.93746 24.75 3.93746L2.25004 3.93746C1.62848 3.93746 1.12504 4.4409 1.12504 5.06246L1.12504 19.6875C1.12504 20.309 1.62848 20.8125 2.25004 20.8125L2.25004 20.8125Z" id="Shape" fill="url(#gradient_2)" stroke="none" />
    <path d="M2.24996 5.0625L24.75 5.0625L24.75 19.6875L2.24996 19.6875L2.24996 5.0625Z" id="Rectangle" fill="url(#gradient_3)" fill-rule="evenodd" stroke="none" />
    <path d="M21.0937 21.9375L16.875 21.9375L16.875 20.8125L10.125 20.8125L10.125 21.9375L5.90621 21.9375C5.75096 21.9375 5.62496 22.0635 5.62496 22.2187L5.62496 22.7812C5.62496 22.9365 5.75096 23.0625 5.90621 23.0625L21.0937 23.0625C21.249 23.0625 21.375 22.9365 21.375 22.7812L21.375 22.2187C21.375 22.0635 21.249 21.9375 21.0937 21.9375L21.0937 21.9375Z" id="Shape" fill="url(#gradient_4)" stroke="none" />
    <path d="M14.6081 12.375C13.9973 12.375 13.5 11.8778 13.5 11.2669L13.5 7.29567C13.5 6.68479 13.9973 6.18754 14.6081 6.18754L22.5169 6.18754C23.1277 6.18754 23.625 6.68479 23.625 7.29567L23.625 11.2675C23.625 11.8784 23.1278 12.3756 22.5169 12.3756L14.6081 12.3756L14.6081 12.375Z" id="Shape" fill="#000000" fill-opacity="0.05" stroke="none" />
    <path d="M14.6082 12.0937C14.152 12.0937 13.7813 11.723 13.7813 11.2668L13.7813 7.29558C13.7813 6.8394 14.1525 6.46871 14.6082 6.46871L22.5169 6.46871C22.9731 6.46871 23.3438 6.8394 23.3438 7.29558L23.3438 11.2674C23.3438 11.7236 22.9725 12.0943 22.5169 12.0943L14.6082 12.0943L14.6082 12.0937Z" id="Shape" fill="#000000" fill-opacity="0.07" stroke="none" />
    <path d="M22.5168 11.8125L14.6081 11.8125C14.3066 11.8125 14.0625 11.5684 14.0625 11.2669L14.0625 7.29563C14.0625 6.99412 14.3066 6.75 14.6081 6.75L22.5168 6.75C22.8183 6.75 23.0625 6.99412 23.0625 7.29563L23.0625 11.2669C23.0625 11.5684 22.8183 11.8125 22.5168 11.8125L22.5168 11.8125Z" id="Shape" fill="#6D75CF" stroke="none" />
    <path d="M14.6081 18.5625C13.9973 18.5625 13.5 18.0652 13.5 17.4543L13.5 13.4831C13.5 12.8722 13.9973 12.375 14.6081 12.375L22.5169 12.375C23.1277 12.375 23.625 12.8722 23.625 13.4831L23.625 17.4549C23.625 18.0658 23.1278 18.563 22.5169 18.563L14.6081 18.563L14.6081 18.5625Z" id="Shape" fill="#000000" fill-opacity="0.05" stroke="none" />
    <path d="M14.6082 18.2812C14.152 18.2812 13.7813 17.9106 13.7813 17.4544L13.7813 13.4831C13.7813 13.0269 14.1525 12.6562 14.6082 12.6562L22.5169 12.6562C22.9731 12.6562 23.3438 13.0269 23.3438 13.4831L23.3438 17.4549C23.3438 17.9111 22.9725 18.2818 22.5169 18.2818L14.6082 18.2818L14.6082 18.2812Z" id="Shape" fill="#000000" fill-opacity="0.07" stroke="none" />
    <path d="M22.5168 18L14.6081 18C14.3066 18 14.0625 17.7559 14.0625 17.4544L14.0625 13.4832C14.0625 13.1817 14.3066 12.9375 14.6081 12.9375L22.5168 12.9375C22.8183 12.9375 23.0625 13.1817 23.0625 13.4832L23.0625 17.4544C23.0625 17.7559 22.8183 18 22.5168 18L22.5168 18Z" id="Shape" fill="#F14753" stroke="none" />
    <path d="M4.48312 12.375C3.87225 12.375 3.375 11.8778 3.375 11.2669L3.375 7.29567C3.375 6.68479 3.87225 6.18754 4.48312 6.18754L12.3919 6.18754C13.0028 6.18754 13.5 6.68479 13.5 7.29567L13.5 11.2675C13.5 11.8784 13.0027 12.3756 12.3919 12.3756L4.48312 12.3756L4.48312 12.375Z" id="Shape" fill="#000000" fill-opacity="0.05" stroke="none" />
    <path d="M4.48317 12.0937C4.02698 12.0937 3.65629 11.723 3.65629 11.2668L3.65629 7.29558C3.65629 6.8394 4.02754 6.46871 4.48317 6.46871L12.3919 6.46871C12.8481 6.46871 13.2188 6.8394 13.2188 7.29558L13.2188 11.2674C13.2188 11.7236 12.8475 12.0943 12.3919 12.0943L4.48317 12.0943L4.48317 12.0937Z" id="Shape" fill="#000000" fill-opacity="0.07" stroke="none" />
    <path d="M12.3918 11.8125L4.48308 11.8125C4.18158 11.8125 3.93746 11.5684 3.93746 11.2669L3.93746 7.29563C3.93746 6.99412 4.18158 6.75 4.48308 6.75L12.3918 6.75C12.6933 6.75 12.9375 6.99412 12.9375 7.29563L12.9375 11.2669C12.9375 11.5684 12.6933 11.8125 12.3918 11.8125L12.3918 11.8125Z" id="Shape" fill="#50E6FF" stroke="none" />
    <path d="M4.48312 18.5625C3.87225 18.5625 3.375 18.0652 3.375 17.4543L3.375 13.4831C3.375 12.8722 3.87225 12.375 4.48312 12.375L12.3919 12.375C13.0028 12.375 13.5 12.8722 13.5 13.4831L13.5 17.4549C13.5 18.0658 13.0027 18.563 12.3919 18.563L4.48312 18.563L4.48312 18.5625Z" id="Shape" fill="#000000" fill-opacity="0.05" stroke="none" />
    <path d="M4.48317 18.2812C4.02698 18.2812 3.65629 17.9106 3.65629 17.4544L3.65629 13.4831C3.65629 13.0269 4.02754 12.6562 4.48317 12.6562L12.3919 12.6562C12.8481 12.6562 13.2188 13.0269 13.2188 13.4831L13.2188 17.4549C13.2188 17.9111 12.8475 18.2818 12.3919 18.2818L4.48317 18.2818L4.48317 18.2812Z" id="Shape" fill="#000000" fill-opacity="0.07" stroke="none" />
    <path d="M12.3918 18L4.48308 18C4.18158 18 3.93746 17.7559 3.93746 17.4544L3.93746 13.4832C3.93746 13.1817 4.18158 12.9375 4.48308 12.9375L12.3918 12.9375C12.6933 12.9375 12.9375 13.1817 12.9375 13.4832L12.9375 17.4544C12.9375 17.7559 12.6933 18 12.3918 18L12.3918 18Z" id="Shape" fill="#B648F2" stroke="none" />
  </g>
</svg>