<?xml version="1.0" encoding="utf-8"?>
<svg width="48px" height="48px" viewBox="0 0 48 48" version="1.1" xmlns:xlink="http://www.w3.org/1999/xlink" xmlns="http://www.w3.org/2000/svg">
  <defs>
    <linearGradient gradientUnits="userSpaceOnUse" x1="-27.470999" y1="5.472" x2="-22.4" y2="0.39999962" id="gradient_1">
      <stop offset="0%" stop-color="#3079D6" />
      <stop offset="100%" stop-color="#297CD2" />
    </linearGradient>
    <path d="M0 0L48 0L48 48L0 48L0 0L0 0Z" id="path_1" />
    <clipPath id="mask_1">
      <use xlink:href="#path_1" />
    </clipPath>
  </defs>
  <g id="svg-2">
    <g id="File-Icon-2">
      <path d="M0 0L48 0L48 48L0 48L0 0L0 0Z" id="Background" fill="#FFFFFF" fill-opacity="0" fill-rule="evenodd" stroke="none" />
      <g id="Mask-Group">
        <path d="M0 0L48 0L48 48L0 48L0 0L0 0Z" id="path_1" fill="none" stroke="none" />
        <g clip-path="url(#mask_1)">
          <g id="Group" transform="translate(9 5)">
            <path d="M30 11L30 36C30 37.105 29.105 38 28 38L2 38C0.895001 38 0 37.105 0 36L0 2C0 0.895 0.895001 0 2 0L19 0L30 11L30 11L30 11Z" id="Shape" fill="#50E6FF" fill-rule="evenodd" stroke="none" />
            <path d="M19 0L19 9C19 10.105 19.895 11 21 11L30 11L19 0L19 0L19 0Z" id="Shape#1" fill="url(#gradient_1)" fill-rule="evenodd" stroke="none" />
          </g>
        </g>
      </g>
    </g>
    <g id="svg" transform="translate(10 15)">
      <g id="Node-Js-Icon">
        <path d="M0 0L28 0L28 28L0 28L0 0L0 0L0 0Z" id="Background#1" fill="#FFFFFF" fill-opacity="0" fill-rule="evenodd" stroke="none" />
        <path d="M14.0041 26.4944C13.6693 26.4944 13.3373 26.4069 13.0439 26.2378L9.98725 24.4277C9.5305 24.1722 9.75333 24.0818 9.90383 24.0298C10.5128 23.8169 10.6359 23.7685 11.2857 23.3993C11.354 23.3602 11.4433 23.3742 11.5132 23.4156L13.8617 24.8092C13.9463 24.8553 14.0671 24.8553 14.1453 24.8092L23.3018 19.5236C23.3864 19.4752 23.4418 19.3772 23.4418 19.2763L23.4418 8.71034C23.4418 8.60475 23.387 8.51084 23.3001 8.45834L14.1476 3.17684C14.063 3.12667 13.9504 3.12667 13.8658 3.17684L4.7145 8.45775C4.62583 8.50792 4.56925 8.6065 4.56925 8.70742L4.56925 19.2739C4.56925 19.3748 4.62408 19.4711 4.71158 19.5189L7.21933 20.9673C8.58083 21.6481 9.41267 20.846 9.41267 20.0393L9.41267 9.611C9.41267 9.46225 9.52933 9.34734 9.67867 9.34734L10.8383 9.34734C10.983 9.34734 11.102 9.46167 11.102 9.611L11.102 20.0445C11.102 21.8598 10.1121 22.9028 8.39067 22.9028C7.861 22.9028 7.44392 22.9028 6.27958 22.33L3.87742 20.9458C3.28358 20.6016 2.91667 19.9593 2.91667 19.2745L2.91667 8.708C2.91667 8.02025 3.28358 7.37859 3.87683 7.03909L13.0433 1.75117C13.6232 1.42334 14.3932 1.42334 14.9689 1.75117L24.1237 7.04142C24.7141 7.38267 25.0833 8.02259 25.0833 8.71034L25.0833 19.2768C25.0833 19.9623 24.7141 20.6016 24.1232 20.9458L14.9683 26.2331C14.6749 26.4028 14.3424 26.4897 14.0035 26.4897" id="Shape#2" fill="#1A8050" stroke="none" />
        <path d="M16.8327 19.2132C12.8263 19.2132 11.9863 17.374 11.9863 15.8317C11.9863 15.6852 12.1048 15.568 12.2518 15.568L13.4348 15.568C13.5654 15.568 13.6757 15.6631 13.6961 15.792C13.8746 16.9972 14.4066 17.605 16.8292 17.605C18.7588 17.605 19.5796 17.1692 19.5796 16.1455C19.5796 15.5563 19.3457 15.1188 16.3479 14.8254C13.8402 14.5781 12.2908 14.0257 12.2908 12.0202C12.2908 10.1727 13.8495 9.07258 16.4599 9.07258C19.3918 9.07258 20.8448 10.0905 21.028 12.2768C21.035 12.3527 21.0076 12.4256 20.9568 12.481C20.9067 12.5335 20.8355 12.5656 20.762 12.5656L19.5726 12.5656C19.4489 12.5656 19.341 12.4787 19.3159 12.3591C19.0295 11.0915 18.3371 10.6861 16.4553 10.6861C14.3488 10.6861 14.1038 11.4193 14.1038 11.9694C14.1038 12.6362 14.3926 12.831 17.2346 13.2072C20.0492 13.5806 21.3856 14.1079 21.3856 16.086C21.3856 18.0798 19.7213 19.2237 16.8198 19.2237" id="Shape#3" fill="#1A8050" stroke="none" />
      </g>
    </g>
  </g>
</svg>