<?xml version="1.0" encoding="utf-8"?>
<svg width="48px" height="48px" viewBox="0 0 48 48" version="1.1" xmlns:xlink="http://www.w3.org/1999/xlink" xmlns="http://www.w3.org/2000/svg">
  <defs>
    <linearGradient gradientUnits="userSpaceOnUse" x1="8.098072" y1="24.261" x2="-22.890451" y2="-52.892998" id="gradient_1">
      <stop offset="0%" stop-color="#32BDEF" />
      <stop offset="100%" stop-color="#1EA2E4" />
    </linearGradient>
    <linearGradient gradientUnits="userSpaceOnUse" x1="53.819073" y1="13.584996" x2="-10.497956" y2="-0.6860051" id="gradient_2">
      <stop offset="0%" stop-color="#A3FFFF" />
      <stop offset="22.300001%" stop-color="#9DFBFF" />
      <stop offset="52.999996%" stop-color="#8BF1FF" />
      <stop offset="88.5%" stop-color="#6EE0FF" />
      <stop offset="100%" stop-color="#63DAFF" />
    </linearGradient>
    <linearGradient gradientUnits="userSpaceOnUse" x1="-18.220444" y1="-67.51201" x2="11.657077" y2="6.874999" id="gradient_3">
      <stop offset="0%" stop-color="#076CB3" />
      <stop offset="100%" stop-color="#199AE0" />
    </linearGradient>
    <linearGradient gradientUnits="userSpaceOnUse" x1="-23.880627" y1="10.507" x2="19.643244" y2="10.507" id="gradient_4">
      <stop offset="0%" stop-color="#FFD869" />
      <stop offset="100%" stop-color="#FEC52B" />
    </linearGradient>
    <linearGradient gradientUnits="userSpaceOnUse" x1="5.485318" y1="10.298686" x2="18.122536" y2="10.298686" id="gradient_5">
      <stop offset="0%" stop-color="#EBA600" />
      <stop offset="100%" stop-color="#C28200" />
    </linearGradient>
    <path d="M0 0L47.9591 0L47.9591 48L0 48L0 0Z" id="path_1" />
    <clipPath id="mask_1">
      <use xlink:href="#path_1" />
    </clipPath>
  </defs>
  <g id="3D-Object-Icon">
    <path d="M0 0L47.9591 0L47.9591 48L0 48L0 0Z" id="Background" fill="#FFFFFF" fill-opacity="0" fill-rule="evenodd" stroke="none" />
    <path d="M15.9864 13L15.9864 43L13.9881 43C13.6883 43 13.2887 42.9 12.9889 42.8C12.7891 42.7 12.5893 42.5 12.3894 42.3L5.3954 33.5C5.19557 33.1 4.99574 32.6 4.99574 32.2L4.99574 6C4.99574 5.7 5.09565 5.5 5.29548 5.3C5.49531 5.1 5.69514 5 5.99488 5L8.49275 5L15.9864 13L15.9864 13Z" id="Shape" fill="url(#gradient_1)" stroke="none" />
    <path d="M42.9633 14L42.9633 16L12.9889 16L12.9889 13L5.29548 5.3C5.49531 5.1 5.69514 5 5.99489 5L32.1726 5C32.6721 5 33.0718 5.2 33.3715 5.4L42.164 12.4C42.3639 12.6 42.5637 12.8 42.6636 13C42.8634 13.3 42.9633 13.6 42.9633 14L42.9633 14Z" id="Shape" fill="url(#gradient_2)" stroke="none" />
    <path d="M42.9633 14L42.9633 37L36.9685 43L13.9881 43C13.6883 43 13.2887 42.9 12.9889 42.8L12.9889 13L42.7635 13C42.8634 13.3 42.9633 13.6 42.9633 14L42.9633 14Z" id="Shape" fill="url(#gradient_3)" stroke="none" />
    <path d="M42.9633 37L42.9633 32.8L36.6687 26.5C36.1691 26 35.5697 25.9 34.8702 26.2C34.2708 26.5 33.8711 27 33.8711 27.7L33.8711 43L36.8685 43L42.9633 37L42.9633 37Z" id="Shape" fill="#000000" fill-opacity="0.05" stroke="none" />
    <path d="M42.9633 37L42.9633 33.5L36.2691 26.8C35.9693 26.5 35.4697 26.4 35.0701 26.6C34.6704 26.8 34.3707 27.2 34.3707 27.6L34.3707 43L36.9685 43L42.9633 37L42.9633 37Z" id="Shape" fill="#000000" fill-opacity="0.05" stroke="none" />
    <path d="M34.9702 27.5L34.9702 44.5C34.9702 45 35.5697 45.3 35.9693 45L39.866 41.7L42.4638 47.6C42.5637 47.9 42.9633 48 43.2631 47.9L44.2622 47.4L35.3698 27C35.17 27.1 34.9702 27.3 34.9702 27.5L34.9702 27.5Z" id="Shape" fill="url(#gradient_4)" stroke="none" />
    <path d="M45.4612 46.3L42.9633 40.4L47.4595 40C47.9591 40 48.1589 39.3 47.8592 39L35.9693 27.1C35.7695 26.9 35.5696 26.9 35.3698 27L44.2622 47.5L45.2614 47.1C45.4612 46.9 45.661 46.6 45.4612 46.3L45.4612 46.3Z" id="Shape" fill="url(#gradient_5)" stroke="none" />
  </g>
</svg>