<?xml version="1.0" encoding="utf-8"?>
<svg width="48px" height="48px" viewBox="0 0 48 48" version="1.1" xmlns:xlink="http://www.w3.org/1999/xlink" xmlns="http://www.w3.org/2000/svg">
  <defs>
    <linearGradient gradientUnits="userSpaceOnUse" x1="8.10498" y1="24.261" x2="-22.90998" y2="-52.892998" id="gradient_1">
      <stop offset="0%" stop-color="#32BDEF" />
      <stop offset="100%" stop-color="#1EA2E4" />
    </linearGradient>
    <linearGradient gradientUnits="userSpaceOnUse" x1="53.86499" y1="13.584996" x2="-10.506913" y2="-0.6860051" id="gradient_2">
      <stop offset="0%" stop-color="#A3FFFF" />
      <stop offset="22.300001%" stop-color="#9DFBFF" />
      <stop offset="52.999996%" stop-color="#8BF1FF" />
      <stop offset="88.5%" stop-color="#6EE0FF" />
      <stop offset="100%" stop-color="#63DAFF" />
    </linearGradient>
    <linearGradient gradientUnits="userSpaceOnUse" x1="-18.235989" y1="-67.51201" x2="11.667023" y2="6.874999" id="gradient_3">
      <stop offset="0%" stop-color="#076CB3" />
      <stop offset="100%" stop-color="#199AE0" />
    </linearGradient>
    <linearGradient gradientUnits="userSpaceOnUse" x1="-23.901" y1="10.507" x2="19.660002" y2="10.507" id="gradient_4">
      <stop offset="0%" stop-color="#FFD869" />
      <stop offset="100%" stop-color="#FEC52B" />
    </linearGradient>
    <linearGradient gradientUnits="userSpaceOnUse" x1="5.4899983" y1="10.298686" x2="18.137999" y2="10.298686" id="gradient_5">
      <stop offset="0%" stop-color="#EBA600" />
      <stop offset="100%" stop-color="#C28200" />
    </linearGradient>
    <path d="M0 0L48 0L48 48L0 48L0 0Z" id="path_1" />
    <clipPath id="clip_1">
      <use xlink:href="#path_1" />
    </clipPath>
  </defs>
  <g id="3D Object" clip-path="url(#clip_1)">
    <path d="M0 0L48 0L48 48L0 48L0 0Z" id="3D-Object" fill="none" fill-rule="evenodd" stroke="none" />
    <path d="M16 13L16 43L14 43C13.7 43 13.3 42.9 13 42.8C12.8 42.7 12.6 42.5 12.4 42.3L5.4 33.5C5.2 33.1 5 32.6 5 32.2L5 6C5 5.7 5.1 5.5 5.3 5.3C5.5 5.1 5.7 5 6 5L8.5 5L16 13L16 13Z" id="Shape" fill="url(#gradient_1)" stroke="none" />
    <path d="M43 14L43 16L13 16L13 13L5.3 5.3C5.5 5.1 5.7 5 6 5L32.2 5C32.7 5 33.1 5.2 33.4 5.4L42.2 12.4C42.4 12.6 42.6 12.8 42.7 13C42.9 13.3 43 13.6 43 14L43 14Z" id="Shape" fill="url(#gradient_2)" stroke="none" />
    <path d="M43 14L43 37L37 43L14 43C13.7 43 13.3 42.9 13 42.8L13 13L42.8 13C42.9 13.3 43 13.6 43 14L43 14Z" id="Shape" fill="url(#gradient_3)" stroke="none" />
    <path d="M43 37L43 32.8L36.7 26.5C36.2 26 35.6 25.9 34.9 26.2C34.3 26.5 33.9 27 33.9 27.7L33.9 43L36.9 43L43 37L43 37Z" id="Shape" fill="#000000" fill-opacity="0.05" stroke="none" />
    <path d="M43 37L43 33.5L36.3 26.8C36 26.5 35.5 26.4 35.1 26.6C34.7 26.8 34.4 27.2 34.4 27.6L34.4 43L37 43L43 37L43 37Z" id="Shape" fill="#000000" fill-opacity="0.05" stroke="none" />
    <path d="M35 27.5L35 44.5C35 45 35.6 45.3 36 45L39.9 41.7L42.5 47.6C42.6 47.9 43 48 43.3 47.9L44.3 47.4L35.4 27C35.2 27.1 35 27.3 35 27.5L35 27.5Z" id="Shape" fill="url(#gradient_4)" stroke="none" />
    <path d="M45.5 46.3L43 40.4L47.5 40C48 40 48.2 39.3 47.9 39L36 27.1C35.8 26.9 35.6 26.9 35.4 27L44.3 47.5L45.3 47.1C45.5 46.9 45.7 46.6 45.5 46.3L45.5 46.3Z" id="Shape" fill="url(#gradient_5)" stroke="none" />
  </g>
</svg>