<?xml version="1.0" encoding="utf-8"?>
<svg width="48px" height="48px" viewBox="0 0 48 48" version="1.1" xmlns:xlink="http://www.w3.org/1999/xlink" xmlns="http://www.w3.org/2000/svg">
  <defs>
    <linearGradient gradientUnits="userSpaceOnUse" x1="0.5290003" y1="10.472" x2="5.6" y2="5.3999996" id="gradient_1">
      <stop offset="0%" stop-color="#3079D6" />
      <stop offset="100%" stop-color="#297CD2" />
    </linearGradient>
    <linearGradient gradientUnits="userSpaceOnUse" x1="1.745062" y1="10.8343115" x2="-15.685983" y2="-32.56481" id="gradient_2">
      <stop offset="0%" stop-color="#32BDEF" />
      <stop offset="100%" stop-color="#1EA2E4" />
    </linearGradient>
    <linearGradient gradientUnits="userSpaceOnUse" x1="27.294523" y1="4.82906" x2="-8.883808" y2="-3.198378" id="gradient_3">
      <stop offset="0%" stop-color="#A3FFFF" />
      <stop offset="22.300001%" stop-color="#9DFBFF" />
      <stop offset="52.999996%" stop-color="#8BF1FF" />
      <stop offset="88.5%" stop-color="#6EE0FF" />
      <stop offset="100%" stop-color="#63DAFF" />
    </linearGradient>
    <linearGradient gradientUnits="userSpaceOnUse" x1="-17.555258" y1="-45.288006" x2="-0.7491504" y2="-3.4453135" id="gradient_4">
      <stop offset="0%" stop-color="#076CB3" />
      <stop offset="100%" stop-color="#199AE0" />
    </linearGradient>
    <linearGradient gradientUnits="userSpaceOnUse" x1="-33.10359" y1="-9.277312" x2="-8.621411" y2="-9.277312" id="gradient_5">
      <stop offset="0%" stop-color="#FFD869" />
      <stop offset="100%" stop-color="#FEC52B" />
    </linearGradient>
    <linearGradient gradientUnits="userSpaceOnUse" x1="-16.810022" y1="-9.357541" x2="-9.701586" y2="-9.357541" id="gradient_6">
      <stop offset="0%" stop-color="#EBA600" />
      <stop offset="100%" stop-color="#C28200" />
    </linearGradient>
    <path d="M0 0L48 0L48 48L0 48L0 0Z" id="path_1" />
    <path d="M0 0L27 0L27 27L0 27L0 0Z" id="path_2" />
    <clipPath id="mask_1">
      <use xlink:href="#path_1" />
    </clipPath>
    <clipPath id="mask_2">
      <use xlink:href="#path_2" />
    </clipPath>
  </defs>
  <g id="File-Icon-2">
    <path d="M0 0L48 0L48 48L0 48L0 0Z" id="Background" fill="#FFFFFF" fill-opacity="0" fill-rule="evenodd" stroke="none" />
    <g clip-path="url(#mask_1)">
      <path d="M39 16L39 41C39 42.105 38.105 43 37 43L11 43C9.895 43 9 42.105 9 41L9 7C9 5.895 9.895 5 11 5L28 5L39 16L39 16Z" id="Shape" fill="#50E6FF" fill-rule="evenodd" stroke="none" />
      <path d="M28 5L28 14C28 15.105 28.895 16 30 16L39 16L28 5L28 5Z" id="Shape" fill="url(#gradient_1)" fill-rule="evenodd" stroke="none" />
    </g>
  </g>
  <g id="svg" transform="translate(10 15)">
    <path d="M0 0L27 0L27 27L0 27L0 0Z" id="Background" fill="#FFFFFF" fill-opacity="0" fill-rule="evenodd" stroke="none" />
    <g id="3D-Object-Icon">
      <path d="M0 0L26.977 0L26.977 27L0 27L0 0L0 0Z" id="Background" fill="#FFFFFF" fill-opacity="0" fill-rule="evenodd" stroke="none" />
      <path d="M8.99235 7.3125L8.99235 24.1875L7.86831 24.1875C7.69967 24.1875 7.4749 24.1313 7.30626 24.075C7.19387 24.0188 7.08148 23.9062 6.96904 23.7938L3.03491 18.8438C2.92251 18.6187 2.81011 18.3375 2.81011 18.1125L2.81011 3.375C2.81011 3.20625 2.8663 3.09375 2.97871 2.98125C3.09111 2.86875 3.20352 2.8125 3.37212 2.8125L4.77717 2.8125L8.99235 7.3125L8.99235 7.3125L8.99235 7.3125Z" id="Shape" fill="url(#gradient_2)" stroke="none" />
      <path d="M24.1669 7.875L24.1669 9L7.30626 9L7.30626 7.3125L2.97871 2.98125C3.09112 2.86875 3.20352 2.8125 3.37213 2.8125L18.0971 2.8125C18.3781 2.8125 18.6029 2.925 18.7715 3.0375L23.7173 6.975C23.8297 7.0875 23.9421 7.2 23.9983 7.3125C24.1107 7.48125 24.1669 7.65 24.1669 7.875L24.1669 7.875L24.1669 7.875Z" id="Shape#1" fill="url(#gradient_3)" stroke="none" />
      <path d="M24.1669 7.875L24.1669 20.8125L20.7948 24.1875L7.86831 24.1875C7.69967 24.1875 7.4749 24.1313 7.30626 24.075L7.30626 7.3125L24.0545 7.3125C24.1107 7.48125 24.1669 7.65 24.1669 7.875L24.1669 7.875L24.1669 7.875Z" id="Shape#2" fill="url(#gradient_4)" stroke="none" />
      <path d="M24.1669 20.8125L24.1669 18.45L20.6261 14.9062C20.3451 14.625 20.008 14.5687 19.6145 14.7375C19.2773 14.9062 19.0525 15.1875 19.0525 15.5813L19.0525 24.1875L20.7385 24.1875L24.1669 20.8125L24.1669 20.8125L24.1669 20.8125Z" id="Shape#3" fill="#000000" fill-opacity="0.050980393" stroke="none" />
      <path d="M24.1669 20.8125L24.1669 18.8437L20.4014 15.075C20.2327 14.9062 19.9517 14.85 19.7269 14.9625C19.5021 15.075 19.3335 15.3 19.3335 15.525L19.3335 24.1875L20.7948 24.1875L24.1669 20.8125L24.1669 20.8125L24.1669 20.8125Z" id="Shape#4" fill="#000000" fill-opacity="0.050980393" stroke="none" />
      <path d="M19.6707 15.4688L19.6707 25.0312C19.6707 25.3125 20.008 25.4813 20.2327 25.3125L22.4246 23.4562L23.8859 26.775C23.9421 26.9438 24.1669 27 24.3355 26.9438L24.8975 26.6625L19.8955 15.1875C19.7831 15.2438 19.6707 15.3562 19.6707 15.4688L19.6707 15.4688L19.6707 15.4688Z" id="Shape#5" fill="url(#gradient_5)" stroke="none" />
      <path d="M25.5719 26.0437L24.1669 22.725L26.696 22.5C26.977 22.5 27.0894 22.1062 26.9208 21.9375L20.2327 15.2437C20.1203 15.1312 20.0079 15.1312 19.8955 15.1875L24.8975 26.7187L25.4595 26.4937C25.5719 26.3812 25.6843 26.2125 25.5719 26.0437L25.5719 26.0437L25.5719 26.0437Z" id="Shape#6" fill="url(#gradient_6)" stroke="none" />
    </g>
  </g>
</svg>