<?xml version="1.0" encoding="utf-8"?>
<svg width="48px" height="48px" viewBox="0 0 48 48" version="1.1" xmlns:xlink="http://www.w3.org/1999/xlink" xmlns="http://www.w3.org/2000/svg">
  <defs>
    <linearGradient gradientUnits="userSpaceOnUse" x1="0.5290003" y1="10.472" x2="5.6" y2="5.3999996" id="gradient_1">
      <stop offset="0%" stop-color="#3079D6" />
      <stop offset="100%" stop-color="#297CD2" />
    </linearGradient>
    <linearGradient gradientUnits="userSpaceOnUse" x1="5.279208" y1="-3.7204583" x2="9.178499" y2="18.392647" id="gradient_2">
      <stop offset="0%" stop-color="#A235D4" />
      <stop offset="44.100002%" stop-color="#A033D1" />
      <stop offset="70.200005%" stop-color="#982CC9" />
      <stop offset="91.5%" stop-color="#8B21BB" />
      <stop offset="100%" stop-color="#831BB3" />
    </linearGradient>
    <linearGradient gradientUnits="userSpaceOnUse" x1="-6.0833573" y1="-23.404207" x2="-1.7635635" y2="1.0923301" id="gradient_3">
      <stop offset="0%" stop-color="#A235D4" />
      <stop offset="44.100002%" stop-color="#A033D1" />
      <stop offset="70.200005%" stop-color="#982CC9" />
      <stop offset="91.5%" stop-color="#8B21BB" />
      <stop offset="100%" stop-color="#831BB3" />
    </linearGradient>
    <linearGradient gradientUnits="userSpaceOnUse" x1="0.26341653" y1="-5.1620007" x2="4.178416" y2="17.041124" id="gradient_4">
      <stop offset="0%" stop-color="#A235D4" />
      <stop offset="44.100002%" stop-color="#A033D1" />
      <stop offset="70.200005%" stop-color="#982CC9" />
      <stop offset="91.5%" stop-color="#8B21BB" />
      <stop offset="100%" stop-color="#831BB3" />
    </linearGradient>
    <path d="M0 0L48 0L48 48L0 48L0 0Z" id="path_1" />
    <clipPath id="mask_1">
      <use xlink:href="#path_1" />
    </clipPath>
  </defs>
  <g id="File-Icon-2">
    <path d="M0 0L48 0L48 48L0 48L0 0Z" id="Background" fill="#FFFFFF" fill-opacity="0" fill-rule="evenodd" stroke="none" />
    <path d="M39 16L39 41C39 42.105 38.105 43 37 43L11 43C9.895 43 9 42.105 9 41L9 7C9 5.895 9.895 5 11 5L28 5L39 16L39 16Z" id="Shape" fill="#50E6FF" stroke="none" />
    <path d="M28 5L28 14C28 15.105 28.895 16 30 16L39 16L28 5L28 5Z" id="Shape" fill="url(#gradient_1)" stroke="none" />
  </g>
  <g id="svg" transform="translate(10 15)">
    <g id="Choose-Font-Icon">
      <path d="M0 0L29 0L29 29L0 29L0 0L0 0Z" id="Background" fill="#FFFFFF" fill-opacity="0" fill-rule="evenodd" stroke="none" />
      <path d="M6.64583 10.2708L4.83333 10.2708C4.49983 10.2708 4.22917 10.0002 4.22917 9.66667L4.22917 9.36458C4.22917 4.71008 8.02273 3.02083 10.5729 3.02083L24.1667 3.02083C24.5002 3.02083 24.7708 3.2915 24.7708 3.625L24.7708 5.4375C24.7708 5.771 24.5002 6.04167 24.1667 6.04167L10.5729 6.04167C10.0268 6.05013 7.25 6.24829 7.25 9.36458L7.25 9.66667C7.25 10.0002 6.97933 10.2708 6.64583 10.2708L6.64583 10.2708L6.64583 10.2708Z" id="Shape" fill="url(#gradient_2)" stroke="none" />
      <path d="M16.9167 15.7083L9.0625 15.7083C8.729 15.7083 8.45833 15.4377 8.45833 15.1042L8.45833 13.2917C8.45833 12.9582 8.729 12.6875 9.0625 12.6875L16.9167 12.6875C17.2502 12.6875 17.5208 12.9582 17.5208 13.2917L17.5208 15.1042C17.5208 15.4377 17.2502 15.7083 16.9167 15.7083L16.9167 15.7083L16.9167 15.7083Z" id="Shape#1" fill="url(#gradient_3)" stroke="none" />
      <path d="M6.11296 25.9792L4.83333 25.9792C4.49983 25.9792 4.22917 25.7085 4.22917 25.375L4.22917 22.9583C4.22917 22.6248 4.49983 22.3542 4.83333 22.3542L6.11296 22.3542C7.43427 22.3542 8.60212 21.4956 8.99604 20.2347L13.9786 4.2932L17.4387 5.37405L12.4561 21.3162C11.5891 24.0905 9.0196 25.9792 6.11296 25.9792L6.11296 25.9792L6.11296 25.9792Z" id="Shape#2" fill="url(#gradient_4)" stroke="none" />
    </g>
  </g>
</svg>