<?xml version="1.0" encoding="utf-8"?>
<svg width="48px" height="48px" viewBox="0 0 48 48" version="1.1" xmlns:xlink="http://www.w3.org/1999/xlink" xmlns="http://www.w3.org/2000/svg">
  <defs>
    <linearGradient gradientUnits="userSpaceOnUse" x1="-0.027002335" y1="1" x2="6.589999" y2="1" id="gradient_1">
      <stop offset="0%" stop-color="#6D7479" />
      <stop offset="42.5%" stop-color="#565C60" />
      <stop offset="100%" stop-color="#323538" />
    </linearGradient>
    <linearGradient gradientUnits="userSpaceOnUse" x1="11.027002" y1="1" x2="4.4100037" y2="1" id="gradient_2">
      <stop offset="0%" stop-color="#6D7479" />
      <stop offset="42.5%" stop-color="#565C60" />
      <stop offset="100%" stop-color="#323538" />
    </linearGradient>
    <linearGradient gradientUnits="userSpaceOnUse" x1="10.085772" y1="0.7887728" x2="4.822773" y2="3.0097735" id="gradient_3">
      <stop offset="0%" stop-color="#6D7479" />
      <stop offset="42.5%" stop-color="#565C60" />
      <stop offset="100%" stop-color="#323538" />
    </linearGradient>
    <linearGradient gradientUnits="userSpaceOnUse" x1="9.374058" y1="6.2820506" x2="4.9320593" y2="3.7230496" id="gradient_4">
      <stop offset="0%" stop-color="#6D7479" />
      <stop offset="42.5%" stop-color="#565C60" />
      <stop offset="100%" stop-color="#323538" />
    </linearGradient>
    <linearGradient gradientUnits="userSpaceOnUse" x1="0.07177091" y1="0.7887728" x2="5.334773" y2="3.0097735" id="gradient_5">
      <stop offset="0%" stop-color="#6D7479" />
      <stop offset="42.5%" stop-color="#565C60" />
      <stop offset="100%" stop-color="#323538" />
    </linearGradient>
    <linearGradient gradientUnits="userSpaceOnUse" x1="-0.0016580385" y1="6.2820506" x2="4.4403434" y2="3.7230496" id="gradient_6">
      <stop offset="0%" stop-color="#6D7479" />
      <stop offset="42.5%" stop-color="#565C60" />
      <stop offset="100%" stop-color="#323538" />
    </linearGradient>
    <linearGradient gradientUnits="userSpaceOnUse" x1="1.0564998" y1="-0.2884998" x2="4.215499" y2="4.7195" id="gradient_7">
      <stop offset="0%" stop-color="#6D7479" />
      <stop offset="42.5%" stop-color="#565C60" />
      <stop offset="100%" stop-color="#323538" />
    </linearGradient>
    <linearGradient gradientUnits="userSpaceOnUse" x1="5.830001" y1="0.124500416" x2="2.1159997" y2="4.5855007" id="gradient_8">
      <stop offset="0%" stop-color="#6D7479" />
      <stop offset="42.5%" stop-color="#565C60" />
      <stop offset="100%" stop-color="#323538" />
    </linearGradient>
    <linearGradient gradientUnits="userSpaceOnUse" x1="15.000002" y1="0.12999988" x2="15.000002" y2="30.660997" id="gradient_9">
      <stop offset="0%" stop-color="#FED100" />
      <stop offset="100%" stop-color="#E36001" />
    </linearGradient>
    <linearGradient gradientUnits="userSpaceOnUse" x1="1" y1="-0.25599897" x2="1" y2="29.105" id="gradient_10">
      <stop offset="0%" stop-color="#DBB500" />
      <stop offset="99.8%" stop-color="#B54C01" />
    </linearGradient>
    <linearGradient gradientUnits="userSpaceOnUse" x1="12.128001" y1="0.15999985" x2="12.128001" y2="11.316" id="gradient_11">
      <stop offset="0%" stop-color="#6D7479" />
      <stop offset="51.2%" stop-color="#4D5256" />
      <stop offset="100%" stop-color="#323538" />
    </linearGradient>
    <path d="M0 0L48 0L48 48L0 48L0 0Z" id="path_1" />
    <clipPath id="clip_1">
      <use xlink:href="#path_1" />
    </clipPath>
  </defs>
  <g id="Bug" clip-path="url(#clip_1)">
    <path d="M0 0L48 0L48 48L0 48L0 0Z" id="Bug" fill="none" fill-rule="evenodd" stroke="none" />
    <path d="M4 28L13 28C13.552 28 14 27.552 14 27C14 26.448 13.552 26 13 26L4 26C3.448 26 3 26.448 3 27C3 27.552 3.448 28 4 28L4 28Z" id="Shape" fill="url(#gradient_1)" stroke="none" />
    <path d="M44 26L35 26C34.448 26 34 26.448 34 27C34 27.552 34.448 28 35 28L44 28C44.552 28 45 27.552 45 27C45 26.448 44.552 26 44 26L44 26Z" id="Shape" fill="url(#gradient_2)" stroke="none" />
    <path d="M42.422 16.907L34.265 20.711C33.764 20.944 33.169 20.728 32.936 20.227C32.703 19.726 32.919 19.131 33.42 18.898L41.577 15.094C42.078 14.861 42.673 15.077 42.906 15.578C43.139 16.079 42.923 16.673 42.422 16.907L42.422 16.907Z" id="Shape" fill="url(#gradient_3)" stroke="none" />
    <path d="M41.639 36.796L34.267 31.634C33.815 31.317 33.191 31.427 32.874 31.88C32.557 32.333 32.667 32.956 33.12 33.273L40.492 38.435C40.944 38.752 41.568 38.642 41.885 38.189C42.202 37.736 42.091 37.113 41.639 36.796L41.639 36.796Z" id="Shape" fill="url(#gradient_4)" stroke="none" />
    <path d="M5.578 16.907L13.735 20.711C14.236 20.944 14.831 20.728 15.064 20.227C15.297 19.726 15.081 19.131 14.58 18.898L6.423 15.094C5.922 14.861 5.327 15.077 5.094 15.578C4.861 16.078 5.077 16.673 5.578 16.907L5.578 16.907Z" id="Shape" fill="url(#gradient_5)" stroke="none" />
    <path d="M6.361 36.796L13.733 31.634C14.185 31.317 14.809 31.427 15.126 31.88C15.443 32.333 15.333 32.956 14.88 33.273L7.508 38.435C7.056 38.752 6.432 38.642 6.115 38.189C5.799 37.737 5.909 37.113 6.361 36.796L6.361 36.796Z" id="Shape" fill="url(#gradient_6)" stroke="none" />
    <path d="M17.086 10.5L12.293 5.707C11.903 5.317 11.903 4.683 12.293 4.293L12.293 4.293C12.683 3.903 13.317 3.903 13.707 4.293L18.5 9.086L17.086 10.5L17.086 10.5Z" id="Shape" fill="url(#gradient_7)" stroke="none" />
    <path d="M30.914 10.5L35.707 5.707C36.097 5.317 36.097 4.683 35.707 4.293L35.707 4.293C35.317 3.903 34.683 3.903 34.293 4.293L29.5 9.086L30.914 10.5L30.914 10.5Z" id="Shape" fill="url(#gradient_8)" stroke="none" />
    <path d="M12.375 13C10.267 16.272 9 20.448 9 25C9 35.493 15.716 44 24 44C32.284 44 39 35.493 39 25C39 20.448 37.733 16.272 35.625 13L12.375 13L12.375 13Z" id="Shape" fill="url(#gradient_9)" stroke="none" />
    <path d="M23 43.936C23.332 43.964 23.662 44 24 44C24.338 44 24.668 43.964 25 43.936L25 15.5L23 15.5L23 43.936L23 43.936Z" id="Shape" fill="url(#gradient_10)" stroke="none" />
    <path d="M24 17C28.483 17 32.65 15.839 36.128 13.851C33.401 9.101 28.991 6 24 6C19.009 6 14.599 9.101 11.872 13.851C15.35 15.839 19.517 17 24 17L24 17Z" id="Shape" fill="url(#gradient_11)" stroke="none" />
  </g>
</svg>