<?xml version="1.0" encoding="utf-8"?>
<svg width="60px" height="60px" viewBox="0 0 60 60" version="1.1" xmlns:xlink="http://www.w3.org/1999/xlink" xmlns="http://www.w3.org/2000/svg">
  <defs>
    <linearGradient gradientUnits="userSpaceOnUse" x1="0.5290003" y1="10.472" x2="5.6" y2="5.3999996" id="gradient_1">
      <stop offset="0%" stop-color="#3079D6" />
      <stop offset="100%" stop-color="#297CD2" />
    </linearGradient>
    <path d="M0 0L48 0L48 48L0 48L0 0Z" id="path_1" />
    <clipPath id="mask_1">
      <use xlink:href="#path_1" />
    </clipPath>
  </defs>
  <g id="File-Icon-2" transform="translate(6 4)">
    <path d="M0 0L48 0L48 48L0 48L0 0Z" id="Background" fill="#FFFFFF" fill-opacity="0" fill-rule="evenodd" stroke="none" />
    <path d="M39 16L39 41C39 42.105 38.105 43 37 43L11 43C9.895 43 9 42.105 9 41L9 7C9 5.895 9.895 5 11 5L28 5L39 16L39 16Z" id="Shape" fill="#50E6FF" stroke="none" />
    <path d="M28 5L28 14C28 15.105 28.895 16 30 16L39 16L28 5L28 5Z" id="Shape" fill="url(#gradient_1)" stroke="none" />
  </g>
  <g id="svg-2" transform="translate(15 19)">
    <g id="Adobe-Acrobat-Reader-Icon">
      <path d="M0 0L29 0L29 29L0 29L0 0L0 0Z" id="Background" fill="#FFFFFF" fill-opacity="0" fill-rule="evenodd" stroke="none" />
      <path d="M22.9583 25.375L6.04167 25.375C4.70706 25.375 3.625 24.2929 3.625 22.9583L3.625 6.04167C3.625 4.70706 4.70706 3.625 6.04167 3.625L22.9583 3.625C24.2929 3.625 25.375 4.70706 25.375 6.04167L25.375 22.9583C25.375 24.2929 24.2929 25.375 22.9583 25.375L22.9583 25.375L22.9583 25.375Z" id="Shape" fill="#B30B00" stroke="none" />
      <path d="M21.2914 16.1911C20.2692 15.1295 17.4767 15.5621 16.8085 15.6407C15.8255 14.697 15.1567 13.5563 14.9211 13.163C15.2751 12.1015 15.5108 11.0393 15.55 9.89928C15.55 8.9163 15.1567 7.85417 14.0559 7.85417C13.6626 7.85417 13.3086 8.0904 13.1122 8.40457C12.6404 9.23046 12.8367 10.8823 13.5841 12.5727C13.1515 13.7919 12.7582 14.9713 11.6574 17.0556C10.5167 17.5275 8.11819 18.6289 7.92183 19.8082C7.84329 20.1623 7.9611 20.5163 8.2366 20.7912C8.5115 21.028 8.86493 21.1458 9.21898 21.1458C10.6738 21.1458 12.0894 19.14 13.073 17.4495C13.8989 17.174 15.1966 16.7807 16.4944 16.5451C18.0277 17.8821 19.3647 18.0785 20.0728 18.0785C21.0165 18.0785 21.3706 17.6852 21.4884 17.3311C21.6847 16.9384 21.5669 16.5058 21.2914 16.1911L21.2914 16.1911L21.2914 16.1911ZM20.3084 16.8593C20.2692 17.1348 19.9151 17.4097 19.2862 17.2526C18.5388 17.0562 17.8706 16.7022 17.2804 16.2303C17.7915 16.1518 18.9322 16.034 19.7581 16.1911C20.0728 16.2696 20.387 16.466 20.3084 16.8593L20.3084 16.8593L20.3084 16.8593ZM13.7412 8.75861C13.8197 8.64079 13.9375 8.56225 14.0559 8.56225C14.41 8.56225 14.4885 8.99484 14.4885 9.34888C14.4493 10.1748 14.2922 11.0007 14.0167 11.7873C13.427 10.2134 13.5448 9.11265 13.7412 8.75861L13.7412 8.75861L13.7412 8.75861ZM13.6626 16.3874C13.9774 15.7585 14.41 14.6571 14.5671 14.1852C14.9211 14.7749 15.5108 15.483 15.8255 15.7978C15.8255 15.837 14.6063 16.0733 13.6626 16.3874L13.6626 16.3874L13.6626 16.3874ZM11.3426 17.9607C10.4382 19.4548 9.49448 20.3991 8.98335 20.3991C8.90481 20.3991 8.82627 20.3598 8.74712 20.3205C8.62931 20.242 8.59004 20.1242 8.62931 19.9665C8.74712 19.4155 9.76937 18.6681 11.3426 17.9607L11.3426 17.9607L11.3426 17.9607Z" id="Shape#1" fill="#FFFFFF" fill-rule="evenodd" stroke="none" />
    </g>
  </g>
</svg>