<?xml version="1.0" encoding="utf-8"?>
<svg width="82px" height="82px" viewBox="0 0 82 82" version="1.1" xmlns:xlink="http://www.w3.org/1999/xlink" xmlns="http://www.w3.org/2000/svg">
  <defs>
    <linearGradient x1="0.059000254" y1="0.941" x2="0.5046363" y2="0.49536368" id="gradient_1">
      <stop offset="0" stop-color="#3079D6" />
      <stop offset="1" stop-color="#297CD2" />
    </linearGradient>
    <path d="M0 0L82 0L82 82L0 82L0 0Z" id="path_1" />
    <clipPath id="mask_1">
      <use xlink:href="#path_1" />
    </clipPath>
  </defs>
  <g id="icons8_pdf_5">
    <path d="M0 0L82 0L82 82L0 82L0 0Z" id="Background" fill="none" fill-rule="evenodd" stroke="none" />
    <g clip-path="url(#mask_1)">
      <path d="M51.25 18.7917L51.25 61.5C51.25 63.3877 49.721 64.9167 47.8333 64.9167L3.41667 64.9167C1.52896 64.9167 0 63.3877 0 61.5L0 3.41667C0 1.52896 1.52896 0 3.41667 0L32.4583 0L51.25 18.7917L51.25 18.7917Z" transform="translate(15.375 8.541672)" id="Shape" fill="#50E6FF" fill-rule="evenodd" stroke="none" />
      <path d="M0 0L0 15.375C0 17.2627 1.52896 18.7917 3.41667 18.7917L18.7917 18.7917L0 0L0 0Z" transform="translate(47.833344 8.541672)" id="Shape" fill="url(#gradient_1)" fill-rule="evenodd" stroke="none" />
      <path d="M3.55824 35.875C2.87491 35.875 2.36241 35.7042 1.84991 35.5333C-0.0292571 34.5083 -0.200089 32.9708 0.141577 31.775C0.82491 29.725 4.58324 27.1625 9.53741 24.9417L9.53741 24.9417C11.7582 20.8417 13.4666 16.5708 14.4916 12.9833C12.7832 9.7375 11.9291 6.6625 11.9291 4.44166C11.9291 3.24583 12.2707 2.22083 12.7832 1.36667C13.4666 0.512499 14.4916 0 15.8582 0C17.3957 0 18.5916 0.854167 19.1041 2.39167C19.9582 4.44167 19.4457 8.2 18.2499 12.4708C19.9582 15.375 22.0082 18.1083 24.2291 20.1583C27.4749 19.475 30.3791 19.1333 32.2582 19.475C35.5041 19.9875 36.0166 22.2083 36.0166 23.0625C36.0166 26.65 32.2582 26.65 30.8916 26.65C28.3291 26.65 25.7666 25.625 23.5457 23.7458L23.5457 23.7458C19.4457 24.7708 15.3457 26.1375 12.0999 27.675C10.3916 30.5792 8.68324 32.9708 7.14574 34.3375C5.60825 35.5333 4.41241 35.875 3.55824 35.875L3.55824 35.875ZM5.60823 30.9208C4.75407 31.4902 4.07073 32.0597 3.72906 32.6291C4.07073 32.4393 4.75407 32.0597 5.60823 30.9208L5.60823 30.9208ZM28.8416 23.2574C29.5249 23.8556 30.2082 24.4538 30.8916 24.4538C31.9166 24.4538 32.4291 23.8556 32.5999 23.8556L32.5999 23.8556C32.4291 23.2574 31.2333 22.061 28.8416 23.2574L28.8416 23.2574ZM16.8832 16.7417C16.1999 18.7917 15.1749 21.0125 14.3207 23.0625C16.3707 22.3792 18.4207 21.6958 20.4707 21.1833C19.1041 19.8167 17.9082 18.2792 16.8832 16.7417L16.8832 16.7417ZM16.446 3.41667C15.9649 3.41667 15.9649 3.41667 15.9649 3.41667C15.4839 3.58751 15.0028 4.78334 16.927 7.34584C17.408 5.29584 17.408 3.75834 16.446 3.41667L16.446 3.41667Z" transform="translate(23.775085 29.041672)" id="Shape" fill="#E52030" fill-rule="evenodd" stroke="none" />
    </g>
  </g>
</svg>