<?xml version="1.0" encoding="utf-8"?>
<svg width="48px" height="48px" viewBox="0 0 48 48" version="1.1" xmlns:xlink="http://www.w3.org/1999/xlink" xmlns="http://www.w3.org/2000/svg">
  <defs>
    <path d="M0 0L48 0L48 48L0 48L0 0Z" id="path_1" />
    <clipPath id="clip_1">
      <use xlink:href="#path_1" />
    </clipPath>
  </defs>
  <g id="Adobe Acrobat Reader" clip-path="url(#clip_1)">
    <path d="M0 0L48 0L48 48L0 48L0 0Z" id="Adobe-Acrobat-Reader" fill="none" fill-rule="evenodd" stroke="none" />
    <path d="M38 42L10 42C7.791 42 6 40.209 6 38L6 10C6 7.791 7.791 6 10 6L38 6C40.209 6 42 7.791 42 10L42 38C42 40.209 40.209 42 38 42L38 42Z" id="Shape" fill="#B30B00" stroke="none" />
    <path d="M35.241 26.799C33.549 25.042 28.927 25.758 27.821 25.888C26.194 24.326 25.087 22.438 24.697 21.787C25.283 20.03 25.673 18.272 25.738 16.385C25.738 14.758 25.087 13 23.265 13C22.614 13 22.028 13.391 21.703 13.911C20.922 15.278 21.247 18.012 22.484 20.81C21.768 22.828 21.117 24.78 19.295 28.23C17.407 29.011 13.437 30.834 13.112 32.786C12.982 33.372 13.177 33.958 13.633 34.413C14.088 34.805 14.673 35 15.259 35C17.667 35 20.01 31.68 21.638 28.882C23.005 28.426 25.153 27.775 27.301 27.385C29.839 29.598 32.052 29.923 33.224 29.923C34.786 29.923 35.372 29.272 35.567 28.686C35.892 28.036 35.697 27.32 35.241 26.799L35.241 26.799ZM33.614 27.905C33.549 28.361 32.963 28.816 31.922 28.556C30.685 28.231 29.579 27.645 28.602 26.864C29.448 26.734 31.336 26.539 32.703 26.799C33.224 26.929 33.744 27.254 33.614 27.905L33.614 27.905ZM22.744 14.497C22.874 14.302 23.069 14.172 23.265 14.172C23.851 14.172 23.981 14.888 23.981 15.474C23.916 16.841 23.656 18.208 23.2 19.51C22.224 16.905 22.419 15.083 22.744 14.497L22.744 14.497ZM22.614 27.124C23.135 26.083 23.851 24.26 24.111 23.479C24.697 24.455 25.673 25.627 26.194 26.148C26.194 26.213 24.176 26.604 22.614 27.124L22.614 27.124ZM18.774 29.728C17.277 32.201 15.715 33.764 14.869 33.764C14.739 33.764 14.609 33.699 14.478 33.634C14.283 33.504 14.218 33.309 14.283 33.048C14.478 32.136 16.17 30.899 18.774 29.728L18.774 29.728Z" id="Shape" fill="#FFFFFF" fill-rule="evenodd" stroke="none" />
  </g>
</svg>