<?xml version="1.0" encoding="utf-8"?>
<svg width="48px" height="48px" viewBox="0 0 48 48" version="1.1" xmlns:xlink="http://www.w3.org/1999/xlink" xmlns="http://www.w3.org/2000/svg">
  <defs>
    <linearGradient gradientUnits="userSpaceOnUse" x1="-2.0350003" y1="-1.587" x2="37.922" y2="37.477005" id="gradient_1">
      <stop offset="0%" stop-color="#7DD8F3" />
      <stop offset="100%" stop-color="#45B0D0" />
    </linearGradient>
    <path d="M0 0L48 0L48 48L0 48L0 0Z" id="path_1" />
    <clipPath id="clip_1">
      <use xlink:href="#path_1" />
    </clipPath>
  </defs>
  <g id="PHP" clip-path="url(#clip_1)">
    <path d="M0 0L48 0L48 48L0 48L0 0Z" id="PHP" fill="none" fill-rule="evenodd" stroke="none" />
    <path d="M40 42L8 42C6.9 42 6 41.1 6 40L6 8C6 6.9 6.9 6 8 6L40 6C41.1 6 42 6.9 42 8L42 40C42 41.1 41.1 42 40 42L40 42Z" id="Shape" fill="url(#gradient_1)" stroke="none" />
    <g id="Group" transform="translate(10 17.8)" opacity="0.05">
      <path d="M15.7 4.2L13.4 4.2L13.4 0.1L9.1 0.1L9.1 2.2C8.5 1.1 7.3 0.1 4.7 0.1L0 0.1L0 12.5L4.3 12.5L4.3 8.9L4.4 8.9C5.9 8.9 7.1 8.5 8.1 7.7C8.5 7.3 8.8 6.9 9.1 6.4L9.1 12.4L13.4 12.4L13.4 8.2L15.7 8.2L15.7 12.4L20 12.4L20 0L15.7 0L15.7 4.2L15.7 4.2ZM4.3 5L4.3 3.8C5.1 3.8 5.1 4.1 5.1 4.4C5.1 4.8 5.1 5 4.3 5L4.3 5Z" id="Shape" fill="#000000" fill-rule="evenodd" stroke="none" />
      <path d="M25.1 0L20.4 0L20.4 12.4L24.7 12.4L24.7 8.8L24.8 8.8C26.3 8.8 27.5 8.4 28.5 7.6C29.5 6.8 30 5.7 30 4.3C30 2.7 29.4 0 25.1 0L25.1 0ZM24.8 5L24.8 3.8C25.6 3.8 25.6 4.1 25.6 4.4C25.5 4.8 25.5 5 24.8 5L24.8 5Z" id="Shape" fill="#000000" fill-rule="evenodd" stroke="none" />
    </g>
    <path d="M10.5 29.7L10.5 18.3L14.7 18.3C18.3 18.3 19.1 20.4 19.1 22.1C19.1 23.3 18.7 24.3 17.8 25C17 25.7 15.8 26.1 14.5 26.1L13.9 26.1L13.9 29.7L10.5 29.7L10.5 29.7ZM14.3 23.3C15.5 23.3 15.7 22.8 15.7 22.2C15.7 21.6 15.5 21.1 14.3 21.1L13.9 21.1L13.9 23.3L14.3 23.3L14.3 23.3Z" id="Shape" fill="#000000" fill-opacity="0.07" fill-rule="evenodd" stroke="none" />
    <path d="M13.3 25.6L13.3 29.2L11 29.2L11 18.8L14.7 18.8C17.3 18.8 18.6 19.9 18.6 22.1C18.6 23.1 18.2 24 17.5 24.6C16.8 25.2 15.8 25.6 14.5 25.6L13.3 25.6L13.3 25.6ZM13.3 20.6L13.3 23.8L14.2 23.8C15.4 23.8 16.1 23.3 16.1 22.2C16.1 21.1 15.5 20.6 14.2 20.6L13.3 20.6L13.3 20.6Z" id="Shape" fill="#FFFFFF" fill-rule="evenodd" stroke="none" />
    <path d="M26.2 29.7L26.2 25.5L22.9 25.5L22.9 29.7L19.6 29.7L19.6 18.3L22.9 18.3L22.9 22.5L26.2 22.5L26.2 18.3L29.6 18.3L29.6 29.7L26.2 29.7Z" id="Polygon" fill="#000000" fill-opacity="0.07" fill-rule="evenodd" stroke="none" />
    <path d="M29.1 29.2L26.8 29.2L26.8 25L22.5 25L22.5 29.2L20.2 29.2L20.2 18.8L22.5 18.8L22.5 23L26.8 23L26.8 18.9L29.1 18.9L29.1 29.2L29.1 29.2Z" id="Shape" fill="#FFFFFF" stroke="none" />
  </g>
</svg>