<?xml version="1.0" encoding="utf-8"?>
<svg width="48px" height="48px" viewBox="0 0 48 48" version="1.1" xmlns:xlink="http://www.w3.org/1999/xlink" xmlns="http://www.w3.org/2000/svg">
  <defs>
    <linearGradient x1="0.5" y1="-0.008588225" x2="0.5" y2="0.23461767" id="gradient_1">
      <stop offset="0" stop-color="#EBA600" />
      <stop offset="1" stop-color="#C28200" />
    </linearGradient>
    <linearGradient x1="0.5" y1="-0.0048666596" x2="0.5" y2="0.9994334" id="gradient_2">
      <stop offset="0" stop-color="#FFD869" />
      <stop offset="1" stop-color="#FEC52B" />
    </linearGradient>
    <linearGradient x1="0.5" y1="-0.0021919012" x2="0.5" y2="1.0174171" id="gradient_3">
      <stop offset="0" stop-color="#C26715" />
      <stop offset="0.508" stop-color="#B85515" />
      <stop offset="1" stop-color="#AD3F16" />
    </linearGradient>
    <path d="M0 0L48 0L48 48L0 48L0 0Z" id="path_1" />
    <clipPath id="mask_1">
      <use xlink:href="#path_1" />
    </clipPath>
  </defs>
  <g id="icons8_pictures_folder">
    <path d="M0 0L48 0L48 48L0 48L0 0Z" id="Background" fill="none" fill-rule="evenodd" stroke="none" />
    <g clip-path="url(#mask_1)">
      <path d="M21.414 3.414L18.878 0.877999C18.316 0.316 17.553 0 16.757 0L2 0C0.895 0 0 0.895 0 2L0 32C0 33.105 0.895 34 2 34L40 34C41.105 34 42 33.105 42 32L42 6C42 4.895 41.105 4 40 4L22.828 4C22.298 4 21.789 3.789 21.414 3.414L21.414 3.414Z" transform="translate(3 7)" id="Shape" fill="url(#gradient_1)" fill-rule="evenodd" stroke="none" />
      <path d="M18.586 3.414L21.854 0.146C21.947 0.0530005 22.074 0 22.207 0L40 0C41.105 0 42 0.895001 42 2L42 28C42 29.105 41.105 30 40 30L2 30C0.895 30 0 29.105 0 28L0 4.5C0 4.224 0.224 4 0.5 4L17.172 4C17.702 4 18.211 3.789 18.586 3.414L18.586 3.414Z" transform="translate(3 11)" id="Shape" fill="url(#gradient_2)" fill-rule="evenodd" stroke="none" />
      <path d="M14.334 6.95454L7.907 0.52754C7.217 -0.16246 6.102 -0.17746 5.394 0.49354L0 5.60354L0 9.95454L13.334 9.95454C13.886 9.95454 14.334 9.50654 14.334 8.95454L14.334 6.95454L14.334 6.95454Z" transform="translate(21.666 24.04546)" id="Shape" fill="#D6742D" fill-rule="evenodd" stroke="none" />
      <path d="M0 2C0 0.89543 0.89543 0 2 0C3.10457 0 4 0.89543 4 2C4 3.10457 3.10457 4 2 4C0.89543 4 0 3.10457 0 2Z" transform="translate(30 18)" id="Circle" fill="#FFFFFF" fill-rule="evenodd" stroke="none" />
      <path d="M19.556 11.9997L8.215 0.658697C7.353 -0.203302 5.963 -0.221302 5.078 0.616697L0 5.4267L0 10.9997C0 11.5517 0.448 11.9997 1 11.9997L19.556 11.9997L19.556 11.9997Z" transform="translate(12 22.000303)" id="Shape" fill="url(#gradient_3)" fill-rule="evenodd" stroke="none" />
    </g>
  </g>
</svg>