<?xml version="1.0" encoding="utf-8"?>
<svg width="48px" height="48px" viewBox="0 0 48 48" version="1.1" xmlns:xlink="http://www.w3.org/1999/xlink" xmlns="http://www.w3.org/2000/svg">
  <defs>
    <linearGradient gradientUnits="userSpaceOnUse" x1="8.864001" y1="-2.798996" x2="28.071997" y2="24.985992" id="gradient_1">
      <stop offset="0%" stop-color="#7DD8F3" />
      <stop offset="100%" stop-color="#45B0D0" />
    </linearGradient>
    <linearGradient gradientUnits="userSpaceOnUse" x1="0.80799997" y1="-1.2199783" x2="38.75" y2="6.49498" id="gradient_2">
      <stop offset="0%" stop-color="#0077D2" />
      <stop offset="100%" stop-color="#0B59A2" />
    </linearGradient>
    <path d="M0 0L48 0L48 48L0 48L0 0Z" id="path_1" />
    <clipPath id="clip_1">
      <use xlink:href="#path_1" />
    </clipPath>
  </defs>
  <g id="Bullet List" clip-path="url(#clip_1)">
    <path d="M0 0L48 0L48 48L0 48L0 0Z" id="Bullet-List" fill="none" fill-rule="evenodd" stroke="none" />
    <path d="M4 38L4 12L44 12L44 38C44 39.1 43.1 40 42 40L6 40C4.9 40 4 39.1 4 38L4 38Z" id="Shape" fill="url(#gradient_1)" stroke="none" />
    <path d="M38.5 25L15.5 25C15.224 25 15 24.776 15 24.5L15 23.5C15 23.224 15.224 23 15.5 23L38.5 23C38.776 23 39 23.224 39 23.5L39 24.5C39 24.776 38.776 25 38.5 25L38.5 25Z" id="Shape" fill="#0D86AD" stroke="none" />
    <path d="M38.5 30L15.5 30C15.224 30 15 29.776 15 29.5L15 28.5C15 28.224 15.224 28 15.5 28L38.5 28C38.776 28 39 28.224 39 28.5L39 29.5C39 29.776 38.776 30 38.5 30L38.5 30Z" id="Shape" fill="#0D86AD" stroke="none" />
    <path d="M38.5 35L15.5 35C15.224 35 15 34.776 15 34.5L15 33.5C15 33.224 15.224 33 15.5 33L38.5 33C38.776 33 39 33.224 39 33.5L39 34.5C39 34.776 38.776 35 38.5 35L38.5 35Z" id="Shape" fill="#0D86AD" stroke="none" />
    <path d="M44 10L44 13L4 13L4 10C4 8.9 4.9 8 6 8L42 8C43.1 8 44 8.9 44 10L44 10Z" id="Shape" fill="url(#gradient_2)" stroke="none" />
    <path d="M9.5 25L10.5 25C10.776 25 11 24.776 11 24.5L11 23.5C11 23.224 10.776 23 10.5 23L9.5 23C9.224 23 9 23.224 9 23.5L9 24.5C9 24.776 9.224 25 9.5 25L9.5 25Z" id="Shape" fill="#0D86AD" stroke="none" />
    <path d="M9.5 30L10.5 30C10.776 30 11 29.776 11 29.5L11 28.5C11 28.224 10.776 28 10.5 28L9.5 28C9.224 28 9 28.224 9 28.5L9 29.5C9 29.776 9.224 30 9.5 30L9.5 30Z" id="Shape" fill="#0D86AD" stroke="none" />
    <path d="M9.5 35L10.5 35C10.776 35 11 34.776 11 34.5L11 33.5C11 33.224 10.776 33 10.5 33L9.5 33C9.224 33 9 33.224 9 33.5L9 34.5C9 34.776 9.224 35 9.5 35L9.5 35Z" id="Shape" fill="#0D86AD" stroke="none" />
    <path d="M38.5 20L9.5 20C9.224 20 9 19.776 9 19.5L9 17.5C9 17.224 9.224 17 9.5 17L38.5 17C38.776 17 39 17.224 39 17.5L39 19.5C39 19.776 38.776 20 38.5 20L38.5 20Z" id="Shape" fill="#0D86AD" stroke="none" />
  </g>
</svg>