<?xml version="1.0" encoding="utf-8"?>
<svg width="48px" height="48px" viewBox="0 0 48 48" version="1.1" xmlns:xlink="http://www.w3.org/1999/xlink" xmlns="http://www.w3.org/2000/svg">
  <defs>
    <linearGradient gradientUnits="userSpaceOnUse" x1="0.5290003" y1="10.472" x2="5.6" y2="5.3999996" id="gradient_1">
      <stop offset="0%" stop-color="#3079D6" />
      <stop offset="100%" stop-color="#297CD2" />
    </linearGradient>
    <linearGradient gradientUnits="userSpaceOnUse" x1="3.27373" y1="-10.333984" x2="15.4522085" y2="7.2817717" id="gradient_2">
      <stop offset="0%" stop-color="#7DD8F3" />
      <stop offset="100%" stop-color="#45B0D0" />
    </linearGradient>
    <linearGradient gradientUnits="userSpaceOnUse" x1="-2.0615003" y1="-5.9545884" x2="22.44271" y2="-0.97198004" id="gradient_3">
      <stop offset="0%" stop-color="#0077D2" />
      <stop offset="100%" stop-color="#0B59A2" />
    </linearGradient>
    <path d="M0 0L48 0L48 48L0 48L0 0Z" id="path_1" />
    <clipPath id="mask_1">
      <use xlink:href="#path_1" />
    </clipPath>
  </defs>
  <g id="File-Icon-2">
    <path d="M0 0L48 0L48 48L0 48L0 0Z" id="Background" fill="#FFFFFF" fill-opacity="0" fill-rule="evenodd" stroke="none" />
    <g clip-path="url(#mask_1)">
      <path d="M39 16L39 41C39 42.105 38.105 43 37 43L11 43C9.895 43 9 42.105 9 41L9 7C9 5.895 9.895 5 11 5L28 5L39 16L39 16Z" id="Shape" fill="#50E6FF" fill-rule="evenodd" stroke="none" />
      <path d="M28 5L28 14C28 15.105 28.895 16 30 16L39 16L28 5L28 5Z" id="Shape" fill="url(#gradient_1)" fill-rule="evenodd" stroke="none" />
    </g>
  </g>
  <g id="svg" transform="translate(8.5 14)">
    <g id="New-Property-Icon">
      <path d="M0 0L31 0L31 31L0 31L0 0L0 0Z" id="Background" fill="#FFFFFF" fill-opacity="0" fill-rule="evenodd" stroke="none" />
      <path d="M2.58333 24.5417L2.58333 8.39583L28.4167 8.39583L28.4167 24.5417C28.4167 25.2521 27.8354 25.8333 27.125 25.8333L3.875 25.8333C3.16458 25.8333 2.58333 25.2521 2.58333 24.5417L2.58333 24.5417L2.58333 24.5417Z" id="Shape" fill="url(#gradient_2)" stroke="none" />
      <path d="M24.8646 14.2083L10.0104 14.2083C9.81667 14.2083 9.6875 14.0792 9.6875 13.8854L9.6875 13.2396C9.6875 13.0458 9.81667 12.9167 10.0104 12.9167L24.8646 12.9167C25.0583 12.9167 25.1875 13.0458 25.1875 13.2396L25.1875 13.8854C25.1875 14.0792 25.0583 14.2083 24.8646 14.2083L24.8646 14.2083L24.8646 14.2083Z" id="Shape#1" fill="#0F94BF" stroke="none" />
      <path d="M24.8646 17.4375L10.0104 17.4375C9.81667 17.4375 9.6875 17.3083 9.6875 17.1146L9.6875 16.4688C9.6875 16.275 9.81667 16.1458 10.0104 16.1458L24.8646 16.1458C25.0583 16.1458 25.1875 16.275 25.1875 16.4688L25.1875 17.1146C25.1875 17.3083 25.0583 17.4375 24.8646 17.4375L24.8646 17.4375L24.8646 17.4375Z" id="Shape#2" fill="#0F94BF" stroke="none" />
      <path d="M24.8646 20.6667L10.0104 20.6667C9.81667 20.6667 9.6875 20.5375 9.6875 20.3438L9.6875 19.6979C9.6875 19.5042 9.81667 19.375 10.0104 19.375L24.8646 19.375C25.0583 19.375 25.1875 19.5042 25.1875 19.6979L25.1875 20.3438C25.1875 20.5375 25.0583 20.6667 24.8646 20.6667L24.8646 20.6667L24.8646 20.6667Z" id="Shape#3" fill="#0F94BF" stroke="none" />
      <path d="M28.4167 6.45833L28.4167 8.39583L2.58333 8.39583L2.58333 6.45833C2.58333 5.74792 3.16458 5.16667 3.875 5.16667L27.125 5.16667C27.8354 5.16667 28.4167 5.74792 28.4167 6.45833L28.4167 6.45833L28.4167 6.45833Z" id="Shape#4" fill="url(#gradient_3)" stroke="none" />
      <path d="M6.13542 14.2083L6.78125 14.2083C6.975 14.2083 7.10417 14.0792 7.10417 13.8854L7.10417 13.2396C7.10417 13.0458 6.975 12.9167 6.78125 12.9167L6.13542 12.9167C5.94167 12.9167 5.8125 13.0458 5.8125 13.2396L5.8125 13.8854C5.8125 14.0792 5.94167 14.2083 6.13542 14.2083L6.13542 14.2083L6.13542 14.2083Z" id="Shape#5" fill="#0F94BF" stroke="none" />
      <path d="M6.13542 17.4375L6.78125 17.4375C6.975 17.4375 7.10417 17.3083 7.10417 17.1146L7.10417 16.4688C7.10417 16.275 6.975 16.1458 6.78125 16.1458L6.13542 16.1458C5.94167 16.1458 5.8125 16.275 5.8125 16.4688L5.8125 17.1146C5.8125 17.3083 5.94167 17.4375 6.13542 17.4375L6.13542 17.4375L6.13542 17.4375Z" id="Shape#6" fill="#0F94BF" stroke="none" />
      <path d="M6.13542 20.6667L6.78125 20.6667C6.975 20.6667 7.10417 20.5375 7.10417 20.3438L7.10417 19.6979C7.10417 19.5042 6.975 19.375 6.78125 19.375L6.13542 19.375C5.94167 19.375 5.8125 19.5042 5.8125 19.6979L5.8125 20.3438C5.8125 20.5375 5.94167 20.6667 6.13542 20.6667L6.13542 20.6667L6.13542 20.6667Z" id="Shape#7" fill="#0F94BF" stroke="none" />
    </g>
  </g>
</svg>