<?xml version="1.0" encoding="utf-8"?>
<svg width="48px" height="48px" viewBox="0 0 48 48" version="1.1" xmlns:xlink="http://www.w3.org/1999/xlink" xmlns="http://www.w3.org/2000/svg">
  <defs>
    <linearGradient gradientUnits="userSpaceOnUse" x1="23.1181" y1="0.08640426" x2="24.8371" y2="34.5694" id="gradient_1">
      <stop offset="0.3%" stop-color="#008DED" />
      <stop offset="100%" stop-color="#0061A7" />
    </linearGradient>
    <path d="M0 0L48 0L48 48L0 48L0 0Z" id="path_1" />
    <clipPath id="clip_1">
      <use xlink:href="#path_1" />
    </clipPath>
  </defs>
  <g id="Powershell" clip-path="url(#clip_1)">
    <path d="M0 0L48 0L48 48L0 48L0 0Z" id="Powershell" fill="none" fill-rule="evenodd" stroke="none" />
    <path d="M19.847 41.956C14.218 41.954 8.588 41.98 2.959 41.943C0.104 41.924 -0.415 41.243 0.228 38.418C2.406 28.838 4.655 19.275 6.785 9.684C7.356 7.112 8.588 5.975 11.312 6C22.57 6.106 33.829 6.034 45.088 6.046C47.912 6.049 48.386 6.66 47.752 9.557C45.694 18.963 43.623 28.366 41.516 37.76C40.727 41.276 39.819 41.947 36.163 41.955C30.724 41.966 25.285 41.958 19.847 41.956L19.847 41.956Z" id="Shape" fill="url(#gradient_1)" stroke="none" />
    <path d="M25.057 23.922C24.449 23.235 23.943 22.655 23.526 22.19C21.096 19.462 18.87 16.92 16.463 14.321C15.361 13.132 15.01 11.977 16.333 10.803C17.64 9.643 18.925 9.745 20.124 11.08C23.464 14.797 26.8 18.518 30.195 22.184C31.463 23.553 31.167 24.484 29.771 25.499C24.412 29.394 19.084 33.332 13.761 37.277C12.565 38.164 11.424 38.386 10.457 37.076C9.391 35.631 10.377 34.771 11.483 33.962C15.438 31.069 19.386 28.164 23.317 25.237C23.865 24.83 24.595 24.267 25.057 23.922L25.057 23.922ZM21.75 37C20.625 37 20 36 20 35C20 34 20.625 33 21.75 33C25.974 33 27.862 33 31.25 33C32.375 33 33 34 33 35C33 36 32.375 37 31.25 37C29.125 37 25 37 21.75 37L21.75 37Z" id="Shape" fill="none" fill-rule="evenodd" stroke="#1D1D1B" stroke-opacity="0.05" stroke-width="2" />
    <path d="M25.057 23.922C24.449 23.235 23.943 22.655 23.526 22.19C21.096 19.462 18.87 16.92 16.463 14.321C15.361 13.132 15.01 11.977 16.333 10.803C17.64 9.643 18.925 9.745 20.124 11.08C23.464 14.797 26.8 18.518 30.195 22.184C31.463 23.553 31.167 24.484 29.771 25.499C24.412 29.394 19.084 33.332 13.761 37.277C12.565 38.164 11.424 38.386 10.457 37.076C9.391 35.631 10.377 34.771 11.483 33.962C15.438 31.069 19.386 28.164 23.317 25.237C23.865 24.83 24.595 24.267 25.057 23.922L25.057 23.922ZM21.75 37C20.625 37 20 36 20 35C20 34 20.625 33 21.75 33C25.974 33 27.862 33 31.25 33C32.375 33 33 34 33 35C33 36 32.375 37 31.25 37C29.125 37 25 37 21.75 37L21.75 37Z" id="Shape" fill="none" fill-rule="evenodd" stroke="#000000" stroke-opacity="0.07" stroke-width="1" />
    <path d="M25.057 23.922C24.449 23.235 23.943 22.655 23.526 22.19C21.096 19.462 18.87 16.92 16.463 14.321C15.361 13.132 15.01 11.977 16.333 10.803C17.64 9.643 18.925 9.745 20.124 11.08C23.464 14.797 26.8 18.518 30.195 22.184C31.463 23.553 31.167 24.484 29.771 25.499C24.412 29.394 19.084 33.332 13.761 37.277C12.565 38.164 11.424 38.386 10.457 37.076C9.391 35.631 10.377 34.771 11.483 33.962C15.438 31.069 19.386 28.164 23.317 25.237C23.865 24.83 24.595 24.267 25.057 23.922L25.057 23.922ZM21.75 37C20.625 37 20 36 20 35C20 34 20.625 33 21.75 33C25.974 33 27.862 33 31.25 33C32.375 33 33 34 33 35C33 36 32.375 37 31.25 37C29.125 37 25 37 21.75 37L21.75 37Z" id="Shape" fill="#FAFAFA" fill-rule="evenodd" stroke="none" />
  </g>
</svg>