<?xml version="1.0" encoding="utf-8"?>
<svg width="48px" height="48px" viewBox="0 0 48 48" version="1.1" xmlns:xlink="http://www.w3.org/1999/xlink" xmlns="http://www.w3.org/2000/svg">
  <defs>
    <linearGradient gradientUnits="userSpaceOnUse" x1="0.5290003" y1="10.472" x2="5.6" y2="5.3999996" id="gradient_1">
      <stop offset="0%" stop-color="#3079D6" />
      <stop offset="100%" stop-color="#297CD2" />
    </linearGradient>
    <linearGradient gradientUnits="userSpaceOnUse" x1="12.517493" y1="-3.2029793" x2="13.448259" y2="15.475314" id="gradient_2">
      <stop offset="0.3%" stop-color="#008DED" />
      <stop offset="100%" stop-color="#0061A7" />
    </linearGradient>
    <path d="M0 0L48 0L48 48L0 48L0 0Z" id="path_1" />
    <path d="M0 0L26 0L26 26L0 26L0 0Z" id="path_2" />
    <clipPath id="mask_1">
      <use xlink:href="#path_1" />
    </clipPath>
    <clipPath id="mask_2">
      <use xlink:href="#path_2" />
    </clipPath>
  </defs>
  <g id="File-Icon-2">
    <path d="M0 0L48 0L48 48L0 48L0 0Z" id="Background" fill="#FFFFFF" fill-opacity="0" fill-rule="evenodd" stroke="none" />
    <g clip-path="url(#mask_1)">
      <path d="M39 16L39 41C39 42.105 38.105 43 37 43L11 43C9.895 43 9 42.105 9 41L9 7C9 5.895 9.895 5 11 5L28 5L39 16L39 16Z" id="Shape" fill="#50E6FF" fill-rule="evenodd" stroke="none" />
      <path d="M28 5L28 14C28 15.105 28.895 16 30 16L39 16L28 5L28 5Z" id="Shape" fill="url(#gradient_1)" fill-rule="evenodd" stroke="none" />
    </g>
  </g>
  <g id="svg" transform="translate(11 16)">
    <path d="M0 0L26 0L26 26L0 26L0 0Z" id="Background" fill="#FFFFFF" fill-opacity="0" fill-rule="evenodd" stroke="none" />
    <g id="Powershell-Icon">
      <path d="M0.00980066 0L25.9998 0L25.9998 26L0.00980066 26L0.00980066 0L0.00980066 0Z" id="Background" fill="#FFFFFF" fill-opacity="0" fill-rule="evenodd" stroke="none" />
      <path d="M10.7561 22.7262C7.70824 22.7251 4.65984 22.7392 1.61197 22.7191C0.0661108 22.7088 -0.214906 22.34 0.133252 20.8098C1.31255 15.6206 2.53029 10.4406 3.6836 5.2455C3.99277 3.85233 4.65984 3.23646 6.13475 3.25C12.2305 3.30742 18.3268 3.26842 24.4231 3.27492C25.9522 3.27654 26.2088 3.6075 25.8655 5.17671C24.7512 10.2716 23.6298 15.3649 22.489 20.4533C22.0618 22.3578 21.5701 22.7213 19.5906 22.7256C16.6456 22.7316 13.7006 22.7273 10.7561 22.7262L10.7561 22.7262L10.7561 22.7262Z" id="Shape" fill="url(#gradient_2)" stroke="none" />
      <path d="M13.5771 12.9577C13.2479 12.5856 12.9739 12.2715 12.7482 12.0196C11.4324 10.5419 10.2271 9.16499 8.92385 7.7572C8.32715 7.11316 8.13708 6.48753 8.85344 5.85162C9.56112 5.22328 10.2569 5.27853 10.9061 6.00166C12.7146 8.01503 14.5209 10.0306 16.3591 12.0163C17.0457 12.7579 16.8854 13.2622 16.1296 13.8119C13.2279 15.9217 10.343 18.0548 7.46081 20.1917C6.81325 20.6722 6.19542 20.7924 5.67185 20.0828C5.09464 19.3001 5.62852 18.8343 6.22738 18.3961C8.36886 16.829 10.5065 15.2555 12.635 13.67C12.9317 13.4496 13.327 13.1446 13.5771 12.9577L13.5771 12.9577L13.5771 12.9577ZM11.7865 20.0417C11.1774 20.0417 10.839 19.5 10.839 18.9583C10.839 18.4167 11.1774 17.875 11.7865 17.875C14.0736 17.875 15.0959 17.875 16.9304 17.875C17.5396 17.875 17.8779 18.4167 17.8779 18.9583C17.8779 19.5 17.5396 20.0417 16.9304 20.0417C15.7798 20.0417 13.5463 20.0417 11.7865 20.0417L11.7865 20.0417L11.7865 20.0417Z" id="Shape#1" fill="none" fill-rule="evenodd" stroke="#1D1D1B" stroke-opacity="0.050980393" stroke-width="2" />
      <path d="M13.5771 12.9577C13.2479 12.5856 12.9739 12.2715 12.7482 12.0196C11.4324 10.5419 10.2271 9.16499 8.92385 7.7572C8.32715 7.11316 8.13708 6.48753 8.85344 5.85162C9.56112 5.22328 10.2569 5.27853 10.9061 6.00166C12.7146 8.01503 14.5209 10.0306 16.3591 12.0163C17.0457 12.7579 16.8854 13.2622 16.1296 13.8119C13.2279 15.9217 10.343 18.0548 7.46081 20.1917C6.81325 20.6722 6.19542 20.7924 5.67185 20.0828C5.09464 19.3001 5.62852 18.8343 6.22738 18.3961C8.36886 16.829 10.5065 15.2555 12.635 13.67C12.9317 13.4496 13.327 13.1446 13.5771 12.9577L13.5771 12.9577L13.5771 12.9577ZM11.7865 20.0417C11.1774 20.0417 10.839 19.5 10.839 18.9583C10.839 18.4167 11.1774 17.875 11.7865 17.875C14.0736 17.875 15.0959 17.875 16.9304 17.875C17.5396 17.875 17.8779 18.4167 17.8779 18.9583C17.8779 19.5 17.5396 20.0417 16.9304 20.0417C15.7798 20.0417 13.5463 20.0417 11.7865 20.0417L11.7865 20.0417L11.7865 20.0417Z" id="Shape#2" fill="none" fill-rule="evenodd" stroke="#000000" stroke-opacity="0.07058824" stroke-width="1" />
      <path d="M13.5771 12.9577C13.2479 12.5856 12.9739 12.2715 12.7482 12.0196C11.4324 10.5419 10.2271 9.16499 8.92385 7.7572C8.32715 7.11316 8.13708 6.48753 8.85344 5.85162C9.56112 5.22328 10.2569 5.27853 10.9061 6.00166C12.7146 8.01503 14.5209 10.0306 16.3591 12.0163C17.0457 12.7579 16.8854 13.2622 16.1296 13.8119C13.2279 15.9217 10.343 18.0548 7.46081 20.1917C6.81325 20.6722 6.19542 20.7924 5.67185 20.0828C5.09464 19.3001 5.62852 18.8343 6.22738 18.3961C8.36886 16.829 10.5065 15.2555 12.635 13.67C12.9317 13.4496 13.327 13.1446 13.5771 12.9577L13.5771 12.9577L13.5771 12.9577ZM11.7865 20.0417C11.1774 20.0417 10.839 19.5 10.839 18.9583C10.839 18.4167 11.1774 17.875 11.7865 17.875C14.0736 17.875 15.0959 17.875 16.9304 17.875C17.5396 17.875 17.8779 18.4167 17.8779 18.9583C17.8779 19.5 17.5396 20.0417 16.9304 20.0417C15.7798 20.0417 13.5463 20.0417 11.7865 20.0417L11.7865 20.0417L11.7865 20.0417Z" id="Shape#3" fill="#FAFAFA" fill-rule="evenodd" stroke="none" />
    </g>
  </g>
</svg>