<?xml version="1.0" encoding="utf-8"?>
<svg width="48px" height="48px" viewBox="0 0 48 48" version="1.1" xmlns:xlink="http://www.w3.org/1999/xlink" xmlns="http://www.w3.org/2000/svg">
  <defs>
    <linearGradient gradientUnits="userSpaceOnUse" x1="23.109219" y1="0.08640426" x2="24.827557" y2="34.5694" id="gradient_1">
      <stop offset="0.3%" stop-color="#008DED" />
      <stop offset="100%" stop-color="#0061A7" />
    </linearGradient>
    <path d="M0.0180916 0L47.9997 0L47.9997 48L0.0180916 48L0.0180916 0Z" id="path_1" />
    <clipPath id="mask_1">
      <use xlink:href="#path_1" />
    </clipPath>
  </defs>
  <g id="Powershell-Icon">
    <path d="M0.0180916 0L47.9997 0L47.9997 48L0.0180916 48L0.0180916 0Z" id="Background" fill="#FFFFFF" fill-opacity="0" fill-rule="evenodd" stroke="none" />
    <path d="M19.8575 41.956C14.2306 41.954 8.60279 41.98 2.97595 41.943C0.122051 41.924 -0.396749 41.243 0.246004 38.418C2.42317 28.838 4.6713 19.275 6.80049 9.684C7.37127 7.112 8.60279 5.975 11.3257 6C22.5794 6.106 33.8341 6.034 45.0888 6.046C47.9117 6.049 48.3855 6.66 47.7517 9.557C45.6945 18.963 43.6243 28.366 41.5181 37.76C40.7294 41.276 39.8218 41.947 36.1672 41.955C30.7303 41.966 25.2934 41.958 19.8575 41.956L19.8575 41.956Z" id="Shape" fill="url(#gradient_1)" stroke="none" />
    <path d="M25.0655 23.922C24.4577 23.235 23.9519 22.655 23.5351 22.19C21.106 19.462 18.8808 16.92 16.4748 14.321C15.3732 13.132 15.0223 11.977 16.3448 10.803C17.6513 9.643 18.9358 9.745 20.1344 11.08C23.4731 14.797 26.8078 18.518 30.2015 22.184C31.469 23.553 31.1731 24.484 29.7777 25.499C24.4207 29.394 19.0948 33.332 13.7738 37.277C12.5783 38.164 11.4377 38.386 10.4711 37.076C9.40548 35.631 10.3911 34.771 11.4967 33.962C15.4502 31.069 19.3966 28.164 23.3261 25.237C23.8739 24.83 24.6036 24.267 25.0655 23.922L25.0655 23.922ZM21.7597 37C20.6352 37 20.0104 36 20.0104 35C20.0104 34 20.6352 33 21.7597 33C25.9821 33 27.8694 33 31.2561 33C32.3807 33 33.0054 34 33.0054 35C33.0054 36 32.3807 37 31.2561 37C29.1319 37 25.0085 37 21.7597 37L21.7597 37Z" id="Shape" fill="none" fill-rule="evenodd" stroke="#1D1D1B" stroke-opacity="0.05" stroke-width="2" />
    <path d="M25.0655 23.922C24.4577 23.235 23.9519 22.655 23.5351 22.19C21.106 19.462 18.8808 16.92 16.4748 14.321C15.3732 13.132 15.0223 11.977 16.3448 10.803C17.6513 9.643 18.9358 9.745 20.1344 11.08C23.4731 14.797 26.8078 18.518 30.2015 22.184C31.469 23.553 31.1731 24.484 29.7777 25.499C24.4207 29.394 19.0948 33.332 13.7738 37.277C12.5783 38.164 11.4377 38.386 10.4711 37.076C9.40548 35.631 10.3911 34.771 11.4967 33.962C15.4502 31.069 19.3966 28.164 23.3261 25.237C23.8739 24.83 24.6036 24.267 25.0655 23.922L25.0655 23.922ZM21.7597 37C20.6352 37 20.0104 36 20.0104 35C20.0104 34 20.6352 33 21.7597 33C25.9821 33 27.8694 33 31.2561 33C32.3807 33 33.0054 34 33.0054 35C33.0054 36 32.3807 37 31.2561 37C29.1319 37 25.0085 37 21.7597 37L21.7597 37Z" id="Shape" fill="none" fill-rule="evenodd" stroke="#000000" stroke-opacity="0.07" stroke-width="1" />
    <path d="M25.0655 23.922C24.4577 23.235 23.9519 22.655 23.5351 22.19C21.106 19.462 18.8808 16.92 16.4748 14.321C15.3732 13.132 15.0223 11.977 16.3448 10.803C17.6513 9.643 18.9358 9.745 20.1344 11.08C23.4731 14.797 26.8078 18.518 30.2015 22.184C31.469 23.553 31.1731 24.484 29.7777 25.499C24.4207 29.394 19.0948 33.332 13.7738 37.277C12.5783 38.164 11.4377 38.386 10.4711 37.076C9.40548 35.631 10.3911 34.771 11.4967 33.962C15.4502 31.069 19.3966 28.164 23.3261 25.237C23.8739 24.83 24.6036 24.267 25.0655 23.922L25.0655 23.922ZM21.7597 37C20.6352 37 20.0104 36 20.0104 35C20.0104 34 20.6352 33 21.7597 33C25.9821 33 27.8694 33 31.2561 33C32.3807 33 33.0054 34 33.0054 35C33.0054 36 32.3807 37 31.2561 37C29.1319 37 25.0085 37 21.7597 37L21.7597 37Z" id="Shape" fill="#FAFAFA" fill-rule="evenodd" stroke="none" />
  </g>
</svg>