<?xml version="1.0" encoding="utf-8"?>
<svg width="48px" height="48px" viewBox="0 0 48 48" version="1.1" xmlns:xlink="http://www.w3.org/1999/xlink" xmlns="http://www.w3.org/2000/svg">
  <defs>
    <linearGradient gradientUnits="userSpaceOnUse" x1="0.5290003" y1="10.472" x2="5.6" y2="5.3999996" id="gradient_1">
      <stop offset="0%" stop-color="#3079D6" />
      <stop offset="100%" stop-color="#297CD2" />
    </linearGradient>
    <linearGradient gradientUnits="userSpaceOnUse" x1="0.833063" y1="1.8575913" x2="10.743061" y2="10.173217" id="gradient_2">
      <stop offset="0%" stop-color="#26ABE7" />
      <stop offset="100%" stop-color="#086DBF" />
    </linearGradient>
    <linearGradient gradientUnits="userSpaceOnUse" x1="2.6312492" y1="6.1943736" x2="-4.754375" y2="-4.35375" id="gradient_3">
      <stop offset="0%" stop-color="#FEB705" />
      <stop offset="100%" stop-color="#FFDA1C" />
    </linearGradient>
    <path d="M0 0L48 0L48 48L0 48L0 0Z" id="path_1" />
    <clipPath id="mask_1">
      <use xlink:href="#path_1" />
    </clipPath>
  </defs>
  <g id="File-Icon-2">
    <path d="M0 0L48 0L48 48L0 48L0 0Z" id="Background" fill="#FFFFFF" fill-opacity="0" fill-rule="evenodd" stroke="none" />
    <g clip-path="url(#mask_1)">
      <path d="M39 16L39 41C39 42.105 38.105 43 37 43L11 43C9.895 43 9 42.105 9 41L9 7C9 5.895 9.895 5 11 5L28 5L39 16L39 16Z" id="Shape" fill="#50E6FF" fill-rule="evenodd" stroke="none" />
      <path d="M28 5L28 14C28 15.105 28.895 16 30 16L39 16L28 5L28 5Z" id="Shape" fill="url(#gradient_1)" fill-rule="evenodd" stroke="none" />
    </g>
  </g>
  <g id="svg" transform="translate(9 14)">
    <g id="Python-Icon">
      <path d="M0 0L30 0L30 30L0 30L0 0L0 0Z" id="Background" fill="#FFFFFF" fill-opacity="0" fill-rule="evenodd" stroke="none" />
      <path d="M15.0294 3.125C14.0575 3.12813 13.3837 3.21375 12.5694 3.35438C10.1644 3.77313 9.72625 4.6525 9.72625 6.27313L9.72625 8.75L15.3512 8.75L15.3512 10L9.5125 10L6.79375 10C5.14625 10 3.70437 10.7763 3.2475 12.6369C2.73125 14.7725 2.70812 16.11 3.2475 18.34C3.65687 20.0031 4.55875 21.25 6.20687 21.25L8.47687 21.25L8.47687 18.06C8.47687 16.2062 10.1556 14.375 12.0794 14.375L16.6019 14.375C18.1787 14.375 19.7269 13.2112 19.7269 11.6394L19.7269 6.27313C19.7269 4.74875 18.6275 3.60875 17.0906 3.35313C17.1287 3.34938 15.9931 3.12125 15.0294 3.125L15.0294 3.125L15.0294 3.125ZM11.9144 5.625C12.4275 5.625 12.8519 6.04813 12.8519 6.56375C12.8519 7.08438 12.4275 7.5 11.9144 7.5C11.3912 7.5 10.9769 7.085 10.9769 6.56375C10.9769 6.05 11.3912 5.625 11.9144 5.625L11.9144 5.625L11.9144 5.625Z" id="Shape" fill="url(#gradient_2)" fill-rule="evenodd" stroke="none" />
      <path d="M14.4238 26.875C15.3956 26.8719 16.0694 26.7863 16.8838 26.6456C19.2888 26.2269 19.7269 25.3475 19.7269 23.7269L19.7269 21.25L14.1019 21.25L14.1019 20L19.9413 20L22.66 20C24.3075 20 25.7494 19.2238 26.2063 17.3631C26.7225 15.2275 26.7456 13.89 26.2063 11.66C25.7963 9.99687 24.8944 8.75 23.2463 8.75L20.9763 8.75L20.9763 11.94C20.9763 13.7938 19.2975 15.625 17.3738 15.625L12.8513 15.625C11.2744 15.625 9.72626 16.7887 9.72626 18.3606L9.72626 23.7269C9.72626 25.2513 10.8256 26.3913 12.3625 26.6469C12.3244 26.6506 13.46 26.8788 14.4238 26.875L14.4238 26.875L14.4238 26.875ZM17.5394 24.375C17.0263 24.375 16.6019 23.9519 16.6019 23.4363C16.6019 22.9156 17.0263 22.5 17.5394 22.5C18.0625 22.5 18.4769 22.915 18.4769 23.4363C18.4769 23.95 18.0619 24.375 17.5394 24.375L17.5394 24.375L17.5394 24.375Z" id="Shape#1" fill="url(#gradient_3)" fill-rule="evenodd" stroke="none" />
    </g>
  </g>
</svg>