<?xml version="1.0" encoding="utf-8"?>
<svg width="48px" height="48px" viewBox="0 0 48 48" version="1.1" xmlns:xlink="http://www.w3.org/1999/xlink" xmlns="http://www.w3.org/2000/svg">
  <defs>
    <linearGradient gradientUnits="userSpaceOnUse" x1="0.5290003" y1="10.472" x2="5.6" y2="5.3999996" id="gradient_1">
      <stop offset="0%" stop-color="#3079D6" />
      <stop offset="100%" stop-color="#297CD2" />
    </linearGradient>
    <path d="M0 0L48 0L48 48L0 48L0 0Z" id="path_1" />
    <clipPath id="mask_1">
      <use xlink:href="#path_1" />
    </clipPath>
  </defs>
  <g id="File-Icon-2">
    <path d="M0 0L48 0L48 48L0 48L0 0Z" id="Background" fill="#FFFFFF" fill-opacity="0" fill-rule="evenodd" stroke="none" />
    <g clip-path="url(#mask_1)">
      <path d="M39 16L39 41C39 42.105 38.105 43 37 43L11 43C9.895 43 9 42.105 9 41L9 7C9 5.895 9.895 5 11 5L28 5L39 16L39 16Z" id="Shape" fill="#50E6FF" fill-rule="evenodd" stroke="none" />
      <path d="M28 5L28 14C28 15.105 28.895 16 30 16L39 16L28 5L28 5Z" id="Shape" fill="url(#gradient_1)" fill-rule="evenodd" stroke="none" />
    </g>
  </g>
  <g id="Qt" fill="#138000" transform="translate(9 16)">
    <path d="M11.2165 22.263Q11.7225 22.2055 12.2055 22.102L12.3205 20.5725Q12.539 20.906 12.7575 21.274Q12.976 21.642 13.2405 22.0042Q13.505 22.3665 13.8442 22.6885Q14.1835 23.0105 14.6378 23.2577Q15.092 23.505 15.6843 23.6488Q16.2765 23.7925 17.047 23.7925L17.415 23.7925L18.427 21.2625Q17.9095 21.2625 17.507 21.1992Q17.1045 21.136 16.7825 21.021Q16.4605 20.906 16.196 20.7393Q15.9315 20.5725 15.6785 20.377Q17.024 19.1925 17.7197 17.4272Q18.4155 15.662 18.4155 13.5Q18.4155 11.6025 17.8463 9.98675Q17.277 8.371 16.2133 7.19225Q15.1495 6.0135 13.62 5.3465Q12.0905 4.6795 10.17 4.6795Q8.2035 4.6795 6.6625 5.3465Q5.1215 6.0135 4.06925 7.19225Q3.017 8.371 2.465 9.98675Q1.913 11.6025 1.913 13.5Q1.913 15.3975 2.48225 17.0133Q3.0515 18.629 4.121 19.8078Q5.1905 20.9865 6.72 21.6535Q8.2495 22.3205 10.17 22.3205Q10.7105 22.3205 11.2165 22.263ZM24.9935 18.6462Q24.959 18.2495 24.959 17.663L24.959 12.051L27.9375 12.051L28.248 9.475L24.913 9.475L24.913 5.3005L21.325 7.4165L21.325 9.475L19.6 9.475L19.6 12.051L21.325 12.051L21.325 17.41Q21.325 18.4105 21.4515 19.3018Q21.578 20.193 21.9805 20.86Q22.383 21.527 23.1305 21.918Q23.878 22.309 25.12 22.309Q25.6145 22.309 26.0802 22.2055Q26.546 22.102 26.9255 21.9468Q27.305 21.7915 27.5868 21.6133Q27.8685 21.435 28.0065 21.297L26.914 19.4225Q26.7415 19.5145 26.5345 19.5835Q26.362 19.641 26.1435 19.687Q25.925 19.733 25.6835 19.733Q25.4765 19.733 25.3385 19.6295Q25.2005 19.526 25.1143 19.2845Q25.028 19.043 24.9935 18.6462ZM14.3215 15.0985Q14.241 15.7195 14.0685 16.306L14.0685 18.5485Q13.7465 18.123 13.3958 17.732Q13.045 17.341 12.5678 17.042Q12.0905 16.743 11.458 16.559Q10.8255 16.375 9.9515 16.375L9.1005 18.675Q9.9055 18.675 10.4978 18.905Q11.09 19.135 11.481 19.4685L10.2275 19.4685Q9.066 19.4685 8.2495 18.9395Q7.433 18.4105 6.9155 17.5308Q6.398 16.651 6.16225 15.5068Q5.9265 14.3625 5.9265 13.1205Q5.9265 12.0395 6.16225 11.0275Q6.398 10.0155 6.904 9.23925Q7.41 8.463 8.2035 7.99725Q8.997 7.5315 10.101 7.5315Q11.274 7.5315 12.0905 8.0605Q12.907 8.5895 13.4245 9.4635Q13.942 10.3375 14.172 11.476Q14.402 12.6145 14.402 13.8335Q14.402 14.4775 14.3215 15.0985Z" />
  </g>
</svg>