<?xml version="1.0" encoding="utf-8"?>
<svg width="48px" height="48px" viewBox="0 0 48 48" version="1.1" xmlns:xlink="http://www.w3.org/1999/xlink" xmlns="http://www.w3.org/2000/svg">
  <defs>
    <linearGradient gradientUnits="userSpaceOnUse" x1="0.5290003" y1="10.472" x2="5.6" y2="5.3999996" id="gradient_1">
      <stop offset="0%" stop-color="#3079D6" />
      <stop offset="100%" stop-color="#297CD2" />
    </linearGradient>
    <linearGradient gradientUnits="userSpaceOnUse" x1="4.2103753" y1="-2.7343328" x2="16.151417" y2="8.549125" id="gradient_2">
      <stop offset="0%" stop-color="#BEC1C4" />
      <stop offset="100%" stop-color="#939399" />
    </linearGradient>
    <linearGradient gradientUnits="userSpaceOnUse" x1="-8.058916" y1="-9.614044" x2="-4.1697493" y2="1.7793729" id="gradient_3">
      <stop offset="0.3%" stop-color="#008DED" />
      <stop offset="100%" stop-color="#0061A7" />
    </linearGradient>
    <path d="M0 0L48 0L48 48L0 48L0 0Z" id="path_1" />
    <clipPath id="mask_1">
      <use xlink:href="#path_1" />
    </clipPath>
  </defs>
  <g id="File-Icon-2">
    <path d="M0 0L48 0L48 48L0 48L0 0Z" id="Background" fill="#FFFFFF" fill-opacity="0" fill-rule="evenodd" stroke="none" />
    <g clip-path="url(#mask_1)">
      <path d="M39 16L39 41C39 42.105 38.105 43 37 43L11 43C9.895 43 9 42.105 9 41L9 7C9 5.895 9.895 5 11 5L28 5L39 16L39 16Z" id="Shape" fill="#50E6FF" fill-rule="evenodd" stroke="none" />
      <path d="M28 5L28 14C28 15.105 28.895 16 30 16L39 16L28 5L28 5Z" id="Shape" fill="url(#gradient_1)" fill-rule="evenodd" stroke="none" />
    </g>
  </g>
  <g id="svg" transform="translate(10.5 16.5)">
    <g id="R-Project-Icon">
      <path d="M0 0L26 0L26 26L0 26L0 0L0 0Z" id="Background" fill="#FFFFFF" fill-opacity="0" fill-rule="evenodd" stroke="none" />
      <path d="M13 3.25C5.82021 3.25 0 7.19929 0 12.0716C0 16.9439 5.82021 20.8932 13 20.8932C20.1798 20.8932 26 16.9439 26 12.0716C26 7.19929 20.1798 3.25 13 3.25L13 3.25L13 3.25ZM14.3542 18.9583C8.81995 18.9583 4.33333 16.048 4.33333 12.4583C4.33333 8.8687 8.81995 5.95833 14.3542 5.95833C19.8884 5.95833 24.375 8.8687 24.375 12.4583C24.375 16.048 19.8884 18.9583 14.3542 18.9583L14.3542 18.9583L14.3542 18.9583Z" id="Shape" fill="url(#gradient_2)" fill-rule="evenodd" stroke="none" />
      <path d="M21.1526 18.129C20.8395 17.6172 20.3743 17.225 19.8299 16.9888C21.6721 16.5333 23.0398 14.8742 23.0398 12.8917C23.0398 10.5587 21.1478 8.66667 18.8148 8.66667L10.8339 8.66667L10.8339 22.75L14.5893 22.75L14.5893 17.1167L15.6482 17.1167C16.172 17.1167 16.6535 17.401 16.9054 17.8604L19.5948 22.75L23.9785 22.75L21.1526 18.129L21.1526 18.129L21.1526 18.129ZM14.5898 11.4833L17.8761 11.4833C18.6534 11.4833 19.2844 12.1144 19.2844 12.8917C19.2844 13.6689 18.6534 14.3 17.8761 14.3L14.5898 14.3L14.5898 11.4833L14.5898 11.4833L14.5898 11.4833Z" id="Shape#1" fill="url(#gradient_3)" fill-rule="evenodd" stroke="none" />
    </g>
  </g>
</svg>