<?xml version="1.0" encoding="utf-8"?>
<svg width="48px" height="48px" viewBox="0 0 48 48" version="1.1" xmlns:xlink="http://www.w3.org/1999/xlink" xmlns="http://www.w3.org/2000/svg">
  <defs>
    <linearGradient gradientUnits="userSpaceOnUse" x1="18" y1="0" x2="18" y2="12" id="gradient_1">
      <stop offset="23.299997%" stop-color="#41A5EE" />
      <stop offset="31.7%" stop-color="#3994DE" />
      <stop offset="56.199997%" stop-color="#2366B4" />
      <stop offset="75.1%" stop-color="#154A9B" />
      <stop offset="85.99999%" stop-color="#103F91" />
    </linearGradient>
    <linearGradient gradientUnits="userSpaceOnUse" x1="18" y1="0" x2="18" y2="12" id="gradient_2">
      <stop offset="23.299997%" stop-color="#E8457C" />
      <stop offset="27.2%" stop-color="#E14177" />
      <stop offset="53.7%" stop-color="#B32C59" />
      <stop offset="74.19999%" stop-color="#971E46" />
      <stop offset="85.99999%" stop-color="#8C193F" />
    </linearGradient>
    <linearGradient gradientUnits="userSpaceOnUse" x1="18" y1="0" x2="18" y2="12" id="gradient_3">
      <stop offset="23.299997%" stop-color="#33C481" />
      <stop offset="32.5%" stop-color="#2EB173" />
      <stop offset="56.6%" stop-color="#228353" />
      <stop offset="75.2%" stop-color="#1B673F" />
      <stop offset="85.99999%" stop-color="#185C37" />
    </linearGradient>
    <linearGradient gradientUnits="userSpaceOnUse" x1="6" y1="0" x2="6" y2="35.999996" id="gradient_4">
      <stop offset="3.9%" stop-color="#F8C819" />
      <stop offset="28.2%" stop-color="#AF4316" />
    </linearGradient>
    <linearGradient gradientUnits="userSpaceOnUse" x1="6" y1="0" x2="6" y2="30" id="gradient_5">
      <stop offset="0%" stop-color="#EAAD29" />
      <stop offset="24.499998%" stop-color="#D98E24" />
      <stop offset="63.200005%" stop-color="#C0631C" />
      <stop offset="82.8%" stop-color="#B75219" />
      <stop offset="87.1%" stop-color="#A94917" />
      <stop offset="94.9%" stop-color="#943B13" />
      <stop offset="100%" stop-color="#8C3612" />
    </linearGradient>
    <linearGradient gradientUnits="userSpaceOnUse" x1="8" y1="0" x2="8" y2="11" id="gradient_6">
      <stop offset="61.3%" stop-color="#E6E6E6" />
      <stop offset="78.5%" stop-color="#E4E4E4" />
      <stop offset="85.7%" stop-color="#DDDDDD" />
      <stop offset="91%" stop-color="#D1D1D1" />
      <stop offset="95.3%" stop-color="#BFBFBF" />
      <stop offset="96.7%" stop-color="#B8B8B8" />
    </linearGradient>
    <path d="M0 0L48 0L48 48L0 48L0 0Z" id="path_1" />
    <clipPath id="mask_1">
      <use xlink:href="#path_1" />
    </clipPath>
  </defs>
  <g id="Winrar-Icon">
    <path d="M0 0L48 0L48 48L0 48L0 0Z" id="Background" fill="#FFFFFF" fill-opacity="0" fill-rule="evenodd" stroke="none" />
    <path d="M6 18L42 18L42 30L6 30L6 18Z" id="Rectangle" fill="url(#gradient_1)" fill-rule="evenodd" stroke="none" />
    <path d="M42 18L6 18L6 8C6 6.895 6.895 6 8 6L40 6C41.105 6 42 6.895 42 8L42 18L42 18Z" id="Shape" fill="url(#gradient_2)" stroke="none" />
    <path d="M40 42L8 42C6.895 42 6 41.105 6 40L6 30L42 30L42 40C42 41.105 41.105 42 40 42L40 42Z" id="Shape" fill="url(#gradient_3)" stroke="none" />
    <path d="M17 6L31 6L31 42L17 42L17 6Z" id="Rectangle" fill="#000000" fill-opacity="0.05" fill-rule="evenodd" stroke="none" />
    <path d="M17.5 6L30.5 6L30.5 42L17.5 42L17.5 6Z" id="Rectangle" fill="#000000" fill-opacity="0.07" fill-rule="evenodd" stroke="none" />
    <path d="M18 6L30 6L30 42L18 42L18 6Z" id="Rectangle" fill="url(#gradient_4)" fill-rule="evenodd" stroke="none" />
    <path d="M24 12C20.686 12 18 14.686 18 18L18 42L30 42L30 18C30 14.686 27.314 12 24 12L24 12Z" id="Shape" fill="url(#gradient_5)" stroke="none" />
    <path d="M20 32C19.27 32 18.59 31.8 18 31.45L18 32.59C18.61 32.85 19.29 33 20 33L28 33C28.71 33 29.39 32.85 30 32.59L30 31.45C29.41 31.8 28.73 32 28 32L20 32L20 32ZM29 22L29 28C29 28.55 28.55 29 28 29L26 29L26 27C26 25.9 25.1 25 24 25C22.9 25 22 25.9 22 27L22 29L20 29C19.45 29 19 28.55 19 28L19 22C19 21.45 18.55 21 18 21L18 28C18 29.1 18.9 30 20 30L23 30L23 27C23 26.45 23.45 26 24 26C24.55 26 25 26.45 25 27L25 30L28 30C29.1 30 30 29.1 30 28L30 21C29.45 21 29 21.45 29 22L29 22Z" id="Shape" fill="#000000" fill-opacity="0.05" fill-rule="evenodd" stroke="none" />
    <path d="M29.5 22L29.5 28C29.5 28.83 28.83 29.5 28 29.5L25.5 29.5L25.5 27C25.5 26.17 24.83 25.5 24 25.5C23.17 25.5 22.5 26.17 22.5 27L22.5 29.5L20 29.5C19.17 29.5 18.5 28.83 18.5 28L18.5 22C18.5 21.72 18.28 21.5 18 21.5L18 28C18 29.1 18.9 30 20 30L23 30L23 27C23 26.45 23.45 26 24 26C24.55 26 25 26.45 25 27L25 30L28 30C29.1 30 30 29.1 30 28L30 21.5C29.72 21.5 29.5 21.72 29.5 22L29.5 22ZM20 32C19.27 32 18.59 31.8 18 31.45L18 32.03C18.6 32.33 19.28 32.5 20 32.5L28 32.5C28.72 32.5 29.4 32.33 30 32.03L30 31.45C29.41 31.8 28.73 32 28 32L20 32L20 32Z" id="Shape" fill="#000000" fill-opacity="0.07" fill-rule="evenodd" stroke="none" />
    <path d="M32 23L32 28C32 30.2 30.2 32 28 32L20 32C17.8 32 16 30.2 16 28L16 23C16 21.895 16.895 21 18 21L18 21L18 28C18 29.105 18.895 30 20 30L23 30L23 27C23 26.448 23.448 26 24 26L24 26C24.552 26 25 26.448 25 27L25 30L28 30C29.105 30 30 29.105 30 28L30 21C31.1 21 32 21.9 32 23L32 23Z" id="Shape" fill="url(#gradient_6)" stroke="none" />
  </g>
</svg>