<?xml version="1.0" encoding="utf-8"?>
<svg width="48px" height="48px" viewBox="0 0 48 48" version="1.1" xmlns:xlink="http://www.w3.org/1999/xlink" xmlns="http://www.w3.org/2000/svg">
  <defs>
    <linearGradient gradientUnits="userSpaceOnUse" x1="0.5290003" y1="10.472" x2="5.6" y2="5.3999996" id="gradient_1">
      <stop offset="0%" stop-color="#3079D6" />
      <stop offset="100%" stop-color="#297CD2" />
    </linearGradient>
    <linearGradient gradientUnits="userSpaceOnUse" x1="7.4999995" y1="-11.25" x2="7.4999995" y2="-3.75" id="gradient_2">
      <stop offset="23.299997%" stop-color="#41A5EE" />
      <stop offset="31.7%" stop-color="#3994DE" />
      <stop offset="56.199997%" stop-color="#2366B4" />
      <stop offset="75.1%" stop-color="#154A9B" />
      <stop offset="85.99999%" stop-color="#103F91" />
    </linearGradient>
    <linearGradient gradientUnits="userSpaceOnUse" x1="7.4999995" y1="-3.75" x2="7.4999995" y2="3.75" id="gradient_3">
      <stop offset="23.299997%" stop-color="#E8457C" />
      <stop offset="27.2%" stop-color="#E14177" />
      <stop offset="53.7%" stop-color="#B32C59" />
      <stop offset="74.19999%" stop-color="#971E46" />
      <stop offset="85.99999%" stop-color="#8C193F" />
    </linearGradient>
    <linearGradient gradientUnits="userSpaceOnUse" x1="7.4999995" y1="-18.75" x2="7.4999995" y2="-11.25" id="gradient_4">
      <stop offset="23.299997%" stop-color="#33C481" />
      <stop offset="32.5%" stop-color="#2EB173" />
      <stop offset="56.6%" stop-color="#228353" />
      <stop offset="75.2%" stop-color="#1B673F" />
      <stop offset="85.99999%" stop-color="#185C37" />
    </linearGradient>
    <linearGradient gradientUnits="userSpaceOnUse" x1="-7.5" y1="-3.75" x2="-7.5" y2="18.749996" id="gradient_5">
      <stop offset="3.9%" stop-color="#F8C819" />
      <stop offset="28.2%" stop-color="#AF4316" />
    </linearGradient>
    <linearGradient gradientUnits="userSpaceOnUse" x1="-7.5" y1="-7.5000005" x2="-7.5" y2="11.249999" id="gradient_6">
      <stop offset="0%" stop-color="#EAAD29" />
      <stop offset="24.499998%" stop-color="#D98E24" />
      <stop offset="63.200005%" stop-color="#C0631C" />
      <stop offset="82.8%" stop-color="#B75219" />
      <stop offset="87.1%" stop-color="#A94917" />
      <stop offset="94.9%" stop-color="#943B13" />
      <stop offset="100%" stop-color="#8C3612" />
    </linearGradient>
    <linearGradient gradientUnits="userSpaceOnUse" x1="-5" y1="-13.125001" x2="-5" y2="-6.2500005" id="gradient_7">
      <stop offset="61.3%" stop-color="#E6E6E6" />
      <stop offset="78.5%" stop-color="#E4E4E4" />
      <stop offset="85.7%" stop-color="#DDDDDD" />
      <stop offset="91%" stop-color="#D1D1D1" />
      <stop offset="95.3%" stop-color="#BFBFBF" />
      <stop offset="96.7%" stop-color="#B8B8B8" />
    </linearGradient>
    <path d="M0 0L48 0L48 48L0 48L0 0Z" id="path_1" />
    <clipPath id="mask_1">
      <use xlink:href="#path_1" />
    </clipPath>
  </defs>
  <g id="File-Icon-2">
    <path d="M0 0L48 0L48 48L0 48L0 0Z" id="Background" fill="#FFFFFF" fill-opacity="0" fill-rule="evenodd" stroke="none" />
    <g clip-path="url(#mask_1)">
      <path d="M39 16L39 41C39 42.105 38.105 43 37 43L11 43C9.895 43 9 42.105 9 41L9 7C9 5.895 9.895 5 11 5L28 5L39 16L39 16Z" id="Shape" fill="#50E6FF" fill-rule="evenodd" stroke="none" />
      <path d="M28 5L28 14C28 15.105 28.895 16 30 16L39 16L28 5L28 5Z" id="Shape" fill="url(#gradient_1)" fill-rule="evenodd" stroke="none" />
    </g>
  </g>
  <g id="svg" transform="translate(9 14)">
    <g id="Winrar-Icon">
      <path d="M0 0L30 0L30 30L0 30L0 0L0 0Z" id="Background" fill="#FFFFFF" fill-opacity="0" fill-rule="evenodd" stroke="none" />
      <path d="M3.75 11.25L26.25 11.25L26.25 18.75L3.75 18.75L3.75 11.25L3.75 11.25Z" id="Rectangle" fill="url(#gradient_2)" fill-rule="evenodd" stroke="none" />
      <path d="M26.25 11.25L3.75 11.25L3.75 5C3.75 4.30937 4.30937 3.75 5 3.75L25 3.75C25.6906 3.75 26.25 4.30937 26.25 5L26.25 11.25L26.25 11.25L26.25 11.25Z" id="Shape" fill="url(#gradient_3)" stroke="none" />
      <path d="M25 26.25L5 26.25C4.30937 26.25 3.75 25.6906 3.75 25L3.75 18.75L26.25 18.75L26.25 25C26.25 25.6906 25.6906 26.25 25 26.25L25 26.25L25 26.25Z" id="Shape#1" fill="url(#gradient_4)" stroke="none" />
      <path d="M10.625 3.75L19.375 3.75L19.375 26.25L10.625 26.25L10.625 3.75L10.625 3.75Z" id="Rectangle#1" fill="#000000" fill-opacity="0.050980393" fill-rule="evenodd" stroke="none" />
      <path d="M10.9375 3.75L19.0625 3.75L19.0625 26.25L10.9375 26.25L10.9375 3.75L10.9375 3.75Z" id="Rectangle#2" fill="#000000" fill-opacity="0.07058824" fill-rule="evenodd" stroke="none" />
      <path d="M11.25 3.75L18.75 3.75L18.75 26.25L11.25 26.25L11.25 3.75L11.25 3.75Z" id="Rectangle#3" fill="url(#gradient_5)" fill-rule="evenodd" stroke="none" />
      <path d="M15 7.5C12.9288 7.5 11.25 9.17875 11.25 11.25L11.25 26.25L18.75 26.25L18.75 11.25C18.75 9.17875 17.0712 7.5 15 7.5L15 7.5L15 7.5Z" id="Shape#2" fill="url(#gradient_6)" stroke="none" />
      <path d="M12.5 20C12.0438 20 11.6187 19.875 11.25 19.6562L11.25 20.3687C11.6313 20.5312 12.0563 20.625 12.5 20.625L17.5 20.625C17.9437 20.625 18.3687 20.5312 18.75 20.3687L18.75 19.6562C18.3813 19.875 17.9562 20 17.5 20L12.5 20L12.5 20L12.5 20ZM18.125 13.75L18.125 17.5C18.125 17.8438 17.8438 18.125 17.5 18.125L16.25 18.125L16.25 16.875C16.25 16.1875 15.6875 15.625 15 15.625C14.3125 15.625 13.75 16.1875 13.75 16.875L13.75 18.125L12.5 18.125C12.1562 18.125 11.875 17.8438 11.875 17.5L11.875 13.75C11.875 13.4062 11.5938 13.125 11.25 13.125L11.25 17.5C11.25 18.1875 11.8125 18.75 12.5 18.75L14.375 18.75L14.375 16.875C14.375 16.5312 14.6562 16.25 15 16.25C15.3438 16.25 15.625 16.5312 15.625 16.875L15.625 18.75L17.5 18.75C18.1875 18.75 18.75 18.1875 18.75 17.5L18.75 13.125C18.4062 13.125 18.125 13.4062 18.125 13.75L18.125 13.75L18.125 13.75Z" id="Shape#3" fill="#000000" fill-opacity="0.050980393" fill-rule="evenodd" stroke="none" />
      <path d="M18.4375 13.75L18.4375 17.5C18.4375 18.0187 18.0187 18.4375 17.5 18.4375L15.9375 18.4375L15.9375 16.875C15.9375 16.3563 15.5188 15.9375 15 15.9375C14.4812 15.9375 14.0625 16.3563 14.0625 16.875L14.0625 18.4375L12.5 18.4375C11.9812 18.4375 11.5625 18.0187 11.5625 17.5L11.5625 13.75C11.5625 13.575 11.425 13.4375 11.25 13.4375L11.25 17.5C11.25 18.1875 11.8125 18.75 12.5 18.75L14.375 18.75L14.375 16.875C14.375 16.5312 14.6562 16.25 15 16.25C15.3438 16.25 15.625 16.5312 15.625 16.875L15.625 18.75L17.5 18.75C18.1875 18.75 18.75 18.1875 18.75 17.5L18.75 13.4375C18.575 13.4375 18.4375 13.575 18.4375 13.75L18.4375 13.75L18.4375 13.75ZM12.5 20C12.0438 20 11.6187 19.875 11.25 19.6562L11.25 20.0187C11.625 20.2063 12.05 20.3125 12.5 20.3125L17.5 20.3125C17.95 20.3125 18.375 20.2063 18.75 20.0187L18.75 19.6562C18.3813 19.875 17.9562 20 17.5 20L12.5 20L12.5 20L12.5 20Z" id="Shape#4" fill="#000000" fill-opacity="0.07058824" fill-rule="evenodd" stroke="none" />
      <path d="M20 14.375L20 17.5C20 18.875 18.875 20 17.5 20L12.5 20C11.125 20 10 18.875 10 17.5L10 14.375C10 13.6844 10.5594 13.125 11.25 13.125L11.25 13.125L11.25 17.5C11.25 18.1906 11.8094 18.75 12.5 18.75L14.375 18.75L14.375 16.875C14.375 16.53 14.655 16.25 15 16.25L15 16.25C15.345 16.25 15.625 16.53 15.625 16.875L15.625 18.75L17.5 18.75C18.1906 18.75 18.75 18.1906 18.75 17.5L18.75 13.125C19.4375 13.125 20 13.6875 20 14.375L20 14.375L20 14.375Z" id="Shape#5" fill="url(#gradient_7)" stroke="none" />
    </g>
  </g>
</svg>