<?xml version="1.0" encoding="utf-8"?>
<svg width="48px" height="48px" viewBox="0 0 48 48" version="1.1" xmlns:xlink="http://www.w3.org/1999/xlink" xmlns="http://www.w3.org/2000/svg">
  <defs>
    <linearGradient gradientUnits="userSpaceOnUse" x1="19.999958" y1="0.55998594" x2="19.999952" y2="38.320965" id="gradient_1">
      <stop offset="90%" stop-color="#6D7882" />
      <stop offset="91.7%" stop-color="#45494D" />
    </linearGradient>
    <linearGradient gradientUnits="userSpaceOnUse" x1="0" y1="2" x2="4" y2="2" id="gradient_2">
      <stop offset="0%" stop-color="#4B4B4B" />
      <stop offset="100%" stop-color="#3B3B3B" />
    </linearGradient>
    <linearGradient gradientUnits="userSpaceOnUse" x1="12" y1="-4.2609825" x2="12" y2="23.280045" id="gradient_3">
      <stop offset="0%" stop-color="#9EA7B0" />
      <stop offset="100%" stop-color="#6F7D8A" />
    </linearGradient>
    <linearGradient gradientUnits="userSpaceOnUse" x1="8" y1="-0.022096904" x2="8" y2="9.988924" id="gradient_4">
      <stop offset="0%" stop-color="#124787" />
      <stop offset="92.299995%" stop-color="#173B75" />
      <stop offset="100%" stop-color="#173A73" />
    </linearGradient>
    <path d="M0 0L48 0L48 48L0 48L0 0Z" id="path_1" />
    <clipPath id="clip_1">
      <use xlink:href="#path_1" />
    </clipPath>
  </defs>
  <g id="SLR Back Side" clip-path="url(#clip_1)">
    <path d="M0 0L48 0L48 48L0 48L0 0Z" id="SLR-Back-Side" fill="none" fill-rule="evenodd" stroke="none" />
    <path d="M4 12L4 40C4 41.105 4.895 42 6 42L42 42C43.105 42 44 41.105 44 40L44 12C44 10.895 43.105 10 42 10L28.295 10C27.613 10 26.983 9.659 26.615 9.085C26.038 8.184 25.161 6.815 24.583 5.915C24.215 5.341 23.585 5 22.903 5L15.095 5C14.413 5 13.778 5.347 13.411 5.922L11.39 9.078C11.022 9.653 10.388 10 9.706 10L6 10C4.895 10 4 10.895 4 12L4 12Z" id="Shape" fill="url(#gradient_1)" stroke="none" />
    <path d="M35 17C35 15.8954 35.8954 15 37 15C38.1046 15 39 15.8954 39 17C39 18.1046 38.1046 19 37 19C35.8954 19 35 18.1046 35 17Z" id="Circle" fill="url(#gradient_2)" fill-rule="evenodd" stroke="none" />
    <path d="M35 25C35 23.8954 35.8954 23 37 23C38.1046 23 39 23.8954 39 25C39 26.1046 38.1046 27 37 27C35.8954 27 35 26.1046 35 25Z" id="Circle" fill="url(#gradient_2)" fill-rule="evenodd" stroke="none" />
    <path d="M35 33C35 31.8954 35.8954 31 37 31C38.1046 31 39 31.8954 39 33C39 34.1046 38.1046 35 37 35C35.8954 35 35 34.1046 35 33Z" id="Circle" fill="url(#gradient_2)" fill-rule="evenodd" stroke="none" />
    <path d="M33 9C33 8.448 33.448 8 34 8L39 8C39.552 8 40 8.448 40 9L40 10L33 10L33 9L33 9Z" id="Shape" fill="#0076D7" stroke="none" />
    <path d="M28 35L12 35C9.791 35 8 33.209 8 31L8 20C8 17.791 9.791 16 12 16L28 16C30.209 16 32 17.791 32 20L32 31C32 33.209 30.209 35 28 35L28 35Z" id="Shape" fill="url(#gradient_3)" stroke="none" />
    <path d="M28 18L12 18C10.895 18 10 18.895 10 20L10 30C10 31.657 11.343 33 13 33L27.548 33C28.902 33 30 31.902 30 30.548L30 20C30 18.895 29.105 18 28 18L28 18Z" id="Shape" fill="#29AFEA" stroke="none" />
    <path d="M30 30.488L24.62 25.108C24.042 24.53 23.109 24.518 22.516 25.08L18 29.357L17 33L28 33C29.105 33 30 32.105 30 31L30 30.488L30 30.488Z" id="Shape" fill="#436DCD" stroke="none" />
    <path d="M26 33L16.721 23.721C16.016 23.016 14.878 23.001 14.154 23.686L10 27.622L10 31C10 32.105 10.895 33 12 33L26 33L26 33Z" id="Shape" fill="url(#gradient_4)" stroke="none" />
    <path d="M20 22C20 21.4477 20.4477 21 21 21C21.5523 21 22 21.4477 22 22C22 22.5523 21.5523 23 21 23C20.4477 23 20 22.5523 20 22Z" id="Circle" fill="#FFFFFF" fill-rule="evenodd" stroke="none" />
  </g>
</svg>