<?xml version="1.0" encoding="utf-8"?>
<svg width="48px" height="48px" viewBox="0 0 48 48" version="1.1" xmlns:xlink="http://www.w3.org/1999/xlink" xmlns="http://www.w3.org/2000/svg">
  <defs>
    <path d="M48 0L48 0L48 48L0 48L0 0L48 0Z" id="path_1" />
    <clipPath id="clip_1">
      <use xlink:href="#path_1" />
    </clipPath>
  </defs>
  <g id="Registry Editor" clip-path="url(#clip_1)">
    <path d="M48 0L48 0L48 48L0 48L0 0L48 0Z" id="Registry-Editor" fill="none" stroke="none" />
    <path d="M15 23L6 23L6 15C6 14.4 6.4 14 7 14L14 14C14.6 14 15 14.4 15 15L15 23L15 23Z" id="Shape" fill="#37C6D0" stroke="none" />
    <path d="M15 41L7 41C6.4 41 6 40.6 6 40L6 32L15 32L15 41L15 41Z" id="Shape" fill="#37C6D0" stroke="none" />
    <path d="M32 41L24 41L24 32L32 32C32.6 32 33 32.4 33 33L33 40C33 40.6 32.6 41 32 41L32 41Z" id="Shape" fill="#37C6D0" stroke="none" />
    <path d="M6 23L15 23L15 32L6 32L6 23Z" id="Rectangle" fill="#1A9BA1" fill-rule="evenodd" stroke="none" />
    <path d="M15 32L24 32L24 41L15 41L15 32Z" id="Rectangle" fill="#1A9BA1" fill-rule="evenodd" stroke="none" />
    <path d="M24 32L15 32L15 23L23 23C23.6 23 24 23.4 24 24L24 32L24 32Z" id="Shape" fill="#37C6D0" stroke="none" />
    <path d="M41 15L34 15C33.4 15 33 14.6 33 14L33 7C33 6.4 33.4 6 34 6L41 6C41.6 6 42 6.4 42 7L42 14C42 14.6 41.6 15 41 15L41 15Z" id="Shape" fill="#37C6D0" stroke="none" />
    <path d="M22.8 19.2L17.9 14.3C17.5 13.9 17.5 13.3 17.9 12.9L22.8 8C23.2 7.6 23.8 7.6 24.2 8L29.1 12.9C29.5 13.3 29.5 13.9 29.1 14.3L24.2 19.2C23.8 19.5 23.2 19.5 22.8 19.2L22.8 19.2Z" id="Shape" fill="#37C6D0" stroke="none" />
    <path d="M41.1 26.8L34.4 28.8C33.9 29 33.3 28.7 33.2 28.1L31.2 21.4C31 20.9 31.3 20.3 31.9 20.2L38.6 18.2C39.1 18 39.7 18.3 39.8 18.9L41.8 25.6C42 26.1 41.7 26.7 41.1 26.8L41.1 26.8Z" id="Shape" fill="#37C6D0" stroke="none" />
  </g>
</svg>