<?xml version="1.0" encoding="utf-8"?>
<svg width="48px" height="48px" viewBox="0 0 48 48" version="1.1" xmlns:xlink="http://www.w3.org/1999/xlink" xmlns="http://www.w3.org/2000/svg">
  <defs>
    <linearGradient gradientUnits="userSpaceOnUse" x1="2.4508667" y1="0.085001945" x2="2.5579834" y2="15.271004" id="gradient_1">
      <stop offset="0%" stop-color="#FEDE00" />
      <stop offset="100%" stop-color="#F5AA00" />
    </linearGradient>
    <linearGradient gradientUnits="userSpaceOnUse" x1="2.4438477" y1="0.085001945" x2="2.5509644" y2="15.272005" id="gradient_2">
      <stop offset="0%" stop-color="#F44F5A" />
      <stop offset="44.3%" stop-color="#EE3D4A" />
      <stop offset="100%" stop-color="#E52030" />
    </linearGradient>
    <linearGradient gradientUnits="userSpaceOnUse" x1="12.352943" y1="0.20600319" x2="12.659836" y2="43.706" id="gradient_3">
      <stop offset="0%" stop-color="#28AFEA" />
      <stop offset="100%" stop-color="#047ED6" />
    </linearGradient>
    <linearGradient gradientUnits="userSpaceOnUse" x1="3.7990723" y1="4.584999" x2="4.346924" y2="43.881" id="gradient_4">
      <stop offset="0%" stop-color="#0077D2" />
      <stop offset="100%" stop-color="#0B59A2" />
    </linearGradient>
    <linearGradient gradientUnits="userSpaceOnUse" x1="0" y1="1.5" x2="7" y2="1.5" id="gradient_5">
      <stop offset="0%" stop-color="#C8CDD1" />
      <stop offset="100%" stop-color="#B3B3B3" />
    </linearGradient>
    <path d="M0 0L48 0L48 48L0 48L0 0Z" id="path_1" />
    <clipPath id="mask_1">
      <use xlink:href="#path_1" />
    </clipPath>
  </defs>
  <g id="Copybook-Icon">
    <path d="M0 0L48 0L48 48L0 48L0 0Z" id="Background" fill="#FFFFFF" fill-opacity="0" fill-rule="evenodd" stroke="none" />
    <path d="M40 42L37 42L37 28L42 28L42 40C42 41.1 41.1 42 40 42L40 42Z" id="Shape" fill="#00C92C" stroke="none" />
    <path d="M40 31L37 31L37 17L42 17L42 29C42 30.1 41.1 31 40 31L40 31Z" id="Shape" fill="url(#gradient_1)" stroke="none" />
    <path d="M40 20L37 20L37 6L40 6C41.1 6 42 6.9 42 8L42 18C42 19.1 41.1 20 40 20L40 20Z" id="Shape" fill="url(#gradient_2)" stroke="none" />
    <path d="M37 44L14 44L14 4L37 4C38.1 4 39 4.9 39 6L39 42C39 43.1 38.1 44 37 44L37 44Z" id="Shape" fill="url(#gradient_3)" stroke="none" />
    <path d="M10 4L16 4L16 44L10 44C8.9 44 8 43.1 8 42L8 6C8 4.9 8.9 4 10 4L10 4Z" id="Shape" fill="url(#gradient_4)" stroke="none" />
    <path d="M14.5 10.5L14.5 10.5C14.5 12.157 13.157 13.5 11.5 13.5L8 13.5L8 7.5L11.5 7.5C13.157 7.5 14.5 8.843 14.5 10.5L14.5 10.5Z" id="Shape" fill="#000000" fill-opacity="0.05" stroke="none" />
    <path d="M13.75 10.5L13.75 10.5C13.75 11.743 12.743 12.75 11.5 12.75L8 12.75L8 8.25L11.5 8.25C12.743 8.25 13.75 9.257 13.75 10.5L13.75 10.5Z" id="Shape" fill="#000000" fill-opacity="0.07" stroke="none" />
    <path d="M14.5 37.5L14.5 37.5C14.5 39.157 13.157 40.5 11.5 40.5L8 40.5L8 34.5L11.5 34.5C13.157 34.5 14.5 35.843 14.5 37.5L14.5 37.5Z" id="Shape" fill="#000000" fill-opacity="0.05" stroke="none" />
    <path d="M13.75 37.5L13.75 37.5C13.75 38.743 12.743 39.75 11.5 39.75L8 39.75L8 35.25L11.5 35.25C12.743 35.25 13.75 36.257 13.75 37.5L13.75 37.5Z" id="Shape" fill="#000000" fill-opacity="0.07" stroke="none" />
    <path d="M13 37.5L13 37.5C13 38.328 12.328 39 11.5 39L7.5 39C6.672 39 6 38.328 6 37.5L6 37.5C6 36.672 6.672 36 7.5 36L11.5 36C12.328 36 13 36.672 13 37.5L13 37.5Z" id="Shape" fill="url(#gradient_5)" stroke="none" />
    <path d="M14.5 24.5L14.5 24.5C14.5 26.157 13.157 27.5 11.5 27.5L8 27.5L8 21.5L11.5 21.5C13.157 21.5 14.5 22.843 14.5 24.5L14.5 24.5Z" id="Shape" fill="#000000" fill-opacity="0.05" stroke="none" />
    <path d="M13.75 24.5L13.75 24.5C13.75 25.743 12.743 26.75 11.5 26.75L8 26.75L8 22.25L11.5 22.25C12.743 22.25 13.75 23.257 13.75 24.5L13.75 24.5Z" id="Shape" fill="#000000" fill-opacity="0.07" stroke="none" />
    <path d="M13 24.5L13 24.5C13 25.328 12.328 26 11.5 26L7.5 26C6.672 26 6 25.328 6 24.5L6 24.5C6 23.672 6.672 23 7.5 23L11.5 23C12.328 23 13 23.672 13 24.5L13 24.5Z" id="Shape" fill="url(#gradient_5)" stroke="none" />
    <path d="M13 10.5L13 10.5C13 11.328 12.328 12 11.5 12L7.5 12C6.672 12 6 11.328 6 10.5L6 10.5C6 9.672 6.672 9 7.5 9L11.5 9C12.328 9 13 9.672 13 10.5L13 10.5Z" id="Shape" fill="url(#gradient_5)" stroke="none" />
    <path d="M34.464 21L20.536 21C20.24 21 20 20.776 20 20.5L20 19.5C20 19.224 20.24 19 20.536 19L34.465 19C34.76 19 35 19.224 35 19.5L35 20.5C35 20.776 34.76 21 34.464 21L34.464 21Z" id="Shape" fill="#F9F9F9" stroke="none" />
    <path d="M34.464 26L20.536 26C20.24 26 20 25.776 20 25.5L20 24.5C20 24.224 20.24 24 20.536 24L34.465 24C34.76 24 35 24.224 35 24.5L35 25.5C35 25.776 34.76 26 34.464 26L34.464 26Z" id="Shape" fill="#F9F9F9" stroke="none" />
  </g>
</svg>