<?xml version="1.0" encoding="utf-8"?>
<svg width="48px" height="48px" viewBox="0 0 48 48" version="1.1" xmlns:xlink="http://www.w3.org/1999/xlink" xmlns="http://www.w3.org/2000/svg">
  <defs>
    <linearGradient gradientUnits="userSpaceOnUse" x1="0.5290003" y1="10.472" x2="5.6" y2="5.3999996" id="gradient_1">
      <stop offset="0%" stop-color="#3079D6" />
      <stop offset="100%" stop-color="#297CD2" />
    </linearGradient>
    <linearGradient gradientUnits="userSpaceOnUse" x1="-20.15367" y1="-9.867082" x2="-20.091185" y2="-1.0085813" id="gradient_2">
      <stop offset="0%" stop-color="#FEDE00" />
      <stop offset="100%" stop-color="#F5AA00" />
    </linearGradient>
    <linearGradient gradientUnits="userSpaceOnUse" x1="-20.157764" y1="-3.4504156" x2="-20.09528" y2="5.408669" id="gradient_3">
      <stop offset="0%" stop-color="#F44F5A" />
      <stop offset="44.3%" stop-color="#EE3D4A" />
      <stop offset="100%" stop-color="#E52030" />
    </linearGradient>
    <linearGradient gradientUnits="userSpaceOnUse" x1="-0.96078306" y1="-2.2131648" x2="-0.7817625" y2="23.161835" id="gradient_4">
      <stop offset="0%" stop-color="#28AFEA" />
      <stop offset="100%" stop-color="#047ED6" />
    </linearGradient>
    <linearGradient gradientUnits="userSpaceOnUse" x1="-2.4505408" y1="0.34124944" x2="-2.1309607" y2="23.263918" id="gradient_5">
      <stop offset="0%" stop-color="#0077D2" />
      <stop offset="100%" stop-color="#0B59A2" />
    </linearGradient>
    <linearGradient gradientUnits="userSpaceOnUse" x1="-3.5" y1="-20.125" x2="0.583333" y2="-20.125" id="gradient_6">
      <stop offset="0%" stop-color="#C8CDD1" />
      <stop offset="100%" stop-color="#B3B3B3" />
    </linearGradient>
    <linearGradient gradientUnits="userSpaceOnUse" x1="-3.5" y1="-12.541667" x2="0.583333" y2="-12.541667" id="gradient_7">
      <stop offset="0%" stop-color="#C8CDD1" />
      <stop offset="100%" stop-color="#B3B3B3" />
    </linearGradient>
    <linearGradient gradientUnits="userSpaceOnUse" x1="-3.5" y1="-4.375" x2="0.583333" y2="-4.375" id="gradient_8">
      <stop offset="0%" stop-color="#C8CDD1" />
      <stop offset="100%" stop-color="#B3B3B3" />
    </linearGradient>
    <path d="M0 0L48 0L48 48L0 48L0 0Z" id="path_1" />
    <clipPath id="mask_1">
      <use xlink:href="#path_1" />
    </clipPath>
  </defs>
  <g id="File-Icon-2">
    <path d="M0 0L48 0L48 48L0 48L0 0Z" id="Background" fill="#FFFFFF" fill-opacity="0" fill-rule="evenodd" stroke="none" />
    <g clip-path="url(#mask_1)">
      <path d="M39 16L39 41C39 42.105 38.105 43 37 43L11 43C9.895 43 9 42.105 9 41L9 7C9 5.895 9.895 5 11 5L28 5L39 16L39 16Z" id="Shape" fill="#50E6FF" fill-rule="evenodd" stroke="none" />
      <path d="M28 5L28 14C28 15.105 28.895 16 30 16L39 16L28 5L28 5Z" id="Shape" fill="url(#gradient_1)" fill-rule="evenodd" stroke="none" />
    </g>
  </g>
  <g id="svg" transform="translate(9.5 15.5)">
    <g id="Copybook-Icon">
      <path d="M0 0L28 0L28 28L0 28L0 0L0 0Z" id="Background" fill="#FFFFFF" fill-opacity="0" fill-rule="evenodd" stroke="none" />
      <path d="M23.3333 24.5L21.5833 24.5L21.5833 16.3333L24.5 16.3333L24.5 23.3333C24.5 23.975 23.975 24.5 23.3333 24.5L23.3333 24.5L23.3333 24.5Z" id="Shape" fill="#00C92C" stroke="none" />
      <path d="M23.3333 18.0833L21.5833 18.0833L21.5833 9.91665L24.5 9.91665L24.5 16.9167C24.5 17.5583 23.975 18.0833 23.3333 18.0833L23.3333 18.0833L23.3333 18.0833Z" id="Shape#1" fill="url(#gradient_2)" stroke="none" />
      <path d="M23.3333 11.6667L21.5833 11.6667L21.5833 3.5L23.3333 3.5C23.975 3.5 24.5 4.025 24.5 4.66667L24.5 10.5C24.5 11.1417 23.975 11.6667 23.3333 11.6667L23.3333 11.6667L23.3333 11.6667Z" id="Shape#2" fill="url(#gradient_3)" stroke="none" />
      <path d="M21.5833 25.6667L8.16665 25.6667L8.16665 2.33335L21.5833 2.33335C22.225 2.33335 22.75 2.85835 22.75 3.50002L22.75 24.5C22.75 25.1417 22.225 25.6667 21.5833 25.6667L21.5833 25.6667L21.5833 25.6667Z" id="Shape#3" fill="url(#gradient_4)" stroke="none" />
      <path d="M5.83332 2.33335L9.33332 2.33335L9.33332 25.6667L5.83332 25.6667C5.19165 25.6667 4.66665 25.1417 4.66665 24.5L4.66665 3.50002C4.66665 2.85835 5.19165 2.33335 5.83332 2.33335L5.83332 2.33335L5.83332 2.33335Z" id="Shape#4" fill="url(#gradient_5)" stroke="none" />
      <path d="M8.45832 6.125L8.45832 6.125C8.45832 7.09158 7.6749 7.875 6.70832 7.875L4.66665 7.875L4.66665 4.375L6.70832 4.375C7.6749 4.375 8.45832 5.15842 8.45832 6.125L8.45832 6.125L8.45832 6.125Z" id="Shape#5" fill="#000000" fill-opacity="0.050980393" stroke="none" />
      <path d="M8.02082 6.125L8.02082 6.125C8.02082 6.85008 7.4334 7.4375 6.70832 7.4375L4.66665 7.4375L4.66665 4.8125L6.70832 4.8125C7.4334 4.8125 8.02082 5.39992 8.02082 6.125L8.02082 6.125L8.02082 6.125Z" id="Shape#6" fill="#000000" fill-opacity="0.07058824" stroke="none" />
      <path d="M8.45832 21.875L8.45832 21.875C8.45832 22.8416 7.6749 23.625 6.70832 23.625L4.66665 23.625L4.66665 20.125L6.70832 20.125C7.6749 20.125 8.45832 20.9084 8.45832 21.875L8.45832 21.875L8.45832 21.875Z" id="Shape#7" fill="#000000" fill-opacity="0.050980393" stroke="none" />
      <path d="M8.02082 21.875L8.02082 21.875C8.02082 22.6001 7.4334 23.1875 6.70832 23.1875L4.66665 23.1875L4.66665 20.5625L6.70832 20.5625C7.4334 20.5625 8.02082 21.1499 8.02082 21.875L8.02082 21.875L8.02082 21.875Z" id="Shape#8" fill="#000000" fill-opacity="0.07058824" stroke="none" />
      <path d="M7.58333 21.875L7.58333 21.875C7.58333 22.358 7.19133 22.75 6.70833 22.75L4.375 22.75C3.892 22.75 3.5 22.358 3.5 21.875L3.5 21.875C3.5 21.392 3.892 21 4.375 21L6.70833 21C7.19133 21 7.58333 21.392 7.58333 21.875L7.58333 21.875L7.58333 21.875Z" id="Shape#9" fill="url(#gradient_6)" stroke="none" />
      <path d="M8.45832 14.2917L8.45832 14.2917C8.45832 15.2582 7.6749 16.0417 6.70832 16.0417L4.66665 16.0417L4.66665 12.5417L6.70832 12.5417C7.6749 12.5417 8.45832 13.3251 8.45832 14.2917L8.45832 14.2917L8.45832 14.2917Z" id="Shape#10" fill="#000000" fill-opacity="0.050980393" stroke="none" />
      <path d="M8.02082 14.2917L8.02082 14.2917C8.02082 15.0167 7.4334 15.6042 6.70832 15.6042L4.66665 15.6042L4.66665 12.9792L6.70832 12.9792C7.4334 12.9792 8.02082 13.5666 8.02082 14.2917L8.02082 14.2917L8.02082 14.2917Z" id="Shape#11" fill="#000000" fill-opacity="0.07058824" stroke="none" />
      <path d="M7.58333 14.2917L7.58333 14.2917C7.58333 14.7747 7.19133 15.1667 6.70833 15.1667L4.375 15.1667C3.892 15.1667 3.5 14.7747 3.5 14.2917L3.5 14.2917C3.5 13.8087 3.892 13.4167 4.375 13.4167L6.70833 13.4167C7.19133 13.4167 7.58333 13.8087 7.58333 14.2917L7.58333 14.2917L7.58333 14.2917Z" id="Shape#12" fill="url(#gradient_7)" stroke="none" />
      <path d="M7.58333 6.125L7.58333 6.125C7.58333 6.608 7.19133 7 6.70833 7L4.375 7C3.892 7 3.5 6.608 3.5 6.125L3.5 6.125C3.5 5.642 3.892 5.25 4.375 5.25L6.70833 5.25C7.19133 5.25 7.58333 5.642 7.58333 6.125L7.58333 6.125L7.58333 6.125Z" id="Shape#13" fill="url(#gradient_8)" stroke="none" />
      <path d="M20.104 12.25L11.9793 12.25C11.8067 12.25 11.6667 12.1193 11.6667 11.9583L11.6667 11.375C11.6667 11.214 11.8067 11.0833 11.9793 11.0833L20.1046 11.0833C20.2766 11.0833 20.4167 11.214 20.4167 11.375L20.4167 11.9583C20.4167 12.1193 20.2766 12.25 20.104 12.25L20.104 12.25L20.104 12.25Z" id="Shape#14" fill="#F9F9F9" stroke="none" />
      <path d="M20.104 15.1667L11.9793 15.1667C11.8067 15.1667 11.6667 15.036 11.6667 14.875L11.6667 14.2917C11.6667 14.1307 11.8067 14 11.9793 14L20.1046 14C20.2766 14 20.4167 14.1307 20.4167 14.2917L20.4167 14.875C20.4167 15.036 20.2766 15.1667 20.104 15.1667L20.104 15.1667L20.104 15.1667Z" id="Shape#15" fill="#F9F9F9" stroke="none" />
    </g>
  </g>
</svg>