<?xml version="1.0" encoding="utf-8"?>
<svg width="48px" height="49px" viewBox="0 0 48 49" version="1.1" xmlns:xlink="http://www.w3.org/1999/xlink" xmlns="http://www.w3.org/2000/svg">
  <defs>
    <linearGradient x1="0.5" y1="-0.008588225" x2="0.5" y2="0.23461767" id="gradient_1">
      <stop offset="0" stop-color="#EBA600" />
      <stop offset="1" stop-color="#C28200" />
    </linearGradient>
    <linearGradient x1="0.5" y1="-0.0048666596" x2="0.5" y2="0.9994334" id="gradient_2">
      <stop offset="0" stop-color="#FFD869" />
      <stop offset="1" stop-color="#FEC52B" />
    </linearGradient>
    <radialGradient gradientUnits="objectBoundingBox" cx="-101.55341%" cy="-100.64409%" fx="-101.55341%" fy="-100.64409%" r="247.5877%" gradientTransform="translate(-1.0155342,-1.0064409),translate(1.0155342,1.0064409)" id="gradient_3">
      <stop offset="69.3%" stop-color="#006185" />
      <stop offset="92.09999%" stop-color="#35C1F1" />
    </radialGradient>
    <linearGradient x1="0.15346876" y1="0.15346876" x2="0.8543438" y2="0.8543438" id="gradient_4">
      <stop offset="0" stop-color="#A3FFFF" />
      <stop offset="0.223" stop-color="#9DFBFF" />
      <stop offset="0.53" stop-color="#8BF1FF" />
      <stop offset="0.885" stop-color="#6EE0FF" />
      <stop offset="1" stop-color="#63DAFF" />
    </linearGradient>
    <linearGradient x1="-0.007916659" y1="0.045277715" x2="0.96825" y2="1.0214167" id="gradient_5">
      <stop offset="0" stop-color="#32BDEF" />
      <stop offset="1" stop-color="#1EA2E4" />
    </linearGradient>
    <radialGradient gradientUnits="objectBoundingBox" cx="12.865001%" cy="-28.266668%" fx="12.865001%" fy="-28.266668%" r="198.91667%" gradientTransform="translate(0.12865001,-0.28266668),scale(0.6,1),translate(-0.12865001,0.28266668)" id="gradient_6">
      <stop offset="0%" stop-color="#FAFAFB" />
      <stop offset="52.3%" stop-color="#E2E4E7" />
      <stop offset="100%" stop-color="#C8CDD1" />
    </radialGradient>
    <linearGradient x1="0.001499176" y1="0.0015001297" x2="1.0135002" y2="1.0135" id="gradient_7">
      <stop offset="0" stop-color="#0D61A9" />
      <stop offset="1" stop-color="#16528C" />
    </linearGradient>
    <linearGradient x1="0.0015001297" y1="0.0015001297" x2="1.0135002" y2="1.0135" id="gradient_8">
      <stop offset="0" stop-color="#0D61A9" />
      <stop offset="1" stop-color="#16528C" />
    </linearGradient>
    <linearGradient x1="0.07625002" y1="-0.135625" x2="0.9568751" y2="1.1853125" id="gradient_9">
      <stop offset="0" stop-color="#FFFFFF" />
      <stop offset="0.242" stop-color="#F2F2F2" />
      <stop offset="1" stop-color="#CCCCCC" />
    </linearGradient>
    <path d="M0 0L48 0L48 48L0 48L0 0Z" id="path_1" />
    <path d="M0 0L25 0L25 25L0 25L0 0Z" id="path_2" />
    <path d="M0 0L15 0L15 15L0 15L0 0Z" id="path_3" />
    <clipPath id="mask_1">
      <use xlink:href="#path_1" />
    </clipPath>
    <clipPath id="mask_2">
      <use xlink:href="#path_2" />
    </clipPath>
    <clipPath id="mask_3">
      <use xlink:href="#path_3" />
    </clipPath>
  </defs>
  <g id="icons8_folder_3">
    <path d="M0 0L48 0L48 48L0 48L0 0Z" id="Background" fill="none" fill-rule="evenodd" stroke="none" />
    <g clip-path="url(#mask_1)">
      <path d="M21.414 3.414L18.878 0.877999C18.316 0.316 17.553 0 16.757 0L2 0C0.895 0 0 0.895 0 2L0 32C0 33.105 0.895 34 2 34L40 34C41.105 34 42 33.105 42 32L42 6C42 4.895 41.105 4 40 4L22.828 4C22.298 4 21.789 3.789 21.414 3.414L21.414 3.414Z" transform="translate(3 7)" id="Shape" fill="url(#gradient_1)" fill-rule="evenodd" stroke="none" />
      <path d="M18.586 3.414L21.854 0.146C21.947 0.0530005 22.074 0 22.207 0L40 0C41.105 0 42 0.895001 42 2L42 28C42 29.105 41.105 30 40 30L2 30C0.895 30 0 29.105 0 28L0 4.5C0 4.224 0.224 4 0.5 4L17.172 4C17.702 4 18.211 3.789 18.586 3.414L18.586 3.414Z" transform="translate(3 11)" id="Shape" fill="url(#gradient_2)" fill-rule="evenodd" stroke="none" />
    </g>
  </g>
  <g id="icons8_search_2" transform="matrix(-1 0 0 1 36.525955 15.719086)">
    <path d="M0 0L25 0L25 25L0 25L0 0Z" id="Background" fill="none" fill-rule="evenodd" stroke="none" />
    <g clip-path="url(#mask_2)">
      <path d="M1.84167 0L0 1.84167L4.09896 5.94062C4.20052 6.04219 4.36562 6.04219 4.46719 5.94062L5.9401 4.46771C6.04167 4.36614 6.04167 4.20104 5.9401 4.09948L1.84167 0L1.84167 0Z" transform="translate(16.899475 16.899994)" id="Shape" fill="#199BE2" fill-rule="evenodd" stroke="none" />
      <path d="M1.84167 0L0 1.84167L2.28281 4.12396L4.12396 2.28281L1.84167 0Z" transform="translate(14.6171875 14.6171875)" id="Polygon" fill="url(#gradient_3)" fill-rule="evenodd" stroke="none" />
      <path d="M0 8.33333C0 3.73096 3.73096 0 8.33333 0C12.9357 0 16.6667 3.73096 16.6667 8.33333C16.6667 12.9357 12.9357 16.6667 8.33333 16.6667C3.73096 16.6667 0 12.9357 0 8.33333Z" transform="translate(2.0833435 2.0833282)" id="Circle" fill="url(#gradient_4)" fill-rule="evenodd" stroke="none" />
    </g>
  </g>
  <g id="icons8_save" transform="translate(25.930405 25.274094)">
    <path d="M0 0L15 0L15 15L0 15L0 0Z" id="Background" fill="none" fill-rule="evenodd" stroke="none" />
    <g clip-path="url(#mask_3)">
      <path d="M9.4375 0L0.625 0C0.28125 0 0 0.28125 0 0.625L0 10.625C0 10.9688 0.28125 11.25 0.625 11.25L10.625 11.25C10.9688 11.25 11.25 10.9688 11.25 10.625L11.25 1.8125C11.25 1.65625 11.1875 1.5 11.0625 1.375L9.875 0.1875C9.75 0.0624999 9.59375 0 9.4375 0L9.4375 0Z" transform="translate(1.875 1.875)" id="Shape" fill="url(#gradient_5)" fill-rule="evenodd" stroke="none" />
      <path d="M6.875 0L0 0L0 3.125C0 3.65625 0.40625 4.0625 0.9375 4.0625L5.9375 4.0625C6.46875 4.0625 6.875 3.65625 6.875 3.125L6.875 0L6.875 0Z" transform="translate(4.375 1.875)" id="Shape" fill="#000000" fill-opacity="0.05" fill-rule="evenodd" stroke="none" />
      <path d="M6.875 4.0625L0.625 4.0625C0.28125 4.0625 0 3.78125 0 3.4375L0 0L7.5 0L7.5 3.4375C7.5 3.78125 7.21875 4.0625 6.875 4.0625L6.875 4.0625Z" transform="translate(3.4375 1.875)" id="Shape" fill="#1FA4E6" fill-rule="evenodd" stroke="none" />
      <path d="M5.78125 3.90625L0.78125 3.90625C0.34375 3.90625 0 3.5625 0 3.125L0 0L6.5625 0L6.5625 3.125C6.5625 3.5625 6.21875 3.90625 5.78125 3.90625L5.78125 3.90625Z" transform="translate(4.53125 1.875)" id="Shape" fill="#000000" fill-opacity="0.07" fill-rule="evenodd" stroke="none" />
      <path d="M0 0L0 3.125C0 3.46875 0.28125 3.75 0.625 3.75L5.625 3.75C5.96875 3.75 6.25 3.46875 6.25 3.125L6.25 0L0 0L0 0Z" transform="translate(4.6875 1.875)" id="Shape" fill="url(#gradient_6)" fill-rule="evenodd" stroke="none" />
      <path d="M0 0L1.25 0L1.25 2.5L0 2.5L0 0Z" transform="translate(8.4375 2.5)" id="Rectangle" fill="#177CAD" fill-rule="evenodd" stroke="none" />
      <path d="M0 0L0.625 0L0.625 0.625L0 0.625L0 0Z" transform="translate(11.875 11.875)" id="Rectangle" fill="url(#gradient_7)" fill-rule="evenodd" stroke="none" />
      <path d="M0 0L0.625 0L0.625 0.625L0 0.625L0 0Z" transform="translate(2.5 11.875)" id="Rectangle" fill="url(#gradient_8)" fill-rule="evenodd" stroke="none" />
      <path d="M6.875 5L0.625 5C0.28125 5 0 4.71875 0 4.375L0 0.625C0 0.28125 0.28125 0 0.625 0L6.875 0C7.21875 0 7.5 0.28125 7.5 0.625L7.5 4.375C7.5 4.71875 7.21875 5 6.875 5L6.875 5Z" transform="translate(3.75 8.125)" id="Shape" fill="url(#gradient_9)" fill-rule="evenodd" stroke="none" />
    </g>
  </g>
</svg>