<?xml version="1.0" encoding="utf-8"?>
<svg width="48px" height="48px" viewBox="0 0 48 48" version="1.1" xmlns:xlink="http://www.w3.org/1999/xlink" xmlns="http://www.w3.org/2000/svg">
  <defs>
    <linearGradient gradientUnits="userSpaceOnUse" x1="5.9769998" y1="-10.107" x2="37.764" y2="46.191" id="gradient_1">
      <stop offset="0%" stop-color="#41474A" />
      <stop offset="100%" stop-color="#323538" />
    </linearGradient>
    <linearGradient gradientUnits="userSpaceOnUse" x1="11.9539995" y1="-20.214" x2="75.528" y2="92.382" id="gradient_2">
      <stop offset="0%" stop-color="#ECEFF1" />
      <stop offset="100%" stop-color="#CFD8DC" />
    </linearGradient>
    <path d="M0 0L48 0L48 48L0 48L0 0Z" id="path_1" />
    <clipPath id="clip_1">
      <use xlink:href="#path_1" />
    </clipPath>
  </defs>
  <g id="Linux Terminal" clip-path="url(#clip_1)">
    <path d="M0 0L48 0L48 48L0 48L0 0Z" id="Linux-Terminal" fill="none" fill-rule="evenodd" stroke="none" />
    <path d="M43 40L5 40C3.895 40 3 39.105 3 38L3 9C3 7.895 3.895 7 5 7L43 7C44.105 7 45 7.895 45 9L45 38C45 39.105 44.105 40 43 40L43 40Z" id="Shape" fill="url(#gradient_1)" stroke="none" />
    <path d="M42 10L42 37L6 37L6 10L42 10M43 7L5 7C3.895 7 3 7.895 3 9L3 38C3 39.105 3.895 40 5 40L43 40C44.105 40 45 39.105 45 38L45 9C45 7.895 44.105 7 43 7L43 7L43 7Z" id="Shape" fill="url(#gradient_2)" fill-rule="evenodd" stroke="none" />
    <path d="M16.52 18.527C16.136 18.113 15.565 17.755 14.783 17.438L14.783 16.095C15.186 16.192 15.56 16.346 15.898 16.553L16.659 17.02L16.659 16.127L16.659 14.503L16.659 14.211L16.405 14.068C16.007 13.843 15.473 13.699 14.783 13.63L14.783 13L14.783 12.5L14.283 12.5L13.413 12.5L12.913 12.5L12.913 13L12.913 13.69C12.272 13.826 11.733 14.11 11.307 14.538C10.771 15.076 10.5 15.736 10.5 16.5C10.5 17.203 10.71 17.811 11.125 18.309C11.482 18.736 12.069 19.115 12.913 19.463L12.913 20.728C12.739 20.687 12.553 20.632 12.358 20.563C11.957 20.422 11.661 20.275 11.477 20.124L10.66 19.456L10.66 20.511L10.66 22.177L10.66 22.479L10.927 22.62C11.545 22.945 12.211 23.141 12.912 23.206L12.912 24L12.912 24.5L13.412 24.5L14.282 24.5L14.782 24.5L14.782 24L14.782 23.122C15.466 22.983 16.021 22.711 16.435 22.311C16.956 21.809 17.22 21.147 17.22 20.343C17.22 19.638 16.985 19.027 16.52 18.527L16.52 18.527Z" id="Shape" fill="#000000" fill-opacity="0.05" stroke="none" />
    <path d="M16.886 18.187C16.505 17.776 15.978 17.421 15.282 17.108L15.282 16.793C15.405 16.849 15.523 16.911 15.636 16.98L16.397 17.447L17.159 17.914L17.159 17.021L17.159 16.128L17.159 14.504L17.159 14.212L17.159 13.92L16.905 13.777L16.651 13.634C16.285 13.427 15.835 13.282 15.283 13.192L15.283 13L15.283 12.5L15.283 12L14.783 12L14.283 12L13.413 12L12.913 12L12.413 12L12.413 12.5L12.413 13L12.413 13.305C11.846 13.485 11.356 13.78 10.953 14.185C10.32 14.821 10 15.6 10 16.5C10 17.323 10.249 18.039 10.74 18.629C11.104 19.064 11.653 19.446 12.412 19.791L12.412 20.051C12.037 19.91 11.864 19.796 11.793 19.737L10.976 19.069L10.159 18.401L10.159 19.456L10.159 20.511L10.159 22.177L10.159 22.479L10.159 22.781L10.426 22.922L10.693 23.063C11.234 23.347 11.809 23.542 12.411 23.645L12.411 24L12.411 24.5L12.411 25L12.911 25L13.411 25L14.281 25L14.781 25L15.281 25L15.281 24.5L15.281 24L15.281 23.513C15.881 23.337 16.384 23.054 16.781 22.67C17.403 22.07 17.718 21.287 17.718 20.343C17.72 19.508 17.44 18.782 16.886 18.187L16.886 18.187Z" id="Shape" fill="#000000" fill-opacity="0.05" stroke="none" />
    <path d="M41.5 10.5L41.5 36.5L6.5 36.5L6.5 10.5L41.5 10.5M42 10L6 10L6 37L42 37L42 10L42 10L42 10Z" id="Shape" fill="#000000" fill-opacity="0.05" fill-rule="evenodd" stroke="none" />
    <path d="M6 10L42 10L42 37L6 37L6 10Z" id="Rectangle" fill="none" fill-rule="evenodd" stroke="none" />
    <path d="M41 11L41 36L7 36L7 11L41 11M42 10L6 10L6 37L42 37L42 10L42 10L42 10Z" id="Shape" fill="#000000" fill-opacity="0.05" fill-rule="evenodd" stroke="none" />
    <path d="M25 22.5L19 22.5L18.5 22.5L18.5 23L18.5 24L18.5 24.5L19 24.5L25 24.5L25.5 24.5L25.5 24L25.5 23L25.5 22.5L25 22.5Z" id="Polygon" fill="#000000" fill-opacity="0.05" fill-rule="evenodd" stroke="none" />
    <path d="M25.5 22L25 22L19 22L18.5 22L18 22L18 22.5L18 23L18 24L18 24.5L18 25L18.5 25L19 25L25 25L25.5 25L26 25L26 24.5L26 24L26 23L26 22.5L26 22L25.5 22Z" id="Polygon" fill="#000000" fill-opacity="0.05" fill-rule="evenodd" stroke="none" />
    <path d="M14.283 22.695L14.283 24L13.413 24L13.413 22.731C12.606 22.727 11.856 22.543 11.161 22.178L11.161 20.512C11.391 20.7 11.735 20.875 12.192 21.035C12.649 21.196 13.056 21.288 13.413 21.312L13.413 19.123C12.483 18.774 11.849 18.396 11.509 17.99C11.17 17.582 11 17.086 11 16.5C11 15.87 11.22 15.334 11.661 14.891C12.102 14.448 12.686 14.191 13.413 14.118L13.413 13L14.283 13L14.283 14.095C15.121 14.135 15.747 14.271 16.16 14.504L16.16 16.128C15.604 15.787 14.978 15.579 14.283 15.503L14.283 17.782C15.153 18.099 15.776 18.461 16.154 18.868C16.532 19.275 16.721 19.767 16.721 20.344C16.721 21.01 16.51 21.546 16.088 21.953C15.667 22.359 15.066 22.607 14.283 22.695L14.283 22.695ZM13.413 17.432L13.413 15.525C12.861 15.625 12.584 15.916 12.584 16.397C12.584 16.811 12.861 17.156 13.413 17.432L13.413 17.432ZM14.283 19.465L14.283 21.287C14.851 21.199 15.135 20.912 15.135 20.427C15.134 20.035 14.851 19.714 14.283 19.465L14.283 19.465Z" id="Group" fill="#FFFFFF" fill-rule="evenodd" stroke="none" />
    <path d="M19 23L25 23L25 24L19 24L19 23Z" id="Rectangle" fill="#FFFFFF" fill-rule="evenodd" stroke="none" />
  </g>
</svg>