<?xml version="1.0" encoding="utf-8"?>
<svg width="48px" height="48px" viewBox="0 0 48 48" version="1.1" xmlns:xlink="http://www.w3.org/1999/xlink" xmlns="http://www.w3.org/2000/svg">
  <defs>
    <linearGradient gradientUnits="userSpaceOnUse" x1="0.594" y1="0.1289995" x2="41.679" y2="26.144999" id="gradient_1">
      <stop offset="0%" stop-color="#4C4C4C" />
      <stop offset="100%" stop-color="#343434" />
    </linearGradient>
    <linearGradient gradientUnits="userSpaceOnUse" x1="1.2252495" y1="8.810248" x2="6.0922494" y2="3.9432502" id="gradient_2">
      <stop offset="0%" stop-color="#A0A0A0" />
      <stop offset="56.9%" stop-color="#9E9E9E" />
      <stop offset="77.4%" stop-color="#979797" />
      <stop offset="91.99999%" stop-color="#8C8C8C" />
      <stop offset="100%" stop-color="#818181" />
    </linearGradient>
    <path d="M0 0L48 0L48 48L0 48L0 0Z" id="path_1" />
    <clipPath id="mask_1">
      <use xlink:href="#path_1" />
    </clipPath>
  </defs>
  <g id="Console-Icon">
    <path d="M0 0L48 0L48 48L0 48L0 0Z" id="Background" fill="#FFFFFF" fill-opacity="0" fill-rule="evenodd" stroke="none" />
    <path d="M17 8L31 8L31 15L17 15L17 8Z" id="Rectangle" fill="#999999" fill-rule="evenodd" stroke="none" />
    <path d="M43 8L31 8L31 15L45 15L45 10C45 8.895 44.105 8 43 8L43 8Z" id="Shape" fill="#666666" stroke="none" />
    <path d="M5 8C3.895 8 3 8.895 3 10L3 15L17 15L17 8L5 8L5 8Z" id="Shape" fill="#CCCCCC" stroke="none" />
    <path d="M45 13L3 13L3 38C3 39.105 3.895 40 5 40L43 40C44.105 40 45 39.105 45 38L45 13L45 13Z" id="Shape" fill="url(#gradient_1)" stroke="none" />
    <path d="M10.597 18.314L8.278 20.633C7.764 21.147 7.764 21.98 8.278 22.494L12.256 26.472L8.223 30.505C7.709 31.019 7.709 31.852 8.223 32.366L10.542 34.685C11.056 35.199 11.889 35.199 12.403 34.685L19.685 27.402C20.199 26.888 20.199 26.055 19.685 25.541L12.457 18.313C11.944 17.8 11.111 17.8 10.597 18.314L10.597 18.314Z" id="Shape" fill="#000000" fill-opacity="0.05" stroke="none" />
    <path d="M10.889 18.729L8.692 20.926C8.34 21.278 8.34 21.85 8.692 22.202L12.963 26.473L8.638 30.798C8.286 31.15 8.286 31.722 8.638 32.074L10.835 34.271C11.188 34.623 11.759 34.623 12.111 34.271L19.271 27.11C19.623 26.758 19.623 26.186 19.271 25.834L12.165 18.728C11.813 18.376 11.242 18.376 10.889 18.729L10.889 18.729Z" id="Shape" fill="#000000" fill-opacity="0.07" stroke="none" />
    <path d="M9.053 31.09L16.036 24.107C16.227 23.916 16.537 23.916 16.728 24.107L18.803 26.182C18.994 26.373 18.994 26.683 18.803 26.874L11.82 33.857C11.629 34.048 11.319 34.048 11.128 33.857L9.053 31.782C8.862 31.591 8.862 31.281 9.053 31.09L9.053 31.09Z" id="Shape" fill="url(#gradient_2)" stroke="none" />
    <path d="M11.873 19.143L18.856 26.126C19.047 26.317 19.047 26.627 18.856 26.818L16.781 28.893C16.59 29.084 16.28 29.084 16.089 28.893L9.107 21.91C8.916 21.719 8.916 21.409 9.107 21.218L11.182 19.143C11.373 18.952 11.682 18.952 11.873 19.143L11.873 19.143Z" id="Shape" fill="#D0D0D0" stroke="none" />
    <path d="M22 32L22 36C22 36.552 22.448 37 23 37L40 37C40.552 37 41 36.552 41 36L41 32C41 31.448 40.552 31 40 31L23 31C22.448 31 22 31.448 22 32L22 32Z" id="Shape" fill="#000000" fill-opacity="0.05" stroke="none" />
    <path d="M39.909 36.5L23.091 36.5C22.765 36.5 22.5 36.235 22.5 35.909L22.5 32.091C22.5 31.765 22.765 31.5 23.091 31.5L39.909 31.5C40.235 31.5 40.5 31.765 40.5 32.091L40.5 35.909C40.5 36.235 40.235 36.5 39.909 36.5L39.909 36.5Z" id="Shape" fill="#000000" fill-opacity="0.07" stroke="none" />
    <path d="M23.5 32L39.5 32C39.776 32 40 32.224 40 32.5L40 35.5C40 35.776 39.776 36 39.5 36L23.5 36C23.224 36 23 35.776 23 35.5L23 32.5C23 32.224 23.224 32 23.5 32L23.5 32Z" id="Shape" fill="#D4D4D4" stroke="none" />
  </g>
</svg>