<?xml version="1.0" encoding="utf-8"?>
<svg width="48px" height="48px" viewBox="0 0 48 48" version="1.1" xmlns:xlink="http://www.w3.org/1999/xlink" xmlns="http://www.w3.org/2000/svg">
  <defs>
    <linearGradient gradientUnits="userSpaceOnUse" x1="0.5290003" y1="10.472" x2="5.6" y2="5.3999996" id="gradient_1">
      <stop offset="0%" stop-color="#3079D6" />
      <stop offset="100%" stop-color="#297CD2" />
    </linearGradient>
    <linearGradient gradientUnits="userSpaceOnUse" x1="-1.4536251" y1="-7.77623" x2="23.368563" y2="7.94177" id="gradient_2">
      <stop offset="0%" stop-color="#4C4C4C" />
      <stop offset="100%" stop-color="#343434" />
    </linearGradient>
    <linearGradient gradientUnits="userSpaceOnUse" x1="-4.6427193" y1="-9.155239" x2="-1.7022402" y2="-12.095717" id="gradient_3">
      <stop offset="0%" stop-color="#A0A0A0" />
      <stop offset="56.9%" stop-color="#9E9E9E" />
      <stop offset="77.4%" stop-color="#979797" />
      <stop offset="91.99999%" stop-color="#8C8C8C" />
      <stop offset="100%" stop-color="#818181" />
    </linearGradient>
    <path d="M0 0L48 0L48 48L0 48L0 0Z" id="path_1" />
    <clipPath id="mask_1">
      <use xlink:href="#path_1" />
    </clipPath>
  </defs>
  <g id="File-Icon-2">
    <path d="M0 0L48 0L48 48L0 48L0 0Z" id="Background" fill="#FFFFFF" fill-opacity="0" fill-rule="evenodd" stroke="none" />
    <g clip-path="url(#mask_1)">
      <path d="M39 16L39 41C39 42.105 38.105 43 37 43L11 43C9.895 43 9 42.105 9 41L9 7C9 5.895 9.895 5 11 5L28 5L39 16L39 16Z" id="Shape" fill="#50E6FF" fill-rule="evenodd" stroke="none" />
      <path d="M28 5L28 14C28 15.105 28.895 16 30 16L39 16L28 5L28 5Z" id="Shape" fill="url(#gradient_1)" fill-rule="evenodd" stroke="none" />
    </g>
  </g>
  <g id="svg" transform="translate(9.5 15)">
    <g id="Console-Icon">
      <path d="M0 0L29 0L29 29L0 29L0 0L0 0Z" id="Background" fill="#FFFFFF" fill-opacity="0" fill-rule="evenodd" stroke="none" />
      <path d="M10.2708 4.83333L18.7292 4.83333L18.7292 9.06249L10.2708 9.06249L10.2708 4.83333L10.2708 4.83333Z" id="Rectangle" fill="#999999" fill-rule="evenodd" stroke="none" />
      <path d="M25.9792 4.83333L18.7292 4.83333L18.7292 9.06249L27.1875 9.06249L27.1875 6.04166C27.1875 5.37406 26.6468 4.83333 25.9792 4.83333L25.9792 4.83333L25.9792 4.83333Z" id="Shape" fill="#666666" stroke="none" />
      <path d="M3.02083 4.83333C2.35323 4.83333 1.8125 5.37406 1.8125 6.04166L1.8125 9.06249L10.2708 9.06249L10.2708 4.83333L3.02083 4.83333L3.02083 4.83333L3.02083 4.83333Z" id="Shape#1" fill="#CCCCCC" stroke="none" />
      <path d="M27.1875 7.85417L1.8125 7.85417L1.8125 22.9583C1.8125 23.6259 2.35323 24.1667 3.02083 24.1667L25.9792 24.1667C26.6468 24.1667 27.1875 23.6259 27.1875 22.9583L27.1875 7.85417L27.1875 7.85417L27.1875 7.85417Z" id="Shape#2" fill="url(#gradient_2)" stroke="none" />
      <path d="M6.40236 11.0647L5.00129 12.4658C4.69075 12.7763 4.69075 13.2796 5.00129 13.5901L7.40467 15.9935L4.96807 18.4301C4.65752 18.7406 4.65752 19.2439 4.96807 19.5545L6.36913 20.9555C6.67967 21.2661 7.18294 21.2661 7.49348 20.9555L11.893 16.5554C12.2036 16.2448 12.2036 15.7416 11.893 15.431L7.52611 11.0641C7.21617 10.7542 6.7129 10.7542 6.40236 11.0647L6.40236 11.0647L6.40236 11.0647Z" id="Shape#3" fill="#000000" fill-opacity="0.050980393" stroke="none" />
      <path d="M6.57877 11.3154L5.25142 12.6428C5.03875 12.8555 5.03875 13.201 5.25142 13.4137L7.83181 15.9941L5.21879 18.6071C5.00613 18.8198 5.00613 19.1654 5.21879 19.378L6.54615 20.7054C6.75942 20.9181 7.1044 20.9181 7.31706 20.7054L11.6429 16.379C11.8556 16.1663 11.8556 15.8207 11.6429 15.608L7.34969 11.3148C7.13702 11.1022 6.79204 11.1022 6.57877 11.3154L6.57877 11.3154L6.57877 11.3154Z" id="Shape#4" fill="#000000" fill-opacity="0.07058824" stroke="none" />
      <path d="M5.46952 18.7835L9.68841 14.5646C9.80381 14.4492 9.9911 14.4492 10.1065 14.5646L11.3601 15.8183C11.4755 15.9337 11.4755 16.121 11.3601 16.2364L7.14125 20.4553C7.02585 20.5707 6.83856 20.5707 6.72316 20.4553L5.46952 19.2016C5.35412 19.0862 5.35412 18.8989 5.46952 18.7835L5.46952 18.7835L5.46952 18.7835Z" id="Shape#5" fill="url(#gradient_3)" stroke="none" />
      <path d="M7.17327 11.5656L11.3922 15.7845C11.5076 15.8999 11.5076 16.0872 11.3922 16.2025L10.1385 17.4562C10.0231 17.5716 9.83583 17.5716 9.72043 17.4562L5.50214 13.2373C5.38675 13.1219 5.38675 12.9346 5.50214 12.8192L6.75579 11.5656C6.87118 11.4502 7.05787 11.4502 7.17327 11.5656L7.17327 11.5656L7.17327 11.5656Z" id="Shape#6" fill="#D0D0D0" stroke="none" />
      <path d="M13.2917 19.3333L13.2917 21.75C13.2917 22.0835 13.5623 22.3542 13.8958 22.3542L24.1667 22.3542C24.5002 22.3542 24.7708 22.0835 24.7708 21.75L24.7708 19.3333C24.7708 18.9998 24.5002 18.7292 24.1667 18.7292L13.8958 18.7292C13.5623 18.7292 13.2917 18.9998 13.2917 19.3333L13.2917 19.3333L13.2917 19.3333Z" id="Shape#7" fill="#000000" fill-opacity="0.050980393" stroke="none" />
      <path d="M24.1117 22.0521L13.9508 22.0521C13.7539 22.0521 13.5938 21.892 13.5938 21.695L13.5938 19.3883C13.5938 19.1914 13.7539 19.0312 13.9508 19.0312L24.1117 19.0312C24.3086 19.0312 24.4688 19.1914 24.4688 19.3883L24.4688 21.695C24.4688 21.892 24.3086 22.0521 24.1117 22.0521L24.1117 22.0521L24.1117 22.0521Z" id="Shape#8" fill="#000000" fill-opacity="0.07058824" stroke="none" />
      <path d="M14.1979 19.3333L23.8646 19.3333C24.0313 19.3333 24.1667 19.4687 24.1667 19.6354L24.1667 21.4479C24.1667 21.6147 24.0313 21.75 23.8646 21.75L14.1979 21.75C14.0312 21.75 13.8958 21.6147 13.8958 21.4479L13.8958 19.6354C13.8958 19.4687 14.0312 19.3333 14.1979 19.3333L14.1979 19.3333L14.1979 19.3333Z" id="Shape#9" fill="#D4D4D4" stroke="none" />
    </g>
  </g>
</svg>