<?xml version="1.0" encoding="utf-8"?>
<svg width="48px" height="48px" viewBox="0 0 48 48" version="1.1" xmlns:xlink="http://www.w3.org/1999/xlink" xmlns="http://www.w3.org/2000/svg">
  <defs>
    <path d="M48 0L48 0L48 48L0 48L0 0L48 0Z" id="path_1" />
    <clipPath id="clip_1">
      <use xlink:href="#path_1" />
    </clipPath>
  </defs>
  <g id="Lunacy" clip-path="url(#clip_1)">
    <path d="M48 0L48 0L48 48L0 48L0 0L48 0Z" id="Lunacy" fill="none" stroke="none" />
    <path d="M5.761 13.5C5.761 9.358 9.119 6 13.261 6L34.239 6C38.381 6 41.739 9.358 41.739 13.5L41.739 34.478C41.739 38.62 38.381 41.978 34.239 41.978L13.261 41.978C9.119 41.978 5.761 38.62 5.761 34.478L5.761 13.5L5.761 13.5Z" id="Shape" fill="#199BE2" fill-rule="evenodd" stroke="none" />
    <path d="M13.011 34.979L13.011 13L25 13L25 17.235L26.149 16.808C27.611 16.265 28.761 15.115 29.305 13.652L30.243 11.129L31.181 13.653C31.724 15.115 32.874 16.265 34.337 16.808L36.862 17.746L34.337 18.684C32.874 19.228 31.724 20.378 31.181 21.84L30.243 24.363L29.305 21.84C28.762 20.378 27.611 19.228 26.148 18.684L25 18.256L25 31.565L34.989 21.576L34.989 34.979L13.011 34.979L13.011 34.979Z" id="Shape" fill="#000000" fill-opacity="0.05" fill-rule="evenodd" stroke="none" />
    <path d="M13.511 34.479L13.511 13.5L24.5 13.5L24.5 32.771L34.489 22.782L34.489 34.478L13.511 34.478L13.511 34.479ZM29.774 21.666C29.18 20.068 27.921 18.81 26.322 18.215L25.062 17.745L26.323 17.277C27.922 16.683 29.179 15.425 29.774 13.827L30.243 12.565L30.712 13.827C31.306 15.426 32.564 16.683 34.163 17.277L35.426 17.746L34.163 18.215C32.563 18.81 31.306 20.068 30.712 21.666L30.243 22.928L29.774 21.666L29.774 21.666Z" id="Shape" fill="#000000" fill-opacity="0.07" fill-rule="evenodd" stroke="none" />
    <path d="M14.011 14L24 14L24 33.978L14.011 33.978L14.011 14L14.011 14ZM24 33.979L33.989 23.99L33.989 33.979L24 33.979L24 33.979ZM33.989 17.747C32.254 17.103 30.887 15.736 30.243 14.001C29.599 15.735 28.231 17.103 26.497 17.747C28.231 18.392 29.598 19.759 30.243 21.493C30.887 19.759 32.255 18.391 33.989 17.747L33.989 17.747Z" id="Shape" fill="#F9F9F9" fill-rule="evenodd" stroke="none" />
  </g>
</svg>