<?xml version="1.0" encoding="utf-8"?>
<svg width="48px" height="48px" viewBox="0 0 48 48" version="1.1" xmlns:xlink="http://www.w3.org/1999/xlink" xmlns="http://www.w3.org/2000/svg">
  <defs>
    <linearGradient gradientUnits="userSpaceOnUse" x1="6.3277926" y1="-0.31400025" x2="6.3277926" y2="40.493" id="gradient_1">
      <stop offset="0%" stop-color="#C391F7" />
      <stop offset="100%" stop-color="#B579F4" />
    </linearGradient>
    <linearGradient gradientUnits="userSpaceOnUse" x1="0.5980003" y1="33.8615" x2="33.920002" y2="0.53949666" id="gradient_2">
      <stop offset="1.9%" stop-color="#742FB6" />
      <stop offset="32%" stop-color="#702DB5" />
      <stop offset="36.399998%" stop-color="#5D2596" />
      <stop offset="38%" stop-color="#5D2596" />
      <stop offset="48%" stop-color="#5D2596" />
      <stop offset="48.5%" stop-color="#60279A" />
      <stop offset="51.7%" stop-color="#6F2DAB" />
      <stop offset="55.6%" stop-color="#7932B6" />
      <stop offset="61%" stop-color="#7E34BD" />
      <stop offset="76.200005%" stop-color="#8035BF" />
      <stop offset="80.6%" stop-color="#7D34BB" />
      <stop offset="85.1%" stop-color="#7530AE" />
      <stop offset="89.700005%" stop-color="#66299A" />
      <stop offset="94.3%" stop-color="#52207D" />
      <stop offset="96.3%" stop-color="#481B6E" />
    </linearGradient>
    <linearGradient gradientUnits="userSpaceOnUse" x1="0.40500015" y1="13.413" x2="31.886003" y2="18.112" id="gradient_3">
      <stop offset="0.2%" stop-color="#9C55D4" />
      <stop offset="0.3%" stop-color="#9C55D4" />
      <stop offset="33.7%" stop-color="#9751D2" />
      <stop offset="73.69999%" stop-color="#8847CB" />
      <stop offset="84.799995%" stop-color="#8343C8" />
      <stop offset="89%" stop-color="#8042C3" />
      <stop offset="93.8%" stop-color="#773DB6" />
      <stop offset="98.79999%" stop-color="#68369F" />
      <stop offset="100%" stop-color="#643499" />
    </linearGradient>
    <linearGradient gradientUnits="userSpaceOnUse" x1="2.5000002" y1="19.76348" x2="2.5000002" y2="0.40547585" id="gradient_4">
      <stop offset="0%" stop-color="#5C1D9C" />
      <stop offset="100%" stop-color="#561B90" />
    </linearGradient>
    <path d="M0 0L48 0L48 48L0 48L0 0Z" id="path_1" />
    <clipPath id="mask_1">
      <use xlink:href="#path_1" />
    </clipPath>
  </defs>
  <g id="Visual-Studio-Icon">
    <path d="M0 0L48 0L48 48L0 48L0 0Z" id="Background" fill="#FFFFFF" fill-opacity="0" fill-rule="evenodd" stroke="none" />
    <path d="M44 10.781L44 37.184C44 38.331 43.347 39.377 42.316 39.88C39.968 41.024 35.924 42.993 35.266 43.293C34.33 43.721 33.742 44 33.007 44C32.272 44 31.786 43.521 31.448 43.164C31.11 42.806 34 33 34 33L34 6.23C34 6.23 30.818 5.564 31.42 4.893C32.023 4.222 32.527 3.994 33.156 3.994C33.881 3.994 34.467 4.317 35.127 4.635C35.595 4.86 39.859 6.906 42.301 8.078C43.342 8.577 44 9.627 44 10.781L44 10.781Z" id="Shape" fill="url(#gradient_1)" stroke="none" />
    <path d="M4 32C4 33.928 4.261 34.214 6.134 35.028C7.59 35.661 8.17 36 8.559 36C9.028 36 9.469 35.677 9.886 35.336C10.303 34.995 34 15.525 34 15.525L34 5.546C34 4.348 32.326 3.87 31.533 4.768C31.533 4.768 6.742 32.299 6 33.012C5.258 33.725 5.767 31.119 4 32L4 32Z" id="Shape" fill="url(#gradient_2)" stroke="none" />
    <path d="M4.62 13.681C4.937 13.529 7.554 12.359 7.876 12.218C8.254 12.053 8.39 12 8.669 12C8.977 12 9.187 12.117 9.67 12.514C10.345 13.068 34 32.483 34 32.483L34 42.242C34 43.917 32.256 44.089 31.272 42.983C30.574 42.199 6.389 15.434 6.389 15.434C6.389 15.434 4 16.641 4 15.587C4 14.166 4.276 13.847 4.62 13.681L4.62 13.681Z" id="Shape" fill="url(#gradient_3)" stroke="none" />
    <path d="M9 18.323L9 29.735C9 29.735 6.27 32.734 5.66 33.394C5.118 33.981 4 33.797 4 32.148L4 15.428C4 14.177 5.131 14.05 6.098 15.105C6.273 15.296 9 18.323 9 18.323L9 18.323Z" id="Shape" fill="url(#gradient_4)" stroke="none" />
  </g>
</svg>