<?xml version="1.0" encoding="utf-8"?>
<svg width="25.921997px" height="24.95993px" viewBox="0 0 25.921997 24.95993" version="1.1" xmlns:xlink="http://www.w3.org/1999/xlink" xmlns="http://www.w3.org/2000/svg">
  <defs>
    <linearGradient gradientUnits="userSpaceOnUse" x1="12.145997" y1="-0.7560013" x2="13.023002" y2="8.816998" id="gradient_1">
      <stop offset="0%" stop-color="#FF9C0F" />
      <stop offset="81.3%" stop-color="#D67E00" />
    </linearGradient>
    <linearGradient gradientUnits="userSpaceOnUse" x1="6.2349963" y1="0.6759256" x2="11.560996" y2="15.709928" id="gradient_2">
      <stop offset="0%" stop-color="#058F92" />
      <stop offset="50%" stop-color="#038489" />
      <stop offset="100%" stop-color="#026D71" />
    </linearGradient>
  </defs>
  <path d="M0.00299072 24.0009L4.81 24.0009C5.44 24.0009 6.052 23.8689 6.53799 23.6409C7.34799 23.2689 7.68201 22.7659 7.68201 22.1049L7.68201 20.7369C7.68201 19.2609 5.85201 19.2009 4.802 19.2009L2.882 19.2009C2.127 19.2009 2.01199 18.7449 1.922 18.2409L1.922 17.2809C2.01199 16.8969 2.17999 16.3809 2.845 16.3209C3.618 16.3209 7.681 16.3209 7.681 16.3209L7.681 15.3609L3.11501 15.3609C2.36 15.3609 0.00100708 15.4509 0.00100708 17.2809L0.00100708 18.4679C0.00100708 19.3079 0.738998 19.9919 2.341 20.1599C2.521 20.1719 2.701 20.1839 2.88 20.1839C2.88 20.1839 4.746 20.1479 4.8 20.1599C5.88 20.1599 5.75999 20.9999 5.75999 21.1199L5.75999 22.0799C5.75999 22.2119 5.73 23.0399 4.789 23.0399C4.717 23.0399 0 23.0399 0 23.0399L0 24.0009L0.00299072 24.0009ZM18.242 22.0399C18.242 23.1989 18.897 23.8489 20.634 23.9789C20.796 23.9899 20.959 23.9999 21.122 23.9999L25.922 23.9999L25.922 23.0399L21.487 23.0399C20.496 23.0399 20.162 22.6239 20.162 22.0289L20.162 15.3599L18.242 15.3599L18.242 22.0399L18.242 22.0399ZM8.62601 22.0809L8.62601 17.2809C8.62601 16.2609 9.12601 15.5569 10.542 15.3609L11.214 15.3609L14.661 15.3609L15.186 15.3609C16.602 15.5569 17.266 16.2599 17.266 17.2809L17.266 22.0629C17.266 22.8899 17.051 23.3339 16.35 23.6219L17.838 24.9599L15.678 24.9599L14.608 23.9999L13.351 23.9999L11.215 24.0119C10.906 24.0119 10.58 23.9689 10.222 23.8709C9.14799 23.5779 8.62601 23.0139 8.62601 22.0809L8.62601 22.0809ZM10.546 22.0809C10.644 22.5479 11.019 23.0409 11.686 23.0409L13.55 23.0409L12.482 22.0809L14.657 22.0809L15.176 22.5629C15.176 22.5629 15.362 22.4109 15.362 22.0809C15.362 21.7509 15.346 17.2809 15.346 17.2809C15.248 16.8469 14.808 16.3209 14.158 16.3209L11.687 16.3209C10.938 16.3209 10.547 16.8689 10.547 17.3789L10.546 22.0809L10.546 22.0809L10.546 22.0809Z" id="Shape" fill="url(#gradient_1)" fill-rule="evenodd" stroke="none" />
  <path d="M24.121 14.3489C23.09 14.3209 22.303 14.4169 21.63 14.6999C21.439 14.7809 21.134 14.7829 21.102 15.0229C21.207 15.1329 21.223 15.2979 21.307 15.4329C21.467 15.6929 21.739 16.0419 21.981 16.2239C22.246 16.4239 22.519 16.6379 22.802 16.8109C23.306 17.1179 23.869 17.2939 24.355 17.6019C24.641 17.7829 24.925 18.0129 25.205 18.2169C25.343 18.3189 25.435 18.4759 25.615 18.5399C25.615 18.5299 25.615 18.5209 25.615 18.5109C25.521 18.3909 25.496 18.2259 25.41 18.0999C25.283 17.9729 25.156 17.8459 25.029 17.7189C24.657 17.2249 24.183 16.7899 23.681 16.4299C23.28 16.1419 22.383 15.7529 22.215 15.2869C22.205 15.2769 22.196 15.2679 22.185 15.2569C22.469 15.2249 22.802 15.1219 23.064 15.0519C23.505 14.9339 23.898 14.9649 24.353 14.8469C24.558 14.7879 24.763 14.7299 24.968 14.6709C24.968 14.6319 24.968 14.5929 24.968 14.5539C24.738 14.3179 24.573 14.0059 24.323 13.7919C23.666 13.2329 22.95 12.6749 22.213 12.2089C21.804 11.9509 21.298 11.7829 20.865 11.5639C20.719 11.4899 20.463 11.4519 20.367 11.3299C20.139 11.0399 20.016 10.6709 19.84 10.3339C19.472 9.62593 19.11 8.85193 18.785 8.10693C18.562 7.59893 18.417 7.09692 18.14 6.64093C16.809 4.45293 15.376 3.13193 13.158 1.83393C12.686 1.55793 12.117 1.44893 11.516 1.30593C11.193 1.28693 10.871 1.26693 10.548 1.24693C10.351 1.16393 10.147 0.923927 9.961 0.806931C9.22601 0.341927 7.34001 -0.668076 6.79601 0.659927C6.45201 1.49792 7.31 2.31593 7.617 2.74093C7.832 3.03893 8.108 3.37292 8.26201 3.70893C8.36301 3.92893 8.38101 4.14993 8.46701 4.38293C8.68001 4.95693 9.017 5.61093 9.293 6.14193C9.43201 6.41093 9.586 6.69293 9.76201 6.93293C9.87001 7.07993 10.055 7.14493 10.085 7.37293C9.90401 7.62593 9.89401 8.01893 9.79201 8.34093C9.33401 9.78593 9.507 11.5809 10.173 12.6489C10.377 12.9769 10.859 13.6809 11.521 13.4109C12.1 13.1749 11.971 12.4439 12.136 11.7989C12.173 11.6529 12.15 11.5459 12.224 11.4479C12.224 11.4579 12.224 11.4669 12.224 11.4779C12.4 11.8289 12.575 12.1819 12.752 12.5329C13.143 13.1619 13.836 13.8189 14.422 14.2629C14.726 14.4929 14.966 14.8909 15.36 15.0249C15.36 15.0149 15.36 15.0059 15.36 14.9949C15.35 14.9949 15.341 14.9949 15.33 14.9949C15.254 14.8759 15.134 14.8269 15.037 14.7309C14.808 14.5059 14.552 14.2269 14.363 13.9689C13.829 13.2439 13.357 12.4499 12.927 11.6239C12.722 11.2289 12.543 10.7949 12.37 10.3929C12.303 10.2379 12.304 10.0039 12.165 9.92393C11.975 10.2179 11.697 10.4559 11.55 10.8029C11.316 11.3579 11.285 12.0359 11.199 12.7369C11.147 12.7549 11.17 12.7429 11.14 12.7659C10.732 12.6669 10.588 12.2479 10.436 11.8869C10.052 10.9749 9.981 9.50693 10.319 8.45793C10.406 8.18593 10.801 7.33093 10.642 7.07993C10.566 6.82893 10.314 6.68393 10.174 6.49294C9.99901 6.25693 9.82602 5.94493 9.70502 5.67194C9.39101 4.96093 9.09302 4.13393 8.76201 3.41493C8.604 3.07093 8.33701 2.72393 8.117 2.41893C7.87401 2.08093 7.60101 1.83193 7.41301 1.42293C7.34601 1.27793 7.255 1.04493 7.354 0.894928C7.38602 0.79393 7.43001 0.75193 7.53001 0.718933C7.70001 0.586929 8.173 0.761932 8.35101 0.83593C8.82101 1.03093 9.21301 1.21693 9.61101 1.48093C9.802 1.60793 9.99501 1.85294 10.226 1.92093C10.314 1.92093 10.402 1.92093 10.49 1.92093C10.903 2.01593 11.365 1.95093 11.75 2.06793C12.432 2.27493 13.042 2.59693 13.596 2.94693C15.286 4.01393 16.667 5.53194 17.612 7.34393C17.764 7.63593 17.83 7.91393 17.963 8.22293C18.233 8.84693 18.574 9.48893 18.842 10.0989C19.11 10.7079 19.372 11.3219 19.751 11.8289C19.951 12.0949 20.721 12.2379 21.07 12.3859C21.315 12.4899 21.717 12.5969 21.949 12.7369C22.393 13.0049 22.823 13.3239 23.238 13.6159C23.45 13.7629 24.089 14.0839 24.121 14.3489L24.121 14.3489Z" id="Shape" fill="url(#gradient_2)" stroke="none" />
</svg>