<?xml version="1.0" encoding="utf-8"?>
<svg width="48px" height="49px" viewBox="0 0 48 49" version="1.1" xmlns:xlink="http://www.w3.org/1999/xlink" xmlns="http://www.w3.org/2000/svg">
  <defs>
    <linearGradient x1="0.048090935" y1="0.952" x2="0.5090909" y2="0.49090907" id="gradient_1">
      <stop offset="0" stop-color="#3079D6" />
      <stop offset="1" stop-color="#297CD2" />
    </linearGradient>
    <linearGradient x1="0.46855944" y1="-0.07875013" x2="0.5023919" y2="0.91843724" id="gradient_2">
      <stop offset="0" stop-color="#FF9C0F" />
      <stop offset="0.813" stop-color="#D67E00" />
    </linearGradient>
    <linearGradient x1="0.32991147" y1="0.036457837" x2="0.61172533" y2="0.8473565" id="gradient_3">
      <stop offset="0" stop-color="#058F92" />
      <stop offset="0.5" stop-color="#038489" />
      <stop offset="1" stop-color="#026D71" />
    </linearGradient>
    <path d="M0 0L48 0L48 48L0 48L0 0Z" id="path_1" />
    <clipPath id="mask_1">
      <use xlink:href="#path_1" />
    </clipPath>
  </defs>
  <g id="icons8_file_2">
    <path d="M0 0L48 0L48 48L0 48L0 0Z" id="Background" fill="none" fill-rule="evenodd" stroke="none" />
    <g clip-path="url(#mask_1)">
      <path d="M30 11L30 36C30 37.105 29.105 38 28 38L2 38C0.895001 38 0 37.105 0 36L0 2C0 0.895 0.895001 0 2 0L19 0L30 11L30 11Z" transform="translate(9 5)" id="Shape" fill="#50E6FF" fill-rule="evenodd" stroke="none" />
      <path d="M0 0L0 9C0 10.105 0.895 11 2 11L11 11L0 0L0 0Z" transform="translate(28 5)" id="Shape" fill="url(#gradient_1)" fill-rule="evenodd" stroke="none" />
    </g>
  </g>
  <g id="icons8_mysql_logo" transform="translate(12.183899 17.685593)">
    <path d="M0.00263797 7.60242L4.23187 7.60242C4.78615 7.60242 5.32459 7.48628 5.75218 7.28568C6.46482 6.95839 6.75868 6.51585 6.75868 5.9343L6.75868 4.73072C6.75868 3.43213 5.14863 3.37934 4.22483 3.37934L2.5356 3.37934C1.87135 3.37934 1.77017 2.97815 1.69099 2.53473L1.69099 1.69011C1.77017 1.35227 1.91798 0.898287 2.50305 0.845499C3.18314 0.845499 6.7578 0.845499 6.7578 0.845499L6.7578 0.00088501L2.7406 0.00088501C2.07635 0.00088501 0.000881002 0.0800678 0.000881002 1.69011L0.000881002 2.73445C0.000881002 3.47348 0.65018 4.07527 2.05963 4.22308C2.218 4.23364 2.37636 4.2442 2.53385 4.2442C2.53385 4.2442 4.17557 4.21252 4.22308 4.22308C5.17327 4.22308 5.06769 4.96212 5.06769 5.06769L5.06769 5.91231C5.06769 6.02844 5.0413 6.75692 4.2134 6.75692C4.15005 6.75692 0 6.75692 0 6.75692L0 7.60242L0.00263797 7.60242ZM16.0495 5.87711C16.0495 6.89681 16.6257 7.46868 18.154 7.58306C18.2965 7.59274 18.4399 7.60154 18.5833 7.60154L22.8064 7.60154L22.8064 6.75692L18.9044 6.75692C18.0326 6.75692 17.7387 6.39092 17.7387 5.86743L17.7387 0L16.0495 0L16.0495 5.87711L16.0495 5.87711ZM7.5892 5.91319L7.5892 1.69011C7.5892 0.792711 8.02911 0.173328 9.27491 0.00088501L9.86614 0.00088501L12.8988 0.00088501L13.3607 0.00088501C14.6065 0.173326 15.1907 0.791832 15.1907 1.69011L15.1907 5.89735C15.1907 6.62495 15.0016 7.01559 14.3848 7.26897L15.694 8.44615L13.7936 8.44615L12.8522 7.60154L11.7463 7.60154L9.86702 7.6121C9.59516 7.6121 9.30835 7.57427 8.99337 7.48805C8.04846 7.23026 7.5892 6.73405 7.5892 5.91319L7.5892 5.91319ZM9.19046 5.91321C9.27668 6.32408 9.60661 6.75782 10.1934 6.75782L11.8334 6.75782L10.8938 5.91321L12.8073 5.91321L13.264 6.33727C13.264 6.33727 13.4276 6.20354 13.4276 5.91321C13.4276 5.62287 13.4135 1.69013 13.4135 1.69013C13.3273 1.3083 12.9402 0.84552 12.3683 0.84552L10.1943 0.84552C9.53534 0.84552 9.19134 1.32765 9.19134 1.77636L9.19046 5.91321L9.19046 5.91321L9.19046 5.91321Z" transform="translate(0 13.513794)" id="Shape" fill="url(#gradient_2)" fill-rule="evenodd" stroke="none" />
    <path d="M15.313 12.6243C14.406 12.5997 13.7136 12.6841 13.1214 12.9331C12.9534 13.0044 12.6851 13.0061 12.6569 13.2173C12.7493 13.3141 12.7634 13.4592 12.8373 13.578C12.978 13.8068 13.2173 14.1138 13.4303 14.2739C13.6634 14.4499 13.9036 14.6382 14.1526 14.7904C14.596 15.0605 15.0913 15.2153 15.5189 15.4863C15.7705 15.6455 16.0204 15.8479 16.2668 16.0274C16.3882 16.1171 16.4691 16.2553 16.6275 16.3116C16.6275 16.3028 16.6275 16.2948 16.6275 16.286C16.5448 16.1805 16.5228 16.0353 16.4471 15.9244C16.3354 15.8127 16.2236 15.701 16.1119 15.5892C15.7846 15.1546 15.3676 14.7719 14.9259 14.4552C14.5731 14.2018 13.7839 13.8595 13.6361 13.4496C13.6273 13.4408 13.6194 13.4328 13.6097 13.4232C13.8596 13.395 14.1526 13.3044 14.3831 13.2428C14.7711 13.139 15.1168 13.1663 15.5172 13.0624C15.6975 13.0105 15.8779 12.9595 16.0582 12.9076C16.0582 12.8733 16.0582 12.839 16.0582 12.8047C15.8559 12.597 15.7107 12.3225 15.4908 12.1342C14.9127 11.6424 14.2828 11.1515 13.6344 10.7415C13.2745 10.5145 12.8294 10.3667 12.4484 10.174C12.3199 10.1089 12.0947 10.0755 12.0103 9.96815C11.8097 9.71301 11.7014 9.38836 11.5466 9.09186C11.2228 8.46896 10.9043 7.78799 10.6184 7.13253C10.4222 6.68559 10.2946 6.24393 10.0509 5.84274C8.87989 3.91772 7.61913 2.75549 5.66772 1.6135C5.25245 1.37068 4.75184 1.27478 4.22308 1.14897C3.9389 1.13225 3.6556 1.11465 3.37143 1.09706C3.19811 1.02403 3.01862 0.812879 2.85498 0.709942C2.20832 0.300831 0.549002 -0.587774 0.0703862 0.58061C-0.232267 1.31789 0.522607 2.03757 0.792707 2.41149C0.981866 2.67367 1.22469 2.96753 1.36018 3.26314C1.44904 3.4567 1.46488 3.65114 1.54054 3.85613C1.72794 4.36114 2.02444 4.93654 2.26726 5.40371C2.38956 5.64038 2.52505 5.88849 2.67989 6.09964C2.77491 6.22897 2.93768 6.28616 2.96407 6.48676C2.80483 6.70935 2.79603 7.05511 2.70629 7.33841C2.30334 8.60973 2.45555 10.189 3.0415 11.1286C3.22098 11.4172 3.64505 12.0366 4.22748 11.799C4.73689 11.5914 4.62339 10.9483 4.76856 10.3808C4.80111 10.2523 4.78088 10.1582 4.84598 10.072C4.84598 10.0808 4.84598 10.0887 4.84598 10.0984C5.00083 10.4072 5.1548 10.7178 5.31052 11.0266C5.65453 11.58 6.26423 12.158 6.7798 12.5486C7.04726 12.751 7.25841 13.1011 7.60506 13.219C7.60506 13.2102 7.60506 13.2023 7.60506 13.1926C7.59626 13.1926 7.58834 13.1926 7.57867 13.1926C7.5118 13.088 7.40622 13.0448 7.32088 12.9604C7.11941 12.7624 6.89418 12.517 6.72789 12.29C6.25808 11.6521 5.84281 10.9535 5.46449 10.2268C5.28413 9.8793 5.12664 9.49746 4.97444 9.14378C4.91549 9.00741 4.91637 8.80153 4.79407 8.73115C4.62691 8.98981 4.38233 9.19921 4.25299 9.5045C4.04712 9.99279 4.01984 10.5893 3.94418 11.206C3.89843 11.2219 3.91866 11.2113 3.89227 11.2316C3.53331 11.1445 3.40662 10.7758 3.27289 10.4582C2.93504 9.65582 2.87257 8.36427 3.16995 7.44135C3.24649 7.20204 3.59402 6.44981 3.45413 6.22897C3.38726 6.00814 3.16555 5.88057 3.04238 5.71253C2.88842 5.50489 2.73621 5.23039 2.62975 4.99021C2.35349 4.36466 2.09131 3.63706 1.80009 3.00448C1.66108 2.70183 1.42617 2.39654 1.23262 2.12819C1.01882 1.83082 0.778635 1.61175 0.613231 1.25191C0.554285 1.12433 0.474221 0.919338 0.561323 0.787368C0.589476 0.698507 0.628188 0.661555 0.716169 0.632522C0.865736 0.516387 1.28189 0.670354 1.43849 0.735459C1.852 0.907021 2.19688 1.07067 2.54705 1.30294C2.71509 1.41467 2.88489 1.63022 3.08813 1.69005C3.16555 1.69005 3.24297 1.69005 3.3204 1.69005C3.68376 1.77363 4.09023 1.71644 4.42895 1.81938C5.02898 2.0015 5.56567 2.2848 6.05308 2.59273C7.53995 3.53149 8.75497 4.86703 9.58638 6.46124C9.72012 6.71815 9.77818 6.96273 9.8952 7.23459C10.1327 7.78359 10.4328 8.34843 10.6686 8.88511C10.9043 9.42091 11.1348 9.96112 11.4683 10.4072C11.6443 10.6412 12.3217 10.767 12.6288 10.8972C12.8443 10.9887 13.198 11.0829 13.4021 11.206C13.7927 11.4418 14.1711 11.7225 14.5362 11.9794C14.7227 12.1087 15.2849 12.3911 15.313 12.6243L15.313 12.6243Z" transform="translate(5.8208313 0)" id="Shape" fill="url(#gradient_3)" fill-rule="evenodd" stroke="none" />
    <path d="M0.464538 0.000345688C0.275379 -0.00317329 0.141648 0.020581 0 0.0522543C0 0.0610526 0 0.0689707 0 0.0786483C0.00879659 0.0786483 0.0167172 0.0786483 0.0263931 0.0786483C0.117014 0.263408 0.275379 0.383942 0.387114 0.543186C0.473335 0.723547 0.558676 0.903907 0.644897 1.08427C0.653693 1.07547 0.661614 1.06755 0.67041 1.05875C0.829655 0.946138 0.903559 0.766657 0.902679 0.491277C0.838452 0.423532 0.828776 0.33907 0.773348 0.259008C0.699448 0.150793 0.556917 0.0900863 0.464538 0.000345688L0.464538 0.000345688Z" transform="translate(9.142975 2.8000183)" id="Shape" fill="#00796B" fill-rule="evenodd" stroke="none" />
  </g>
</svg>