<?xml version="1.0" encoding="utf-8"?>
<svg width="48px" height="48px" viewBox="0 0 48 48" version="1.1" xmlns:xlink="http://www.w3.org/1999/xlink" xmlns="http://www.w3.org/2000/svg">
  <defs>
    <linearGradient gradientUnits="userSpaceOnUse" x1="0.5290003" y1="10.472" x2="5.6" y2="5.3999996" id="gradient_1">
      <stop offset="0%" stop-color="#3079D6" />
      <stop offset="100%" stop-color="#297CD2" />
    </linearGradient>
    <linearGradient gradientUnits="userSpaceOnUse" x1="11.678877" y1="-15.49609" x2="12.522154" y2="-6.2912645" id="gradient_2">
      <stop offset="0%" stop-color="#FF9C0F" />
      <stop offset="81.3%" stop-color="#D67E00" />
    </linearGradient>
    <linearGradient gradientUnits="userSpaceOnUse" x1="-0.46251255" y1="0.6499329" x2="4.6586537" y2="15.105742" id="gradient_3">
      <stop offset="0%" stop-color="#058F92" />
      <stop offset="50%" stop-color="#038489" />
      <stop offset="100%" stop-color="#026D71" />
    </linearGradient>
    <path d="M0 0L48 0L48 48L0 48L0 0Z" id="path_1" />
    <path d="M0 0L24.9251 0L24.9251 24L0 24L0 0Z" id="path_2" />
    <clipPath id="mask_1">
      <use xlink:href="#path_1" />
    </clipPath>
    <clipPath id="mask_2">
      <use xlink:href="#path_2" />
    </clipPath>
  </defs>
  <g id="File-Icon-2">
    <path d="M0 0L48 0L48 48L0 48L0 0Z" id="Background" fill="#FFFFFF" fill-opacity="0" fill-rule="evenodd" stroke="none" />
    <g clip-path="url(#mask_1)">
      <path d="M39 16L39 41C39 42.105 38.105 43 37 43L11 43C9.895 43 9 42.105 9 41L9 7C9 5.895 9.895 5 11 5L28 5L39 16L39 16Z" id="Shape" fill="#50E6FF" fill-rule="evenodd" stroke="none" />
      <path d="M28 5L28 14C28 15.105 28.895 16 30 16L39 16L28 5L28 5Z" id="Shape" fill="url(#gradient_1)" fill-rule="evenodd" stroke="none" />
    </g>
  </g>
  <g id="svg" transform="translate(11.498459 17)">
    <path d="M0 0L24.9251 0L24.9251 24L0 24L0 0Z" id="Background" fill="#FFFFFF" fill-opacity="0" fill-rule="evenodd" stroke="none" />
    <path d="M0.0028757 23.0779L4.62501 23.0779C5.23078 23.0779 5.81925 22.9509 6.28655 22.7317C7.06539 22.374 7.38657 21.8903 7.38657 21.2548L7.38657 19.9394C7.38657 18.5201 5.62695 18.4625 4.61732 18.4625L2.77116 18.4625C2.0452 18.4625 1.93461 18.024 1.84808 17.5394L1.84808 16.6163C1.93461 16.2471 2.09615 15.7509 2.73558 15.6932C3.47886 15.6932 7.3856 15.6932 7.3856 15.6932L7.3856 14.7701L2.99521 14.7701C2.26924 14.7701 0.000968349 14.8567 0.000968349 16.6163L0.000968349 17.7576C0.000968349 18.5653 0.710577 19.223 2.25097 19.3846C2.42405 19.3961 2.59712 19.4076 2.76924 19.4076C2.76924 19.4076 4.56347 19.373 4.6154 19.3846C5.65386 19.3846 5.53847 20.1923 5.53847 20.3077L5.53847 21.2307C5.53847 21.3577 5.50963 22.1538 4.60482 22.1538C4.53559 22.1538 0 22.1538 0 22.1538L0 23.0779L0.0028757 23.0779L0.0028757 23.0779ZM17.5404 21.1923C17.5404 22.3067 18.1702 22.9317 19.8404 23.0567C19.9962 23.0673 20.1529 23.0769 20.3097 23.0769L24.9251 23.0769L24.9251 22.1538L20.6606 22.1538C19.7077 22.1538 19.3866 21.7538 19.3866 21.1817L19.3866 14.7692L17.5404 14.7692L17.5404 21.1923L17.5404 21.1923L17.5404 21.1923ZM8.29426 21.2317L8.29426 16.6163C8.29426 15.6355 8.77503 14.9586 10.1366 14.7701L10.7827 14.7701L14.0972 14.7701L14.602 14.7701C15.9635 14.9586 16.602 15.6346 16.602 16.6163L16.602 21.2144C16.602 22.0096 16.3952 22.4365 15.7212 22.7134L17.152 24L15.075 24L14.0462 23.0769L12.8375 23.0769L10.7837 23.0884C10.4866 23.0884 10.1731 23.0471 9.82887 22.9529C8.79617 22.6711 8.29426 22.1288 8.29426 21.2317L8.29426 21.2317L8.29426 21.2317ZM10.1404 21.2317C10.2346 21.6807 10.5952 22.1548 11.2366 22.1548L13.0289 22.1548L12.002 21.2317L14.0933 21.2317L14.5924 21.6952C14.5924 21.6952 14.7712 21.549 14.7712 21.2317C14.7712 20.9144 14.7558 16.6163 14.7558 16.6163C14.6616 16.199 14.2385 15.6932 13.6135 15.6932L11.2375 15.6932C10.5173 15.6932 10.1414 16.2201 10.1414 16.7105L10.1404 21.2317L10.1404 21.2317L10.1404 21.2317L10.1404 21.2317Z" id="Shape" fill="url(#gradient_2)" fill-rule="evenodd" stroke="none" />
    <path d="M23.1933 13.7971C22.202 13.7701 21.4452 13.8624 20.7981 14.1346C20.6145 14.2124 20.3212 14.2144 20.2904 14.4451C20.3914 14.5509 20.4068 14.7096 20.4875 14.8394C20.6414 15.0894 20.9029 15.4249 21.1356 15.5999C21.3904 15.7923 21.6529 15.998 21.9251 16.1644C22.4097 16.4596 22.951 16.6288 23.4183 16.925C23.6933 17.099 23.9664 17.3201 24.2356 17.5163C24.3683 17.6144 24.4568 17.7653 24.6299 17.8269C24.6299 17.8173 24.6299 17.8086 24.6299 17.799C24.5395 17.6836 24.5154 17.525 24.4328 17.4038C24.3106 17.2817 24.1885 17.1596 24.0664 17.0375C23.7087 16.5625 23.2529 16.1442 22.7702 15.798C22.3847 15.5211 21.5222 15.1471 21.3606 14.699C21.351 14.6894 21.3424 14.6807 21.3318 14.6701C21.6049 14.6394 21.9251 14.5403 22.177 14.473C22.601 14.3596 22.9789 14.3894 23.4164 14.2759C23.6135 14.2192 23.8106 14.1634 24.0078 14.1067C24.0078 14.0692 24.0078 14.0317 24.0078 13.9942C23.7866 13.7673 23.6279 13.4673 23.3876 13.2615C22.7558 12.724 22.0674 12.1874 21.3587 11.7394C20.9654 11.4913 20.4789 11.3297 20.0625 11.1192C19.9222 11.048 19.676 11.0115 19.5837 10.8942C19.3645 10.6153 19.2462 10.2605 19.077 9.93647C18.7231 9.25573 18.375 8.5115 18.0625 7.79515C17.8481 7.30669 17.7087 6.82398 17.4423 6.38553C16.1625 4.28168 14.7847 3.01148 12.652 1.7634C12.1981 1.49802 11.651 1.39321 11.0731 1.25571C10.7625 1.23744 10.4529 1.21821 10.1423 1.19898C9.95291 1.11917 9.75675 0.888396 9.57791 0.7759C8.87118 0.328779 7.05772 -0.64238 6.53464 0.63455C6.20387 1.44031 7.02886 2.22686 7.32405 2.63552C7.53078 2.92206 7.79617 3.2432 7.94426 3.56629C8.04137 3.77783 8.05868 3.99033 8.14137 4.21437C8.34618 4.76629 8.67021 5.39514 8.9356 5.90572C9.06926 6.16438 9.21733 6.43553 9.38657 6.6663C9.49042 6.80765 9.66829 6.87015 9.69714 7.08938C9.52311 7.33265 9.51349 7.71053 9.41541 8.02015C8.97503 9.40958 9.14137 11.1355 9.78175 12.1624C9.97791 12.4778 10.4414 13.1547 11.0779 12.8951C11.6346 12.6682 11.5106 11.9653 11.6693 11.3451C11.7048 11.2047 11.6827 11.1019 11.7539 11.0076C11.7539 11.0172 11.7539 11.0259 11.7539 11.0365C11.9231 11.374 12.0914 11.7134 12.2616 12.0509C12.6375 12.6557 13.3039 13.2874 13.8673 13.7144C14.1596 13.9355 14.3904 14.3182 14.7693 14.4471C14.7693 14.4374 14.7693 14.4288 14.7693 14.4182C14.7597 14.4182 14.751 14.4182 14.7404 14.4182C14.6673 14.3038 14.552 14.2567 14.4587 14.1644C14.2385 13.948 13.9923 13.6798 13.8106 13.4317C13.2971 12.7346 12.8433 11.9711 12.4298 11.1769C12.2327 10.7971 12.0606 10.3797 11.8943 9.9932C11.8298 9.84416 11.8308 9.61916 11.6971 9.54227C11.5145 9.82493 11.2471 10.0538 11.1058 10.3874C10.8808 10.9211 10.851 11.573 10.7683 12.2471C10.7183 12.2644 10.7404 12.2528 10.7116 12.2749C10.3193 12.1797 10.1808 11.7769 10.0346 11.4297C9.66541 10.5528 9.59714 9.14131 9.92214 8.13265C10.0058 7.87111 10.3856 7.04899 10.2327 6.80765C10.1596 6.5663 9.91733 6.42688 9.78271 6.24323C9.61445 6.0163 9.44812 5.7163 9.33177 5.45381C9.02984 4.77014 8.74331 3.97495 8.42503 3.2836C8.2731 2.95283 8.01637 2.61917 7.80482 2.3259C7.57118 2.0009 7.30868 1.76148 7.12791 1.36821C7.06349 1.22878 6.97598 1.00475 7.07117 0.860513C7.10196 0.763399 7.14425 0.723014 7.24041 0.691286C7.40387 0.564359 7.85867 0.732632 8.02983 0.803784C8.48176 0.991284 8.85868 1.17013 9.24138 1.42398C9.42502 1.54609 9.61061 1.78168 9.83271 1.84706C9.91733 1.84706 10.0019 1.84706 10.0866 1.84706C10.4837 1.9384 10.9279 1.8759 11.2981 1.9884C11.9539 2.18744 12.5404 2.49706 13.0731 2.8336C14.6981 3.85956 16.026 5.31919 16.9347 7.06149C17.0808 7.34226 17.1443 7.60957 17.2722 7.90669C17.5318 8.50669 17.8597 9.124 18.1174 9.71051C18.375 10.2961 18.627 10.8865 18.9914 11.374C19.1837 11.6297 19.9241 11.7672 20.2597 11.9096C20.4952 12.0096 20.8818 12.1124 21.1049 12.2471C21.5318 12.5047 21.9452 12.8115 22.3443 13.0923C22.5481 13.2336 23.1626 13.5423 23.1933 13.7971L23.1933 13.7971L23.1933 13.7971Z" id="Shape#1" fill="url(#gradient_3)" stroke="none" />
  </g>
</svg>