<?xml version="1.0" encoding="utf-8"?>
<svg width="48px" height="48px" viewBox="0 0 48 48" version="1.1" xmlns:xlink="http://www.w3.org/1999/xlink" xmlns="http://www.w3.org/2000/svg">
  <defs>
    <radialGradient gradientUnits="objectBoundingBox" cx="15.155003%" cy="13.594997%" fx="15.155003%" fy="13.594997%" r="2246.9995%" gradientTransform="translate(0.15155002,0.13594997),rotate(-97.61364),scale(1,1.0518795),translate(-0.15155002,-0.13594997)" id="gradient_1">
      <stop offset="0%" stop-color="#6FCEFC" />
      <stop offset="100%" stop-color="#167CF7" />
    </radialGradient>
    <radialGradient gradientUnits="objectBoundingBox" cx="14.45783%" cy="10.124999%" fx="14.45783%" fy="10.124999%" r="2409.2363%" gradientTransform="translate(0.14457831,0.10124999),scale(1,0.935825),rotate(-100.01764),scale(1,1.0572164),translate(-0.14457831,-0.10124999)" id="gradient_2">
      <stop offset="0.1%" stop-color="#54C0F5" />
      <stop offset="99.8%" stop-color="#0B69DB" />
    </radialGradient>
    <linearGradient gradientUnits="objectBoundingBox" x1="0.3511429" y1="0.09198761" x2="0.9050715" y2="1.002491" id="gradient_3">
      <stop offset="0%" stop-color="#F44F5A" />
      <stop offset="44.3%" stop-color="#EE3D4A" />
      <stop offset="100%" stop-color="#E52030" />
    </linearGradient>
    <linearGradient gradientUnits="objectBoundingBox" x1="0.3123572" y1="0.10738373" x2="0.705143" y2="0.96352386" id="gradient_4">
      <stop offset="0%" stop-color="#FFDA1C" />
      <stop offset="100%" stop-color="#FEB705" />
    </linearGradient>
    <path d="M48 0L48 0L48 48L0 48L0 0L48 0Z" id="path_1" />
    <clipPath id="clip_1">
      <use xlink:href="#path_1" />
    </clipPath>
  </defs>
  <g id="Language Skill" clip-path="url(#clip_1)">
    <path d="M48 0L48 0L48 48L0 48L0 0L48 0Z" id="Language-Skill" fill="none" stroke="none" />
    <path d="M44 24C44 35.045 35.045 44 24 44C12.955 44 4 35.045 4 24C4 12.955 12.955 4 24 4C35.045 4 44 12.955 44 24L44 24Z" id="Shape" fill="url(#gradient_1)" stroke="none" />
    <path d="M41 24C41 21.535 40.601 19.182 39.904 17L42.715 17C42.459 16.315 42.169 15.647 41.842 15L39.16 15C36.355 8.485 30.621 4 24 4C17.379 4 11.645 8.485 8.839 15L6.157 15C5.83 15.647 5.541 16.315 5.284 17L8.095 17C7.399 19.182 7 21.535 7 24C7 26.465 7.399 28.818 8.096 31L5.285 31C5.541 31.685 5.831 32.353 6.158 33L8.84 33C11.646 39.515 17.38 44 24.001 44C30.622 44 36.356 39.515 39.162 33L41.844 33C42.171 32.353 42.46 31.685 42.717 31L39.906 31C40.601 28.818 41 26.465 41 24L41 24ZM39 24C39 26.481 38.579 28.847 37.819 31L31.51 31C31.833 28.734 32 26.35 32 24C32 21.65 31.834 19.266 31.51 17L37.819 17C38.579 19.153 39 21.519 39 24L39 24ZM24 42C22.064 42 19.979 38.555 18.848 33L29.152 33C28.021 38.555 25.936 42 24 42L24 42ZM18.5 31C18.185 28.887 18 26.539 18 24C18 21.461 18.185 19.113 18.5 17L29.5 17C29.815 19.113 30 21.461 30 24C30 26.539 29.815 28.887 29.5 31L18.5 31L18.5 31ZM24 6C25.936 6 28.021 9.445 29.152 15L18.848 15C19.979 9.445 22.064 6 24 6L24 6ZM36.97 15L31.178 15C30.539 11.67 29.535 8.728 28.184 6.727C31.922 8.033 35.054 11.038 36.97 15L36.97 15ZM19.816 6.727C18.466 8.729 17.461 11.67 16.822 15L11.03 15C12.946 11.038 16.078 8.033 19.816 6.727L19.816 6.727ZM9 24C9 21.519 9.421 19.153 10.181 17L16.49 17C16.166 19.266 16 21.65 16 24C16 26.35 16.166 28.734 16.49 31L10.181 31C9.421 28.847 9 26.481 9 24L9 24ZM11.03 33L16.822 33C17.461 36.33 18.465 39.272 19.816 41.273C16.078 39.967 12.946 36.962 11.03 33L11.03 33ZM28.184 41.273C29.534 39.271 30.539 36.33 31.178 33L36.97 33C35.054 36.962 31.922 39.967 28.184 41.273L28.184 41.273Z" id="Shape" fill="url(#gradient_2)" fill-rule="evenodd" stroke="none" />
    <path d="M30.5 8L30.5 18.398C30.5 18.849 30.793 19.231 31.23 19.348C31.317 19.37 31.405 19.382 31.491 19.382C31.835 19.382 32.156 19.201 32.336 18.889L34.289 15.499L42.083 15.499C40.288 11.689 37.342 8.532 33.674 6.499L32 6.499C31.173 6.5 30.5 7.173 30.5 8L30.5 8Z" id="Shape" fill="#000000" fill-opacity="0.07" stroke="none" />
    <path d="M17 14.5L6.398 14.5C4.997 17.089 4.175 20.028 4.043 23.145C4.304 23.363 4.635 23.5 5 23.5L14.711 23.5L16.664 26.889C16.844 27.202 17.165 27.383 17.51 27.383C17.596 27.383 17.683 27.371 17.771 27.349C18.208 27.232 18.501 26.85 18.501 26.399L18.501 16C18.5 15.173 17.827 14.5 17 14.5L17 14.5Z" id="Shape" fill="#000000" fill-opacity="0.07" stroke="none" />
    <path d="M30 8L30 18.398C30 19.079 30.442 19.655 31.101 19.831C31.233 19.866 31.365 19.884 31.495 19.884C32.015 19.884 32.498 19.611 32.77 19.139L34.578 16L42.324 16C40.408 11.62 36.966 8.073 32.673 6L32 6C30.897 6 30 6.897 30 8L30 8Z" id="Shape" fill="#000000" fill-opacity="0.05" stroke="none" />
    <path d="M38 22L26 22C24.897 22 24 22.897 24 24L24 34.398C24 35.079 24.442 35.655 25.101 35.831C25.233 35.866 25.365 35.884 25.495 35.884C26.015 35.884 26.498 35.611 26.77 35.139L28.578 32L38 32C39.103 32 40 31.103 40 30L40 24C40 22.897 39.103 22 38 22L38 22Z" id="Shape" fill="#000000" fill-opacity="0.05" stroke="none" />
    <path d="M17 14L6.698 14C5.035 16.87 4.061 20.185 4.014 23.729C4.306 23.897 4.64 24 5 24L14.422 24L16.231 27.139C16.502 27.611 16.986 27.884 17.506 27.884C17.636 27.884 17.768 27.866 17.9 27.831C18.558 27.655 19 27.079 19 26.398L19 16C19 14.897 18.103 14 17 14L17 14Z" id="Shape" fill="#000000" fill-opacity="0.05" stroke="none" />
    <path d="M5 15L17 15C17.552 15 18 15.448 18 16L18 26.398C18 26.893 17.344 27.068 17.097 26.64L15 23L5 23C4.448 23 4 22.552 4 22L4 16C4 15.448 4.448 15 5 15L5 15Z" id="Shape" fill="url(#gradient_3)" stroke="none" />
    <path d="M44 7L32 7C31.448 7 31 7.448 31 8L31 18.398C31 18.893 31.656 19.068 31.903 18.64L34 15L44 15C44.552 15 45 14.552 45 14L45 8C45 7.448 44.552 7 44 7L44 7Z" id="Shape" fill="url(#gradient_4)" stroke="none" />
    <path d="M38 23L26 23C25.448 23 25 23.448 25 24L25 34.398C25 34.893 25.656 35.068 25.903 34.64L28 31L38 31C38.552 31 39 30.552 39 30L39 24C39 23.448 38.552 23 38 23L38 23Z" id="Shape" fill="#FF8F6B" stroke="none" />
    <path d="M38 22.5L26 22.5C25.173 22.5 24.5 23.173 24.5 24L24.5 34.398C24.5 34.849 24.793 35.231 25.23 35.348C25.317 35.37 25.405 35.382 25.491 35.382C25.835 35.382 26.156 35.201 26.336 34.889L28.289 31.499L38 31.499C38.827 31.499 39.5 30.826 39.5 29.999L39.5 23.999C39.5 23.173 38.827 22.5 38 22.5L38 22.5Z" id="Shape" fill="#000000" fill-opacity="0.07" stroke="none" />
  </g>
</svg>