<?xml version="1.0" encoding="utf-8"?>
<svg width="48px" height="48px" viewBox="0 0 48 48" version="1.1" xmlns:xlink="http://www.w3.org/1999/xlink" xmlns="http://www.w3.org/2000/svg">
  <defs>
    <linearGradient gradientUnits="userSpaceOnUse" x1="0.5290003" y1="10.472" x2="5.6" y2="5.3999996" id="gradient_1">
      <stop offset="0%" stop-color="#3079D6" />
      <stop offset="100%" stop-color="#297CD2" />
    </linearGradient>
    <linearGradient gradientUnits="userSpaceOnUse" x1="-0.8634794" y1="-3.8368952" x2="18.162127" y2="12.2159395" id="gradient_2">
      <stop offset="0%" stop-color="#A1AAB3" />
      <stop offset="100%" stop-color="#8F979E" />
    </linearGradient>
    <radialGradient gradientUnits="objectBoundingBox" cx="117.884445%" cy="208.0674%" fx="117.884445%" fy="208.0674%" r="24691.83%" gradientTransform="translate(1.1788445,2.080674),scale(0.7058824,1),rotate(-158.99036),scale(1,0.93061733),translate(-1.1788445,-2.080674)" id="gradient_3">
      <stop offset="32.300003%" stop-color="#23D9D6" />
      <stop offset="42.699997%" stop-color="#23D4D7" />
      <stop offset="54.2%" stop-color="#21C7DC" />
      <stop offset="66.399994%" stop-color="#1FB0E2" />
      <stop offset="78.899994%" stop-color="#1C91EC" />
      <stop offset="91.7%" stop-color="#1969F8" />
      <stop offset="94.4%" stop-color="#1860FB" />
    </radialGradient>
    <linearGradient gradientUnits="userSpaceOnUse" x1="-2.5833323" y1="-22.613855" x2="-2.5833323" y2="-18.074293" id="gradient_4">
      <stop offset="0%" stop-color="#484B4F" />
      <stop offset="22.999998%" stop-color="#656D75" />
      <stop offset="36.7%" stop-color="#727D86" />
    </linearGradient>
    <path d="M0 0L48 0L48 48L0 48L0 0Z" id="path_1" />
    <clipPath id="mask_1">
      <use xlink:href="#path_1" />
    </clipPath>
  </defs>
  <g id="File-Icon-2">
    <path d="M0 0L48 0L48 48L0 48L0 0Z" id="Background" fill="#FFFFFF" fill-opacity="0" fill-rule="evenodd" stroke="none" />
    <g clip-path="url(#mask_1)">
      <path d="M39 16L39 41C39 42.105 38.105 43 37 43L11 43C9.895 43 9 42.105 9 41L9 7C9 5.895 9.895 5 11 5L28 5L39 16L39 16Z" id="Shape" fill="#50E6FF" fill-rule="evenodd" stroke="none" />
      <path d="M28 5L28 14C28 15.105 28.895 16 30 16L39 16L28 5L28 5Z" id="Shape" fill="url(#gradient_1)" fill-rule="evenodd" stroke="none" />
    </g>
  </g>
  <g id="svg" transform="translate(8 14)">
    <g id="Windows-Client-Icon">
      <path d="M0 0L31 0L31 31L0 31L0 0L0 0Z" id="Background" fill="#FFFFFF" fill-opacity="0" fill-rule="evenodd" stroke="none" />
      <path d="M26.4792 22.6042L4.52083 22.6042C3.80719 22.6042 3.22917 22.0261 3.22917 21.3125L3.22917 5.8125C3.22917 5.09885 3.80719 4.52083 4.52083 4.52083L26.4792 4.52083C27.1928 4.52083 27.7708 5.09885 27.7708 5.8125L27.7708 21.3125C27.7708 22.0261 27.1928 22.6042 26.4792 22.6042L26.4792 22.6042L26.4792 22.6042Z" id="Shape" fill="url(#gradient_2)" stroke="none" />
      <path d="M4.52083 5.8125L26.4792 5.8125L26.4792 21.3125L4.52083 21.3125L4.52083 5.8125L4.52083 5.8125Z" id="Rectangle" fill="url(#gradient_3)" fill-rule="evenodd" stroke="none" />
      <path d="M21.3125 24.5417L18.0833 24.5417L18.0833 22.6042L12.9167 22.6042L12.9167 24.5417L9.6875 24.5417C9.331 24.5417 9.04167 24.831 9.04167 25.1875L9.04167 26.4792C9.04167 26.8357 9.331 27.125 9.6875 27.125L21.3125 27.125C21.669 27.125 21.9583 26.8357 21.9583 26.4792L21.9583 25.1875C21.9583 24.831 21.669 24.5417 21.3125 24.5417L21.3125 24.5417L21.3125 24.5417Z" id="Shape#1" fill="url(#gradient_4)" stroke="none" />
      <path d="M15.5 9.36458L15.5 12.5938C15.5 13.1285 15.934 13.5625 16.4688 13.5625L19.6979 13.5625C20.2327 13.5625 20.6667 13.1285 20.6667 12.5938L20.6667 9.36458C20.6667 8.82983 20.2327 8.39583 19.6979 8.39583L16.4688 8.39583C15.934 8.39583 15.5 8.82983 15.5 9.36458L15.5 9.36458L15.5 9.36458Z" id="Shape#2" fill="#000000" fill-opacity="0.050980393" stroke="none" />
      <path d="M19.6979 13.2396L16.4688 13.2396C16.1122 13.2396 15.8229 12.9503 15.8229 12.5938L15.8229 9.36458C15.8229 9.00808 16.1122 8.71875 16.4688 8.71875L19.6979 8.71875C20.0544 8.71875 20.3438 9.00808 20.3438 9.36458L20.3438 12.5938C20.3438 12.9503 20.0544 13.2396 19.6979 13.2396L19.6979 13.2396L19.6979 13.2396Z" id="Shape#3" fill="#000000" fill-opacity="0.07058824" stroke="none" />
      <path d="M10.3333 9.36458L10.3333 12.5938C10.3333 13.1285 10.7673 13.5625 11.3021 13.5625L14.5312 13.5625C15.066 13.5625 15.5 13.1285 15.5 12.5938L15.5 9.36458C15.5 8.82983 15.066 8.39583 14.5312 8.39583L11.3021 8.39583C10.7673 8.39583 10.3333 8.82983 10.3333 9.36458L10.3333 9.36458L10.3333 9.36458Z" id="Shape#4" fill="#000000" fill-opacity="0.050980393" stroke="none" />
      <path d="M14.5312 13.2396L11.3021 13.2396C10.9456 13.2396 10.6562 12.9503 10.6562 12.5938L10.6562 9.36458C10.6562 9.00808 10.9456 8.71875 11.3021 8.71875L14.5312 8.71875C14.8878 8.71875 15.1771 9.00808 15.1771 9.36458L15.1771 12.5938C15.1771 12.9503 14.8878 13.2396 14.5312 13.2396L14.5312 13.2396L14.5312 13.2396Z" id="Shape#5" fill="#000000" fill-opacity="0.07058824" stroke="none" />
      <path d="M10.3333 14.5312L10.3333 17.7604C10.3333 18.2952 10.7673 18.7292 11.3021 18.7292L14.5312 18.7292C15.066 18.7292 15.5 18.2952 15.5 17.7604L15.5 14.5312C15.5 13.9965 15.066 13.5625 14.5312 13.5625L11.3021 13.5625C10.7673 13.5625 10.3333 13.9965 10.3333 14.5312L10.3333 14.5312L10.3333 14.5312Z" id="Shape#6" fill="#000000" fill-opacity="0.050980393" stroke="none" />
      <path d="M14.5312 18.4062L11.3021 18.4062C10.9456 18.4062 10.6562 18.1169 10.6562 17.7604L10.6562 14.5312C10.6562 14.1747 10.9456 13.8854 11.3021 13.8854L14.5312 13.8854C14.8878 13.8854 15.1771 14.1747 15.1771 14.5312L15.1771 17.7604C15.1771 18.1169 14.8878 18.4062 14.5312 18.4062L14.5312 18.4062L14.5312 18.4062Z" id="Shape#7" fill="#000000" fill-opacity="0.07058824" stroke="none" />
      <path d="M15.5 14.5312L15.5 17.7604C15.5 18.2952 15.934 18.7292 16.4688 18.7292L19.6979 18.7292C20.2327 18.7292 20.6667 18.2952 20.6667 17.7604L20.6667 14.5312C20.6667 13.9965 20.2327 13.5625 19.6979 13.5625L16.4688 13.5625C15.934 13.5625 15.5 13.9965 15.5 14.5312L15.5 14.5312L15.5 14.5312Z" id="Shape#8" fill="#000000" fill-opacity="0.050980393" stroke="none" />
      <path d="M19.6979 18.4062L16.4688 18.4062C16.1122 18.4062 15.8229 18.1169 15.8229 17.7604L15.8229 14.5312C15.8229 14.1747 16.1122 13.8854 16.4688 13.8854L19.6979 13.8854C20.0544 13.8854 20.3438 14.1747 20.3438 14.5312L20.3438 17.7604C20.3438 18.1169 20.0544 18.4062 19.6979 18.4062L19.6979 18.4062L19.6979 18.4062Z" id="Shape#9" fill="#000000" fill-opacity="0.07058824" stroke="none" />
      <path d="M14.5312 12.9167L11.3021 12.9167C11.1238 12.9167 10.9792 12.772 10.9792 12.5938L10.9792 9.36458C10.9792 9.18633 11.1238 9.04167 11.3021 9.04167L14.5312 9.04167C14.7095 9.04167 14.8542 9.18633 14.8542 9.36458L14.8542 12.5938C14.8542 12.772 14.7095 12.9167 14.5312 12.9167L14.5312 12.9167L14.5312 12.9167Z" id="Shape#10" fill="#FFFFFF" stroke="none" />
      <path d="M14.5312 18.0833L11.3021 18.0833C11.1238 18.0833 10.9792 17.9387 10.9792 17.7604L10.9792 14.5312C10.9792 14.353 11.1238 14.2083 11.3021 14.2083L14.5312 14.2083C14.7095 14.2083 14.8542 14.353 14.8542 14.5312L14.8542 17.7604C14.8542 17.9387 14.7095 18.0833 14.5312 18.0833L14.5312 18.0833L14.5312 18.0833Z" id="Shape#11" fill="#FFFFFF" stroke="none" />
      <path d="M19.6979 18.0833L16.4687 18.0833C16.2905 18.0833 16.1458 17.9387 16.1458 17.7604L16.1458 14.5312C16.1458 14.353 16.2905 14.2083 16.4687 14.2083L19.6979 14.2083C19.8762 14.2083 20.0208 14.353 20.0208 14.5312L20.0208 17.7604C20.0208 17.9387 19.8762 18.0833 19.6979 18.0833L19.6979 18.0833L19.6979 18.0833Z" id="Shape#12" fill="#FFFFFF" stroke="none" />
      <path d="M19.6979 12.9167L16.4687 12.9167C16.2905 12.9167 16.1458 12.772 16.1458 12.5938L16.1458 9.36458C16.1458 9.18633 16.2905 9.04167 16.4687 9.04167L19.6979 9.04167C19.8762 9.04167 20.0208 9.18633 20.0208 9.36458L20.0208 12.5938C20.0208 12.772 19.8762 12.9167 19.6979 12.9167L19.6979 12.9167L19.6979 12.9167Z" id="Shape#13" fill="#FFFFFF" stroke="none" />
    </g>
  </g>
</svg>