<?xml version="1.0" encoding="utf-8"?>
<svg width="48px" height="48px" viewBox="0 0 48 48" version="1.1" xmlns:xlink="http://www.w3.org/1999/xlink" xmlns="http://www.w3.org/2000/svg">
  <defs>
    <linearGradient gradientUnits="objectBoundingBox" x1="0.09639473" y1="0.037821442" x2="0.8716316" y2="0.9255358" id="gradient_1">
      <stop offset="0%" stop-color="#C3CDD9" />
      <stop offset="100%" stop-color="#9FA7B0" />
    </linearGradient>
    <radialGradient gradientUnits="objectBoundingBox" cx="96.81178%" cy="179.64207%" fx="96.81178%" fy="179.64207%" r="9248.06%" gradientTransform="translate(0.96811783,1.7964207),scale(0.7058824,1),rotate(131.25447),scale(1,0.99740535),translate(-0.96811783,-1.7964207)" id="gradient_2">
      <stop offset="32.300003%" stop-color="#23D9D6" />
      <stop offset="42.699997%" stop-color="#23D4D7" />
      <stop offset="54.2%" stop-color="#21C7DC" />
      <stop offset="66.399994%" stop-color="#1FB0E2" />
      <stop offset="78.899994%" stop-color="#1C91EC" />
      <stop offset="91.7%" stop-color="#1969F8" />
      <stop offset="94.4%" stop-color="#1860FB" />
    </radialGradient>
    <linearGradient gradientUnits="objectBoundingBox" x1="0.50000006" y1="-0.0021424294" x2="0.50000006" y2="1.0020003" id="gradient_3">
      <stop offset="0%" stop-color="#484B4F" />
      <stop offset="26.499998%" stop-color="#656D75" />
      <stop offset="42.3%" stop-color="#727D86" />
      <stop offset="42.899998%" stop-color="#86949E" />
    </linearGradient>
    <linearGradient gradientUnits="objectBoundingBox" x1="0.25024998" y1="0.025171429" x2="0.77325" y2="1.0195428" id="gradient_4">
      <stop offset="0%" stop-color="#C3CDD9" />
      <stop offset="100%" stop-color="#9FA7B0" />
    </linearGradient>
    <radialGradient gradientUnits="objectBoundingBox" cx="50%" cy="50%" fx="50%" fy="50%" r="50%" gradientTransform="translate(0.5,0.5),translate(-0.5,-0.5)" id="gradient_5">
      <stop offset="58.2%" stop-color="#000000" stop-opacity="0.2" />
      <stop offset="100%" stop-color="#000000" stop-opacity="0" />
    </radialGradient>
    <path d="M48 0L48 0L48 48L0 48L0 0L48 0Z" id="path_1" />
    <clipPath id="clip_1">
      <use xlink:href="#path_1" clip-rule="evenodd" fill-rule="evenodd" />
    </clipPath>
  </defs>
  <g id="Workstation" clip-path="url(#clip_1)">
    <path d="M48 0L48 0L48 48L0 48L0 0L48 0Z" id="Workstation" fill="none" stroke="none" />
    <path d="M41 35L7 35C5.895 35 5 34.105 5 33L5 9C5 7.895 5.895 7 7 7L41 7C42.105 7 43 7.895 43 9L43 33C43 34.105 42.105 35 41 35L41 35Z" id="Shape" fill="url(#gradient_1)" stroke="none" />
    <path d="M7 9L41 9L41 33L7 33L7 9Z" id="Rectangle" fill="url(#gradient_2)" fill-rule="evenodd" stroke="none" />
    <path d="M33 38L28 38L28 35L20 35L20 38L15 38C14.448 38 14 38.448 14 39L14 41C14 41.552 14.448 42 15 42L33 42C33.552 42 34 41.552 34 41L34 39C34 38.448 33.552 38 33 38L33 38Z" id="Shape" fill="url(#gradient_3)" stroke="none" />
    <path d="M21 7L18 7L18 42L21 42C22.105 42 23 41.105 23 40L23 9C23 7.895 22.105 7 21 7L21 7Z" id="Shape" fill="#000000" fill-opacity="0.05" stroke="none" />
    <path d="M20 7L17 7L17 42L20 42C21.105 42 22 41.105 22 40L22 9C22 7.895 21.105 7 20 7L20 7Z" id="Shape" fill="#000000" fill-opacity="0.07" stroke="none" />
    <path d="M19 7L7 7C5.895 7 5 7.895 5 9L5 40C5 41.105 5.895 42 7 42L19 42C20.105 42 21 41.105 21 40L21 9C21 7.895 20.105 7 19 7L19 7Z" id="Shape" fill="url(#gradient_4)" stroke="none" />
    <path d="M10 35C10 33.3431 11.3431 32 13 32C14.6569 32 16 33.3431 16 35C16 36.6569 14.6569 38 13 38C11.3431 38 10 36.6569 10 35Z" id="Circle" fill="url(#gradient_5)" fill-rule="evenodd" stroke="none" />
    <path d="M11 35C11 33.8954 11.8954 33 13 33C14.1046 33 15 33.8954 15 35C15 36.1046 14.1046 37 13 37C11.8954 37 11 36.1046 11 35Z" id="Circle" fill="#FFFFFF" fill-rule="evenodd" stroke="none" />
    <path d="M18.5 14L7.5 14C7.224 14 7 13.776 7 13.5L7 10.5C7 10.224 7.224 10 7.5 10L18.5 10C18.776 10 19 10.224 19 10.5L19 13.5C19 13.776 18.776 14 18.5 14L18.5 14Z" id="Shape" fill="#727D86" stroke="none" />
    <path d="M16 12C16 11.4477 16.4477 11 17 11C17.5523 11 18 11.4477 18 12C18 12.5523 17.5523 13 17 13C16.4477 13 16 12.5523 16 12Z" id="Circle" fill="#50E6FF" fill-rule="evenodd" stroke="none" />
    <path d="M18.5 20L7.5 20C7.224 20 7 19.776 7 19.5L7 16.5C7 16.224 7.224 16 7.5 16L18.5 16C18.776 16 19 16.224 19 16.5L19 19.5C19 19.776 18.776 20 18.5 20L18.5 20Z" id="Shape" fill="#727D86" stroke="none" />
    <path d="M16 18C16 17.4477 16.4477 17 17 17C17.5523 17 18 17.4477 18 18C18 18.5523 17.5523 19 17 19C16.4477 19 16 18.5523 16 18Z" id="Circle" fill="#50E6FF" fill-rule="evenodd" stroke="none" />
  </g>
</svg>