<?xml version="1.0" encoding="utf-8"?>
<svg width="48px" height="48px" viewBox="0 0 48 48" version="1.1" xmlns:xlink="http://www.w3.org/1999/xlink" xmlns="http://www.w3.org/2000/svg">
  <defs>
    <linearGradient gradientUnits="userSpaceOnUse" x1="0.5290003" y1="10.472" x2="5.6" y2="5.3999996" id="gradient_1">
      <stop offset="0%" stop-color="#3079D6" />
      <stop offset="100%" stop-color="#297CD2" />
    </linearGradient>
    <linearGradient gradientUnits="userSpaceOnUse" x1="-5.4375" y1="8.458331" x2="12.6875" y2="8.458331" id="gradient_2">
      <stop offset="0%" stop-color="#FEDE00" />
      <stop offset="100%" stop-color="#FFD000" />
    </linearGradient>
    <linearGradient gradientUnits="userSpaceOnUse" x1="-12.687912" y1="-8.760418" x2="-9.063517" y2="-8.760418" id="gradient_3">
      <stop offset="0%" stop-color="#4B4B4B" />
      <stop offset="100%" stop-color="#3B3B3B" />
    </linearGradient>
    <path d="M0 0L48 0L48 48L0 48L0 0Z" id="path_1" />
    <clipPath id="mask_1">
      <use xlink:href="#path_1" />
    </clipPath>
  </defs>
  <g id="File-Icon-2">
    <path d="M0 0L48 0L48 48L0 48L0 0Z" id="Background" fill="#FFFFFF" fill-opacity="0" fill-rule="evenodd" stroke="none" />
    <path d="M39 16L39 41C39 42.105 38.105 43 37 43L11 43C9.895 43 9 42.105 9 41L9 7C9 5.895 9.895 5 11 5L28 5L39 16L39 16Z" id="Shape" fill="#50E6FF" stroke="none" />
    <path d="M28 5L28 14C28 15.105 28.895 16 30 16L39 16L28 5L28 5Z" id="Shape" fill="url(#gradient_1)" stroke="none" />
  </g>
  <g id="svg" transform="translate(9 15)">
    <g id="Archive-Icon">
      <path d="M0 0L29 0L29 29L0 29L0 0L0 0Z" id="Background" fill="#FFFFFF" fill-opacity="0" fill-rule="evenodd" stroke="none" />
      <path d="M23.5625 24.7708C23.5625 25.4384 23.0218 25.9792 22.3542 25.9792L6.64583 25.9792C5.97823 25.9792 5.4375 25.4384 5.4375 24.7708L5.4375 4.22916C5.4375 3.56156 5.97823 3.02083 6.64583 3.02083L22.3542 3.02083C23.0218 3.02083 23.5625 3.56156 23.5625 4.22916L23.5625 24.7708L23.5625 24.7708L23.5625 24.7708Z" id="Shape" fill="url(#gradient_2)" stroke="none" />
      <path d="M15.8014 12.5775C15.7494 12.2912 15.4993 12.0833 15.2075 12.0833L13.7925 12.0833C13.5007 12.0833 13.2506 12.29 13.1986 12.5769C13.0325 13.4898 12.7014 15.4727 12.6881 16.8345C12.679 17.7456 13.3207 18.5745 14.2215 18.7086C15.3458 18.876 16.3125 18.009 16.3125 16.9167C16.3125 15.5543 15.9711 13.5098 15.8014 12.5775L15.8014 12.5775L15.8014 12.5775ZM14.5 17.5208C14.1665 17.5208 13.8958 17.2502 13.8958 16.9167C13.8958 16.5832 14.1665 16.3125 14.5 16.3125C14.8335 16.3125 15.1041 16.5832 15.1041 16.9167C15.1041 17.2502 14.8335 17.5208 14.5 17.5208L14.5 17.5208L14.5 17.5208Z" id="Shape#1" fill="url(#gradient_3)" fill-rule="evenodd" stroke="none" />
      <path d="M14.1719 10.2708L13.6203 10.2708C13.4385 10.2708 13.2917 10.124 13.2917 9.94278L13.2917 9.39117C13.2917 9.20992 13.4385 9.06311 13.6197 9.06311L14.1713 9.06311C14.3526 9.06311 14.4994 9.20992 14.4994 9.39117L14.4994 9.94278C14.5 10.124 14.3532 10.2708 14.1719 10.2708L14.1719 10.2708L14.1719 10.2708Z" id="Shape#2" fill="#E97C01" stroke="none" />
      <path d="M15.3803 11.4792L14.8287 11.4792C14.6468 11.4792 14.5 11.3324 14.5 11.1511L14.5 10.5995C14.5 10.4183 14.6468 10.2715 14.8281 10.2715L15.3797 10.2715C15.5609 10.2715 15.7077 10.4183 15.7077 10.5995L15.7077 11.1511C15.7083 11.3324 15.5615 11.4792 15.3803 11.4792L15.3803 11.4792L15.3803 11.4792Z" id="Shape#3" fill="#E97C01" stroke="none" />
      <path d="M14.1719 7.85418L13.6203 7.85418C13.4385 7.85418 13.2917 7.70737 13.2917 7.52612L13.2917 6.97452C13.2917 6.79327 13.4385 6.64645 13.6197 6.64645L14.1713 6.64645C14.3526 6.64645 14.4994 6.79327 14.4994 6.97452L14.4994 7.52612C14.5 7.70737 14.3532 7.85418 14.1719 7.85418L14.1719 7.85418L14.1719 7.85418Z" id="Shape#4" fill="#E97C01" stroke="none" />
      <path d="M15.3803 9.0625L14.8287 9.0625C14.6468 9.0625 14.5 8.91568 14.5 8.73443L14.5 8.18283C14.5 8.00158 14.6468 7.85477 14.8281 7.85477L15.3797 7.85477C15.5609 7.85477 15.7077 8.00158 15.7077 8.18283L15.7077 8.73443C15.7083 8.91568 15.5615 9.0625 15.3803 9.0625L15.3803 9.0625L15.3803 9.0625Z" id="Shape#5" fill="#E97C01" stroke="none" />
      <path d="M14.1719 5.43751L13.6203 5.43751C13.4385 5.43751 13.2917 5.29069 13.2917 5.10944L13.2917 4.55723C13.2917 4.37598 13.4385 4.22917 13.6197 4.22917L14.1713 4.22917C14.3532 4.22917 14.5 4.37598 14.5 4.55723L14.5 5.10884C14.5 5.29069 14.3532 5.43751 14.1719 5.43751L14.1719 5.43751L14.1719 5.43751Z" id="Shape#6" fill="#E97C01" stroke="none" />
      <path d="M15.3803 6.64583L14.8287 6.64583C14.6468 6.64583 14.5 6.49902 14.5 6.31777L14.5 5.76556C14.5 5.58431 14.6468 5.4375 14.8281 5.4375L15.3797 5.4375C15.5615 5.4375 15.7083 5.58431 15.7083 5.76556L15.7083 6.31717C15.7083 6.49902 15.5615 6.64583 15.3803 6.64583L15.3803 6.64583L15.3803 6.64583Z" id="Shape#7" fill="#E97C01" stroke="none" />
      <path d="M15.3803 4.22916L14.8287 4.22916C14.6468 4.22916 14.5 4.08235 14.5 3.9011L14.5 3.34889C14.5 3.16764 14.6468 3.02083 14.8281 3.02083L15.3797 3.02083C15.5615 3.02083 15.7083 3.16764 15.7083 3.34889L15.7083 3.90049C15.7083 4.08235 15.5615 4.22916 15.3803 4.22916L15.3803 4.22916L15.3803 4.22916Z" id="Shape#8" fill="#E97C01" stroke="none" />
    </g>
  </g>
</svg>