<?xml version="1.0" encoding="utf-8"?>
<svg width="48px" height="48px" viewBox="0 0 48 48" version="1.1" xmlns:xlink="http://www.w3.org/1999/xlink" xmlns="http://www.w3.org/2000/svg">
  <defs>
    <linearGradient gradientUnits="objectBoundingBox" x1="0.7798183" y1="0.5" x2="0.15181819" y2="0.5" id="gradient_1">
      <stop offset="0%" stop-color="#C26715" />
      <stop offset="54.100002%" stop-color="#C16515" />
      <stop offset="73.49999%" stop-color="#BD5E15" />
      <stop offset="87.4%" stop-color="#B75316" />
      <stop offset="98.49999%" stop-color="#AF4216" />
      <stop offset="100%" stop-color="#AD3F16" />
    </linearGradient>
    <linearGradient gradientUnits="objectBoundingBox" x1="0.49581578" y1="-0.0024995804" x2="0.5051316" y2="1.1184998" id="gradient_2">
      <stop offset="0%" stop-color="#889097" />
      <stop offset="100%" stop-color="#64717C" />
    </linearGradient>
    <linearGradient gradientUnits="objectBoundingBox" x1="0.39249992" y1="0.019299984" x2="0.6113" y2="0.99780005" id="gradient_3">
      <stop offset="0%" stop-color="#FFCF54" />
      <stop offset="26.1%" stop-color="#FDCB4D" />
      <stop offset="63.9%" stop-color="#F7C13A" />
      <stop offset="100%" stop-color="#F0B421" />
    </linearGradient>
    <path d="M48 0L48 0L48 48L0 48L0 0L48 0Z" id="path_1" />
    <clipPath id="clip_1">
      <use xlink:href="#path_1" />
    </clipPath>
  </defs>
  <g id="Construction Worker" clip-path="url(#clip_1)">
    <path d="M48 0L48 0L48 48L0 48L0 0L48 0Z" id="Construction-Worker" fill="none" stroke="none" />
    <path d="M13 9L4 9C3.4 9 3 8.6 3 8C3 7.4 3.4 7 4 7L13 7C13.6 7 14 7.4 14 8C14 8.6 13.6 9 13 9L13 9Z" id="Shape" fill="url(#gradient_1)" stroke="none" />
    <path d="M40.68 36.609L31.041 25.797C30.29 24.954 29.348 24.304 28.294 23.901L20.78 21.025L16.552 16.472L13.904 6.965L11.054 7.897L12.704 18.314L17.474 25.577L16.13 38L29.181 38L29.831 30.313L38.165 38.047L40.68 36.609L40.68 36.609Z" id="Shape" fill="#35C1F1" stroke="none" />
    <path d="M7 38L41 38C42.105 38 43 38.895 43 40L43 40C43 41.105 42.105 42 41 42L7 42C5.895 42 5 41.105 5 40L5 40C5 38.895 5.895 38 7 38L7 38Z" id="Shape" fill="url(#gradient_2)" stroke="none" />
    <path d="M1 5L1 10.5C1 10.815 1.148 11.111 1.4 11.3L3.353 12.764C4.031 13.274 5 12.789 5 11.941L5 5C5 4.448 4.552 4 4 4L2 4C1.448 4 1 4.448 1 5L1 5Z" id="Shape" fill="#999999" stroke="none" />
    <path d="M24 14C24 16.76 26.238 19 28.998 19C31.764 19 34 16.76 34 14C34 11.24 31.764 9 28.998 9C26.238 9 24 11.24 24 14L24 14Z" id="Shape" fill="url(#gradient_3)" stroke="none" />
    <path d="M11 7.5C11 6.67157 11.6716 6 12.5 6C13.3284 6 14 6.67157 14 7.5C14 8.32843 13.3284 9 12.5 9C11.6716 9 11 8.32843 11 7.5Z" id="Circle" fill="#35C1F1" fill-rule="evenodd" stroke="none" />
    <path d="M40.908 38C40.964 37.843 41 37.676 41 37.5C41 36.672 40.328 36 39.5 36C38.672 36 38 36.672 38 37.5C38 37.676 38.036 37.843 38.092 38L40.908 38L40.908 38Z" id="Shape" fill="#35C1F1" stroke="none" />
  </g>
</svg>