<?xml version="1.0" encoding="utf-8"?>
<svg width="48px" height="48px" viewBox="0 0 48 48" version="1.1" xmlns:xlink="http://www.w3.org/1999/xlink" xmlns="http://www.w3.org/2000/svg">
  <defs>
    <linearGradient gradientUnits="userSpaceOnUse" x1="0.5290003" y1="10.472" x2="5.6" y2="5.3999996" id="gradient_1">
      <stop offset="0%" stop-color="#3079D6" />
      <stop offset="100%" stop-color="#297CD2" />
    </linearGradient>
    <linearGradient gradientUnits="userSpaceOnUse" x1="0.7963123" y1="-5.328125" x2="14.703686" y2="20.828125" id="gradient_2">
      <stop offset="0%" stop-color="#21AD64" />
      <stop offset="100%" stop-color="#088242" />
    </linearGradient>
    <path d="M0 0L48 0L48 48L0 48L0 0Z" id="path_1" />
    <clipPath id="mask_1">
      <use xlink:href="#path_1" />
    </clipPath>
  </defs>
  <g id="File-Icon-2">
    <path d="M0 0L48 0L48 48L0 48L0 0Z" id="Background" fill="#FFFFFF" fill-opacity="0" fill-rule="evenodd" stroke="none" />
    <g clip-path="url(#mask_1)">
      <path d="M39 16L39 41C39 42.105 38.105 43 37 43L11 43C9.895 43 9 42.105 9 41L9 7C9 5.895 9.895 5 11 5L28 5L39 16L39 16Z" id="Shape" fill="#50E6FF" fill-rule="evenodd" stroke="none" />
      <path d="M28 5L28 14C28 15.105 28.895 16 30 16L39 16L28 5L28 5Z" id="Shape" fill="url(#gradient_1)" fill-rule="evenodd" stroke="none" />
    </g>
  </g>
  <g id="svg" transform="translate(8.5 14)">
    <g id="Torrent-Icon">
      <path d="M0 0L31 0L31 31L0 31L0 0L0 0Z" id="Background" fill="#FFFFFF" fill-opacity="0" fill-rule="evenodd" stroke="none" />
      <path d="M27.125 24.5417C27.125 25.9683 25.9683 27.125 24.5417 27.125L6.45833 27.125C5.03169 27.125 3.875 25.9683 3.875 24.5417L3.875 6.45833C3.875 5.03169 5.03169 3.875 6.45833 3.875L24.5417 3.875C25.9683 3.875 27.125 5.03169 27.125 6.45833L27.125 24.5417L27.125 24.5417L27.125 24.5417Z" id="Shape" fill="url(#gradient_2)" stroke="none" />
      <path d="M15.5 24.5513C15.0079 24.5513 14.5364 24.3421 14.207 23.9772L10.83 20.2417C10.4825 19.8574 10.3973 19.3246 10.6078 18.8512C10.8171 18.3778 11.2698 18.0833 11.7877 18.0833L12.9167 18.0833L12.9167 12.9167L11.7877 12.9167C11.2698 12.9167 10.8171 12.6222 10.6072 12.1488C10.3966 11.676 10.4825 11.1432 10.8293 10.7589L14.2064 7.02343C14.5371 6.65854 15.0085 6.44864 15.5 6.44864C15.9921 6.44864 16.4636 6.65789 16.793 7.02279L20.17 10.7583C20.5175 11.1426 20.6027 11.6754 20.3922 12.1488C20.1829 12.6222 19.7302 12.9167 19.2122 12.9167L18.0833 12.9167L18.0833 18.0833L19.2122 18.0833C19.7302 18.0833 20.1829 18.3778 20.3928 18.8512C20.6034 19.324 20.5175 19.8568 20.1707 20.2411L16.7936 23.9766C16.4629 24.3415 15.9915 24.5513 15.5 24.5513L15.5 24.5513L15.5 24.5513Z" id="Shape#1" fill="#000000" fill-opacity="0.050980393" stroke="none" />
      <path d="M15.5 24.2284C15.0989 24.2284 14.7153 24.0579 14.446 23.7602L11.0689 20.0247C10.8087 19.7367 10.7447 19.3369 10.9023 18.9823C11.0599 18.6271 11.3996 18.4063 11.7877 18.4063L13.2396 18.4063L13.2396 12.5938L11.7877 12.5938C11.399 12.5938 11.0599 12.3735 10.9023 12.0177C10.7447 11.6631 10.8087 11.2633 11.0689 10.9753L14.446 7.2398C14.7153 6.94271 15.0996 6.77157 15.5 6.77157C15.9004 6.77157 16.2847 6.94207 16.554 7.2398L19.9311 10.9753C20.1913 11.2633 20.2553 11.6631 20.0977 12.0177C19.9401 12.3729 19.6004 12.5938 19.2122 12.5938L17.7604 12.5938L17.7604 18.4063L19.2122 18.4063C19.601 18.4063 19.9401 18.6265 20.0977 18.9823C20.2553 19.3369 20.1913 19.7367 19.9311 20.0247L16.554 23.7602C16.2847 24.0573 15.9011 24.2284 15.5 24.2284L15.5 24.2284L15.5 24.2284Z" id="Shape#2" fill="#000000" fill-opacity="0.07058824" stroke="none" />
      <path d="M16.3144 23.5439L19.6915 19.8084C20.0667 19.3931 19.7722 18.7292 19.2122 18.7292L17.4375 18.7292L17.4375 12.2708L19.2122 12.2708C19.7722 12.2708 20.0667 11.6069 19.6915 11.1916L16.3144 7.45614C15.8785 6.97371 15.1215 6.97371 14.6856 7.45614L11.3085 11.1916C10.9333 11.6069 11.2278 12.2708 11.7877 12.2708L13.5625 12.2708L13.5625 18.7292L11.7877 18.7292C11.2278 18.7292 10.9333 19.3931 11.3085 19.8084L14.6856 23.5439C15.1215 24.0256 15.8785 24.0256 16.3144 23.5439L16.3144 23.5439L16.3144 23.5439Z" id="Shape#3" fill="#FFFFFF" stroke="none" />
    </g>
  </g>
</svg>