<?xml version="1.0" encoding="utf-8"?>
<svg width="48px" height="48px" viewBox="0 0 48 48" version="1.1" xmlns:xlink="http://www.w3.org/1999/xlink" xmlns="http://www.w3.org/2000/svg">
  <defs>
    <linearGradient gradientUnits="userSpaceOnUse" x1="7.233" y1="-2.25" x2="28.766998" y2="38.25" id="gradient_1">
      <stop offset="0%" stop-color="#21AD64" />
      <stop offset="100%" stop-color="#088242" />
    </linearGradient>
    <path d="M0 0L48 0L48 48L0 48L0 0Z" id="path_1" />
    <clipPath id="mask_1">
      <use xlink:href="#path_1" />
    </clipPath>
  </defs>
  <g id="Torrent-Icon">
    <path d="M0 0L48 0L48 48L0 48L0 0Z" id="Background" fill="#FFFFFF" fill-opacity="0" fill-rule="evenodd" stroke="none" />
    <path d="M42 38C42 40.209 40.209 42 38 42L10 42C7.791 42 6 40.209 6 38L6 10C6 7.791 7.791 6 10 6L38 6C40.209 6 42 7.791 42 10L42 38L42 38Z" id="Shape" fill="url(#gradient_1)" stroke="none" />
    <path d="M24 38.015C23.238 38.015 22.508 37.691 21.998 37.126L16.769 31.342C16.231 30.747 16.099 29.922 16.425 29.189C16.749 28.456 17.45 28 18.252 28L20 28L20 20L18.252 20C17.45 20 16.749 19.544 16.424 18.811C16.098 18.079 16.231 17.254 16.768 16.659L21.997 10.875C22.509 10.31 23.239 9.985 24 9.985C24.762 9.985 25.492 10.309 26.002 10.874L31.231 16.658C31.769 17.253 31.901 18.078 31.575 18.811C31.251 19.544 30.55 20 29.748 20L28 20L28 28L29.748 28C30.55 28 31.251 28.456 31.576 29.189C31.902 29.921 31.769 30.746 31.232 31.341L26.003 37.125C25.491 37.69 24.761 38.015 24 38.015L24 38.015Z" id="Shape" fill="#000000" fill-opacity="0.05" stroke="none" />
    <path d="M24 37.515C23.379 37.515 22.785 37.251 22.368 36.79L17.139 31.006C16.736 30.56 16.637 29.941 16.881 29.392C17.125 28.842 17.651 28.5 18.252 28.5L20.5 28.5L20.5 19.5L18.252 19.5C17.65 19.5 17.125 19.159 16.881 18.608C16.637 18.059 16.736 17.44 17.139 16.994L22.368 11.21C22.785 10.75 23.38 10.485 24 10.485C24.62 10.485 25.215 10.749 25.632 11.21L30.861 16.994C31.264 17.44 31.363 18.059 31.119 18.608C30.875 19.158 30.349 19.5 29.748 19.5L27.5 19.5L27.5 28.5L29.748 28.5C30.35 28.5 30.875 28.841 31.119 29.392C31.363 29.941 31.264 30.56 30.861 31.006L25.632 36.79C25.215 37.25 24.621 37.515 24 37.515L24 37.515Z" id="Shape" fill="#000000" fill-opacity="0.07" stroke="none" />
    <path d="M25.261 36.455L30.49 30.671C31.071 30.028 30.615 29 29.748 29L27 29L27 19L29.748 19C30.615 19 31.071 17.972 30.49 17.329L25.261 11.545C24.586 10.798 23.414 10.798 22.739 11.545L17.51 17.329C16.929 17.972 17.385 19 18.252 19L21 19L21 29L18.252 29C17.385 29 16.929 30.028 17.51 30.671L22.739 36.455C23.414 37.201 24.586 37.201 25.261 36.455L25.261 36.455Z" id="Shape" fill="#FFFFFF" stroke="none" />
  </g>
</svg>