<?xml version="1.0" encoding="utf-8"?>
<svg width="48px" height="48px" viewBox="0 0 48 48" version="1.1" xmlns:xlink="http://www.w3.org/1999/xlink" xmlns="http://www.w3.org/2000/svg">
  <defs>
    <linearGradient gradientUnits="objectBoundingBox" x1="0.22672501" y1="-0.11114788" x2="0.69815" y2="0.8990736" id="gradient_1">
      <stop offset="0%" stop-color="#7DD8F3" />
      <stop offset="100%" stop-color="#45B0D0" />
    </linearGradient>
    <linearGradient gradientUnits="objectBoundingBox" x1="0.0202" y1="-0.24399948" x2="0.96875" y2="1.2989998" id="gradient_2">
      <stop offset="0%" stop-color="#0077D2" />
      <stop offset="100%" stop-color="#0B59A2" />
    </linearGradient>
    <path d="M48 0L48 0L48 48L0 48L0 0L48 0Z" id="path_1" />
    <clipPath id="clip_1">
      <use xlink:href="#path_1" clip-rule="evenodd" fill-rule="evenodd" />
    </clipPath>
  </defs>
  <g id="Variable" clip-path="url(#clip_1)">
    <path d="M48 0L48 0L48 48L0 48L0 0L48 0Z" id="Variable" fill="none" stroke="none" />
    <path d="M4 38L4 13L44 13L44 38C44 39.1 43.1 40 42 40L6 40C4.9 40 4 39.1 4 38L4 38Z" id="Shape" fill="url(#gradient_1)" stroke="none" />
    <path d="M44 10L44 13L4 13L4 10C4 8.9 4.9 8 6 8L42 8C43.1 8 44 8.9 44 10L44 10Z" id="Shape" fill="url(#gradient_2)" stroke="none" />
    <path d="M30.1 19.4L29.8 19.1L25.8 19.1L27.1 20.7C27.5 21.1 27.8 21.6 28 22.1L25.1 22.1L24.1 24L23.1 22.1L20 22.1C20.3 21.6 20.6 21.2 20.9 20.7L22.2 19.1L18.2 19.1L17.9 19.4C16.2 21.4 15.3 23.8 15.3 26.6C15.3 29.4 16.2 31.8 17.9 33.7L18.2 34L22.2 34L20.8 32.4C20.6 32.2 20.4 31.9 20.2 31.6L22.8 31.6L23.9 29.7L25 31.6L27.7 31.6C27.5 31.9 27.3 32.1 27.1 32.3L25.7 33.9L29.7 33.9L30 33.6C31.7 31.7 32.6 29.3 32.6 26.5C32.7 23.8 31.8 21.4 30.1 19.4L30.1 19.4ZM19.5 30C19.1 28.9 18.8 27.8 18.8 26.5C18.8 25.3 19 24.2 19.4 23.2L21.7 26.8L19.5 30L19.5 30ZM26.3 26.8L28.6 23.3C29 24.3 29.1 25.4 29.1 26.5C29.1 27.8 28.9 29 28.4 30.1L26.3 26.8L26.3 26.8Z" id="Shape" fill="#000000" fill-opacity="0.05" fill-rule="evenodd" stroke="none" />
    <path d="M18.4 33.4L18.3 33.2C16.7 31.4 15.9 29.1 15.9 26.5C15.9 23.8 16.7 21.5 18.3 19.7L18.4 19.5L21.1 19.5L20.4 20.3C19 22.1 18.2 24.1 18.2 26.5C18.2 28.8 18.9 30.9 20.3 32.6L21 33.4L18.4 33.4L18.4 33.4Z" id="Shape" fill="#000000" fill-opacity="0.07" stroke="none" />
    <path d="M20.1 32.9L18.7 32.9C17.2 31.2 16.4 29 16.4 26.5C16.4 24 17.2 21.8 18.7 20L20.1 20C18.6 21.9 17.8 24 17.8 26.5C17.8 29 18.6 31.1 20.1 32.9L20.1 32.9Z" id="Shape" fill="#FFFFFF" stroke="none" />
    <path d="M25.3 31.1L24 28.7L22.6 31.1L19.4 31.1L22.3 26.9L19.6 22.6L22.8 22.6L24.1 25L25.5 22.6L28.5 22.6L25.7 26.9L28.5 31.1L25.3 31.1Z" id="Polygon" fill="#000000" fill-opacity="0.07" fill-rule="evenodd" stroke="none" />
    <path d="M27.6 23.1L25.1 26.9L27.6 30.6L25.6 30.6L24.3 28.3C24.2 28.2 24.1 28 24 27.8L24 27.8C24 27.8 23.9 28 23.7 28.3L22.4 30.6L20.4 30.6L22.9 26.9L20.5 23.1L22.5 23.1L23.8 25.5C23.9 25.7 24 25.9 24.1 26.1L24.1 26.1L25.8 23.1L27.6 23.1L27.6 23.1Z" id="Shape" fill="#FFFFFF" stroke="none" />
    <path d="M26.8 33.4L27.5 32.6C28.9 30.9 29.7 28.8 29.7 26.5C29.7 24.2 29 22.1 27.5 20.3L26.8 19.5L29.5 19.5L29.6 19.7C31.2 21.6 32 23.9 32 26.5C32 29.1 31.2 31.4 29.5 33.2L29.4 33.4L26.8 33.4L26.8 33.4Z" id="Shape" fill="#000000" fill-opacity="0.07" stroke="none" />
    <path d="M29.3 32.9L27.9 32.9C29.4 31.1 30.2 28.9 30.2 26.5C30.2 24 29.4 21.9 27.9 20L29.4 20C30.9 21.8 31.7 24 31.7 26.5C31.7 29.1 30.9 31.2 29.3 32.9L29.3 32.9Z" id="Shape" fill="#FFFFFF" stroke="none" />
  </g>
</svg>