<?xml version="1.0" encoding="utf-8"?>
<svg width="48px" height="48px" viewBox="0 0 48 48" version="1.1" xmlns:xlink="http://www.w3.org/1999/xlink" xmlns="http://www.w3.org/2000/svg">
  <defs>
    <linearGradient gradientUnits="userSpaceOnUse" x1="0.5290003" y1="10.472" x2="5.6" y2="5.3999996" id="gradient_1">
      <stop offset="0%" stop-color="#3079D6" />
      <stop offset="100%" stop-color="#297CD2" />
    </linearGradient>
    <linearGradient gradientUnits="userSpaceOnUse" x1="0.48375034" y1="-3.6376889" x2="7.6365004" y2="18.869627" id="gradient_2">
      <stop offset="0%" stop-color="#C77740" />
      <stop offset="100%" stop-color="#B0622B" />
    </linearGradient>
    <linearGradient gradientUnits="userSpaceOnUse" x1="2.2500017" y1="-15.206619" x2="2.2500017" y2="-12.997681" id="gradient_3">
      <stop offset="44.2%" stop-color="#878786" />
      <stop offset="59.399998%" stop-color="#9F9F9E" />
      <stop offset="85.899994%" stop-color="#C3C3C3" />
      <stop offset="100%" stop-color="#D1D1D1" />
    </linearGradient>
    <linearGradient gradientUnits="userSpaceOnUse" x1="-5.101885" y1="3.334488" x2="-6.161632" y2="-1.0738106" id="gradient_4">
      <stop offset="0%" stop-color="#C3CDD9" />
      <stop offset="100%" stop-color="#9FA7B0" />
    </linearGradient>
    <linearGradient gradientUnits="userSpaceOnUse" x1="-8.437501" y1="-15.738192" x2="-6.208876" y2="-15.738192" id="gradient_5">
      <stop offset="0%" stop-color="#DEDEDE" />
      <stop offset="100%" stop-color="#D6D6D6" />
    </linearGradient>
    <linearGradient gradientUnits="userSpaceOnUse" x1="-13.796436" y1="-9.473062" x2="-13.796436" y2="-6.694312" id="gradient_6">
      <stop offset="0%" stop-color="#DEDEDE" />
      <stop offset="100%" stop-color="#D6D6D6" />
    </linearGradient>
    <path d="M0 0L48 0L48 48L0 48L0 0Z" id="path_1" />
    <clipPath id="mask_1">
      <use xlink:href="#path_1" />
    </clipPath>
  </defs>
  <g id="File-Icon-2">
    <path d="M0 0L48 0L48 48L0 48L0 0Z" id="Background" fill="#FFFFFF" fill-opacity="0" fill-rule="evenodd" stroke="none" />
    <path d="M39 16L39 41C39 42.105 38.105 43 37 43L11 43C9.895 43 9 42.105 9 41L9 7C9 5.895 9.895 5 11 5L28 5L39 16L39 16Z" id="Shape" fill="#50E6FF" stroke="none" />
    <path d="M28 5L28 14C28 15.105 28.895 16 30 16L39 16L28 5L28 5Z" id="Shape" fill="url(#gradient_1)" stroke="none" />
  </g>
  <g id="svg-2" transform="translate(10 16)">
    <g id="Task-Icon">
      <path d="M0 0L27 0L27 27L0 27L0 0L0 0Z" id="Background" fill="#FFFFFF" fill-opacity="0" fill-rule="evenodd" stroke="none" />
      <path d="M21.375 2.25L14.625 2.25C14.625 2.87156 14.1216 3.375 13.5 3.375C12.8784 3.375 12.375 2.87156 12.375 2.25L5.625 2.25C5.00344 2.25 4.5 2.75343 4.5 3.375L4.5 23.625C4.5 24.2466 5.00344 24.75 5.625 24.75L21.375 24.75C21.9966 24.75 22.5 24.2466 22.5 23.625L22.5 3.375C22.5 2.75343 21.9966 2.25 21.375 2.25L21.375 2.25L21.375 2.25Z" id="Shape" fill="url(#gradient_2)" stroke="none" />
      <path d="M20.8125 23.625L6.1875 23.625C5.877 23.625 5.625 23.373 5.625 23.0625L5.625 18L21.375 18L21.375 23.0625C21.375 23.373 21.123 23.625 20.8125 23.625L20.8125 23.625L20.8125 23.625Z" id="Shape#1" fill="url(#gradient_3)" stroke="none" />
      <path d="M20.8125 22.5L6.1875 22.5C5.877 22.5 5.625 22.248 5.625 21.9375L5.625 3.9375C5.625 3.627 5.877 3.375 6.1875 3.375L20.8125 3.375C21.123 3.375 21.375 3.627 21.375 3.9375L21.375 21.9375C21.375 22.248 21.123 22.5 20.8125 22.5L20.8125 22.5L20.8125 22.5Z" id="Shape#2" fill="#F3F3F3" stroke="none" />
      <path d="M17.4375 4.50001L17.4375 2.25L15.084 2.25C14.8517 1.59582 14.2335 1.125 13.5 1.125C12.7665 1.125 12.1483 1.59582 11.916 2.25L9.5625 2.25L9.5625 4.50001C9.5625 4.8105 9.8145 5.0625 10.125 5.0625L16.875 5.0625C17.1855 5.0625 17.4375 4.8105 17.4375 4.50001L17.4375 4.50001L17.4375 4.50001ZM13.5 2.25001C13.8105 2.25001 14.0625 2.50201 14.0625 2.81251C14.0625 3.12301 13.8105 3.37501 13.5 3.37501C13.1895 3.37501 12.9375 3.12301 12.9375 2.81251C12.9375 2.50201 13.1895 2.25001 13.5 2.25001L13.5 2.25001L13.5 2.25001Z" id="Shape#3" fill="url(#gradient_4)" fill-rule="evenodd" stroke="none" />
      <path d="M18.4511 10.0834L17.4786 9.11082C17.3306 8.96288 17.0899 8.96288 16.9419 9.11082L16.4841 9.56925L17.9932 11.0784L18.4517 10.6206C18.5996 10.4726 18.5996 10.2324 18.4511 10.0834" id="Shape#4" fill="#C94F60" stroke="none" />
      <path d="M8.94488 17.1079L8.4375 19.125L10.4546 18.6171L10.6661 16.8671L8.94488 17.1079L8.94488 17.1079L8.94488 17.1079Z" id="Shape#5" fill="url(#gradient_5)" stroke="none" />
      <path d="M16.7057 12.3654L10.4552 18.6171L8.94601 17.1079L15.1965 10.8562L16.7057 12.3654L16.7057 12.3654L16.7057 12.3654Z" id="Shape#6" fill="#EDBE00" stroke="none" />
      <path d="M15.1954 10.8568L16.4829 9.56868L17.9932 11.0779L16.7057 12.366L15.1954 10.8568L15.1954 10.8568L15.1954 10.8568Z" id="Shape#7" fill="url(#gradient_6)" stroke="none" />
      <path d="M8.69456 18.1052L8.4375 19.125L9.45731 18.8679L8.69456 18.1052L8.69456 18.1052L8.69456 18.1052Z" id="Shape#8" fill="#787878" stroke="none" />
    </g>
  </g>
</svg>