<?xml version="1.0" encoding="utf-8"?>
<svg width="48px" height="48px" viewBox="0 0 48 48" version="1.1" xmlns:xlink="http://www.w3.org/1999/xlink" xmlns="http://www.w3.org/2000/svg">
  <defs>
    <linearGradient gradientUnits="userSpaceOnUse" x1="8.860001" y1="-2.4670029" x2="21.576" y2="37.546005" id="gradient_1">
      <stop offset="0%" stop-color="#C77740" />
      <stop offset="100%" stop-color="#B0622B" />
    </linearGradient>
    <linearGradient gradientUnits="userSpaceOnUse" x1="14.000002" y1="4.965973" x2="14.000002" y2="8.892975" id="gradient_2">
      <stop offset="44.2%" stop-color="#878786" />
      <stop offset="59.399998%" stop-color="#9F9F9E" />
      <stop offset="85.899994%" stop-color="#C3C3C3" />
      <stop offset="100%" stop-color="#D1D1D1" />
    </linearGradient>
    <linearGradient gradientUnits="userSpaceOnUse" x1="15.860016" y1="15.855957" x2="12.091919" y2="0.18179321" id="gradient_3">
      <stop offset="0%" stop-color="#C3CDD9" />
      <stop offset="100%" stop-color="#9FA7B0" />
    </linearGradient>
    <path d="M0 0L48 0L48 48L0 48L0 0Z" id="path_1" />
    <clipPath id="clip_1">
      <use xlink:href="#path_1" />
    </clipPath>
  </defs>
  <g id="Paste As Text" clip-path="url(#clip_1)">
    <path d="M0 0L48 0L48 48L0 48L0 0Z" id="Paste-As-Text" fill="none" fill-rule="evenodd" stroke="none" />
    <path d="M38 4L26 4C26 5.105 25.105 6 24 6C22.895 6 22 5.105 22 4L10 4C8.895 4 8 4.895 8 6L8 42C8 43.105 8.895 44 10 44L38 44C39.105 44 40 43.105 40 42L40 6C40 4.895 39.105 4 38 4L38 4Z" id="Shape" fill="url(#gradient_1)" stroke="none" />
    <path d="M37 42L11 42C10.448 42 10 41.552 10 41L10 32L38 32L38 41C38 41.552 37.552 42 37 42L37 42Z" id="Shape" fill="url(#gradient_2)" stroke="none" />
    <path d="M37 40L11 40C10.448 40 10 39.552 10 39L10 7C10 6.448 10.448 6 11 6L37 6C37.552 6 38 6.448 38 7L38 39C38 39.552 37.552 40 37 40L37 40Z" id="Shape" fill="#F3F3F3" stroke="none" />
    <path d="M31 8L31 4L26.816 4C26.403 2.837 25.304 2 24 2C22.696 2 21.597 2.837 21.184 4L17 4L17 8C17 8.552 17.448 9 18 9L30 9C30.552 9 31 8.552 31 8L31 8ZM24 4C24.552 4 25 4.448 25 5C25 5.552 24.552 6 24 6C23.448 6 23 5.552 23 5C23 4.448 23.448 4 24 4L24 4Z" id="Shape" fill="url(#gradient_3)" fill-rule="evenodd" stroke="none" />
    <path d="M29.5 20L26 20L26 32.5C26 32.776 25.776 33 25.5 33L22.5 33C22.224 33 22 32.776 22 32.5L22 20L18.5 20C18.224 20 18 19.776 18 19.5L18 17.5C18 17.224 18.224 17 18.5 17L29.5 17C29.776 17 30 17.224 30 17.5L30 19.5C30 19.776 29.776 20 29.5 20L29.5 20Z" id="Shape" fill="#195BBC" stroke="none" />
  </g>
</svg>