<?xml version="1.0" encoding="utf-8"?>
<svg width="48px" height="48px" viewBox="0 0 48 48" version="1.1" xmlns:xlink="http://www.w3.org/1999/xlink" xmlns="http://www.w3.org/2000/svg">
  <defs>
    <linearGradient x1="0.048090935" y1="0.952" x2="0.5090909" y2="0.49090907" id="gradient_1">
      <stop offset="0" stop-color="#3079D6" />
      <stop offset="1" stop-color="#297CD2" />
    </linearGradient>
    <radialGradient gradientUnits="objectBoundingBox" cx="15.155003%" cy="13.595%" fx="15.155003%" fy="13.595%" r="102.29001%" gradientTransform="translate(0.15155002,0.13595),translate(-0.15155002,-0.13595)" id="gradient_2">
      <stop offset="0%" stop-color="#6FCEFC" />
      <stop offset="100%" stop-color="#167CF7" />
    </radialGradient>
    <radialGradient gradientUnits="objectBoundingBox" cx="14.45783%" cy="10.125%" fx="14.45783%" fy="10.125%" r="109.30997%" gradientTransform="translate(0.14457831,0.10125),scale(1,0.935825),translate(-0.14457831,-0.10125)" id="gradient_3">
      <stop offset="0.1%" stop-color="#54C0F5" />
      <stop offset="99.8%" stop-color="#0B69DB" />
    </radialGradient>
    <path d="M0 0L48 0L48 48L0 48L0 0Z" id="path_1" />
    <path d="M0 0L25 0L25 25L0 25L0 0Z" id="path_2" />
    <clipPath id="mask_1">
      <use xlink:href="#path_1" />
    </clipPath>
    <clipPath id="mask_2">
      <use xlink:href="#path_2" />
    </clipPath>
  </defs>
  <g id="icons8_file">
    <path d="M0 0L48 0L48 48L0 48L0 0Z" id="Background" fill="none" fill-rule="evenodd" stroke="none" />
    <g clip-path="url(#mask_1)">
      <path d="M30 11L30 36C30 37.105 29.105 38 28 38L2 38C0.895001 38 0 37.105 0 36L0 2C0 0.895 0.895001 0 2 0L19 0L30 11L30 11Z" transform="translate(9 5)" id="Shape" fill="#50E6FF" fill-rule="evenodd" stroke="none" />
      <path d="M0 0L0 9C0 10.105 0.895 11 2 11L11 11L0 0L0 0Z" transform="translate(28 5)" id="Shape" fill="url(#gradient_1)" fill-rule="evenodd" stroke="none" />
    </g>
  </g>
  <g id="icons8_internet" transform="translate(11.957092 16.841278)">
    <path d="M0 0L25 0L25 25L0 25L0 0Z" id="Background" fill="none" fill-rule="evenodd" stroke="none" />
    <g clip-path="url(#mask_2)">
      <path d="M20.8333 10.4167C20.8333 16.1693 16.1693 20.8333 10.4167 20.8333C4.66406 20.8333 0 16.1693 0 10.4167C0 4.66406 4.66406 0 10.4167 0C16.1693 0 20.8333 4.66406 20.8333 10.4167L20.8333 10.4167Z" transform="translate(2.0833435 2.0833282)" id="Shape" fill="url(#gradient_2)" fill-rule="evenodd" stroke="none" />
      <path d="M18.6021 10.4167C18.6021 9.13281 18.3943 7.90729 18.0313 6.77083L19.4953 6.77083C19.362 6.41406 19.2109 6.06615 19.0406 5.72917L17.6437 5.72917C16.1828 2.33594 13.1964 0 9.74792 0C6.29948 0 3.31302 2.33594 1.85156 5.72917L0.454688 5.72917C0.284375 6.06615 0.133854 6.41406 0 6.77083L1.46406 6.77083C1.10156 7.90729 0.89375 9.13281 0.89375 10.4167C0.89375 11.7005 1.10156 12.926 1.46458 14.0625L0.000520796 14.0625C0.133854 14.4193 0.284896 14.7672 0.455208 15.1042L1.85208 15.1042C3.31354 18.4974 6.3 20.8333 9.74844 20.8333C13.1969 20.8333 16.1833 18.4974 17.6448 15.1042L19.0417 15.1042C19.212 14.7672 19.3625 14.4193 19.4964 14.0625L18.0323 14.0625C18.3943 12.926 18.6021 11.7005 18.6021 10.4167L18.6021 10.4167ZM17.5604 10.4167C17.5604 11.7088 17.3412 12.9411 16.9453 14.0625L13.6594 14.0625C13.8276 12.8823 13.9146 11.6406 13.9146 10.4167C13.9146 9.1927 13.8281 7.95104 13.6594 6.77083L16.9453 6.77083C17.3412 7.89218 17.5604 9.12447 17.5604 10.4167L17.5604 10.4167ZM9.74791 19.7917C8.73958 19.7917 7.65364 17.9974 7.06458 15.1042L12.4312 15.1042C11.8422 17.9974 10.7562 19.7917 9.74791 19.7917L9.74791 19.7917ZM6.88334 14.0625C6.71928 12.962 6.62292 11.7391 6.62292 10.4167C6.62292 9.09427 6.71928 7.87135 6.88334 6.77083L12.6125 6.77083C12.7766 7.87135 12.8729 9.09427 12.8729 10.4167C12.8729 11.7391 12.7766 12.962 12.6125 14.0625L6.88334 14.0625L6.88334 14.0625ZM9.74791 1.04167C10.7562 1.04167 11.8422 2.83594 12.4312 5.72917L7.06458 5.72917C7.65364 2.83594 8.73958 1.04167 9.74791 1.04167L9.74791 1.04167ZM16.5031 5.72917L13.4865 5.72917C13.1537 3.9948 12.6307 2.46251 11.9271 1.42032C13.874 2.10053 15.5052 3.66563 16.5031 5.72917L16.5031 5.72917ZM7.56875 1.42032C6.86562 2.46303 6.34219 3.9948 6.00937 5.72917L2.99271 5.72917C3.99062 3.66563 5.62187 2.10053 7.56875 1.42032L7.56875 1.42032ZM1.93542 10.4167C1.93542 9.12447 2.1547 7.89218 2.55053 6.77083L5.83647 6.77083C5.66772 7.95104 5.58126 9.1927 5.58126 10.4167C5.58126 11.6406 5.66772 12.8823 5.83647 14.0625L2.55053 14.0625C2.1547 12.9411 1.93542 11.7088 1.93542 10.4167L1.93542 10.4167ZM2.99271 15.1042L6.00937 15.1042C6.34219 16.8385 6.8651 18.3708 7.56875 19.413C5.62187 18.7328 3.99062 17.1677 2.99271 15.1042L2.99271 15.1042ZM11.9271 19.413C12.6302 18.3703 13.1537 16.8385 13.4865 15.1042L16.5031 15.1042C15.5052 17.1677 13.874 18.7328 11.9271 19.413L11.9271 19.413Z" transform="translate(2.7520752 2.0833282)" id="Shape" fill="url(#gradient_3)" fill-rule="evenodd" stroke="none" />
      <path d="M5.34583 4.32528L1.23385 0.213303C1.02187 0.00184476 0.707812 -0.059093 0.436978 0.0606994C0.171354 0.174762 0 0.435178 0 0.724241L0 6.60862C0 7.28778 0.725521 7.56643 1.19219 7.16643L2.01667 6.47945L2.6349 7.90132C2.75365 8.17216 3.15937 8.43309 3.58594 8.27476L4.28646 7.97007C4.65469 7.81382 4.85312 7.43101 4.66198 7.01903L4.06198 5.63778L4.89635 5.56278C5.56094 5.56278 5.80729 4.78257 5.34583 4.32528L5.34583 4.32528Z" transform="translate(13.0208435 11.457031)" id="Shape" fill="#000000" fill-opacity="0.05" fill-rule="evenodd" stroke="none" />
      <path d="M4.90104 4.24795L0.789062 0.13597C0.65052 -0.0020504 0.450521 -0.0359048 0.279166 0.0385741C0.1125 0.11097 0 0.273991 0 0.462532L0 6.34691C0 6.77399 0.464583 6.96097 0.765104 6.70472L1.85625 5.79482L2.6125 7.53545C2.69375 7.72191 2.95625 7.87555 3.22083 7.77451L3.92187 7.46982C4.15729 7.3693 4.27969 7.11878 4.16198 6.86149L3.41771 5.14951L4.61198 5.04274C5.03229 5.03441 5.19375 4.53857 4.90104 4.24795L4.90104 4.24795Z" transform="translate(13.28125 11.718201)" id="Shape" fill="#000000" fill-opacity="0.07" fill-rule="evenodd" stroke="none" />
      <path d="M4.45625 4.17137L0.34427 0.0593881C0.279687 -0.00519554 0.192187 -0.0135283 0.121354 0.0172009C0.0531246 0.046888 0 0.113555 0 0.202096L0 6.08595C0 6.26043 0.203646 6.35574 0.338021 6.24428L1.69635 5.11147L2.59115 7.17033C2.63542 7.27241 2.75469 7.31928 2.85677 7.27501L3.55833 6.96981C3.66042 6.92554 3.70729 6.80626 3.66302 6.70418L2.775 4.66095L4.32917 4.52189C4.50312 4.50626 4.58021 4.2948 4.45625 4.17137L4.45625 4.17137Z" transform="translate(13.5416565 11.9791565)" id="Shape" fill="#FFFFFF" fill-rule="evenodd" stroke="none" />
    </g>
  </g>
</svg>