<?xml version="1.0" encoding="utf-8"?>
<svg width="48px" height="48px" viewBox="0 0 48 48" version="1.1" xmlns:xlink="http://www.w3.org/1999/xlink" xmlns="http://www.w3.org/2000/svg">
  <defs>
    <radialGradient gradientUnits="objectBoundingBox" cx="15.155003%" cy="13.595%" fx="15.155003%" fy="13.595%" r="977.3128%" gradientTransform="translate(0.15155002,0.13595),rotate(-126.42252),scale(1,1.2934787),translate(-0.15155002,-0.13595)" id="gradient_1">
      <stop offset="0%" stop-color="#6FCEFC" />
      <stop offset="100%" stop-color="#167CF7" />
    </radialGradient>
    <radialGradient gradientUnits="objectBoundingBox" cx="14.45783%" cy="10.125%" fx="14.45783%" fy="10.125%" r="1179.3744%" gradientTransform="translate(0.14457831,0.10125),scale(1,0.935825),rotate(-134.30197),scale(1,1.2708657),translate(-0.14457831,-0.10125)" id="gradient_2">
      <stop offset="0.1%" stop-color="#54C0F5" />
      <stop offset="99.8%" stop-color="#0B69DB" />
    </radialGradient>
    <path d="M0 0L48 0L48 48L0 48L0 0Z" id="path_1" />
    <clipPath id="clip_1">
      <use xlink:href="#path_1" />
    </clipPath>
  </defs>
  <g id="Internet" clip-path="url(#clip_1)">
    <path d="M0 0L48 0L48 48L0 48L0 0Z" id="Internet" fill="none" fill-rule="evenodd" stroke="none" />
    <path d="M44 24C44 35.045 35.045 44 24 44C12.955 44 4 35.045 4 24C4 12.955 12.955 4 24 4C35.045 4 44 12.955 44 24L44 24Z" id="Shape" fill="url(#gradient_1)" stroke="none" />
    <path d="M41 24C41 21.535 40.601 19.182 39.904 17L42.715 17C42.459 16.315 42.169 15.647 41.842 15L39.16 15C36.355 8.485 30.621 4 24 4C17.379 4 11.645 8.485 8.839 15L6.157 15C5.83 15.647 5.541 16.315 5.284 17L8.095 17C7.399 19.182 7 21.535 7 24C7 26.465 7.399 28.818 8.096 31L5.285 31C5.541 31.685 5.831 32.353 6.158 33L8.84 33C11.646 39.515 17.38 44 24.001 44C30.622 44 36.356 39.515 39.162 33L41.844 33C42.171 32.353 42.46 31.685 42.717 31L39.906 31C40.601 28.818 41 26.465 41 24L41 24ZM39 24C39 26.481 38.579 28.847 37.819 31L31.51 31C31.833 28.734 32 26.35 32 24C32 21.65 31.834 19.266 31.51 17L37.819 17C38.579 19.153 39 21.519 39 24L39 24ZM24 42C22.064 42 19.979 38.555 18.848 33L29.152 33C28.021 38.555 25.936 42 24 42L24 42ZM18.5 31C18.185 28.887 18 26.539 18 24C18 21.461 18.185 19.113 18.5 17L29.5 17C29.815 19.113 30 21.461 30 24C30 26.539 29.815 28.887 29.5 31L18.5 31L18.5 31ZM24 6C25.936 6 28.021 9.445 29.152 15L18.848 15C19.979 9.445 22.064 6 24 6L24 6ZM36.97 15L31.178 15C30.539 11.67 29.535 8.728 28.184 6.727C31.922 8.033 35.054 11.038 36.97 15L36.97 15ZM19.816 6.727C18.466 8.729 17.461 11.67 16.822 15L11.03 15C12.946 11.038 16.078 8.033 19.816 6.727L19.816 6.727ZM9 24C9 21.519 9.421 19.153 10.181 17L16.49 17C16.166 19.266 16 21.65 16 24C16 26.35 16.166 28.734 16.49 31L10.181 31C9.421 28.847 9 26.481 9 24L9 24ZM11.03 33L16.822 33C17.461 36.33 18.465 39.272 19.816 41.273C16.078 39.967 12.946 36.962 11.03 33L11.03 33ZM28.184 41.273C29.534 39.271 30.539 36.33 31.178 33L36.97 33C35.054 36.962 31.922 39.967 28.184 41.273L28.184 41.273Z" id="Shape" fill="url(#gradient_2)" fill-rule="evenodd" stroke="none" />
    <path d="M35.264 30.302L27.369 22.407C26.962 22.001 26.359 21.884 25.839 22.114C25.329 22.333 25 22.833 25 23.388L25 34.686C25 35.99 26.393 36.525 27.289 35.757L28.872 34.438L30.059 37.168C30.287 37.688 31.066 38.189 31.885 37.885L33.23 37.3C33.937 37 34.318 36.265 33.951 35.474L32.799 32.822L34.401 32.678C35.677 32.678 36.15 31.18 35.264 30.302L35.264 30.302Z" id="Shape" fill="#000000" fill-opacity="0.05" stroke="none" />
    <path d="M34.91 30.655L27.015 22.76C26.749 22.495 26.365 22.43 26.036 22.573C25.716 22.712 25.5 23.025 25.5 23.387L25.5 34.685C25.5 35.505 26.392 35.864 26.969 35.372L29.064 33.625L30.516 36.967C30.672 37.325 31.176 37.62 31.684 37.426L33.03 36.841C33.482 36.648 33.717 36.167 33.491 35.673L32.062 32.386L34.355 32.181C35.162 32.165 35.472 31.213 34.91 30.655L34.91 30.655Z" id="Shape" fill="#000000" fill-opacity="0.07" stroke="none" />
    <path d="M34.556 31.009L26.661 23.114C26.537 22.99 26.369 22.974 26.233 23.033C26.102 23.09 26 23.218 26 23.388L26 34.685C26 35.02 26.391 35.203 26.649 34.989L29.257 32.814L30.975 36.767C31.06 36.963 31.289 37.053 31.485 36.968L32.832 36.382C33.028 36.297 33.118 36.068 33.033 35.872L31.328 31.949L34.312 31.682C34.646 31.652 34.794 31.246 34.556 31.009L34.556 31.009Z" id="Shape" fill="#FFFFFF" stroke="none" />
  </g>
</svg>