<?xml version="1.0" encoding="utf-8"?>
<svg width="48px" height="48px" viewBox="0 0 48 48" version="1.1" xmlns:xlink="http://www.w3.org/1999/xlink" xmlns="http://www.w3.org/2000/svg">
  <defs>
    <linearGradient gradientUnits="userSpaceOnUse" x1="11.002001" y1="2.494" x2="29.584" y2="38.647" id="gradient_1">
      <stop offset="0%" stop-color="#5961C3" />
      <stop offset="100%" stop-color="#3A41AC" />
    </linearGradient>
    <radialGradient gradientUnits="objectBoundingBox" cx="49.999992%" cy="50.000008%" fx="49.999992%" fy="50.000008%" r="50.000008%" gradientTransform="translate(0.49999994,0.50000006),translate(-0.49999994,-0.50000006)" id="gradient_2">
      <stop offset="0%" stop-color="#000000" />
      <stop offset="100%" stop-color="#000000" stop-opacity="0" />
    </radialGradient>
    <radialGradient gradientUnits="objectBoundingBox" cx="49.49935%" cy="99.45333%" fx="49.49935%" fy="99.45333%" r="99.94001%" gradientTransform="translate(0.4949935,0.9945333),scale(0.54026794,1),translate(-0.4949935,-0.9945333)" id="gradient_3">
      <stop offset="17.7%" stop-color="#000000" />
      <stop offset="100%" stop-color="#000000" stop-opacity="0" />
    </radialGradient>
    <linearGradient gradientUnits="userSpaceOnUse" x1="5.129999" y1="0.9239998" x2="10.832001" y2="14.98" id="gradient_4">
      <stop offset="0%" stop-color="#A6ACFC" />
      <stop offset="28.7%" stop-color="#A0A7FA" />
      <stop offset="65.100006%" stop-color="#9198F4" />
      <stop offset="100%" stop-color="#7B83EB" />
    </linearGradient>
    <linearGradient gradientUnits="userSpaceOnUse" x1="10.784" y1="0.13599777" x2="14.365" y2="13.993" id="gradient_5">
      <stop offset="0%" stop-color="#A6ACFC" />
      <stop offset="28.7%" stop-color="#A0A7FA" />
      <stop offset="65.100006%" stop-color="#9198F4" />
      <stop offset="100%" stop-color="#7B83EB" />
    </linearGradient>
    <path d="M0 0L48 0L48 48L0 48L0 0Z" id="path_1" />
    <clipPath id="clip_1">
      <use xlink:href="#path_1" />
    </clipPath>
  </defs>
  <g id="Test Account" clip-path="url(#clip_1)">
    <path d="M0 0L48 0L48 48L0 48L0 0Z" id="Test-Account" fill="none" fill-rule="evenodd" stroke="none" />
    <path d="M44 24C44 35.045 35.045 44 24 44C12.955 44 4 35.045 4 24C4 12.955 12.955 4 24 4C35.045 4 44 12.955 44 24L44 24Z" id="Shape" fill="url(#gradient_1)" stroke="none" />
    <path d="M14.5 20C14.5 14.7533 18.7533 10.5 24 10.5C29.2467 10.5 33.5 14.7533 33.5 20C33.5 25.2467 29.2467 29.5 24 29.5C18.7533 29.5 14.5 25.2467 14.5 20Z" id="Circle" fill="url(#gradient_2)" fill-rule="evenodd" stroke="none" />
    <path d="M24 44C29.396 44 34.284 41.852 37.882 38.378C35.601 32.755 30.078 29 24 29C17.922 29 12.399 32.755 10.118 38.378C13.716 41.852 18.604 44 24 44L24 44Z" id="Shape" fill="url(#gradient_3)" stroke="none" />
    <path d="M16 19C16 14.5817 19.5817 11 24 11C28.4183 11 32 14.5817 32 19C32 23.4183 28.4183 27 24 27C19.5817 27 16 23.4183 16 19Z" id="Circle" fill="url(#gradient_4)" fill-rule="evenodd" stroke="none" />
    <path d="M24 44C29.015 44 33.587 42.141 37.098 39.091C35.107 33.784 30.002 30 24 30C17.998 30 12.893 33.784 10.902 39.091C14.413 42.141 18.985 44 24 44L24 44Z" id="Shape" fill="url(#gradient_5)" stroke="none" />
  </g>
</svg>