<?xml version="1.0" encoding="utf-8"?>
<svg width="48px" height="48px" viewBox="0 0 48 48" version="1.1" xmlns:xlink="http://www.w3.org/1999/xlink" xmlns="http://www.w3.org/2000/svg">
  <defs>
    <linearGradient gradientUnits="userSpaceOnUse" x1="0.5290003" y1="10.472" x2="5.6" y2="5.3999996" id="gradient_1">
      <stop offset="0%" stop-color="#3079D6" />
      <stop offset="100%" stop-color="#297CD2" />
    </linearGradient>
    <linearGradient gradientUnits="userSpaceOnUse" x1="4.230375" y1="-0.9098749" x2="15.456998" y2="20.93256" id="gradient_2">
      <stop offset="0%" stop-color="#5961C3" />
      <stop offset="100%" stop-color="#3A41AC" />
    </linearGradient>
    <radialGradient gradientUnits="objectBoundingBox" cx="49.999992%" cy="50.000008%" fx="49.999992%" fy="50.000008%" r="50.000008%" gradientTransform="translate(0.4999999,0.50000006),translate(-0.4999999,-0.50000006)" id="gradient_3">
      <stop offset="0%" stop-color="#000000" />
      <stop offset="100%" stop-color="#000000" stop-opacity="0" />
    </radialGradient>
    <radialGradient gradientUnits="objectBoundingBox" cx="49.49935%" cy="99.45333%" fx="49.49935%" fy="99.45333%" r="184.98233%" gradientTransform="translate(0.4949935,0.9945333),scale(0.5402679,1),scale(1,0.54026794),translate(-0.4949935,-0.9945333)" id="gradient_4">
      <stop offset="17.7%" stop-color="#000000" />
      <stop offset="100%" stop-color="#000000" stop-opacity="0" />
    </radialGradient>
    <linearGradient gradientUnits="userSpaceOnUse" x1="-6.5672903" y1="-6.0875835" x2="-3.122332" y2="2.4045832" id="gradient_5">
      <stop offset="0%" stop-color="#A6ACFC" />
      <stop offset="28.7%" stop-color="#A0A7FA" />
      <stop offset="65.100006%" stop-color="#9198F4" />
      <stop offset="100%" stop-color="#7B83EB" />
    </linearGradient>
    <linearGradient gradientUnits="userSpaceOnUse" x1="-0.07129162" y1="-18.042833" x2="2.0922287" y2="-9.670896" id="gradient_6">
      <stop offset="0%" stop-color="#A6ACFC" />
      <stop offset="28.7%" stop-color="#A0A7FA" />
      <stop offset="65.100006%" stop-color="#9198F4" />
      <stop offset="100%" stop-color="#7B83EB" />
    </linearGradient>
    <path d="M0 0L48 0L48 48L0 48L0 0Z" id="path_1" />
    <clipPath id="mask_1">
      <use xlink:href="#path_1" />
    </clipPath>
  </defs>
  <g id="File-Icon-2">
    <path d="M0 0L48 0L48 48L0 48L0 0Z" id="Background" fill="#FFFFFF" fill-opacity="0" fill-rule="evenodd" stroke="none" />
    <g clip-path="url(#mask_1)">
      <path d="M39 16L39 41C39 42.105 38.105 43 37 43L11 43C9.895 43 9 42.105 9 41L9 7C9 5.895 9.895 5 11 5L28 5L39 16L39 16Z" id="Shape" fill="#50E6FF" fill-rule="evenodd" stroke="none" />
      <path d="M28 5L28 14C28 15.105 28.895 16 30 16L39 16L28 5L28 5Z" id="Shape" fill="url(#gradient_1)" fill-rule="evenodd" stroke="none" />
    </g>
  </g>
  <g id="svg" transform="translate(9.5 14)">
    <g id="Test-Account-Icon">
      <path d="M0 0L29 0L29 29L0 29L0 0L0 0Z" id="Background" fill="#FFFFFF" fill-opacity="0" fill-rule="evenodd" stroke="none" />
      <path d="M26.5833 14.5C26.5833 21.173 21.173 26.5833 14.5 26.5833C7.82698 26.5833 2.41667 21.173 2.41667 14.5C2.41667 7.82698 7.82698 2.41667 14.5 2.41667C21.173 2.41667 26.5833 7.82698 26.5833 14.5L26.5833 14.5L26.5833 14.5Z" id="Shape" fill="url(#gradient_2)" stroke="none" />
      <path d="M8.76042 12.0833C8.76042 8.91345 11.3301 6.34375 14.5 6.34375C17.6699 6.34375 20.2396 8.91345 20.2396 12.0833C20.2396 15.2532 17.6699 17.8229 14.5 17.8229C11.3301 17.8229 8.76042 15.2532 8.76042 12.0833L8.76042 12.0833Z" id="Circle" fill="url(#gradient_3)" fill-rule="evenodd" stroke="none" />
      <path d="M14.5 26.5833C17.7601 26.5833 20.7132 25.2856 22.887 23.1867C21.5089 19.7895 18.1721 17.5208 14.5 17.5208C10.8279 17.5208 7.49106 19.7895 6.11295 23.1867C8.28675 25.2856 11.2399 26.5833 14.5 26.5833L14.5 26.5833L14.5 26.5833Z" id="Shape#1" fill="url(#gradient_4)" stroke="none" />
      <path d="M9.66667 11.4792C9.66667 8.80978 11.8306 6.64583 14.5 6.64583C17.1694 6.64583 19.3333 8.80978 19.3333 11.4792C19.3333 14.1486 17.1694 16.3125 14.5 16.3125C11.8306 16.3125 9.66667 14.1486 9.66667 11.4792L9.66667 11.4792Z" id="Circle#1" fill="url(#gradient_5)" fill-rule="evenodd" stroke="none" />
      <path d="M14.5 26.5833C17.5299 26.5833 20.2922 25.4602 22.4134 23.6175C21.2105 20.4112 18.1262 18.125 14.5 18.125C10.8738 18.125 7.78954 20.4112 6.58664 23.6175C8.70787 25.4602 11.4701 26.5833 14.5 26.5833L14.5 26.5833L14.5 26.5833Z" id="Shape#2" fill="url(#gradient_6)" stroke="none" />
    </g>
  </g>
</svg>