<?xml version="1.0" encoding="utf-8"?>
<svg width="48px" height="48px" viewBox="0 0 48 48" version="1.1" xmlns:xlink="http://www.w3.org/1999/xlink" xmlns="http://www.w3.org/2000/svg">
  <defs>
    <linearGradient gradientUnits="userSpaceOnUse" x1="0.5290003" y1="10.472" x2="5.6" y2="5.3999996" id="gradient_1">
      <stop offset="0%" stop-color="#3079D6" />
      <stop offset="100%" stop-color="#297CD2" />
    </linearGradient>
    <linearGradient gradientUnits="userSpaceOnUse" x1="-14.592911" y1="-2.513" x2="-14.592911" y2="21.291082" id="gradient_2">
      <stop offset="0%" stop-color="#C391F7" />
      <stop offset="100%" stop-color="#B579F4" />
    </linearGradient>
    <linearGradient gradientUnits="userSpaceOnUse" x1="-1.9844999" y1="17.242748" x2="17.453335" y2="-2.1950872" id="gradient_3">
      <stop offset="1.9%" stop-color="#742FB6" />
      <stop offset="32%" stop-color="#702DB5" />
      <stop offset="36.399998%" stop-color="#5D2596" />
      <stop offset="38%" stop-color="#5D2596" />
      <stop offset="48%" stop-color="#5D2596" />
      <stop offset="48.5%" stop-color="#60279A" />
      <stop offset="51.7%" stop-color="#6F2DAB" />
      <stop offset="55.6%" stop-color="#7932B6" />
      <stop offset="61%" stop-color="#7E34BD" />
      <stop offset="76.200005%" stop-color="#8035BF" />
      <stop offset="80.6%" stop-color="#7D34BB" />
      <stop offset="85.1%" stop-color="#7530AE" />
      <stop offset="89.700005%" stop-color="#66299A" />
      <stop offset="94.3%" stop-color="#52207D" />
      <stop offset="96.3%" stop-color="#481B6E" />
    </linearGradient>
    <linearGradient gradientUnits="userSpaceOnUse" x1="-2.0970833" y1="0.82425004" x2="16.266836" y2="3.5653331" id="gradient_4">
      <stop offset="0.2%" stop-color="#9C55D4" />
      <stop offset="0.3%" stop-color="#9C55D4" />
      <stop offset="33.7%" stop-color="#9751D2" />
      <stop offset="73.69999%" stop-color="#8847CB" />
      <stop offset="84.799995%" stop-color="#8343C8" />
      <stop offset="89%" stop-color="#8042C3" />
      <stop offset="93.8%" stop-color="#773DB6" />
      <stop offset="98.79999%" stop-color="#68369F" />
      <stop offset="100%" stop-color="#643499" />
    </linearGradient>
    <linearGradient gradientUnits="userSpaceOnUse" x1="-0.8749998" y1="3.1324737" x2="-0.8749998" y2="-8.159695" id="gradient_5">
      <stop offset="0%" stop-color="#5C1D9C" />
      <stop offset="100%" stop-color="#561B90" />
    </linearGradient>
    <linearGradient gradientUnits="userSpaceOnUse" x1="-2.0052083" y1="7.218553" x2="13.234375" y2="7.218553" id="gradient_6">
      <stop offset="0.2%" stop-color="#427FDB" />
      <stop offset="39.699997%" stop-color="#2668CB" />
      <stop offset="76.3%" stop-color="#1358BF" />
      <stop offset="100%" stop-color="#0C52BB" />
    </linearGradient>
    <linearGradient gradientUnits="userSpaceOnUse" x1="-2.0052083" y1="5.0942497" x2="13.02864" y2="5.0942497" id="gradient_7">
      <stop offset="0%" stop-color="#32BDEF" />
      <stop offset="100%" stop-color="#1EA2E4" />
    </linearGradient>
    <linearGradient gradientUnits="userSpaceOnUse" x1="-9.461783" y1="-1.0258667" x2="-1.6787686" y2="-1.0258667" id="gradient_8">
      <stop offset="0%" stop-color="#2AA4F4" />
      <stop offset="100%" stop-color="#007AD9" />
    </linearGradient>
    <path d="M0 0L48 0L48 48L0 48L0 0Z" id="path_1" />
    <path d="M0 0L28 0L28 28L0 28L0 0L0 0Z" id="path_2" />
    <path d="M0 0L19.25 0L19.25 19.25L0 19.25L0 0L0 0Z" id="path_3" />
    <clipPath id="mask_1">
      <use xlink:href="#path_1" />
    </clipPath>
    <clipPath id="mask_2">
      <use xlink:href="#path_2" />
    </clipPath>
    <clipPath id="mask_3">
      <use xlink:href="#path_3" />
    </clipPath>
  </defs>
  <g id="File-Icon-2">
    <path d="M0 0L48 0L48 48L0 48L0 0Z" id="Background" fill="#FFFFFF" fill-opacity="0" fill-rule="evenodd" stroke="none" />
    <g clip-path="url(#mask_1)">
      <path d="M39 16L39 41C39 42.105 38.105 43 37 43L11 43C9.895 43 9 42.105 9 41L9 7C9 5.895 9.895 5 11 5L28 5L39 16L39 16Z" id="Shape" fill="#50E6FF" fill-rule="evenodd" stroke="none" />
      <path d="M28 5L28 14C28 15.105 28.895 16 30 16L39 16L28 5L28 5Z" id="Shape" fill="url(#gradient_1)" fill-rule="evenodd" stroke="none" />
    </g>
  </g>
  <g id="svg" transform="translate(10 15)">
    <g id="Visual-Studio-Icon">
      <path d="M0 0L28 0L28 28L0 28L0 0L0 0Z" id="Background" fill="#FFFFFF" fill-opacity="0" fill-rule="evenodd" stroke="none" />
      <g id="Mask-Group">
        <path d="M0 0L28 0L28 28L0 28L0 0L0 0Z" id="path_1" fill="none" stroke="none" />
        <g clip-path="url(#mask_2)">
          <g id="Group" transform="translate(2.3333333 2.3298352)">
            <path d="M23.3333 3.95908L23.3333 19.3608C23.3333 20.0299 22.9524 20.6401 22.351 20.9335C20.9813 21.6008 18.6223 22.7494 18.2385 22.9244C17.6925 23.1741 17.3495 23.3368 16.9207 23.3368C16.492 23.3368 16.2085 23.0574 16.0113 22.8492C15.8142 22.6403 17.5 16.9202 17.5 16.9202L17.5 1.30433C17.5 1.30433 15.6438 0.915833 15.995 0.524417C16.3467 0.133 16.6407 0 17.0077 0C17.4306 0 17.7724 0.188417 18.1574 0.373917C18.4304 0.505167 20.9177 1.69867 22.3422 2.38233C22.9495 2.67342 23.3333 3.28592 23.3333 3.95908L23.3333 3.95908L23.3333 3.95908Z" id="Shape" fill="url(#gradient_2)" fill-rule="evenodd" stroke="none" />
            <path d="M0 16.3368C0 17.4615 0.15225 17.6283 1.24483 18.1032C2.09417 18.4724 2.4325 18.6702 2.65942 18.6702C2.933 18.6702 3.19025 18.4817 3.4335 18.2828C3.67675 18.0839 17.5 6.72642 17.5 6.72642L17.5 0.905332C17.5 0.206499 16.5235 -0.0723342 16.0609 0.451499C16.0609 0.451499 1.5995 16.5112 1.16667 16.9272C0.733833 17.3431 1.03075 15.8229 0 16.3368L0 16.3368L0 16.3368Z" id="Shape#1" fill="url(#gradient_3)" fill-rule="evenodd" stroke="none" />
            <path d="M0.361667 5.65075C0.546583 5.56208 2.07317 4.87958 2.261 4.79733C2.4815 4.70108 2.56083 4.67016 2.72358 4.67016C2.90325 4.67016 3.02575 4.73841 3.3075 4.97C3.70125 5.29316 17.5 16.6186 17.5 16.6186L17.5 22.3113C17.5 23.2884 16.4827 23.3887 15.9087 22.7436C15.5015 22.2862 1.39358 6.67333 1.39358 6.67333C1.39358 6.67333 0 7.37741 0 6.76258C0 5.93366 0.161 5.74758 0.361667 5.65075L0.361667 5.65075L0.361667 5.65075Z" id="Shape#2" fill="url(#gradient_4)" fill-rule="evenodd" stroke="none" />
            <path d="M2.91667 8.35858L2.91667 15.0156C2.91667 15.0156 1.32417 16.765 0.968333 17.15C0.652167 17.4924 0 17.3851 0 16.4232L0 6.66983C0 5.94008 0.65975 5.866 1.22383 6.48141C1.32592 6.59283 2.91667 8.35858 2.91667 8.35858L2.91667 8.35858L2.91667 8.35858Z" id="Shape#3" fill="url(#gradient_5)" fill-rule="evenodd" stroke="none" />
          </g>
        </g>
      </g>
    </g>
    <g id="C++-Icon" transform="translate(8.75 8.75)">
      <path d="M0 0L19.25 0L19.25 19.25L0 19.25L0 0L0 0Z" id="Background#1" fill="#FFFFFF" fill-opacity="0" fill-rule="evenodd" stroke="none" />
      <g id="Mask-Group">
        <path d="M0 0L19.25 0L19.25 19.25L0 19.25L0 0L0 0Z" id="path_2" fill="none" stroke="none" />
        <g clip-path="url(#mask_3)">
          <g id="Group" transform="translate(2.0052083 1.2030182)">
            <path d="M7.17984 0.114803C7.45214 -0.0379949 7.78744 -0.0379949 8.05933 0.114803C9.40485 0.869963 13.4538 3.14307 14.7996 3.89823C15.0719 4.05063 15.2396 4.33296 15.2396 4.63854C15.2396 6.14885 15.2396 10.6947 15.2396 12.205C15.2396 12.5106 15.0719 12.793 14.7996 12.9457C13.4542 13.7009 9.4052 15.974 8.05933 16.7292C7.78703 16.8819 7.45173 16.8819 7.17984 16.7292C5.83438 15.974 1.78544 13.7009 0.439542 12.9457C0.167638 12.793 0 12.511 0 12.2054C0 10.6951 0 6.14926 0 4.63895C0 4.33336 0.167638 4.05103 0.439944 3.89823C1.78504 3.14307 5.83473 0.869963 7.17984 0.114803L7.17984 0.114803L7.17984 0.114803Z" id="Shape#4" fill="url(#gradient_6)" fill-rule="evenodd" stroke="none" />
            <path d="M0.121916 12.5944C0.0152362 12.4516 0 12.3161 0 12.1336C0 10.6321 0 6.11239 0 4.61049C0 4.30649 0.167236 4.02577 0.438737 3.87417C1.77942 3.12342 5.81472 0.863556 7.1554 0.112404C7.42688 -0.0395904 7.79468 -0.0363816 8.06616 0.115611C9.40683 0.866362 13.4285 3.10698 14.7692 3.85773C14.8774 3.91869 14.96 3.99208 15.0338 4.08873L0.121916 12.5944L0.121916 12.5944L0.121916 12.5944Z" id="Shape#5" fill="url(#gradient_7)" fill-rule="evenodd" stroke="none" />
            <path d="M7.61979 2.8074C10.7186 2.8074 13.2344 5.32314 13.2344 8.42198C13.2344 11.5208 10.7186 14.0366 7.61979 14.0366C4.52095 14.0366 2.00521 11.5208 2.00521 8.42198C2.00521 5.32314 4.52095 2.8074 7.61979 2.8074L7.61979 2.8074L7.61979 2.8074ZM7.61979 5.61469C9.16901 5.61469 10.4271 6.87236 10.4271 8.42198C10.4271 9.9712 9.16901 11.2293 7.61979 11.2293C6.07058 11.2293 4.8125 9.9712 4.8125 8.42198C4.8125 6.87236 6.07017 5.61469 7.61979 5.61469L7.61979 5.61469L7.61979 5.61469Z" id="Shape#6" fill="#FFFFFF" fill-rule="evenodd" stroke="none" />
            <path d="M15.033 4.09273C15.24 4.28643 15.236 4.57839 15.236 4.80817C15.236 6.33014 15.2231 10.659 15.2396 12.1809C15.2412 12.3398 15.1887 12.507 15.11 12.6329L7.45658 8.42198L15.033 4.09273L15.033 4.09273L15.033 4.09273Z" id="Shape#7" fill="url(#gradient_8)" fill-rule="evenodd" stroke="none" />
            <g id="Group" transform="translate(9.223959 6.817815)" opacity="0.05">
              <path d="M2.00521 0.401042L2.00521 1.20312L2.80729 1.20312L2.80729 2.00521L2.00521 2.00521L2.00521 2.80729L1.20312 2.80729L1.20312 2.00521L0.401042 2.00521L0.401042 1.20312L1.20312 1.20312L1.20312 0.401042L2.00521 0.401042M2.40625 0L2.00521 0L1.20312 0L0.802083 0L0.802083 0.401042L0.802083 0.802083L0.401042 0.802083L0 0.802083L0 1.20312L0 2.00521L0 2.40625L0.401042 2.40625L0.802083 2.40625L0.802083 2.80729L0.802083 3.20833L1.20312 3.20833L2.00521 3.20833L2.40625 3.20833L2.40625 2.80729L2.40625 2.40625L2.80729 2.40625L3.20833 2.40625L3.20833 2.00521L3.20833 1.20312L3.20833 0.802083L2.80729 0.802083L2.40625 0.802083L2.40625 0.401042L2.40625 0L2.40625 0L2.40625 0L2.40625 0Z" id="Shape#8" fill="#000000" fill-rule="evenodd" stroke="none" />
              <path d="M4.8125 0.401042L4.8125 1.20312L5.61458 1.20312L5.61458 2.00521L4.8125 2.00521L4.8125 2.80729L4.01042 2.80729L4.01042 2.00521L3.20833 2.00521L3.20833 1.20312L4.01042 1.20312L4.01042 0.401042L4.8125 0.401042M5.21354 0L4.8125 0L4.01042 0L3.60938 0L3.60938 0.401042L3.60938 0.802083L3.20833 0.802083L2.80729 0.802083L2.80729 1.20312L2.80729 2.00521L2.80729 2.40625L3.20833 2.40625L3.60938 2.40625L3.60938 2.80729L3.60938 3.20833L4.01042 3.20833L4.8125 3.20833L5.21354 3.20833L5.21354 2.80729L5.21354 2.40625L5.61458 2.40625L6.01562 2.40625L6.01562 2.00521L6.01562 1.20312L6.01562 0.802083L5.61458 0.802083L5.21354 0.802083L5.21354 0.401042L5.21354 0L5.21354 0L5.21354 0L5.21354 0Z" id="Shape#9" fill="#000000" fill-rule="evenodd" stroke="none" />
            </g>
            <g id="Group#1" transform="translate(9.4244795 7.018336)" opacity="0.07">
              <path d="M1.80469 0.200521L1.80469 1.0026L2.60677 1.0026L2.60677 1.80469L1.80469 1.80469L1.80469 2.60677L1.0026 2.60677L1.0026 1.80469L0.200521 1.80469L0.200521 1.0026L1.0026 1.0026L1.0026 0.200521L1.80469 0.200521M2.00521 0L1.80469 0L1.0026 0L0.802083 0L0.802083 0.200521L0.802083 0.802083L0.200521 0.802083L0 0.802083L0 1.0026L0 1.80469L0 2.00521L0.200521 2.00521L0.802083 2.00521L0.802083 2.60677L0.802083 2.80729L1.0026 2.80729L1.80469 2.80729L2.00521 2.80729L2.00521 2.60677L2.00521 2.00521L2.60677 2.00521L2.80729 2.00521L2.80729 1.80469L2.80729 1.0026L2.80729 0.802083L2.60677 0.802083L2.00521 0.802083L2.00521 0.200521L2.00521 0L2.00521 0L2.00521 0L2.00521 0Z" id="Shape#10" fill="#000000" fill-rule="evenodd" stroke="none" />
              <path d="M4.61198 0.200521L4.61198 1.0026L5.41406 1.0026L5.41406 1.80469L4.61198 1.80469L4.61198 2.60677L3.8099 2.60677L3.8099 1.80469L3.00781 1.80469L3.00781 1.0026L3.8099 1.0026L3.8099 0.200521L4.61198 0.200521M4.8125 0L4.61198 0L3.8099 0L3.60937 0L3.60937 0.200521L3.60937 0.802083L3.00781 0.802083L2.80729 0.802083L2.80729 1.0026L2.80729 1.80469L2.80729 2.00521L3.00781 2.00521L3.60937 2.00521L3.60937 2.60677L3.60937 2.80729L3.8099 2.80729L4.61198 2.80729L4.8125 2.80729L4.8125 2.60677L4.8125 2.00521L5.41406 2.00521L5.61458 2.00521L5.61458 1.80469L5.61458 1.0026L5.61458 0.802083L5.41406 0.802083L4.8125 0.802083L4.8125 0.200521L4.8125 0L4.8125 0L4.8125 0L4.8125 0Z" id="Shape#11" fill="#000000" fill-rule="evenodd" stroke="none" />
            </g>
            <path d="M11.2292 7.21886L10.4271 7.21886L10.4271 8.02094L9.625 8.02094L9.625 8.82302L10.4271 8.82302L10.4271 9.62511L11.2292 9.62511L11.2292 8.82302L12.0313 8.82302L12.0313 8.02094L11.2292 8.02094L11.2292 7.21886L11.2292 7.21886Z" id="Polygon" fill="#FFFFFF" fill-rule="evenodd" stroke="none" />
            <path d="M14.8385 8.02094L14.0365 8.02094L14.0365 7.21886L13.2344 7.21886L13.2344 8.02094L12.4323 8.02094L12.4323 8.82302L13.2344 8.82302L13.2344 9.62511L14.0365 9.62511L14.0365 8.82302L14.8385 8.82302L14.8385 8.02094L14.8385 8.02094Z" id="Polygon#1" fill="#FFFFFF" fill-rule="evenodd" stroke="none" />
            <g id="Group#2" transform="translate(1.6041667 2.4063568)">
              <path d="M6.01562 0.401042C8.07217 0.401042 9.86644 1.51233 10.8446 3.16301L8.40904 4.55463C7.91537 3.74853 7.02905 3.20833 6.01562 3.20833C4.466 3.20833 3.20833 4.466 3.20833 6.01562C3.20833 7.56484 4.4664 8.82292 6.01562 8.82292C7.04632 8.82292 7.94541 8.26467 8.43349 7.43569L10.8927 8.78885C9.92577 10.484 8.10507 11.6302 6.01562 11.6302C2.91678 11.6302 0.401042 9.11447 0.401042 6.01562C0.401042 2.91678 2.91678 0.401042 6.01562 0.401042M6.01562 0C2.69861 0 0 2.69861 0 6.01562C0 9.33263 2.69861 12.0312 6.01562 12.0312C8.16801 12.0312 10.1704 10.8651 11.2412 8.98736L11.4429 8.63362L11.086 8.4371L8.6268 7.084L8.28549 6.89628L8.0878 7.23199C7.6559 7.96588 6.86181 8.42188 6.01562 8.42188C4.68898 8.42188 3.60938 7.3423 3.60938 6.01562C3.60938 4.68898 4.68898 3.60937 6.01562 3.60937C6.85743 3.60937 7.62422 4.0409 8.06698 4.76397L8.27027 5.09604L8.60796 4.90313L11.0435 3.51152L11.3972 3.3094L11.1894 2.95888C10.1082 1.13374 8.12589 0 6.01562 0L6.01562 0L6.01562 0L6.01562 0Z" id="Shape#12" fill="#000000" fill-opacity="0.050980393" fill-rule="evenodd" stroke="none" />
              <path d="M6.01563 0.401042C8.07217 0.401042 9.86644 1.51233 10.8446 3.16301L8.40904 4.55463C7.91537 3.74853 7.02905 3.20833 6.01563 3.20833C4.466 3.20833 3.20833 4.466 3.20833 6.01562C3.20833 7.56484 4.4664 8.82292 6.01563 8.82292C7.04632 8.82292 7.94541 8.26467 8.43348 7.43569L10.8927 8.78885C9.92577 10.484 8.10507 11.6302 6.01563 11.6302C2.91678 11.6302 0.401042 9.11447 0.401042 6.01562C0.401042 2.91678 2.91678 0.401042 6.01563 0.401042M6.01563 0.200521C2.8093 0.200521 0.200521 2.8093 0.200521 6.01563C0.200521 9.22198 2.8093 11.8307 6.01563 11.8307C8.0962 11.8307 10.0316 10.703 11.0668 8.88831L11.1678 8.71144L10.9894 8.61315L8.53014 7.26005L8.35969 7.16619L8.26105 7.33384C7.79263 8.12869 6.93239 8.62237 6.01563 8.62237C4.57829 8.62237 3.40885 7.45296 3.40885 6.01563C3.40885 4.57829 4.57829 3.40885 6.01563 3.40885C6.92802 3.40885 7.75857 3.87647 8.23818 4.6593L8.33968 4.82533L8.5085 4.72868L10.944 3.33707L11.1209 3.23601L11.017 3.06075C9.9715 1.29657 8.05531 0.200521 6.01563 0.200521L6.01563 0.200521L6.01563 0.200521L6.01563 0.200521Z" id="Shape#13" fill="#000000" fill-opacity="0.07058824" fill-rule="evenodd" stroke="none" />
            </g>
          </g>
        </g>
      </g>
    </g>
  </g>
</svg>