<?xml version="1.0" encoding="utf-8"?>
<svg width="48px" height="48px" viewBox="0 0 48 48" version="1.1" xmlns:xlink="http://www.w3.org/1999/xlink" xmlns="http://www.w3.org/2000/svg">
  <defs>
    <linearGradient gradientUnits="userSpaceOnUse" x1="0.5290003" y1="10.472" x2="5.6" y2="5.3999996" id="gradient_1">
      <stop offset="0%" stop-color="#3079D6" />
      <stop offset="100%" stop-color="#297CD2" />
    </linearGradient>
    <path d="M0 0L48 0L48 48L0 48L0 0Z" id="path_1" />
    <clipPath id="mask_1">
      <use xlink:href="#path_1" />
    </clipPath>
  </defs>
  <g id="File-Icon-2">
    <path d="M0 0L48 0L48 48L0 48L0 0Z" id="Background" fill="#FFFFFF" fill-opacity="0" fill-rule="evenodd" stroke="none" />
    <g clip-path="url(#mask_1)">
      <path d="M39 16L39 41C39 42.105 38.105 43 37 43L11 43C9.895 43 9 42.105 9 41L9 7C9 5.895 9.895 5 11 5L28 5L39 16L39 16Z" id="Shape" fill="#50E6FF" fill-rule="evenodd" stroke="none" />
      <path d="M28 5L28 14C28 15.105 28.895 16 30 16L39 16L28 5L28 5Z" id="Shape" fill="url(#gradient_1)" fill-rule="evenodd" stroke="none" />
    </g>
  </g>
  <g id="svg" transform="translate(11 16)">
    <g id="Audio-Wave-Icon">
      <path d="M0 0L26 0L26 26L0 26L0 0L0 0Z" id="Background" fill="#FFFFFF" fill-opacity="0" fill-rule="evenodd" stroke="none" />
      <path d="M13 15.1667L12.4583 15.1667C12.1593 15.1667 11.9167 14.924 11.9167 14.625L11.9167 11.375C11.9167 11.076 12.1593 10.8333 12.4583 10.8333L13 10.8333C13.299 10.8333 13.5417 11.076 13.5417 11.375L13.5417 14.625C13.5417 14.924 13.299 15.1667 13 15.1667L13 15.1667L13 15.1667Z" id="Shape" fill="#0078D4" stroke="none" />
      <path d="M10.2917 18.9583L9.75 18.9583C9.45099 18.9583 9.20833 18.7157 9.20833 18.4167L9.20833 7.58334C9.20833 7.28434 9.45099 7.04167 9.75 7.04167L10.2917 7.04167C10.5907 7.04167 10.8333 7.28434 10.8333 7.58334L10.8333 18.4167C10.8333 18.7157 10.5907 18.9583 10.2917 18.9583L10.2917 18.9583L10.2917 18.9583Z" id="Shape#1" fill="#0078D4" stroke="none" />
      <path d="M7.58333 24.375L7.04167 24.375C6.74267 24.375 6.5 24.1323 6.5 23.8333L6.5 2.16667C6.5 1.86767 6.74267 1.625 7.04167 1.625L7.58333 1.625C7.88233 1.625 8.125 1.86767 8.125 2.16667L8.125 23.8333C8.125 24.1323 7.88233 24.375 7.58333 24.375L7.58333 24.375L7.58333 24.375Z" id="Shape#2" fill="#0078D4" stroke="none" />
      <path d="M4.87501 20.5833L4.33334 20.5833C4.03434 20.5833 3.79167 20.3407 3.79167 20.0417L3.79167 5.95834C3.79167 5.65934 4.03434 5.41667 4.33334 5.41667L4.87501 5.41667C5.17401 5.41667 5.41667 5.65934 5.41667 5.95834L5.41667 20.0417C5.41667 20.3407 5.17401 20.5833 4.87501 20.5833L4.87501 20.5833L4.87501 20.5833Z" id="Shape#3" fill="#0078D4" stroke="none" />
      <path d="M2.16666 16.7917L1.62499 16.7917C1.32599 16.7917 1.08333 16.549 1.08333 16.25L1.08333 9.75C1.08333 9.45099 1.32599 9.20833 1.62499 9.20833L2.16666 9.20833C2.46566 9.20833 2.70833 9.45099 2.70833 9.75L2.70833 16.25C2.70833 16.549 2.46566 16.7917 2.16666 16.7917L2.16666 16.7917L2.16666 16.7917Z" id="Shape#4" fill="#0078D4" stroke="none" />
      <path d="M23.8333 15.8438L23.2917 15.8438C22.9927 15.8438 22.75 15.6011 22.75 15.3021L22.75 10.6979C22.75 10.3989 22.9927 10.1562 23.2917 10.1562L23.8333 10.1562C24.1323 10.1562 24.375 10.3989 24.375 10.6979L24.375 15.3021C24.375 15.6011 24.1323 15.8438 23.8333 15.8438L23.8333 15.8438L23.8333 15.8438Z" id="Shape#5" fill="#0078D4" stroke="none" />
      <path d="M21.125 19.0938L20.5833 19.0938C20.2843 19.0938 20.0417 18.8511 20.0417 18.5521L20.0417 7.44792C20.0417 7.14892 20.2843 6.90625 20.5833 6.90625L21.125 6.90625C21.424 6.90625 21.6667 7.14892 21.6667 7.44792L21.6667 18.5521C21.6667 18.8511 21.424 19.0938 21.125 19.0938L21.125 19.0938L21.125 19.0938Z" id="Shape#6" fill="#0078D4" stroke="none" />
      <path d="M18.4167 24.375L17.875 24.375C17.576 24.375 17.3333 24.1323 17.3333 23.8333L17.3333 2.16667C17.3333 1.86767 17.576 1.625 17.875 1.625L18.4167 1.625C18.7157 1.625 18.9583 1.86767 18.9583 2.16667L18.9583 23.8333C18.9583 24.1323 18.7157 24.375 18.4167 24.375L18.4167 24.375L18.4167 24.375Z" id="Shape#7" fill="#0078D4" stroke="none" />
      <path d="M15.7083 20.5833L15.1667 20.5833C14.8677 20.5833 14.625 20.3407 14.625 20.0417L14.625 5.95834C14.625 5.65934 14.8677 5.41667 15.1667 5.41667L15.7083 5.41667C16.0073 5.41667 16.25 5.65934 16.25 5.95834L16.25 20.0417C16.25 20.3407 16.0073 20.5833 15.7083 20.5833L15.7083 20.5833L15.7083 20.5833Z" id="Shape#8" fill="#0078D4" stroke="none" />
    </g>
  </g>
</svg>