<?xml version="1.0" encoding="utf-8"?>
<svg width="48px" height="48px" viewBox="0 0 48 48" version="1.1" xmlns:xlink="http://www.w3.org/1999/xlink" xmlns="http://www.w3.org/2000/svg">
  <defs>
    <radialGradient gradientUnits="objectBoundingBox" cx="15.830001%" cy="12.9525%" fx="15.830001%" fy="12.9525%" r="499.93854%" gradientTransform="translate(0.15830001,0.129525),rotate(-126.860504),scale(1,1.2809426),translate(-0.15830001,-0.129525)" id="gradient_1">
      <stop offset="0%" stop-color="#6FCEFC" />
      <stop offset="100%" stop-color="#167CF7" />
    </radialGradient>
    <radialGradient gradientUnits="objectBoundingBox" cx="14.31374%" cy="11.2%" fx="14.31374%" fy="11.2%" r="673.9505%" gradientTransform="translate(0.1431374,0.111999996),scale(1,0.8921499),rotate(-138.2974),scale(1,1.2462789),translate(-0.1431374,-0.111999996)" id="gradient_2">
      <stop offset="0.1%" stop-color="#54C0F5" />
      <stop offset="99.8%" stop-color="#0B69DB" />
    </radialGradient>
    <path d="M48 0L48 0L48 48L0 48L0 0L48 0Z" id="path_1" />
    <clipPath id="clip_1">
      <use xlink:href="#path_1" clip-rule="evenodd" fill-rule="evenodd" />
    </clipPath>
  </defs>
  <g id="Website" clip-path="url(#clip_1)">
    <path d="M48 0L48 0L48 48L0 48L0 0L48 0Z" id="Website" fill="none" stroke="none" />
    <path d="M4 24C4 12.955 12.955 4 24 4C35.045 4 44 12.955 44 24C44 35.045 35.045 44 24 44C12.955 44 4 35.045 4 24L4 24Z" id="Shape" fill="url(#gradient_1)" stroke="none" />
    <path d="M41 24C41 20.761 40.327 17.709 39.161 15L41.843 15C41.495 14.311 41.118 13.64 40.695 13L38.183 13C35.138 7.584 29.921 4 24 4C18.079 4 12.862 7.584 9.817 13L7.305 13C6.882 13.64 6.505 14.311 6.157 15L8.839 15C7.673 17.709 7 20.761 7 24C7 27.239 7.673 30.291 8.839 33L6.157 33C6.505 33.689 6.882 34.36 7.305 35L9.817 35C12.862 40.416 18.079 44 24 44C29.921 44 35.138 40.416 38.183 35L40.695 35C41.118 34.36 41.495 33.689 41.843 33L39.161 33C40.327 30.291 41 27.239 41 24L41 24ZM39 24C39 27.28 38.253 30.349 36.971 33L31.178 33C31.721 30.167 32 27.053 32 24C32 20.947 31.721 17.833 31.178 15L36.971 15C38.253 17.651 39 20.72 39 24L39 24ZM24 42C22.31 42 20.509 39.363 19.326 35L28.675 35C27.491 39.363 25.69 42 24 42L24 42ZM18.848 33C18.321 30.413 18 27.371 18 24C18 20.629 18.321 17.587 18.848 15L29.152 15C29.679 17.587 30 20.629 30 24C30 27.371 29.679 30.413 29.152 33L18.848 33L18.848 33ZM24 6C25.69 6 27.491 8.637 28.674 13L19.325 13C20.509 8.637 22.31 6 24 6L24 6ZM35.847 13L30.736 13C30.11 10.501 29.257 8.316 28.184 6.727C31.263 7.803 33.929 10.032 35.847 13L35.847 13ZM19.816 6.727C18.743 8.317 17.89 10.501 17.264 13L12.153 13C14.071 10.032 16.737 7.803 19.816 6.727L19.816 6.727ZM9 24C9 20.72 9.747 17.651 11.029 15L16.822 15C16.279 17.833 16 20.947 16 24C16 27.053 16.279 30.167 16.822 33L11.029 33C9.747 30.349 9 27.28 9 24L9 24ZM12.153 35L17.264 35C17.89 37.499 18.743 39.684 19.816 41.273C16.737 40.197 14.071 37.968 12.153 35L12.153 35ZM28.184 41.273C29.257 39.683 30.11 37.499 30.736 35L35.847 35C33.929 37.968 31.263 40.197 28.184 41.273L28.184 41.273Z" id="Shape" fill="url(#gradient_2)" fill-rule="evenodd" stroke="none" />
    <path d="M42.334 19L39.694 19C39.344 19 39.042 19.245 38.97 19.587L38.499 21.829L37.918 19.556C37.835 19.229 37.54 19 37.202 19L34.798 19C34.46 19 34.165 19.229 34.081 19.557L33.5 21.83L33.029 19.588C32.958 19.245 32.656 19 32.306 19L27.694 19C27.344 19 27.042 19.245 26.97 19.587L26.499 21.829L25.918 19.556C25.835 19.229 25.54 19 25.202 19L22.798 19C22.46 19 22.165 19.229 22.081 19.557L21.5 21.83L21.029 19.588C20.958 19.245 20.656 19 20.306 19L15.694 19C15.344 19 15.042 19.245 14.97 19.587L14.499 21.829L13.918 19.556C13.835 19.229 13.54 19 13.202 19L10.798 19C10.46 19 10.165 19.229 10.081 19.557L9.501 21.83L9.03 19.587C8.958 19.245 8.656 19 8.306 19L5.666 19C5.185 19 4.832 19.452 4.949 19.919L7.079 28.44C7.161 28.769 7.457 29 7.796 29L10.65 29C10.985 29 11.277 28.779 11.363 28.456C11.555 27.741 11.881 26.523 11.999 26.076C12.117 26.523 12.443 27.741 12.635 28.456C12.723 28.779 13.015 29 13.35 29L16.204 29C16.543 29 16.839 28.769 16.921 28.44L18 24.125L19.079 28.44C19.161 28.769 19.457 29 19.796 29L22.65 29C22.985 29 23.277 28.779 23.363 28.456C23.555 27.741 23.881 26.523 23.999 26.076C24.117 26.523 24.443 27.741 24.635 28.456C24.723 28.779 25.015 29 25.35 29L28.204 29C28.543 29 28.839 28.769 28.921 28.44L30 24.125L31.079 28.44C31.161 28.769 31.457 29 31.796 29L34.65 29C34.985 29 35.277 28.779 35.363 28.456C35.555 27.741 35.881 26.523 35.999 26.076C36.117 26.523 36.443 27.741 36.635 28.456C36.723 28.779 37.015 29 37.35 29L40.204 29C40.543 29 40.839 28.769 40.921 28.44L43.051 19.919C43.168 19.452 42.815 19 42.334 19L42.334 19Z" id="Shape" fill="#000000" fill-opacity="0.05" stroke="none" />
    <path d="M41.953 19.5L39.936 19.5C39.682 19.5 39.462 19.678 39.41 19.927L38.547 24.036L37.492 19.904C37.431 19.666 37.217 19.5 36.971 19.5L35.029 19.5C34.784 19.5 34.569 19.666 34.508 19.904L33.453 24.036L32.589 19.927C32.537 19.678 32.317 19.5 32.063 19.5L27.934 19.5C27.68 19.5 27.46 19.678 27.408 19.927L26.545 24.036L25.49 19.904C25.429 19.666 25.215 19.5 24.969 19.5L23.027 19.5C22.782 19.5 22.567 19.666 22.506 19.904L21.451 24.036L20.587 19.927C20.535 19.678 20.315 19.5 20.061 19.5L15.932 19.5C15.678 19.5 15.458 19.678 15.406 19.927L14.543 24.036L13.488 19.904C13.427 19.666 13.213 19.5 12.967 19.5L11.025 19.5C10.78 19.5 10.565 19.666 10.504 19.904L9.449 24.036L8.59 19.927C8.538 19.678 8.319 19.5 8.065 19.5L6.047 19.5C5.698 19.5 5.441 19.828 5.526 20.168L7.507 28.093C7.567 28.332 7.782 28.5 8.028 28.5L10.421 28.5C10.664 28.5 10.876 28.339 10.939 28.104C11.181 27.2 11.924 24.421 11.998 24.038C12.073 24.421 12.815 27.201 13.057 28.104C13.12 28.339 13.332 28.5 13.575 28.5L15.968 28.5C16.215 28.5 16.429 28.332 16.489 28.093L18 22.063L19.508 28.093C19.568 28.332 19.783 28.5 20.029 28.5L22.422 28.5C22.665 28.5 22.877 28.339 22.94 28.104C23.182 27.2 23.925 24.421 23.999 24.038C24.074 24.421 24.816 27.201 25.058 28.104C25.121 28.339 25.333 28.5 25.576 28.5L27.969 28.5C28.216 28.5 28.43 28.332 28.49 28.093L30 22.063L31.508 28.093C31.568 28.332 31.783 28.5 32.029 28.5L34.422 28.5C34.665 28.5 34.877 28.339 34.94 28.104C35.182 27.2 35.925 24.421 35.999 24.038C36.074 24.421 36.816 27.201 37.058 28.104C37.121 28.339 37.333 28.5 37.576 28.5L39.969 28.5C40.216 28.5 40.43 28.332 40.49 28.093L42.471 20.168C42.559 19.828 42.302 19.5 41.953 19.5L41.953 19.5Z" id="Shape" fill="#000000" fill-opacity="0.07" stroke="none" />
    <path d="M27.905 20L26.593 26.243L25 20L23 20L21.407 26.243L20.095 20L18 20L20 28L22.451 28C22.451 28 23.964 22.364 24 22C24.036 22.364 25.549 28 25.549 28L28 28L30 20L27.905 20L27.905 20Z" id="Shape" fill="#FFFFFF" stroke="none" />
    <path d="M15.905 20L14.593 26.243L13 20L11 20L9.407 26.243L8.095 20L6 20L8 28L10.451 28C10.451 28 11.964 22.364 12 22C12.036 22.364 13.549 28 13.549 28L16 28L18 20L15.905 20L15.905 20Z" id="Shape" fill="#FFFFFF" stroke="none" />
    <path d="M39.905 20L38.593 26.243L37 20L35 20L33.407 26.243L32.095 20L30 20L32 28L34.451 28C34.451 28 35.964 22.364 36 22C36.036 22.364 37.549 28 37.549 28L40 28L42 20L39.905 20L39.905 20Z" id="Shape" fill="#FFFFFF" stroke="none" />
  </g>
</svg>