<?xml version="1.0" encoding="utf-8"?>
<svg width="48px" height="48px" viewBox="0 0 48 48" version="1.1" xmlns:xlink="http://www.w3.org/1999/xlink" xmlns="http://www.w3.org/2000/svg">
  <defs>
    <radialGradient gradientUnits="objectBoundingBox" cx="117.99168%" cy="84.65278%" fx="117.99168%" fy="84.65278%" r="63.727768%" gradientTransform="translate(1.1799167,0.84652776),translate(-1.1799167,-0.84652776)" id="gradient_1">
      <stop offset="0%" stop-color="#FFCF7B" />
      <stop offset="19.5%" stop-color="#FECD76" />
      <stop offset="43.9%" stop-color="#FAC666" />
      <stop offset="71%" stop-color="#F3BC4D" />
      <stop offset="99.69999%" stop-color="#EAAD29" />
      <stop offset="100%" stop-color="#EAAD29" />
    </radialGradient>
    <linearGradient gradientUnits="userSpaceOnUse" x1="17.91" y1="-0.05347294" x2="17.91" y2="24.228529" id="gradient_2">
      <stop offset="0%" stop-color="#C26715" />
      <stop offset="50.800003%" stop-color="#B85515" />
      <stop offset="100%" stop-color="#AD3F16" />
    </linearGradient>
    <radialGradient gradientUnits="objectBoundingBox" cx="15.830001%" cy="12.9525%" fx="15.830001%" fy="12.9525%" r="980.03015%" gradientTransform="translate(0.15830001,0.129525),scale(1,0.9999999),rotate(-126.57428),scale(1,1.2864804),translate(-0.15830001,-0.129525)" id="gradient_3">
      <stop offset="0%" stop-color="#6FCEFC" />
      <stop offset="100%" stop-color="#167CF7" />
    </radialGradient>
    <radialGradient gradientUnits="objectBoundingBox" cx="14.31374%" cy="11.2%" fx="14.31374%" fy="11.2%" r="1328.8625%" gradientTransform="translate(0.1431374,0.111999996),scale(1,0.89215),rotate(-138.29094),scale(1,1.2498165),translate(-0.1431374,-0.111999996)" id="gradient_4">
      <stop offset="0.1%" stop-color="#54C0F5" />
      <stop offset="99.8%" stop-color="#0B69DB" />
    </radialGradient>
    <path d="M0 0L48 0L48 48L0 48L0 0Z" id="path_1" />
    <path d="M0 0L20 0L20 20L0 20L0 0Z" id="path_2" />
    <clipPath id="clip_1">
      <use xlink:href="#path_1" />
    </clipPath>
    <clipPath id="clip_2">
      <use xlink:href="#path_2" />
    </clipPath>
  </defs>
  <g id="Picture" clip-path="url(#clip_1)">
    <path d="M0 0L48 0L48 48L0 48L0 0Z" id="Picture" fill="none" fill-rule="evenodd" stroke="none" />
    <path d="M40 6L8 6C6.895 6 6 6.895 6 8L6 40C6 41.105 6.895 42 8 42L40 42C41.105 42 42 41.105 42 40L42 8C42 6.895 41.105 6 40 6L40 6Z" id="Shape" fill="url(#gradient_1)" stroke="none" />
    <path d="M32.065 23.065C30.916 21.916 29.06 21.891 27.88 23.008L18 32.368L18 42L40 42C41.105 42 42 41.105 42 40L42 33L32.065 23.065L32.065 23.065Z" id="Shape" fill="#D6742D" stroke="none" />
    <path d="M27 14.5C27 12.567 28.567 11 30.5 11C32.433 11 34 12.567 34 14.5C34 16.433 32.433 18 30.5 18C28.567 18 27 16.433 27 14.5Z" id="Circle" fill="#FFF8DE" fill-rule="evenodd" stroke="none" />
    <path d="M8 42L40 42C40.811 42 41.507 41.515 41.82 40.82L20.065 19.065C18.916 17.916 17.06 17.891 15.88 19.008L6 28.368L6 40C6 41.105 6.895 42 8 42L8 42Z" id="Shape" fill="url(#gradient_2)" stroke="none" />
    <g id="Website" clip-path="url(#clip_2)" transform="translate(8 22)">
      <path d="M0 0L20 0L20 20L0 20L0 0Z" id="Website" fill="none" fill-rule="evenodd" stroke="none" />
      <path d="M1.66667 10C1.66667 5.39792 5.39792 1.66667 10 1.66667C14.6021 1.66667 18.3333 5.39792 18.3333 10C18.3333 14.6021 14.6021 18.3333 10 18.3333C5.39792 18.3333 1.66667 14.6021 1.66667 10L1.66667 10Z" id="Shape" fill="url(#gradient_3)" stroke="none" />
      <path d="M17.0836 10.0002C17.0836 8.65055 16.8032 7.37886 16.3173 6.25009L17.4348 6.25009C17.2898 5.963 17.1327 5.68341 16.9565 5.41674L15.9099 5.41674C14.6411 3.16003 12.4673 1.66667 10.0001 1.66667C7.53297 1.66667 5.35918 3.16003 4.09041 5.41674L3.04372 5.41674C2.86747 5.68341 2.71038 5.963 2.56538 6.25009L3.6829 6.25009C3.19706 7.37886 2.91664 8.65055 2.91664 10.0002C2.91664 11.3498 3.19706 12.6215 3.6829 13.7503L2.56538 13.7503C2.71038 14.0373 2.86747 14.3169 3.04372 14.5836L4.09041 14.5836C5.35918 16.8404 7.53297 18.3336 10.0001 18.3336C12.4673 18.3336 14.6411 16.8404 15.9099 14.5836L16.9565 14.5836C17.1327 14.3169 17.2898 14.0373 17.4348 13.7503L16.3173 13.7503C16.8032 12.6215 17.0836 11.3498 17.0836 10.0002L17.0836 10.0002ZM16.2501 10.0001C16.2501 11.3668 15.9388 12.6456 15.4046 13.7501L12.9908 13.7501C13.2171 12.5698 13.3333 11.2722 13.3333 10.0001C13.3333 8.72796 13.2171 7.43045 12.9908 6.25L15.4046 6.25C15.9388 7.3546 16.2501 8.63338 16.2501 10.0001L16.2501 10.0001ZM9.99998 17.5C9.29581 17.5 8.54538 16.4013 8.05245 14.5833L11.9479 14.5833C11.4546 16.4013 10.7042 17.5 9.99998 17.5L9.99998 17.5ZM7.85332 13.7501C7.63374 12.6723 7.49999 11.4047 7.49999 10.0001C7.49999 8.59545 7.63374 7.32794 7.85332 6.25L12.1467 6.25C12.3663 7.32794 12.5001 8.59545 12.5001 10.0001C12.5001 11.4047 12.3663 12.6723 12.1467 13.7501L7.85332 13.7501L7.85332 13.7501ZM10 2.5C10.7042 2.5 11.4546 3.59877 11.9476 5.41671L8.05209 5.41671C8.54544 3.59877 9.29586 2.5 10 2.5L10 2.5ZM14.9363 5.41675L12.8066 5.41675C12.5458 4.3755 12.1904 3.46506 11.7433 2.80297C13.0262 3.25131 14.1371 4.18007 14.9363 5.41675L14.9363 5.41675ZM8.25669 2.80297C7.80963 3.46548 7.45419 4.3755 7.19335 5.41675L5.06372 5.41675C5.86291 4.18007 6.97377 3.25131 8.25669 2.80297L8.25669 2.80297ZM3.74999 10.0001C3.74999 8.63338 4.06124 7.3546 4.59542 6.25L7.0092 6.25C6.78298 7.43045 6.6667 8.72796 6.6667 10.0001C6.6667 11.2722 6.78298 12.5698 7.0092 13.7501L4.59542 13.7501C4.06124 12.6456 3.74999 11.3668 3.74999 10.0001L3.74999 10.0001ZM5.06372 14.5833L7.19335 14.5833C7.45419 15.6246 7.80963 16.535 8.25669 17.1971C6.97377 16.7488 5.86291 15.82 5.06372 14.5833L5.06372 14.5833ZM11.7433 17.1971C12.1904 16.5346 12.5458 15.6246 12.8066 14.5833L14.9363 14.5833C14.1371 15.82 13.0262 16.7488 11.7433 17.1971L11.7433 17.1971Z" id="Shape" fill="url(#gradient_4)" fill-rule="evenodd" stroke="none" />
      <path d="M17.6391 7.91667L16.5392 7.91667C16.3933 7.91667 16.2675 8.01875 16.2375 8.16125L16.0412 9.09542L15.7992 8.14833C15.7646 8.01208 15.6417 7.91667 15.5008 7.91667L14.4992 7.91667C14.3583 7.91667 14.2354 8.01208 14.2004 8.14875L13.9583 9.09583L13.7621 8.16167C13.7325 8.01875 13.6066 7.91667 13.4608 7.91667L11.5392 7.91667C11.3933 7.91667 11.2675 8.01875 11.2375 8.16125L11.0412 9.09542L10.7992 8.14833C10.7646 8.01208 10.6417 7.91667 10.5008 7.91667L9.49915 7.91667C9.35832 7.91667 9.2354 8.01208 9.2004 8.14875L8.95832 9.09583L8.76207 8.16167C8.73248 8.01875 8.60665 7.91667 8.46082 7.91667L6.53915 7.91667C6.39332 7.91667 6.26748 8.01875 6.23748 8.16125L6.04123 9.09542L5.79915 8.14833C5.76457 8.01208 5.64165 7.91667 5.50082 7.91667L4.49915 7.91667C4.35832 7.91667 4.2354 8.01208 4.2004 8.14875L3.95873 9.09583L3.76248 8.16125C3.73248 8.01875 3.60665 7.91667 3.46082 7.91667L2.36082 7.91667C2.1604 7.91667 2.01332 8.105 2.06207 8.29958L2.94957 11.85C2.98373 11.9871 3.10707 12.0833 3.24832 12.0833L4.43748 12.0833C4.57707 12.0833 4.69873 11.9912 4.73457 11.8567C4.81457 11.5587 4.9504 11.0512 4.99957 10.865C5.04873 11.0512 5.18457 11.5587 5.26457 11.8567C5.30123 11.9912 5.4229 12.0833 5.56248 12.0833L6.75165 12.0833C6.8929 12.0833 7.01623 11.9871 7.0504 11.85L7.49998 10.0521L7.94957 11.85C7.98373 11.9871 8.10707 12.0833 8.24832 12.0833L9.43748 12.0833C9.57707 12.0833 9.69873 11.9912 9.73457 11.8567C9.81457 11.5587 9.9504 11.0512 9.99957 10.865C10.0487 11.0512 10.1846 11.5587 10.2646 11.8567C10.3012 11.9912 10.4229 12.0833 10.5625 12.0833L11.7517 12.0833C11.8929 12.0833 12.0162 11.9871 12.0504 11.85L12.5 10.0521L12.9496 11.85C12.9837 11.9871 13.1071 12.0833 13.2483 12.0833L14.4375 12.0833C14.5771 12.0833 14.6987 11.9912 14.7346 11.8567C14.8146 11.5587 14.9504 11.0512 14.9996 10.865C15.0487 11.0512 15.1846 11.5587 15.2646 11.8567C15.3012 11.9912 15.4229 12.0833 15.5625 12.0833L16.7516 12.0833C16.8929 12.0833 17.0162 11.9871 17.0504 11.85L17.9379 8.29958C17.9867 8.105 17.8396 7.91667 17.6391 7.91667L17.6391 7.91667Z" id="Shape" fill="#000000" fill-opacity="0.05" stroke="none" />
      <path d="M17.4804 8.125L16.64 8.125C16.5342 8.125 16.4425 8.19917 16.4208 8.30292L16.0613 10.015L15.6217 8.29333C15.5963 8.19417 15.5071 8.125 15.4046 8.125L14.5954 8.125C14.4933 8.125 14.4038 8.19417 14.3783 8.29333L13.9388 10.015L13.5788 8.30292C13.5571 8.19917 13.4654 8.125 13.3596 8.125L11.6392 8.125C11.5333 8.125 11.4417 8.19917 11.42 8.30292L11.0604 10.015L10.6208 8.29333C10.5954 8.19417 10.5063 8.125 10.4038 8.125L9.59459 8.125C9.49251 8.125 9.40293 8.19417 9.37751 8.29333L8.93793 10.015L8.57793 8.30292C8.55626 8.19917 8.46459 8.125 8.35876 8.125L6.63834 8.125C6.53251 8.125 6.44084 8.19917 6.41918 8.30292L6.05959 10.015L5.62001 8.29333C5.59459 8.19417 5.50543 8.125 5.40293 8.125L4.59376 8.125C4.49168 8.125 4.40209 8.19417 4.37668 8.29333L3.93709 10.015L3.57918 8.30292C3.55751 8.19917 3.46626 8.125 3.36043 8.125L2.51959 8.125C2.37418 8.125 2.26709 8.26167 2.30251 8.40333L3.12793 11.7054C3.15293 11.805 3.24251 11.875 3.34501 11.875L4.34209 11.875C4.44334 11.875 4.53168 11.8079 4.55793 11.71C4.65876 11.3333 4.96834 10.1754 4.99918 10.0158C5.03043 10.1754 5.33959 11.3337 5.44043 11.71C5.46668 11.8079 5.55501 11.875 5.65626 11.875L6.65334 11.875C6.75626 11.875 6.84543 11.805 6.87043 11.7054L7.50001 9.19292L8.12834 11.7054C8.15334 11.805 8.24293 11.875 8.34543 11.875L9.34251 11.875C9.44376 11.875 9.53209 11.8079 9.55834 11.71C9.65918 11.3333 9.96876 10.1754 9.99959 10.0158C10.0308 10.1754 10.34 11.3338 10.4408 11.71C10.4671 11.8079 10.5554 11.875 10.6567 11.875L11.6538 11.875C11.7567 11.875 11.8458 11.805 11.8708 11.7054L12.5 9.19292L13.1283 11.7054C13.1533 11.805 13.2429 11.875 13.3454 11.875L14.3425 11.875C14.4438 11.875 14.5321 11.8079 14.5583 11.71C14.6592 11.3333 14.9688 10.1754 14.9996 10.0158C15.0308 10.1754 15.34 11.3338 15.4408 11.71C15.4671 11.8079 15.5554 11.875 15.6567 11.875L16.6538 11.875C16.7567 11.875 16.8458 11.805 16.8708 11.7054L17.6963 8.40333C17.7329 8.26167 17.6258 8.125 17.4804 8.125L17.4804 8.125Z" id="Shape" fill="#000000" fill-opacity="0.07" stroke="none" />
      <path d="M11.6271 8.33333L11.0804 10.9346L10.4167 8.33333L9.58333 8.33333L8.91958 10.9346L8.37292 8.33333L7.5 8.33333L8.33333 11.6667L9.35458 11.6667C9.35458 11.6667 9.985 9.31833 10 9.16667C10.015 9.31833 10.6454 11.6667 10.6454 11.6667L11.6667 11.6667L12.5 8.33333L11.6271 8.33333L11.6271 8.33333Z" id="Shape" fill="#FFFFFF" stroke="none" />
      <path d="M6.62708 8.33333L6.08042 10.9346L5.41667 8.33333L4.58333 8.33333L3.91958 10.9346L3.37292 8.33333L2.5 8.33333L3.33333 11.6667L4.35458 11.6667C4.35458 11.6667 4.985 9.31833 5 9.16667C5.015 9.31833 5.64542 11.6667 5.64542 11.6667L6.66667 11.6667L7.5 8.33333L6.62708 8.33333L6.62708 8.33333Z" id="Shape" fill="#FFFFFF" stroke="none" />
      <path d="M16.6271 8.33333L16.0804 10.9346L15.4167 8.33333L14.5833 8.33333L13.9196 10.9346L13.3729 8.33333L12.5 8.33333L13.3333 11.6667L14.3546 11.6667C14.3546 11.6667 14.985 9.31833 15 9.16667C15.015 9.31833 15.6454 11.6667 15.6454 11.6667L16.6667 11.6667L17.5 8.33333L16.6271 8.33333L16.6271 8.33333Z" id="Shape" fill="#FFFFFF" stroke="none" />
    </g>
  </g>
</svg>