<?xml version="1.0" encoding="utf-8"?>
<svg width="48px" height="48px" viewBox="0 0 48 48" version="1.1" xmlns:xlink="http://www.w3.org/1999/xlink" xmlns="http://www.w3.org/2000/svg">
  <defs>
    <linearGradient gradientUnits="userSpaceOnUse" x1="0.5290003" y1="10.472" x2="5.6" y2="5.3999996" id="gradient_1">
      <stop offset="0%" stop-color="#3079D6" />
      <stop offset="100%" stop-color="#297CD2" />
    </linearGradient>
    <radialGradient gradientUnits="objectBoundingBox" cx="117.99168%" cy="84.65278%" fx="117.99168%" fy="84.65278%" r="63.727776%" gradientTransform="translate(1.1799167,0.84652776),translate(-1.1799167,-0.84652776)" id="gradient_2">
      <stop offset="0%" stop-color="#FFCF7B" />
      <stop offset="19.5%" stop-color="#FECD76" />
      <stop offset="43.9%" stop-color="#FAC666" />
      <stop offset="71%" stop-color="#F3BC4D" />
      <stop offset="99.69999%" stop-color="#EAAD29" />
      <stop offset="100%" stop-color="#EAAD29" />
    </radialGradient>
    <linearGradient gradientUnits="userSpaceOnUse" x1="11.566873" y1="-0.034534603" x2="11.566873" y2="15.647589" id="gradient_3">
      <stop offset="0%" stop-color="#C26715" />
      <stop offset="50.800003%" stop-color="#B85515" />
      <stop offset="100%" stop-color="#AD3F16" />
    </linearGradient>
    <radialGradient gradientUnits="objectBoundingBox" cx="15.830001%" cy="12.9525%" fx="15.830001%" fy="12.9525%" r="980.0301%" gradientTransform="translate(0.15830001,0.129525),rotate(-126.57439),scale(1,1.2864804),translate(-0.15830001,-0.129525)" id="gradient_4">
      <stop offset="0%" stop-color="#6FCEFC" />
      <stop offset="100%" stop-color="#167CF7" />
    </radialGradient>
    <radialGradient gradientUnits="objectBoundingBox" cx="14.31374%" cy="11.2%" fx="14.31374%" fy="11.2%" r="1328.8624%" gradientTransform="translate(0.1431374,0.111999996),scale(1,0.89214987),rotate(-138.29106),scale(1,1.2498165),translate(-0.1431374,-0.111999996)" id="gradient_5">
      <stop offset="0.1%" stop-color="#54C0F5" />
      <stop offset="99.8%" stop-color="#0B69DB" />
    </radialGradient>
    <path d="M0 0L48 0L48 48L0 48L0 0Z" id="path_1" />
    <path d="M0 0L31 0L31 31L0 31L0 0Z" id="path_2" />
    <path d="M0 0L16.7917 0L16.7917 16.7917L0 16.7917L0 0Z" id="path_3" />
    <clipPath id="mask_1">
      <use xlink:href="#path_1" />
    </clipPath>
    <clipPath id="mask_2">
      <use xlink:href="#path_2" />
    </clipPath>
    <clipPath id="mask_3">
      <use xlink:href="#path_3" />
    </clipPath>
  </defs>
  <g id="File-Icon-2">
    <path d="M0 0L48 0L48 48L0 48L0 0Z" id="Background" fill="#FFFFFF" fill-opacity="0" fill-rule="evenodd" stroke="none" />
    <g clip-path="url(#mask_1)">
      <path d="M39 16L39 41C39 42.105 38.105 43 37 43L11 43C9.895 43 9 42.105 9 41L9 7C9 5.895 9.895 5 11 5L28 5L39 16L39 16Z" id="Shape" fill="#50E6FF" fill-rule="evenodd" stroke="none" />
      <path d="M28 5L28 14C28 15.105 28.895 16 30 16L39 16L28 5L28 5Z" id="Shape" fill="url(#gradient_1)" fill-rule="evenodd" stroke="none" />
    </g>
  </g>
  <g id="Picture-Icon" transform="translate(8.499985 14)">
    <path d="M0 0L31 0L31 31L0 31L0 0Z" id="Background" fill="#FFFFFF" fill-opacity="0" fill-rule="evenodd" stroke="none" />
    <path d="M25.8333 3.875L5.16667 3.875C4.45302 3.875 3.875 4.45302 3.875 5.16667L3.875 25.8333C3.875 26.547 4.45302 27.125 5.16667 27.125L25.8333 27.125C26.547 27.125 27.125 26.547 27.125 25.8333L27.125 5.16667C27.125 4.45302 26.547 3.875 25.8333 3.875L25.8333 3.875Z" id="Shape" fill="url(#gradient_2)" stroke="none" />
    <path d="M20.7086 14.8961C19.9666 14.1541 18.7679 14.1379 18.0058 14.8593L11.625 20.9043L11.625 27.125L25.8333 27.125C26.547 27.125 27.125 26.547 27.125 25.8333L27.125 21.3125L20.7086 14.8961L20.7086 14.8961Z" id="Shape" fill="#D6742D" stroke="none" />
    <path d="M17.4375 9.3646C17.4375 8.11621 18.4495 7.10418 19.6979 7.10418C20.9463 7.10418 21.9583 8.11621 21.9583 9.3646C21.9583 10.613 20.9463 11.625 19.6979 11.625C18.4495 11.625 17.4375 10.613 17.4375 9.3646Z" id="Circle" fill="#FFF8DE" fill-rule="evenodd" stroke="none" />
    <path d="M5.16667 27.125L25.8333 27.125C26.3571 27.125 26.8066 26.8118 27.0087 26.3629L12.9586 12.3128C12.2166 11.5708 11.0179 11.5546 10.2558 12.276L3.875 18.321L3.875 25.8333C3.875 26.547 4.45302 27.125 5.16667 27.125L5.16667 27.125Z" id="Shape" fill="url(#gradient_3)" stroke="none" />
  </g>
  <g id="Website-Icon" transform="translate(19.479141 24.979126)">
    <path d="M0 0L16.7917 0L16.7917 16.7917L0 16.7917L0 0Z" id="Background" fill="#FFFFFF" fill-opacity="0" fill-rule="evenodd" stroke="none" />
    <path d="M1.39929 8.39582C1.39929 4.53199 4.53199 1.39929 8.39582 1.39929C12.2597 1.39929 15.3923 4.53199 15.3923 8.39582C15.3923 12.2597 12.2597 15.3923 8.39582 15.3923C4.53199 15.3923 1.39929 12.2597 1.39929 8.39582L1.39929 8.39582Z" id="Shape" fill="url(#gradient_4)" stroke="none" />
    <path d="M14.3429 8.39582C14.3429 7.26273 14.1074 6.19506 13.6995 5.24739L14.6378 5.24739C14.516 5.00635 14.3841 4.77162 14.2362 4.54773L13.3574 4.54773C12.2922 2.65307 10.4671 1.39929 8.39581 1.39929C6.32449 1.39929 4.49945 2.65307 3.43423 4.54773L2.55546 4.54773C2.40748 4.77162 2.2756 5.00635 2.15386 5.24739L3.09209 5.24739C2.6842 6.19506 2.44876 7.26273 2.44876 8.39582C2.44876 9.52891 2.6842 10.5966 3.09209 11.5443L2.15386 11.5443C2.2756 11.7853 2.40748 12.02 2.55546 12.2439L3.43423 12.2439C4.49945 14.1386 6.32449 15.3923 8.39581 15.3923C10.4671 15.3923 12.2922 14.1386 13.3574 12.2439L14.2362 12.2439C14.3841 12.02 14.516 11.7853 14.6378 11.5443L13.6995 11.5443C14.1074 10.5966 14.3429 9.52891 14.3429 8.39582L14.3429 8.39582ZM13.6432 8.39582C13.6432 9.54325 13.3819 10.6169 12.9334 11.5443L10.9069 11.5443C11.0968 10.5532 11.1944 9.46384 11.1944 8.39582C11.1944 7.3278 11.0968 6.23844 10.9069 5.24738L12.9334 5.24738C13.3819 6.17477 13.6432 7.24839 13.6432 8.39582L13.6432 8.39582ZM8.39581 14.6927C7.8046 14.6927 7.17457 13.7702 6.76072 12.2439L10.0312 12.2439C9.61705 13.7702 8.98701 14.6927 8.39581 14.6927L8.39581 14.6927ZM6.59353 11.5443C6.40917 10.6393 6.29688 9.57508 6.29688 8.39582C6.29688 7.21655 6.40917 6.15238 6.59353 5.24738L10.1981 5.24738C10.3825 6.15238 10.4948 7.21655 10.4948 8.39582C10.4948 9.57508 10.3825 10.6393 10.1981 11.5443L6.59353 11.5443L6.59353 11.5443ZM8.3958 2.09894C8.987 2.09894 9.61704 3.02143 10.0309 4.54773L6.76036 4.54773C7.17455 3.02143 7.80459 2.09894 8.3958 2.09894L8.3958 2.09894ZM12.5402 4.54775L10.7522 4.54775C10.5332 3.67353 10.2348 2.90916 9.85948 2.35329C10.9366 2.7297 11.8692 3.50946 12.5402 4.54775L12.5402 4.54775ZM6.93212 2.35329C6.55676 2.90951 6.25835 3.67353 6.03936 4.54775L4.2514 4.54775C4.92237 3.50946 5.855 2.7297 6.93212 2.35329L6.93212 2.35329ZM3.14844 8.39582C3.14844 7.24839 3.40976 6.17477 3.85823 5.24738L5.88478 5.24738C5.69482 6.23844 5.59722 7.3278 5.59722 8.39582C5.59722 9.46384 5.69482 10.5532 5.88478 11.5443L3.85823 11.5443C3.40976 10.6169 3.14844 9.54325 3.14844 8.39582L3.14844 8.39582ZM4.2514 12.2439L6.03936 12.2439C6.25835 13.1181 6.55676 13.8825 6.93212 14.4384C5.855 14.062 4.92237 13.2822 4.2514 12.2439L4.2514 12.2439ZM9.85948 14.4384C10.2348 13.8821 10.5332 13.1181 10.7522 12.2439L12.5402 12.2439C11.8692 13.2822 10.9366 14.062 9.85948 14.4384L9.85948 14.4384Z" id="Shape" fill="url(#gradient_5)" fill-rule="evenodd" stroke="none" />
    <path d="M14.8095 6.64672L13.886 6.64672C13.7636 6.64672 13.6579 6.73243 13.6327 6.85207L13.468 7.63638L13.2647 6.84123C13.2357 6.72683 13.1325 6.64672 13.0142 6.64672L12.1733 6.64672C12.055 6.64672 11.9518 6.72683 11.9224 6.84158L11.7192 7.63673L11.5544 6.85242C11.5296 6.73243 11.4239 6.64672 11.3015 6.64672L9.68808 6.64672C9.56565 6.64672 9.46 6.73243 9.43481 6.85207L9.27004 7.63638L9.06679 6.84123C9.03776 6.72683 8.93456 6.64672 8.81632 6.64672L7.97534 6.64672C7.85709 6.64672 7.75389 6.72683 7.72451 6.84158L7.52126 7.63673L7.35649 6.85242C7.33165 6.73243 7.22601 6.64672 7.10357 6.64672L5.49017 6.64672C5.36773 6.64672 5.26208 6.73243 5.23689 6.85207L5.07213 7.63638L4.86888 6.84123C4.83984 6.72683 4.73664 6.64672 4.6184 6.64672L3.77742 6.64672C3.65918 6.64672 3.55598 6.72683 3.52659 6.84158L3.32369 7.63673L3.15893 6.85207C3.13374 6.73243 3.02809 6.64672 2.90565 6.64672L1.98211 6.64672C1.81384 6.64672 1.69035 6.80484 1.73128 6.96821L2.47641 9.94908C2.5051 10.0642 2.60865 10.145 2.72724 10.145L3.72564 10.145C3.84284 10.145 3.94499 10.0677 3.97507 9.95468C4.04224 9.70455 4.15628 9.27847 4.19756 9.12209C4.23884 9.27847 4.35288 9.70456 4.42005 9.95468C4.45083 10.0677 4.55298 10.145 4.67018 10.145L5.66858 10.145C5.78717 10.145 5.89072 10.0642 5.91941 9.94908L6.29687 8.43958L6.67433 9.94908C6.70302 10.0642 6.80657 10.145 6.92516 10.145L7.92356 10.145C8.04075 10.145 8.1429 10.0677 8.17299 9.95468C8.24015 9.70455 8.3542 9.27847 8.39548 9.12209C8.43676 9.27847 8.5508 9.70456 8.61797 9.95468C8.64875 10.0677 8.7509 10.145 8.86809 10.145L9.8665 10.145C9.98509 10.145 10.0886 10.0642 10.1173 9.94908L10.4948 8.43958L10.8722 9.94908C10.9009 10.0642 11.0045 10.145 11.1231 10.145L12.1215 10.145C12.2387 10.145 12.3408 10.0677 12.3709 9.95468C12.4381 9.70455 12.5521 9.27847 12.5934 9.12209C12.6347 9.27847 12.7487 9.70456 12.8159 9.95468C12.8467 10.0677 12.9488 10.145 13.066 10.145L14.0644 10.145C14.183 10.145 14.2866 10.0642 14.3152 9.94908L15.0604 6.96821C15.1013 6.80484 14.9778 6.64672 14.8095 6.64672L14.8095 6.64672Z" id="Shape" fill="#000000" fill-opacity="0.05" stroke="none" />
    <path d="M14.6763 6.8216L13.9707 6.8216C13.8818 6.8216 13.8049 6.88387 13.7867 6.97097L13.4848 8.40841L13.1157 6.96293C13.0944 6.87967 13.0195 6.8216 12.9334 6.8216L12.2541 6.8216C12.1684 6.8216 12.0932 6.87967 12.0718 6.96293L11.7027 8.40841L11.4005 6.97097C11.3823 6.88387 11.3053 6.8216 11.2165 6.8216L9.77206 6.8216C9.6832 6.8216 9.60624 6.88387 9.58805 6.97097L9.28615 8.40841L8.91708 6.96293C8.89574 6.87967 8.82088 6.8216 8.73482 6.8216L8.05546 6.8216C7.96975 6.8216 7.89454 6.87967 7.8732 6.96293L7.50413 8.40841L7.20188 6.97097C7.18369 6.88387 7.10673 6.8216 7.01787 6.8216L5.57344 6.8216C5.48459 6.8216 5.40762 6.88387 5.38943 6.97097L5.08753 8.40841L4.71847 6.96293C4.69713 6.87967 4.62226 6.8216 4.53621 6.8216L3.85684 6.8216C3.77114 6.8216 3.69592 6.87967 3.67458 6.96293L3.30552 8.40841L3.00502 6.97097C2.98682 6.88387 2.91021 6.8216 2.82136 6.8216L2.11541 6.8216C1.99332 6.8216 1.90341 6.93634 1.93315 7.05528L2.62615 9.82766C2.64714 9.91127 2.72236 9.97004 2.80841 9.97004L3.64555 9.97004C3.73056 9.97004 3.80472 9.91372 3.82676 9.83151C3.91142 9.51526 4.17134 8.54309 4.19722 8.40911C4.22346 8.54309 4.48303 9.51561 4.56769 9.83151C4.58973 9.91372 4.66389 9.97004 4.7489 9.97004L5.58603 9.97004C5.67244 9.97004 5.7473 9.91127 5.76829 9.82766L6.29688 7.7182L6.82442 9.82766C6.84541 9.91127 6.92062 9.97004 7.00668 9.97004L7.84381 9.97004C7.92882 9.97004 8.00299 9.91372 8.02502 9.83151C8.10968 9.51526 8.3696 8.5431 8.39549 8.40911C8.42173 8.5431 8.6813 9.51561 8.76596 9.83151C8.78799 9.91372 8.86216 9.97004 8.94717 9.97004L9.7843 9.97004C9.87071 9.97004 9.94557 9.91127 9.96656 9.82766L10.4948 7.7182L11.0223 9.82766C11.0433 9.91127 11.1185 9.97004 11.2046 9.97004L12.0417 9.97004C12.1267 9.97004 12.2009 9.91372 12.2229 9.83151C12.3076 9.51526 12.5675 8.5431 12.5934 8.40911C12.6196 8.5431 12.8792 9.51561 12.9639 9.83151C12.9859 9.91372 13.0601 9.97004 13.1451 9.97004L13.9822 9.97004C14.0686 9.97004 14.1435 9.91127 14.1645 9.82766L14.8575 7.05528C14.8883 6.93634 14.7984 6.8216 14.6763 6.8216L14.6763 6.8216Z" id="Shape" fill="#000000" fill-opacity="0.07" stroke="none" />
    <path d="M9.7619 6.99652L9.30293 9.18049L8.74566 6.99652L8.04601 6.99652L7.48873 9.18049L7.02976 6.99652L6.29688 6.99652L6.99653 9.79513L7.85395 9.79513C7.85395 9.79513 8.38324 7.82351 8.39583 7.69618C8.40843 7.82351 8.93771 9.79513 8.93771 9.79513L9.79514 9.79513L10.4948 6.99652L9.7619 6.99652L9.7619 6.99652Z" id="Shape" fill="#FFFFFF" stroke="none" />
    <path d="M5.56397 6.99652L5.105 9.18049L4.54773 6.99652L3.84807 6.99652L3.2908 9.18049L2.83183 6.99652L2.09894 6.99652L2.7986 9.79513L3.65602 9.79513C3.65602 9.79513 4.18531 7.82351 4.1979 7.69618C4.21049 7.82351 4.73978 9.79513 4.73978 9.79513L5.59721 9.79513L6.29686 6.99652L5.56397 6.99652L5.56397 6.99652Z" id="Shape" fill="#FFFFFF" stroke="none" />
    <path d="M13.9598 6.99652L13.5009 9.18049L12.9436 6.99652L12.2439 6.99652L11.6867 9.18049L11.2277 6.99652L10.4948 6.99652L11.1945 9.79513L12.0519 9.79513C12.0519 9.79513 12.5812 7.82351 12.5938 7.69618C12.6064 7.82351 13.1356 9.79513 13.1356 9.79513L13.9931 9.79513L14.6927 6.99652L13.9598 6.99652L13.9598 6.99652Z" id="Shape" fill="#FFFFFF" stroke="none" />
  </g>
</svg>