<?xml version="1.0" encoding="utf-8"?>
<svg width="48px" height="48px" viewBox="0 0 48 48" version="1.1" xmlns:xlink="http://www.w3.org/1999/xlink" xmlns="http://www.w3.org/2000/svg">
  <defs>
    <radialGradient gradientUnits="objectBoundingBox" cx="117.99168%" cy="84.65278%" fx="117.99168%" fy="84.65278%" r="63.727768%" gradientTransform="translate(1.1799167,0.84652776),translate(-1.1799167,-0.84652776)" id="gradient_1">
      <stop offset="0%" stop-color="#FFCF7B" />
      <stop offset="19.5%" stop-color="#FECD76" />
      <stop offset="43.9%" stop-color="#FAC666" />
      <stop offset="71%" stop-color="#F3BC4D" />
      <stop offset="99.69999%" stop-color="#EAAD29" />
      <stop offset="100%" stop-color="#EAAD29" />
    </radialGradient>
    <linearGradient gradientUnits="userSpaceOnUse" x1="11.91" y1="-18.239944" x2="11.91" y2="6.0420575" id="gradient_2">
      <stop offset="0%" stop-color="#C26715" />
      <stop offset="50.800003%" stop-color="#B85515" />
      <stop offset="100%" stop-color="#AD3F16" />
    </linearGradient>
    <radialGradient gradientUnits="objectBoundingBox" cx="15.830001%" cy="12.9525%" fx="15.830001%" fy="12.9525%" r="980.03015%" gradientTransform="translate(0.15830001,0.129525),rotate(-126.57439),scale(1,1.2864804),translate(-0.15830001,-0.129525)" id="gradient_3">
      <stop offset="0%" stop-color="#6FCEFC" />
      <stop offset="100%" stop-color="#167CF7" />
    </radialGradient>
    <radialGradient gradientUnits="objectBoundingBox" cx="14.31374%" cy="11.2%" fx="14.31374%" fy="11.2%" r="1328.8625%" gradientTransform="translate(0.1431374,0.111999996),scale(1,0.89215),rotate(-138.29108),scale(1,1.2498165),translate(-0.1431374,-0.111999996)" id="gradient_4">
      <stop offset="0.1%" stop-color="#54C0F5" />
      <stop offset="99.8%" stop-color="#0B69DB" />
    </radialGradient>
    <path d="M0 0L23 0L23 23L0 23L0 0Z" id="path_1" />
    <clipPath id="mask_1">
      <use xlink:href="#path_1" />
    </clipPath>
  </defs>
  <g id="svg">
    <g id="Picture-Icon">
      <path d="M0 0L48 0L48 48L0 48L0 0L0 0Z" id="Background" fill="#FFFFFF" fill-opacity="0" fill-rule="evenodd" stroke="none" />
      <path d="M40 6L8 6C6.895 6 6 6.895 6 8L6 40C6 41.105 6.895 42 8 42L40 42C41.105 42 42 41.105 42 40L42 8C42 6.895 41.105 6 40 6L40 6L40 6Z" id="Shape" fill="url(#gradient_1)" stroke="none" />
      <path d="M32.065 23.065C30.916 21.916 29.06 21.891 27.88 23.008L18 32.368L18 42L40 42C41.105 42 42 41.105 42 40L42 33L32.065 23.065L32.065 23.065L32.065 23.065Z" id="Shape#1" fill="#D6742D" stroke="none" />
      <path d="M27 14.5C27 12.567 28.567 11 30.5 11C32.433 11 34 12.567 34 14.5C34 16.433 32.433 18 30.5 18C28.567 18 27 16.433 27 14.5L27 14.5Z" id="Circle" fill="#FFF8DE" fill-rule="evenodd" stroke="none" />
      <path d="M8 42L40 42C40.811 42 41.507 41.515 41.82 40.82L20.065 19.065C18.916 17.916 17.06 17.891 15.88 19.008L6 28.368L6 40C6 41.105 6.895 42 8 42L8 42L8 42Z" id="Shape#2" fill="url(#gradient_2)" stroke="none" />
    </g>
  </g>
  <g id="Website-Icon" transform="translate(20 19)">
    <path d="M0 0L23 0L23 23L0 23L0 0Z" id="Background" fill="#FFFFFF" fill-opacity="0" fill-rule="evenodd" stroke="none" />
    <path d="M1.91667 11.5C1.91667 6.2076 6.2076 1.91667 11.5 1.91667C16.7924 1.91667 21.0833 6.2076 21.0833 11.5C21.0833 16.7924 16.7924 21.0833 11.5 21.0833C6.2076 21.0833 1.91667 16.7924 1.91667 11.5L1.91667 11.5Z" id="Shape" fill="url(#gradient_3)" stroke="none" />
    <path d="M19.6458 11.5C19.6458 9.94798 19.3233 8.48556 18.7646 7.1875L20.0498 7.1875C19.883 6.85735 19.7024 6.53583 19.4997 6.22917L18.296 6.22917C16.837 3.634 14.3371 1.91667 11.5 1.91667C8.66285 1.91667 6.16303 3.634 4.70397 6.22917L3.5003 6.22917C3.29762 6.53583 3.11697 6.85735 2.95022 7.1875L4.23535 7.1875C3.67664 8.48556 3.35416 9.94798 3.35416 11.5C3.35416 13.052 3.67664 14.5144 4.23535 15.8125L2.95022 15.8125C3.11697 16.1426 3.29762 16.4642 3.5003 16.7708L4.70397 16.7708C6.16303 19.366 8.66285 21.0833 11.5 21.0833C14.3371 21.0833 16.837 19.366 18.296 16.7708L19.4997 16.7708C19.7024 16.4642 19.883 16.1426 20.0498 15.8125L18.7646 15.8125C19.3233 14.5144 19.6458 13.052 19.6458 11.5L19.6458 11.5ZM18.6875 11.5C18.6875 13.0717 18.3296 14.5422 17.7153 15.8125L14.9394 15.8125C15.1996 14.455 15.3333 12.9629 15.3333 11.5C15.3333 10.0371 15.1996 8.54498 14.9394 7.1875L17.7153 7.1875C18.3296 8.45777 18.6875 9.92833 18.6875 11.5L18.6875 11.5ZM11.5 20.125C10.6902 20.125 9.82722 18.8614 9.26037 16.7708L13.7401 16.7708C13.1728 18.8614 12.3098 20.125 11.5 20.125L11.5 20.125ZM9.03133 15.8125C8.77881 14.5729 8.625 13.1153 8.625 11.5C8.625 9.88473 8.77881 8.4271 9.03133 7.1875L13.9687 7.1875C14.2212 8.4271 14.375 9.88473 14.375 11.5C14.375 13.1153 14.2212 14.5729 13.9687 15.8125L9.03133 15.8125L9.03133 15.8125ZM11.5 2.875C12.3098 2.875 13.1728 4.13856 13.7396 6.22917L9.25989 6.22917C9.82722 4.13856 10.6902 2.875 11.5 2.875L11.5 2.875ZM17.1767 6.22917L14.7277 6.22917C14.4277 5.03173 14.019 3.98475 13.5048 3.22336C14.9802 3.73894 16.2576 4.807 17.1767 6.22917L17.1767 6.22917ZM9.49516 3.22336C8.98101 3.98523 8.57228 5.03173 8.27233 6.22917L5.82331 6.22917C6.74235 4.807 8.0198 3.73894 9.49516 3.22336L9.49516 3.22336ZM4.3125 11.5C4.3125 9.92833 4.67044 8.45777 5.28473 7.1875L8.06054 7.1875C7.80035 8.54498 7.66667 10.0371 7.66667 11.5C7.66667 12.9629 7.80035 14.455 8.06054 15.8125L5.28473 15.8125C4.67044 14.5422 4.3125 13.0717 4.3125 11.5L4.3125 11.5ZM5.82331 16.7708L8.27233 16.7708C8.57228 17.9683 8.98101 19.0152 9.49516 19.7766C8.0198 19.2611 6.74235 18.193 5.82331 16.7708L5.82331 16.7708ZM13.5048 19.7766C14.019 19.0148 14.4277 17.9683 14.7277 16.7708L17.1767 16.7708C16.2576 18.193 14.9802 19.2611 13.5048 19.7766L13.5048 19.7766Z" id="Shape" fill="url(#gradient_4)" fill-rule="evenodd" stroke="none" />
    <path d="M20.285 9.10417L19.02 9.10417C18.8523 9.10417 18.7076 9.22156 18.6731 9.38544L18.4474 10.4597L18.169 9.37058C18.1293 9.21389 17.9879 9.10417 17.826 9.10417L16.674 9.10417C16.5121 9.10417 16.3707 9.21389 16.3305 9.37106L16.0521 10.4602L15.8264 9.38592C15.7924 9.22156 15.6477 9.10417 15.48 9.10417L13.27 9.10417C13.1023 9.10417 12.9576 9.22156 12.9231 9.38544L12.6974 10.4597L12.419 9.37058C12.3793 9.21389 12.2379 9.10417 12.076 9.10417L10.924 9.10417C10.7621 9.10417 10.6207 9.21389 10.5805 9.37106L10.3021 10.4602L10.0764 9.38592C10.0424 9.22156 9.89767 9.10417 9.72996 9.10417L7.52004 9.10417C7.35234 9.10417 7.20763 9.22156 7.17313 9.38544L6.94744 10.4597L6.66905 9.37058C6.62927 9.21389 6.48792 9.10417 6.32596 9.10417L5.17404 9.10417C5.01209 9.10417 4.87073 9.21389 4.83048 9.37106L4.55257 10.4602L4.32688 9.38544C4.29238 9.22156 4.14767 9.10417 3.97996 9.10417L2.71496 9.10417C2.48448 9.10417 2.31534 9.32075 2.3714 9.54452L3.39202 13.6275C3.43132 13.7851 3.57315 13.8958 3.73559 13.8958L5.10313 13.8958C5.26365 13.8958 5.40357 13.7899 5.44477 13.6352C5.53677 13.2926 5.69298 12.7089 5.74952 12.4947C5.80607 12.7089 5.96227 13.2926 6.05427 13.6352C6.09644 13.7899 6.23636 13.8958 6.39688 13.8958L7.76442 13.8958C7.92686 13.8958 8.06869 13.7851 8.10798 13.6275L8.625 11.5599L9.14202 13.6275C9.18132 13.7851 9.32315 13.8958 9.48559 13.8958L10.8531 13.8958C11.0136 13.8958 11.1536 13.7899 11.1948 13.6352C11.2868 13.2926 11.443 12.7089 11.4995 12.4947C11.5561 12.7089 11.7123 13.2926 11.8043 13.6352C11.8464 13.7899 11.9864 13.8958 12.1469 13.8958L13.5144 13.8958C13.6769 13.8958 13.8187 13.7851 13.858 13.6275L14.375 11.5599L14.892 13.6275C14.9313 13.7851 15.0731 13.8958 15.2356 13.8958L16.6031 13.8958C16.7636 13.8958 16.9036 13.7899 16.9448 13.6352C17.0368 13.2926 17.193 12.7089 17.2495 12.4947C17.3061 12.7089 17.4623 13.2926 17.5543 13.6352C17.5964 13.7899 17.7364 13.8958 17.8969 13.8958L19.2644 13.8958C19.4269 13.8958 19.5687 13.7851 19.608 13.6275L20.6286 9.54452C20.6847 9.32075 20.5155 9.10417 20.285 9.10417L20.285 9.10417Z" id="Shape" fill="#000000" fill-opacity="0.05" stroke="none" />
    <path d="M20.1025 9.34375L19.136 9.34375C19.0143 9.34375 18.9089 9.42904 18.884 9.54836L18.4704 11.5173L17.9649 9.53733C17.9357 9.42329 17.8331 9.34375 17.7153 9.34375L16.7847 9.34375C16.6673 9.34375 16.5643 9.42329 16.5351 9.53733L16.0296 11.5173L15.6156 9.54835C15.5906 9.42904 15.4852 9.34375 15.3635 9.34375L13.385 9.34375C13.2633 9.34375 13.1579 9.42904 13.133 9.54835L12.7195 11.5173L12.214 9.53733C12.1847 9.42329 12.0822 9.34375 11.9643 9.34375L11.0338 9.34375C10.9164 9.34375 10.8134 9.42329 10.7841 9.53733L10.2786 11.5173L9.86461 9.54835C9.83969 9.42904 9.73427 9.34375 9.61256 9.34375L7.63409 9.34375C7.51238 9.34375 7.40696 9.42904 7.38204 9.54835L6.96852 11.5173L6.463 9.53733C6.43377 9.42329 6.33123 9.34375 6.21336 9.34375L5.28281 9.34375C5.16542 9.34375 5.0624 9.42329 5.03317 9.53733L4.52765 11.5173L4.11604 9.54836C4.09113 9.42904 3.98619 9.34375 3.86448 9.34375L2.89752 9.34375C2.73029 9.34375 2.60715 9.50092 2.64788 9.66383L3.59711 13.4612C3.62586 13.5758 3.72888 13.6562 3.84675 13.6562L4.9934 13.6562C5.10983 13.6562 5.21142 13.5791 5.24161 13.4665C5.35756 13.0333 5.71358 11.7017 5.74904 11.5182C5.78498 11.7017 6.14052 13.0338 6.25648 13.4665C6.28667 13.5791 6.38825 13.6562 6.50469 13.6562L7.65133 13.6562C7.76969 13.6562 7.87223 13.5758 7.90098 13.4612L8.625 10.5719L9.34758 13.4612C9.37633 13.5758 9.47935 13.6563 9.59723 13.6563L10.7439 13.6563C10.8603 13.6563 10.9619 13.5791 10.9921 13.4665C11.108 13.0333 11.4641 11.7017 11.4995 11.5182C11.5355 11.7017 11.891 13.0338 12.007 13.4665C12.0371 13.5791 12.1387 13.6563 12.2552 13.6563L13.4018 13.6563C13.5202 13.6563 13.6227 13.5758 13.6515 13.4612L14.375 10.5719L15.0976 13.4612C15.1263 13.5758 15.2294 13.6563 15.3472 13.6563L16.4939 13.6563C16.6103 13.6563 16.7119 13.5791 16.7421 13.4665C16.858 13.0333 17.2141 11.7017 17.2495 11.5182C17.2855 11.7017 17.641 13.0338 17.757 13.4665C17.7871 13.5791 17.8887 13.6563 18.0052 13.6563L19.1518 13.6563C19.2702 13.6563 19.3727 13.5758 19.4015 13.4612L20.3507 9.66383C20.3929 9.50092 20.2697 9.34375 20.1025 9.34375L20.1025 9.34375Z" id="Shape" fill="#000000" fill-opacity="0.07" stroke="none" />
    <path d="M13.3711 9.58333L12.7425 12.5748L11.9792 9.58333L11.0208 9.58333L10.2575 12.5748L9.62885 9.58333L8.625 9.58333L9.58333 13.4167L10.7578 13.4167C10.7578 13.4167 11.4827 10.7161 11.5 10.5417C11.5173 10.7161 12.2422 13.4167 12.2422 13.4167L13.4167 13.4167L14.375 9.58333L13.3711 9.58333L13.3711 9.58333Z" id="Shape" fill="#FFFFFF" stroke="none" />
    <path d="M7.62115 9.58333L6.99248 12.5748L6.22917 9.58333L5.27083 9.58333L4.50752 12.5748L3.87885 9.58333L2.875 9.58333L3.83333 13.4167L5.00777 13.4167C5.00777 13.4167 5.73275 10.7161 5.75 10.5417C5.76725 10.7161 6.49223 13.4167 6.49223 13.4167L7.66667 13.4167L8.625 9.58333L7.62115 9.58333L7.62115 9.58333Z" id="Shape" fill="#FFFFFF" stroke="none" />
    <path d="M19.1211 9.58333L18.4925 12.5748L17.7292 9.58333L16.7708 9.58333L16.0075 12.5748L15.3789 9.58333L14.375 9.58333L15.3333 13.4167L16.5078 13.4167C16.5078 13.4167 17.2327 10.7161 17.25 10.5417C17.2673 10.7161 17.9922 13.4167 17.9922 13.4167L19.1667 13.4167L20.125 9.58333L19.1211 9.58333L19.1211 9.58333Z" id="Shape" fill="#FFFFFF" stroke="none" />
  </g>
</svg>