<?xml version="1.0" encoding="utf-8"?>
<svg width="48px" height="48px" viewBox="0 0 48 48" version="1.1" xmlns:xlink="http://www.w3.org/1999/xlink" xmlns="http://www.w3.org/2000/svg">
  <defs>
    <linearGradient gradientUnits="userSpaceOnUse" x1="12.72725" y1="12.72725" x2="4.1862497" y2="4.1862483" id="gradient_1">
      <stop offset="36.499996%" stop-color="#199AE0" />
      <stop offset="69.9%" stop-color="#1898DE" />
      <stop offset="81.9%" stop-color="#1691D8" />
      <stop offset="90.5%" stop-color="#1186CC" />
      <stop offset="97.399994%" stop-color="#0A75BC" />
      <stop offset="100%" stop-color="#076CB3" />
    </linearGradient>
    <linearGradient gradientUnits="userSpaceOnUse" x1="1.3592501" y1="12.14025" x2="12.35725" y2="1.1422479" id="gradient_2">
      <stop offset="0%" stop-color="#32BDEF" />
      <stop offset="100%" stop-color="#1EA2E4" />
    </linearGradient>
    <linearGradient gradientUnits="userSpaceOnUse" x1="0.77224183" y1="12.726248" x2="9.3133" y2="4.18525" id="gradient_3">
      <stop offset="36.499996%" stop-color="#199AE0" />
      <stop offset="69.9%" stop-color="#1898DE" />
      <stop offset="81.9%" stop-color="#1691D8" />
      <stop offset="90.5%" stop-color="#1186CC" />
      <stop offset="97.399994%" stop-color="#0A75BC" />
      <stop offset="100%" stop-color="#076CB3" />
    </linearGradient>
    <linearGradient gradientUnits="userSpaceOnUse" x1="12.141232" y1="12.140251" x2="1.1432228" y2="1.1422487" id="gradient_4">
      <stop offset="0%" stop-color="#32BDEF" />
      <stop offset="100%" stop-color="#1EA2E4" />
    </linearGradient>
    <path d="M0 0L48 0L48 48L0 48L0 0Z" id="path_1" />
    <clipPath id="clip_1">
      <use xlink:href="#path_1" />
    </clipPath>
  </defs>
  <g id="Source Code" clip-path="url(#clip_1)">
    <path d="M0 0L48 0L48 48L0 48L0 0Z" id="Source-Code" fill="none" fill-rule="evenodd" stroke="none" />
    <path d="M0.29 24.701L9.799 34.21C10.186 34.597 10.813 34.597 11.2 34.21L13.209 32.201C13.596 31.814 13.596 31.187 13.209 30.8L3.701 21.29C3.314 20.903 2.687 20.903 2.3 21.29L0.29 23.299C-0.097 23.686 -0.097 24.314 0.29 24.701L0.29 24.701Z" id="Shape" fill="url(#gradient_1)" stroke="none" />
    <path d="M3.701 26.71L13.21 17.201C13.597 16.814 13.597 16.187 13.21 15.8L11.201 13.791C10.814 13.404 10.187 13.404 9.8 13.791L0.29 23.299C-0.097 23.686 -0.097 24.313 0.29 24.7L2.299 26.709C2.686 27.097 3.314 27.097 3.701 26.71L3.701 26.71Z" id="Shape" fill="url(#gradient_2)" stroke="none" />
    <path d="M47.71 24.701L38.201 34.21C37.814 34.597 37.187 34.597 36.8 34.21L34.791 32.201C34.404 31.814 34.404 31.187 34.791 30.8L44.3 21.291C44.687 20.904 45.314 20.904 45.701 21.291L47.71 23.3C48.097 23.686 48.097 24.314 47.71 24.701L47.71 24.701Z" id="Shape" fill="url(#gradient_3)" stroke="none" />
    <path d="M44.299 26.71L34.79 17.201C34.403 16.814 34.403 16.187 34.79 15.8L36.799 13.791C37.186 13.404 37.813 13.404 38.2 13.791L47.709 23.3C48.096 23.687 48.096 24.314 47.709 24.701L45.7 26.71C45.314 27.097 44.686 27.097 44.299 26.71L44.299 26.71Z" id="Shape" fill="url(#gradient_4)" stroke="none" />
    <path d="M30.25 2.5L26.64 2.5C26.167 2.5 25.758 2.832 25.661 3.295L17.017 44.596C16.919 45.062 17.275 45.5 17.751 45.5L21.361 45.5C21.834 45.5 22.243 45.168 22.34 44.705L30.984 3.404C31.081 2.938 30.726 2.5 30.25 2.5L30.25 2.5Z" id="Shape" fill="#0078D4" stroke="none" />
  </g>
</svg>