<?xml version="1.0" encoding="utf-8"?>
<svg width="48px" height="48px" viewBox="0 0 48 48" version="1.1" xmlns:xlink="http://www.w3.org/1999/xlink" xmlns="http://www.w3.org/2000/svg">
  <defs>
    <linearGradient gradientUnits="userSpaceOnUse" x1="12.727118" y1="12.72725" x2="4.186206" y2="4.1862483" id="gradient_1">
      <stop offset="36.499996%" stop-color="#199AE0" />
      <stop offset="69.9%" stop-color="#1898DE" />
      <stop offset="81.9%" stop-color="#1691D8" />
      <stop offset="90.5%" stop-color="#1186CC" />
      <stop offset="97.399994%" stop-color="#0A75BC" />
      <stop offset="100%" stop-color="#076CB3" />
    </linearGradient>
    <linearGradient gradientUnits="userSpaceOnUse" x1="1.3592358" y1="12.14025" x2="12.3571205" y2="1.1422479" id="gradient_2">
      <stop offset="0%" stop-color="#32BDEF" />
      <stop offset="100%" stop-color="#1EA2E4" />
    </linearGradient>
    <linearGradient gradientUnits="userSpaceOnUse" x1="0.7722338" y1="12.726248" x2="9.313203" y2="4.18525" id="gradient_3">
      <stop offset="36.499996%" stop-color="#199AE0" />
      <stop offset="69.9%" stop-color="#1898DE" />
      <stop offset="81.9%" stop-color="#1691D8" />
      <stop offset="90.5%" stop-color="#1186CC" />
      <stop offset="97.399994%" stop-color="#0A75BC" />
      <stop offset="100%" stop-color="#076CB3" />
    </linearGradient>
    <linearGradient gradientUnits="userSpaceOnUse" x1="12.141105" y1="12.140251" x2="1.1432108" y2="1.1422487" id="gradient_4">
      <stop offset="0%" stop-color="#32BDEF" />
      <stop offset="100%" stop-color="#1EA2E4" />
    </linearGradient>
    <path d="M0.000250009 0L47.9997 0L47.9997 48L0.000250009 48L0.000250009 0Z" id="path_1" />
    <clipPath id="mask_1">
      <use xlink:href="#path_1" />
    </clipPath>
  </defs>
  <g id="Source-Code-Icon">
    <path d="M0.000250009 0L47.9997 0L47.9997 48L0.000250009 48L0.000250009 0Z" id="Background" fill="#FFFFFF" fill-opacity="0" fill-rule="evenodd" stroke="none" />
    <path d="M0.290247 24.701L9.79915 34.21C10.1861 34.597 10.8131 34.597 11.2001 34.21L13.2091 32.201C13.5961 31.814 13.5961 31.187 13.2091 30.8L3.70121 21.29C3.31422 20.903 2.68722 20.903 2.30023 21.29L0.290247 23.299C-0.096749 23.686 -0.096749 24.314 0.290247 24.701L0.290247 24.701Z" id="Shape" fill="url(#gradient_1)" stroke="none" />
    <path d="M3.70121 26.71L13.2101 17.201C13.5971 16.814 13.5971 16.187 13.2101 15.8L11.2011 13.791C10.8141 13.404 10.1871 13.404 9.80015 13.791L0.290247 23.299C-0.096749 23.686 -0.096749 24.313 0.290247 24.7L2.29923 26.709C2.68622 27.097 3.31421 27.097 3.70121 26.71L3.70121 26.71Z" id="Shape" fill="url(#gradient_2)" stroke="none" />
    <path d="M47.7098 24.701L38.2009 34.21C37.8139 34.597 37.1869 34.597 36.7999 34.21L34.7909 32.201C34.4039 31.814 34.4039 31.187 34.7909 30.8L44.2998 21.291C44.6868 20.904 45.3138 20.904 45.7008 21.291L47.7098 23.3C48.0967 23.686 48.0967 24.314 47.7098 24.701L47.7098 24.701Z" id="Shape" fill="url(#gradient_3)" stroke="none" />
    <path d="M44.2988 26.71L34.7899 17.201C34.4029 16.814 34.4029 16.187 34.7899 15.8L36.7989 13.791C37.1859 13.404 37.8129 13.404 38.1999 13.791L47.7088 23.3C48.0957 23.687 48.0957 24.314 47.7088 24.701L45.6998 26.71C45.3138 27.097 44.6858 27.097 44.2988 26.71L44.2988 26.71Z" id="Shape" fill="url(#gradient_4)" stroke="none" />
    <path d="M30.2499 2.5L26.64 2.5C26.167 2.5 25.758 2.832 25.661 3.295L17.0171 44.596C16.9191 45.062 17.2751 45.5 17.7511 45.5L21.361 45.5C21.834 45.5 22.243 45.168 22.34 44.705L30.9839 3.404C31.0809 2.938 30.7259 2.5 30.2499 2.5L30.2499 2.5Z" id="Shape" fill="#0078D4" stroke="none" />
  </g>
</svg>