<?xml version="1.0" encoding="utf-8"?>
<svg width="48px" height="48px" viewBox="0 0 48 48" version="1.1" xmlns:xlink="http://www.w3.org/1999/xlink" xmlns="http://www.w3.org/2000/svg">
  <defs>
    <linearGradient gradientUnits="objectBoundingBox" x1="0.84834784" y1="0.8483478" x2="0.14700001" y2="0.14699996" id="gradient_1">
      <stop offset="0%" stop-color="#FFFFFF" />
      <stop offset="24.2%" stop-color="#F2F2F2" />
      <stop offset="100%" stop-color="#CCCCCC" />
    </linearGradient>
    <linearGradient gradientUnits="objectBoundingBox" x1="0.032142878" y1="0.03214276" x2="0.85285723" y2="0.8528571" id="gradient_2">
      <stop offset="0%" stop-color="#0D61A9" />
      <stop offset="36.3%" stop-color="#0E5FA4" />
      <stop offset="78%" stop-color="#135796" />
      <stop offset="100%" stop-color="#16528C" />
    </linearGradient>
    <linearGradient gradientUnits="objectBoundingBox" x1="0.03312484" y1="0.012466855" x2="0.85199994" y2="0.8721818" id="gradient_3">
      <stop offset="0%" stop-color="#889097" />
      <stop offset="33.1%" stop-color="#848C94" />
      <stop offset="66.9%" stop-color="#78828B" />
      <stop offset="100%" stop-color="#64717C" />
    </linearGradient>
    <linearGradient gradientUnits="objectBoundingBox" x1="0.22204554" y1="-0.095999956" x2="0.7049545" y2="0.8645625" id="gradient_4">
      <stop offset="0%" stop-color="#7DD8F3" />
      <stop offset="100%" stop-color="#45B0D0" />
    </linearGradient>
    <linearGradient gradientUnits="objectBoundingBox" x1="0.021136403" y1="0.010250092" x2="0.9735" y2="1.0752501" id="gradient_5">
      <stop offset="0%" stop-color="#0077D2" />
      <stop offset="100%" stop-color="#0B59A2" />
    </linearGradient>
    <path d="M48 0L48 0L48 48L0 48L0 0L48 0Z" id="path_1" />
    <clipPath id="clip_1">
      <use xlink:href="#path_1" clip-rule="evenodd" fill-rule="evenodd" />
    </clipPath>
  </defs>
  <g id="Administrative Tools" clip-path="url(#clip_1)">
    <path d="M48 0L48 0L48 48L0 48L0 0L48 0Z" id="Administrative-Tools" fill="none" stroke="none" />
    <path d="M11.333 23.117C11.333 16.7657 16.4817 11.617 22.833 11.617C29.1843 11.617 34.333 16.7657 34.333 23.117C34.333 29.4683 29.1843 34.617 22.833 34.617C16.4817 34.617 11.333 29.4683 11.333 23.117Z" id="Circle" fill="url(#gradient_1)" fill-rule="evenodd" stroke="none" />
    <path d="M15.833 23.117C15.833 19.251 18.967 16.117 22.833 16.117C26.699 16.117 29.833 19.251 29.833 23.117C29.833 26.983 26.699 30.117 22.833 30.117C18.967 30.117 15.833 26.983 15.833 23.117Z" id="Circle" fill="url(#gradient_2)" fill-rule="evenodd" stroke="none" />
    <path d="M42.24 18.36C39.851 18.331 37.538 17.086 36.257 14.867C35.024 12.731 35.049 10.218 36.095 8.174C33.97 6.287 31.453 4.835 28.665 3.986C27.411 5.872 25.268 7.117 22.834 7.117C20.4 7.117 18.257 5.873 17.003 3.986C14.215 4.835 11.698 6.287 9.57301 8.174C10.619 10.218 10.644 12.731 9.41101 14.867C8.13001 17.086 5.81701 18.331 3.42801 18.36C3.05501 19.887 2.83501 21.475 2.83501 23.117C2.83501 24.401 2.96801 25.652 3.19901 26.869C5.66801 26.818 8.09001 28.077 9.41201 30.367C10.78 32.737 10.599 35.571 9.19201 37.712C11.274 39.659 13.765 41.168 16.532 42.087C17.662 39.74 20.056 38.116 22.835 38.116C25.614 38.116 28.008 39.74 29.138 42.087C31.905 41.168 34.396 39.659 36.478 37.712C35.071 35.571 34.89 32.737 36.258 30.367C37.58 28.077 40.001 26.818 42.471 26.869C42.702 25.652 42.835 24.401 42.835 23.117C42.833 21.475 42.613 19.887 42.24 18.36L42.24 18.36ZM22.833 33.617C17.034 33.617 12.333 28.916 12.333 23.117C12.333 17.318 17.034 12.617 22.833 12.617C28.632 12.617 33.333 17.318 33.333 23.117C33.333 28.916 28.632 33.617 22.833 33.617L22.833 33.617Z" id="Shape" fill="url(#gradient_3)" fill-rule="evenodd" stroke="none" />
    <path d="M22 41.5L22 27.5L44 27.5L44 41.5C44 42.6 43.1 43.5 42 43.5L24 43.5C22.9 43.5 22 42.6 22 41.5L22 41.5Z" id="Shape" fill="url(#gradient_4)" stroke="none" />
    <path d="M44 25.5L44 27.5L22 27.5L22 25.5C22 24.4 22.9 23.5 24 23.5L42 23.5C43.1 23.5 44 24.4 44 25.5L44 25.5Z" id="Shape" fill="url(#gradient_5)" stroke="none" />
    <path d="M27.146 40.854L25.146 38.854C24.951 38.659 24.951 38.342 25.146 38.147L25.853 37.44C26.048 37.245 26.365 37.245 26.56 37.44L27.499 38.379L30.438 35.44C30.633 35.245 30.95 35.245 31.145 35.44L31.852 36.147C32.047 36.342 32.047 36.659 31.852 36.854L27.852 40.854C27.658 41.049 27.342 41.049 27.146 40.854L27.146 40.854Z" id="Shape" fill="#195BBC" stroke="none" />
    <path d="M27.146 34.854L25.146 32.854C24.951 32.659 24.951 32.342 25.146 32.147L25.853 31.44C26.048 31.245 26.365 31.245 26.56 31.44L27.499 32.379L30.438 29.44C30.633 29.245 30.95 29.245 31.145 29.44L31.852 30.147C32.047 30.342 32.047 30.659 31.852 30.854L27.852 34.854C27.658 35.049 27.342 35.049 27.146 34.854L27.146 34.854Z" id="Shape" fill="#195BBC" stroke="none" />
  </g>
</svg>